<?xml version="1.0" encoding="UTF-8" standalone="no"?>
<svg
   xmlns:dc="http://purl.org/dc/elements/1.1/"
   xmlns:cc="http://creativecommons.org/ns#"
   xmlns:rdf="http://www.w3.org/1999/02/22-rdf-syntax-ns#"
   xmlns:svg="http://www.w3.org/2000/svg"
   xmlns="http://www.w3.org/2000/svg"
   xmlns:sodipodi="http://sodipodi.sourceforge.net/DTD/sodipodi-0.dtd"
   xmlns:inkscape="http://www.inkscape.org/namespaces/inkscape"
   width="109mm"
   height="28mm"
   viewBox="0 0 109 28"
   version="1.1"
   id="svg8"
   inkscape:version="0.92.4 (5da689c313, 2019-01-14)"
   sodipodi:docname="apoiox.svg"
   inkscape:export-filename="/home/ricardo/Insync/PC Sync/POTI 2021 certificados/plano_fundo.png"
   inkscape:export-xdpi="96"
   inkscape:export-ydpi="96">
  <defs
     id="defs2">
    <clipPath
       id="clipPath5658"
       clipPathUnits="userSpaceOnUse">
      <path
         inkscape:connector-curvature="0"
         id="path5660"
         d="m 0,7.0625 h 5950 v 8405.87 H 0 Z" />
    </clipPath>
    <clipPath
       id="clipPath5526"
       clipPathUnits="userSpaceOnUse">
      <path
         inkscape:connector-curvature="0"
         id="path5528"
         d="m 7.1875,7.0625 h 5942.81 v 8404.77 H 7.1875 Z" />
    </clipPath>
  </defs>
  <sodipodi:namedview
     id="base"
     pagecolor="#ffffff"
     bordercolor="#666666"
     borderopacity="1.0"
     inkscape:pageopacity="0.0"
     inkscape:pageshadow="2"
     inkscape:zoom="0.9899495"
     inkscape:cx="144.10015"
     inkscape:cy="41.40302"
     inkscape:document-units="mm"
     inkscape:current-layer="layer1"
     showgrid="false"
     inkscape:snap-global="false"
     inkscape:window-width="1920"
     inkscape:window-height="1010"
     inkscape:window-x="0"
     inkscape:window-y="0"
     inkscape:window-maximized="1"
     inkscape:snap-bbox="true"
     inkscape:bbox-paths="true"
     inkscape:bbox-nodes="true"
     inkscape:snap-bbox-edge-midpoints="true"
     inkscape:snap-bbox-midpoints="true"
     inkscape:object-paths="true"
     inkscape:snap-intersection-paths="true"
     inkscape:snap-smooth-nodes="true"
     inkscape:snap-midpoints="true"
     inkscape:snap-object-midpoints="true"
     inkscape:snap-center="true"
     inkscape:snap-text-baseline="true"
     inkscape:snap-page="true"
     inkscape:document-rotation="0" />
  <metadata
     id="metadata5">
    <rdf:RDF>
      <cc:Work
         rdf:about="">
        <dc:format>image/svg+xml</dc:format>
        <dc:type
           rdf:resource="http://purl.org/dc/dcmitype/StillImage" />
        <dc:title />
      </cc:Work>
    </rdf:RDF>
  </metadata>
  <g
     inkscape:label="Camada 1"
     inkscape:groupmode="layer"
     id="layer1"
     transform="translate(0,-87)">
    <g
       id="g1597"
       transform="translate(-0.29566735)" />
    <g
       id="g1941"
       transform="translate(-202.77429,-213.30781)">
      <path
         inkscape:connector-curvature="0"
         id="path1893"
         d="m 211.83044,309.65662 v -2.13303 h 0.32218 0.32218 v 0.21441 0.21443 l 0.063,-0.0866 c 0.13756,-0.18915 0.32271,-0.31283 0.56482,-0.37728 0.15704,-0.0418 0.5714,-0.0406 0.73953,0.002 0.5265,0.13384 0.89155,0.54206 1.01301,1.13285 0.0382,0.18602 0.0439,0.27645 0.0348,0.55548 -0.0126,0.38944 -0.0455,0.53764 -0.18284,0.82211 -0.21741,0.45054 -0.56798,0.68835 -1.05562,0.71603 -0.40977,0.0233 -0.77024,-0.0948 -1.00459,-0.3292 l -0.12777,-0.12775 v 0.76478 0.76479 h -0.34438 -0.34441 z"
         style="fill:#000000;stroke:#000000;stroke-width:0.0222192" />
      <path
         inkscape:connector-curvature="0"
         id="path1891"
         d="m 213.50946,310.16574 c 0.44396,-0.0813 0.69844,-0.47283 0.69844,-1.07459 0,-0.4902 -0.19744,-0.87517 -0.52837,-1.03029 -0.10998,-0.0516 -0.1556,-0.0596 -0.33867,-0.0596 -0.19406,0 -0.22378,0.007 -0.35916,0.0727 -0.32311,0.15908 -0.48507,0.49445 -0.48435,1.00296 2.5e-4,0.27606 0.041,0.47037 0.13518,0.64712 0.12595,0.23631 0.30976,0.38081 0.55327,0.43494 0.15799,0.0351 0.16763,0.0353 0.32366,0.007 z"
         style="fill:#f2f8f8;fill-opacity:1;stroke:#000000;stroke-width:0.0222192" />
      <path
         inkscape:connector-curvature="0"
         id="path1889"
         d="m 216.07653,310.67919 c -0.50676,-0.13746 -0.7686,-0.5264 -0.69211,-1.02804 0.0313,-0.20517 0.10914,-0.36553 0.23284,-0.47955 0.19685,-0.18144 0.42662,-0.25688 1.02364,-0.33605 0.6124,-0.0812 0.72848,-0.11717 0.8131,-0.2519 0.058,-0.0924 0.0498,-0.29785 -0.0157,-0.38823 -0.0788,-0.1089 -0.27155,-0.18712 -0.49199,-0.19966 -0.41566,-0.0236 -0.71016,0.13438 -0.75401,0.40456 l -0.0127,0.0787 h -0.3415 -0.34149 v -0.0758 c 0,-0.2165 0.16674,-0.53 0.35561,-0.66865 0.26905,-0.19748 0.56667,-0.27786 1.0266,-0.27727 0.34937,5.3e-4 0.54269,0.0364 0.76544,0.14214 0.20148,0.0957 0.33663,0.21928 0.42019,0.38429 l 0.0652,0.12865 0.0111,0.99355 c 0.0127,1.14228 -7.9e-4,1.07373 0.21191,1.07167 l 0.12138,-7.7e-4 v 0.23781 0.23782 l -0.11666,0.0299 c -0.0642,0.0165 -0.21164,0.0299 -0.32772,0.03 -0.18929,9e-5 -0.2216,-0.007 -0.31288,-0.0598 -0.0723,-0.0425 -0.11737,-0.0909 -0.15553,-0.16664 -0.0296,-0.0587 -0.0558,-0.11056 -0.0584,-0.11513 -0.002,-0.005 -0.0365,0.0185 -0.0756,0.0513 -0.10188,0.0858 -0.30218,0.18196 -0.49026,0.23555 -0.24514,0.0699 -0.64603,0.0801 -0.86052,0.0218 z"
         style="fill:#000000;stroke:#000000;stroke-width:0.0222192" />
      <path
         inkscape:connector-curvature="0"
         id="path1901"
         d="m 206.83112,323.45341 c -0.70595,-0.0775 -1.31526,-0.2886 -1.79977,-0.62372 -0.28826,-0.19941 -0.3089,-0.22199 -0.33661,-0.36874 -0.0317,-0.1675 -0.0103,-1.04327 0.0358,-1.47251 0.12146,-1.12995 0.34559,-2.48526 0.68708,-4.155 0.2346,-1.14709 0.28917,-1.39983 0.30219,-1.39964 0.007,9e-5 0.0348,0.0412 0.0634,0.0913 0.0788,0.13796 0.3626,0.4234 0.54928,0.55245 0.84418,0.58357 2.37493,0.77169 4.51454,0.55479 1.68555,-0.17086 3.47191,-0.51903 6.26055,-1.22016 0.62333,-0.15672 1.30349,-0.32048 1.51145,-0.36387 1.23747,-0.25826 3.08008,-0.49165 5.02085,-0.63596 0.32996,-0.0245 0.65492,-0.0498 0.72213,-0.056 0.11691,-0.011 0.0991,-2e-5 -0.41106,0.25165 -1.43016,0.70555 -2.52496,1.45155 -4.0353,2.74965 -1.11598,0.95914 -2.07958,1.68572 -3.31926,2.50276 -3.05022,2.01034 -5.95841,3.26129 -8.28199,3.56245 -0.32269,0.0418 -1.21355,0.0603 -1.48335,0.0306 z"
         style="fill:#333333;stroke:#000000;stroke-width:0.0222192" />
      <path
         inkscape:connector-curvature="0"
         id="path1899"
         d="m 223.8177,322.79727 c -2.10397,-0.0785 -4.29127,-0.35978 -6.89906,-0.88688 -0.71409,-0.14435 -1.89294,-0.40892 -1.91501,-0.4298 -0.009,-0.008 0.13159,-0.0987 0.31106,-0.20165 1.76295,-1.01135 3.63668,-2.34098 5.13748,-3.6456 0.18978,-0.16499 0.39587,-0.34223 0.45795,-0.39388 l 0.11288,-0.0939 0.37528,0.15693 c 0.20638,0.0863 0.61022,0.23559 0.89741,0.33173 2.57558,0.86216 4.98395,0.91019 6.9435,0.13849 0.48658,-0.19161 1.06032,-0.4923 1.39482,-0.73097 0.12023,-0.0858 0.11401,-0.0919 0.14932,0.14722 0.13303,0.90079 -0.0374,1.89859 -0.47664,2.78907 -0.30752,0.62356 -0.71988,1.18388 -1.31115,1.78163 -0.39838,0.40274 -0.41929,0.41603 -0.91438,0.58108 -0.64777,0.21595 -1.43018,0.35461 -2.39704,0.42478 -0.32943,0.024 -1.52969,0.0443 -1.86642,0.0318 z"
         style="fill:#333333;stroke:#000000;stroke-width:0.0222192" />
      <path
         inkscape:connector-curvature="0"
         id="path1897"
         d="m 229.8325,321.63834 c 0.0185,-0.0214 0.1168,-0.14386 0.21851,-0.27217 0.55532,-0.70063 0.94918,-1.46907 1.14456,-2.23303 0.13095,-0.51205 0.15444,-0.71489 0.15444,-1.33316 0,-0.62492 -0.0294,-0.8371 -0.17958,-1.29614 -0.55238,-1.68834 -2.05911,-2.65657 -4.32549,-2.77959 -1.16747,-0.0633 -4.04827,0.14033 -5.96911,0.42206 -0.16378,0.024 -0.30021,0.041 -0.30318,0.0378 -0.006,-0.006 2.0647,-0.98459 5.91136,-2.79579 1.00208,-0.47183 1.94696,-0.90851 2.09972,-0.9704 0.58011,-0.23502 1.18506,-0.40017 1.82198,-0.49738 0.4301,-0.0656 1.26012,-0.0721 1.6331,-0.0127 0.97741,0.15566 1.73576,0.53816 2.393,1.20702 0.26851,0.27325 0.39906,0.43581 0.62225,0.77481 0.34209,0.51958 0.59349,1.09077 0.67481,1.53312 0.0489,0.26606 0.0689,1.16326 0.0335,1.50184 -0.1629,1.55574 -0.88809,3.05946 -2.02454,4.19794 -0.62982,0.63095 -1.66022,1.35376 -2.89222,2.02888 -0.3559,0.19502 -1.00497,0.52578 -1.0318,0.52578 -0.008,0 2.2e-4,-0.0175 0.0188,-0.0389 z"
         style="fill:#333333;stroke:#000000;stroke-width:0.0222192" />
      <path
         inkscape:connector-curvature="0"
         id="path1895"
         d="m 208.35708,316.11977 c -1.34257,-0.12928 -2.11103,-0.5834 -2.27022,-1.3416 -0.0475,-0.22631 -0.042,-0.29808 0.0352,-0.4525 0.30762,-0.6156 1.3939,-1.06897 2.82861,-1.18055 1.28824,-0.10019 3.53304,0.15885 5.01118,0.57829 0.75314,0.21371 1.75446,0.60327 2.65678,1.03361 l 0.26663,0.12716 -0.64435,0.16149 c -2.38901,0.59876 -4.44238,0.9637 -6.05474,1.07608 -0.37885,0.0264 -1.54747,0.0251 -1.82914,-0.002 z"
         style="fill:#333333;stroke:#000000;stroke-width:0.0222192" />
      <path
         inkscape:connector-curvature="0"
         id="path1887"
         d="m 216.87711,310.15788 c 0.26807,-0.0568 0.46531,-0.19289 0.54033,-0.37278 0.0254,-0.0609 0.0345,-0.16221 0.0345,-0.38566 0,-0.28009 -0.003,-0.30181 -0.0389,-0.28658 -0.13386,0.0568 -0.23478,0.0796 -0.53387,0.12092 -0.18429,0.0254 -0.38174,0.0603 -0.4388,0.0776 -0.14748,0.0444 -0.26949,0.132 -0.3185,0.22871 -0.15295,0.3018 -0.0183,0.53452 0.35608,0.6158 0.18176,0.0395 0.22189,0.0397 0.39918,0.002 z"
         style="fill:#f2f8f8;fill-opacity:1;stroke:#000000;stroke-width:0.0222192" />
      <path
         inkscape:connector-curvature="0"
         id="path1885"
         d="m 205.03135,309.07892 v -1.55534 h 0.34441 0.34439 v 1.55534 1.55535 h -0.34439 -0.34441 z"
         style="fill:#000000;stroke:#000000;stroke-width:0.0222192" />
      <path
         inkscape:connector-curvature="0"
         id="path1883"
         d="m 206.52005,309.07892 v -1.55534 h 0.3214 0.32139 l 0.007,0.22073 0.007,0.22074 0.1,-0.12549 c 0.12943,-0.16246 0.30552,-0.28404 0.49445,-0.34144 0.12507,-0.038 0.19566,-0.0445 0.41152,-0.0377 0.2358,0.007 0.27436,0.0147 0.40602,0.0768 0.17523,0.0827 0.29234,0.18156 0.368,0.31066 l 0.0563,0.0961 0.13459,-0.14389 c 0.10295,-0.11005 0.17924,-0.16601 0.32447,-0.23797 l 0.18987,-0.0941 0.34608,5.2e-4 c 0.30905,5.3e-4 0.35982,0.007 0.47455,0.0519 0.17802,0.0711 0.30307,0.17252 0.38881,0.31516 0.1496,0.24888 0.14636,0.21601 0.15515,1.5711 l 0.008,1.22763 h -0.34445 -0.34446 l -0.008,-1.11653 c -0.007,-1.00239 -0.0115,-1.12671 -0.0467,-1.21641 -0.0801,-0.20443 -0.25675,-0.31116 -0.51497,-0.31116 -0.28189,0 -0.49154,0.13785 -0.59134,0.38884 -0.0529,0.13304 -0.053,0.13554 -0.0596,1.19429 l -0.007,1.06097 h -0.34226 -0.34227 l -0.007,-1.12763 -0.007,-1.12763 -0.0628,-0.12779 c -0.0486,-0.0991 -0.086,-0.14149 -0.16665,-0.18886 -0.0914,-0.0538 -0.12644,-0.061 -0.29275,-0.0607 -0.1613,2.5e-4 -0.20537,0.009 -0.30196,0.0597 -0.13756,0.0722 -0.24106,0.18614 -0.31794,0.35004 l -0.0577,0.12322 -0.007,1.04986 -0.007,1.04986 h -0.34337 -0.34339 z"
         style="fill:#000000;stroke:#000000;stroke-width:0.0222192" />
      <path
         inkscape:connector-curvature="0"
         id="path1096-5"
         d="m 205.03135,306.66814 v -0.32218 h 0.34441 0.34439 v 0.32218 0.32217 h -0.34439 -0.34441 z"
         style="fill:#000000;stroke:#000000;stroke-width:0.0222192" />
    </g>
  </g>
</svg>
