<?xml version="1.0" encoding="UTF-8" standalone="no"?>
<!-- Created with Inkscape (http://www.inkscape.org/) -->

<svg
   version="1.1"
   id="svg2"
   width="95.194275"
   height="95.194275"
   viewBox="0 0 95.194275 95.194275"
   sodipodi:docname="artigo_13 (cópia).pdf"
   xmlns:inkscape="http://www.inkscape.org/namespaces/inkscape"
   xmlns:sodipodi="http://sodipodi.sourceforge.net/DTD/sodipodi-0.dtd"
   xmlns="http://www.w3.org/2000/svg"
   xmlns:svg="http://www.w3.org/2000/svg">
  <defs
     id="defs6">
    <clipPath
       clipPathUnits="userSpaceOnUse"
       id="clipPath354">
      <g
         id="g358">
        <path
           d="M 0,34 H 37 V 71 H 0 Z"
           id="path356" />
      </g>
    </clipPath>
    <clipPath
       clipPathUnits="userSpaceOnUse"
       id="clipPath360">
      <g
         id="g364">
        <path
           d="M 0,34 H 37 V 71 H 0 Z"
           id="path362" />
      </g>
    </clipPath>
    <clipPath
       clipPathUnits="userSpaceOnUse"
       id="clipPath366">
      <g
         id="g370"
         transform="scale(-1)">
        <path
           d="M 0,34 H 37 V 71 H 0 Z"
           id="path368" />
      </g>
    </clipPath>
    <clipPath
       clipPathUnits="userSpaceOnUse"
       id="clipPath380">
      <path
         d="m 63.289,47.469 c 0,-0.469 0,-0.496 -0.437,-0.496 -1.168,1.195 -2.801,1.195 -3.383,1.195 v 0.582 c 0.379,0 1.457,0 2.422,-0.496 v 9.66 c 0,0.668 -0.059,0.875 -1.723,0.875 h -0.582 v 0.582 c 0.641,-0.059 2.246,-0.059 3.004,-0.059 0.73,0 2.363,0 3.004,0.059 v -0.582 h -0.582 c -1.692,0 -1.723,-0.207 -1.723,-0.875 z"
         style="fill:#000000;fill-opacity:1;fill-rule:nonzero;stroke:none;stroke-width:0.999998"
         id="path382" />
    </clipPath>
    <clipPath
       clipPathUnits="userSpaceOnUse"
       id="clipPath384">
      <path
         d="m -63.289,-47.469 c 0,0.469 0,0.496 0.437,0.496 1.168,-1.195 2.801,-1.195 3.383,-1.195 v -0.582 c -0.379,0 -1.457,0 -2.422,0.496 v -9.66 c 0,-0.668 0.059,-0.875 1.723,-0.875 h 0.582 v -0.582 c -0.641,0.059 -2.246,0.059 -3.004,0.059 -0.73,0 -2.363,0 -3.004,-0.059 v 0.582 h 0.582 c 1.692,0 1.723,0.207 1.723,0.875 z"
         style="fill:#000000;fill-opacity:1;fill-rule:nonzero;stroke:none;stroke-width:0.999998"
         id="path386" />
    </clipPath>
    <clipPath
       clipPathUnits="userSpaceOnUse"
       id="clipPath388">
      <path
         d="m 63.289,47.469 c 0,-0.469 0,-0.496 -0.437,-0.496 -1.168,1.195 -2.801,1.195 -3.383,1.195 v 0.582 c 0.379,0 1.457,0 2.422,-0.496 v 9.66 c 0,0.668 -0.059,0.875 -1.723,0.875 h -0.582 v 0.582 c 0.641,-0.059 2.246,-0.059 3.004,-0.059 0.73,0 2.363,0 3.004,0.059 v -0.582 h -0.582 c -1.692,0 -1.723,-0.207 -1.723,-0.875 z"
         style="fill:#000000;fill-opacity:1;fill-rule:nonzero;stroke:none;stroke-width:0.999998"
         id="path390" />
    </clipPath>
  </defs>
  <sodipodi:namedview
     id="namedview4"
     pagecolor="#ffffff"
     bordercolor="#666666"
     borderopacity="1.0"
     inkscape:showpageshadow="2"
     inkscape:pageopacity="0.0"
     inkscape:pagecheckerboard="0"
     inkscape:deskcolor="#d1d1d1"
     showgrid="false">
    <inkscape:page
       x="0"
       y="0"
       id="page8"
       width="95.194275"
       height="95.194275" />
  </sodipodi:namedview>
  <g
     id="g10"
     inkscape:groupmode="layer"
     inkscape:label="Page 1"
     transform="matrix(1.3333333,0,0,1.3333333,0,2.7131902e-6)">
    <g
       id="g374"
       clip-path="url(#clipPath388)">
      <path
         d="M 34,34 H 71 V 71 H 34 Z"
         id="path40" />
    </g>
    <g
       id="g14"
       transform="scale(-1)">
      <path
         d="M -0.75,-0.75 H -35.699 V -35.699 H -0.75 Z"
         style="fill:#593d28;fill-opacity:1;fill-rule:nonzero;stroke:#000000;stroke-width:1.5;stroke-linecap:round;stroke-linejoin:miter;stroke-miterlimit:4;stroke-dasharray:none;stroke-opacity:1"
         id="path16" />
    </g>
    <path
       d="m 18.984,12.52 c 0,-0.465 0,-0.497 -0.441,-0.497 -1.164,1.196 -2.801,1.196 -3.383,1.196 v 0.586 c 0.379,0 1.461,0 2.422,-0.496 v 9.656 c 0,0.672 -0.059,0.875 -1.723,0.875 h -0.582 v 0.582 c 0.641,-0.055 2.246,-0.055 3.004,-0.055 0.731,0 2.364,0 3.008,0.055 V 23.84 h -0.586 c -1.691,0 -1.719,-0.203 -1.719,-0.875 z"
       style="fill:#ffffff;fill-opacity:1;fill-rule:nonzero;stroke:none"
       id="path18" />
    <g
       id="g28"
       transform="scale(-1)"
       clip-path="url(#clipPath366)">
      <path
         d="M -0.75,-35.699 H -35.699 V -70.644 H -0.75 Z"
         style="fill:#d6b38d;fill-opacity:1;fill-rule:nonzero;stroke:#000000;stroke-width:1.5;stroke-linecap:round;stroke-linejoin:miter;stroke-miterlimit:4;stroke-dasharray:none;stroke-opacity:1"
         id="path30" />
    </g>
    <path
       d="m 16.508,55.082 c 0.32,0 0.672,0 0.672,-0.379 0,-0.351 -0.352,-0.351 -0.672,-0.351 H 6.441 c -0.32,0 -0.64,0 -0.64,0.351 0,0.379 0.32,0.379 0.64,0.379 z"
       style="fill:#000000;fill-opacity:1;fill-rule:nonzero;stroke:none"
       id="path32"
       clip-path="url(#clipPath360)" />
    <path
       d="m 28.344,47.469 c 0,-0.469 0,-0.496 -0.438,-0.496 -1.168,1.195 -2.801,1.195 -3.386,1.195 v 0.582 c 0.378,0 1.46,0 2.421,-0.496 v 9.66 c 0,0.668 -0.058,0.875 -1.722,0.875 h -0.582 v 0.582 c 0.64,-0.059 2.246,-0.059 3.004,-0.059 0.73,0 2.363,0 3.007,0.059 v -0.582 h -0.586 c -1.691,0 -1.718,-0.207 -1.718,-0.875 z"
       style="fill:#000000;fill-opacity:1;fill-rule:nonzero;stroke:none"
       id="path34"
       clip-path="url(#clipPath354)" />
    <g
       id="g44"
       transform="scale(-1)"
       clip-path="url(#clipPath384)">
      <path
         d="m -35.699,-35.699 h -34.945 v -34.945 h 34.945 z"
         style="fill:#d6b38d;fill-opacity:1;fill-rule:nonzero;stroke:#000000;stroke-width:1.5;stroke-linecap:round;stroke-linejoin:miter;stroke-miterlimit:4;stroke-dasharray:none;stroke-opacity:1"
         id="path46" />
    </g>
    <path
       d="m 51.457,55.082 c 0.32,0 0.668,0 0.668,-0.379 0,-0.351 -0.348,-0.351 -0.668,-0.351 H 41.391 c -0.321,0 -0.641,0 -0.641,0.351 0,0.379 0.32,0.379 0.641,0.379 z"
       style="fill:#000000;fill-opacity:1;fill-rule:nonzero;stroke:none"
       id="path48"
       clip-path="url(#clipPath380)" />
  </g>
</svg>
