<?xml version="1.0" encoding="UTF-8" standalone="no"?>
<!-- Created with Inkscape (http://www.inkscape.org/) -->

<svg
   xmlns:dc="http://purl.org/dc/elements/1.1/"
   xmlns:cc="http://creativecommons.org/ns#"
   xmlns:rdf="http://www.w3.org/1999/02/22-rdf-syntax-ns#"
   xmlns:svg="http://www.w3.org/2000/svg"
   xmlns="http://www.w3.org/2000/svg"
   xmlns:sodipodi="http://sodipodi.sourceforge.net/DTD/sodipodi-0.dtd"
   xmlns:inkscape="http://www.inkscape.org/namespaces/inkscape"
   width="297mm"
   height="210mm"
   viewBox="0 0 297 210"
   version="1.1"
   id="svg8"
   inkscape:version="0.92.4 (5da689c313, 2019-01-14)"
   sodipodi:docname="Logo.svg"
   inkscape:export-filename="/home/ricardo/Insync/PC Sync/POTI 2021 certificados/plano_fundo.png"
   inkscape:export-xdpi="96"
   inkscape:export-ydpi="96">
  <defs
     id="defs2">
    <clipPath
       id="clipPath5658"
       clipPathUnits="userSpaceOnUse">
      <path
         inkscape:connector-curvature="0"
         id="path5660"
         d="m 0,7.0625 h 5950 v 8405.87 H 0 Z" />
    </clipPath>
    <clipPath
       id="clipPath5526"
       clipPathUnits="userSpaceOnUse">
      <path
         inkscape:connector-curvature="0"
         id="path5528"
         d="m 7.1875,7.0625 h 5942.81 v 8404.77 H 7.1875 Z" />
    </clipPath>
  </defs>
  <sodipodi:namedview
     id="base"
     pagecolor="#ffffff"
     bordercolor="#666666"
     borderopacity="1.0"
     inkscape:pageopacity="0.0"
     inkscape:pageshadow="2"
     inkscape:zoom="0.7"
     inkscape:cx="351.21423"
     inkscape:cy="288.6402"
     inkscape:document-units="mm"
     inkscape:current-layer="layer1"
     showgrid="false"
     inkscape:snap-global="false"
     inkscape:window-width="1920"
     inkscape:window-height="983"
     inkscape:window-x="0"
     inkscape:window-y="27"
     inkscape:window-maximized="1"
     inkscape:snap-bbox="true"
     inkscape:bbox-paths="true"
     inkscape:bbox-nodes="true"
     inkscape:snap-bbox-edge-midpoints="true"
     inkscape:snap-bbox-midpoints="true"
     inkscape:object-paths="true"
     inkscape:snap-intersection-paths="true"
     inkscape:snap-smooth-nodes="true"
     inkscape:snap-midpoints="true"
     inkscape:snap-object-midpoints="true"
     inkscape:snap-center="true"
     inkscape:snap-text-baseline="true"
     inkscape:snap-page="true" />
  <metadata
     id="metadata5">
    <rdf:RDF>
      <cc:Work
         rdf:about="">
        <dc:format>image/svg+xml</dc:format>
        <dc:type
           rdf:resource="http://purl.org/dc/dcmitype/StillImage" />
        <dc:title></dc:title>
      </cc:Work>
    </rdf:RDF>
  </metadata>
  <g
     inkscape:label="Camada 1"
     inkscape:groupmode="layer"
     id="layer1"
     transform="translate(0,-87)">
    <g
       id="g920-8-1-3"
       transform="matrix(12.15873,0,0,12.15873,-817.42276,-1459.9907)"
       style="opacity:1">
      <path
         style="fill:#fdf486;stroke-width:0.01186515"
         d="m 80.558857,138.08422 c -0.398076,-0.0117 -1.012097,-0.0299 -1.364492,-0.0404 -0.352395,-0.0105 -0.756848,-0.0224 -0.898785,-0.0264 -0.141937,-0.004 -0.258067,-0.0115 -0.258067,-0.0167 0,-0.005 0.05623,-0.0857 0.124964,-0.17907 0.06873,-0.0933 0.199409,-0.27113 0.290397,-0.39512 0.218038,-0.29712 0.728775,-0.9904 0.922756,-1.25256 l 0.05075,-0.0686 0.07384,-0.006 c 0.08525,-0.007 3.356704,-0.033 3.363149,-0.0266 0.0024,0.002 -0.04763,0.0784 -0.11107,0.16889 -0.06344,0.0905 -0.190084,0.27141 -0.281424,0.40192 -0.09134,0.13052 -0.186671,0.26667 -0.211849,0.30256 -0.02518,0.0359 -0.06602,0.0946 -0.09076,0.13052 -0.02474,0.0359 -0.106605,0.15336 -0.18192,0.26103 -0.07531,0.10768 -0.215124,0.3079 -0.310687,0.44495 -0.250521,0.35925 -0.21899,0.3266 -0.313438,0.32464 -0.04377,-9e-4 -0.405283,-0.0112 -0.803358,-0.0229 z m -1.874693,-0.21904 c 0.150094,-0.01 0.641311,-0.0391 1.091593,-0.0648 0.450282,-0.0257 0.966779,-0.0559 1.147771,-0.0672 l 0.329077,-0.0205 0.394697,-0.49163 c 0.217084,-0.27039 0.415889,-0.51898 0.441789,-0.55243 0.0259,-0.0334 0.09673,-0.12221 0.157411,-0.19725 l 0.110319,-0.13645 -0.495567,-0.007 c -0.272562,-0.004 -0.900893,-0.009 -1.396291,-0.0119 l -0.900723,-0.004 -0.182461,0.23137 c -0.226126,0.28674 -0.386369,0.48967 -0.604304,0.7653 -0.09288,0.11747 -0.233244,0.295 -0.311923,0.39452 l -0.143053,0.18094 0.04438,-5e-5 c 0.02441,-2e-5 0.167188,-0.008 0.317282,-0.0182 z m -0.05339,-0.11275 c 0,-0.004 0.157818,-0.2073 0.350708,-0.45146 0.19289,-0.24417 0.429154,-0.5445 0.525033,-0.6674 l 0.174324,-0.22347 0.871081,0.007 c 0.479095,0.004 1.011692,0.007 1.183549,0.007 0.171856,0 0.312467,0.005 0.312467,0.0104 0,0.006 -0.20871,0.27134 -0.463799,0.59029 l -0.463798,0.5799 -0.0553,0.008 c -0.03042,0.005 -0.252856,0.0195 -0.494312,0.033 -0.681744,0.038 -1.858542,0.10636 -1.90139,0.11038 -0.02121,0.002 -0.03856,2.4e-4 -0.03856,-0.004 z m -1.536537,-0.19149 c -0.300188,-0.16985 -0.633895,-0.35828 -0.741571,-0.41872 -0.247252,-0.13878 -0.241158,-0.13534 -0.545797,-0.30829 -0.140305,-0.0797 -0.36297,-0.20549 -0.494809,-0.27962 l -0.239709,-0.13478 -0.03723,-0.0897 c -0.02047,-0.0494 -0.07731,-0.18852 -0.126298,-0.30925 -0.09146,-0.22537 -0.102692,-0.25238 -0.143163,-0.34409 -0.01296,-0.0294 -0.02757,-0.0667 -0.03246,-0.0831 -0.0049,-0.0163 -0.01838,-0.051 -0.02996,-0.0771 -0.01957,-0.0441 -0.06375,-0.15226 -0.319764,-0.7831 -0.05297,-0.13051 -0.10365,-0.25332 -0.112625,-0.27289 -0.009,-0.0196 -0.06451,-0.15573 -0.123403,-0.30257 -0.145887,-0.36369 -0.190726,-0.4743 -0.209232,-0.51613 -0.0087,-0.0196 -0.05094,-0.12306 -0.09395,-0.22995 -0.07007,-0.17415 -0.08726,-0.22686 -0.074,-0.22686 0.0046,0 0.09108,0.0402 0.529732,0.24607 0.159883,0.075 0.320063,0.14984 0.355955,0.16622 0.03589,0.0164 0.196071,0.0911 0.355954,0.1661 0.159883,0.075 0.324723,0.15195 0.366312,0.17105 0.04159,0.0191 0.113669,0.0527 0.160179,0.0746 0.07563,0.0356 0.286805,0.13457 0.576968,0.27031 0.292681,0.13692 0.44075,0.20569 0.510201,0.23696 l 0.07712,0.0347 -0.136756,-0.14018 c -0.442799,-0.45387 -1.17097,-1.20936 -1.185635,-1.23011 -0.01489,-0.0211 -0.01676,-0.24279 -0.01378,-1.63854 0.0019,-0.88779 0.0057,-1.61646 0.0085,-1.61926 0.0028,-0.003 0.02231,0.008 0.04344,0.0234 0.03249,0.0241 0.425971,0.30328 0.618749,0.43897 0.03205,0.0226 0.08811,0.0627 0.124584,0.0893 0.03648,0.0265 0.141068,0.10102 0.23243,0.16549 0.165278,0.11664 0.434004,0.30729 0.818695,0.58083 0.110939,0.0789 0.309828,0.22025 0.441976,0.31416 l 0.24027,0.17073 v 0.0465 c 0,0.0256 0.0051,0.0447 0.0114,0.0425 0.0063,-0.002 0.07702,-0.0682 0.157213,-0.14664 0.0802,-0.0785 0.287287,-0.2787 0.460202,-0.44494 0.172914,-0.16624 0.46393,-0.44642 0.646702,-0.62262 0.182772,-0.17619 0.468442,-0.4511 0.634822,-0.61089 0.16638,-0.1598 0.362501,-0.34898 0.435825,-0.4204 0.07332,-0.0714 0.136541,-0.12662 0.140484,-0.12268 0.0067,0.007 0.04996,0.28003 0.153662,0.97006 0.02305,0.15336 0.05476,0.35892 0.07047,0.45681 0.01571,0.0979 0.04259,0.27409 0.05972,0.39155 0.01713,0.11747 0.03621,0.24027 0.04238,0.2729 0.0062,0.0326 0.02703,0.16611 0.04634,0.29663 0.06553,0.4429 0.16721,1.10338 0.172636,1.12138 0.003,0.01 -0.03526,0.0819 -0.08497,0.16018 -0.0497,0.0782 -0.129087,0.20366 -0.17641,0.2787 -0.04732,0.0751 -0.141867,0.22455 -0.210099,0.33223 -0.06823,0.10768 -0.189933,0.29989 -0.270446,0.42714 -0.143626,0.22701 -0.270958,0.42818 -0.352977,0.55767 -0.02273,0.0359 -0.05758,0.0893 -0.07742,0.11865 -0.04731,0.07 -0.05021,0.0731 0.230055,-0.24401 0.300675,-0.34017 0.927505,-1.04816 1.030886,-1.16436 0.0764,-0.0859 0.0776,-0.0866 0.136449,-0.0865 0.05518,1.3e-4 0.728715,0.0316 1.263682,0.0591 0.279902,0.0144 1.503878,0.0712 1.534856,0.0712 0.03158,5e-5 0.02303,0.0251 -0.08567,0.25076 -0.05145,0.10682 -0.126917,0.26363 -0.167715,0.34847 -0.0408,0.0848 -0.231441,0.48525 -0.423648,0.88982 -0.192207,0.40456 -0.351115,0.73722 -0.35313,0.73923 -0.0034,0.003 -0.766676,0.0597 -1.964106,0.14477 -0.277348,0.0197 -0.608385,0.044 -0.735639,0.0539 -0.127254,0.01 -0.420916,0.0311 -0.652583,0.0471 -0.231667,0.016 -0.448183,0.032 -0.481148,0.0358 l -0.05994,0.007 -0.0683,0.10919 c -0.110974,0.17742 -0.238545,0.37959 -0.387099,0.61346 -0.07669,0.12073 -0.191564,0.30226 -0.255284,0.40342 -0.109225,0.17338 -0.258179,0.40871 -0.407431,0.64368 -0.03627,0.0571 -0.06924,0.10382 -0.07326,0.10382 -0.004,0 -0.01393,-0.27097 -0.02202,-0.60216 -0.0081,-0.33118 -0.01953,-0.74631 -0.02544,-0.92251 -0.0059,-0.1762 -0.01169,-0.38977 -0.01286,-0.47461 -0.0012,-0.0848 -0.0074,-0.16492 -0.0139,-0.17797 -0.0065,-0.0131 -0.08747,-0.10116 -0.17998,-0.19578 -0.09251,-0.0946 -0.207503,-0.21342 -0.255543,-0.26399 -0.04804,-0.0506 -0.08936,-0.0899 -0.09183,-0.0875 -0.0025,0.002 0.01192,0.10524 0.03198,0.22839 0.05254,0.32261 0.11774,0.72764 0.154465,0.95954 0.01343,0.0848 0.03501,0.22099 0.04795,0.30256 0.01294,0.0816 0.02858,0.17502 0.03476,0.20764 0.0062,0.0326 0.02523,0.1501 0.04235,0.26104 0.03,0.19442 0.03866,0.24934 0.0636,0.40341 0.02868,0.1772 0.06027,0.38048 0.06038,0.38859 7.1e-5,0.005 -0.0065,0.008 -0.01471,0.008 -0.0082,-4.8e-4 -0.26044,-0.13984 -0.560628,-0.3097 z m 0.373753,0.0703 c 0,-0.008 -0.01309,-0.0842 -0.02909,-0.16908 -0.016,-0.0848 -0.04291,-0.229 -0.0598,-0.32036 -0.01689,-0.0914 -0.04114,-0.22218 -0.05389,-0.2907 -0.01275,-0.0685 -0.02896,-0.15662 -0.03602,-0.19577 -0.0071,-0.0392 -0.01752,-0.0952 -0.02324,-0.12459 -0.01098,-0.0564 -0.07474,-0.39958 -0.09478,-0.5102 -0.0065,-0.0359 -0.02222,-0.12132 -0.03494,-0.18984 -0.01272,-0.0685 -0.03434,-0.18599 -0.04806,-0.26103 -0.01372,-0.075 -0.02976,-0.16048 -0.03565,-0.18985 -0.0059,-0.0294 -0.0201,-0.10591 -0.03157,-0.17011 -0.02411,-0.13485 -0.01211,-0.12197 -0.21147,-0.22698 -0.07178,-0.0378 -0.239973,-0.12741 -0.373752,-0.1991 -0.13378,-0.0717 -0.328665,-0.17596 -0.433078,-0.2317 -0.236557,-0.12626 -0.479723,-0.25668 -0.557662,-0.29909 -0.03263,-0.0178 -0.112719,-0.0607 -0.177977,-0.0954 -0.06526,-0.0347 -0.166172,-0.0889 -0.224252,-0.12041 -0.05808,-0.0315 -0.107411,-0.0572 -0.109624,-0.0572 -0.0022,0 -0.05614,-0.0287 -0.119837,-0.0638 -0.0637,-0.0351 -0.155859,-0.085 -0.204803,-0.11088 -0.04894,-0.0259 -0.170772,-0.0912 -0.27073,-0.14503 -0.09996,-0.0539 -0.184297,-0.0954 -0.187419,-0.0923 -0.0031,0.003 0.0052,0.029 0.01843,0.0575 0.01326,0.0285 0.06995,0.16933 0.12599,0.3129 0.05604,0.14357 0.119775,0.30642 0.141639,0.36189 0.02186,0.0555 0.08785,0.22365 0.146631,0.37375 0.261935,0.6688 0.426805,1.08754 0.527733,1.34036 l 0.108785,0.27249 0.112719,0.069 c 0.062,0.0379 0.142085,0.0867 0.177977,0.10833 0.03589,0.0216 0.164036,0.0998 0.284764,0.17369 0.120728,0.0739 0.270228,0.16477 0.332224,0.20197 0.06199,0.0372 0.158103,0.0958 0.213572,0.13012 0.05547,0.0344 0.116872,0.0717 0.13645,0.0831 0.01958,0.0113 0.169078,0.1021 0.332224,0.20171 0.582034,0.35537 0.640827,0.39077 0.649616,0.39114 0.0049,2.1e-4 0.0089,-0.006 0.0089,-0.0144 z m -0.361888,-0.28564 c -0.110939,-0.0673 -0.239082,-0.14541 -0.284763,-0.17364 -0.04568,-0.0282 -0.09373,-0.0572 -0.106786,-0.0645 -0.02217,-0.0123 -0.217396,-0.13188 -0.379685,-0.23257 -0.03916,-0.0243 -0.111236,-0.0681 -0.16018,-0.0975 -0.04894,-0.0293 -0.187765,-0.11345 -0.308493,-0.18697 -0.120728,-0.0735 -0.238679,-0.14507 -0.262112,-0.15899 -0.280208,-0.16656 -0.334355,-0.20352 -0.348844,-0.2381 -0.0084,-0.02 -0.02652,-0.0644 -0.0403,-0.0987 -0.01378,-0.0343 -0.03534,-0.0876 -0.04792,-0.11865 -0.02017,-0.0497 -0.06799,-0.17254 -0.232157,-0.59623 -0.02402,-0.062 -0.05063,-0.12873 -0.05914,-0.14831 -0.0085,-0.0196 -0.04324,-0.10768 -0.07719,-0.19577 -0.07397,-0.19195 -0.07432,-0.19282 -0.105799,-0.26388 -0.0137,-0.0309 -0.02491,-0.0617 -0.02491,-0.0684 0,-0.007 -0.005,-0.0214 -0.01117,-0.0328 -0.0061,-0.0113 -0.05476,-0.13273 -0.108044,-0.26977 -0.05328,-0.13704 -0.103867,-0.26519 -0.112415,-0.28476 -0.0085,-0.0196 -0.02891,-0.0703 -0.04524,-0.11272 -0.01633,-0.0424 -0.04386,-0.11368 -0.06116,-0.15836 -0.0173,-0.0447 -0.02813,-0.0846 -0.02406,-0.0886 0.0075,-0.008 0.03855,0.007 0.219707,0.10569 0.139683,0.0758 0.276585,0.14935 0.36782,0.19773 0.04242,0.0225 0.119838,0.0637 0.172044,0.0916 0.05221,0.0279 0.148315,0.0787 0.213573,0.11306 0.06526,0.0343 0.140009,0.0743 0.166112,0.089 0.06721,0.0376 0.220809,0.12014 0.486471,0.26131 0.05873,0.0312 0.130813,0.07 0.160179,0.0862 0.02937,0.0162 0.178868,0.0959 0.332225,0.17725 0.461457,0.24467 0.474605,0.25259 0.474605,0.28583 0,0.016 0.005,0.0484 0.01103,0.072 0.0061,0.0236 0.01642,0.0723 0.02302,0.10816 0.0066,0.0359 0.01765,0.096 0.02457,0.13348 0.0069,0.0375 0.01817,0.0989 0.02501,0.13645 0.0068,0.0375 0.01708,0.0922 0.02276,0.12162 0.0057,0.0294 0.01601,0.0854 0.02296,0.12458 0.02385,0.13436 0.06017,0.33227 0.07187,0.39155 0.0064,0.0326 0.02272,0.12073 0.03617,0.19578 0.01346,0.075 0.02931,0.16047 0.03524,0.18984 0.0059,0.0294 0.02185,0.1148 0.03539,0.18984 0.05915,0.32792 0.09241,0.50545 0.108233,0.57775 0.01317,0.0602 0.01326,0.063 0.002,0.0629 -0.0049,-5e-5 -0.09967,-0.0551 -0.210607,-0.12241 z m 1.096485,-0.2599 c 0.144789,-0.26683 0.292977,-0.53811 0.461951,-0.84565 0.110787,-0.20165 0.13914,-0.26197 0.124615,-0.26514 -0.02733,-0.006 -0.04035,0.0118 -0.128842,0.17615 -0.131647,0.24444 -0.159554,0.29569 -0.248784,0.45681 -0.04698,0.0848 -0.122323,0.22263 -0.167425,0.30621 l -0.082,0.15197 -0.0032,-2.44788 -0.0032,-2.44787 0.163347,-0.16034 c 0.08984,-0.0882 0.422161,-0.41389 0.73849,-0.72378 0.316328,-0.30988 0.670457,-0.65686 0.786953,-0.77107 0.116496,-0.1142 0.216264,-0.20925 0.221708,-0.21123 0.01185,-0.004 0.01654,0.0169 0.048,0.21717 0.01333,0.0848 0.04251,0.26637 0.06486,0.40341 0.02235,0.13704 0.05704,0.35062 0.0771,0.47461 0.09089,0.56182 0.120854,0.74603 0.173551,1.0669 l 0.05635,0.34313 -0.02953,0.0543 c -0.01624,0.0299 -0.130328,0.23856 -0.25352,0.4637 -0.123191,0.22515 -0.267471,0.48944 -0.32062,0.58733 -0.209357,0.38558 -0.261107,0.48031 -0.343523,0.62885 -0.04707,0.0848 -0.108633,0.19696 -0.136804,0.24917 -0.241562,0.44766 -0.594625,1.09068 -0.607143,1.10576 -0.0071,0.009 -0.0101,0.0155 -0.0067,0.0155 0.02002,0 0.161185,-0.18785 0.20508,-0.2729 0.02863,-0.0555 0.07151,-0.13556 0.09529,-0.17798 0.02378,-0.0424 0.08602,-0.15721 0.138297,-0.2551 0.05228,-0.0979 0.09908,-0.18332 0.104006,-0.18984 0.0049,-0.007 0.04629,-0.0813 0.09193,-0.16611 0.04564,-0.0848 0.09499,-0.17561 0.109677,-0.20171 0.01469,-0.0261 0.06,-0.10886 0.100703,-0.18391 0.0407,-0.0751 0.168933,-0.30998 0.284962,-0.52207 0.116029,-0.21209 0.254588,-0.46571 0.307909,-0.56359 0.05332,-0.0979 0.15441,-0.28342 0.224644,-0.41229 l 0.127697,-0.23431 -0.04337,-0.26402 c -0.02385,-0.14522 -0.05935,-0.36014 -0.0789,-0.4776 -0.01954,-0.11747 -0.04063,-0.24828 -0.04687,-0.2907 -0.0062,-0.0424 -0.03225,-0.20527 -0.05782,-0.36189 -0.02556,-0.15662 -0.06023,-0.37286 -0.07704,-0.48054 -0.01681,-0.10767 -0.03806,-0.23582 -0.04723,-0.28476 -0.0092,-0.0489 -0.03066,-0.18243 -0.04775,-0.29663 -0.0171,-0.1142 -0.03484,-0.21938 -0.03942,-0.23374 -0.0095,-0.0297 -0.02165,-0.0186 -0.536505,0.48748 -0.153447,0.15084 -0.428517,0.42109 -0.611266,0.60055 -0.182748,0.17946 -0.467031,0.45903 -0.631739,0.62127 l -0.29947,0.29497 7.26e-4,2.64041 c 6.43e-4,2.34054 0.0027,2.63755 0.01837,2.61521 0.0097,-0.0138 0.06479,-0.11207 0.122411,-0.21826 z m 1.430791,-1.32005 c 0.241456,-0.0229 0.455029,-0.0442 0.474606,-0.0473 0.01958,-0.003 0.230481,-0.0246 0.468673,-0.0479 0.238193,-0.0232 0.502489,-0.05 0.587325,-0.0595 0.08484,-0.009 0.295739,-0.0307 0.468673,-0.0472 0.260009,-0.0248 0.586009,-0.058 1.057447,-0.10768 l 0.06671,-0.007 0.08951,-0.19182 c 0.04923,-0.1055 0.12137,-0.26123 0.160315,-0.34607 0.03894,-0.0848 0.08945,-0.19429 0.112242,-0.24323 0.02279,-0.049 0.09074,-0.19578 0.151006,-0.3263 0.06027,-0.13051 0.160128,-0.34589 0.221917,-0.47861 0.06179,-0.13272 0.109237,-0.24442 0.105438,-0.24822 -0.0065,-0.006 -0.534514,0.008 -1.175545,0.0326 -0.15662,0.006 -0.494169,0.0174 -0.750109,0.0254 l -0.465345,0.0145 -0.175736,0.17882 c -0.09665,0.0984 -0.410293,0.41909 -0.696974,0.71276 -0.286681,0.29366 -0.641589,0.65673 -0.788684,0.80683 -0.441641,0.45064 -0.4252,0.43242 -0.384995,0.4266 0.01899,-0.003 0.232078,-0.0238 0.473533,-0.0467 z m -0.224343,-0.12683 c 0.128278,-0.13325 0.88924,-0.91164 1.413144,-1.44551 0.137686,-0.14031 0.282427,-0.28978 0.321646,-0.33216 l 0.07131,-0.0771 0.259188,-0.008 c 0.594937,-0.0187 1.064657,-0.0339 1.421972,-0.0461 0.208827,-0.007 0.404321,-0.0112 0.434432,-0.009 l 0.05475,0.004 -0.06489,0.14238 c -0.03569,0.0783 -0.117479,0.25517 -0.181753,0.39303 -0.06427,0.13785 -0.133607,0.28736 -0.154073,0.33222 -0.05784,0.12679 -0.175399,0.38129 -0.218552,0.47313 -0.02146,0.0457 -0.05929,0.12844 -0.08405,0.18391 -0.02476,0.0555 -0.0515,0.10805 -0.05942,0.11686 -0.01564,0.0174 -0.04406,0.0208 -0.812098,0.0968 -0.414028,0.041 -1.437975,0.14451 -1.524672,0.15415 -0.05873,0.007 -0.218912,0.0225 -0.355954,0.0355 -0.137042,0.013 -0.294552,0.0288 -0.350022,0.035 -0.05547,0.006 -0.132889,0.0148 -0.172044,0.0188 l -0.07119,0.007 z m -1.65786,-0.39248 c -0.0271,-0.3679 -0.03757,-0.50835 -0.05773,-0.7742 -0.01237,-0.16315 -0.04136,-0.55025 -0.06443,-0.86022 -0.02307,-0.30998 -0.05031,-0.66771 -0.06055,-0.79497 -0.0327,-0.40664 -0.0647,-0.83548 -0.06479,-0.86843 -9.4e-5,-0.032 -0.05835,-0.0821 -1.311188,-1.12586 -0.05221,-0.0435 -0.201707,-0.16816 -0.332224,-0.27702 l -0.237303,-0.19793 -0.0074,0.0689 c -0.0041,0.0379 -0.01076,0.33851 -0.01484,0.66806 -0.0041,0.32956 -0.01353,0.91105 -0.021,1.2922 -0.01184,0.60406 -0.01136,0.69468 0.0037,0.70598 0.0095,0.007 0.131419,0.1331 0.270909,0.27993 0.363876,0.38303 1.901505,1.99334 1.903366,1.99334 8.6e-4,0 -0.0021,-0.0494 -0.0065,-0.10975 z m -0.229189,-0.26841 c -0.06493,-0.0694 -0.174527,-0.18484 -0.243557,-0.25662 -0.06903,-0.0718 -0.232119,-0.24264 -0.362421,-0.37969 -0.130302,-0.13704 -0.354199,-0.37197 -0.497548,-0.52206 -0.143349,-0.1501 -0.308899,-0.32371 -0.367888,-0.38581 -0.05899,-0.0621 -0.168057,-0.17581 -0.242371,-0.25268 l -0.135117,-0.13978 0.0074,-0.28718 c 0.0041,-0.15795 0.01387,-0.70775 0.02172,-1.22178 0.0079,-0.51404 0.01827,-0.93317 0.02316,-0.93142 0.0049,0.002 0.242528,0.19808 0.528095,0.43627 0.285568,0.23819 0.664972,0.55458 0.843119,0.70309 0.178147,0.1485 0.323904,0.27642 0.323904,0.28425 0,0.008 0.01326,0.188 0.02946,0.40037 0.03784,0.49591 0.128302,1.69551 0.166467,2.20743 0.0163,0.21862 0.03252,0.41484 0.03604,0.43604 0.0035,0.0212 0.0022,0.0379 -0.003,0.0371 -0.0052,-7.9e-4 -0.06256,-0.0582 -0.127484,-0.12755 z"
         id="path895-3-6-6"
         inkscape:connector-curvature="0" />
      <path
         style="fill:#8ed8f6;stroke-width:0.01186515"
         d="m 80.558857,138.08422 c -0.398076,-0.0117 -1.012097,-0.0299 -1.364492,-0.0404 -0.352395,-0.0105 -0.756848,-0.0224 -0.898785,-0.0264 -0.141937,-0.004 -0.258067,-0.0115 -0.258067,-0.0167 0,-0.005 0.05623,-0.0857 0.124964,-0.17907 0.06873,-0.0933 0.199409,-0.27113 0.290397,-0.39512 0.218038,-0.29712 0.728775,-0.9904 0.922756,-1.25256 l 0.05075,-0.0686 0.07384,-0.006 c 0.08525,-0.007 3.356704,-0.033 3.363149,-0.0266 0.0024,0.002 -0.04763,0.0784 -0.11107,0.16889 -0.06344,0.0905 -0.190084,0.27141 -0.281424,0.40192 -0.09134,0.13052 -0.186671,0.26667 -0.211849,0.30256 -0.02518,0.0359 -0.06602,0.0946 -0.09076,0.13052 -0.02474,0.0359 -0.106605,0.15336 -0.18192,0.26103 -0.07531,0.10768 -0.215124,0.3079 -0.310687,0.44495 -0.250521,0.35925 -0.21899,0.3266 -0.313438,0.32464 -0.04377,-9e-4 -0.405283,-0.0112 -0.803358,-0.0229 z m -1.874693,-0.21904 c 0.150094,-0.01 0.641311,-0.0391 1.091593,-0.0648 0.450282,-0.0257 0.966779,-0.0559 1.147771,-0.0672 l 0.329077,-0.0205 0.394697,-0.49163 c 0.217084,-0.27039 0.415889,-0.51898 0.441789,-0.55243 0.0259,-0.0334 0.09673,-0.12221 0.157411,-0.19725 l 0.110319,-0.13645 -0.495567,-0.007 c -0.272562,-0.004 -0.900893,-0.009 -1.396291,-0.0119 l -0.900723,-0.004 -0.182461,0.23137 c -0.226126,0.28674 -0.386369,0.48967 -0.604304,0.7653 -0.09288,0.11747 -0.233244,0.295 -0.311923,0.39452 l -0.143053,0.18094 0.04438,-5e-5 c 0.02441,-2e-5 0.167188,-0.008 0.317282,-0.0182 z m -0.05339,-0.11275 c 0,-0.004 0.157818,-0.2073 0.350708,-0.45146 0.19289,-0.24417 0.429154,-0.5445 0.525033,-0.6674 l 0.174324,-0.22347 0.871081,0.007 c 0.479095,0.004 1.011692,0.007 1.183549,0.007 0.171856,0 0.312467,0.005 0.312467,0.0104 0,0.006 -0.20871,0.27134 -0.463799,0.59029 l -0.463798,0.5799 -0.0553,0.008 c -0.03042,0.005 -0.252856,0.0195 -0.494312,0.033 -0.681744,0.038 -1.858542,0.10636 -1.90139,0.11038 -0.02121,0.002 -0.03856,2.4e-4 -0.03856,-0.004 z m -1.097526,0.0398 c -0.05221,-0.0297 -0.124288,-0.0702 -0.16018,-0.0899 -0.03589,-0.0197 -0.0706,-0.0399 -0.07712,-0.0448 -0.0065,-0.005 -0.03723,-0.0228 -0.06822,-0.0398 -0.031,-0.017 -0.08172,-0.0452 -0.112719,-0.0626 -0.175692,-0.0986 -0.228111,-0.12816 -0.406381,-0.22883 -0.107676,-0.0608 -0.291883,-0.16509 -0.409348,-0.23175 -0.117464,-0.0666 -0.245608,-0.13878 -0.284763,-0.16029 -0.03915,-0.0215 -0.143272,-0.0803 -0.23137,-0.13067 -0.0881,-0.0504 -0.23493,-0.13323 -0.326292,-0.18415 -0.173429,-0.0967 -0.193245,-0.10788 -0.306578,-0.17328 l -0.06927,-0.04 -0.08268,-0.20171 c -0.114165,-0.27852 -0.266539,-0.65305 -0.386177,-0.94921 -0.05536,-0.13704 -0.107446,-0.26519 -0.115744,-0.28476 -0.0083,-0.0196 -0.02183,-0.0516 -0.03008,-0.0712 -0.01774,-0.0421 -0.200432,-0.49022 -0.379737,-0.93142 -0.07028,-0.17293 -0.165947,-0.40785 -0.212587,-0.52204 -0.04664,-0.11419 -0.08333,-0.21367 -0.08153,-0.22106 0.0019,-0.008 0.06654,0.0163 0.158242,0.0593 0.149311,0.0701 0.21955,0.10282 0.450149,0.20976 0.05873,0.0272 0.15751,0.0736 0.219505,0.10297 0.062,0.0294 0.140232,0.0659 0.173858,0.0811 0.03363,0.0152 0.105708,0.0487 0.16018,0.0744 0.05447,0.0257 0.139085,0.0654 0.188029,0.0881 0.134123,0.0623 0.610723,0.28462 0.711909,0.3321 0.04894,0.023 0.123694,0.0578 0.166112,0.0775 0.04242,0.0196 0.133186,0.0622 0.201707,0.0947 0.06852,0.0324 0.15395,0.0725 0.189842,0.0891 0.100658,0.0464 0.301171,0.14078 0.314427,0.14806 0.0065,0.004 -0.05771,-0.065 -0.142743,-0.15244 -0.56357,-0.57939 -1.188838,-1.22831 -1.203379,-1.24888 -0.01489,-0.0211 -0.01676,-0.24279 -0.01378,-1.63854 0.0019,-0.88779 0.0057,-1.61646 0.0085,-1.61926 0.0028,-0.003 0.02231,0.008 0.04344,0.0234 0.03249,0.0241 0.425971,0.30328 0.618749,0.43897 0.03205,0.0226 0.08811,0.0627 0.124584,0.0893 0.03648,0.0265 0.141068,0.10102 0.23243,0.16549 0.165278,0.11664 0.434004,0.30729 0.818695,0.58083 0.110939,0.0789 0.309828,0.22025 0.441976,0.31416 l 0.24027,0.17073 v 0.0465 c 0,0.0256 0.0051,0.0447 0.0114,0.0425 0.0063,-0.002 0.07702,-0.0682 0.157213,-0.14664 0.0802,-0.0785 0.287287,-0.2787 0.460202,-0.44494 0.172914,-0.16624 0.46393,-0.44642 0.646702,-0.62262 0.182772,-0.17619 0.468442,-0.4511 0.634822,-0.61089 0.16638,-0.1598 0.362501,-0.34898 0.435825,-0.4204 0.07332,-0.0714 0.136541,-0.12662 0.140484,-0.12268 0.0067,0.007 0.04996,0.28003 0.153662,0.97006 0.02305,0.15336 0.05476,0.35892 0.07047,0.45681 0.01571,0.0979 0.04259,0.27409 0.05972,0.39155 0.01713,0.11747 0.03621,0.24027 0.04238,0.2729 0.0062,0.0326 0.02703,0.16611 0.04634,0.29663 0.06553,0.4429 0.16721,1.10338 0.172636,1.12138 0.003,0.01 -0.03526,0.0819 -0.08497,0.16018 -0.0497,0.0782 -0.129087,0.20366 -0.17641,0.2787 -0.04732,0.0751 -0.141867,0.22455 -0.210099,0.33223 -0.06823,0.10768 -0.189933,0.29989 -0.270446,0.42714 -0.143626,0.22701 -0.270958,0.42818 -0.352977,0.55767 -0.02273,0.0359 -0.05758,0.0893 -0.07742,0.11865 -0.04731,0.07 -0.05021,0.0731 0.230055,-0.24401 0.300675,-0.34017 0.927505,-1.04816 1.030886,-1.16436 0.0764,-0.0859 0.0776,-0.0866 0.136449,-0.0865 0.05518,1.3e-4 0.728715,0.0316 1.263682,0.0591 0.279902,0.0144 1.503878,0.0712 1.534856,0.0712 0.03158,5e-5 0.02303,0.0251 -0.08567,0.25076 -0.05145,0.10682 -0.126917,0.26363 -0.167715,0.34847 -0.0408,0.0848 -0.231441,0.48525 -0.423648,0.88982 -0.192207,0.40456 -0.351115,0.73722 -0.35313,0.73923 -0.0034,0.003 -0.766676,0.0597 -1.964106,0.14477 -0.277348,0.0197 -0.608385,0.044 -0.735639,0.0539 -0.127254,0.01 -0.420916,0.0311 -0.652583,0.0471 -0.231667,0.016 -0.448183,0.032 -0.481148,0.0358 l -0.05994,0.007 -0.0683,0.10919 c -0.110974,0.17742 -0.238545,0.37959 -0.387099,0.61346 -0.07669,0.12073 -0.191564,0.30226 -0.255284,0.40342 -0.109225,0.17338 -0.258179,0.40871 -0.407431,0.64368 -0.03627,0.0571 -0.06924,0.10382 -0.07326,0.10382 -0.004,0 -0.01393,-0.27097 -0.02202,-0.60216 -0.0081,-0.33118 -0.01953,-0.74631 -0.02544,-0.92251 -0.0059,-0.1762 -0.01169,-0.38977 -0.01286,-0.47461 -0.0012,-0.0848 -0.0074,-0.16492 -0.0139,-0.17797 -0.0065,-0.0131 -0.08743,-0.10116 -0.179881,-0.19578 -0.09246,-0.0946 -0.212811,-0.21873 -0.267459,-0.2758 -0.05465,-0.0571 -0.100733,-0.10238 -0.102412,-0.1007 -0.0017,0.002 0.0014,0.027 0.0068,0.0563 0.01594,0.0866 0.09369,0.56568 0.120313,0.74142 0.0069,0.0457 0.01722,0.10709 0.02289,0.13645 0.0057,0.0294 0.01585,0.0908 0.02262,0.13645 0.0068,0.0457 0.02858,0.1845 0.04846,0.3085 0.01988,0.12399 0.04665,0.29217 0.05948,0.37375 0.02151,0.13672 0.02911,0.18364 0.05956,0.36782 0.01251,0.0756 0.07842,0.48669 0.09274,0.57842 0.0068,0.0433 0.0058,0.0621 -0.0033,0.0615 -0.0072,-4.2e-4 -0.05575,-0.0251 -0.107951,-0.0548 z m -0.0473,-0.15502 c -0.0046,-0.0179 -0.01832,-0.0887 -0.0305,-0.15721 -0.01219,-0.0685 -0.03323,-0.18332 -0.04678,-0.25511 -0.01354,-0.0718 -0.03529,-0.18924 -0.04834,-0.26103 -0.01304,-0.0718 -0.02886,-0.15855 -0.03515,-0.19281 -0.01257,-0.0685 -0.02909,-0.1592 -0.04644,-0.2551 -0.0062,-0.0343 -0.02782,-0.15039 -0.04806,-0.25806 -0.02023,-0.10768 -0.04156,-0.22248 -0.04741,-0.25511 -0.0235,-0.1313 -0.07348,-0.40207 -0.107313,-0.58139 -0.0197,-0.10441 -0.04202,-0.2234 -0.04959,-0.26442 -0.01551,-0.084 -0.01141,-0.0792 -0.116045,-0.13564 -0.227561,-0.12281 -0.284109,-0.15312 -0.504268,-0.2703 -0.04568,-0.0243 -0.157807,-0.0842 -0.249168,-0.13315 -0.09136,-0.0489 -0.214166,-0.11443 -0.272899,-0.14559 -0.05873,-0.0311 -0.112125,-0.0605 -0.118651,-0.0651 -0.0065,-0.005 -0.08662,-0.0474 -0.177977,-0.0949 -0.09136,-0.0476 -0.171452,-0.0903 -0.177977,-0.0951 -0.0065,-0.005 -0.06793,-0.038 -0.13645,-0.0739 -0.276641,-0.14502 -0.36351,-0.1911 -0.397482,-0.21084 -0.01958,-0.0114 -0.08632,-0.0475 -0.148314,-0.0803 -0.161879,-0.0857 -0.265508,-0.14135 -0.373752,-0.20077 -0.133346,-0.0732 -0.219408,-0.11457 -0.225539,-0.10843 -0.0029,0.003 0.05285,0.15175 0.123842,0.33083 0.331363,0.83588 0.392393,0.99132 0.392393,0.99942 0,0.005 0.01015,0.0313 0.02255,0.059 0.0124,0.0277 0.07479,0.18378 0.138647,0.34693 0.06386,0.16315 0.18052,0.45915 0.259252,0.65779 l 0.14315,0.36116 0.261033,0.15809 c 0.143569,0.0869 0.298409,0.18103 0.34409,0.20907 0.103675,0.0637 0.518096,0.31581 0.561269,0.34151 0.01759,0.0105 0.130765,0.0793 0.251493,0.15288 0.357103,0.21772 0.446913,0.27244 0.64665,0.39392 0.104414,0.0635 0.197096,0.11568 0.20596,0.11594 0.01174,3.4e-4 0.01385,-0.008 0.0078,-0.0322 z m 0.716642,-0.55147 c 0.144789,-0.26683 0.292977,-0.53811 0.461951,-0.84565 0.110787,-0.20165 0.13914,-0.26197 0.124615,-0.26514 -0.02733,-0.006 -0.04035,0.0118 -0.128842,0.17615 -0.131647,0.24444 -0.159554,0.29569 -0.248784,0.45681 -0.04698,0.0848 -0.122323,0.22263 -0.167425,0.30621 l -0.082,0.15197 -0.0032,-2.44788 -0.0032,-2.44787 0.163347,-0.16034 c 0.08984,-0.0882 0.422161,-0.41389 0.73849,-0.72378 0.316328,-0.30988 0.670457,-0.65686 0.786953,-0.77107 0.116496,-0.1142 0.216264,-0.20925 0.221708,-0.21123 0.01185,-0.004 0.01654,0.0169 0.048,0.21717 0.01333,0.0848 0.04251,0.26637 0.06486,0.40341 0.02235,0.13704 0.05704,0.35062 0.0771,0.47461 0.09089,0.56182 0.120854,0.74603 0.173551,1.0669 l 0.05635,0.34313 -0.02953,0.0543 c -0.01624,0.0299 -0.130328,0.23856 -0.25352,0.4637 -0.123191,0.22515 -0.267471,0.48944 -0.32062,0.58733 -0.209357,0.38558 -0.261107,0.48031 -0.343523,0.62885 -0.04707,0.0848 -0.108633,0.19696 -0.136804,0.24917 -0.241562,0.44766 -0.594625,1.09068 -0.607143,1.10576 -0.0071,0.009 -0.0101,0.0155 -0.0067,0.0155 0.02002,0 0.161185,-0.18785 0.20508,-0.2729 0.02863,-0.0555 0.07151,-0.13556 0.09529,-0.17798 0.02378,-0.0424 0.08602,-0.15721 0.138297,-0.2551 0.05228,-0.0979 0.09908,-0.18332 0.104006,-0.18984 0.0049,-0.007 0.04629,-0.0813 0.09193,-0.16611 0.04564,-0.0848 0.09499,-0.17561 0.109677,-0.20171 0.01469,-0.0261 0.06,-0.10886 0.100703,-0.18391 0.0407,-0.0751 0.168933,-0.30998 0.284962,-0.52207 0.116029,-0.21209 0.254588,-0.46571 0.307909,-0.56359 0.05332,-0.0979 0.15441,-0.28342 0.224644,-0.41229 l 0.127697,-0.23431 -0.04337,-0.26402 c -0.02385,-0.14522 -0.05935,-0.36014 -0.0789,-0.4776 -0.01954,-0.11747 -0.04063,-0.24828 -0.04687,-0.2907 -0.0062,-0.0424 -0.03225,-0.20527 -0.05782,-0.36189 -0.02556,-0.15662 -0.06023,-0.37286 -0.07704,-0.48054 -0.01681,-0.10767 -0.03806,-0.23582 -0.04723,-0.28476 -0.0092,-0.0489 -0.03066,-0.18243 -0.04775,-0.29663 -0.0171,-0.1142 -0.03484,-0.21938 -0.03942,-0.23374 -0.0095,-0.0297 -0.02165,-0.0186 -0.536505,0.48748 -0.153447,0.15084 -0.428517,0.42109 -0.611266,0.60055 -0.182748,0.17946 -0.467031,0.45903 -0.631739,0.62127 l -0.29947,0.29497 7.26e-4,2.64041 c 6.43e-4,2.34054 0.0027,2.63755 0.01837,2.61521 0.0097,-0.0138 0.06479,-0.11207 0.122411,-0.21826 z m 1.430791,-1.32005 c 0.241456,-0.0229 0.455029,-0.0442 0.474606,-0.0473 0.01958,-0.003 0.230481,-0.0246 0.468673,-0.0479 0.238193,-0.0232 0.502489,-0.05 0.587325,-0.0595 0.08484,-0.009 0.295739,-0.0307 0.468673,-0.0472 0.260009,-0.0248 0.586009,-0.058 1.057447,-0.10768 l 0.06671,-0.007 0.08951,-0.19182 c 0.04923,-0.1055 0.12137,-0.26123 0.160315,-0.34607 0.03894,-0.0848 0.08945,-0.19429 0.112242,-0.24323 0.02279,-0.049 0.09074,-0.19578 0.151006,-0.3263 0.06027,-0.13051 0.160128,-0.34589 0.221917,-0.47861 0.06179,-0.13272 0.109237,-0.24442 0.105438,-0.24822 -0.0065,-0.006 -0.534514,0.008 -1.175545,0.0326 -0.15662,0.006 -0.494169,0.0174 -0.750109,0.0254 l -0.465345,0.0145 -0.175736,0.17882 c -0.09665,0.0984 -0.410293,0.41909 -0.696974,0.71276 -0.286681,0.29366 -0.641589,0.65673 -0.788684,0.80683 -0.441641,0.45064 -0.4252,0.43242 -0.384995,0.4266 0.01899,-0.003 0.232078,-0.0238 0.473533,-0.0467 z m -0.177366,-0.17522 c 0.164645,-0.17002 0.919889,-0.94207 1.366719,-1.39712 0.13777,-0.14031 0.282098,-0.28937 0.320731,-0.33125 l 0.07024,-0.0761 0.259903,-0.009 c 0.142947,-0.005 0.43877,-0.0148 0.657386,-0.0216 0.218615,-0.007 0.56567,-0.0182 0.771234,-0.0253 0.205564,-0.007 0.398439,-0.0112 0.428613,-0.009 l 0.05486,0.004 -0.05486,0.11922 c -0.03017,0.0656 -0.07179,0.15635 -0.09248,0.20171 -0.02069,0.0454 -0.0801,0.17325 -0.132019,0.28419 -0.05192,0.11094 -0.106414,0.2284 -0.121097,0.26103 -0.02955,0.0657 -0.164159,0.35802 -0.207601,0.45088 -0.167673,0.35839 -0.154869,0.33615 -0.197561,0.34319 -0.02186,0.004 -0.181235,0.0204 -0.354169,0.0372 -0.362264,0.0354 -0.313626,0.0305 -1.17465,0.11701 -0.362183,0.0364 -0.706569,0.0715 -0.765302,0.0781 -0.05873,0.007 -0.221581,0.0228 -0.361887,0.0361 -0.140305,0.0133 -0.324511,0.0319 -0.409347,0.0414 -0.08484,0.01 -0.159251,0.0173 -0.165367,0.0173 -0.0061,10e-6 0.04188,-0.0547 0.106652,-0.1216 z m -1.704837,-0.34409 c -0.0271,-0.3679 -0.03757,-0.50835 -0.05773,-0.7742 -0.01237,-0.16315 -0.04136,-0.55025 -0.06443,-0.86022 -0.02307,-0.30998 -0.05031,-0.66771 -0.06055,-0.79497 -0.0327,-0.40664 -0.0647,-0.83548 -0.06479,-0.86843 -9.4e-5,-0.032 -0.05835,-0.0821 -1.311188,-1.12586 -0.05221,-0.0435 -0.201707,-0.16816 -0.332224,-0.27702 l -0.237303,-0.19793 -0.0074,0.0689 c -0.0041,0.0379 -0.01076,0.33851 -0.01484,0.66806 -0.0041,0.32956 -0.01353,0.91105 -0.021,1.2922 -0.01184,0.60406 -0.01136,0.69468 0.0037,0.70598 0.0095,0.007 0.131419,0.1331 0.270909,0.27993 0.363876,0.38303 1.901505,1.99334 1.903366,1.99334 8.6e-4,0 -0.0021,-0.0494 -0.0065,-0.10975 z m -0.229189,-0.26841 c -0.06493,-0.0694 -0.174527,-0.18484 -0.243557,-0.25662 -0.06903,-0.0718 -0.232119,-0.24264 -0.362421,-0.37969 -0.130302,-0.13704 -0.354199,-0.37197 -0.497548,-0.52206 -0.143349,-0.1501 -0.308899,-0.32371 -0.367888,-0.38581 -0.05899,-0.0621 -0.168057,-0.17581 -0.242371,-0.25268 l -0.135117,-0.13978 0.0074,-0.28718 c 0.0041,-0.15795 0.01387,-0.70775 0.02172,-1.22178 0.0079,-0.51404 0.01827,-0.93317 0.02316,-0.93142 0.0049,0.002 0.242528,0.19808 0.528095,0.43627 0.285568,0.23819 0.664972,0.55458 0.843119,0.70309 0.178147,0.1485 0.323904,0.27642 0.323904,0.28425 0,0.008 0.01326,0.188 0.02946,0.40037 0.03784,0.49591 0.128302,1.69551 0.166467,2.20743 0.0163,0.21862 0.03252,0.41484 0.03604,0.43604 0.0035,0.0212 0.0022,0.0379 -0.003,0.0371 -0.0052,-7.9e-4 -0.06256,-0.0582 -0.127484,-0.12755 z"
         id="path893-4-9-7"
         inkscape:connector-curvature="0" />
      <path
         style="fill:#f8a88e;stroke-width:0.01186515"
         d="m 80.558857,138.08422 c -0.398076,-0.0117 -1.012097,-0.0299 -1.364492,-0.0404 -0.352395,-0.0105 -0.756848,-0.0224 -0.898785,-0.0264 -0.141937,-0.004 -0.258067,-0.0115 -0.258067,-0.0167 0,-0.005 0.05623,-0.0857 0.124964,-0.17907 0.06873,-0.0933 0.199409,-0.27113 0.290397,-0.39512 0.218038,-0.29712 0.728775,-0.9904 0.922756,-1.25256 l 0.05075,-0.0686 0.07384,-0.006 c 0.08525,-0.007 3.356704,-0.033 3.363149,-0.0266 0.0024,0.002 -0.04763,0.0784 -0.11107,0.16889 -0.06344,0.0905 -0.190084,0.27141 -0.281424,0.40192 -0.09134,0.13052 -0.186671,0.26667 -0.211849,0.30256 -0.02518,0.0359 -0.06602,0.0946 -0.09076,0.13052 -0.02474,0.0359 -0.106605,0.15336 -0.18192,0.26103 -0.07531,0.10768 -0.215124,0.3079 -0.310687,0.44495 -0.250521,0.35925 -0.21899,0.3266 -0.313438,0.32464 -0.04377,-9e-4 -0.405283,-0.0112 -0.803358,-0.0229 z m -1.874693,-0.21904 c 0.150094,-0.01 0.641311,-0.0391 1.091593,-0.0648 0.450282,-0.0257 0.966779,-0.0559 1.147771,-0.0672 l 0.329077,-0.0205 0.394697,-0.49163 c 0.217084,-0.27039 0.415889,-0.51898 0.441789,-0.55243 0.0259,-0.0334 0.09673,-0.12221 0.157411,-0.19725 l 0.110319,-0.13645 -0.495567,-0.007 c -0.272562,-0.004 -0.900893,-0.009 -1.396291,-0.0119 l -0.900723,-0.004 -0.182461,0.23137 c -0.226126,0.28674 -0.386369,0.48967 -0.604304,0.7653 -0.09288,0.11747 -0.233244,0.295 -0.311923,0.39452 l -0.143053,0.18094 0.04438,-5e-5 c 0.02441,-2e-5 0.167188,-0.008 0.317282,-0.0182 z m -0.05339,-0.11275 c 0,-0.004 0.157818,-0.2073 0.350708,-0.45146 0.19289,-0.24417 0.429154,-0.5445 0.525033,-0.6674 l 0.174324,-0.22347 0.871081,0.007 c 0.479095,0.004 1.011692,0.007 1.183549,0.007 0.171856,0 0.312467,0.005 0.312467,0.0104 0,0.006 -0.20871,0.27134 -0.463799,0.59029 l -0.463798,0.5799 -0.0553,0.008 c -0.03042,0.005 -0.252856,0.0195 -0.494312,0.033 -0.681744,0.038 -1.858542,0.10636 -1.90139,0.11038 -0.02121,0.002 -0.03856,2.4e-4 -0.03856,-0.004 z m -1.097526,0.0398 c -0.05221,-0.0297 -0.124288,-0.0702 -0.16018,-0.0899 -0.03589,-0.0197 -0.0706,-0.0399 -0.07712,-0.0448 -0.0065,-0.005 -0.03723,-0.0228 -0.06822,-0.0398 -0.031,-0.017 -0.08172,-0.0452 -0.112719,-0.0626 -0.175692,-0.0986 -0.228111,-0.12816 -0.406381,-0.22883 -0.107676,-0.0608 -0.291883,-0.16509 -0.409348,-0.23175 -0.117464,-0.0666 -0.245608,-0.13878 -0.284763,-0.16029 -0.03915,-0.0215 -0.143272,-0.0803 -0.23137,-0.13067 -0.0881,-0.0504 -0.23493,-0.13323 -0.326292,-0.18415 -0.173429,-0.0967 -0.193245,-0.10788 -0.306578,-0.17328 l -0.06927,-0.04 -0.08268,-0.20171 c -0.114165,-0.27852 -0.266539,-0.65305 -0.386177,-0.94921 -0.05536,-0.13704 -0.107446,-0.26519 -0.115744,-0.28476 -0.0083,-0.0196 -0.02183,-0.0516 -0.03008,-0.0712 -0.01774,-0.0421 -0.200432,-0.49022 -0.379737,-0.93142 -0.07028,-0.17293 -0.165947,-0.40785 -0.212587,-0.52204 -0.04664,-0.11419 -0.08333,-0.21367 -0.08153,-0.22106 0.0019,-0.008 0.06654,0.0163 0.158242,0.0593 0.149311,0.0701 0.21955,0.10282 0.450149,0.20976 0.05873,0.0272 0.15751,0.0736 0.219505,0.10297 0.062,0.0294 0.140232,0.0659 0.173858,0.0811 0.03363,0.0152 0.105708,0.0487 0.16018,0.0744 0.05447,0.0257 0.139085,0.0654 0.188029,0.0881 0.134123,0.0623 0.610723,0.28462 0.711909,0.3321 0.04894,0.023 0.123694,0.0578 0.166112,0.0775 0.04242,0.0196 0.133186,0.0622 0.201707,0.0947 0.06852,0.0324 0.15395,0.0725 0.189842,0.0891 0.09319,0.0429 0.300387,0.14038 0.314427,0.14789 0.0065,0.004 -0.05261,-0.0598 -0.13141,-0.14057 -0.272037,-0.27895 -1.173036,-1.21235 -1.200615,-1.24378 l -0.02766,-0.0315 8.37e-4,-1.61828 c 4.61e-4,-0.89006 0.0032,-1.62068 0.0062,-1.62362 0.0029,-0.003 0.01574,0.002 0.02844,0.0112 0.01271,0.009 0.07165,0.0512 0.130983,0.0936 0.05934,0.0424 0.245302,0.17458 0.41326,0.29368 0.167959,0.1191 0.337416,0.23962 0.376571,0.26782 0.03915,0.0282 0.183316,0.13064 0.320359,0.22765 0.298919,0.21161 0.723116,0.51298 0.943279,0.67016 0.0881,0.0629 0.19355,0.13748 0.234336,0.16574 0.07175,0.0497 0.07416,0.0531 0.07416,0.10305 0,0.0284 0.0032,0.0517 0.007,0.0517 0.0039,0 0.136025,-0.12455 0.293662,-0.27678 0.157637,-0.15222 0.652356,-0.62866 1.099376,-1.05875 0.447019,-0.4301 0.872574,-0.84009 0.945677,-0.91111 0.151416,-0.14709 0.134174,-0.15129 0.162977,0.0397 0.0219,0.14526 0.12181,0.79745 0.190844,1.24584 0.02964,0.19251 0.07219,0.47016 0.09455,0.61699 0.0877,0.57583 0.219252,1.43137 0.224702,1.46128 0.0045,0.0249 -0.01875,0.07 -0.110215,0.21357 -0.06378,0.10012 -0.207035,0.3262 -0.318347,0.5024 -0.111312,0.1762 -0.323952,0.51257 -0.472533,0.7475 -0.335983,0.53124 -0.311208,0.49096 -0.288228,0.46868 0.0101,-0.01 0.127174,-0.14095 0.260173,-0.29147 0.283942,-0.32135 0.920062,-1.03989 1.030806,-1.16436 0.0764,-0.0859 0.0776,-0.0866 0.136449,-0.0865 0.05518,1.3e-4 0.728715,0.0316 1.263682,0.0591 0.279902,0.0144 1.503878,0.0712 1.534856,0.0712 0.03158,5e-5 0.02303,0.0251 -0.08567,0.25076 -0.05145,0.10682 -0.126917,0.26363 -0.167715,0.34847 -0.0408,0.0848 -0.231441,0.48525 -0.423648,0.88982 -0.192207,0.40456 -0.351115,0.73722 -0.35313,0.73923 -0.0034,0.003 -0.766676,0.0597 -1.964106,0.14477 -0.277348,0.0197 -0.608385,0.044 -0.735639,0.0539 -0.127254,0.01 -0.420916,0.0311 -0.652583,0.0471 -0.521144,0.0359 -0.539274,0.0379 -0.560296,0.0629 -0.0093,0.011 -0.05723,0.0841 -0.106519,0.16245 -0.14021,0.22276 -0.534965,0.84753 -0.659729,1.04413 -0.06212,0.0979 -0.129882,0.20467 -0.150583,0.2373 -0.0207,0.0326 -0.07133,0.11272 -0.11251,0.17798 -0.04118,0.0653 -0.08937,0.14112 -0.107094,0.16858 l -0.03222,0.0499 -0.0077,-0.28723 c -0.01,-0.37116 -0.02918,-1.05709 -0.04232,-1.51241 l -0.01035,-0.35904 -0.281762,-0.29077 c -0.154969,-0.15992 -0.283249,-0.28928 -0.285066,-0.28746 -0.0018,0.002 0.0011,0.0273 0.0065,0.0565 0.01594,0.0866 0.09369,0.56568 0.120313,0.74142 0.0069,0.0457 0.01722,0.10709 0.02289,0.13645 0.0057,0.0294 0.01585,0.0908 0.02262,0.13645 0.0068,0.0457 0.02858,0.1845 0.04846,0.3085 0.01988,0.12399 0.04665,0.29217 0.05948,0.37375 0.02151,0.13672 0.02911,0.18364 0.05956,0.36782 0.01251,0.0756 0.07842,0.48669 0.09274,0.57842 0.0068,0.0433 0.0058,0.0621 -0.0033,0.0615 -0.0072,-4.2e-4 -0.05575,-0.0251 -0.107951,-0.0548 z m -0.0473,-0.15502 c -0.0046,-0.0179 -0.01832,-0.0887 -0.0305,-0.15721 -0.01219,-0.0685 -0.03323,-0.18332 -0.04678,-0.25511 -0.01354,-0.0718 -0.03529,-0.18924 -0.04834,-0.26103 -0.01304,-0.0718 -0.02886,-0.15855 -0.03515,-0.19281 -0.01257,-0.0685 -0.02909,-0.1592 -0.04644,-0.2551 -0.0062,-0.0343 -0.02782,-0.15039 -0.04806,-0.25806 -0.02023,-0.10768 -0.04156,-0.22248 -0.04741,-0.25511 -0.0235,-0.1313 -0.07348,-0.40207 -0.107313,-0.58139 -0.0197,-0.10441 -0.04202,-0.2234 -0.04959,-0.26442 -0.01551,-0.084 -0.01141,-0.0792 -0.116045,-0.13564 -0.227561,-0.12281 -0.284109,-0.15312 -0.504268,-0.2703 -0.04568,-0.0243 -0.157807,-0.0842 -0.249168,-0.13315 -0.09136,-0.0489 -0.214166,-0.11443 -0.272899,-0.14559 -0.05873,-0.0311 -0.112125,-0.0605 -0.118651,-0.0651 -0.0065,-0.005 -0.08662,-0.0474 -0.177977,-0.0949 -0.09136,-0.0476 -0.171452,-0.0903 -0.177977,-0.0951 -0.0065,-0.005 -0.06793,-0.038 -0.13645,-0.0739 -0.276641,-0.14502 -0.36351,-0.1911 -0.397482,-0.21084 -0.01958,-0.0114 -0.08632,-0.0475 -0.148314,-0.0803 -0.161879,-0.0857 -0.265508,-0.14135 -0.373752,-0.20077 -0.133346,-0.0732 -0.219408,-0.11457 -0.225539,-0.10843 -0.0029,0.003 0.05285,0.15175 0.123842,0.33083 0.331363,0.83588 0.392393,0.99132 0.392393,0.99942 0,0.005 0.01015,0.0313 0.02255,0.059 0.0124,0.0277 0.07479,0.18378 0.138647,0.34693 0.06386,0.16315 0.18052,0.45915 0.259252,0.65779 l 0.14315,0.36116 0.261033,0.15809 c 0.143569,0.0869 0.298409,0.18103 0.34409,0.20907 0.103675,0.0637 0.518096,0.31581 0.561269,0.34151 0.01759,0.0105 0.130765,0.0793 0.251493,0.15288 0.357103,0.21772 0.446913,0.27244 0.64665,0.39392 0.104414,0.0635 0.197096,0.11568 0.20596,0.11594 0.01174,3.4e-4 0.01385,-0.008 0.0078,-0.0322 z m 0.685532,-0.47449 c 0.109864,-0.20338 0.251239,-0.46254 0.409455,-0.75059 0.158753,-0.28903 0.227819,-0.41979 0.227819,-0.43132 0,-0.006 -0.01602,-0.007 -0.0356,-0.004 -0.01958,0.004 -0.03556,0.003 -0.03552,-0.001 1.42e-4,-0.0157 0.04311,-0.0742 0.04966,-0.0676 0.01057,0.0106 0.150357,-0.16057 0.198927,-0.24353 0.02483,-0.0424 0.139831,-0.25065 0.25555,-0.46274 0.11572,-0.21209 0.225091,-0.41232 0.243048,-0.44495 0.01796,-0.0326 0.06892,-0.12606 0.113245,-0.20764 0.04433,-0.0816 0.0911,-0.167 0.103937,-0.18984 0.01284,-0.0228 0.05672,-0.10293 0.09752,-0.17798 0.0408,-0.075 0.11925,-0.2192 0.174335,-0.32035 0.05508,-0.10115 0.187386,-0.34409 0.294004,-0.53987 0.106618,-0.19577 0.2224,-0.40654 0.257292,-0.46837 0.04942,-0.0876 0.06214,-0.12034 0.05756,-0.14831 -0.0032,-0.0198 -0.03261,-0.20142 -0.06528,-0.40372 -0.03267,-0.2023 -0.08068,-0.49863 -0.106681,-0.65852 -0.02601,-0.15988 -0.07408,-0.45621 -0.106822,-0.65851 -0.130257,-0.80471 -0.158207,-0.97315 -0.162289,-0.97801 -0.0023,-0.003 -0.05893,0.0479 -0.125747,0.1127 -0.192876,0.18697 -1.26861,1.24076 -1.574976,1.54285 -0.153357,0.15122 -0.304192,0.29834 -0.33519,0.32693 l -0.05636,0.052 -3.5e-5,1.6431 c -2.4e-5,1.02645 0.005,1.75869 0.0133,1.95111 0.0099,0.2275 0.0099,0.30917 3.6e-5,0.31244 -0.0096,0.003 -0.0133,0.19941 -0.0133,0.71013 0,0.40835 0.0044,0.70294 0.01054,0.69917 0.0058,-0.004 0.056,-0.0907 0.111554,-0.19351 z m 1.461901,-1.39703 c 0.241456,-0.0229 0.455029,-0.0442 0.474606,-0.0473 0.01958,-0.003 0.230481,-0.0246 0.468673,-0.0479 0.238193,-0.0232 0.502489,-0.05 0.587325,-0.0595 0.08484,-0.009 0.295739,-0.0307 0.468673,-0.0472 0.260009,-0.0248 0.586009,-0.058 1.057447,-0.10768 l 0.06671,-0.007 0.08951,-0.19182 c 0.04923,-0.1055 0.12137,-0.26123 0.160315,-0.34607 0.03894,-0.0848 0.08945,-0.19429 0.112242,-0.24323 0.02279,-0.049 0.09074,-0.19578 0.151006,-0.3263 0.06027,-0.13051 0.160128,-0.34589 0.221917,-0.47861 0.06179,-0.13272 0.109237,-0.24442 0.105438,-0.24822 -0.0065,-0.006 -0.534514,0.008 -1.175545,0.0326 -0.15662,0.006 -0.494169,0.0174 -0.750109,0.0254 l -0.465345,0.0145 -0.175736,0.17882 c -0.09665,0.0984 -0.410293,0.41909 -0.696974,0.71276 -0.286681,0.29366 -0.641589,0.65673 -0.788684,0.80683 -0.441641,0.45064 -0.4252,0.43242 -0.384995,0.4266 0.01899,-0.003 0.232078,-0.0238 0.473533,-0.0467 z m -0.177366,-0.17522 c 0.164645,-0.17002 0.919889,-0.94207 1.366719,-1.39712 0.13777,-0.14031 0.282098,-0.28937 0.320731,-0.33125 l 0.07024,-0.0761 0.259903,-0.009 c 0.142947,-0.005 0.43877,-0.0148 0.657386,-0.0216 0.218615,-0.007 0.56567,-0.0182 0.771234,-0.0253 0.205564,-0.007 0.398439,-0.0112 0.428613,-0.009 l 0.05486,0.004 -0.05486,0.11922 c -0.03017,0.0656 -0.07179,0.15635 -0.09248,0.20171 -0.02069,0.0454 -0.0801,0.17325 -0.132019,0.28419 -0.05192,0.11094 -0.106414,0.2284 -0.121097,0.26103 -0.02955,0.0657 -0.164159,0.35802 -0.207601,0.45088 -0.167673,0.35839 -0.154869,0.33615 -0.197561,0.34319 -0.02186,0.004 -0.181235,0.0204 -0.354169,0.0372 -0.362264,0.0354 -0.313626,0.0305 -1.17465,0.11701 -0.362183,0.0364 -0.706569,0.0715 -0.765302,0.0781 -0.05873,0.007 -0.221581,0.0228 -0.361887,0.0361 -0.140305,0.0133 -0.324511,0.0319 -0.409347,0.0414 -0.08484,0.01 -0.159251,0.0173 -0.165367,0.0173 -0.0061,10e-6 0.04188,-0.0547 0.106652,-0.1216 z m -1.717304,-0.52207 c -0.02259,-0.3118 -0.126605,-1.69079 -0.164451,-2.18022 -0.01287,-0.1664 -0.03434,-0.44939 -0.04772,-0.62885 -0.01338,-0.17946 -0.02622,-0.33218 -0.02853,-0.33938 -0.0034,-0.0107 -0.680356,-0.58136 -1.097166,-0.92492 -0.05586,-0.046 -0.253734,-0.21072 -0.43972,-0.36596 l -0.338157,-0.28225 -0.0079,0.0575 c -0.0044,0.0316 -0.01381,0.4686 -0.02099,0.97109 -0.0072,0.50249 -0.01605,1.08981 -0.01972,1.30516 l -0.0067,0.39155 0.123104,0.12459 c 0.06771,0.0685 0.234622,0.24205 0.370922,0.38561 0.1363,0.14357 0.302013,0.3171 0.368251,0.38562 0.06624,0.0685 0.29589,0.30879 0.510339,0.53393 0.48521,0.5094 0.815265,0.85429 0.817548,0.85429 9.59e-4,0 -0.0076,-0.12947 -0.0191,-0.28773 z m -0.216722,-0.0904 c -0.06493,-0.0694 -0.174527,-0.18484 -0.243557,-0.25662 -0.06903,-0.0718 -0.232119,-0.24264 -0.362421,-0.37969 -0.130302,-0.13704 -0.354199,-0.37197 -0.497548,-0.52206 -0.143349,-0.1501 -0.308899,-0.32371 -0.367888,-0.38581 -0.05899,-0.0621 -0.168057,-0.17581 -0.242371,-0.25268 l -0.135117,-0.13978 0.0074,-0.28718 c 0.0041,-0.15795 0.01387,-0.70775 0.02172,-1.22178 0.0079,-0.51404 0.01827,-0.93317 0.02316,-0.93142 0.0049,0.002 0.242528,0.19808 0.528095,0.43627 0.285568,0.23819 0.664972,0.55458 0.843119,0.70309 0.178147,0.1485 0.323904,0.27642 0.323904,0.28425 0,0.008 0.01326,0.188 0.02946,0.40037 0.03784,0.49591 0.128302,1.69551 0.166467,2.20743 0.0163,0.21862 0.03252,0.41484 0.03604,0.43604 0.0035,0.0212 0.0022,0.0379 -0.003,0.0371 -0.0052,-7.9e-4 -0.06256,-0.0582 -0.127484,-0.12755 z"
         id="path891-2-8-5"
         inkscape:connector-curvature="0" />
      <path
         style="fill:#9ad1ad;stroke-width:0.01186515"
         d="m 80.558857,138.08422 c -0.398076,-0.0117 -1.012097,-0.0299 -1.364492,-0.0404 -0.352395,-0.0105 -0.756848,-0.0224 -0.898785,-0.0264 -0.141937,-0.004 -0.258067,-0.0115 -0.258067,-0.0167 0,-0.005 0.05623,-0.0857 0.124964,-0.17907 0.06873,-0.0933 0.199409,-0.27113 0.290397,-0.39512 0.218038,-0.29712 0.728775,-0.9904 0.922756,-1.25256 l 0.05075,-0.0686 0.07384,-0.006 c 0.08525,-0.007 3.356704,-0.033 3.363149,-0.0266 0.0024,0.002 -0.04763,0.0784 -0.11107,0.16889 -0.06344,0.0905 -0.190084,0.27141 -0.281424,0.40192 -0.09134,0.13052 -0.186671,0.26667 -0.211849,0.30256 -0.02518,0.0359 -0.06602,0.0946 -0.09076,0.13052 -0.02474,0.0359 -0.106605,0.15336 -0.18192,0.26103 -0.07531,0.10768 -0.215124,0.3079 -0.310687,0.44495 -0.250521,0.35925 -0.21899,0.3266 -0.313438,0.32464 -0.04377,-9e-4 -0.405283,-0.0112 -0.803358,-0.0229 z m -1.874693,-0.21904 c 0.150094,-0.01 0.641311,-0.0391 1.091593,-0.0648 0.450282,-0.0257 0.966779,-0.0559 1.147771,-0.0672 l 0.329077,-0.0205 0.394697,-0.49163 c 0.217084,-0.27039 0.415889,-0.51898 0.441789,-0.55243 0.0259,-0.0334 0.09673,-0.12221 0.157411,-0.19725 l 0.110319,-0.13645 -0.495567,-0.007 c -0.272562,-0.004 -0.900893,-0.009 -1.396291,-0.0119 l -0.900723,-0.004 -0.182461,0.23137 c -0.226126,0.28674 -0.386369,0.48967 -0.604304,0.7653 -0.09288,0.11747 -0.233244,0.295 -0.311923,0.39452 l -0.143053,0.18094 0.04438,-5e-5 c 0.02441,-2e-5 0.167188,-0.008 0.317282,-0.0182 z m -0.05339,-0.11275 c 0,-0.004 0.157818,-0.2073 0.350708,-0.45146 0.19289,-0.24417 0.429154,-0.5445 0.525033,-0.6674 l 0.174324,-0.22347 0.871081,0.007 c 0.479095,0.004 1.011692,0.007 1.183549,0.007 0.171856,0 0.312467,0.005 0.312467,0.0104 0,0.006 -0.20871,0.27134 -0.463799,0.59029 l -0.463798,0.5799 -0.0553,0.008 c -0.03042,0.005 -0.252856,0.0195 -0.494312,0.033 -0.681744,0.038 -1.858542,0.10636 -1.90139,0.11038 -0.02121,0.002 -0.03856,2.4e-4 -0.03856,-0.004 z m -1.097526,0.0398 c -0.05221,-0.0297 -0.124288,-0.0702 -0.16018,-0.0899 -0.03589,-0.0197 -0.0706,-0.0399 -0.07712,-0.0448 -0.0065,-0.005 -0.03723,-0.0228 -0.06822,-0.0398 -0.031,-0.017 -0.08172,-0.0452 -0.112719,-0.0626 -0.175692,-0.0986 -0.228111,-0.12816 -0.406381,-0.22883 -0.107676,-0.0608 -0.291883,-0.16509 -0.409348,-0.23175 -0.117464,-0.0666 -0.245608,-0.13878 -0.284763,-0.16029 -0.03915,-0.0215 -0.143272,-0.0803 -0.23137,-0.13067 -0.0881,-0.0504 -0.23493,-0.13323 -0.326292,-0.18415 -0.173429,-0.0967 -0.193245,-0.10788 -0.306578,-0.17328 l -0.06927,-0.04 -0.08268,-0.20171 c -0.114165,-0.27852 -0.266539,-0.65305 -0.386177,-0.94921 -0.05536,-0.13704 -0.107446,-0.26519 -0.115744,-0.28476 -0.0083,-0.0196 -0.02183,-0.0516 -0.03008,-0.0712 -0.01774,-0.0421 -0.200432,-0.49022 -0.379737,-0.93142 -0.07028,-0.17293 -0.165947,-0.40785 -0.212587,-0.52204 -0.04664,-0.11419 -0.08333,-0.21367 -0.08153,-0.22106 0.0019,-0.008 0.06654,0.0163 0.158242,0.0593 0.149311,0.0701 0.21955,0.10282 0.450149,0.20976 0.05873,0.0272 0.15751,0.0736 0.219505,0.10297 0.062,0.0294 0.140232,0.0659 0.173858,0.0811 0.03363,0.0152 0.105708,0.0487 0.16018,0.0744 0.05447,0.0257 0.139085,0.0654 0.188029,0.0881 0.134123,0.0623 0.610723,0.28462 0.711909,0.3321 0.04894,0.023 0.123694,0.0578 0.166112,0.0775 0.04242,0.0196 0.133186,0.0622 0.201707,0.0947 0.06852,0.0324 0.15395,0.0725 0.189842,0.0891 0.09319,0.0429 0.300387,0.14038 0.314427,0.14789 0.0065,0.004 -0.05261,-0.0598 -0.13141,-0.14057 -0.272037,-0.27895 -1.173036,-1.21235 -1.200615,-1.24378 l -0.02766,-0.0315 8.37e-4,-1.61828 c 4.61e-4,-0.89006 0.0032,-1.62068 0.0062,-1.62362 0.0029,-0.003 0.01574,0.002 0.02844,0.0112 0.01271,0.009 0.07165,0.0512 0.130983,0.0936 0.05934,0.0424 0.245302,0.17458 0.41326,0.29368 0.167959,0.1191 0.337416,0.23962 0.376571,0.26782 0.03915,0.0282 0.183316,0.13064 0.320359,0.22765 0.298919,0.21161 0.723116,0.51298 0.943279,0.67016 0.0881,0.0629 0.19355,0.13748 0.234336,0.16574 0.07175,0.0497 0.07416,0.0531 0.07416,0.10305 0,0.0284 0.0032,0.0517 0.007,0.0517 0.0039,0 0.136025,-0.12455 0.293662,-0.27678 0.157637,-0.15222 0.652356,-0.62866 1.099376,-1.05875 0.447019,-0.4301 0.872574,-0.84009 0.945677,-0.91111 0.151416,-0.14709 0.134174,-0.15129 0.162977,0.0397 0.0219,0.14526 0.12181,0.79745 0.190844,1.24584 0.02964,0.19251 0.07219,0.47016 0.09455,0.61699 0.0877,0.57583 0.219252,1.43137 0.224702,1.46128 0.0045,0.0249 -0.01875,0.07 -0.110215,0.21357 -0.06378,0.10012 -0.207035,0.3262 -0.318347,0.5024 -0.378622,0.59933 -0.742627,1.17457 -0.761367,1.20319 -0.04598,0.0702 0.02093,0.006 0.161325,-0.15413 0.225495,-0.25769 1.142634,-1.29183 1.183697,-1.3347 l 0.0356,-0.0372 0.166112,0.009 c 0.165804,0.009 0.605817,0.0306 1.334829,0.0646 0.669219,0.0312 0.877853,0.0412 1.103459,0.0532 0.120728,0.006 0.2285,0.0117 0.239493,0.0117 0.02271,7e-5 0.03295,-0.0226 -0.339845,0.7535 -0.04702,0.0979 -0.22086,0.46363 -0.386317,0.81276 -0.165457,0.34913 -0.302154,0.63665 -0.303771,0.63894 -0.0032,0.004 -0.242863,0.0227 -1.268163,0.0968 -2.895696,0.20905 -2.617317,0.1861 -2.639741,0.21763 -0.01911,0.0269 -0.09758,0.15029 -0.442489,0.69593 -0.117566,0.18598 -0.26457,0.41824 -0.326674,0.51613 -0.06211,0.0979 -0.129855,0.20467 -0.150556,0.2373 -0.0207,0.0326 -0.07133,0.11272 -0.11251,0.17798 -0.04118,0.0653 -0.08937,0.14112 -0.107094,0.16858 l -0.03222,0.0499 -0.0077,-0.28723 c -0.01,-0.37116 -0.02918,-1.05709 -0.04232,-1.51241 l -0.01035,-0.35904 -0.281762,-0.29077 c -0.154969,-0.15992 -0.283249,-0.28928 -0.285066,-0.28746 -0.0018,0.002 0.0011,0.0273 0.0065,0.0565 0.01594,0.0866 0.09369,0.56568 0.120313,0.74142 0.0069,0.0457 0.01722,0.10709 0.02289,0.13645 0.0057,0.0294 0.01585,0.0908 0.02262,0.13645 0.0068,0.0457 0.02858,0.1845 0.04846,0.3085 0.01988,0.12399 0.04665,0.29217 0.05948,0.37375 0.02151,0.13672 0.02911,0.18364 0.05956,0.36782 0.01251,0.0756 0.07842,0.48669 0.09274,0.57842 0.0068,0.0433 0.0058,0.0621 -0.0033,0.0615 -0.0072,-4.2e-4 -0.05575,-0.0251 -0.107951,-0.0548 z m -0.0473,-0.15502 c -0.0046,-0.0179 -0.01832,-0.0887 -0.0305,-0.15721 -0.01219,-0.0685 -0.03323,-0.18332 -0.04678,-0.25511 -0.01354,-0.0718 -0.03529,-0.18924 -0.04834,-0.26103 -0.01304,-0.0718 -0.02886,-0.15855 -0.03515,-0.19281 -0.01257,-0.0685 -0.02909,-0.1592 -0.04644,-0.2551 -0.0062,-0.0343 -0.02782,-0.15039 -0.04806,-0.25806 -0.02023,-0.10768 -0.04156,-0.22248 -0.04741,-0.25511 -0.0235,-0.1313 -0.07348,-0.40207 -0.107313,-0.58139 -0.0197,-0.10441 -0.04202,-0.2234 -0.04959,-0.26442 -0.01551,-0.084 -0.01141,-0.0792 -0.116045,-0.13564 -0.227561,-0.12281 -0.284109,-0.15312 -0.504268,-0.2703 -0.04568,-0.0243 -0.157807,-0.0842 -0.249168,-0.13315 -0.09136,-0.0489 -0.214166,-0.11443 -0.272899,-0.14559 -0.05873,-0.0311 -0.112125,-0.0605 -0.118651,-0.0651 -0.0065,-0.005 -0.08662,-0.0474 -0.177977,-0.0949 -0.09136,-0.0476 -0.171452,-0.0903 -0.177977,-0.0951 -0.0065,-0.005 -0.06793,-0.038 -0.13645,-0.0739 -0.276641,-0.14502 -0.36351,-0.1911 -0.397482,-0.21084 -0.01958,-0.0114 -0.08632,-0.0475 -0.148314,-0.0803 -0.161879,-0.0857 -0.265508,-0.14135 -0.373752,-0.20077 -0.133346,-0.0732 -0.219408,-0.11457 -0.225539,-0.10843 -0.0029,0.003 0.05285,0.15175 0.123842,0.33083 0.331363,0.83588 0.392393,0.99132 0.392393,0.99942 0,0.005 0.01015,0.0313 0.02255,0.059 0.0124,0.0277 0.07479,0.18378 0.138647,0.34693 0.06386,0.16315 0.18052,0.45915 0.259252,0.65779 l 0.14315,0.36116 0.261033,0.15809 c 0.143569,0.0869 0.298409,0.18103 0.34409,0.20907 0.103675,0.0637 0.518096,0.31581 0.561269,0.34151 0.01759,0.0105 0.130765,0.0793 0.251493,0.15288 0.357103,0.21772 0.446913,0.27244 0.64665,0.39392 0.104414,0.0635 0.197096,0.11568 0.20596,0.11594 0.01174,3.4e-4 0.01385,-0.008 0.0078,-0.0322 z m 0.685532,-0.47449 c 0.109864,-0.20338 0.251239,-0.46254 0.409455,-0.75059 0.16918,-0.30801 0.227819,-0.42 0.227819,-0.43509 0,-0.014 -0.03533,-0.0128 -0.05937,0.002 -0.01933,0.0119 -0.01337,-0.009 0.01324,-0.0475 0.01549,-0.0221 0.02209,-0.0266 0.01746,-0.0119 -0.0041,0.0131 0.02458,-0.011 0.06372,-0.0534 0.07586,-0.0822 0.136101,-0.18357 0.43372,-0.72971 0.09602,-0.1762 0.189285,-0.34706 0.207261,-0.37969 0.01798,-0.0326 0.06895,-0.12606 0.113279,-0.20764 0.04433,-0.0816 0.0911,-0.167 0.103937,-0.18984 0.01284,-0.0228 0.05672,-0.10293 0.09752,-0.17798 0.0408,-0.075 0.11925,-0.2192 0.174335,-0.32035 0.05508,-0.10115 0.187386,-0.34409 0.294004,-0.53987 0.106618,-0.19577 0.2224,-0.40654 0.257292,-0.46837 0.04942,-0.0876 0.06214,-0.12034 0.05756,-0.14831 -0.0032,-0.0198 -0.03261,-0.20142 -0.06528,-0.40372 -0.03267,-0.2023 -0.08068,-0.49863 -0.106681,-0.65852 -0.02601,-0.15988 -0.07408,-0.45621 -0.106822,-0.65851 -0.130257,-0.80471 -0.158207,-0.97315 -0.162289,-0.97801 -0.0023,-0.003 -0.05893,0.0479 -0.125747,0.1127 -0.192876,0.18697 -1.26861,1.24076 -1.574976,1.54285 -0.153357,0.15122 -0.304192,0.29834 -0.33519,0.32693 l -0.05636,0.052 -3.5e-5,1.6431 c -2.4e-5,1.02645 0.005,1.75869 0.0133,1.95111 0.0099,0.2275 0.0099,0.30917 3.6e-5,0.31244 -0.0096,0.003 -0.0133,0.19941 -0.0133,0.71013 0,0.40835 0.0044,0.70294 0.01054,0.69917 0.0058,-0.004 0.056,-0.0907 0.111554,-0.19351 z m 1.082217,-1.34969 c 0.09357,-0.009 1.224341,-0.12311 1.89249,-0.19071 0.2904,-0.0294 0.717545,-0.0721 0.949212,-0.095 0.231667,-0.0229 0.476499,-0.0481 0.544071,-0.056 l 0.122858,-0.0144 0.06698,-0.14376 c 0.03684,-0.0791 0.08512,-0.18318 0.107285,-0.23137 0.02217,-0.0482 0.08002,-0.17304 0.128562,-0.27746 0.04854,-0.10441 0.09917,-0.21386 0.112498,-0.24323 0.04277,-0.0942 0.257287,-0.55741 0.350311,-0.7564 0.04957,-0.10604 0.08742,-0.19551 0.08411,-0.19883 -0.007,-0.007 -2.293689,0.0625 -2.366682,0.0719 -0.04624,0.006 -0.07043,0.0282 -0.41528,0.38156 -0.201397,0.20637 -0.669183,0.68515 -1.039523,1.06396 -0.370341,0.37881 -0.673347,0.69281 -0.673347,0.69776 0,0.005 0.01468,0.007 0.03263,0.004 0.01795,-0.003 0.06467,-0.008 0.10382,-0.012 z m -1.514986,-0.74463 c -0.02259,-0.3118 -0.126605,-1.69079 -0.164451,-2.18022 -0.01287,-0.1664 -0.03434,-0.44939 -0.04772,-0.62885 -0.01338,-0.17946 -0.02622,-0.33218 -0.02853,-0.33938 -0.0034,-0.0107 -0.680356,-0.58136 -1.097166,-0.92492 -0.05586,-0.046 -0.253734,-0.21072 -0.43972,-0.36596 l -0.338157,-0.28225 -0.0079,0.0575 c -0.0044,0.0316 -0.01381,0.4686 -0.02099,0.97109 -0.0072,0.50249 -0.01605,1.08981 -0.01972,1.30516 l -0.0067,0.39155 0.123104,0.12459 c 0.06771,0.0685 0.234622,0.24205 0.370922,0.38561 0.1363,0.14357 0.302013,0.3171 0.368251,0.38562 0.06624,0.0685 0.29589,0.30879 0.510339,0.53393 0.48521,0.5094 0.815265,0.85429 0.817548,0.85429 9.59e-4,0 -0.0076,-0.12947 -0.0191,-0.28773 z m -0.216722,-0.0904 c -0.06493,-0.0694 -0.174527,-0.18484 -0.243557,-0.25662 -0.06903,-0.0718 -0.232119,-0.24264 -0.362421,-0.37969 -0.130302,-0.13704 -0.354199,-0.37197 -0.497548,-0.52206 -0.143349,-0.1501 -0.308899,-0.32371 -0.367888,-0.38581 -0.05899,-0.0621 -0.168057,-0.17581 -0.242371,-0.25268 l -0.135117,-0.13978 0.0074,-0.28718 c 0.0041,-0.15795 0.01387,-0.70775 0.02172,-1.22178 0.0079,-0.51404 0.01827,-0.93317 0.02316,-0.93142 0.0049,0.002 0.242528,0.19808 0.528095,0.43627 0.285568,0.23819 0.664972,0.55458 0.843119,0.70309 0.178147,0.1485 0.323904,0.27642 0.323904,0.28425 0,0.008 0.01326,0.188 0.02946,0.40037 0.03784,0.49591 0.128302,1.69551 0.166467,2.20743 0.0163,0.21862 0.03252,0.41484 0.03604,0.43604 0.0035,0.0212 0.0022,0.0379 -0.003,0.0371 -0.0052,-7.9e-4 -0.06256,-0.0582 -0.127484,-0.12755 z"
         id="path889-2-1-3"
         inkscape:connector-curvature="0" />
      <path
         style="fill:#fbf010;stroke-width:0.01186515"
         d="m 80.38088,138.07877 c -0.515541,-0.015 -1.204313,-0.0358 -1.530604,-0.0461 -0.326292,-0.0103 -0.640112,-0.0195 -0.697378,-0.0204 -0.05727,-9e-4 -0.106735,-0.006 -0.109929,-0.011 -0.0032,-0.005 0.03565,-0.0653 0.08632,-0.13361 0.05067,-0.0683 0.142567,-0.19283 0.204213,-0.27671 0.06165,-0.0839 0.15731,-0.21391 0.212585,-0.28895 0.05528,-0.075 0.127997,-0.17383 0.161603,-0.21951 0.06533,-0.0888 0.139384,-0.18933 0.478556,-0.64961 0.04448,-0.0604 0.116568,-0.15857 0.160193,-0.21823 l 0.07932,-0.10848 0.204661,-0.007 c 0.24424,-0.008 3.227626,-0.0319 3.233827,-0.0258 0.0024,0.002 -0.03676,0.0622 -0.08696,0.13287 -0.120564,0.16983 -0.116828,0.16452 -0.302866,0.43113 -0.0888,0.12725 -0.232579,0.33282 -0.319519,0.45681 -0.08694,0.12399 -0.180402,0.25747 -0.207692,0.29663 -0.195784,0.2809 -0.390414,0.5587 -0.44057,0.62885 l -0.05939,0.0831 -0.06451,0.002 c -0.03548,9e-4 -0.48632,-0.0107 -1.00186,-0.0257 z m -1.678919,-0.21342 c 0.153357,-0.01 0.695298,-0.0417 1.204313,-0.0708 0.509014,-0.0292 1.000232,-0.0584 1.091593,-0.065 0.09136,-0.007 0.185319,-0.012 0.208794,-0.0121 0.03934,-9e-5 0.04921,-0.008 0.12617,-0.10392 0.04592,-0.0571 0.295163,-0.36812 0.553877,-0.69115 l 0.470389,-0.58732 -0.371121,-0.008 c -0.204117,-0.004 -0.832799,-0.01 -1.397073,-0.0119 l -1.025951,-0.004 -0.113103,0.14371 c -0.237516,0.3018 -0.498199,0.63194 -0.635169,0.80439 -0.07831,0.0986 -0.203362,0.25665 -0.277894,0.35122 -0.07453,0.0946 -0.153931,0.19465 -0.176441,0.22238 l -0.04093,0.0504 0.05186,-1.2e-4 c 0.02852,-6e-5 0.17733,-0.008 0.330687,-0.0179 z m -0.04876,-0.14513 c 0.01323,-0.0179 0.250043,-0.31828 0.526258,-0.66741 l 0.502209,-0.63479 1.019985,0.005 c 0.560992,0.003 1.093329,0.008 1.18297,0.0119 l 0.162983,0.007 -0.445721,0.55767 c -0.245146,0.30671 -0.457311,0.56943 -0.471477,0.58381 -0.02889,0.0293 -0.08612,0.0337 -1.443641,0.11035 -0.349132,0.0197 -0.709536,0.0411 -0.800898,0.0474 -0.09136,0.006 -0.186498,0.0117 -0.211414,0.0117 l -0.0453,1.1e-4 0.02405,-0.0326 z m -1.119958,0.072 c -0.05221,-0.0297 -0.124288,-0.0702 -0.16018,-0.0899 -0.03589,-0.0197 -0.0706,-0.0399 -0.07712,-0.0448 -0.0065,-0.005 -0.03723,-0.0228 -0.06822,-0.0398 -0.031,-0.017 -0.08172,-0.0452 -0.112719,-0.0626 -0.175692,-0.0986 -0.228111,-0.12816 -0.406381,-0.22883 -0.107676,-0.0608 -0.291883,-0.16509 -0.409348,-0.23175 -0.117464,-0.0666 -0.245608,-0.13878 -0.284763,-0.16029 -0.03915,-0.0215 -0.143272,-0.0803 -0.23137,-0.13067 -0.0881,-0.0504 -0.23493,-0.13323 -0.326292,-0.18415 -0.173429,-0.0967 -0.193245,-0.10788 -0.306578,-0.17328 l -0.06927,-0.04 -0.08268,-0.20171 c -0.114165,-0.27852 -0.266539,-0.65305 -0.386177,-0.94921 -0.05536,-0.13704 -0.107446,-0.26519 -0.115744,-0.28476 -0.0083,-0.0196 -0.02183,-0.0516 -0.03008,-0.0712 -0.01774,-0.0421 -0.200432,-0.49022 -0.379737,-0.93142 -0.07028,-0.17293 -0.165947,-0.40785 -0.212587,-0.52204 -0.04664,-0.11419 -0.08333,-0.21367 -0.08153,-0.22106 0.0019,-0.008 0.06654,0.0163 0.158242,0.0593 0.149311,0.0701 0.21955,0.10282 0.450149,0.20976 0.05873,0.0272 0.15751,0.0736 0.219505,0.10297 0.062,0.0294 0.140232,0.0659 0.173858,0.0811 0.03363,0.0152 0.105708,0.0487 0.16018,0.0744 0.05447,0.0257 0.139085,0.0654 0.188029,0.0881 0.134123,0.0623 0.610723,0.28462 0.711909,0.3321 0.04894,0.023 0.123694,0.0578 0.166112,0.0775 0.04242,0.0196 0.133186,0.0622 0.201707,0.0947 0.06852,0.0324 0.15395,0.0725 0.189842,0.089 0.03589,0.0165 0.123069,0.0573 0.193725,0.0906 0.07066,0.0333 0.131668,0.0606 0.135582,0.0606 0.0039,0 -0.07029,-0.0788 -0.164898,-0.17501 -0.09461,-0.0963 -0.326185,-0.33519 -0.514619,-0.53097 -0.188434,-0.19577 -0.405254,-0.42002 -0.481822,-0.49833 -0.07657,-0.0783 -0.15608,-0.16107 -0.176692,-0.18391 l -0.03748,-0.0415 0.007,-0.76429 c 0.0038,-0.42036 0.007,-1.14562 0.007,-1.61168 v -0.84739 l 0.09789,0.0683 c 0.05384,0.0375 0.298112,0.21057 0.542831,0.38451 0.244718,0.17394 0.613131,0.43564 0.818695,0.58155 0.205563,0.14591 0.46452,0.32988 0.575459,0.40881 0.110939,0.0789 0.264445,0.18801 0.341123,0.24239 0.137124,0.0972 0.139416,0.0996 0.139416,0.14501 0,0.0254 0.0032,0.0461 0.007,0.0461 0.0039,0 0.136025,-0.12455 0.293662,-0.27678 0.157637,-0.15222 0.652356,-0.62866 1.099376,-1.05875 0.447019,-0.4301 0.872574,-0.84009 0.945677,-0.91111 0.151416,-0.14709 0.134174,-0.15129 0.162977,0.0397 0.0219,0.14526 0.12181,0.79745 0.190844,1.24584 0.02964,0.19251 0.07219,0.47016 0.09455,0.61699 0.0877,0.57583 0.219252,1.43137 0.224702,1.46128 0.0045,0.0249 -0.01875,0.07 -0.110215,0.21357 -0.06378,0.10012 -0.207035,0.3262 -0.318347,0.5024 -0.378622,0.59933 -0.742627,1.17457 -0.761367,1.20319 -0.04598,0.0702 0.02093,0.006 0.161325,-0.15413 0.225495,-0.25769 1.142634,-1.29183 1.183697,-1.3347 l 0.0356,-0.0372 0.166112,0.009 c 0.165804,0.009 0.605817,0.0306 1.334829,0.0646 0.669219,0.0312 0.877853,0.0412 1.103459,0.0532 0.120728,0.006 0.2285,0.0117 0.239493,0.0117 0.02271,7e-5 0.03295,-0.0226 -0.339845,0.7535 -0.04702,0.0979 -0.22086,0.46363 -0.386317,0.81276 -0.165457,0.34913 -0.302154,0.63665 -0.303771,0.63894 -0.0032,0.004 -0.242863,0.0227 -1.268163,0.0968 -2.895696,0.20905 -2.617317,0.1861 -2.639741,0.21763 -0.01911,0.0269 -0.09758,0.15029 -0.442489,0.69593 -0.117566,0.18598 -0.26457,0.41824 -0.326674,0.51613 -0.06211,0.0979 -0.129855,0.20467 -0.150556,0.2373 -0.0207,0.0326 -0.07133,0.11272 -0.11251,0.17798 -0.04118,0.0653 -0.08939,0.14115 -0.107135,0.16864 l -0.03226,0.05 -0.0078,-0.29323 c -0.0085,-0.31878 -0.02536,-0.92057 -0.04233,-1.50839 l -0.01076,-0.37274 -0.164293,-0.16712 c -0.09036,-0.0919 -0.218891,-0.22375 -0.285622,-0.29295 -0.06673,-0.0692 -0.12133,-0.12153 -0.12133,-0.11627 0,0.005 0.0048,0.0352 0.01065,0.0665 0.01594,0.0852 0.09263,0.5569 0.121142,0.74512 0.0069,0.0457 0.01722,0.10709 0.02289,0.13645 0.0057,0.0294 0.01585,0.0908 0.02262,0.13645 0.0068,0.0457 0.02858,0.1845 0.04846,0.3085 0.01988,0.12399 0.04665,0.29217 0.05948,0.37375 0.02151,0.13672 0.02911,0.18364 0.05956,0.36782 0.01251,0.0756 0.07842,0.48669 0.09274,0.57842 0.0068,0.0433 0.0058,0.0621 -0.0033,0.0615 -0.0072,-4.2e-4 -0.05575,-0.0251 -0.107951,-0.0548 z m -0.0473,-0.15502 c -0.0046,-0.0179 -0.01832,-0.0887 -0.0305,-0.15721 -0.01219,-0.0685 -0.03323,-0.18332 -0.04678,-0.25511 -0.01354,-0.0718 -0.03529,-0.18924 -0.04834,-0.26103 -0.01304,-0.0718 -0.02886,-0.15855 -0.03515,-0.19281 -0.01257,-0.0685 -0.02909,-0.1592 -0.04644,-0.2551 -0.0062,-0.0343 -0.02782,-0.15039 -0.04806,-0.25806 -0.02023,-0.10768 -0.04156,-0.22248 -0.04741,-0.25511 -0.0235,-0.1313 -0.07348,-0.40207 -0.107313,-0.58139 -0.0197,-0.10441 -0.04202,-0.2234 -0.04959,-0.26442 -0.01551,-0.084 -0.01141,-0.0792 -0.116045,-0.13564 -0.227561,-0.12281 -0.284109,-0.15312 -0.504268,-0.2703 -0.04568,-0.0243 -0.157807,-0.0842 -0.249168,-0.13315 -0.09136,-0.0489 -0.214166,-0.11443 -0.272899,-0.14559 -0.05873,-0.0311 -0.112125,-0.0605 -0.118651,-0.0651 -0.0065,-0.005 -0.08662,-0.0474 -0.177977,-0.0949 -0.09136,-0.0476 -0.171452,-0.0903 -0.177977,-0.0951 -0.0065,-0.005 -0.06793,-0.038 -0.13645,-0.0739 -0.276641,-0.14502 -0.36351,-0.1911 -0.397482,-0.21084 -0.01958,-0.0114 -0.08632,-0.0475 -0.148314,-0.0803 -0.161879,-0.0857 -0.265508,-0.14135 -0.373752,-0.20077 -0.133346,-0.0732 -0.219408,-0.11457 -0.225539,-0.10843 -0.0029,0.003 0.05285,0.15175 0.123842,0.33083 0.331363,0.83588 0.392393,0.99132 0.392393,0.99942 0,0.005 0.01015,0.0313 0.02255,0.059 0.0124,0.0277 0.07479,0.18378 0.138647,0.34693 0.06386,0.16315 0.18052,0.45915 0.259252,0.65779 l 0.14315,0.36116 0.261033,0.15809 c 0.143569,0.0869 0.298409,0.18103 0.34409,0.20907 0.103675,0.0637 0.518096,0.31581 0.561269,0.34151 0.01759,0.0105 0.130765,0.0793 0.251493,0.15288 0.357103,0.21772 0.446913,0.27244 0.64665,0.39392 0.104414,0.0635 0.197096,0.11568 0.20596,0.11594 0.01174,3.4e-4 0.01385,-0.008 0.0078,-0.0322 z m 0.685532,-0.47449 c 0.109864,-0.20338 0.251239,-0.46254 0.409455,-0.75059 0.157867,-0.28741 0.228806,-0.42019 0.231381,-0.43308 0.0013,-0.007 -0.01231,-0.0108 -0.03026,-0.009 -0.03737,0.003 -0.04371,-0.0202 -0.01255,-0.0454 0.01729,-0.014 0.01877,-0.0138 0.01067,0.002 -0.0052,0.01 0.02304,-0.0169 0.0627,-0.0593 0.07718,-0.0826 0.133743,-0.17751 0.434662,-0.72971 0.09602,-0.1762 0.189285,-0.34706 0.207261,-0.37969 0.01798,-0.0326 0.06895,-0.12606 0.113279,-0.20764 0.04433,-0.0816 0.0911,-0.167 0.103937,-0.18984 0.01284,-0.0228 0.05672,-0.10293 0.09752,-0.17798 0.0408,-0.075 0.11925,-0.2192 0.174335,-0.32035 0.05508,-0.10115 0.187386,-0.34409 0.294004,-0.53987 0.106618,-0.19577 0.2224,-0.40654 0.257292,-0.46837 0.04942,-0.0876 0.06214,-0.12034 0.05756,-0.14831 -0.0032,-0.0198 -0.03261,-0.20142 -0.06528,-0.40372 -0.03267,-0.2023 -0.08068,-0.49863 -0.106681,-0.65852 -0.02601,-0.15988 -0.07408,-0.45621 -0.106822,-0.65851 -0.130257,-0.80471 -0.158207,-0.97315 -0.162289,-0.97801 -0.0023,-0.003 -0.05893,0.0479 -0.125747,0.1127 -0.192876,0.18697 -1.26861,1.24076 -1.574976,1.54285 -0.153357,0.15122 -0.304225,0.29837 -0.335262,0.32699 l -0.05643,0.0521 6.69e-4,2.66079 c 3.68e-4,1.46344 0.0051,2.65803 0.01061,2.65465 0.0055,-0.003 0.0554,-0.0903 0.110957,-0.19314 z m 1.082217,-1.34969 c 0.09357,-0.009 1.224341,-0.12311 1.89249,-0.19071 0.2904,-0.0294 0.717545,-0.0721 0.949212,-0.095 0.231667,-0.0229 0.476499,-0.0481 0.544071,-0.056 l 0.122858,-0.0144 0.06698,-0.14376 c 0.03684,-0.0791 0.08512,-0.18318 0.107285,-0.23137 0.02217,-0.0482 0.08002,-0.17304 0.128562,-0.27746 0.04854,-0.10441 0.09917,-0.21386 0.112498,-0.24323 0.04277,-0.0942 0.257287,-0.55741 0.350311,-0.7564 0.04957,-0.10604 0.08742,-0.19551 0.08411,-0.19883 -0.007,-0.007 -2.293689,0.0625 -2.366682,0.0719 -0.04624,0.006 -0.07043,0.0282 -0.41528,0.38156 -0.201397,0.20637 -0.669183,0.68515 -1.039523,1.06396 -0.370341,0.37881 -0.673347,0.69281 -0.673347,0.69776 0,0.005 0.01468,0.007 0.03263,0.004 0.01795,-0.003 0.06467,-0.008 0.10382,-0.012 z m -1.483932,-0.48359 c -0.0029,-0.0212 -0.02388,-0.28684 -0.04668,-0.59029 -0.0228,-0.30345 -0.05483,-0.72793 -0.0712,-0.94328 -0.01636,-0.21535 -0.05144,-0.67988 -0.07795,-1.03227 -0.02651,-0.3524 -0.05185,-0.68859 -0.05631,-0.74709 l -0.0081,-0.10638 -0.949211,-0.79177 -0.949212,-0.79177 -0.0078,0.0676 c -0.0043,0.0372 -0.01368,0.58816 -0.02091,1.22443 -0.0072,0.63627 -0.01622,1.21968 -0.01998,1.29647 l -0.0068,0.13962 0.03849,0.0443 c 0.02117,0.0244 0.140445,0.15101 0.265052,0.28144 0.124608,0.13042 0.341433,0.35734 0.481833,0.50426 0.140401,0.14692 0.361982,0.37933 0.492404,0.51647 0.63573,0.66846 0.923376,0.96684 0.932072,0.96684 0.0052,0 0.0072,-0.0174 0.0043,-0.0386 z"
         id="path887-4-3-5"
         inkscape:connector-curvature="0" />
      <path
         style="fill:#a6a7ab;stroke-width:0.01186515"
         d="m 80.38088,138.07877 c -0.515541,-0.015 -1.204313,-0.0358 -1.530604,-0.0461 -0.326292,-0.0103 -0.640112,-0.0195 -0.697378,-0.0204 -0.05727,-9e-4 -0.106735,-0.006 -0.109929,-0.011 -0.0032,-0.005 0.03565,-0.0653 0.08632,-0.13361 0.05067,-0.0683 0.142567,-0.19283 0.204213,-0.27671 0.06165,-0.0839 0.15731,-0.21391 0.212585,-0.28895 0.05528,-0.075 0.127997,-0.17383 0.161603,-0.21951 0.06533,-0.0888 0.139384,-0.18933 0.478556,-0.64961 0.04448,-0.0604 0.116568,-0.15857 0.160193,-0.21823 l 0.07932,-0.10848 0.204661,-0.007 c 0.24424,-0.008 3.227626,-0.0319 3.233827,-0.0258 0.0024,0.002 -0.03676,0.0622 -0.08696,0.13287 -0.120564,0.16983 -0.116828,0.16452 -0.302866,0.43113 -0.0888,0.12725 -0.232579,0.33282 -0.319519,0.45681 -0.08694,0.12399 -0.180402,0.25747 -0.207692,0.29663 -0.195784,0.2809 -0.390414,0.5587 -0.44057,0.62885 l -0.05939,0.0831 -0.06451,0.002 c -0.03548,9e-4 -0.48632,-0.0107 -1.00186,-0.0257 z m -1.678919,-0.21342 c 0.153357,-0.01 0.695298,-0.0417 1.204313,-0.0708 0.509014,-0.0292 1.000232,-0.0584 1.091593,-0.065 0.09136,-0.007 0.185319,-0.012 0.208794,-0.0121 0.03934,-9e-5 0.04921,-0.008 0.12617,-0.10392 0.04592,-0.0571 0.295163,-0.36812 0.553877,-0.69115 l 0.470389,-0.58732 -0.371121,-0.008 c -0.204117,-0.004 -0.832799,-0.01 -1.397073,-0.0119 l -1.025951,-0.004 -0.113103,0.14371 c -0.237516,0.3018 -0.498199,0.63194 -0.635169,0.80439 -0.07831,0.0986 -0.203362,0.25665 -0.277894,0.35122 -0.07453,0.0946 -0.153931,0.19465 -0.176441,0.22238 l -0.04093,0.0504 0.05186,-1.2e-4 c 0.02852,-6e-5 0.17733,-0.008 0.330687,-0.0179 z m -0.04876,-0.14513 c 0.01323,-0.0179 0.250043,-0.31828 0.526258,-0.66741 l 0.502209,-0.63479 1.019985,0.005 c 0.560992,0.003 1.093329,0.008 1.18297,0.0119 l 0.162983,0.007 -0.445721,0.55767 c -0.245146,0.30671 -0.457311,0.56943 -0.471477,0.58381 -0.02889,0.0293 -0.08612,0.0337 -1.443641,0.11035 -0.349132,0.0197 -0.709536,0.0411 -0.800898,0.0474 -0.09136,0.006 -0.186498,0.0117 -0.211414,0.0117 l -0.0453,1.1e-4 0.02405,-0.0326 z m -0.821912,-0.19028 c -0.0085,-0.31878 -0.02536,-0.92057 -0.04233,-1.50839 l -0.01076,-0.37274 -0.164293,-0.16712 c -0.09036,-0.0919 -0.217963,-0.22319 -0.28356,-0.29171 l -0.119266,-0.12458 -0.02025,-0.13642 c -0.01114,-0.075 -0.02675,-0.14227 -0.03469,-0.14942 -0.0079,-0.007 -0.107879,-0.0573 -0.222081,-0.11141 l -0.20764,-0.0984 -0.337896,-0.35137 c -0.185843,-0.19325 -0.474968,-0.49285 -0.642499,-0.66579 -0.167532,-0.17293 -0.321619,-0.33311 -0.342417,-0.35595 l -0.03781,-0.0415 0.007,-0.76429 c 0.0038,-0.42036 0.007,-1.14562 0.007,-1.61168 v -0.84739 l 0.09789,0.0683 c 0.05384,0.0375 0.298112,0.21057 0.542831,0.38451 0.244718,0.17394 0.613131,0.43564 0.818695,0.58155 0.205563,0.14591 0.46452,0.32988 0.575459,0.40881 0.110939,0.0789 0.264445,0.18801 0.341123,0.24239 0.137124,0.0972 0.139416,0.0996 0.139416,0.14501 0,0.0254 0.0032,0.0461 0.007,0.0461 0.0039,0 0.136025,-0.12455 0.293662,-0.27678 0.157637,-0.15222 0.652356,-0.62866 1.099376,-1.05875 0.447019,-0.4301 0.872574,-0.84009 0.945677,-0.91111 0.151416,-0.14709 0.134174,-0.15129 0.162977,0.0397 0.0219,0.14526 0.12181,0.79745 0.190844,1.24584 0.02964,0.19251 0.07219,0.47016 0.09455,0.61699 0.0877,0.57583 0.219252,1.43137 0.224702,1.46128 0.0045,0.0249 -0.01875,0.07 -0.110215,0.21357 -0.06378,0.10012 -0.207035,0.3262 -0.318347,0.5024 -0.378622,0.59933 -0.742627,1.17457 -0.761367,1.20319 -0.04598,0.0702 0.02093,0.006 0.161325,-0.15413 0.225495,-0.25769 1.142634,-1.29183 1.183697,-1.3347 l 0.0356,-0.0372 0.166112,0.009 c 0.165804,0.009 0.605817,0.0306 1.334829,0.0646 0.669219,0.0312 0.877853,0.0412 1.103459,0.0532 0.120728,0.006 0.2285,0.0117 0.239493,0.0117 0.02271,7e-5 0.03295,-0.0226 -0.339845,0.7535 -0.04702,0.0979 -0.22086,0.46363 -0.386317,0.81276 -0.165457,0.34913 -0.302154,0.63665 -0.303771,0.63894 -0.0032,0.004 -0.242863,0.0227 -1.268163,0.0968 -2.895696,0.20905 -2.617317,0.1861 -2.639741,0.21763 -0.01911,0.0269 -0.09758,0.15029 -0.442489,0.69593 -0.117566,0.18598 -0.26457,0.41824 -0.326674,0.51613 -0.06211,0.0979 -0.129855,0.20467 -0.150556,0.2373 -0.0207,0.0326 -0.07133,0.11272 -0.11251,0.17798 -0.04118,0.0653 -0.08939,0.14115 -0.107135,0.16864 l -0.03226,0.05 z m 0.340183,-0.36726 c 0.109864,-0.20338 0.251239,-0.46254 0.409455,-0.75059 0.157867,-0.28741 0.228806,-0.42019 0.231381,-0.43308 0.0013,-0.007 -0.01231,-0.0108 -0.03026,-0.009 -0.03737,0.003 -0.04371,-0.0202 -0.01255,-0.0454 0.01729,-0.014 0.01877,-0.0138 0.01067,0.002 -0.0052,0.01 0.02304,-0.0169 0.0627,-0.0593 0.07718,-0.0826 0.133743,-0.17751 0.434662,-0.72971 0.09602,-0.1762 0.189285,-0.34706 0.207261,-0.37969 0.01798,-0.0326 0.06895,-0.12606 0.113279,-0.20764 0.04433,-0.0816 0.0911,-0.167 0.103937,-0.18984 0.01284,-0.0228 0.05672,-0.10293 0.09752,-0.17798 0.0408,-0.075 0.11925,-0.2192 0.174335,-0.32035 0.05508,-0.10115 0.187386,-0.34409 0.294004,-0.53987 0.106618,-0.19577 0.2224,-0.40654 0.257292,-0.46837 0.04942,-0.0876 0.06214,-0.12034 0.05756,-0.14831 -0.0032,-0.0198 -0.03261,-0.20142 -0.06528,-0.40372 -0.03267,-0.2023 -0.08068,-0.49863 -0.106681,-0.65852 -0.02601,-0.15988 -0.07408,-0.45621 -0.106822,-0.65851 -0.130257,-0.80471 -0.158207,-0.97315 -0.162289,-0.97801 -0.0023,-0.003 -0.05893,0.0479 -0.125747,0.1127 -0.192876,0.18697 -1.26861,1.24076 -1.574976,1.54285 -0.153357,0.15122 -0.304225,0.29837 -0.335262,0.32699 l -0.05643,0.0521 6.69e-4,2.66079 c 3.68e-4,1.46344 0.0051,2.65803 0.01061,2.65465 0.0055,-0.003 0.0554,-0.0903 0.110957,-0.19314 z m 1.082217,-1.34969 c 0.09357,-0.009 1.224341,-0.12311 1.89249,-0.19071 0.2904,-0.0294 0.717545,-0.0721 0.949212,-0.095 0.231667,-0.0229 0.476499,-0.0481 0.544071,-0.056 l 0.122858,-0.0144 0.06698,-0.14376 c 0.03684,-0.0791 0.08512,-0.18318 0.107285,-0.23137 0.02217,-0.0482 0.08002,-0.17304 0.128562,-0.27746 0.04854,-0.10441 0.09917,-0.21386 0.112498,-0.24323 0.04277,-0.0942 0.257287,-0.55741 0.350311,-0.7564 0.04957,-0.10604 0.08742,-0.19551 0.08411,-0.19883 -0.007,-0.007 -2.293689,0.0625 -2.366682,0.0719 -0.04624,0.006 -0.07043,0.0282 -0.41528,0.38156 -0.201397,0.20637 -0.669183,0.68515 -1.039523,1.06396 -0.370341,0.37881 -0.673347,0.69281 -0.673347,0.69776 0,0.005 0.01468,0.007 0.03263,0.004 0.01795,-0.003 0.06467,-0.008 0.10382,-0.012 z m -1.483932,-0.48359 c -0.0029,-0.0212 -0.02388,-0.28684 -0.04668,-0.59029 -0.0228,-0.30345 -0.05483,-0.72793 -0.0712,-0.94328 -0.01636,-0.21535 -0.05144,-0.67988 -0.07795,-1.03227 -0.02651,-0.3524 -0.05185,-0.68859 -0.05631,-0.74709 l -0.0081,-0.10638 -0.949211,-0.79177 -0.949212,-0.79177 -0.0078,0.0676 c -0.0043,0.0372 -0.01368,0.58816 -0.02091,1.22443 -0.0072,0.63627 -0.01622,1.21968 -0.01998,1.29647 l -0.0068,0.13962 0.03849,0.0443 c 0.02117,0.0244 0.140445,0.15101 0.265052,0.28144 0.124608,0.13042 0.341433,0.35734 0.481833,0.50426 0.140401,0.14692 0.361982,0.37933 0.492404,0.51647 0.63573,0.66846 0.923376,0.96684 0.932072,0.96684 0.0052,0 0.0072,-0.0174 0.0043,-0.0386 z"
         id="path885-5-3-6"
         inkscape:connector-curvature="0" />
      <path
         style="fill:#0aace7;stroke-width:0.01186515"
         d="m 80.250363,138.06689 c -0.46986,-0.0148 -1.158632,-0.0359 -1.530604,-0.0469 -0.371972,-0.011 -0.676921,-0.0208 -0.677665,-0.0219 -7.44e-4,-0.001 0.06066,-0.0855 0.136449,-0.18764 0.07579,-0.10212 0.207212,-0.28013 0.292048,-0.39557 0.08484,-0.11544 0.227679,-0.30953 0.317429,-0.43131 0.08975,-0.12178 0.212282,-0.28816 0.272293,-0.36973 0.06001,-0.0816 0.169364,-0.22974 0.243005,-0.32926 l 0.133894,-0.18094 0.489632,-9.1e-4 c 0.269297,-5e-4 0.49764,-0.002 0.507429,-0.004 0.0098,-0.002 0.559056,-0.007 1.220595,-0.0122 l 1.202797,-0.009 -0.03959,0.0576 c -0.02178,0.0317 -0.183542,0.2632 -0.359479,0.51444 -0.567186,0.80997 -0.765609,1.09394 -0.888972,1.27223 l -0.120876,0.17469 -0.172045,-10e-4 c -0.09462,-6.8e-4 -0.556475,-0.0134 -1.026335,-0.0282 z m -1.334829,-0.20755 c 0.238193,-0.013 0.558552,-0.0316 0.711909,-0.0413 0.39926,-0.0253 1.528117,-0.0889 1.578174,-0.0889 0.04159,0 0.05089,-0.0108 0.604032,-0.70044 0.308984,-0.38525 0.559746,-0.70229 0.557249,-0.70453 -0.0025,-0.002 -0.404988,-0.007 -0.894425,-0.0115 -0.489437,-0.004 -1.117159,-0.0108 -1.394936,-0.0149 l -0.505051,-0.007 -0.223807,0.28338 c -0.123094,0.15586 -0.290931,0.36789 -0.37297,0.47119 -0.08204,0.10329 -0.17319,0.21894 -0.202557,0.25698 -0.02937,0.038 -0.141081,0.18046 -0.248255,0.31646 -0.107175,0.13601 -0.200185,0.25426 -0.206689,0.26279 -0.0096,0.0126 0.0049,0.0142 0.07621,0.009 0.04842,-0.004 0.282922,-0.0174 0.521115,-0.0305 z m -1.084114,-0.32735 c -0.01679,-0.61035 -0.03239,-1.16572 -0.0426,-1.5164 l -0.01068,-0.36683 -0.164268,-0.1671 c -0.09035,-0.0919 -0.217937,-0.22316 -0.283534,-0.29168 l -0.119266,-0.12458 -0.02025,-0.13642 c -0.01114,-0.075 -0.02675,-0.14227 -0.03469,-0.14942 -0.0079,-0.007 -0.107879,-0.0573 -0.222081,-0.11141 l -0.20764,-0.0984 -0.337896,-0.35137 c -0.185843,-0.19325 -0.474968,-0.49285 -0.642499,-0.66579 -0.167532,-0.17293 -0.321619,-0.33311 -0.342417,-0.35595 l -0.03781,-0.0415 0.007,-0.76429 c 0.0038,-0.42036 0.007,-1.14562 0.007,-1.61168 v -0.84739 l 0.09789,0.0683 c 0.05384,0.0375 0.298112,0.21057 0.542831,0.38451 0.244718,0.17394 0.613131,0.43564 0.818695,0.58155 0.205563,0.14591 0.46452,0.32988 0.575459,0.40881 0.110939,0.0789 0.264445,0.18801 0.341123,0.24239 0.137124,0.0972 0.139416,0.0996 0.139416,0.14501 0,0.0254 0.0032,0.0461 0.007,0.0461 0.0039,0 0.136025,-0.12455 0.293662,-0.27678 0.157637,-0.15222 0.652356,-0.62866 1.099376,-1.05875 0.447019,-0.4301 0.872574,-0.84009 0.945677,-0.91111 0.151416,-0.14709 0.134174,-0.15129 0.162977,0.0397 0.0219,0.14526 0.12181,0.79745 0.190844,1.24584 0.02964,0.19251 0.07219,0.47016 0.09455,0.61699 0.0877,0.57583 0.219252,1.43137 0.224702,1.46128 0.0045,0.0249 -0.01875,0.07 -0.110215,0.21357 -0.06378,0.10012 -0.207035,0.3262 -0.318347,0.5024 -0.518703,0.82107 -0.744607,1.17761 -0.767818,1.21185 -0.01915,0.0282 -0.271582,0.31979 -0.357221,0.41256 -0.0066,0.007 -0.09127,0.10272 -0.188177,0.2124 -0.09691,0.10968 -0.178672,0.19694 -0.181695,0.19392 -0.003,-0.003 0.01815,-0.0474 0.04705,-0.0986 0.0289,-0.0512 0.136428,-0.24702 0.23895,-0.43517 0.102521,-0.18816 0.198686,-0.36436 0.213699,-0.39155 0.01501,-0.0272 0.06356,-0.11619 0.107884,-0.19777 0.04432,-0.0816 0.09109,-0.167 0.103928,-0.18984 0.01284,-0.0228 0.05672,-0.10293 0.09752,-0.17798 0.0408,-0.075 0.11925,-0.2192 0.174335,-0.32035 0.05508,-0.10115 0.187386,-0.34409 0.294004,-0.53987 0.106618,-0.19577 0.2224,-0.40654 0.257292,-0.46837 0.04942,-0.0876 0.06214,-0.12034 0.05756,-0.14831 -0.0032,-0.0198 -0.03261,-0.20142 -0.06528,-0.40372 -0.03267,-0.2023 -0.08068,-0.49863 -0.106681,-0.65852 -0.02601,-0.15988 -0.07408,-0.45621 -0.106822,-0.65851 -0.130257,-0.80471 -0.158207,-0.97315 -0.162289,-0.97801 -0.0023,-0.003 -0.05893,0.0479 -0.125747,0.1127 -0.192876,0.18697 -1.26861,1.24076 -1.574976,1.54285 -0.153357,0.15122 -0.304225,0.29837 -0.335262,0.32699 l -0.05643,0.0521 6.69e-4,2.66079 c 3.68e-4,1.46344 0.0051,2.65803 0.01061,2.65465 0.0055,-0.003 0.0554,-0.0903 0.110957,-0.19314 0.107657,-0.19929 0.245339,-0.45172 0.40939,-0.75059 0.05552,-0.10115 0.13109,-0.23997 0.167927,-0.30849 0.06138,-0.11418 0.0704,-0.12526 0.107961,-0.13265 0.03014,-0.006 0.02286,-0.007 -0.02751,-0.005 -0.03767,0.002 -0.06704,-9.5e-4 -0.06526,-0.006 0.0018,-0.005 0.120703,-0.14068 0.264271,-0.30203 0.143568,-0.16136 0.282391,-0.31776 0.308494,-0.34757 0.05051,-0.0577 0.318569,-0.35947 0.381063,-0.42902 0.02052,-0.0228 0.100688,-0.11403 0.178147,-0.20264 0.210614,-0.24094 1.132146,-1.28015 1.173101,-1.32291 l 0.0356,-0.0372 0.166112,0.009 c 0.165804,0.009 0.605817,0.0306 1.334829,0.0646 0.669219,0.0312 0.877853,0.0412 1.103459,0.0532 0.120728,0.006 0.2285,0.0117 0.239493,0.0117 0.02271,7e-5 0.03295,-0.0226 -0.339845,0.7535 -0.04702,0.0979 -0.22086,0.46363 -0.386317,0.81276 -0.165457,0.34913 -0.302154,0.63665 -0.303771,0.63894 -0.0032,0.004 -0.242863,0.0227 -1.268163,0.0968 -2.22924,0.16094 -2.722007,0.19783 -2.672624,0.20013 0.01795,8.3e-4 0.03263,0.004 0.03263,0.008 0,0.004 -0.0447,0.077 -0.09932,0.16315 -0.05463,0.0861 -0.202291,0.31947 -0.328141,0.5185 -0.12585,0.19904 -0.290723,0.45929 -0.366385,0.57833 -0.16312,0.25664 -0.222101,0.35025 -0.286001,0.45394 -0.09848,0.1598 -0.09034,0.17209 -0.09919,-0.14967 z m 1.422271,-1.719 c 0.09357,-0.009 1.224341,-0.12311 1.89249,-0.19071 0.2904,-0.0294 0.717545,-0.0721 0.949212,-0.095 0.231667,-0.0229 0.476499,-0.0481 0.544071,-0.056 l 0.122858,-0.0144 0.06698,-0.14376 c 0.03684,-0.0791 0.08512,-0.18318 0.107285,-0.23137 0.02217,-0.0482 0.08002,-0.17304 0.128562,-0.27746 0.04854,-0.10441 0.09917,-0.21386 0.112498,-0.24323 0.04277,-0.0942 0.257287,-0.55741 0.350311,-0.7564 0.04957,-0.10604 0.08742,-0.19551 0.08411,-0.19883 -0.007,-0.007 -2.293689,0.0625 -2.366682,0.0719 -0.04624,0.006 -0.07043,0.0282 -0.41528,0.38156 -0.201397,0.20637 -0.669183,0.68515 -1.039523,1.06396 -0.370341,0.37881 -0.673347,0.69281 -0.673347,0.69776 0,0.005 0.01468,0.007 0.03263,0.004 0.01795,-0.003 0.06467,-0.008 0.10382,-0.012 z m -1.483932,-0.48359 c -0.0029,-0.0212 -0.02388,-0.28684 -0.04668,-0.59029 -0.0228,-0.30345 -0.05483,-0.72793 -0.0712,-0.94328 -0.01636,-0.21535 -0.05144,-0.67988 -0.07795,-1.03227 -0.02651,-0.3524 -0.05185,-0.68859 -0.05631,-0.74709 l -0.0081,-0.10638 -0.949211,-0.79177 -0.949212,-0.79177 -0.0078,0.0676 c -0.0043,0.0372 -0.01368,0.58816 -0.02091,1.22443 -0.0072,0.63627 -0.01622,1.21968 -0.01998,1.29647 l -0.0068,0.13962 0.03849,0.0443 c 0.02117,0.0244 0.140445,0.15101 0.265052,0.28144 0.124608,0.13042 0.341433,0.35734 0.481833,0.50426 0.140401,0.14692 0.361982,0.37933 0.492404,0.51647 0.63573,0.66846 0.923376,0.96684 0.932072,0.96684 0.0052,0 0.0072,-0.0174 0.0043,-0.0386 z"
         id="path883-1-3-2"
         inkscape:connector-curvature="0" />
      <path
         style="fill:#e71e27;stroke-width:0.01186515"
         d="m 80.250363,138.06689 c -0.46986,-0.0148 -1.158632,-0.0359 -1.530604,-0.0469 -0.371972,-0.011 -0.676921,-0.0208 -0.677665,-0.0219 -7.44e-4,-0.001 0.06066,-0.0855 0.136449,-0.18764 0.07579,-0.10212 0.207212,-0.28013 0.292048,-0.39557 0.08484,-0.11544 0.227679,-0.30953 0.317429,-0.43131 0.08975,-0.12178 0.212282,-0.28816 0.272293,-0.36973 0.06001,-0.0816 0.169364,-0.22974 0.243005,-0.32926 l 0.133894,-0.18094 0.489632,-9.1e-4 c 0.269297,-5e-4 0.49764,-0.002 0.507429,-0.004 0.0098,-0.002 0.559056,-0.007 1.220595,-0.0122 l 1.202797,-0.009 -0.03959,0.0576 c -0.02178,0.0317 -0.183542,0.2632 -0.359479,0.51444 -0.567186,0.80997 -0.765609,1.09394 -0.888972,1.27223 l -0.120876,0.17469 -0.172045,-10e-4 c -0.09462,-6.8e-4 -0.556475,-0.0134 -1.026335,-0.0282 z m -1.334829,-0.20755 c 0.238193,-0.013 0.558552,-0.0316 0.711909,-0.0413 0.39926,-0.0253 1.528117,-0.0889 1.578174,-0.0889 0.04159,0 0.05089,-0.0108 0.604032,-0.70044 0.308984,-0.38525 0.559746,-0.70229 0.557249,-0.70453 -0.0025,-0.002 -0.404988,-0.007 -0.894425,-0.0115 -0.489437,-0.004 -1.117159,-0.0108 -1.394936,-0.0149 l -0.505051,-0.007 -0.223807,0.28338 c -0.123094,0.15586 -0.290931,0.36789 -0.37297,0.47119 -0.08204,0.10329 -0.17319,0.21894 -0.202557,0.25698 -0.02937,0.038 -0.141081,0.18046 -0.248255,0.31646 -0.107175,0.13601 -0.200185,0.25426 -0.206689,0.26279 -0.0096,0.0126 0.0049,0.0142 0.07621,0.009 0.04842,-0.004 0.282922,-0.0174 0.521115,-0.0305 z m -0.151688,-1.89882 c 0.0019,-0.005 0.120839,-0.14109 0.264407,-0.30244 0.143568,-0.16136 0.28239,-0.31776 0.308494,-0.34757 0.05051,-0.0577 0.318568,-0.35947 0.381063,-0.42902 0.02052,-0.0228 0.100688,-0.11403 0.178147,-0.20264 0.210614,-0.24094 1.132146,-1.28015 1.173101,-1.32291 l 0.0356,-0.0372 0.166112,0.009 c 0.165804,0.009 0.605817,0.0306 1.334829,0.0646 0.669219,0.0312 0.877853,0.0412 1.103459,0.0532 0.120728,0.006 0.2285,0.0117 0.239493,0.0117 0.02271,7e-5 0.03295,-0.0226 -0.339845,0.7535 -0.04702,0.0979 -0.22086,0.46363 -0.386317,0.81276 -0.165457,0.34913 -0.302154,0.63665 -0.303771,0.63894 -0.0032,0.004 -0.242863,0.0227 -1.268163,0.0968 -0.358921,0.0259 -1.020996,0.0739 -1.471278,0.10656 -0.450282,0.0327 -0.930821,0.0674 -1.067863,0.0771 -0.137042,0.01 -0.272043,0.0196 -0.300002,0.022 -0.02796,0.002 -0.04932,2.3e-4 -0.04746,-0.005 z m 0.489845,-0.14753 c 0.09357,-0.009 1.224341,-0.12311 1.89249,-0.19071 0.2904,-0.0294 0.717545,-0.0721 0.949212,-0.095 0.231667,-0.0229 0.476499,-0.0481 0.544071,-0.056 l 0.122858,-0.0144 0.06698,-0.14376 c 0.03684,-0.0791 0.08512,-0.18318 0.107285,-0.23137 0.02217,-0.0482 0.08002,-0.17304 0.128562,-0.27746 0.04854,-0.10441 0.09917,-0.21386 0.112498,-0.24323 0.04277,-0.0942 0.257287,-0.55741 0.350311,-0.7564 0.04957,-0.10604 0.08742,-0.19551 0.08411,-0.19883 -0.007,-0.007 -2.293689,0.0625 -2.366682,0.0719 -0.04624,0.006 -0.07043,0.0282 -0.41528,0.38156 -0.201397,0.20637 -0.669183,0.68515 -1.039523,1.06396 -0.370341,0.37881 -0.673347,0.69281 -0.673347,0.69776 0,0.005 0.01468,0.007 0.03263,0.004 0.01795,-0.003 0.06467,-0.008 0.10382,-0.012 z m -1.32945,-0.003 c -0.07123,-0.0766 -0.207032,-0.2193 -0.301781,-0.31719 -0.09475,-0.0979 -0.226071,-0.23405 -0.291826,-0.30256 l -0.119555,-0.12458 -0.02025,-0.13642 c -0.01114,-0.075 -0.02675,-0.14227 -0.03469,-0.14942 -0.0079,-0.007 -0.107879,-0.0573 -0.222081,-0.11141 l -0.20764,-0.0984 -0.337896,-0.35137 c -0.185843,-0.19325 -0.474968,-0.49285 -0.642499,-0.66579 -0.167532,-0.17293 -0.321619,-0.33311 -0.342417,-0.35595 l -0.03781,-0.0415 0.007,-0.76429 c 0.0038,-0.42036 0.007,-1.14562 0.007,-1.61168 v -0.84739 l 0.09789,0.0683 c 0.05384,0.0375 0.298112,0.21057 0.542831,0.38451 0.244718,0.17394 0.613131,0.43564 0.818695,0.58155 0.205563,0.14591 0.46452,0.32988 0.575459,0.40881 0.110939,0.0789 0.264445,0.18801 0.341123,0.24239 l 0.139416,0.0989 -9.5e-5,0.0669 c -4.8e-5,0.0368 0.0052,0.17102 0.01174,0.29827 0.0065,0.12726 0.01723,0.36352 0.02383,0.52504 0.02309,0.56565 0.03622,0.88326 0.0477,1.15388 0.0064,0.1501 0.01696,0.40638 0.02353,0.56953 0.0066,0.16314 0.0175,0.3954 0.02428,0.51613 0.01365,0.24314 0.03817,1.09251 0.03172,1.09896 -0.0022,0.002 -0.06237,-0.0586 -0.133599,-0.13512 z m -0.154482,-0.48033 c -0.0029,-0.0212 -0.02388,-0.28684 -0.04668,-0.59029 -0.0228,-0.30345 -0.05483,-0.72793 -0.0712,-0.94328 -0.01636,-0.21535 -0.05144,-0.67988 -0.07795,-1.03227 -0.02651,-0.3524 -0.05185,-0.68859 -0.05631,-0.74709 l -0.0081,-0.10638 -0.949211,-0.79177 -0.949212,-0.79177 -0.0078,0.0676 c -0.0043,0.0372 -0.01368,0.58816 -0.02091,1.22443 -0.0072,0.63627 -0.01622,1.21968 -0.01998,1.29647 l -0.0068,0.13962 0.03849,0.0443 c 0.02117,0.0244 0.140445,0.15101 0.265052,0.28144 0.124608,0.13042 0.341433,0.35734 0.481833,0.50426 0.140401,0.14692 0.361982,0.37933 0.492404,0.51647 0.63573,0.66846 0.923376,0.96684 0.932072,0.96684 0.0052,0 0.0072,-0.0174 0.0043,-0.0386 z"
         id="path881-7-7-9"
         inkscape:connector-curvature="0" />
      <path
         style="fill:#02a351;stroke-width:0.01186515"
         d="m 80.250363,138.06689 c -0.46986,-0.0148 -1.158632,-0.0359 -1.530604,-0.0469 -0.371972,-0.011 -0.676921,-0.0208 -0.677665,-0.0219 -7.44e-4,-0.001 0.06066,-0.0855 0.136449,-0.18764 0.07579,-0.10212 0.207212,-0.28013 0.292048,-0.39557 0.08484,-0.11544 0.227679,-0.30953 0.317429,-0.43131 0.08975,-0.12178 0.212282,-0.28816 0.272293,-0.36973 0.06001,-0.0816 0.169364,-0.22974 0.243005,-0.32926 l 0.133894,-0.18094 0.489632,-9.1e-4 c 0.269297,-5e-4 0.49764,-0.002 0.507429,-0.004 0.0098,-0.002 0.559056,-0.007 1.220595,-0.0122 l 1.202797,-0.009 -0.03959,0.0576 c -0.02178,0.0317 -0.183542,0.2632 -0.359479,0.51444 -0.567186,0.80997 -0.765609,1.09394 -0.888972,1.27223 l -0.120876,0.17469 -0.172045,-10e-4 c -0.09462,-6.8e-4 -0.556475,-0.0134 -1.026335,-0.0282 z m -1.334829,-0.20755 c 0.238193,-0.013 0.558552,-0.0316 0.711909,-0.0413 0.39926,-0.0253 1.528117,-0.0889 1.578174,-0.0889 0.04159,0 0.05089,-0.0108 0.604032,-0.70044 0.308984,-0.38525 0.559746,-0.70229 0.557249,-0.70453 -0.0025,-0.002 -0.404988,-0.007 -0.894425,-0.0115 -0.489437,-0.004 -1.117159,-0.0108 -1.394936,-0.0149 l -0.505051,-0.007 -0.223807,0.28338 c -0.123094,0.15586 -0.290931,0.36789 -0.37297,0.47119 -0.08204,0.10329 -0.17319,0.21894 -0.202557,0.25698 -0.02937,0.038 -0.141081,0.18046 -0.248255,0.31646 -0.107175,0.13601 -0.200185,0.25426 -0.206689,0.26279 -0.0096,0.0126 0.0049,0.0142 0.07621,0.009 0.04842,-0.004 0.282922,-0.0174 0.521115,-0.0305 z m -0.991293,-2.04961 c -0.07123,-0.0766 -0.207032,-0.2193 -0.301781,-0.31719 -0.09475,-0.0979 -0.226071,-0.23405 -0.291826,-0.30256 l -0.119555,-0.12458 -0.02025,-0.13642 c -0.01114,-0.075 -0.02675,-0.14227 -0.03469,-0.14942 -0.0079,-0.007 -0.107879,-0.0573 -0.222081,-0.11141 l -0.20764,-0.0984 -0.337896,-0.35137 c -0.185843,-0.19325 -0.474968,-0.49285 -0.642499,-0.66579 -0.167532,-0.17293 -0.321619,-0.33311 -0.342417,-0.35595 l -0.03781,-0.0415 0.007,-0.76429 c 0.0038,-0.42036 0.007,-1.14562 0.007,-1.61168 v -0.84739 l 0.09789,0.0683 c 0.05384,0.0375 0.298112,0.21057 0.542831,0.38451 0.244718,0.17394 0.613131,0.43564 0.818695,0.58155 0.205563,0.14591 0.46452,0.32988 0.575459,0.40881 0.110939,0.0789 0.264445,0.18801 0.341123,0.24239 l 0.139416,0.0989 -9.5e-5,0.0669 c -4.8e-5,0.0368 0.0052,0.17102 0.01174,0.29827 0.0065,0.12726 0.01723,0.36352 0.02383,0.52504 0.02309,0.56565 0.03622,0.88326 0.0477,1.15388 0.0064,0.1501 0.01696,0.40638 0.02353,0.56953 0.0066,0.16314 0.0175,0.3954 0.02428,0.51613 0.01365,0.24314 0.03817,1.09251 0.03172,1.09896 -0.0022,0.002 -0.06237,-0.0586 -0.133599,-0.13512 z m -0.154482,-0.48033 c -0.0029,-0.0212 -0.02388,-0.28684 -0.04668,-0.59029 -0.0228,-0.30345 -0.05483,-0.72793 -0.0712,-0.94328 -0.01636,-0.21535 -0.05144,-0.67988 -0.07795,-1.03227 -0.02651,-0.3524 -0.05185,-0.68859 -0.05631,-0.74709 l -0.0081,-0.10638 -0.949211,-0.79177 -0.949212,-0.79177 -0.0078,0.0676 c -0.0043,0.0372 -0.01368,0.58816 -0.02091,1.22443 -0.0072,0.63627 -0.01622,1.21968 -0.01998,1.29647 l -0.0068,0.13962 0.03849,0.0443 c 0.02117,0.0244 0.140445,0.15101 0.265052,0.28144 0.124608,0.13042 0.341433,0.35734 0.481833,0.50426 0.140401,0.14692 0.361982,0.37933 0.492404,0.51647 0.63573,0.66846 0.923376,0.96684 0.932072,0.96684 0.0052,0 0.0072,-0.0174 0.0043,-0.0386 z"
         id="path879-5-9-1"
         inkscape:connector-curvature="0" />
      <path
         style="fill:#232021;stroke-width:0.01186515"
         d="m 80.250363,138.06689 c -0.46986,-0.0148 -1.158632,-0.0359 -1.530604,-0.0469 -0.371972,-0.011 -0.676921,-0.0208 -0.677665,-0.0219 -7.44e-4,-0.001 0.06066,-0.0855 0.136449,-0.18764 0.07579,-0.10212 0.207212,-0.28013 0.292048,-0.39557 0.08484,-0.11544 0.227679,-0.30953 0.317429,-0.43131 0.08975,-0.12178 0.212282,-0.28816 0.272293,-0.36973 0.06001,-0.0816 0.169364,-0.22974 0.243005,-0.32926 l 0.133894,-0.18094 0.489632,-9.1e-4 c 0.269297,-5e-4 0.49764,-0.002 0.507429,-0.004 0.0098,-0.002 0.559056,-0.007 1.220595,-0.0122 l 1.202797,-0.009 -0.03959,0.0576 c -0.02178,0.0317 -0.183542,0.2632 -0.359479,0.51444 -0.567186,0.80997 -0.765609,1.09394 -0.888972,1.27223 l -0.120876,0.17469 -0.172045,-10e-4 c -0.09462,-6.8e-4 -0.556475,-0.0134 -1.026335,-0.0282 z m -1.334829,-0.20755 c 0.238193,-0.013 0.558552,-0.0316 0.711909,-0.0413 0.39926,-0.0253 1.528117,-0.0889 1.578174,-0.0889 0.04159,0 0.05089,-0.0108 0.604032,-0.70044 0.308984,-0.38525 0.559746,-0.70229 0.557249,-0.70453 -0.0025,-0.002 -0.404988,-0.007 -0.894425,-0.0115 -0.489437,-0.004 -1.117159,-0.0108 -1.394936,-0.0149 l -0.505051,-0.007 -0.223807,0.28338 c -0.123094,0.15586 -0.290931,0.36789 -0.37297,0.47119 -0.08204,0.10329 -0.17319,0.21894 -0.202557,0.25698 -0.02937,0.038 -0.141081,0.18046 -0.248255,0.31646 -0.107175,0.13601 -0.200185,0.25426 -0.206689,0.26279 -0.0096,0.0126 0.0049,0.0142 0.07621,0.009 0.04842,-0.004 0.282922,-0.0174 0.521115,-0.0305 z"
         id="path877-7-8-2"
         inkscape:connector-curvature="0" />
    </g>
    <text
       xml:space="preserve"
       style="font-style:normal;font-weight:normal;font-size:27.55212402px;line-height:1;font-family:sans-serif;text-align:center;letter-spacing:0px;word-spacing:0px;text-anchor:middle;fill:#3a8274;fill-opacity:1;stroke:none;stroke-width:0.68880308"
       x="141.58669"
       y="247.41713"
       id="text948-0"><tspan
         id="tspan1959-6"
         sodipodi:role="line"
         x="141.58669"
         y="247.41713"
         style="font-style:normal;font-variant:normal;font-weight:normal;font-stretch:normal;line-height:1;font-family:'Abyssinica SIL';-inkscape-font-specification:'Abyssinica SIL';text-align:center;text-anchor:middle;fill:#3a8274;fill-opacity:1;stroke-width:0.68880308">POTI</tspan><tspan
         sodipodi:role="line"
         x="141.58669"
         y="277.29666"
         style="font-style:normal;font-variant:normal;font-weight:normal;font-stretch:normal;line-height:1;font-family:'Abyssinica SIL';-inkscape-font-specification:'Abyssinica SIL';text-align:center;text-anchor:middle;fill:#3a8274;fill-opacity:1;stroke-width:0.68880308"
         id="tspan1180">PTOM</tspan></text>
  </g>
</svg>
