<?xml version="1.0" encoding="UTF-8" standalone="no"?>
<!-- Created with Inkscape (http://www.inkscape.org/) -->

<svg
   version="1.1"
   id="svg9666"
   width="297.79147"
   height="124.77708"
   viewBox="0 0 297.79147 124.77708"
   sodipodi:docname="art_03.svg"
   xml:space="preserve"
   inkscape:version="1.2.2 (b0a8486541, 2022-12-01)"
   xmlns:inkscape="http://www.inkscape.org/namespaces/inkscape"
   xmlns:sodipodi="http://sodipodi.sourceforge.net/DTD/sodipodi-0.dtd"
   xmlns="http://www.w3.org/2000/svg"
   xmlns:svg="http://www.w3.org/2000/svg"><defs
     id="defs9670"><clipPath
       clipPathUnits="userSpaceOnUse"
       id="clipPath9712"><path
         d="M 0.418,82.879 H 63.859 V 93.582 H 0.418 Z"
         id="path9710" /></clipPath><clipPath
       clipPathUnits="userSpaceOnUse"
       id="clipPath9722"><path
         d="M 0,0 H 224 V 94 H 0 Z"
         id="path9720" /></clipPath><clipPath
       clipPathUnits="userSpaceOnUse"
       id="clipPath9750"><path
         d="m 56.125,85.973 h 14.863 v 7.609 H 56.125 Z"
         id="path9748" /></clipPath><clipPath
       clipPathUnits="userSpaceOnUse"
       id="clipPath9760"><path
         d="M 0,0 H 224 V 94 H 0 Z"
         id="path9758" /></clipPath><clipPath
       clipPathUnits="userSpaceOnUse"
       id="clipPath9774"><path
         d="m 126.68,82.879 h 78.918 V 93.582 H 126.68 Z"
         id="path9772" /></clipPath><clipPath
       clipPathUnits="userSpaceOnUse"
       id="clipPath9784"><path
         d="M 0,0 H 224 V 94 H 0 Z"
         id="path9782" /></clipPath><clipPath
       clipPathUnits="userSpaceOnUse"
       id="clipPath9816"><path
         d="m 199.41,85.973 h 13.902 v 7.609 H 199.41 Z"
         id="path9814" /></clipPath><clipPath
       clipPathUnits="userSpaceOnUse"
       id="clipPath9826"><path
         d="M 0,0 H 224 V 94 H 0 Z"
         id="path9824" /></clipPath></defs><sodipodi:namedview
     id="namedview9668"
     pagecolor="#ffffff"
     bordercolor="#666666"
     borderopacity="1.0"
     inkscape:showpageshadow="2"
     inkscape:pageopacity="0.0"
     inkscape:pagecheckerboard="0"
     inkscape:deskcolor="#d1d1d1"
     showgrid="false"
     inkscape:zoom="3.6472367"
     inkscape:cx="164.6452"
     inkscape:cy="42.497927"
     inkscape:window-width="2560"
     inkscape:window-height="1374"
     inkscape:window-x="0"
     inkscape:window-y="0"
     inkscape:window-maximized="1"
     inkscape:current-layer="g9674"><inkscape:page
       x="0"
       y="0"
       id="page9672"
       width="297.79147"
       height="124.77708" /></sodipodi:namedview><g
     id="g9674"
     inkscape:groupmode="layer"
     inkscape:label="Page 1"
     transform="matrix(1.3333333,0,0,1.3333333,0,3.119427e-6)"><g
       id="g9676"
       style="fill:#d0caaa;fill-opacity:1"><g
         id="g9678"
         transform="scale(-1)"
         style="fill:#d0caaa;fill-opacity:1"><path
           d="M -0.75,-35.699 H -35.699 V -70.644 H -0.75 Z"
           style="fill:#d0caaa;fill-opacity:1;fill-rule:nonzero;stroke:#000000;stroke-width:1.5;stroke-linecap:round;stroke-linejoin:miter;stroke-miterlimit:4;stroke-dasharray:none;stroke-opacity:1"
           id="path9680" /></g><g
         id="g9682"
         transform="scale(-1)"
         style="fill:#d0caaa;fill-opacity:1"><path
           d="m -35.699,-35.699 h -34.945 v -34.945 h 34.945 z"
           style="fill:#d0caaa;fill-opacity:1;fill-rule:nonzero;stroke:#000000;stroke-width:1.5;stroke-linecap:round;stroke-linejoin:miter;stroke-miterlimit:4;stroke-dasharray:none;stroke-opacity:1"
           id="path9684" /></g><g
         id="g9686"
         transform="scale(-1)"
         style="fill:#d0caaa;fill-opacity:1"><path
           d="M -0.75,-0.75 H -35.699 V -35.699 H -0.75 Z"
           style="fill:#d0caaa;fill-opacity:1;fill-rule:nonzero;stroke:#000000;stroke-width:1.5;stroke-linecap:round;stroke-linejoin:miter;stroke-miterlimit:4;stroke-dasharray:none;stroke-opacity:1"
           id="path9688" /></g><g
         id="g9690"
         transform="scale(-1)"
         style="fill:#d0caaa;fill-opacity:1"><path
           d="m -152.699,-35.699 h -34.945 v -34.945 h 34.945 z"
           style="fill:#d0caaa;fill-opacity:1;fill-rule:nonzero;stroke:#000000;stroke-width:1.5;stroke-linecap:round;stroke-linejoin:miter;stroke-miterlimit:4;stroke-dasharray:none;stroke-opacity:1"
           id="path9692" /></g><g
         id="g9694"
         transform="scale(-1)"
         style="fill:#d0caaa;fill-opacity:1"><path
           d="m -187.645,-35.699 h -34.949 v -34.945 h 34.949 z"
           style="fill:#d0caaa;fill-opacity:1;fill-rule:nonzero;stroke:#000000;stroke-width:1.5;stroke-linecap:round;stroke-linejoin:miter;stroke-miterlimit:4;stroke-dasharray:none;stroke-opacity:1"
           id="path9696" /></g><g
         id="g9698"
         transform="scale(-1)"
         style="fill:#d0caaa;fill-opacity:1"><path
           d="m -152.699,-0.75 h -34.945 v -34.949 h 34.945 z"
           style="fill:#d0caaa;fill-opacity:1;fill-rule:nonzero;stroke:#000000;stroke-width:1.5;stroke-linecap:round;stroke-linejoin:miter;stroke-miterlimit:4;stroke-dasharray:none;stroke-opacity:1"
           id="path9700" /></g><g
         id="g9702"
         transform="scale(-1)"
         style="fill:#d0caaa;fill-opacity:1"><path
           d="m -117.75,-0.75 h -34.949 v -34.949 h 34.949 z"
           style="fill:#d0caaa;fill-opacity:1;fill-rule:nonzero;stroke:#000000;stroke-width:1.5;stroke-linecap:round;stroke-linejoin:miter;stroke-miterlimit:4;stroke-dasharray:none;stroke-opacity:1"
           id="path9704" /></g></g><g
       id="g9706"
       transform="translate(0,-1.5)"><g
         id="g9708"
         clip-path="url(#clipPath9712)"><g
           id="g9714"><g
             id="g9716"><g
               id="g9718"
               clip-path="url(#clipPath9722)"><g
                 id="g9724"><path
                   d="M 9.387,89.594 H 9 c -0.168,1.57 -0.387,3.504 -3.094,3.504 H 4.648 c -0.726,0 -0.75,-0.094 -0.75,-0.602 v -8.223 c 0,-0.531 0,-0.75 1.454,-0.75 h 0.503 v -0.48 C 5.301,83.09 3.898,83.09 3.27,83.09 c -0.606,0 -1.813,0 -2.344,-0.047 v 0.48 h 0.363 c 1.184,0 1.231,0.172 1.231,0.727 v 8.125 c 0,0.555 -0.047,0.723 -1.231,0.723 H 0.926 v 0.484 h 8.027 z"
                   style="fill:#000000;fill-opacity:1;fill-rule:nonzero;stroke:none"
                   id="path9726" /><path
                   d="m 10.223,89.812 h 4.086 v 0.895 h -4.086 z"
                   style="fill:#000000;fill-opacity:1;fill-rule:nonzero;stroke:none"
                   id="path9728" /><path
                   d="m 17.852,87.418 h 2.222 v -0.484 h -2.222 v -2.829 h -0.387 c 0,1.258 -0.461,2.903 -1.985,2.973 v 0.34 h 1.305 v 4.254 c 0,1.887 1.453,2.082 2.008,2.082 1.09,0 1.523,-1.09 1.523,-2.082 V 90.801 H 19.93 v 0.847 c 0,1.137 -0.461,1.719 -1.039,1.719 -1.039,0 -1.039,-1.402 -1.039,-1.672 z"
                   style="fill:#000000;fill-opacity:1;fill-rule:nonzero;stroke:none"
                   id="path9730" /><path
                   d="m 23.773,88.457 v -1.691 l -2.152,0.168 v 0.484 c 1.09,0 1.211,0.098 1.211,0.871 v 4.133 c 0,0.676 -0.172,0.676 -1.211,0.676 v 0.484 c 0.606,-0.023 1.328,-0.047 1.766,-0.047 0.605,0 1.328,0 1.957,0.047 v -0.484 h -0.336 c -1.137,0 -1.164,-0.168 -1.164,-0.723 v -2.371 c 0,-1.524 0.656,-2.902 1.816,-2.902 0.094,0 0.145,0 0.168,0.027 -0.047,0 -0.363,0.191 -0.363,0.601 0,0.415 0.34,0.653 0.68,0.653 0.265,0 0.652,-0.192 0.652,-0.676 0,-0.484 -0.485,-0.941 -1.137,-0.941 -1.137,0 -1.695,1.039 -1.887,1.691 z"
                   style="fill:#000000;fill-opacity:1;fill-rule:nonzero;stroke:none"
                   id="path9732" /><path
                   d="m 29.957,86.766 -2.152,0.168 v 0.484 c 0.992,0 1.136,0.098 1.136,0.844 v 4.16 c 0,0.676 -0.168,0.676 -1.211,0.676 v 0.484 c 0.485,-0.023 1.332,-0.047 1.696,-0.047 0.554,0 1.086,0.024 1.617,0.047 v -0.484 c -1.039,0 -1.086,-0.071 -1.086,-0.676 z m 0.047,-2.684 c 0,-0.484 -0.363,-0.824 -0.797,-0.824 -0.484,0 -0.82,0.41 -0.82,0.824 0,0.41 0.336,0.82 0.82,0.82 0.434,0 0.797,-0.34 0.797,-0.82 z"
                   style="fill:#000000;fill-opacity:1;fill-rule:nonzero;stroke:none"
                   id="path9734" /><path
                   d="m 33.199,88.289 v 4.133 c 0,0.676 -0.168,0.676 -1.207,0.676 v 0.484 c 0.555,-0.023 1.328,-0.047 1.762,-0.047 0.391,0 1.187,0.024 1.719,0.047 v -0.484 c -1.039,0 -1.211,0 -1.211,-0.676 V 89.57 c 0,-1.597 1.113,-2.468 2.082,-2.468 0.992,0 1.16,0.824 1.16,1.718 v 3.602 c 0,0.676 -0.168,0.676 -1.211,0.676 v 0.484 c 0.535,-0.023 1.332,-0.047 1.742,-0.047 0.387,0 1.211,0.024 1.719,0.047 v -0.484 c -1.016,0 -1.188,0 -1.188,-0.676 V 89.57 c 0,-1.597 1.09,-2.468 2.082,-2.468 0.965,0 1.133,0.824 1.133,1.718 v 3.602 c 0,0.676 -0.168,0.676 -1.207,0.676 v 0.484 c 0.531,-0.023 1.328,-0.047 1.742,-0.047 0.411,0 1.207,0.024 1.739,0.047 v -0.484 c -0.797,0 -1.184,0 -1.207,-0.457 v -2.95 c 0,-1.332 0,-1.789 -0.485,-2.347 -0.218,-0.266 -0.726,-0.578 -1.621,-0.578 -1.281,0 -1.98,0.918 -2.222,1.523 -0.219,-1.355 -1.356,-1.523 -2.055,-1.523 -1.137,0 -1.863,0.652 -2.297,1.617 v -1.617 l -2.176,0.168 v 0.484 c 1.086,0 1.207,0.098 1.207,0.871 z"
                   style="fill:#000000;fill-opacity:1;fill-rule:nonzero;stroke:none"
                   id="path9736" /><path
                   d="m 47.086,86.766 -2.152,0.168 v 0.484 c 0.992,0 1.136,0.098 1.136,0.844 v 4.16 c 0,0.676 -0.168,0.676 -1.207,0.676 v 0.484 c 0.481,-0.023 1.328,-0.047 1.692,-0.047 0.554,0 1.086,0.024 1.617,0.047 v -0.484 c -1.039,0 -1.086,-0.071 -1.086,-0.676 z m 0.047,-2.684 c 0,-0.484 -0.363,-0.824 -0.797,-0.824 -0.484,0 -0.82,0.41 -0.82,0.824 0,0.41 0.336,0.82 0.82,0.82 0.434,0 0.797,-0.34 0.797,-0.82 z"
                   style="fill:#000000;fill-opacity:1;fill-rule:nonzero;stroke:none"
                   id="path9738" /><path
                   d="m 50.328,88.289 v 4.133 c 0,0.676 -0.168,0.676 -1.207,0.676 v 0.484 c 0.555,-0.023 1.328,-0.047 1.766,-0.047 0.386,0 1.183,0.024 1.715,0.047 v -0.484 c -1.04,0 -1.207,0 -1.207,-0.676 V 89.57 c 0,-1.597 1.109,-2.468 2.078,-2.468 0.992,0 1.16,0.824 1.16,1.718 v 3.602 c 0,0.676 -0.168,0.676 -1.211,0.676 v 0.484 c 0.535,-0.023 1.332,-0.047 1.742,-0.047 0.387,0 1.211,0.024 1.719,0.047 v -0.484 c -0.801,0 -1.188,0 -1.188,-0.457 v -2.95 c 0,-1.332 0,-1.789 -0.484,-2.347 -0.215,-0.266 -0.723,-0.578 -1.617,-0.578 -1.137,0 -1.864,0.652 -2.297,1.617 v -1.617 l -2.176,0.168 v 0.484 c 1.086,0 1.207,0.098 1.207,0.871 z"
                   style="fill:#000000;fill-opacity:1;fill-rule:nonzero;stroke:none"
                   id="path9740" /><path
                   d="m 62.98,83.84 c 0.145,-0.121 0.266,-0.289 0.266,-0.461 0,-0.289 -0.266,-0.555 -0.555,-0.555 -0.218,0 -0.386,0.168 -0.461,0.266 l -1.863,2.344 0.27,0.293 z"
                   style="fill:#000000;fill-opacity:1;fill-rule:nonzero;stroke:none"
                   id="path9742" /></g></g></g></g></g></g><g
       id="g9744"
       transform="translate(0,-1.5)"><g
         id="g9746"
         clip-path="url(#clipPath9750)"><g
           id="g9752"><g
             id="g9754"><g
               id="g9756"
               clip-path="url(#clipPath9760)"><g
                 id="g9762"><path
                   d="m 64.453,90.27 c 0,-1.958 -1.519,-3.602 -3.383,-3.602 -1.933,0 -3.433,1.691 -3.433,3.602 0,2.007 1.597,3.484 3.41,3.484 1.859,0 3.406,-1.524 3.406,-3.484 z m -3.383,3.097 c -0.675,0 -1.355,-0.316 -1.765,-1.043 -0.387,-0.676 -0.387,-1.617 -0.387,-2.176 0,-0.601 0,-1.425 0.363,-2.101 0.41,-0.703 1.137,-1.039 1.766,-1.039 0.676,0 1.328,0.336 1.738,1.015 0.414,0.653 0.414,1.547 0.414,2.125 0,0.559 0,1.403 -0.34,2.082 -0.363,0.7 -1.039,1.137 -1.789,1.137 z"
                   style="fill:#000000;fill-opacity:1;fill-rule:nonzero;stroke:none"
                   id="path9764" /><path
                   d="m 68.125,90.586 c 0.34,0.07 1.598,0.312 1.598,1.426 0,0.773 -0.535,1.402 -1.743,1.402 -1.304,0 -1.863,-0.871 -2.152,-2.199 -0.047,-0.195 -0.047,-0.242 -0.219,-0.242 -0.191,0 -0.191,0.093 -0.191,0.363 v 2.055 c 0,0.265 0,0.363 0.168,0.363 0.074,0 0.098,-0.027 0.387,-0.316 0.023,-0.024 0.023,-0.047 0.316,-0.34 0.676,0.629 1.379,0.656 1.691,0.656 1.766,0 2.493,-1.043 2.493,-2.152 0,-0.801 -0.461,-1.282 -0.657,-1.454 -0.507,-0.507 -1.109,-0.628 -1.761,-0.75 -0.871,-0.168 -1.887,-0.359 -1.887,-1.253 0,-0.559 0.387,-1.188 1.715,-1.188 1.691,0 1.789,1.402 1.812,1.863 0,0.145 0.149,0.145 0.172,0.145 0.215,0 0.215,-0.074 0.215,-0.363 v -1.571 c 0,-0.242 0,-0.363 -0.168,-0.363 -0.07,0 -0.121,0 -0.312,0.191 -0.051,0.051 -0.196,0.196 -0.266,0.243 -0.582,-0.434 -1.211,-0.434 -1.453,-0.434 -1.887,0 -2.465,1.039 -2.465,1.91 0,0.531 0.242,0.969 0.652,1.305 0.508,0.387 0.942,0.484 2.055,0.703 z"
                   style="fill:#000000;fill-opacity:1;fill-rule:nonzero;stroke:none"
                   id="path9766" /></g></g></g></g></g></g><g
       id="g9768"
       transform="translate(0,-1.5)"><g
         id="g9770"
         clip-path="url(#clipPath9774)"><g
           id="g9776"><g
             id="g9778"><g
               id="g9780"
               clip-path="url(#clipPath9784)"><g
                 id="g9786"><path
                   d="m 135.121,83.598 c 0.094,-0.168 0.094,-0.196 0.094,-0.317 0,-0.238 -0.07,-0.238 -0.387,-0.238 h -6.914 l -0.168,3.48 h 0.387 c 0.094,-1.742 0.578,-3 3.094,-3 h 2.418 l -5.997,9.481 c -0.097,0.168 -0.097,0.191 -0.097,0.312 0,0.266 0.074,0.266 0.387,0.266 h 7.109 l 0.265,-4.109 h -0.386 c -0.121,2.129 -0.41,3.578 -3.266,3.578 h -2.539 z"
                   style="fill:#000000;fill-opacity:1;fill-rule:nonzero;stroke:none"
                   id="path9788" /><path
                   d="m 136.27,89.812 h 4.086 v 0.895 h -4.086 z"
                   style="fill:#000000;fill-opacity:1;fill-rule:nonzero;stroke:none"
                   id="path9790" /><path
                   d="m 143.898,87.418 h 2.227 v -0.484 h -2.227 v -2.829 h -0.386 c 0,1.258 -0.457,2.903 -1.981,2.973 v 0.34 h 1.305 v 4.254 c 0,1.887 1.449,2.082 2.008,2.082 1.086,0 1.523,-1.09 1.523,-2.082 v -0.871 h -0.387 v 0.847 c 0,1.137 -0.46,1.719 -1.039,1.719 -1.043,0 -1.043,-1.402 -1.043,-1.672 z"
                   style="fill:#000000;fill-opacity:1;fill-rule:nonzero;stroke:none"
                   id="path9792" /><path
                   d="m 148.953,89.691 c 0.098,-2.296 1.402,-2.683 1.934,-2.683 1.57,0 1.742,2.078 1.742,2.683 z m 0,0.336 h 4.305 c 0.336,0 0.387,0 0.387,-0.336 0,-1.523 -0.848,-3.023 -2.758,-3.023 -1.789,0 -3.215,1.594 -3.215,3.531 0,2.055 1.617,3.555 3.383,3.555 1.886,0 2.59,-1.719 2.59,-2.008 0,-0.144 -0.122,-0.195 -0.219,-0.195 -0.121,0 -0.168,0.097 -0.196,0.219 -0.531,1.597 -1.933,1.597 -2.078,1.597 -0.773,0 -1.379,-0.461 -1.742,-1.043 -0.457,-0.722 -0.457,-1.738 -0.457,-2.297 z"
                   style="fill:#000000;fill-opacity:1;fill-rule:nonzero;stroke:none"
                   id="path9794" /><path
                   d="m 156.746,87.418 h 2.223 v -0.484 h -2.223 v -2.829 h -0.387 c 0,1.258 -0.461,2.903 -1.984,2.973 v 0.34 h 1.309 v 4.254 c 0,1.887 1.449,2.082 2.004,2.082 1.089,0 1.523,-1.09 1.523,-2.082 v -0.871 h -0.387 v 0.847 c 0,1.137 -0.457,1.719 -1.039,1.719 -1.039,0 -1.039,-1.402 -1.039,-1.672 z"
                   style="fill:#000000;fill-opacity:1;fill-rule:nonzero;stroke:none"
                   id="path9796" /><path
                   d="m 162.668,88.457 v -1.691 l -2.152,0.168 v 0.484 c 1.089,0 1.211,0.098 1.211,0.871 v 4.133 c 0,0.676 -0.168,0.676 -1.211,0.676 v 0.484 c 0.605,-0.023 1.332,-0.047 1.765,-0.047 0.606,0 1.332,0 1.961,0.047 v -0.484 h -0.34 c -1.136,0 -1.16,-0.168 -1.16,-0.723 v -2.371 c 0,-1.524 0.653,-2.902 1.813,-2.902 0.097,0 0.144,0 0.168,0.027 -0.047,0 -0.36,0.191 -0.36,0.601 0,0.415 0.336,0.653 0.676,0.653 0.266,0 0.652,-0.192 0.652,-0.676 0,-0.484 -0.484,-0.941 -1.136,-0.941 -1.137,0 -1.692,1.039 -1.887,1.691 z"
                   style="fill:#000000;fill-opacity:1;fill-rule:nonzero;stroke:none"
                   id="path9798" /><path
                   d="m 171.246,92.422 c 0.074,0.605 0.484,1.258 1.211,1.258 0.336,0 1.281,-0.219 1.281,-1.477 v -0.867 h -0.386 v 0.867 c 0,0.895 -0.387,0.992 -0.559,0.992 -0.508,0 -0.578,-0.699 -0.578,-0.773 v -3.07 c 0,-0.653 0,-1.258 -0.559,-1.836 -0.601,-0.606 -1.379,-0.848 -2.101,-0.848 -1.282,0 -2.348,0.727 -2.348,1.742 0,0.457 0.316,0.723 0.727,0.723 0.433,0 0.703,-0.313 0.703,-0.699 0,-0.196 -0.075,-0.704 -0.801,-0.704 0.437,-0.554 1.187,-0.722 1.668,-0.722 0.773,0 1.644,0.601 1.644,1.98 v 0.559 c -0.796,0.047 -1.859,0.094 -2.828,0.555 -1.16,0.531 -1.547,1.328 -1.547,2.007 0,1.258 1.5,1.645 2.465,1.645 1.016,0 1.719,-0.629 2.008,-1.332 z m -0.098,-2.539 v 1.547 c 0,1.453 -1.109,1.984 -1.812,1.984 -0.75,0 -1.379,-0.531 -1.379,-1.305 0,-0.847 0.652,-2.129 3.191,-2.226 z"
                   style="fill:#000000;fill-opacity:1;fill-rule:nonzero;stroke:none"
                   id="path9800" /><path
                   d="m 175.52,88.289 v 4.133 c 0,0.676 -0.168,0.676 -1.208,0.676 v 0.484 c 0.555,-0.023 1.329,-0.047 1.766,-0.047 0.387,0 1.184,0.024 1.715,0.047 v -0.484 c -1.039,0 -1.207,0 -1.207,-0.676 V 89.57 c 0,-1.597 1.109,-2.468 2.078,-2.468 0.992,0 1.16,0.824 1.16,1.718 v 3.602 c 0,0.676 -0.168,0.676 -1.207,0.676 v 0.484 c 0.531,-0.023 1.328,-0.047 1.738,-0.047 0.387,0 1.211,0.024 1.719,0.047 v -0.484 c -1.015,0 -1.183,0 -1.183,-0.676 V 89.57 c 0,-1.597 1.086,-2.468 2.078,-2.468 0.965,0 1.136,0.824 1.136,1.718 v 3.602 c 0,0.676 -0.171,0.676 -1.21,0.676 v 0.484 c 0.531,-0.023 1.332,-0.047 1.742,-0.047 0.41,0 1.207,0.024 1.742,0.047 v -0.484 c -0.801,0 -1.188,0 -1.211,-0.457 v -2.95 c 0,-1.332 0,-1.789 -0.484,-2.347 -0.215,-0.266 -0.723,-0.578 -1.618,-0.578 -1.281,0 -1.984,0.918 -2.226,1.523 -0.219,-1.355 -1.352,-1.523 -2.055,-1.523 -1.137,0 -1.863,0.652 -2.297,1.617 v -1.617 l -2.176,0.168 v 0.484 c 1.086,0 1.208,0.098 1.208,0.871 z"
                   style="fill:#000000;fill-opacity:1;fill-rule:nonzero;stroke:none"
                   id="path9802" /><path
                   d="m 189.406,86.766 -2.152,0.168 v 0.484 c 0.992,0 1.137,0.098 1.137,0.844 v 4.16 c 0,0.676 -0.168,0.676 -1.207,0.676 v 0.484 c 0.484,-0.023 1.328,-0.047 1.691,-0.047 0.555,0 1.09,0.024 1.621,0.047 v -0.484 c -1.039,0 -1.09,-0.071 -1.09,-0.676 z m 0.051,-2.684 c 0,-0.484 -0.363,-0.824 -0.801,-0.824 -0.48,0 -0.82,0.41 -0.82,0.824 0,0.41 0.34,0.82 0.82,0.82 0.438,0 0.801,-0.34 0.801,-0.82 z"
                   style="fill:#000000;fill-opacity:1;fill-rule:nonzero;stroke:none"
                   id="path9804" /><path
                   d="m 192.648,88.289 v 4.133 c 0,0.676 -0.168,0.676 -1.207,0.676 v 0.484 c 0.555,-0.023 1.329,-0.047 1.766,-0.047 0.387,0 1.184,0.024 1.715,0.047 v -0.484 c -1.039,0 -1.207,0 -1.207,-0.676 V 89.57 c 0,-1.597 1.113,-2.468 2.078,-2.468 0.992,0 1.16,0.824 1.16,1.718 v 3.602 c 0,0.676 -0.168,0.676 -1.207,0.676 v 0.484 c 0.531,-0.023 1.328,-0.047 1.738,-0.047 0.387,0 1.211,0.024 1.719,0.047 v -0.484 c -0.797,0 -1.183,0 -1.183,-0.457 v -2.95 c 0,-1.332 0,-1.789 -0.485,-2.347 -0.219,-0.266 -0.726,-0.578 -1.621,-0.578 -1.137,0 -1.863,0.652 -2.297,1.617 v -1.617 l -2.176,0.168 v 0.484 c 1.086,0 1.207,0.098 1.207,0.871 z"
                   style="fill:#000000;fill-opacity:1;fill-rule:nonzero;stroke:none"
                   id="path9806" /><path
                   d="m 205.301,83.84 c 0.144,-0.121 0.265,-0.289 0.265,-0.461 0,-0.289 -0.265,-0.555 -0.554,-0.555 -0.219,0 -0.387,0.168 -0.461,0.266 l -1.86,2.344 0.266,0.293 z"
                   style="fill:#000000;fill-opacity:1;fill-rule:nonzero;stroke:none"
                   id="path9808" /></g></g></g></g></g></g><g
       id="g9810"
       transform="translate(0,-1.5)"><g
         id="g9812"
         clip-path="url(#clipPath9816)"><g
           id="g9818"><g
             id="g9820"><g
               id="g9822"
               clip-path="url(#clipPath9826)"><g
                 id="g9828"><path
                   d="m 206.777,90.27 c 0,-1.958 -1.523,-3.602 -3.386,-3.602 -1.934,0 -3.434,1.691 -3.434,3.602 0,2.007 1.598,3.484 3.41,3.484 1.863,0 3.41,-1.524 3.41,-3.484 z m -3.386,3.097 c -0.676,0 -1.352,-0.316 -1.766,-1.043 -0.387,-0.676 -0.387,-1.617 -0.387,-2.176 0,-0.601 0,-1.425 0.364,-2.101 0.41,-0.703 1.136,-1.039 1.765,-1.039 0.676,0 1.328,0.336 1.742,1.015 0.411,0.653 0.411,1.547 0.411,2.125 0,0.559 0,1.403 -0.34,2.082 -0.364,0.7 -1.039,1.137 -1.789,1.137 z"
                   style="fill:#000000;fill-opacity:1;fill-rule:nonzero;stroke:none"
                   id="path9830" /><path
                   d="m 210.445,90.586 c 0.34,0.07 1.598,0.312 1.598,1.426 0,0.773 -0.531,1.402 -1.742,1.402 -1.305,0 -1.86,-0.871 -2.153,-2.199 -0.046,-0.195 -0.046,-0.242 -0.214,-0.242 -0.196,0 -0.196,0.093 -0.196,0.363 v 2.055 c 0,0.265 0,0.363 0.168,0.363 0.074,0 0.098,-0.027 0.391,-0.316 0.023,-0.024 0.023,-0.047 0.312,-0.34 0.676,0.629 1.379,0.656 1.692,0.656 1.765,0 2.492,-1.043 2.492,-2.152 0,-0.801 -0.461,-1.282 -0.652,-1.454 -0.508,-0.507 -1.114,-0.628 -1.766,-0.75 -0.871,-0.168 -1.887,-0.359 -1.887,-1.253 0,-0.559 0.387,-1.188 1.715,-1.188 1.695,0 1.793,1.402 1.817,1.863 0,0.145 0.144,0.145 0.168,0.145 0.218,0 0.218,-0.074 0.218,-0.363 v -1.571 c 0,-0.242 0,-0.363 -0.172,-0.363 -0.07,0 -0.121,0 -0.312,0.191 -0.047,0.051 -0.195,0.196 -0.266,0.243 -0.582,-0.434 -1.211,-0.434 -1.453,-0.434 -1.883,0 -2.465,1.039 -2.465,1.91 0,0.531 0.242,0.969 0.653,1.305 0.507,0.387 0.945,0.484 2.054,0.703 z"
                   style="fill:#000000;fill-opacity:1;fill-rule:nonzero;stroke:none"
                   id="path9832" /></g></g></g></g></g></g></g></svg>
