<?xml version="1.0" encoding="UTF-8" standalone="no"?>
<!-- Created with Inkscape (http://www.inkscape.org/) -->

<svg
   version="1.1"
   id="svg3423"
   width="274.94757"
   height="157.79141"
   viewBox="0 0 274.94757 157.79141"
   sodipodi:docname="artigo_12.svg"
   inkscape:version="1.2.2 (b0a8486541, 2022-12-01)"
   xmlns:inkscape="http://www.inkscape.org/namespaces/inkscape"
   xmlns:sodipodi="http://sodipodi.sourceforge.net/DTD/sodipodi-0.dtd"
   xmlns="http://www.w3.org/2000/svg"
   xmlns:svg="http://www.w3.org/2000/svg">
  <defs
     id="defs3427" />
  <sodipodi:namedview
     id="namedview3425"
     pagecolor="#ffffff"
     bordercolor="#666666"
     borderopacity="1.0"
     inkscape:showpageshadow="2"
     inkscape:pageopacity="0.0"
     inkscape:pagecheckerboard="0"
     inkscape:deskcolor="#d1d1d1"
     showgrid="false"
     inkscape:zoom="2.7932598"
     inkscape:cx="192.7855"
     inkscape:cy="106.32738"
     inkscape:window-width="2560"
     inkscape:window-height="1374"
     inkscape:window-x="0"
     inkscape:window-y="0"
     inkscape:window-maximized="1"
     inkscape:current-layer="g3431">
    <inkscape:page
       x="0"
       y="0"
       id="page3429"
       width="274.94757"
       height="157.79141" />
  </sodipodi:namedview>
  <g
     id="g3431"
     inkscape:groupmode="layer"
     inkscape:label="Page 1"
     transform="scale(1.3333333)">
    <g
       id="g3435"
       transform="scale(-1)"
       style="fill:#593d28;fill-opacity:1">
      <path
         d="m -0.75,-82.645 h -34.949 v -34.949 H -0.75 Z"
         style="fill:#593d28;fill-opacity:1;fill-rule:nonzero;stroke:#000000;stroke-width:1.5;stroke-linecap:round;stroke-linejoin:miter;stroke-miterlimit:4;stroke-dasharray:none;stroke-opacity:1"
         id="path3437" />
    </g>
    <path
       d="m 18.984,94.414 c 0,-0.465 0,-0.492 -0.441,-0.492 -1.164,1.195 -2.801,1.195 -3.383,1.195 v 0.582 c 0.379,0 1.461,0 2.422,-0.496 v 9.656 c 0,0.672 -0.059,0.875 -1.723,0.875 h -0.582 v 0.586 c 0.641,-0.058 2.246,-0.058 3.004,-0.058 0.731,0 2.364,0 3.008,0.058 v -0.586 h -0.586 c -1.691,0 -1.719,-0.203 -1.719,-0.875 z"
       style="fill:#ffffff;fill-opacity:1;fill-rule:nonzero;stroke:none"
       id="path3439" />
    <g
       id="g3441"
       transform="scale(-1)"
       style="fill:#d6b38d;fill-opacity:1">
      <path
         d="M -0.75,-47.699 H -35.699 V -82.644 H -0.75 Z"
         style="fill:#d6b38d;fill-opacity:1;fill-rule:nonzero;stroke:#000000;stroke-width:1.5;stroke-linecap:round;stroke-linejoin:miter;stroke-miterlimit:4;stroke-dasharray:none;stroke-opacity:1"
         id="path3443" />
    </g>
    <path
       d="m 16.508,67.082 c 0.32,0 0.672,0 0.672,-0.379 0,-0.351 -0.352,-0.351 -0.672,-0.351 H 6.441 c -0.32,0 -0.64,0 -0.64,0.351 0,0.379 0.32,0.379 0.64,0.379 z"
       style="fill:#000000;fill-opacity:1;fill-rule:nonzero;stroke:none"
       id="path3445" />
    <path
       d="m 28.344,59.469 c 0,-0.469 0,-0.496 -0.438,-0.496 -1.168,1.195 -2.801,1.195 -3.386,1.195 v 0.582 c 0.378,0 1.46,0 2.421,-0.496 v 9.66 c 0,0.668 -0.058,0.875 -1.722,0.875 h -0.582 v 0.582 c 0.64,-0.059 2.246,-0.059 3.004,-0.059 0.73,0 2.363,0 3.007,0.059 v -0.582 h -0.586 c -1.691,0 -1.718,-0.207 -1.718,-0.875 z"
       style="fill:#000000;fill-opacity:1;fill-rule:nonzero;stroke:none"
       id="path3447" />
    <g
       id="g3449"
       transform="scale(-1)"
       style="fill:#593d28;fill-opacity:1">
      <path
         d="m -35.699,-82.645 h -34.945 v -34.949 h 34.945 z"
         style="fill:#593d28;fill-opacity:1;fill-rule:nonzero;stroke:#000000;stroke-width:1.5;stroke-linecap:round;stroke-linejoin:miter;stroke-miterlimit:4;stroke-dasharray:none;stroke-opacity:1"
         id="path3451" />
    </g>
    <path
       d="m 53.93,94.414 c 0,-0.465 0,-0.492 -0.438,-0.492 -1.168,1.195 -2.801,1.195 -3.383,1.195 v 0.582 c 0.379,0 1.457,0 2.422,-0.496 v 9.656 c 0,0.672 -0.058,0.875 -1.722,0.875 h -0.582 v 0.586 c 0.64,-0.058 2.246,-0.058 3.003,-0.058 0.731,0 2.364,0 3.004,0.058 v -0.586 h -0.582 c -1.691,0 -1.722,-0.203 -1.722,-0.875 z"
       style="fill:#ffffff;fill-opacity:1;fill-rule:nonzero;stroke:none"
       id="path3453" />
    <g
       id="g3455"
       transform="scale(-1)"
       style="fill:#593d28;fill-opacity:1">
      <path
         d="M -12.75,-0.75 H -47.699 V -35.699 H -12.75 Z"
         style="fill:#593d28;fill-opacity:1;fill-rule:nonzero;stroke:#000000;stroke-width:1.5;stroke-linecap:round;stroke-linejoin:miter;stroke-miterlimit:4;stroke-dasharray:none;stroke-opacity:1"
         id="path3457" />
    </g>
    <path
       d="m 30.984,12.52 c 0,-0.465 0,-0.497 -0.441,-0.497 -1.164,1.196 -2.801,1.196 -3.383,1.196 v 0.586 c 0.379,0 1.461,0 2.422,-0.496 v 9.656 c 0,0.672 -0.059,0.875 -1.723,0.875 h -0.582 v 0.582 c 0.641,-0.055 2.246,-0.055 3.004,-0.055 0.731,0 2.364,0 3.008,0.055 V 23.84 h -0.586 c -1.691,0 -1.719,-0.203 -1.719,-0.875 z"
       style="fill:#ffffff;fill-opacity:1;fill-rule:nonzero;stroke:none"
       id="path3459" />
    <g
       id="g3461"
       transform="scale(-1)"
       style="fill:#593d28;fill-opacity:1">
      <path
         d="m -47.699,-0.75 h -34.945 v -34.949 h 34.945 z"
         style="fill:#593d28;fill-opacity:1;fill-rule:nonzero;stroke:#000000;stroke-width:1.5;stroke-linecap:round;stroke-linejoin:miter;stroke-miterlimit:4;stroke-dasharray:none;stroke-opacity:1"
         id="path3463" />
    </g>
    <path
       d="m 65.93,12.52 c 0,-0.465 0,-0.497 -0.438,-0.497 -1.168,1.196 -2.801,1.196 -3.383,1.196 v 0.586 c 0.379,0 1.457,0 2.422,-0.496 v 9.656 c 0,0.672 -0.058,0.875 -1.722,0.875 h -0.582 v 0.582 c 0.64,-0.055 2.246,-0.055 3.003,-0.055 0.731,0 2.364,0 3.004,0.055 V 23.84 h -0.582 c -1.691,0 -1.722,-0.203 -1.722,-0.875 z"
       style="fill:#ffffff;fill-opacity:1;fill-rule:nonzero;stroke:none"
       id="path3465" />
    <g
       id="g3467"
       transform="scale(-1)"
       style="fill:#d6b38d;fill-opacity:1">
      <path
         d="m -47.699,-35.699 h -34.945 v -34.945 h 34.945 z"
         style="fill:#d6b38d;fill-opacity:1;fill-rule:nonzero;stroke:#000000;stroke-width:1.5;stroke-linecap:round;stroke-linejoin:miter;stroke-miterlimit:4;stroke-dasharray:none;stroke-opacity:1"
         id="path3469" />
    </g>
    <path
       d="m 63.457,55.082 c 0.32,0 0.668,0 0.668,-0.379 0,-0.351 -0.348,-0.351 -0.668,-0.351 H 53.391 c -0.321,0 -0.641,0 -0.641,0.351 0,0.379 0.32,0.379 0.641,0.379 z"
       style="fill:#000000;fill-opacity:1;fill-rule:nonzero;stroke:none"
       id="path3471" />
    <path
       d="m 75.289,47.469 c 0,-0.469 0,-0.496 -0.437,-0.496 -1.168,1.195 -2.801,1.195 -3.383,1.195 v 0.582 c 0.379,0 1.457,0 2.422,-0.496 v 9.66 c 0,0.668 -0.059,0.875 -1.723,0.875 h -0.582 v 0.582 c 0.641,-0.059 2.246,-0.059 3.004,-0.059 0.73,0 2.363,0 3.004,0.059 v -0.582 h -0.582 c -1.692,0 -1.723,-0.207 -1.723,-0.875 z"
       style="fill:#000000;fill-opacity:1;fill-rule:nonzero;stroke:none"
       id="path3473" />
    <g
       id="g3475"
       transform="scale(-1)"
       style="fill:#593d28;fill-opacity:1">
      <path
         d="m -135.566,-76.645 h -34.945 v -34.949 h 34.945 z"
         style="fill:#593d28;fill-opacity:1;fill-rule:nonzero;stroke:#000000;stroke-width:1.5;stroke-linecap:round;stroke-linejoin:miter;stroke-miterlimit:4;stroke-dasharray:none;stroke-opacity:1"
         id="path3477" />
    </g>
    <path
       d="m 153.797,88.414 c 0,-0.465 0,-0.492 -0.438,-0.492 -1.168,1.195 -2.8,1.195 -3.382,1.195 v 0.582 c 0.378,0 1.457,0 2.421,-0.496 v 9.656 c 0,0.672 -0.058,0.875 -1.722,0.875 h -0.582 v 0.586 c 0.64,-0.058 2.246,-0.058 3.004,-0.058 0.73,0 2.363,0 3.004,0.058 v -0.586 h -0.582 c -1.692,0 -1.723,-0.203 -1.723,-0.875 z"
       style="fill:#ffffff;fill-opacity:1;fill-rule:nonzero;stroke:none"
       id="path3479" />
    <g
       id="g3481"
       transform="scale(-1)"
       style="fill:#d6b38d;fill-opacity:1">
      <path
         d="m -135.566,-41.699 h -34.945 v -34.945 h 34.945 z"
         style="fill:#d6b38d;fill-opacity:1;fill-rule:nonzero;stroke:#000000;stroke-width:1.5;stroke-linecap:round;stroke-linejoin:miter;stroke-miterlimit:4;stroke-dasharray:none;stroke-opacity:1"
         id="path3483" />
    </g>
    <path
       d="m 151.324,61.082 c 0.321,0 0.668,0 0.668,-0.379 0,-0.351 -0.347,-0.351 -0.668,-0.351 h -10.066 c -0.32,0 -0.641,0 -0.641,0.351 0,0.379 0.321,0.379 0.641,0.379 z"
       style="fill:#000000;fill-opacity:1;fill-rule:nonzero;stroke:none"
       id="path3485" />
    <path
       d="m 163.156,53.469 c 0,-0.469 0,-0.496 -0.437,-0.496 -1.168,1.195 -2.801,1.195 -3.383,1.195 v 0.582 c 0.379,0 1.457,0 2.422,-0.496 v 9.66 c 0,0.668 -0.059,0.875 -1.723,0.875 h -0.582 v 0.582 c 0.641,-0.059 2.246,-0.059 3.004,-0.059 0.731,0 2.363,0 3.004,0.059 v -0.582 h -0.582 c -1.691,0 -1.723,-0.207 -1.723,-0.875 z"
       style="fill:#000000;fill-opacity:1;fill-rule:nonzero;stroke:none"
       id="path3487" />
    <g
       id="g3489"
       transform="scale(-1)"
       style="fill:#593d28;fill-opacity:1">
      <path
         d="m -170.512,-76.645 h -34.949 v -34.949 h 34.949 z"
         style="fill:#593d28;fill-opacity:1;fill-rule:nonzero;stroke:#000000;stroke-width:1.5;stroke-linecap:round;stroke-linejoin:miter;stroke-miterlimit:4;stroke-dasharray:none;stroke-opacity:1"
         id="path3491" />
    </g>
    <path
       d="m 188.746,88.414 c 0,-0.465 0,-0.492 -0.437,-0.492 -1.168,1.195 -2.801,1.195 -3.387,1.195 v 0.582 c 0.379,0 1.461,0 2.422,-0.496 v 9.656 c 0,0.672 -0.059,0.875 -1.719,0.875 h -0.586 v 0.586 c 0.645,-0.058 2.246,-0.058 3.008,-0.058 0.726,0 2.363,0 3.004,0.058 v -0.586 h -0.586 c -1.692,0 -1.719,-0.203 -1.719,-0.875 z"
       style="fill:#ffffff;fill-opacity:1;fill-rule:nonzero;stroke:none"
       id="path3493" />
    <g
       id="g3495"
       transform="scale(-1)"
       style="fill:#593d28;fill-opacity:1">
      <path
         d="m -135.566,-6.75 h -34.945 v -34.949 h 34.945 z"
         style="fill:#593d28;fill-opacity:1;fill-rule:nonzero;stroke:#000000;stroke-width:1.5;stroke-linecap:round;stroke-linejoin:miter;stroke-miterlimit:4;stroke-dasharray:none;stroke-opacity:1"
         id="path3497" />
    </g>
    <path
       d="m 153.797,18.52 c 0,-0.465 0,-0.497 -0.438,-0.497 -1.168,1.196 -2.8,1.196 -3.382,1.196 v 0.586 c 0.378,0 1.457,0 2.421,-0.496 v 9.656 c 0,0.672 -0.058,0.875 -1.722,0.875 h -0.582 v 0.582 c 0.64,-0.055 2.246,-0.055 3.004,-0.055 0.73,0 2.363,0 3.004,0.055 V 29.84 h -0.582 c -1.692,0 -1.723,-0.203 -1.723,-0.875 z"
       style="fill:#ffffff;fill-opacity:1;fill-rule:nonzero;stroke:none"
       id="path3499" />
    <g
       id="g3501"
       transform="scale(-1)"
       style="fill:#593d28;fill-opacity:1">
      <path
         d="m -170.512,-6.75 h -34.949 v -34.949 h 34.949 z"
         style="fill:#593d28;fill-opacity:1;fill-rule:nonzero;stroke:#000000;stroke-width:1.5;stroke-linecap:round;stroke-linejoin:miter;stroke-miterlimit:4;stroke-dasharray:none;stroke-opacity:1"
         id="path3503" />
    </g>
    <path
       d="m 188.746,18.52 c 0,-0.465 0,-0.497 -0.437,-0.497 -1.168,1.196 -2.801,1.196 -3.387,1.196 v 0.586 c 0.379,0 1.461,0 2.422,-0.496 v 9.656 c 0,0.672 -0.059,0.875 -1.719,0.875 h -0.586 v 0.582 c 0.645,-0.055 2.246,-0.055 3.008,-0.055 0.726,0 2.363,0 3.004,0.055 V 29.84 h -0.586 c -1.692,0 -1.719,-0.203 -1.719,-0.875 z"
       style="fill:#ffffff;fill-opacity:1;fill-rule:nonzero;stroke:none"
       id="path3505" />
    <g
       id="g3507"
       transform="scale(-1)"
       style="fill:#d6b38d;fill-opacity:1">
      <path
         d="m -170.512,-41.699 h -34.949 v -34.945 h 34.949 z"
         style="fill:#d6b38d;fill-opacity:1;fill-rule:nonzero;stroke:#000000;stroke-width:1.5;stroke-linecap:round;stroke-linejoin:miter;stroke-miterlimit:4;stroke-dasharray:none;stroke-opacity:1"
         id="path3509" />
    </g>
    <path
       d="m 186.27,61.082 c 0.32,0 0.671,0 0.671,-0.379 0,-0.351 -0.351,-0.351 -0.671,-0.351 h -10.063 c -0.324,0 -0.645,0 -0.645,0.351 0,0.379 0.321,0.379 0.645,0.379 z"
       style="fill:#000000;fill-opacity:1;fill-rule:nonzero;stroke:none"
       id="path3511" />
    <path
       d="m 198.105,53.469 c 0,-0.469 0,-0.496 -0.437,-0.496 -1.168,1.195 -2.801,1.195 -3.387,1.195 v 0.582 c 0.383,0 1.461,0 2.422,-0.496 v 9.66 c 0,0.668 -0.058,0.875 -1.719,0.875 h -0.586 v 0.582 c 0.645,-0.059 2.247,-0.059 3.008,-0.059 0.727,0 2.364,0 3.004,0.059 v -0.582 h -0.582 c -1.695,0 -1.723,-0.207 -1.723,-0.875 z"
       style="fill:#000000;fill-opacity:1;fill-rule:nonzero;stroke:none"
       id="path3513" />
    <g
       id="g3515">
      <path
         d="m 94.781,59.172 h 23.324"
         style="fill:none;stroke:#000000;stroke-width:1.5;stroke-linecap:butt;stroke-linejoin:miter;stroke-miterlimit:4;stroke-dasharray:none;stroke-opacity:1"
         id="path3517" />
    </g>
    <g
       id="g3519">
      <path
         d="m 122.43,59.172 -6.485,3.75 v -7.5 z"
         style="fill:#000000;fill-opacity:1;fill-rule:evenodd;stroke:#000000;stroke-width:1;stroke-linecap:butt;stroke-linejoin:miter;stroke-miterlimit:4;stroke-dasharray:none;stroke-opacity:1"
         id="path3521" />
    </g>
  </g>
</svg>
