<?xml version="1.0" encoding="UTF-8" standalone="no"?>
<!-- Created with Inkscape (http://www.inkscape.org/) -->

<svg
   version="1.1"
   id="svg9445"
   width="410"
   height="133.791"
   viewBox="0 0 410.00001 133.791"
   sodipodi:docname="artigo_maio.svg"
   inkscape:version="1.2.2 (b0a8486541, 2022-12-01)"
   xmlns:inkscape="http://www.inkscape.org/namespaces/inkscape"
   xmlns:sodipodi="http://sodipodi.sourceforge.net/DTD/sodipodi-0.dtd"
   xmlns="http://www.w3.org/2000/svg"
   xmlns:svg="http://www.w3.org/2000/svg">
  <defs
     id="defs9449">
    <clipPath
       id="clipPath4210">
      <path
         d="M 0,0 H 16 V 8.746094 H 0 Z m 0,0"
         id="path1313" />
    </clipPath>
    <clipPath
       id="clipPath6338">
      <path
         d="M 0,0 H 16 V 8.746094 H 0 Z m 0,0"
         id="path2680" />
    </clipPath>
    <clipPath
       id="clipPath7587">
      <path
         d="M 0,0 H 16 V 8.746094 H 0 Z m 0,0"
         id="path7291" />
    </clipPath>
  </defs>
  <sodipodi:namedview
     id="namedview9447"
     pagecolor="#ffffff"
     bordercolor="#666666"
     borderopacity="1.0"
     inkscape:showpageshadow="2"
     inkscape:pageopacity="0.0"
     inkscape:pagecheckerboard="0"
     inkscape:deskcolor="#d1d1d1"
     showgrid="false"
     inkscape:zoom="2.5657859"
     inkscape:cx="201.69259"
     inkscape:cy="165.25151"
     inkscape:window-width="2560"
     inkscape:window-height="1374"
     inkscape:window-x="0"
     inkscape:window-y="0"
     inkscape:window-maximized="1"
     inkscape:current-layer="g9453">
    <inkscape:page
       x="0"
       y="0"
       id="page9451"
       width="410"
       height="133.791" />
  </sodipodi:namedview>
  <g
     id="g9453"
     inkscape:groupmode="layer"
     inkscape:label="Page 1"
     transform="scale(1.33333)">
    <g
       id="g488"
       transform="translate(-0.10511891,-34.207782)">
      <g
         id="g9461"
         transform="rotate(180,33.015428,17.474)"
         style="fill:#d0caaa;fill-opacity:1">
        <path
           d="m -35.699,-0.75 h -34.945 v -34.949 h 34.945 z"
           style="fill:#d0caaa;fill-opacity:1;fill-rule:nonzero;stroke:#000000;stroke-width:1.5;stroke-linecap:round;stroke-linejoin:miter;stroke-miterlimit:4;stroke-dasharray:none;stroke-opacity:1"
           id="path9463" />
      </g>
      <g
         id="g9469"
         transform="rotate(180,15.541428,17.474)"
         style="fill:#d0caaa;fill-opacity:1">
        <path
           d="m -70.645,-35.699 h -34.949 v -34.945 h 34.949 z"
           style="fill:#d0caaa;fill-opacity:1;fill-rule:nonzero;stroke:#000000;stroke-width:1.5;stroke-linecap:round;stroke-linejoin:miter;stroke-miterlimit:4;stroke-dasharray:none;stroke-opacity:1"
           id="path9471" />
      </g>
      <g
         id="g9461-7"
         transform="rotate(180,50.489928,17.474)"
         style="fill:#d0caaa;fill-opacity:1">
        <path
           d="m -35.699,-0.75 h -34.945 v -34.949 h 34.945 z"
           style="fill:#d0caaa;fill-opacity:1;fill-rule:nonzero;stroke:#000000;stroke-width:1.5;stroke-linecap:round;stroke-linejoin:miter;stroke-miterlimit:4;stroke-dasharray:none;stroke-opacity:1"
           id="path9463-5" />
      </g>
      <g
         id="g9469-3"
         transform="rotate(180,33.015928,17.474)"
         style="fill:#d0caaa;fill-opacity:1">
        <path
           d="m -70.645,-35.699 h -34.949 v -34.945 h 34.949 z"
           style="fill:#d0caaa;fill-opacity:1;fill-rule:nonzero;stroke:#000000;stroke-width:1.5;stroke-linecap:round;stroke-linejoin:miter;stroke-miterlimit:4;stroke-dasharray:none;stroke-opacity:1"
           id="path9471-5" />
      </g>
    </g>
    <g
       id="g498"
       transform="translate(12.915386,-38.97927)">
      <g
         id="g9461-6"
         transform="rotate(180,76.484851,19.859244)"
         style="fill:#d0caaa;fill-opacity:1">
        <path
           d="m -35.699,-0.75 h -34.945 v -34.949 h 34.945 z"
           style="fill:#d0caaa;fill-opacity:1;fill-rule:nonzero;stroke:#000000;stroke-width:1.5;stroke-linecap:round;stroke-linejoin:miter;stroke-miterlimit:4;stroke-dasharray:none;stroke-opacity:1"
           id="path9463-2" />
      </g>
      <g
         id="g9469-9"
         transform="rotate(180,76.485351,2.385744)"
         style="fill:#d0caaa;fill-opacity:1">
        <path
           d="m -70.645,-35.699 h -34.949 v -34.945 h 34.949 z"
           style="fill:#d0caaa;fill-opacity:1;fill-rule:nonzero;stroke:#000000;stroke-width:1.5;stroke-linecap:round;stroke-linejoin:miter;stroke-miterlimit:4;stroke-dasharray:none;stroke-opacity:1"
           id="path9471-1" />
      </g>
      <g
         id="g9461-7-2"
         transform="rotate(180,111.43285,37.332744)"
         style="fill:#d0caaa;fill-opacity:1">
        <path
           d="m -35.699,-0.75 h -34.945 v -34.949 h 34.945 z"
           style="fill:#d0caaa;fill-opacity:1;fill-rule:nonzero;stroke:#000000;stroke-width:1.5;stroke-linecap:round;stroke-linejoin:miter;stroke-miterlimit:4;stroke-dasharray:none;stroke-opacity:1"
           id="path9463-5-7" />
      </g>
      <g
         id="g9469-3-0"
         transform="rotate(180,76.485351,19.859244)"
         style="fill:#d0caaa;fill-opacity:1">
        <path
           d="m -70.645,-35.699 h -34.949 v -34.945 h 34.949 z"
           style="fill:#d0caaa;fill-opacity:1;fill-rule:nonzero;stroke:#000000;stroke-width:1.5;stroke-linecap:round;stroke-linejoin:miter;stroke-miterlimit:4;stroke-dasharray:none;stroke-opacity:1"
           id="path9471-5-9" />
      </g>
    </g>
    <g
       id="g478"
       transform="translate(0.91538617,-34.209282)">
      <g
         id="g9457"
         transform="scale(-1)"
         style="fill:#d0caaa;fill-opacity:1">
        <path
           d="M -0.75,-35.699 H -35.699 V -70.644 H -0.75 Z"
           style="fill:#d0caaa;fill-opacity:1;fill-rule:nonzero;stroke:#000000;stroke-width:1.5;stroke-linecap:round;stroke-linejoin:miter;stroke-miterlimit:4;stroke-dasharray:none;stroke-opacity:1"
           id="path9459" />
      </g>
      <g
         id="g9465"
         transform="rotate(180,-17.4735,17.474)"
         style="fill:#d0caaa;fill-opacity:1">
        <path
           d="m -35.699,-35.699 h -34.945 v -34.945 h 34.945 z"
           style="fill:#d0caaa;fill-opacity:1;fill-rule:nonzero;stroke:#000000;stroke-width:1.5;stroke-linecap:round;stroke-linejoin:miter;stroke-miterlimit:4;stroke-dasharray:none;stroke-opacity:1"
           id="path9467" />
      </g>
      <g
         id="g9473"
         transform="scale(-1)"
         style="fill:#d0caaa;fill-opacity:1">
        <path
           d="m -35.699,-70.645 h -34.945 v -34.949 h 34.945 z"
           style="fill:#d0caaa;fill-opacity:1;fill-rule:nonzero;stroke:#000000;stroke-width:1.5;stroke-linecap:round;stroke-linejoin:miter;stroke-miterlimit:4;stroke-dasharray:none;stroke-opacity:1"
           id="path9475" />
      </g>
    </g>
    <g
       inkscape:label=""
       transform="matrix(1.2904954,0,0,1.2904954,12.619455,84.366205)"
       id="g575">
      <g
         id="surface2"
         transform="matrix(1.33333,0,0,1.33333,-0.479167,-0.0773335)">
        <g
           clip-path="url(#clipPath4210)"
           clip-rule="nonzero"
           id="g35">
          <g
             style="fill:#000000;fill-opacity:1"
             id="g33">
            <g
               id="use27"
               transform="translate(0,6.8080001)">
              <path
                 style="stroke:none"
                 d="m 6.640625,-6.75 h -6.09375 l -0.1875,2.25 h 0.25 C 0.75,-6.109375 0.890625,-6.4375 2.40625,-6.4375 c 0.171875,0 0.4375,0 0.53125,0.015625 0.21875,0.046875 0.21875,0.15625 0.21875,0.375 v 5.265625 c 0,0.328125 0,0.46875 -1.046875,0.46875 H 1.703125 V 0 C 2.109375,-0.03125 3.125,-0.03125 3.59375,-0.03125 c 0.453125,0 1.484375,0 1.890625,0.03125 v -0.3125 h -0.40625 c -1.046875,0 -1.046875,-0.140625 -1.046875,-0.46875 v -5.265625 c 0,-0.1875 0,-0.328125 0.1875,-0.375 0.109375,-0.015625 0.375,-0.015625 0.5625,-0.015625 1.515625,0 1.65625,0.328125 1.796875,1.9375 h 0.25 z m 0,0"
                 id="path50" />
            </g>
            <g
               id="use29"
               transform="translate(7.1949902,6.8080001)">
              <path
                 style="stroke:none"
                 d="M 1.765625,-4.40625 0.375,-4.296875 v 0.3125 c 0.640625,0 0.734375,0.0625 0.734375,0.546875 V -0.75 c 0,0.4375 -0.109375,0.4375 -0.78125,0.4375 V 0 C 0.640625,-0.015625 1.1875,-0.03125 1.421875,-0.03125 1.78125,-0.03125 2.125,-0.015625 2.46875,0 v -0.3125 c -0.671875,0 -0.703125,-0.046875 -0.703125,-0.4375 z m 0.03125,-1.734375 c 0,-0.3125 -0.234375,-0.53125 -0.515625,-0.53125 -0.3125,0 -0.53125,0.265625 -0.53125,0.53125 0,0.265625 0.21875,0.53125 0.53125,0.53125 0.28125,0 0.515625,-0.21875 0.515625,-0.53125 z m 0,0"
                 id="path54" />
            </g>
            <g
               id="use31"
               transform="translate(9.9625998,6.8080001)">
              <path
                 style="stroke:none"
                 d="m 1.71875,-3.75 v -0.65625 l -1.4375,0.109375 v 0.3125 c 0.703125,0 0.78125,0.0625 0.78125,0.5 v 4.65625 C 1.0625,1.625 0.953125,1.625 0.28125,1.625 V 1.9375 C 0.625,1.921875 1.140625,1.90625 1.390625,1.90625 c 0.28125,0 0.78125,0.015625 1.125,0.03125 V 1.625 C 1.859375,1.625 1.75,1.625 1.75,1.171875 V -0.59375 c 0.046875,0.171875 0.46875,0.703125 1.21875,0.703125 1.1875,0 2.21875,-0.984375 2.21875,-2.265625 0,-1.265625 -0.953125,-2.25 -2.078125,-2.25 -0.78125,0 -1.203125,0.4375 -1.390625,0.65625 z M 1.75,-1.140625 v -2.21875 C 2.03125,-3.875 2.515625,-4.15625 3.03125,-4.15625 c 0.734375,0 1.328125,0.875 1.328125,2 0,1.203125 -0.6875,2.046875 -1.421875,2.046875 -0.40625,0 -0.78125,-0.203125 -1.046875,-0.609375 C 1.75,-0.921875 1.75,-0.9375 1.75,-1.140625 Z m 0,0"
                 id="path58" />
            </g>
          </g>
        </g>
        <g
           style="fill:#000000;fill-opacity:1"
           id="g39">
          <g
             id="use37"
             transform="translate(15.776773,6.8080001)">
            <path
               style="stroke:none"
               d="M 4.6875,-2.140625 C 4.6875,-3.40625 3.703125,-4.46875 2.5,-4.46875 c -1.25,0 -2.21875,1.09375 -2.21875,2.328125 0,1.296875 1.03125,2.25 2.203125,2.25 1.203125,0 2.203125,-0.984375 2.203125,-2.25 z m -2.1875,2 c -0.4375,0 -0.875,-0.203125 -1.140625,-0.671875 -0.25,-0.4375 -0.25,-1.046875 -0.25,-1.40625 0,-0.390625 0,-0.921875 0.234375,-1.359375 C 1.609375,-4.03125 2.078125,-4.25 2.484375,-4.25 c 0.4375,0 0.859375,0.21875 1.125,0.65625 0.265625,0.421875 0.265625,1 0.265625,1.375 0,0.359375 0,0.90625 -0.21875,1.34375 C 3.421875,-0.421875 2.984375,-0.140625 2.5,-0.140625 Z m 0,0"
               id="path62" />
          </g>
        </g>
        <g
           style="fill:#000000;fill-opacity:1"
           id="g43">
          <g
             id="use41"
             transform="translate(24.075619,6.8080001)">
            <path
               style="stroke:none"
               d="m 2.9375,-6.375 c 0,-0.25 0,-0.265625 -0.234375,-0.265625 C 2.078125,-6 1.203125,-6 0.890625,-6 v 0.3125 c 0.203125,0 0.78125,0 1.296875,-0.265625 v 5.171875 c 0,0.359375 -0.03125,0.46875 -0.921875,0.46875 h -0.3125 V 0 c 0.34375,-0.03125 1.203125,-0.03125 1.609375,-0.03125 0.390625,0 1.265625,0 1.609375,0.03125 v -0.3125 h -0.3125 c -0.90625,0 -0.921875,-0.109375 -0.921875,-0.46875 z m 0,0"
               id="path66" />
          </g>
        </g>
      </g>
    </g>
    <g
       inkscape:label=""
       transform="matrix(1.2904989,0,0,1.2904989,112.32332,84.366185)"
       id="g750">
      <g
         id="g748"
         transform="matrix(1.33333,0,0,1.33333,-0.479167,-0.0773335)">
        <g
           clip-path="url(#clipPath6338)"
           clip-rule="nonzero"
           id="g734">
          <g
             style="fill:#000000;fill-opacity:1"
             id="g732">
            <g
               id="g722"
               transform="translate(0,6.8080001)">
              <path
                 style="stroke:none"
                 d="m 6.640625,-6.75 h -6.09375 l -0.1875,2.25 h 0.25 C 0.75,-6.109375 0.890625,-6.4375 2.40625,-6.4375 c 0.171875,0 0.4375,0 0.53125,0.015625 0.21875,0.046875 0.21875,0.15625 0.21875,0.375 v 5.265625 c 0,0.328125 0,0.46875 -1.046875,0.46875 H 1.703125 V 0 C 2.109375,-0.03125 3.125,-0.03125 3.59375,-0.03125 c 0.453125,0 1.484375,0 1.890625,0.03125 v -0.3125 h -0.40625 c -1.046875,0 -1.046875,-0.140625 -1.046875,-0.46875 v -5.265625 c 0,-0.1875 0,-0.328125 0.1875,-0.375 0.109375,-0.015625 0.375,-0.015625 0.5625,-0.015625 1.515625,0 1.65625,0.328125 1.796875,1.9375 h 0.25 z m 0,0"
                 id="path720" />
            </g>
            <g
               id="g726"
               transform="translate(7.1949902,6.8080001)">
              <path
                 style="stroke:none"
                 d="M 1.765625,-4.40625 0.375,-4.296875 v 0.3125 c 0.640625,0 0.734375,0.0625 0.734375,0.546875 V -0.75 c 0,0.4375 -0.109375,0.4375 -0.78125,0.4375 V 0 C 0.640625,-0.015625 1.1875,-0.03125 1.421875,-0.03125 1.78125,-0.03125 2.125,-0.015625 2.46875,0 v -0.3125 c -0.671875,0 -0.703125,-0.046875 -0.703125,-0.4375 z m 0.03125,-1.734375 c 0,-0.3125 -0.234375,-0.53125 -0.515625,-0.53125 -0.3125,0 -0.53125,0.265625 -0.53125,0.53125 0,0.265625 0.21875,0.53125 0.53125,0.53125 0.28125,0 0.515625,-0.21875 0.515625,-0.53125 z m 0,0"
                 id="path724" />
            </g>
            <g
               id="g730"
               transform="translate(9.9625998,6.8080001)">
              <path
                 style="stroke:none"
                 d="m 1.71875,-3.75 v -0.65625 l -1.4375,0.109375 v 0.3125 c 0.703125,0 0.78125,0.0625 0.78125,0.5 v 4.65625 C 1.0625,1.625 0.953125,1.625 0.28125,1.625 V 1.9375 C 0.625,1.921875 1.140625,1.90625 1.390625,1.90625 c 0.28125,0 0.78125,0.015625 1.125,0.03125 V 1.625 C 1.859375,1.625 1.75,1.625 1.75,1.171875 V -0.59375 c 0.046875,0.171875 0.46875,0.703125 1.21875,0.703125 1.1875,0 2.21875,-0.984375 2.21875,-2.265625 0,-1.265625 -0.953125,-2.25 -2.078125,-2.25 -0.78125,0 -1.203125,0.4375 -1.390625,0.65625 z M 1.75,-1.140625 v -2.21875 C 2.03125,-3.875 2.515625,-4.15625 3.03125,-4.15625 c 0.734375,0 1.328125,0.875 1.328125,2 0,1.203125 -0.6875,2.046875 -1.421875,2.046875 -0.40625,0 -0.78125,-0.203125 -1.046875,-0.609375 C 1.75,-0.921875 1.75,-0.9375 1.75,-1.140625 Z m 0,0"
                 id="path728" />
            </g>
          </g>
        </g>
        <g
           style="fill:#000000;fill-opacity:1"
           id="g740">
          <g
             id="g738"
             transform="translate(15.776773,6.8080001)">
            <path
               style="stroke:none"
               d="M 4.6875,-2.140625 C 4.6875,-3.40625 3.703125,-4.46875 2.5,-4.46875 c -1.25,0 -2.21875,1.09375 -2.21875,2.328125 0,1.296875 1.03125,2.25 2.203125,2.25 1.203125,0 2.203125,-0.984375 2.203125,-2.25 z m -2.1875,2 c -0.4375,0 -0.875,-0.203125 -1.140625,-0.671875 -0.25,-0.4375 -0.25,-1.046875 -0.25,-1.40625 0,-0.390625 0,-0.921875 0.234375,-1.359375 C 1.609375,-4.03125 2.078125,-4.25 2.484375,-4.25 c 0.4375,0 0.859375,0.21875 1.125,0.65625 0.265625,0.421875 0.265625,1 0.265625,1.375 0,0.359375 0,0.90625 -0.21875,1.34375 C 3.421875,-0.421875 2.984375,-0.140625 2.5,-0.140625 Z m 0,0"
               id="path736" />
          </g>
        </g>
        <g
           style="fill:#000000;fill-opacity:1"
           id="g746">
          <g
             id="g744"
             transform="translate(24.075619,6.8080001)">
            <path
               style="stroke:none"
               d="m 1.265625,-0.765625 1.0625,-1.03125 c 1.546875,-1.375 2.140625,-1.90625 2.140625,-2.90625 0,-1.140625 -0.890625,-1.9375 -2.109375,-1.9375 -1.125,0 -1.859375,0.921875 -1.859375,1.8125 0,0.546875 0.5,0.546875 0.53125,0.546875 0.171875,0 0.515625,-0.109375 0.515625,-0.53125 0,-0.25 -0.1875,-0.515625 -0.53125,-0.515625 -0.078125,0 -0.09375,0 -0.125,0.015625 0.21875,-0.65625 0.765625,-1.015625 1.34375,-1.015625 0.90625,0 1.328125,0.8125 1.328125,1.625 C 3.5625,-3.90625 3.078125,-3.125 2.515625,-2.5 l -1.90625,2.125 C 0.5,-0.265625 0.5,-0.234375 0.5,0 H 4.203125 L 4.46875,-1.734375 H 4.234375 C 4.171875,-1.4375 4.109375,-1 4,-0.84375 3.9375,-0.765625 3.28125,-0.765625 3.0625,-0.765625 Z m 0,0"
               id="path742" />
          </g>
        </g>
      </g>
    </g>
    <g
       inkscape:label=""
       transform="matrix(1.2904989,0,0,1.2904989,229.67552,84.366185)"
       id="g935">
      <g
         id="g933"
         transform="matrix(1.33333,0,0,1.33333,-0.479167,-0.0773335)">
        <g
           clip-path="url(#clipPath7587)"
           clip-rule="nonzero"
           id="g919">
          <g
             style="fill:#000000;fill-opacity:1"
             id="g917">
            <g
               id="g907"
               transform="translate(0,6.8080001)">
              <path
                 style="stroke:none"
                 d="m 6.640625,-6.75 h -6.09375 l -0.1875,2.25 h 0.25 C 0.75,-6.109375 0.890625,-6.4375 2.40625,-6.4375 c 0.171875,0 0.4375,0 0.53125,0.015625 0.21875,0.046875 0.21875,0.15625 0.21875,0.375 v 5.265625 c 0,0.328125 0,0.46875 -1.046875,0.46875 H 1.703125 V 0 C 2.109375,-0.03125 3.125,-0.03125 3.59375,-0.03125 c 0.453125,0 1.484375,0 1.890625,0.03125 v -0.3125 h -0.40625 c -1.046875,0 -1.046875,-0.140625 -1.046875,-0.46875 v -5.265625 c 0,-0.1875 0,-0.328125 0.1875,-0.375 0.109375,-0.015625 0.375,-0.015625 0.5625,-0.015625 1.515625,0 1.65625,0.328125 1.796875,1.9375 h 0.25 z m 0,0"
                 id="path905" />
            </g>
            <g
               id="g911"
               transform="translate(7.1949902,6.8080001)">
              <path
                 style="stroke:none"
                 d="M 1.765625,-4.40625 0.375,-4.296875 v 0.3125 c 0.640625,0 0.734375,0.0625 0.734375,0.546875 V -0.75 c 0,0.4375 -0.109375,0.4375 -0.78125,0.4375 V 0 C 0.640625,-0.015625 1.1875,-0.03125 1.421875,-0.03125 1.78125,-0.03125 2.125,-0.015625 2.46875,0 v -0.3125 c -0.671875,0 -0.703125,-0.046875 -0.703125,-0.4375 z m 0.03125,-1.734375 c 0,-0.3125 -0.234375,-0.53125 -0.515625,-0.53125 -0.3125,0 -0.53125,0.265625 -0.53125,0.53125 0,0.265625 0.21875,0.53125 0.53125,0.53125 0.28125,0 0.515625,-0.21875 0.515625,-0.53125 z m 0,0"
                 id="path909" />
            </g>
            <g
               id="g915"
               transform="translate(9.9625998,6.8080001)">
              <path
                 style="stroke:none"
                 d="m 1.71875,-3.75 v -0.65625 l -1.4375,0.109375 v 0.3125 c 0.703125,0 0.78125,0.0625 0.78125,0.5 v 4.65625 C 1.0625,1.625 0.953125,1.625 0.28125,1.625 V 1.9375 C 0.625,1.921875 1.140625,1.90625 1.390625,1.90625 c 0.28125,0 0.78125,0.015625 1.125,0.03125 V 1.625 C 1.859375,1.625 1.75,1.625 1.75,1.171875 V -0.59375 c 0.046875,0.171875 0.46875,0.703125 1.21875,0.703125 1.1875,0 2.21875,-0.984375 2.21875,-2.265625 0,-1.265625 -0.953125,-2.25 -2.078125,-2.25 -0.78125,0 -1.203125,0.4375 -1.390625,0.65625 z M 1.75,-1.140625 v -2.21875 C 2.03125,-3.875 2.515625,-4.15625 3.03125,-4.15625 c 0.734375,0 1.328125,0.875 1.328125,2 0,1.203125 -0.6875,2.046875 -1.421875,2.046875 -0.40625,0 -0.78125,-0.203125 -1.046875,-0.609375 C 1.75,-0.921875 1.75,-0.9375 1.75,-1.140625 Z m 0,0"
                 id="path913" />
            </g>
          </g>
        </g>
        <g
           style="fill:#000000;fill-opacity:1"
           id="g925">
          <g
             id="g923"
             transform="translate(15.776773,6.8080001)">
            <path
               style="stroke:none"
               d="M 4.6875,-2.140625 C 4.6875,-3.40625 3.703125,-4.46875 2.5,-4.46875 c -1.25,0 -2.21875,1.09375 -2.21875,2.328125 0,1.296875 1.03125,2.25 2.203125,2.25 1.203125,0 2.203125,-0.984375 2.203125,-2.25 z m -2.1875,2 c -0.4375,0 -0.875,-0.203125 -1.140625,-0.671875 -0.25,-0.4375 -0.25,-1.046875 -0.25,-1.40625 0,-0.390625 0,-0.921875 0.234375,-1.359375 C 1.609375,-4.03125 2.078125,-4.25 2.484375,-4.25 c 0.4375,0 0.859375,0.21875 1.125,0.65625 0.265625,0.421875 0.265625,1 0.265625,1.375 0,0.359375 0,0.90625 -0.21875,1.34375 C 3.421875,-0.421875 2.984375,-0.140625 2.5,-0.140625 Z m 0,0"
               id="path921" />
          </g>
        </g>
        <g
           style="fill:#000000;fill-opacity:1"
           id="g931">
          <g
             id="g929"
             transform="translate(24.075619,6.8080001)">
            <path
               style="stroke:none"
               d="m 2.890625,-3.515625 c 0.8125,-0.265625 1.390625,-0.953125 1.390625,-1.75 0,-0.8125 -0.875,-1.375 -1.828125,-1.375 -1,0 -1.765625,0.59375 -1.765625,1.359375 0,0.328125 0.21875,0.515625 0.515625,0.515625 0.296875,0 0.5,-0.21875 0.5,-0.515625 0,-0.484375 -0.46875,-0.484375 -0.609375,-0.484375 0.296875,-0.5 0.953125,-0.625 1.3125,-0.625 0.421875,0 0.96875,0.21875 0.96875,1.109375 0,0.125 -0.03125,0.703125 -0.28125,1.140625 C 2.796875,-3.65625 2.453125,-3.625 2.203125,-3.625 2.125,-3.609375 1.890625,-3.59375 1.8125,-3.59375 c -0.078125,0.015625 -0.140625,0.03125 -0.140625,0.125 0,0.109375 0.0625,0.109375 0.234375,0.109375 h 0.4375 c 0.8125,0 1.1875,0.671875 1.1875,1.65625 0,1.359375 -0.6875,1.640625 -1.125,1.640625 -0.4375,0 -1.1875,-0.171875 -1.53125,-0.75 0.34375,0.046875 0.65625,-0.171875 0.65625,-0.546875 0,-0.359375 -0.265625,-0.5625 -0.546875,-0.5625 -0.25,0 -0.5625,0.140625 -0.5625,0.578125 0,0.90625 0.921875,1.5625 2.015625,1.5625 1.21875,0 2.125,-0.90625 2.125,-1.921875 0,-0.8125 -0.640625,-1.59375 -1.671875,-1.8125 z m 0,0"
               id="path927" />
          </g>
        </g>
      </g>
    </g>
  </g>
</svg>
