<?xml version="1.0" encoding="utf-8" standalone="no"?>
<!DOCTYPE svg PUBLIC "-//W3C//DTD SVG 1.1//EN"
  "http://www.w3.org/Graphics/SVG/1.1/DTD/svg11.dtd">
<!-- Created with matplotlib (https://matplotlib.org/) -->
<svg height="205.543357pt" version="1.1" viewBox="0 0 132.336877 205.543357" width="132.336877pt" xmlns="http://www.w3.org/2000/svg" xmlns:xlink="http://www.w3.org/1999/xlink">
 <metadata>
  <rdf:RDF xmlns:cc="http://creativecommons.org/ns#" xmlns:dc="http://purl.org/dc/elements/1.1/" xmlns:rdf="http://www.w3.org/1999/02/22-rdf-syntax-ns#">
   <cc:Work>
    <dc:type rdf:resource="http://purl.org/dc/dcmitype/StillImage"/>
    <dc:date>2022-02-02T00:44:47.776099</dc:date>
    <dc:format>image/svg+xml</dc:format>
    <dc:creator>
     <cc:Agent>
      <dc:title>Matplotlib v3.3.4, https://matplotlib.org/</dc:title>
     </cc:Agent>
    </dc:creator>
   </cc:Work>
  </rdf:RDF>
 </metadata>
 <defs>
  <style type="text/css">*{stroke-linecap:butt;stroke-linejoin:round;}</style>
 </defs>
 <g id="figure_1">
  <g id="patch_1">
   <path d="M 0 205.543357 
L 132.336877 205.543357 
L 132.336877 0 
L 0 0 
z
" style="fill:#ffffff;"/>
  </g>
  <g id="axes_1">
   <g id="patch_2">
    <path d="M 11.751826 181.646462 
L 107.856877 181.646462 
L 107.856877 30.685 
L 11.751826 30.685 
z
" style="fill:#ffffff;"/>
   </g>
   <g id="matplotlib.axis_1">
    <g id="xtick_1">
     <g id="line2d_1">
      <defs>
       <path d="M 0 0 
L 0 3.5 
" id="me442133b95" style="stroke:#000000;stroke-width:0.8;"/>
      </defs>
      <g>
       <use style="stroke:#000000;stroke-width:0.8;" x="13.6" xlink:href="#me442133b95" y="178.743357"/>
      </g>
     </g>
     <g id="text_1">
      <!-- $-1$ -->
      <g transform="translate(7.2 193.341794)scale(0.1 -0.1)">
       <defs>
        <path d="M 10.203125 23 
Q 9.375 23 8.828125 23.625 
Q 8.296875 24.265625 8.296875 25 
Q 8.296875 25.734375 8.828125 26.359375 
Q 9.375 27 10.203125 27 
L 67.578125 27 
Q 68.359375 27 68.875 26.359375 
Q 69.390625 25.734375 69.390625 25 
Q 69.390625 24.265625 68.875 23.625 
Q 68.359375 23 67.578125 23 
z
" id="Cmsy10-161"/>
        <path d="M 9.28125 0 
L 9.28125 3.515625 
Q 21.78125 3.515625 21.78125 6.6875 
L 21.78125 59.1875 
Q 16.609375 56.6875 8.6875 56.6875 
L 8.6875 60.203125 
Q 20.953125 60.203125 27.203125 66.609375 
L 28.609375 66.609375 
Q 28.953125 66.609375 29.265625 66.328125 
Q 29.59375 66.0625 29.59375 65.71875 
L 29.59375 6.6875 
Q 29.59375 3.515625 42.09375 3.515625 
L 42.09375 0 
z
" id="Cmr10-49"/>
       </defs>
       <use transform="translate(0 0.390625)" xlink:href="#Cmsy10-161"/>
       <use transform="translate(77.685547 0.390625)" xlink:href="#Cmr10-49"/>
      </g>
     </g>
    </g>
    <g id="xtick_2">
     <g id="line2d_2">
      <g>
       <use style="stroke:#000000;stroke-width:0.8;" x="36.702176" xlink:href="#me442133b95" y="178.743357"/>
      </g>
     </g>
     <g id="text_2">
      <!-- $-\frac{1}{2}$ -->
      <g transform="translate(30.402176 194.243357)scale(0.1 -0.1)">
       <defs>
        <path d="M 4.984375 0 
L 4.984375 2.6875 
Q 4.984375 2.9375 5.171875 3.21875 
L 20.703125 20.40625 
Q 24.21875 24.21875 26.40625 26.796875 
Q 28.609375 29.390625 30.75 32.765625 
Q 32.90625 36.140625 34.15625 39.625 
Q 35.40625 43.109375 35.40625 47.015625 
Q 35.40625 51.125 33.890625 54.859375 
Q 32.375 58.59375 29.375 60.84375 
Q 26.375 63.09375 22.125 63.09375 
Q 17.78125 63.09375 14.3125 60.46875 
Q 10.84375 57.859375 9.421875 53.71875 
Q 9.8125 53.8125 10.5 53.8125 
Q 12.75 53.8125 14.328125 52.296875 
Q 15.921875 50.78125 15.921875 48.390625 
Q 15.921875 46.09375 14.328125 44.5 
Q 12.75 42.921875 10.5 42.921875 
Q 8.15625 42.921875 6.5625 44.546875 
Q 4.984375 46.1875 4.984375 48.390625 
Q 4.984375 52.15625 6.390625 55.4375 
Q 7.8125 58.734375 10.46875 61.296875 
Q 13.140625 63.875 16.484375 65.234375 
Q 19.828125 66.609375 23.578125 66.609375 
Q 29.296875 66.609375 34.21875 64.1875 
Q 39.15625 61.765625 42.03125 57.34375 
Q 44.921875 52.9375 44.921875 47.015625 
Q 44.921875 42.671875 43.015625 38.765625 
Q 41.109375 34.859375 38.125 31.65625 
Q 35.15625 28.46875 30.515625 24.40625 
Q 25.875 20.359375 24.421875 19 
L 13.09375 8.109375 
L 22.703125 8.109375 
Q 29.78125 8.109375 34.546875 8.21875 
Q 39.3125 8.34375 39.59375 8.59375 
Q 40.765625 9.859375 42 17.828125 
L 44.921875 17.828125 
L 42.09375 0 
z
" id="Cmr10-50"/>
       </defs>
       <use transform="translate(0 0.873437)" xlink:href="#Cmsy10-161"/>
       <use transform="translate(77.685547 38.373438)scale(0.7)" xlink:href="#Cmr10-49"/>
       <use transform="translate(77.685547 -39.503125)scale(0.7)" xlink:href="#Cmr10-50"/>
       <path d="M 77.685547 13.373437 
L 77.685547 19.623437 
L 112.685547 19.623437 
L 112.685547 13.373437 
L 77.685547 13.373437 
z
"/>
      </g>
     </g>
    </g>
    <g id="xtick_3">
     <g id="line2d_3">
      <g>
       <use style="stroke:#000000;stroke-width:0.8;" x="59.804352" xlink:href="#me442133b95" y="178.743357"/>
      </g>
     </g>
    </g>
    <g id="xtick_4">
     <g id="line2d_4">
      <g>
       <use style="stroke:#000000;stroke-width:0.8;" x="82.906527" xlink:href="#me442133b95" y="178.743357"/>
      </g>
     </g>
     <g id="text_3">
      <!-- $\frac{1}{2}$ -->
      <g transform="translate(80.506527 194.243357)scale(0.1 -0.1)">
       <use transform="translate(0 38.373438)scale(0.7)" xlink:href="#Cmr10-49"/>
       <use transform="translate(0 -39.503125)scale(0.7)" xlink:href="#Cmr10-50"/>
       <path d="M 0 13.373437 
L 0 19.623437 
L 35 19.623437 
L 35 13.373437 
L 0 13.373437 
z
"/>
      </g>
     </g>
    </g>
    <g id="xtick_5">
     <g id="line2d_5">
      <g>
       <use style="stroke:#000000;stroke-width:0.8;" x="106.008703" xlink:href="#me442133b95" y="178.743357"/>
      </g>
     </g>
     <g id="text_4">
      <!-- $1$ -->
      <g transform="translate(103.508703 193.341794)scale(0.1 -0.1)">
       <use transform="translate(0 0.390625)" xlink:href="#Cmr10-49"/>
      </g>
     </g>
    </g>
    <g id="xtick_6">
     <g id="line2d_6">
      <defs>
       <path d="M 0 0 
L 0 2 
" id="m80c29e2e7e" style="stroke:#000000;stroke-width:0.6;"/>
      </defs>
      <g>
       <use style="stroke:#000000;stroke-width:0.6;" x="18.220435" xlink:href="#m80c29e2e7e" y="178.743357"/>
      </g>
     </g>
    </g>
    <g id="xtick_7">
     <g id="line2d_7">
      <g>
       <use style="stroke:#000000;stroke-width:0.6;" x="22.84087" xlink:href="#m80c29e2e7e" y="178.743357"/>
      </g>
     </g>
    </g>
    <g id="xtick_8">
     <g id="line2d_8">
      <g>
       <use style="stroke:#000000;stroke-width:0.6;" x="27.461305" xlink:href="#m80c29e2e7e" y="178.743357"/>
      </g>
     </g>
    </g>
    <g id="xtick_9">
     <g id="line2d_9">
      <g>
       <use style="stroke:#000000;stroke-width:0.6;" x="32.081741" xlink:href="#m80c29e2e7e" y="178.743357"/>
      </g>
     </g>
    </g>
    <g id="xtick_10">
     <g id="line2d_10">
      <g>
       <use style="stroke:#000000;stroke-width:0.6;" x="41.322611" xlink:href="#m80c29e2e7e" y="178.743357"/>
      </g>
     </g>
    </g>
    <g id="xtick_11">
     <g id="line2d_11">
      <g>
       <use style="stroke:#000000;stroke-width:0.6;" x="45.943046" xlink:href="#m80c29e2e7e" y="178.743357"/>
      </g>
     </g>
    </g>
    <g id="xtick_12">
     <g id="line2d_12">
      <g>
       <use style="stroke:#000000;stroke-width:0.6;" x="50.563481" xlink:href="#m80c29e2e7e" y="178.743357"/>
      </g>
     </g>
    </g>
    <g id="xtick_13">
     <g id="line2d_13">
      <g>
       <use style="stroke:#000000;stroke-width:0.6;" x="55.183916" xlink:href="#m80c29e2e7e" y="178.743357"/>
      </g>
     </g>
    </g>
    <g id="xtick_14">
     <g id="line2d_14">
      <g>
       <use style="stroke:#000000;stroke-width:0.6;" x="64.424787" xlink:href="#m80c29e2e7e" y="178.743357"/>
      </g>
     </g>
    </g>
    <g id="xtick_15">
     <g id="line2d_15">
      <g>
       <use style="stroke:#000000;stroke-width:0.6;" x="69.045222" xlink:href="#m80c29e2e7e" y="178.743357"/>
      </g>
     </g>
    </g>
    <g id="xtick_16">
     <g id="line2d_16">
      <g>
       <use style="stroke:#000000;stroke-width:0.6;" x="73.665657" xlink:href="#m80c29e2e7e" y="178.743357"/>
      </g>
     </g>
    </g>
    <g id="xtick_17">
     <g id="line2d_17">
      <g>
       <use style="stroke:#000000;stroke-width:0.6;" x="78.286092" xlink:href="#m80c29e2e7e" y="178.743357"/>
      </g>
     </g>
    </g>
    <g id="xtick_18">
     <g id="line2d_18">
      <g>
       <use style="stroke:#000000;stroke-width:0.6;" x="87.526963" xlink:href="#m80c29e2e7e" y="178.743357"/>
      </g>
     </g>
    </g>
    <g id="xtick_19">
     <g id="line2d_19">
      <g>
       <use style="stroke:#000000;stroke-width:0.6;" x="92.147398" xlink:href="#m80c29e2e7e" y="178.743357"/>
      </g>
     </g>
    </g>
    <g id="xtick_20">
     <g id="line2d_20">
      <g>
       <use style="stroke:#000000;stroke-width:0.6;" x="96.767833" xlink:href="#m80c29e2e7e" y="178.743357"/>
      </g>
     </g>
    </g>
    <g id="xtick_21">
     <g id="line2d_21">
      <g>
       <use style="stroke:#000000;stroke-width:0.6;" x="101.388268" xlink:href="#m80c29e2e7e" y="178.743357"/>
      </g>
     </g>
    </g>
    <g id="text_5">
     <!-- $x$ -->
     <g transform="translate(115.856877 178.743357)scale(0.16 -0.16)">
      <defs>
       <path d="M 7.8125 2.875 
Q 9.578125 1.515625 12.796875 1.515625 
Q 15.921875 1.515625 18.3125 4.515625 
Q 20.703125 7.515625 21.578125 11.078125 
L 26.125 28.8125 
Q 27.203125 33.640625 27.203125 35.40625 
Q 27.203125 37.890625 25.8125 39.75 
Q 24.421875 41.609375 21.921875 41.609375 
Q 18.75 41.609375 15.96875 39.625 
Q 13.1875 37.640625 11.28125 34.59375 
Q 9.375 31.546875 8.59375 28.421875 
Q 8.40625 27.78125 7.8125 27.78125 
L 6.59375 27.78125 
Q 5.8125 27.78125 5.8125 28.71875 
L 5.8125 29 
Q 6.78125 32.71875 9.125 36.25 
Q 11.46875 39.796875 14.859375 41.984375 
Q 18.265625 44.1875 22.125 44.1875 
Q 25.78125 44.1875 28.734375 42.234375 
Q 31.6875 40.28125 32.90625 36.921875 
Q 34.625 39.984375 37.28125 42.078125 
Q 39.9375 44.1875 43.109375 44.1875 
Q 45.265625 44.1875 47.5 43.421875 
Q 49.75 42.671875 51.171875 41.109375 
Q 52.59375 39.546875 52.59375 37.203125 
Q 52.59375 34.671875 50.953125 32.828125 
Q 49.3125 31 46.78125 31 
Q 45.171875 31 44.09375 32.03125 
Q 43.015625 33.0625 43.015625 34.625 
Q 43.015625 36.71875 44.453125 38.296875 
Q 45.90625 39.890625 47.90625 40.1875 
Q 46.09375 41.609375 42.921875 41.609375 
Q 39.703125 41.609375 37.328125 38.625 
Q 34.96875 35.640625 33.984375 31.984375 
L 29.59375 14.3125 
Q 28.515625 10.296875 28.515625 7.71875 
Q 28.515625 5.171875 29.953125 3.34375 
Q 31.390625 1.515625 33.796875 1.515625 
Q 38.484375 1.515625 42.15625 5.640625 
Q 45.84375 9.765625 47.015625 14.703125 
Q 47.21875 15.28125 47.796875 15.28125 
L 49.03125 15.28125 
Q 49.421875 15.28125 49.65625 15.015625 
Q 49.90625 14.75 49.90625 14.40625 
Q 49.90625 14.3125 49.8125 14.109375 
Q 48.390625 8.15625 43.84375 3.515625 
Q 39.3125 -1.125 33.59375 -1.125 
Q 29.9375 -1.125 26.984375 0.84375 
Q 24.03125 2.828125 22.796875 6.203125 
Q 21.234375 3.265625 18.46875 1.0625 
Q 15.71875 -1.125 12.59375 -1.125 
Q 10.453125 -1.125 8.171875 -0.359375 
Q 5.90625 0.390625 4.484375 1.953125 
Q 3.078125 3.515625 3.078125 5.90625 
Q 3.078125 8.25 4.703125 10.171875 
Q 6.34375 12.109375 8.796875 12.109375 
Q 10.453125 12.109375 11.578125 11.109375 
Q 12.703125 10.109375 12.703125 8.5 
Q 12.703125 6.390625 11.296875 4.828125 
Q 9.90625 3.265625 7.8125 2.875 
z
" id="Cmmi10-120"/>
      </defs>
      <use transform="translate(0 0.8125)" xlink:href="#Cmmi10-120"/>
     </g>
    </g>
   </g>
   <g id="matplotlib.axis_2">
    <g id="ytick_1">
     <g id="line2d_22">
      <defs>
       <path d="M 0 0 
L -3.5 0 
" id="m2510b3d682" style="stroke:#000000;stroke-width:0.8;"/>
      </defs>
      <g>
       <use style="stroke:#000000;stroke-width:0.8;" x="59.804352" xlink:href="#m2510b3d682" y="178.743357"/>
      </g>
     </g>
    </g>
    <g id="ytick_2">
     <g id="line2d_23">
      <g>
       <use style="stroke:#000000;stroke-width:0.8;" x="59.804352" xlink:href="#m2510b3d682" y="106.165731"/>
      </g>
     </g>
     <g id="text_6">
      <!-- $\frac{1}{2} \, \pi$ -->
      <g transform="translate(40.804352 110.415731)scale(0.1 -0.1)">
       <defs>
        <path d="M 10.109375 1.703125 
Q 10.109375 2.25 10.5 3.328125 
Q 13.28125 9.125 15.6875 14.71875 
Q 18.109375 20.3125 20.03125 25.609375 
Q 21.96875 30.90625 23.578125 36.921875 
L 17.1875 36.921875 
Q 13.53125 36.921875 10.34375 34.625 
Q 7.171875 32.328125 5.078125 28.8125 
Q 4.890625 28.421875 4.5 28.421875 
L 3.328125 28.421875 
Q 2.390625 28.421875 2.390625 29.390625 
Q 2.390625 29.59375 2.59375 29.984375 
Q 5.859375 35.546875 9.59375 39.328125 
Q 13.328125 43.109375 18.015625 43.109375 
L 54.296875 43.109375 
Q 55.328125 43.109375 56.046875 42.421875 
Q 56.78125 41.75 56.78125 40.578125 
Q 56.78125 39.109375 55.734375 38.015625 
Q 54.6875 36.921875 53.21875 36.921875 
L 40.484375 36.921875 
Q 38.875 29.046875 38.71875 21.578125 
Q 38.71875 11.96875 42.09375 4.203125 
Q 42.390625 3.609375 42.390625 2.984375 
Q 42.390625 1.90625 41.75 0.96875 
Q 41.109375 0.046875 40.109375 -0.53125 
Q 39.109375 -1.125 37.984375 -1.125 
Q 35.359375 -1.125 34.375 3.171875 
Q 33.40625 7.46875 33.40625 11.53125 
Q 33.40625 17.234375 34.375 22.53125 
Q 35.359375 27.828125 37.5 36.921875 
L 26.609375 36.921875 
Q 18.703125 4.890625 17.09375 1.609375 
Q 15.671875 -1.125 13.1875 -1.125 
Q 11.96875 -1.125 11.03125 -0.3125 
Q 10.109375 0.484375 10.109375 1.703125 
z
" id="Cmmi10-188"/>
       </defs>
       <use transform="translate(0 38.373438)scale(0.7)" xlink:href="#Cmr10-49"/>
       <use transform="translate(0 -39.503125)scale(0.7)" xlink:href="#Cmr10-50"/>
       <use transform="translate(62.132454 0.873437)" xlink:href="#Cmmi10-188"/>
       <path d="M 0 13.373437 
L 0 19.623437 
L 35 19.623437 
L 35 13.373437 
L 0 13.373437 
z
"/>
      </g>
     </g>
    </g>
    <g id="ytick_3">
     <g id="line2d_24">
      <g>
       <use style="stroke:#000000;stroke-width:0.8;" x="59.804352" xlink:href="#m2510b3d682" y="33.588105"/>
      </g>
     </g>
     <g id="text_7">
      <!-- $\pi$ -->
      <g transform="translate(47.104352 37.387324)scale(0.1 -0.1)">
       <use transform="translate(0 0.890625)" xlink:href="#Cmmi10-188"/>
      </g>
     </g>
    </g>
    <g id="ytick_4">
     <g id="line2d_25">
      <defs>
       <path d="M 0 0 
L -2 0 
" id="m9cf807095a" style="stroke:#000000;stroke-width:0.6;"/>
      </defs>
      <g>
       <use style="stroke:#000000;stroke-width:0.6;" x="59.804352" xlink:href="#m9cf807095a" y="160.59895"/>
      </g>
     </g>
    </g>
    <g id="ytick_5">
     <g id="line2d_26">
      <g>
       <use style="stroke:#000000;stroke-width:0.6;" x="59.804352" xlink:href="#m9cf807095a" y="142.454544"/>
      </g>
     </g>
    </g>
    <g id="ytick_6">
     <g id="line2d_27">
      <g>
       <use style="stroke:#000000;stroke-width:0.6;" x="59.804352" xlink:href="#m9cf807095a" y="124.310137"/>
      </g>
     </g>
    </g>
    <g id="ytick_7">
     <g id="line2d_28">
      <g>
       <use style="stroke:#000000;stroke-width:0.6;" x="59.804352" xlink:href="#m9cf807095a" y="88.021324"/>
      </g>
     </g>
    </g>
    <g id="ytick_8">
     <g id="line2d_29">
      <g>
       <use style="stroke:#000000;stroke-width:0.6;" x="59.804352" xlink:href="#m9cf807095a" y="69.876918"/>
      </g>
     </g>
    </g>
    <g id="ytick_9">
     <g id="line2d_30">
      <g>
       <use style="stroke:#000000;stroke-width:0.6;" x="59.804352" xlink:href="#m9cf807095a" y="51.732511"/>
      </g>
     </g>
    </g>
    <g id="text_8">
     <!-- $y$ -->
     <g transform="translate(55.804352 19.325)scale(0.16 -0.16)">
      <defs>
       <path d="M 8.40625 -14.3125 
Q 10.5 -17.921875 15.71875 -17.921875 
Q 20.453125 -17.921875 23.921875 -14.59375 
Q 27.390625 -11.28125 29.515625 -6.5625 
Q 31.640625 -1.859375 32.8125 3.078125 
Q 28.375 -1.125 23.1875 -1.125 
Q 19.234375 -1.125 16.453125 0.234375 
Q 13.671875 1.609375 12.125 4.3125 
Q 10.59375 7.03125 10.59375 10.890625 
Q 10.59375 14.15625 11.46875 17.59375 
Q 12.359375 21.046875 13.9375 25.265625 
Q 15.53125 29.5 16.703125 32.625 
Q 18.015625 36.28125 18.015625 38.625 
Q 18.015625 41.609375 15.828125 41.609375 
Q 11.859375 41.609375 9.296875 37.53125 
Q 6.734375 33.453125 5.515625 28.421875 
Q 5.328125 27.78125 4.6875 27.78125 
L 3.515625 27.78125 
Q 2.6875 27.78125 2.6875 28.71875 
L 2.6875 29 
Q 4.296875 34.96875 7.609375 39.578125 
Q 10.9375 44.1875 16.015625 44.1875 
Q 19.578125 44.1875 22.046875 41.84375 
Q 24.515625 39.5 24.515625 35.890625 
Q 24.515625 34.03125 23.6875 31.984375 
Q 23.25 30.765625 21.6875 26.65625 
Q 20.125 22.5625 19.28125 19.875 
Q 18.453125 17.1875 17.921875 14.59375 
Q 17.390625 12.015625 17.390625 9.421875 
Q 17.390625 6.109375 18.796875 3.8125 
Q 20.21875 1.515625 23.296875 1.515625 
Q 29.5 1.515625 34.421875 9.078125 
L 42 39.890625 
Q 42.328125 41.21875 43.546875 42.15625 
Q 44.78125 43.109375 46.1875 43.109375 
Q 47.40625 43.109375 48.3125 42.328125 
Q 49.21875 41.546875 49.21875 40.28125 
Q 49.21875 39.703125 49.125 39.5 
L 39.203125 -0.296875 
Q 37.890625 -5.421875 34.375 -10.109375 
Q 30.859375 -14.796875 25.90625 -17.65625 
Q 20.953125 -20.515625 15.578125 -20.515625 
Q 12.984375 -20.515625 10.4375 -19.5 
Q 7.90625 -18.5 6.34375 -16.5 
Q 4.78125 -14.5 4.78125 -11.8125 
Q 4.78125 -9.078125 6.390625 -7.078125 
Q 8.015625 -5.078125 10.6875 -5.078125 
Q 12.3125 -5.078125 13.40625 -6.078125 
Q 14.5 -7.078125 14.5 -8.6875 
Q 14.5 -10.984375 12.78125 -12.6875 
Q 11.078125 -14.40625 8.796875 -14.40625 
Q 8.6875 -14.359375 8.59375 -14.328125 
Q 8.5 -14.3125 8.40625 -14.3125 
z
" id="Cmmi10-121"/>
      </defs>
      <use transform="translate(0 0.8125)" xlink:href="#Cmmi10-121"/>
     </g>
    </g>
   </g>
   <g id="line2d_31">
    <path clip-path="url(#p40ce88e4ac)" d="M 13.6 33.588105 
L 13.74823 37.290145 
L 14.118806 40.518631 
L 14.734624 43.848762 
L 15.563667 47.106981 
L 16.552802 50.19598 
L 17.911917 53.708125 
L 19.451914 57.095225 
L 21.421816 60.867611 
L 23.818063 64.913043 
L 26.680548 69.232624 
L 29.808644 73.521076 
L 33.605339 78.30962 
L 37.949338 83.400782 
L 42.732771 88.679727 
L 48.856291 95.112546 
L 58.004629 104.365553 
L 71.903088 118.407178 
L 78.520399 125.43556 
L 83.485688 131.029872 
L 87.375167 135.708828 
L 90.765286 140.094786 
L 93.709249 144.233646 
L 96.386072 148.380255 
L 98.738444 152.47107 
L 100.637744 156.243383 
L 102.237267 159.945465 
L 103.498667 163.443676 
L 104.42238 166.601006 
L 105.179164 169.974824 
L 105.68789 173.295398 
L 105.958576 176.590914 
L 106.008703 178.743357 
L 106.008703 178.743357 
" style="fill:none;stroke:#0000ff;stroke-linecap:square;"/>
   </g>
   <g id="patch_3">
    <path d="M 59.804352 181.646462 
L 59.804352 30.685 
" style="fill:none;stroke:#000000;stroke-linecap:square;stroke-linejoin:miter;stroke-width:0.8;"/>
   </g>
   <g id="patch_4">
    <path d="M 11.751826 178.743357 
L 107.856877 178.743357 
" style="fill:none;stroke:#000000;stroke-linecap:square;stroke-linejoin:miter;stroke-width:0.8;"/>
   </g>
  </g>
 </g>
 <defs>
  <clipPath id="p40ce88e4ac">
   <rect height="150.961462" width="96.105051" x="11.751826" y="30.685"/>
  </clipPath>
 </defs>
</svg>
