<?xml version="1.0" encoding="UTF-8" standalone="no"?>
<svg
   xmlns:dc="http://purl.org/dc/elements/1.1/"
   xmlns:cc="http://creativecommons.org/ns#"
   xmlns:rdf="http://www.w3.org/1999/02/22-rdf-syntax-ns#"
   xmlns:svg="http://www.w3.org/2000/svg"
   xmlns="http://www.w3.org/2000/svg"
   xmlns:sodipodi="http://sodipodi.sourceforge.net/DTD/sodipodi-0.dtd"
   xmlns:inkscape="http://www.inkscape.org/namespaces/inkscape"
   width="62mm"
   height="34mm"
   viewBox="0 0 62 34"
   version="1.1"
   id="svg8"
   inkscape:version="1.0.2 (e86c870879, 2021-01-15)"
   sodipodi:docname="apoio.svg"
   inkscape:export-filename="/home/ricardo/Insync/PC Sync/POTI 2021 certificados/plano_fundo.png"
   inkscape:export-xdpi="96"
   inkscape:export-ydpi="96">
  <defs
     id="defs2">
    <clipPath
       id="clipPath5658"
       clipPathUnits="userSpaceOnUse">
      <path
         inkscape:connector-curvature="0"
         id="path5660"
         d="m 0,7.0625 h 5950 v 8405.87 H 0 Z" />
    </clipPath>
    <clipPath
       id="clipPath5526"
       clipPathUnits="userSpaceOnUse">
      <path
         inkscape:connector-curvature="0"
         id="path5528"
         d="m 7.1875,7.0625 h 5942.81 v 8404.77 H 7.1875 Z" />
    </clipPath>
  </defs>
  <sodipodi:namedview
     id="base"
     pagecolor="#ffffff"
     bordercolor="#666666"
     borderopacity="1.0"
     inkscape:pageopacity="0.0"
     inkscape:pageshadow="2"
     inkscape:zoom="2.8"
     inkscape:cx="124.19797"
     inkscape:cy="83.592802"
     inkscape:document-units="mm"
     inkscape:current-layer="layer1"
     showgrid="false"
     inkscape:snap-global="false"
     inkscape:window-width="1920"
     inkscape:window-height="965"
     inkscape:window-x="0"
     inkscape:window-y="0"
     inkscape:window-maximized="1"
     inkscape:snap-bbox="true"
     inkscape:bbox-paths="true"
     inkscape:bbox-nodes="true"
     inkscape:snap-bbox-edge-midpoints="true"
     inkscape:snap-bbox-midpoints="true"
     inkscape:object-paths="true"
     inkscape:snap-intersection-paths="true"
     inkscape:snap-smooth-nodes="true"
     inkscape:snap-midpoints="true"
     inkscape:snap-object-midpoints="true"
     inkscape:snap-center="true"
     inkscape:snap-text-baseline="true"
     inkscape:snap-page="true"
     inkscape:document-rotation="0" />
  <metadata
     id="metadata5">
    <rdf:RDF>
      <cc:Work
         rdf:about="">
        <dc:format>image/svg+xml</dc:format>
        <dc:type
           rdf:resource="http://purl.org/dc/dcmitype/StillImage" />
        <dc:title></dc:title>
      </cc:Work>
    </rdf:RDF>
  </metadata>
  <g
     inkscape:label="Camada 1"
     inkscape:groupmode="layer"
     id="layer1"
     transform="translate(0,-87)">
    <g
       id="g1597"
       transform="translate(-0.29566735)" />
    <g
       id="g1703"
       transform="matrix(0.88807551,0,0,0.88807551,-164.63481,-193.79113)">
      <path
         inkscape:connector-curvature="0"
         id="path4552-2"
         style="fill:none;stroke:#999999;stroke-width:0.479671;stroke-linecap:butt;stroke-linejoin:miter;stroke-miterlimit:22.926;stroke-dasharray:none;stroke-opacity:1"
         d="m 240.62883,329.28014 c 0,1.28044 -1.04811,2.3224 -2.32897,2.3224 -1.2803,0 -2.32239,-1.04196 -2.32239,-2.3224 0,-1.28029 1.04209,-2.32225 2.32239,-2.32225 1.28086,0 2.32897,1.04196 2.32897,2.32225 z" />
      <path
         d="m 245.7748,335.83343 c 0,2.53177 -2.06544,4.59721 -4.59161,4.59721 v -0.42588 c 2.29007,0 4.16573,-1.8758 4.16573,-4.17133 0,-2.30154 -1.87566,-4.17734 -4.16573,-4.17734 v -0.42532 c 2.52617,0 4.59161,2.06544 4.59161,4.60266 z m -4.59161,4.59721 c -2.53177,0 -4.60322,-2.06544 -4.60322,-4.59721 0,-2.53722 2.07145,-4.60266 4.60322,-4.60266 v 0.42532 c -2.30168,0 -4.17132,1.8758 -4.17132,4.17734 0,2.29553 1.86964,4.17133 4.17132,4.17133 z"
         style="fill:#008000;fill-opacity:1;fill-rule:evenodd;stroke:#008000;stroke-width:0.139954"
         id="path4554-8"
         inkscape:connector-curvature="0" />
      <path
         d="m 237.18947,332.91077 c 0,1.51277 -1.23104,2.7445 -2.74436,2.7445 v -0.42588 c 1.27764,0 2.31904,-1.04154 2.31904,-2.31862 0,-1.27162 -1.0414,-2.31357 -2.31904,-2.31357 v -0.42532 c 1.51332,0 2.74436,1.23117 2.74436,2.73889 z m -2.74436,2.7445 c -1.50716,0 -2.7389,-1.23173 -2.7389,-2.7445 0,-1.50772 1.23174,-2.73889 2.7389,-2.73889 v 0.42532 c -1.27162,0 -2.31302,1.04195 -2.31302,2.31357 0,1.27708 1.0414,2.31862 2.31302,2.31862 z"
         style="fill:#f7d40d;fill-opacity:1;fill-rule:evenodd;stroke:#f7d40d;stroke-width:0.139954;stroke-opacity:1"
         id="path4564-7"
         inkscape:connector-curvature="0" />
      <path
         d="m 235.97593,327.77838 c 0,1.36945 -1.11642,2.47985 -2.48041,2.47985 v -0.42588 c 1.12775,0 2.05453,-0.92006 2.05453,-2.05397 0,-1.12774 -0.92678,-2.04794 -2.05453,-2.04794 v -0.43176 c 1.36399,0 2.48041,1.11627 2.48041,2.4797 z m -2.48041,2.47985 c -1.36343,0 -2.47984,-1.1104 -2.47984,-2.47985 0,-1.36343 1.11641,-2.4797 2.47984,-2.4797 v 0.43176 c -1.13334,0 -2.05396,0.9202 -2.05396,2.04794 0,1.13391 0.92062,2.05397 2.05396,2.05397 z"
         style="fill:#035dab;fill-opacity:1;fill-rule:evenodd;stroke:#035dab;stroke-width:0.139954;stroke-opacity:1"
         id="path4574-7"
         inkscape:connector-curvature="0" />
      <path
         d="m 241.0333,323.20973 c 0,1.96803 -1.60513,3.57316 -3.57316,3.57316 v -0.42588 c 1.73794,0 3.14728,-1.41479 3.14728,-3.14728 0,-1.73137 -1.40934,-3.14742 -3.14728,-3.14742 v -0.42532 c 1.96803,0 3.57316,1.60513 3.57316,3.57274 z m -3.57316,3.57316 c -1.96761,0 -3.57317,-1.60513 -3.57317,-3.57316 0,-1.96761 1.60556,-3.57274 3.57317,-3.57274 v 0.42532 c -1.73193,0 -3.14729,1.41605 -3.14729,3.14742 0,1.73249 1.41536,3.14728 3.14729,3.14728 z"
         style="fill:#000000;fill-opacity:1;fill-rule:evenodd;stroke:#000000;stroke-width:0.139954"
         id="path4584-8"
         inkscape:connector-curvature="0" />
      <path
         d="m 252.54731,326.58178 c 0,3.34294 -2.72756,6.06448 -6.06504,6.06448 v -0.42588 c 3.10739,0 5.63916,-2.53176 5.63916,-5.6386 0,-3.10096 -2.53177,-5.63273 -5.63916,-5.63273 v -0.42588 c 3.33748,0 6.06504,2.72155 6.06504,6.05861 z m -6.06504,6.06448 c -3.33707,0 -6.05847,-2.72154 -6.05847,-6.06448 0,-3.33706 2.7214,-6.05861 6.05847,-6.05861 v 0.42588 c -3.10684,0 -5.63315,2.53177 -5.63315,5.63273 0,3.10684 2.52631,5.6386 5.63315,5.6386 z"
         style="fill:#ff0000;fill-opacity:1;fill-rule:evenodd;stroke:#ff0000;stroke-width:0.139954"
         id="path4594-2"
         inkscape:connector-curvature="0" />
      <path
         d="m 250.60811,345.3328 v -0.25317 h 0.0115 c 0.1783,0 0.3226,-0.058 0.43134,-0.16725 0.10944,-0.1093 0.16137,-0.25318 0.16137,-0.43735 0,-0.17817 -0.0519,-0.32148 -0.16137,-0.43134 -0.10874,-0.10931 -0.25304,-0.16669 -0.42588,-0.16669 h -0.0169 v -0.25317 c 0.1149,0 0.21818,0.0229 0.32203,0.0694 0.10385,0.0453 0.20125,0.11476 0.28215,0.20126 v -0.29363 c 0,-0.16122 -0.0405,-0.28214 -0.12092,-0.35646 -0.0803,-0.0749 -0.20713,-0.11532 -0.37382,-0.11532 -0.035,0 -0.075,0 -0.10944,0.007 v -0.2417 c 0.0455,0 0.0919,-0.007 0.13239,-0.007 0.25304,0 0.44282,0.063 0.55814,0.1783 0.11476,0.12078 0.17816,0.30496 0.17816,0.56415 v 1.64558 l -0.26451,0.0574 v -0.2876 c -0.0809,0.0919 -0.1783,0.16682 -0.28215,0.21329 -0.0978,0.0453 -0.20713,0.0683 -0.32203,0.0743 z m 0,-2.43939 v 0.2417 c -0.0689,0.007 -0.14374,0.0164 -0.21861,0.0399 -0.1149,0.0284 -0.25318,0.0749 -0.40293,0.13772 l 0.10329,-0.3044 c 0.11532,-0.041 0.22476,-0.069 0.33407,-0.0865 0.0634,-0.0115 0.12624,-0.0235 0.18418,-0.029 z m 0,0.73042 v 0.25317 c -0.17271,0 -0.31644,0.0574 -0.42588,0.17271 -0.12078,0.1093 -0.17816,0.25261 -0.17816,0.42532 0,0.1727 0.0574,0.31713 0.17816,0.43189 0.10944,0.11476 0.25317,0.17271 0.42588,0.17271 v 0.25317 h -0.0175 c -0.23554,0 -0.44281,-0.0864 -0.60404,-0.25317 -0.16682,-0.16123 -0.25318,-0.36234 -0.25318,-0.6046 0,-0.23569 0.0864,-0.4368 0.25318,-0.60349 0.16669,-0.16738 0.3685,-0.24771 0.60404,-0.24771 z m -2.42834,1.70897 v -0.25919 h 0.006 c 0.26452,0 0.48928,-0.0924 0.67836,-0.28145 0.19034,-0.18432 0.28215,-0.4144 0.28215,-0.67906 0,-0.26507 -0.0918,-0.49473 -0.28215,-0.67891 -0.18908,-0.18978 -0.41384,-0.28215 -0.67836,-0.28215 h -0.006 v -0.25318 h 0.006 c 0.20112,0 0.37998,0.0459 0.54666,0.1324 0.16067,0.0918 0.29909,0.21861 0.41385,0.38543 v -1.40345 l 0.25359,-0.0356 v 3.29717 l -0.25359,0.0344 v -0.49474 c -0.12022,0.16669 -0.26465,0.29908 -0.43134,0.38544 -0.16067,0.0863 -0.33953,0.13225 -0.52917,0.13225 h -0.006 z m 0,-2.43394 v 0.25318 c -0.26466,0 -0.48872,0.0924 -0.6785,0.28215 -0.1902,0.18418 -0.28215,0.41384 -0.28215,0.67891 0,0.26466 0.0919,0.49474 0.28215,0.67906 0.18978,0.18908 0.41384,0.28145 0.6785,0.28145 v 0.25919 c -0.34499,0 -0.63861,-0.11532 -0.87416,-0.35156 -0.23624,-0.23554 -0.35156,-0.52315 -0.35156,-0.86814 0,-0.34554 0.11532,-0.63301 0.35156,-0.86323 0.23555,-0.23009 0.52917,-0.35101 0.87416,-0.35101 z m -2.45144,2.43394 v -0.25317 h 0.0115 c 0.17886,0 0.31714,-0.058 0.42588,-0.16725 0.10986,-0.1093 0.16724,-0.25318 0.16724,-0.43735 0,-0.17817 -0.0574,-0.32148 -0.16724,-0.43134 -0.10874,-0.10931 -0.24702,-0.16669 -0.41986,-0.16669 h -0.0175 v -0.25317 c 0.10931,0 0.21875,0.0229 0.31714,0.0694 0.1093,0.0453 0.20111,0.11476 0.28746,0.20126 v -0.29363 c 0,-0.16122 -0.0404,-0.28214 -0.12679,-0.35646 -0.0803,-0.0749 -0.20714,-0.11532 -0.37396,-0.11532 -0.0344,0 -0.0689,0 -0.10385,0.007 v -0.2417 c 0.0465,0 0.0869,-0.007 0.13282,-0.007 0.25318,0 0.43736,0.063 0.55772,0.1783 0.11532,0.12078 0.17326,0.30496 0.17326,0.56415 v 1.64558 l -0.2592,0.0574 v -0.2876 c -0.0863,0.0919 -0.17816,0.16682 -0.282,0.21329 -0.10385,0.0453 -0.20727,0.0683 -0.3226,0.0743 z m 0,-2.43939 v 0.2417 c -0.0688,0.007 -0.14317,0.0164 -0.22406,0.0399 -0.1149,0.0284 -0.24772,0.0749 -0.39691,0.13772 l 0.0978,-0.3044 c 0.11476,-0.041 0.23008,-0.069 0.33952,-0.0865 0.0634,-0.0115 0.12078,-0.0235 0.18362,-0.029 z m 0,0.73042 v 0.25317 c -0.17214,0 -0.31601,0.0574 -0.43133,0.17271 -0.11477,0.1093 -0.17215,0.25261 -0.17215,0.42532 0,0.1727 0.0574,0.31713 0.17215,0.43189 0.11532,0.11476 0.25919,0.17271 0.43133,0.17271 v 0.25317 h -0.0224 c -0.23624,0 -0.43735,-0.0864 -0.60404,-0.25317 -0.16738,-0.16123 -0.24772,-0.36234 -0.24772,-0.6046 0,-0.23569 0.0803,-0.4368 0.24772,-0.60349 0.16669,-0.16738 0.3678,-0.24771 0.60404,-0.24771 z m -3.14672,1.70897 v -0.25919 c 0.26997,0 0.49418,-0.0924 0.68437,-0.28145 0.18432,-0.18432 0.28215,-0.4144 0.28215,-0.67906 0,-0.26507 -0.0978,-0.49473 -0.28215,-0.67891 -0.19019,-0.18978 -0.4144,-0.28215 -0.68437,-0.28215 v -0.25318 c 0.35044,0 0.64393,0.11491 0.88017,0.35101 0.23554,0.23022 0.351,0.51769 0.351,0.86323 0,0.34499 -0.11546,0.6326 -0.351,0.86814 -0.23624,0.23624 -0.52973,0.35156 -0.88017,0.35156 z m 1.63354,-0.0235 v -2.35892 l 0.26507,-0.034 v 2.3585 z m -0.14387,-2.66402 0.48928,-0.79382 h 0.3051 l -0.61006,0.79382 z m -9.86787,2.42834 c 0.38543,0 0.71349,-0.13226 0.9836,-0.40237 0.26507,-0.27053 0.40292,-0.59914 0.40292,-0.99605 0,-0.39691 -0.13239,-0.73042 -0.40292,-1.00095 -0.26466,-0.26465 -0.59271,-0.40237 -0.978,-0.40237 h -0.006 v -0.26465 h 0.006 c 0.21861,0 0.42574,0.0404 0.62153,0.1149 0.1902,0.0749 0.36794,0.18418 0.52371,0.33337 0.17284,0.16137 0.29908,0.34009 0.39145,0.55282 0.0858,0.20713 0.13226,0.43134 0.13226,0.66688 0,0.23078 -0.0465,0.44939 -0.13828,0.66758 -0.0924,0.21259 -0.2186,0.39691 -0.38543,0.55268 -0.15577,0.14919 -0.32805,0.25919 -0.51769,0.33952 -0.19621,0.0743 -0.40293,0.10931 -0.62755,0.10931 h -0.006 v -0.27067 z m 8.3782,-2.17475 v 0.25318 c -0.26521,0 -0.48928,0.0924 -0.67906,0.28159 -0.17872,0.18418 -0.27654,0.4144 -0.27654,0.67891 0,0.26522 0.0978,0.49474 0.27654,0.67906 0.18978,0.18964 0.41385,0.28201 0.67906,0.28201 v 0.25863 c -0.1958,0 -0.37997,-0.0459 -0.5412,-0.13225 -0.16081,-0.0918 -0.29908,-0.21875 -0.4144,-0.38544 v 1.2831 l -0.25864,0.035 v -3.18185 l 0.25864,-0.029 v 0.48942 c 0.12078,-0.16683 0.26507,-0.29307 0.42587,-0.37942 0.16123,-0.087 0.33939,-0.13296 0.52973,-0.13296 z m -6.29527,2.41043 v -3.2906 l 0.26466,-0.041 v 3.29717 z m 0.74792,-3.08934 0.19565,-0.2417 0.20126,0.21875 -0.20126,0.23554 z m 0.0688,3.08934 v -2.35892 l 0.26466,-0.0285 v 2.3536 l -0.26466,0.0344 z m 0.77143,0 v -2.35892 l 0.25864,-0.0285 v 0.39145 c 0.0694,-0.13226 0.16724,-0.2361 0.282,-0.31098 0.11532,-0.0745 0.2417,-0.1149 0.37998,-0.1149 0.16122,0 0.29306,0.0465 0.40838,0.12638 0.12078,0.0809 0.20727,0.20167 0.27067,0.35688 0.0803,-0.15521 0.17817,-0.27053 0.30496,-0.35688 0.12092,-0.0805 0.25318,-0.12638 0.40237,-0.12638 0.23078,0 0.40895,0.0805 0.53574,0.23624 0.12638,0.15465 0.19524,0.37942 0.19524,0.66142 v 1.49037 l -0.25863,0.0344 v -1.3924 c 0,-0.26465 -0.0465,-0.46633 -0.13282,-0.60418 -0.0858,-0.13226 -0.21315,-0.19566 -0.38543,-0.19566 -0.17817,0 -0.32806,0.0634 -0.44282,0.19566 -0.11532,0.13239 -0.1727,0.3051 -0.1727,0.51181 v 1.45034 l -0.2592,0.0339 v -1.39184 c 0,-0.27067 -0.0399,-0.47179 -0.12623,-0.60474 -0.0864,-0.1317 -0.21329,-0.1951 -0.38544,-0.1951 -0.17872,0 -0.32259,0.0634 -0.44337,0.20112 -0.11476,0.13239 -0.1727,0.29908 -0.1727,0.50635 v 1.44978 z m -5.05206,-1.6341 c 0,0.39691 0.1324,0.73098 0.39691,0.99605 0.27068,0.27011 0.59873,0.40237 0.98402,0.40237 v 0.27067 c -0.22463,0 -0.43134,-0.0344 -0.62699,-0.10931 -0.19566,-0.0803 -0.3685,-0.19033 -0.52371,-0.33952 -0.16137,-0.15577 -0.29362,-0.34555 -0.38543,-0.55814 -0.0924,-0.21273 -0.13828,-0.43736 -0.13828,-0.66212 0,-0.22953 0.0465,-0.44827 0.13828,-0.66142 0.0918,-0.21273 0.22406,-0.39691 0.38543,-0.55828 0.15521,-0.14317 0.32805,-0.25849 0.52371,-0.33337 0.19565,-0.0745 0.40236,-0.1149 0.62699,-0.1149 v 0.26465 c -0.38529,0.007 -0.71334,0.13772 -0.97856,0.40237 -0.26997,0.27053 -0.40237,0.60404 -0.40237,1.00095"
         style="fill:#1a1a1a;fill-opacity:1;fill-rule:evenodd;stroke:#333333;stroke-width:0.139954"
         id="path4604-7"
         inkscape:connector-curvature="0" />
      <path
         d="m 251.04546,348.92892 v -0.25906 c 0.0515,0.0115 0.10945,0.0169 0.16683,0.0169 0.13771,0 0.27599,-0.0284 0.40838,-0.0863 0.13282,-0.0575 0.28201,-0.14989 0.44939,-0.28159 v 0.31056 c -0.14443,0.10328 -0.28214,0.18418 -0.42042,0.2361 -0.14387,0.0453 -0.2876,0.0743 -0.43735,0.0743 -0.0574,0 -0.11532,-0.007 -0.16683,-0.0109 z m 0,-1.09332 v -0.2592 l 0.71349,-0.42588 c -0.0574,-0.0743 -0.13828,-0.13169 -0.23023,-0.17214 -0.0918,-0.0344 -0.19565,-0.0519 -0.31643,-0.0519 -0.0574,0 -0.11532,0 -0.16683,0.0109 v -0.2417 c 0.0515,-0.007 0.10945,-0.007 0.16683,-0.007 0.20713,0 0.38543,0.0406 0.5412,0.13295 0.15521,0.0858 0.27613,0.21259 0.36248,0.37942 l -1.07051,0.63301 z m 0,-1.13937 v 0.2417 c -0.17872,0.0344 -0.32791,0.10987 -0.46031,0.24156 -0.1727,0.17285 -0.25905,0.37998 -0.25905,0.6277 0,0.0399 0.007,0.0743 0.007,0.10328 0,0.0284 0,0.0574 0.005,0.0864 l 0.70788,-0.42042 v 0.2592 l -0.62209,0.3685 c 0.0809,0.15465 0.19019,0.26997 0.32861,0.35632 0.0864,0.0575 0.18362,0.0919 0.29348,0.10944 v 0.25906 c -0.25303,-0.0344 -0.47178,-0.13828 -0.64449,-0.31644 -0.21874,-0.21329 -0.32805,-0.4834 -0.32805,-0.79983 0,-0.3226 0.10931,-0.59271 0.32805,-0.8053 0.17817,-0.17284 0.39146,-0.27669 0.64449,-0.31112 z m -2.43436,2.24416 v -0.24156 h 0.007 c 0.24156,0 0.45485,-0.0863 0.627,-0.25919 0.17284,-0.1727 0.25919,-0.38543 0.25919,-0.62699 0,-0.24772 -0.0863,-0.46031 -0.25919,-0.63316 -0.17215,-0.17214 -0.38544,-0.25849 -0.627,-0.25849 h -0.007 v -0.23022 h 0.007 c 0.18418,0 0.35087,0.0404 0.50076,0.12078 0.15521,0.0805 0.28144,0.20125 0.38543,0.35646 v -1.29458 l 0.23554,-0.029 v 3.04344 l -0.23554,0.029 v -0.45429 c -0.10986,0.15535 -0.2417,0.27011 -0.39691,0.35101 -0.14989,0.0858 -0.31657,0.12623 -0.48928,0.12623 h -0.007 z m 0,-2.24961 v 0.23022 c -0.24715,0 -0.45429,0.0863 -0.62657,0.25849 -0.17872,0.17285 -0.26507,0.38544 -0.26507,0.63316 0,0.24156 0.0863,0.45429 0.26507,0.62699 0.17228,0.17284 0.37942,0.25919 0.62657,0.25919 v 0.24156 c -0.32147,0 -0.59214,-0.1093 -0.81075,-0.32791 -0.21875,-0.21329 -0.32805,-0.4834 -0.32805,-0.79983 0,-0.3226 0.1093,-0.58725 0.32805,-0.79984 0.21861,-0.21875 0.48928,-0.32203 0.81075,-0.32203 z m -3.42341,2.24961 v -0.2361 h 0.0115 c 0.16123,0 0.29362,-0.0514 0.39747,-0.15535 0.0973,-0.0978 0.14919,-0.2361 0.14919,-0.40278 0,-0.16081 -0.0519,-0.29909 -0.14919,-0.40237 -0.10385,-0.10399 -0.23624,-0.15591 -0.39747,-0.15591 0,0 -0.005,0 -0.0115,0.007 v -0.2361 c 0.10385,0 0.20168,0.0235 0.29349,0.0634 0.098,0.0399 0.18977,0.10329 0.26465,0.18362 v -0.27011 c 0,-0.14919 -0.0404,-0.25905 -0.11476,-0.32791 -0.0749,-0.0749 -0.19034,-0.10944 -0.34555,-0.10944 -0.0344,0 -0.0634,0.007 -0.0978,0.007 v -0.21804 c 0.0404,-0.007 0.0809,-0.007 0.12078,-0.007 0.23624,0 0.40895,0.0519 0.51825,0.16123 0.10931,0.10944 0.16081,0.2876 0.16081,0.52328 v 1.52466 l -0.2417,0.0519 v -0.26997 c -0.0803,0.0918 -0.16669,0.15521 -0.26465,0.20112 -0.0864,0.0399 -0.18964,0.0634 -0.29349,0.0688 z m 0,-2.25563 v 0.21875 c -0.0689,0.007 -0.13225,0.0175 -0.20727,0.0344 -0.1093,0.029 -0.23008,0.0689 -0.36794,0.13226 l 0.0919,-0.28215 c 0.10931,-0.0344 0.20713,-0.0628 0.31042,-0.0803 0.0581,-0.0115 0.11546,-0.023 0.17284,-0.023 z m 0,0.67304 v 0.2361 c -0.16081,0 -0.29306,0.0519 -0.39691,0.15535 -0.1093,0.10384 -0.16122,0.2361 -0.16122,0.39691 0,0.16122 0.0519,0.29348 0.16122,0.39677 0.10385,0.10398 0.2361,0.16136 0.39691,0.16136 v 0.2361 h -0.0224 c -0.21931,0 -0.40293,-0.0809 -0.55828,-0.23008 -0.13281,-0.13827 -0.20769,-0.29362 -0.22462,-0.4778 v -0.16683 c 0.0169,-0.18418 0.0918,-0.34498 0.22462,-0.4778 0.15535,-0.15521 0.34499,-0.23008 0.55828,-0.23008 z m -0.80529,-0.68452 v -0.007 z m 0,-0.007 v 0.007 l -0.0978,0.23023 c -0.2417,0.023 -0.42588,0.13225 -0.5412,0.32189 -0.1149,0.18978 -0.1783,0.47234 -0.1783,0.8463 v 0.81677 l -0.23555,0.0284 v -2.1802 l 0.23555,-0.029 v 0.46577 c 0.0924,-0.17215 0.19579,-0.29839 0.32259,-0.37942 0.12624,-0.0863 0.26997,-0.1268 0.43736,-0.1268 h 0.0574 z m 0,1.39856 c -0.007,0.023 -0.007,0.0519 -0.007,0.0803 0,0.029 0,0.0579 0.007,0.0863 z m -3.1708,0.8631 v -0.25906 c 0.0574,0.0115 0.11532,0.0169 0.1727,0.0169 0.13828,0 0.27068,-0.0284 0.40293,-0.0858 0.13226,-0.0579 0.28215,-0.15031 0.44338,-0.28215 v 0.31056 c -0.13828,0.10328 -0.28215,0.18418 -0.41441,0.2361 -0.13827,0.0455 -0.28214,0.0745 -0.4319,0.0745 -0.0574,0 -0.11532,-0.007 -0.1727,-0.0111 z m 0,-1.09332 v -0.2592 l 0.71391,-0.42588 c -0.0579,-0.0743 -0.13226,-0.13169 -0.22463,-0.17214 -0.0918,-0.0344 -0.20125,-0.0519 -0.31658,-0.0519 -0.0574,0 -0.11532,0 -0.1727,0.0109 v -0.2417 c 0.0574,-0.007 0.11532,-0.007 0.1727,-0.007 0.20728,0 0.38544,0.0404 0.53519,0.13281 0.14989,0.0858 0.27067,0.21259 0.35646,0.37942 l -1.06435,0.63301 z m 1.32355,-1.77182 0.18418,-0.21875 0.18431,0.1958 -0.18431,0.21805 z m 0.0634,2.85366 v -2.18076 l 0.24758,-0.0284 v 2.1802 z m -1.38694,-2.22121 v 0.2417 c -0.17228,0.0344 -0.32749,0.10987 -0.45429,0.24156 -0.17284,0.17285 -0.25863,0.37998 -0.25863,0.6277 v 0.10328 c 0.005,0.0284 0.005,0.0574 0.005,0.0864 l 0.70747,-0.42043 v 0.2592 l -0.62111,0.3685 c 0.0803,0.15465 0.18977,0.26997 0.32805,0.35646 0.0918,0.0574 0.18964,0.0918 0.29306,0.1093 v 0.25906 c -0.25317,-0.0344 -0.46576,-0.13828 -0.64463,-0.31644 -0.2186,-0.21329 -0.32203,-0.48326 -0.32203,-0.79983 0,-0.32204 0.10343,-0.59257 0.32203,-0.8053 0.17887,-0.1727 0.39747,-0.27669 0.64463,-0.31112 z m -5.27066,2.2443 v -0.23624 h 0.0115 c 0.16669,0 0.29951,-0.0514 0.39733,-0.15521 0.10343,-0.098 0.14933,-0.23624 0.14933,-0.40292 0,-0.16081 -0.0459,-0.29909 -0.14933,-0.40237 -0.0978,-0.10385 -0.23064,-0.15591 -0.39131,-0.15591 -0.006,0 -0.0115,0 -0.0175,0.007 v -0.2361 c 0.10384,0 0.20167,0.0235 0.2995,0.0634 0.0978,0.0399 0.18376,0.10329 0.25919,0.18362 v -0.26997 c 0,-0.14933 -0.035,-0.25919 -0.10986,-0.32805 -0.0745,-0.0749 -0.19524,-0.1093 -0.351,-0.1093 -0.0284,0 -0.0628,0.007 -0.0978,0.007 v -0.2186 c 0.0465,-0.007 0.0864,-0.007 0.1268,-0.007 0.23008,0 0.40292,0.0519 0.51223,0.16137 0.1093,0.1093 0.16668,0.28746 0.16668,0.5237 v 1.5241 l -0.24702,0.0519 V 348.67 c -0.0754,0.0918 -0.16136,0.15521 -0.25919,0.20112 -0.0924,0.0399 -0.18964,0.0628 -0.2995,0.0688 z m 1.08786,-0.32805 0.17816,-0.17284 c 0.075,0.0919 0.16137,0.15535 0.2592,0.20125 0.0918,0.0465 0.18963,0.0689 0.29908,0.0689 0.13225,0 0.24156,-0.0399 0.32791,-0.11476 0.0805,-0.0749 0.12694,-0.16683 0.12694,-0.28761 0,-0.10384 -0.0344,-0.19019 -0.0924,-0.24758 -0.0635,-0.0635 -0.17229,-0.10944 -0.33351,-0.14989 -0.27067,-0.0688 -0.45485,-0.14975 -0.55268,-0.24156 -0.098,-0.0919 -0.14989,-0.21874 -0.14989,-0.37997 0,-0.17228 0.0694,-0.31602 0.20181,-0.4368 0.13226,-0.1149 0.30496,-0.17284 0.50622,-0.17284 0.12679,0 0.24156,0.0175 0.351,0.0575 0.10385,0.0399 0.20713,0.10329 0.2995,0.18418 l -0.15577,0.1951 c -0.0803,-0.0689 -0.16122,-0.12078 -0.24772,-0.16067 -0.0858,-0.0344 -0.16668,-0.0519 -0.24701,-0.0519 -0.13828,0 -0.24716,0.0344 -0.32806,0.10384 -0.0803,0.0683 -0.12078,0.16081 -0.12078,0.27011 0,0.17271 0.14374,0.29349 0.44338,0.36248 0.0628,0.0169 0.1093,0.029 0.13771,0.041 0.18432,0.0508 0.3226,0.12624 0.41441,0.22407 0.0924,0.10328 0.13827,0.2242 0.13827,0.37395 0,0.18978 -0.0749,0.35101 -0.21315,0.48326 -0.13827,0.12638 -0.31056,0.18978 -0.52371,0.18978 -0.14933,0 -0.2876,-0.029 -0.40838,-0.0859 -0.12092,-0.0579 -0.22421,-0.13828 -0.31056,-0.2536 z m 1.77783,-2.5487 0.18432,-0.21875 0.18418,0.1958 -0.18418,0.21805 z m 0.0634,2.85366 v -2.18076 l 0.24716,-0.0284 v 2.1802 z m 0.75393,0 v -3.044 l 0.24716,-0.029 v 3.04358 l -0.24716,0.029 z m -3.68302,-2.23268 v 0.21875 c -0.063,0.007 -0.1324,0.0175 -0.2007,0.0344 -0.10986,0.029 -0.23624,0.0689 -0.37451,0.13226 l 0.0978,-0.28201 c 0.10398,-0.0344 0.20727,-0.063 0.31055,-0.0805 0.0579,-0.0115 0.11532,-0.0229 0.16683,-0.0229 z m 0,0.67304 v 0.2361 c -0.16081,0 -0.29307,0.0521 -0.39691,0.15535 -0.10343,0.10384 -0.16137,0.2361 -0.16137,0.39691 0,0.16122 0.0579,0.29348 0.16137,0.39691 0.10384,0.10384 0.2361,0.16122 0.39691,0.16122 v 0.23624 h -0.0171 c -0.2186,0 -0.40838,-0.081 -0.55813,-0.23022 -0.13828,-0.13827 -0.21315,-0.29362 -0.23009,-0.4778 v -0.16669 c 0.0169,-0.18432 0.0918,-0.33953 0.23009,-0.47794 0.15535,-0.15521 0.33953,-0.23008 0.55813,-0.23008 z m -0.8053,-0.68452 v -0.007 h 0.005 z m -2.23268,1.96215 c 0.16123,-0.0169 0.28746,-0.0634 0.37983,-0.13225 0.11491,-0.0925 0.17285,-0.23023 0.17285,-0.4144 0,-0.18432 -0.0579,-0.32806 -0.16683,-0.4319 -0.0984,-0.0919 -0.22462,-0.14332 -0.38585,-0.15479 v -0.25304 c 0.1268,-0.0181 0.2361,-0.0635 0.31643,-0.13295 0.10931,-0.0973 0.16683,-0.23555 0.16683,-0.40839 0,-0.17816 -0.0575,-0.31042 -0.16683,-0.39691 -0.0803,-0.0689 -0.18362,-0.1093 -0.31643,-0.1268 v -0.23554 c 0.20713,0.0229 0.37382,0.0803 0.49474,0.1727 0.16724,0.13226 0.25303,0.31602 0.25303,0.56962 0,0.15534 -0.0339,0.2876 -0.10328,0.40292 -0.0689,0.10889 -0.16669,0.20126 -0.29909,0.2641 0.16137,0.0688 0.27613,0.16122 0.36249,0.28214 0.0803,0.1268 0.12078,0.27053 0.12078,0.44282 0,0.24156 -0.0864,0.43735 -0.24758,0.5871 -0.14933,0.1268 -0.33953,0.20112 -0.58109,0.21259 z m 2.23268,-1.96817 v 0.007 l -0.0919,0.23023 c -0.24758,0.023 -0.42588,0.13225 -0.54666,0.32189 -0.11532,0.18978 -0.1727,0.47234 -0.1727,0.8463 v 0.81677 l -0.2417,0.0284 v -2.1802 l 0.2417,-0.029 v 0.46577 c 0.0863,-0.17215 0.19566,-0.29839 0.32203,-0.37942 0.12134,-0.0863 0.27054,-0.1268 0.43736,-0.1268 h 0.0519 z m 0,1.39856 v 0.16669 z m -2.79096,0.57507 h 0.41441 c 0.0519,0 0.0978,-0.007 0.14387,-0.007 v 0.24715 c -0.0286,0 -0.0575,0.007 -0.0919,0.007 h -0.72482 v -2.95694 h 0.56359 c 0.0924,0 0.1727,0.007 0.25318,0.0175 v 0.23554 c -0.0575,-0.0109 -0.1149,-0.0109 -0.1783,-0.0109 h -0.37998 v 1.08744 h 0.39145 c 0.0579,0 0.11533,0 0.16683,-0.0111 v 0.25318 h -0.55828 v 1.1388 z"
         style="fill:#1a1a1a;fill-opacity:1;fill-rule:evenodd;stroke:#333333;stroke-width:0.139954"
         id="path4606-3"
         inkscape:connector-curvature="0" />
      <path
         d="m 251.67861,352.67436 v -0.24771 h 0.0115 c 0.17214,0 0.31056,-0.0574 0.41986,-0.16067 0.10385,-0.10931 0.15521,-0.25318 0.15521,-0.43134 0,-0.1727 -0.0514,-0.31657 -0.15521,-0.42588 -0.1093,-0.1093 -0.24772,-0.16123 -0.41986,-0.16123 h -0.0115 v -0.24771 c 0.10931,0 0.21259,0.0235 0.31098,0.0688 0.10287,0.041 0.20126,0.10945 0.27557,0.1958 v -0.28761 c 0,-0.16122 -0.0344,-0.27655 -0.11476,-0.35156 -0.0803,-0.0743 -0.20727,-0.10875 -0.3685,-0.10875 h -0.10329 v -0.23008 c 0.0404,-0.007 0.0864,-0.007 0.12624,-0.007 0.24772,0 0.4319,0.0574 0.54666,0.17215 0.11546,0.11532 0.17285,0.29908 0.17285,0.55267 v 1.61115 l -0.2592,0.0574 v -0.282 c -0.0803,0.0918 -0.1727,0.16122 -0.27557,0.21315 -0.0984,0.0399 -0.20167,0.0628 -0.31098,0.0688 z m 0,-2.38789 v 0.23008 c -0.0694,0.0115 -0.14387,0.0235 -0.21874,0.041 -0.11533,0.0284 -0.24758,0.0743 -0.39146,0.13772 l 0.098,-0.29895 c 0.11476,-0.0404 0.22407,-0.069 0.32791,-0.0865 0.0634,-0.0115 0.12092,-0.023 0.18432,-0.023 z m 0,0.71335 v 0.24771 c -0.17284,0 -0.31111,0.0574 -0.42588,0.16669 -0.1093,0.1093 -0.16682,0.25318 -0.16682,0.42042 0,0.17214 0.0575,0.31056 0.16682,0.42532 0.11477,0.1093 0.25304,0.16123 0.42588,0.16669 v 0.24771 h -0.023 c -0.23022,0 -0.4319,-0.0803 -0.5927,-0.24771 -0.16123,-0.16067 -0.24758,-0.35633 -0.24758,-0.59201 0,-0.23064 0.0864,-0.42588 0.24758,-0.59312 0.16682,-0.16081 0.36248,-0.2417 0.5927,-0.2417 z m -6.62877,1.67454 v -0.24771 h 0.0115 c 0.1783,0 0.31658,-0.0574 0.42588,-0.16067 0.10399,-0.10931 0.15535,-0.25318 0.15535,-0.43134 0,-0.1727 -0.0514,-0.31657 -0.15535,-0.42588 -0.1093,-0.1093 -0.24758,-0.16123 -0.41986,-0.16123 h -0.0175 v -0.24771 c 0.10944,0 0.21273,0.0235 0.31657,0.0688 0.10329,0.041 0.1958,0.10945 0.27613,0.1958 v -0.28761 c 0,-0.16122 -0.0404,-0.27655 -0.12078,-0.35156 -0.075,-0.0743 -0.20181,-0.10875 -0.36794,-0.10875 h -0.10398 v -0.23008 c 0.046,-0.007 0.0865,-0.007 0.13239,-0.007 0.24702,0 0.4319,0.0574 0.54666,0.17215 0.11477,0.11532 0.17271,0.29908 0.17271,0.55267 v 1.61115 l -0.25906,0.0574 v -0.282 c -0.0803,0.0918 -0.17284,0.16122 -0.27613,0.21315 -0.0978,0.0399 -0.20111,0.0628 -0.31657,0.0688 z m 0,-2.63505 v -0.27613 l 0.31056,-0.50075 h 0.29908 l -0.59817,0.77688 z m 2.35906,2.57767 c -0.0459,0.0109 -0.0863,0.0169 -0.12624,0.023 -0.0465,0.007 -0.081,0.0115 -0.11546,0.0115 -0.23008,0 -0.39691,-0.0634 -0.48928,-0.19565 -0.0973,-0.12694 -0.14373,-0.36248 -0.14373,-0.70201 v -1.16834 h -0.32805 l 0.0694,-0.24702 h 0.25864 v -0.54078 l 0.25318,-0.15577 v 0.69655 h 0.59858 v 0.24702 h -0.59858 v 1.19675 c 0,0.24772 0.029,0.40894 0.0864,0.49529 0.0579,0.0749 0.16122,0.11477 0.30496,0.11477 0.029,0 0.0635,0 0.10398,-0.007 0.0399,-0.007 0.0803,-0.0111 0.12624,-0.0229 z m 0.28215,-2.99207 0.19565,-0.23624 0.19566,0.20727 -0.19566,0.2361 z m 0.0688,3.03252 v -2.31904 l 0.25906,-0.0285 v 2.30714 l -0.25906,0.041 z m 2.77333,-0.26521 c -0.12624,0.0919 -0.26451,0.16136 -0.4144,0.20727 -0.14318,0.0519 -0.29307,0.0749 -0.43736,0.0749 -0.34498,0 -0.63245,-0.11476 -0.86267,-0.34498 -0.23009,-0.23009 -0.34555,-0.51223 -0.34555,-0.85176 0,-0.33953 0.11546,-0.62154 0.34555,-0.84574 0.23022,-0.23009 0.51769,-0.33953 0.86267,-0.33953 0.16137,0 0.31112,0.0171 0.44338,0.0575 0.13827,0.0465 0.27011,0.1093 0.3969,0.20111 l -0.1727,0.20126 c -0.1149,-0.0745 -0.2242,-0.13184 -0.32749,-0.16683 -0.10986,-0.0344 -0.21875,-0.0519 -0.34009,-0.0519 -0.25849,0 -0.48326,0.0924 -0.66688,0.27669 -0.19034,0.18964 -0.28215,0.40838 -0.28215,0.66744 0,0.25863 0.0918,0.48326 0.28215,0.66758 0.18362,0.18362 0.40839,0.27599 0.66688,0.27599 0.10931,0 0.22477,-0.0175 0.34009,-0.0574 0.11476,-0.0405 0.23008,-0.0984 0.33897,-0.17872 z m -5.48339,-2.62904 v 0.27613 h -0.16669 z m 0,0.52329 v 0.23008 c -0.0694,0.0115 -0.13828,0.0235 -0.21259,0.041 -0.11588,0.0284 -0.24772,0.0743 -0.39747,0.13772 l 0.10384,-0.29895 c 0.10945,-0.0404 0.21819,-0.069 0.32806,-0.0865 0.0628,-0.0115 0.12022,-0.023 0.17816,-0.023 z m 0,0.71335 v 0.24771 c -0.16669,0 -0.31098,0.0574 -0.41986,0.16669 -0.11533,0.1093 -0.17327,0.25318 -0.17327,0.42042 0,0.17214 0.0579,0.31056 0.17327,0.42532 0.10888,0.1093 0.25317,0.16123 0.41986,0.16669 v 0.24771 h -0.0175 c -0.2361,0 -0.43133,-0.0803 -0.59256,-0.24771 -0.16725,-0.16067 -0.24758,-0.35633 -0.24758,-0.59201 0,-0.23064 0.0803,-0.42588 0.24758,-0.59312 0.16123,-0.16081 0.36248,-0.2417 0.59256,-0.2417 z m -5.69655,1.66307 v -0.27067 c 0.0634,0.0115 0.12092,0.0175 0.18432,0.0175 0.14374,0 0.28747,-0.0344 0.42588,-0.0918 0.14374,-0.0634 0.30496,-0.16123 0.47725,-0.29908 v 0.32749 c -0.14976,0.11532 -0.29909,0.19636 -0.44282,0.24772 -0.14989,0.0514 -0.3051,0.0803 -0.46031,0.0803 -0.0634,0 -0.12092,-0.007 -0.18432,-0.0109 z m 0,-1.15686 v -0.27599 l 0.75939,-0.44883 c -0.0628,-0.0805 -0.14373,-0.13786 -0.24156,-0.1783 -0.098,-0.0459 -0.20727,-0.0628 -0.33351,-0.0628 -0.0634,0 -0.12092,0.007 -0.18432,0.0175 v -0.25919 c 0.0634,-0.007 0.12092,-0.007 0.18432,-0.007 0.21861,0 0.40839,0.0465 0.56962,0.13827 0.16122,0.0918 0.29362,0.23009 0.37997,0.40839 l -1.13391,0.66744 z m 1.49583,1.14538 v -2.31302 l 0.24758,-0.0285 v 0.38544 c 0.075,-0.13226 0.16682,-0.23611 0.27613,-0.30496 0.11532,-0.0749 0.2417,-0.10945 0.37396,-0.10945 0.14975,0 0.2876,0.0406 0.39746,0.12092 0.11477,0.0803 0.20112,0.19566 0.26452,0.35101 0.0745,-0.14933 0.1783,-0.27067 0.29908,-0.35101 0.11532,-0.0803 0.24716,-0.12092 0.39747,-0.12092 0.2242,0 0.39635,0.075 0.52315,0.23023 0.12637,0.14975 0.18977,0.36794 0.18977,0.65008 v 1.4558 l -0.25317,0.0344 V 351.288 c 0,-0.26465 -0.0399,-0.46031 -0.12624,-0.5927 -0.0864,-0.1268 -0.21329,-0.19566 -0.37998,-0.19566 -0.1783,0 -0.32259,0.0634 -0.43133,0.19566 -0.11533,0.13239 -0.17271,0.29908 -0.17271,0.50033 v 1.42137 l -0.25317,0.0344 v -1.36399 c 0,-0.26465 -0.0404,-0.46031 -0.1268,-0.59214 -0.0805,-0.13282 -0.20126,-0.19566 -0.37396,-0.19566 -0.17284,0 -0.31658,0.0689 -0.43134,0.19566 -0.11532,0.13183 -0.17284,0.29908 -0.17284,0.50033 v 1.42137 z m -1.49583,-2.35346 v 0.25905 c -0.18418,0.029 -0.3454,0.11476 -0.48326,0.25318 -0.18418,0.17816 -0.27053,0.40293 -0.27053,0.66142 v 0.10986 c 0,0.0285 0.005,0.063 0.005,0.0919 l 0.74833,-0.44337 v 0.27599 l -0.65596,0.38599 c 0.0864,0.16683 0.20111,0.29307 0.34555,0.37942 0.0978,0.0634 0.20111,0.0978 0.31041,0.12078 v 0.27067 c -0.26451,-0.0344 -0.49473,-0.14373 -0.67891,-0.33351 -0.23023,-0.22463 -0.34555,-0.51223 -0.34555,-0.85176 0,-0.33953 0.11532,-0.62154 0.34555,-0.84574 0.18963,-0.18964 0.4144,-0.29894 0.67891,-0.33393 z m -3.58464,2.37641 v -0.24771 h 0.0115 c 0.17228,0 0.31658,-0.0574 0.41986,-0.16067 0.10931,-0.10931 0.16123,-0.25318 0.16123,-0.43134 0,-0.1727 -0.0519,-0.31657 -0.16123,-0.42588 -0.10328,-0.1093 -0.24156,-0.16123 -0.4144,-0.16123 h -0.0175 v -0.24771 c 0.10987,0 0.21273,0.0235 0.31112,0.0688 0.10931,0.041 0.20112,0.10945 0.28201,0.1958 v -0.28761 c 0,-0.16122 -0.0404,-0.27655 -0.12134,-0.35156 -0.0803,-0.0743 -0.20111,-0.10875 -0.36794,-0.10875 h -0.10385 v -0.23008 c 0.0465,-0.007 0.0864,-0.007 0.13226,-0.007 0.24772,0 0.4319,0.0574 0.5468,0.17215 0.11532,0.11532 0.1727,0.29908 0.1727,0.55267 v 1.61115 l -0.25863,0.0574 v -0.282 c -0.0809,0.0918 -0.1727,0.16122 -0.27599,0.21315 -0.0984,0.0399 -0.20181,0.0628 -0.31714,0.0688 z m 2.35907,-0.0574 c -0.046,0.0109 -0.0865,0.0169 -0.1324,0.023 -0.0404,0.007 -0.0749,0.0115 -0.11532,0.0115 -0.23023,0 -0.39089,-0.0634 -0.48326,-0.19565 -0.0973,-0.12694 -0.14331,-0.36248 -0.14331,-0.70201 v -1.16834 h -0.33393 l 0.0749,-0.24702 h 0.25906 v -0.54078 l 0.25317,-0.15577 v 0.69655 h 0.59803 v 0.24702 h -0.59803 v 1.19675 c 0,0.24772 0.0284,0.40894 0.0858,0.49529 0.0574,0.0749 0.16137,0.11477 0.3051,0.11477 0.029,0 0.0634,0 0.10385,-0.007 0.0344,-0.007 0.0803,-0.0111 0.12638,-0.0229 z m -6.80694,0.007 0.64995,-3.24525 1.06448,2.6121 1.06491,-2.6121 0.64407,3.24525 -0.27011,0.0628 -0.46633,-2.38202 -0.97254,2.38202 -0.97799,-2.38202 -0.46591,2.38202 z m 4.44787,-2.33667 v 0.23022 c -0.0694,0.0115 -0.13827,0.0235 -0.2186,0.041 -0.10945,0.0284 -0.2417,0.0743 -0.39145,0.13772 l 0.10384,-0.29909 c 0.10875,-0.0404 0.21861,-0.0688 0.32805,-0.0863 0.0568,-0.0115 0.12078,-0.023 0.17816,-0.023 z m 0,0.71349 v 0.24771 c -0.1727,0 -0.31111,0.0574 -0.42042,0.16669 -0.11476,0.1093 -0.1727,0.25318 -0.1727,0.42042 0,0.17214 0.0579,0.31056 0.1727,0.42532 0.10931,0.1093 0.25318,0.16123 0.42042,0.16669 v 0.24771 h -0.0175 c -0.23568,0 -0.43134,-0.0803 -0.59256,-0.24771 -0.16683,-0.16067 -0.24772,-0.35647 -0.24772,-0.59201 0,-0.23078 0.0809,-0.42588 0.24772,-0.59312 0.16122,-0.16081 0.35688,-0.2417 0.59256,-0.2417 h 0.0175"
         style="fill:#1a1a1a;fill-opacity:1;fill-rule:evenodd;stroke:#333333;stroke-width:0.139954"
         id="path4608-0"
         inkscape:connector-curvature="0" />
      <path
         inkscape:connector-curvature="0"
         id="path4612-1"
         style="fill:none;stroke:#999999;stroke-width:0.552336;stroke-linecap:butt;stroke-linejoin:miter;stroke-miterlimit:22.926;stroke-dasharray:none;stroke-opacity:1"
         d="m 253.64119,329.2807 c 0,6.35433 -5.20293,11.52437 -11.55656,11.52437 -6.35418,0 -11.52492,-5.17004 -11.52492,-11.52437 0,-6.35418 5.17074,-11.52478 11.52492,-11.52478 6.35363,0 11.55656,5.1706 11.55656,11.52478 z" />
    </g>
    <g
       id="g1941"
       transform="translate(-203.30346,-210.46316)">
      <path
         inkscape:connector-curvature="0"
         id="path1893"
         d="m 211.83044,309.65662 v -2.13303 h 0.32218 0.32218 v 0.21441 0.21443 l 0.063,-0.0866 c 0.13756,-0.18915 0.32271,-0.31283 0.56482,-0.37728 0.15704,-0.0418 0.5714,-0.0406 0.73953,0.002 0.5265,0.13384 0.89155,0.54206 1.01301,1.13285 0.0382,0.18602 0.0439,0.27645 0.0348,0.55548 -0.0126,0.38944 -0.0455,0.53764 -0.18284,0.82211 -0.21741,0.45054 -0.56798,0.68835 -1.05562,0.71603 -0.40977,0.0233 -0.77024,-0.0948 -1.00459,-0.3292 l -0.12777,-0.12775 v 0.76478 0.76479 h -0.34438 -0.34441 z"
         style="fill:#000000;stroke:#000000;stroke-width:0.0222192" />
      <path
         inkscape:connector-curvature="0"
         id="path1891"
         d="m 213.50946,310.16574 c 0.44396,-0.0813 0.69844,-0.47283 0.69844,-1.07459 0,-0.4902 -0.19744,-0.87517 -0.52837,-1.03029 -0.10998,-0.0516 -0.1556,-0.0596 -0.33867,-0.0596 -0.19406,0 -0.22378,0.007 -0.35916,0.0727 -0.32311,0.15908 -0.48507,0.49445 -0.48435,1.00296 2.5e-4,0.27606 0.041,0.47037 0.13518,0.64712 0.12595,0.23631 0.30976,0.38081 0.55327,0.43494 0.15799,0.0351 0.16763,0.0353 0.32366,0.007 z"
         style="fill:#f2f8f8;fill-opacity:1;stroke:#000000;stroke-width:0.0222192" />
      <path
         inkscape:connector-curvature="0"
         id="path1889"
         d="m 216.07653,310.67919 c -0.50676,-0.13746 -0.7686,-0.5264 -0.69211,-1.02804 0.0313,-0.20517 0.10914,-0.36553 0.23284,-0.47955 0.19685,-0.18144 0.42662,-0.25688 1.02364,-0.33605 0.6124,-0.0812 0.72848,-0.11717 0.8131,-0.2519 0.058,-0.0924 0.0498,-0.29785 -0.0157,-0.38823 -0.0788,-0.1089 -0.27155,-0.18712 -0.49199,-0.19966 -0.41566,-0.0236 -0.71016,0.13438 -0.75401,0.40456 l -0.0127,0.0787 h -0.3415 -0.34149 v -0.0758 c 0,-0.2165 0.16674,-0.53 0.35561,-0.66865 0.26905,-0.19748 0.56667,-0.27786 1.0266,-0.27727 0.34937,5.3e-4 0.54269,0.0364 0.76544,0.14214 0.20148,0.0957 0.33663,0.21928 0.42019,0.38429 l 0.0652,0.12865 0.0111,0.99355 c 0.0127,1.14228 -7.9e-4,1.07373 0.21191,1.07167 l 0.12138,-7.7e-4 v 0.23781 0.23782 l -0.11666,0.0299 c -0.0642,0.0165 -0.21164,0.0299 -0.32772,0.03 -0.18929,9e-5 -0.2216,-0.007 -0.31288,-0.0598 -0.0723,-0.0425 -0.11737,-0.0909 -0.15553,-0.16664 -0.0296,-0.0587 -0.0558,-0.11056 -0.0584,-0.11513 -0.002,-0.005 -0.0365,0.0185 -0.0756,0.0513 -0.10188,0.0858 -0.30218,0.18196 -0.49026,0.23555 -0.24514,0.0699 -0.64603,0.0801 -0.86052,0.0218 z"
         style="fill:#000000;stroke:#000000;stroke-width:0.0222192" />
      <path
         inkscape:connector-curvature="0"
         id="path1901"
         d="m 206.83112,323.45341 c -0.70595,-0.0775 -1.31526,-0.2886 -1.79977,-0.62372 -0.28826,-0.19941 -0.3089,-0.22199 -0.33661,-0.36874 -0.0317,-0.1675 -0.0103,-1.04327 0.0358,-1.47251 0.12146,-1.12995 0.34559,-2.48526 0.68708,-4.155 0.2346,-1.14709 0.28917,-1.39983 0.30219,-1.39964 0.007,9e-5 0.0348,0.0412 0.0634,0.0913 0.0788,0.13796 0.3626,0.4234 0.54928,0.55245 0.84418,0.58357 2.37493,0.77169 4.51454,0.55479 1.68555,-0.17086 3.47191,-0.51903 6.26055,-1.22016 0.62333,-0.15672 1.30349,-0.32048 1.51145,-0.36387 1.23747,-0.25826 3.08008,-0.49165 5.02085,-0.63596 0.32996,-0.0245 0.65492,-0.0498 0.72213,-0.056 0.11691,-0.011 0.0991,-2e-5 -0.41106,0.25165 -1.43016,0.70555 -2.52496,1.45155 -4.0353,2.74965 -1.11598,0.95914 -2.07958,1.68572 -3.31926,2.50276 -3.05022,2.01034 -5.95841,3.26129 -8.28199,3.56245 -0.32269,0.0418 -1.21355,0.0603 -1.48335,0.0306 z"
         style="fill:#333333;stroke:#000000;stroke-width:0.0222192" />
      <path
         inkscape:connector-curvature="0"
         id="path1899"
         d="m 223.8177,322.79727 c -2.10397,-0.0785 -4.29127,-0.35978 -6.89906,-0.88688 -0.71409,-0.14435 -1.89294,-0.40892 -1.91501,-0.4298 -0.009,-0.008 0.13159,-0.0987 0.31106,-0.20165 1.76295,-1.01135 3.63668,-2.34098 5.13748,-3.6456 0.18978,-0.16499 0.39587,-0.34223 0.45795,-0.39388 l 0.11288,-0.0939 0.37528,0.15693 c 0.20638,0.0863 0.61022,0.23559 0.89741,0.33173 2.57558,0.86216 4.98395,0.91019 6.9435,0.13849 0.48658,-0.19161 1.06032,-0.4923 1.39482,-0.73097 0.12023,-0.0858 0.11401,-0.0919 0.14932,0.14722 0.13303,0.90079 -0.0374,1.89859 -0.47664,2.78907 -0.30752,0.62356 -0.71988,1.18388 -1.31115,1.78163 -0.39838,0.40274 -0.41929,0.41603 -0.91438,0.58108 -0.64777,0.21595 -1.43018,0.35461 -2.39704,0.42478 -0.32943,0.024 -1.52969,0.0443 -1.86642,0.0318 z"
         style="fill:#333333;stroke:#000000;stroke-width:0.0222192" />
      <path
         inkscape:connector-curvature="0"
         id="path1897"
         d="m 229.8325,321.63834 c 0.0185,-0.0214 0.1168,-0.14386 0.21851,-0.27217 0.55532,-0.70063 0.94918,-1.46907 1.14456,-2.23303 0.13095,-0.51205 0.15444,-0.71489 0.15444,-1.33316 0,-0.62492 -0.0294,-0.8371 -0.17958,-1.29614 -0.55238,-1.68834 -2.05911,-2.65657 -4.32549,-2.77959 -1.16747,-0.0633 -4.04827,0.14033 -5.96911,0.42206 -0.16378,0.024 -0.30021,0.041 -0.30318,0.0378 -0.006,-0.006 2.0647,-0.98459 5.91136,-2.79579 1.00208,-0.47183 1.94696,-0.90851 2.09972,-0.9704 0.58011,-0.23502 1.18506,-0.40017 1.82198,-0.49738 0.4301,-0.0656 1.26012,-0.0721 1.6331,-0.0127 0.97741,0.15566 1.73576,0.53816 2.393,1.20702 0.26851,0.27325 0.39906,0.43581 0.62225,0.77481 0.34209,0.51958 0.59349,1.09077 0.67481,1.53312 0.0489,0.26606 0.0689,1.16326 0.0335,1.50184 -0.1629,1.55574 -0.88809,3.05946 -2.02454,4.19794 -0.62982,0.63095 -1.66022,1.35376 -2.89222,2.02888 -0.3559,0.19502 -1.00497,0.52578 -1.0318,0.52578 -0.008,0 2.2e-4,-0.0175 0.0188,-0.0389 z"
         style="fill:#333333;stroke:#000000;stroke-width:0.0222192" />
      <path
         inkscape:connector-curvature="0"
         id="path1895"
         d="m 208.35708,316.11977 c -1.34257,-0.12928 -2.11103,-0.5834 -2.27022,-1.3416 -0.0475,-0.22631 -0.042,-0.29808 0.0352,-0.4525 0.30762,-0.6156 1.3939,-1.06897 2.82861,-1.18055 1.28824,-0.10019 3.53304,0.15885 5.01118,0.57829 0.75314,0.21371 1.75446,0.60327 2.65678,1.03361 l 0.26663,0.12716 -0.64435,0.16149 c -2.38901,0.59876 -4.44238,0.9637 -6.05474,1.07608 -0.37885,0.0264 -1.54747,0.0251 -1.82914,-0.002 z"
         style="fill:#333333;stroke:#000000;stroke-width:0.0222192" />
      <path
         inkscape:connector-curvature="0"
         id="path1887"
         d="m 216.87711,310.15788 c 0.26807,-0.0568 0.46531,-0.19289 0.54033,-0.37278 0.0254,-0.0609 0.0345,-0.16221 0.0345,-0.38566 0,-0.28009 -0.003,-0.30181 -0.0389,-0.28658 -0.13386,0.0568 -0.23478,0.0796 -0.53387,0.12092 -0.18429,0.0254 -0.38174,0.0603 -0.4388,0.0776 -0.14748,0.0444 -0.26949,0.132 -0.3185,0.22871 -0.15295,0.3018 -0.0183,0.53452 0.35608,0.6158 0.18176,0.0395 0.22189,0.0397 0.39918,0.002 z"
         style="fill:#f2f8f8;fill-opacity:1;stroke:#000000;stroke-width:0.0222192" />
      <path
         inkscape:connector-curvature="0"
         id="path1885"
         d="m 205.03135,309.07892 v -1.55534 h 0.34441 0.34439 v 1.55534 1.55535 h -0.34439 -0.34441 z"
         style="fill:#000000;stroke:#000000;stroke-width:0.0222192" />
      <path
         inkscape:connector-curvature="0"
         id="path1883"
         d="m 206.52005,309.07892 v -1.55534 h 0.3214 0.32139 l 0.007,0.22073 0.007,0.22074 0.1,-0.12549 c 0.12943,-0.16246 0.30552,-0.28404 0.49445,-0.34144 0.12507,-0.038 0.19566,-0.0445 0.41152,-0.0377 0.2358,0.007 0.27436,0.0147 0.40602,0.0768 0.17523,0.0827 0.29234,0.18156 0.368,0.31066 l 0.0563,0.0961 0.13459,-0.14389 c 0.10295,-0.11005 0.17924,-0.16601 0.32447,-0.23797 l 0.18987,-0.0941 0.34608,5.2e-4 c 0.30905,5.3e-4 0.35982,0.007 0.47455,0.0519 0.17802,0.0711 0.30307,0.17252 0.38881,0.31516 0.1496,0.24888 0.14636,0.21601 0.15515,1.5711 l 0.008,1.22763 h -0.34445 -0.34446 l -0.008,-1.11653 c -0.007,-1.00239 -0.0115,-1.12671 -0.0467,-1.21641 -0.0801,-0.20443 -0.25675,-0.31116 -0.51497,-0.31116 -0.28189,0 -0.49154,0.13785 -0.59134,0.38884 -0.0529,0.13304 -0.053,0.13554 -0.0596,1.19429 l -0.007,1.06097 h -0.34226 -0.34227 l -0.007,-1.12763 -0.007,-1.12763 -0.0628,-0.12779 c -0.0486,-0.0991 -0.086,-0.14149 -0.16665,-0.18886 -0.0914,-0.0538 -0.12644,-0.061 -0.29275,-0.0607 -0.1613,2.5e-4 -0.20537,0.009 -0.30196,0.0597 -0.13756,0.0722 -0.24106,0.18614 -0.31794,0.35004 l -0.0577,0.12322 -0.007,1.04986 -0.007,1.04986 h -0.34337 -0.34339 z"
         style="fill:#000000;stroke:#000000;stroke-width:0.0222192" />
      <path
         inkscape:connector-curvature="0"
         id="path1096-5"
         d="m 205.03135,306.66814 v -0.32218 h 0.34441 0.34439 v 0.32218 0.32217 h -0.34439 -0.34441 z"
         style="fill:#000000;stroke:#000000;stroke-width:0.0222192" />
    </g>
  </g>
</svg>
