<?xml version="1.0" encoding="UTF-8" standalone="no"?>
<svg
   xmlns:dc="http://purl.org/dc/elements/1.1/"
   xmlns:cc="http://creativecommons.org/ns#"
   xmlns:rdf="http://www.w3.org/1999/02/22-rdf-syntax-ns#"
   xmlns:svg="http://www.w3.org/2000/svg"
   xmlns="http://www.w3.org/2000/svg"
   xmlns:sodipodi="http://sodipodi.sourceforge.net/DTD/sodipodi-0.dtd"
   xmlns:inkscape="http://www.inkscape.org/namespaces/inkscape"
   width="60mm"
   height="50mm"
   viewBox="0 0 60 50"
   version="1.1"
   id="svg8"
   inkscape:version="1.0.2 (e86c870879, 2021-01-15)"
   sodipodi:docname="formiga.svg">
  <defs
     id="defs2">
    <marker
       style="overflow:visible;"
       id="Arrow1Mend"
       refX="0.0"
       refY="0.0"
       orient="auto"
       inkscape:stockid="Arrow1Mend"
       inkscape:isstock="true">
      <path
         transform="scale(0.4) rotate(180) translate(10,0)"
         style="fill-rule:evenodd;stroke:#000000;stroke-width:1pt;stroke-opacity:1;fill:#000000;fill-opacity:1"
         d="M 0.0,0.0 L 5.0,-5.0 L -12.5,0.0 L 5.0,5.0 L 0.0,0.0 z "
         id="path851" />
    </marker>
  </defs>
  <sodipodi:namedview
     id="base"
     pagecolor="#ffffff"
     bordercolor="#666666"
     borderopacity="1.0"
     inkscape:pageopacity="0.0"
     inkscape:pageshadow="2"
     inkscape:zoom="1.979899"
     inkscape:cx="184.34424"
     inkscape:cy="158.11071"
     inkscape:document-units="mm"
     inkscape:current-layer="layer1"
     inkscape:document-rotation="0"
     showgrid="false"
     inkscape:window-width="1920"
     inkscape:window-height="1043"
     inkscape:window-x="0"
     inkscape:window-y="0"
     inkscape:window-maximized="1" />
  <metadata
     id="metadata5">
    <rdf:RDF>
      <cc:Work
         rdf:about="">
        <dc:format>image/svg+xml</dc:format>
        <dc:type
           rdf:resource="http://purl.org/dc/dcmitype/StillImage" />
        <dc:title />
      </cc:Work>
    </rdf:RDF>
  </metadata>
  <g
     inkscape:label="Layer 1"
     inkscape:groupmode="layer"
     id="layer1">
    <g
       id="g881"
       transform="translate(-2.2479868,-244.37542)">
      <path
         style="fill:#d0d0d0;stroke-width:0.0937364"
         d="m 30.245229,291.30668 0.02632,-1.14827 0.585853,-0.0279 c 0.536998,-0.0256 0.585852,-0.0119 0.585852,0.16404 0,0.165 -0.05921,0.19194 -0.421814,0.19194 -0.40619,0 -0.421814,0.0104 -0.421814,0.28121 0,0.26559 0.02083,0.28121 0.374946,0.28121 0.312455,0 0.374946,0.0312 0.374946,0.18748 0,0.15622 -0.06249,0.18747 -0.374946,0.18747 -0.371878,0 -0.374946,0.003 -0.374946,0.3574 v 0.3574 l 0.442552,-0.006 c 0.349302,-0.005 0.449505,0.0287 0.475555,0.15814 0.02896,0.14393 -0.04862,0.16404 -0.632909,0.16404 H 30.21891 l 0.02632,-1.14827 z m -9.519826,-12.70975 -12.4517098,-12.45198 7.3432078,-9.01076 7.343207,-9.01077 7.97576,-0.003 c 4.386667,-0.002 9.237527,-0.0271 10.779688,-0.0566 l 2.803927,-0.0537 6.608417,8.77231 c 3.634629,4.82477 6.663826,8.85245 6.731549,8.95041 0.112909,0.16331 -0.905639,1.22159 -12.268541,12.74702 -6.81542,6.91291 -12.396651,12.56892 -12.402735,12.56892 -0.0061,0 -5.61433,-5.60339 -12.46277,-12.45197 z m 26.033486,-1.59564 c 6.473496,-6.57205 10.90296,-11.13837 10.865789,-11.2015 -0.03451,-0.0586 -3.013874,-4.01891 -6.620802,-8.80064 l -6.558052,-8.69405 -9.38368,3.4e-4 c -5.161024,1.9e-4 -9.986857,0.0279 -10.724073,0.0617 l -1.340393,0.0613 -7.224339,8.85532 -7.224339,8.85531 12.313923,12.31419 12.313923,12.31419 1.326751,-1.33561 c 0.729714,-0.73458 6.244594,-6.32832 12.255292,-12.43053 z M 6.2777659,267.12268 c 0.029248,-0.116 0.1485254,-0.59054 0.2650596,-1.05453 0.1719455,-0.68462 0.2471746,-0.84883 0.3991378,-0.87121 0.1544662,-0.0227 0.2645474,0.14033 0.6286331,0.93127 0.3155831,0.68557 0.4124603,0.9873 0.3399182,1.05868 -0.100324,0.0987 -0.1272964,0.0761 -0.4169145,-0.34987 -0.065729,-0.0967 -0.200108,-0.12388 -0.4497475,-0.0911 -0.3020772,0.0397 -0.3642047,0.0878 -0.4100968,0.31721 -0.036772,0.18386 -0.1109208,0.27043 -0.2316273,0.27043 -0.1373831,0 -0.1655129,-0.0477 -0.1243626,-0.21091 z m 0.9115883,-1.01092 c -0.1622233,-0.41298 -0.2508961,-0.39431 -0.3494814,0.0736 -0.061158,0.29025 -0.050909,0.30464 0.216925,0.30464 h 0.2811165 z m 51.8748948,0.40945 c -0.03437,-0.0344 -0.06249,-0.47728 -0.06249,-0.98424 v -0.92174 l 0.257775,-0.0171 c 0.522438,-0.0347 0.819873,0.0282 1.019494,0.21573 0.441605,0.41486 0.350566,1.36916 -0.155584,1.6309 -0.273531,0.14145 -0.945693,0.18999 -1.059194,0.0765 z m 1.038912,-0.47224 c 0.311071,-0.4175 0.02372,-1.15253 -0.450563,-1.15253 h -0.275894 v 0.71474 0.71474 l 0.304643,-0.0598 c 0.167554,-0.0329 0.35737,-0.13061 0.421814,-0.2171 z M 8.8999225,264.67389 c -0.1948668,-0.14249 -0.2064926,-0.3851 -0.070079,-1.46245 0.058447,-0.46159 0.066378,-0.85844 0.018929,-0.9471 -0.155727,-0.29098 -0.7334338,-0.93211 -0.7757062,-0.86087 -0.023365,0.0394 -0.072559,0.29454 -0.1093197,0.56703 -0.066439,0.49248 -0.070187,0.49713 -0.6279712,0.7787 -0.4455108,0.22489 -0.5471025,0.31595 -0.4930403,0.44192 0.037451,0.0873 0.087394,0.2705 0.1109836,0.40718 0.085884,0.49762 -0.7058396,0.39723 -0.8667995,-0.10991 -0.068232,-0.21497 0.091232,-0.46668 0.2956619,-0.46668 0.072307,0 0.4256837,-0.14816 0.7852819,-0.32925 0.6436488,-0.32414 0.6538149,-0.33503 0.6538149,-0.7002 v -0.37094 L 7.49121,261.84558 c -0.4180135,0.28367 -1.1229783,0.43871 -1.5475083,0.34033 -0.3230107,-0.0748 -1.1215893,-0.45739 -1.1215893,-0.53727 0,-0.14935 0.9040217,-0.91436 1.2797692,-1.08297 0.5928994,-0.26605 1.3512827,-0.26838 1.7071947,-0.005 l 0.2557403,0.18908 0.1974228,-0.34303 c 0.2316871,-0.40257 0.1522127,-0.64954 -0.3062775,-0.95178 -0.3531741,-0.23281 -0.6212452,-0.23106 -0.7686855,0.005 -0.1520969,0.24354 -0.3626862,0.2387 -0.4965478,-0.0114 -0.088072,-0.16457 -0.072642,-0.2327 0.089397,-0.39474 0.1533192,-0.15332 0.2204906,-0.17119 0.3093665,-0.0823 0.062439,0.0624 0.1962911,0.11351 0.2974494,0.11351 0.2766427,0 0.9762501,0.44263 1.0457578,0.66163 0.1236978,0.38973 0.269033,0.11156 0.2998216,-0.57387 0.056684,-1.26192 0.072304,-1.3892 0.1842589,-1.50136 0.060978,-0.0611 0.1769772,-0.0857 0.2577751,-0.0547 0.2073891,0.0796 0.1849614,0.50398 -0.032792,0.62052 -0.2219895,0.1188 -0.402589,0.87706 -0.2834998,1.19029 0.073888,0.19434 0.1089955,0.20644 0.3199639,0.11032 0.1861581,-0.0848 0.2369697,-0.17664 0.2369697,-0.42821 0,-0.23196 0.078758,-0.399 0.285685,-0.60593 0.2534193,-0.25342 0.3323493,-0.28043 0.6988613,-0.23911 l 0.413176,0.0466 0.0276,-0.57387 0.0276,-0.57387 0.585852,-0.0279 c 0.384053,-0.0183 0.585853,0.008 0.585853,0.0763 0,0.0573 -0.115999,0.0951 -0.257775,0.0841 -0.725938,-0.0567 -0.752682,-0.0383 -0.794222,0.54713 -0.05279,0.744 0.107092,0.9158 0.399723,0.4295 0.118881,-0.19756 0.219368,-0.36602 0.223304,-0.37435 0.0204,-0.0432 0.899508,0.22089 0.963413,0.28938 0.07004,0.0751 -0.02257,0.0623 -0.638326,-0.0877 -0.209422,-0.051 -0.273283,-0.0108 -0.445248,0.28068 -0.133176,0.22572 -0.20076,0.49831 -0.20076,0.80975 0,0.91118 -0.614679,1.45614 -0.992325,0.87978 -0.168194,-0.2567 -0.3199848,-0.23222 -0.3199848,0.0516 0,0.10006 -0.042181,0.18194 -0.093736,0.18194 -0.051555,0 -0.093736,-0.0447 -0.093736,-0.0993 0,-0.0546 -0.042181,-0.0732 -0.093736,-0.0413 -0.3014104,0.18628 0.2643529,0.51555 0.8858408,0.51555 0.359021,0 0.426469,-0.0286 0.426469,-0.18115 0,-0.1878 0.302167,-0.34357 0.467843,-0.24118 0.05202,0.0322 0.09458,0.15559 0.09458,0.27432 0,0.19616 -0.05409,0.2214 -0.592689,0.27658 -0.562882,0.0577 -1.1079249,-0.0387 -1.3229403,-0.23382 -0.049598,-0.045 -0.1570993,-0.0169 -0.2471825,0.0646 -0.147664,0.13363 -0.1083812,0.19546 0.5330178,0.83894 0.719028,0.72137 0.8997,1.11891 0.481523,1.05952 -0.154285,-0.0219 -0.212189,-0.0943 -0.215683,-0.26952 -0.0054,-0.27231 -0.4145831,-0.85088 -0.7915325,-1.11929 -0.2460091,-0.17518 -0.2661801,-0.17556 -0.6944169,-0.013 l -0.4410481,0.16742 0.3881965,0.46161 0.3881964,0.46161 -0.058247,0.88591 c -0.032035,0.48724 -0.030162,0.85781 0.00416,0.82349 0.136535,-0.13654 0.4127052,0.13091 0.4127052,0.39967 0,0.34215 -0.2692721,0.51976 -0.515274,0.33987 z m 2.0675375,-5.44391 c 0.199847,-0.30501 0.100606,-0.61388 -0.197241,-0.61388 -0.312616,0 -0.562443,0.38562 -0.421022,0.64987 0.140028,0.26165 0.434474,0.24451 0.618263,-0.036 z m -0.466472,-0.018 c -0.03251,-0.0847 -0.03983,-0.1733 -0.01627,-0.19686 0.0745,-0.0745 0.242784,0.0751 0.242784,0.21581 0,0.18387 -0.153622,0.17102 -0.226518,-0.019 z m -7.1786582,2.27042 c 0,-0.0303 2.0071602,-2.4829 4.4603559,-5.45013 2.7683673,-3.34845 4.4409333,-5.44559 4.4091543,-5.5284 -0.04989,-0.13 0.871037,-0.92574 0.963901,-0.83287 0.02329,0.0233 -0.07757,0.29321 -0.224118,0.59983 -0.186042,0.38924 -0.315048,0.55158 -0.427463,0.53789 -0.109441,-0.0133 -1.576273,1.69159 -4.58001,5.32338 -2.4304518,2.93863 -4.4601371,5.35703 -4.5104118,5.37422 -0.050275,0.0172 -0.091408,0.006 -0.091408,-0.0239 z M 21.94463,247.9614 c -0.03437,-0.0344 -0.06249,-0.51946 -0.06249,-1.07797 v -1.01548 h 0.400957 c 0.515353,0 0.817617,0.20784 0.817617,0.5622 0,0.1487 -0.04064,0.29548 -0.09032,0.32618 -0.05042,0.0312 -0.009,0.13713 0.09374,0.23988 0.435373,0.43537 0.02993,1.02768 -0.70346,1.02768 -0.216452,0 -0.421671,-0.0281 -0.456041,-0.0625 z m 0.907098,-0.40834 c 0.178779,-0.16202 0.01186,-0.41979 -0.290767,-0.44904 -0.291594,-0.0282 -0.303876,-0.0158 -0.303876,0.30643 0,0.31856 0.01323,0.33268 0.257775,0.27504 0.141776,-0.0334 0.293367,-0.093 0.336868,-0.13243 z m -0.141925,-0.91179 c 0.129305,-0.25141 0.02857,-0.39837 -0.273056,-0.39837 -0.241285,0 -0.273399,0.033 -0.273399,0.2812 0,0.2364 0.03682,0.28121 0.231044,0.28121 0.127074,0 0.269008,-0.0738 0.315411,-0.16404 z m 21.792918,0.70877 c -0.443934,-0.21462 -0.513907,-1.09203 -0.118614,-1.48732 0.204914,-0.20491 0.737553,-0.24559 0.913388,-0.0698 0.194329,0.19433 0.125041,0.25165 -0.282045,0.23334 -0.34398,-0.0155 -0.41041,0.0147 -0.51848,0.23547 -0.254029,0.51895 0.161735,1.07632 0.619942,0.8311 0.163686,-0.0876 0.19933,-0.0805 0.19933,0.0395 0,0.0804 -0.108199,0.18736 -0.240443,0.23764 -0.285312,0.10848 -0.309027,0.10765 -0.573078,-0.02 z"
         id="path895" />
      <path
         style="fill:#a0a0a0;stroke-width:0.0937364"
         d="m 30.291135,292.39642 c -0.03655,-0.0365 -0.06646,-0.53861 -0.06646,-1.11568 v -1.04924 l 0.53261,-0.055 c 0.577468,-0.0596 0.685963,-0.0319 0.685963,0.17488 0,0.0996 -0.123098,0.13507 -0.468682,0.13507 -0.479626,0 -0.545345,0.0661 -0.411785,0.41415 0.0384,0.10007 0.175528,0.14827 0.421814,0.14827 0.500199,0 0.492711,0.23682 -0.01003,0.31721 -0.364738,0.0583 -0.374946,0.0701 -0.374946,0.43379 v 0.37384 h 0.476494 c 0.339336,0 0.465358,0.0337 0.437808,0.11717 -0.04212,0.12758 -1.108695,0.21961 -1.222792,0.10551 z M 20.732212,278.60374 8.2879343,266.1592 l 7.3360867,-8.98503 7.336087,-8.98503 0.609287,-0.0232 c 0.335107,-0.0128 5.185967,-0.031 10.779687,-0.0404 l 10.170401,-0.0172 3.036242,4.01192 c 1.669933,2.20656 4.693233,6.20937 6.718444,8.89514 l 3.682201,4.88322 -11.716692,11.8956 C 39.795496,284.3367 34.220023,289.9954 33.849737,290.369 l -0.673248,0.67928 z m 24.691009,-0.22401 c 6.720647,-6.81337 12.233062,-12.42242 12.24981,-12.46456 0.03207,-0.0807 -12.798763,-17.14229 -13.141883,-17.47522 l -0.199138,-0.19322 -10.602017,0.0387 c -5.831109,0.0213 -10.642312,0.066 -10.691562,0.0995 -0.04925,0.0334 -3.267394,3.9626 -7.151433,8.73144 -3.884037,4.76884 -7.1273463,8.74651 -7.2073531,8.83926 -0.1360215,0.15769 0.6545943,0.96872 12.1759991,12.49038 6.776806,6.77695 12.327484,12.32173 12.334841,12.32173 0.0074,0 5.512087,-5.57458 12.232736,-12.38796 z M 6.321895,267.1974 c 0,-0.2522 0.3958143,-1.77691 0.4939094,-1.90258 0.050305,-0.0644 0.128096,-0.11717 0.1728683,-0.11717 0.070342,0 1.0204777,1.78755 1.0204777,1.91989 0,0.0267 -0.083559,0.0486 -0.185687,0.0486 -0.1198909,0 -0.2065276,-0.083 -0.2445028,-0.23434 -0.060504,-0.24107 -0.1417963,-0.26037 -0.6435992,-0.15276 -0.1905376,0.0409 -0.2937746,0.13034 -0.330663,0.28661 -0.061558,0.26076 -0.2828034,0.3795 -0.2828034,0.15177 z m 1.0311005,-0.74407 c 0,-0.0202 -0.079397,-0.21397 -0.1764377,-0.43072 -0.1924448,-0.42984 -0.2416883,-0.41301 -0.3410347,0.11655 -0.064567,0.34418 -0.060303,0.3508 0.2258312,0.3508 0.1604026,0 0.2916412,-0.0165 0.2916412,-0.0366 z m 51.7107515,-0.3512 c -0.0332,-0.27646 -0.06073,-0.72412 -0.06117,-0.99478 l -8.15e-4,-0.49212 h 0.519811 c 0.426916,0 0.560929,0.0411 0.749891,0.23008 0.126544,0.12655 0.23455,0.32691 0.240013,0.44525 0.03992,0.8647 -0.204683,1.2006 -0.924644,1.26978 l -0.462721,0.0445 z m 0.948254,0.0544 c 0.159494,-0.11171 0.207994,-0.23806 0.206895,-0.53899 -7.5e-4,-0.21618 -0.03243,-0.43947 -0.0703,-0.4962 -0.125435,-0.18785 -0.494791,-0.33 -0.693558,-0.26692 -0.175885,0.0558 -0.189905,0.11116 -0.137877,0.54418 0.03185,0.26512 0.05828,0.57694 0.05873,0.69294 9.84e-4,0.25579 0.317538,0.28813 0.636112,0.065 z m -51.25595,-1.68981 c -0.050648,-0.13321 -0.072806,-0.2734 -0.04924,-0.31153 0.023566,-0.0381 0.088382,-0.43577 0.1440362,-0.88364 0.076607,-0.61647 0.074051,-0.8653 -0.01052,-1.0242 -0.1426385,-0.26802 -0.6713915,-0.90902 -0.7516703,-0.91124 -0.033604,-9.4e-4 -0.090656,0.25297 -0.1267807,0.56423 l -0.065682,0.56592 -0.5762424,0.28882 c -0.7096454,0.35568 -0.6757275,0.3211 -0.4936652,0.50317 0.1910318,0.19103 0.1946601,0.45476 0.00838,0.60936 -0.2895196,0.24027 -0.8654757,-0.26522 -0.7244591,-0.63584 0.02469,-0.0649 0.1562365,-0.14441 0.2923262,-0.17671 0.1360898,-0.0323 0.5110696,-0.2043 0.8332885,-0.38221 0.5045982,-0.2786 0.5858526,-0.36029 0.5858526,-0.58894 0,-0.14601 0.027845,-0.34274 0.061878,-0.43718 0.053021,-0.14713 0.029359,-0.14216 -0.1653179,0.0347 -0.6142081,0.55807 -1.5976034,0.65047 -2.4155516,0.22696 l -0.5036586,-0.26078 0.4749031,-0.4749 c 0.6002229,-0.60023 1.1286102,-0.81273 1.8848464,-0.75803 0.3614915,0.0261 0.6280332,0.1003 0.7467503,0.20774 0.1796323,0.16256 0.1898943,0.15671 0.3804754,-0.21686 0.1853327,-0.36328 0.1874469,-0.39677 0.039322,-0.62283 -0.1676836,-0.25592 -0.5843623,-0.51054 -0.8354784,-0.51054 -0.084518,0 -0.2240713,0.0869 -0.3101192,0.19321 -0.2003422,0.24741 -0.4828865,0.15419 -0.4828865,-0.15932 0,-0.2706 0.2375041,-0.38749 0.4798271,-0.23616 0.095581,0.0597 0.2847723,0.10853 0.4204247,0.10853 0.1629045,0 0.3743688,0.12773 0.6228571,0.37622 0.2870007,0.287 0.4053971,0.352 0.4992697,0.27409 0.095531,-0.0793 0.099327,-0.1542 0.016972,-0.33495 -0.079275,-0.17399 -0.078427,-0.36761 0.00336,-0.76621 0.06019,-0.29336 0.086267,-0.62069 0.057949,-0.7274 -0.070863,-0.26703 0.1877122,-0.48391 0.3833596,-0.32153 0.1942093,0.16118 0.1762656,0.44473 -0.032333,0.51093 -0.1998693,0.0634 -0.4236051,0.90579 -0.3311131,1.24663 0.066794,0.24613 0.052123,0.24196 0.3590356,0.10212 0.1880279,-0.0857 0.2387516,-0.17682 0.2387516,-0.42902 0,-0.23196 0.078758,-0.399 0.285685,-0.60593 0.2538153,-0.25382 0.3320129,-0.28046 0.7009789,-0.23888 0.407877,0.046 0.416327,0.0413 0.47311,-0.26137 0.0318,-0.1695 0.0282,-0.40148 -0.008,-0.51551 -0.04239,-0.13355 -0.02054,-0.236 0.0614,-0.28792 0.172088,-0.10904 0.993084,-0.10539 1.061134,0.005 0.03226,0.0522 -0.07817,0.0667 -0.270589,0.0354 -0.178798,-0.029 -0.422287,-0.0281 -0.541084,0.002 -0.197176,0.05 -0.216367,0.10792 -0.220252,0.66492 -0.0052,0.74974 0.143013,0.85693 0.469608,0.33957 l 0.229915,-0.36421 0.441627,0.13291 c 0.424923,0.12789 0.746667,0.30326 0.362889,0.1978 -0.712143,-0.19569 -0.764875,-0.1861 -0.991293,0.18025 -0.151063,0.24443 -0.208994,0.46524 -0.192485,0.73369 0.03001,0.48804 -0.105648,0.84525 -0.392349,1.03311 -0.274063,0.17957 -0.472345,0.11659 -0.614381,-0.19514 -0.126305,-0.27721 -0.2935074,-0.21471 -0.2935074,0.10971 0,0.12584 -0.042181,0.22881 -0.093736,0.22881 -0.051555,0 -0.093736,-0.0422 -0.093736,-0.0937 0,-0.0515 -0.042181,-0.0937 -0.093736,-0.0937 -0.1725618,0 -0.096129,0.27334 0.106802,0.38194 0.5986954,0.32041 1.1058514,0.30605 1.2557944,-0.0356 0.129334,-0.29466 0.465264,-0.27403 0.465264,0.0286 0,0.21374 -0.04533,0.24001 -0.51555,0.29887 -0.558258,0.0699 -0.837272,0.0301 -1.2502369,-0.17808 -0.2385123,-0.12025 -0.2782654,-0.11735 -0.3846465,0.0281 -0.1037092,0.14183 -0.03132,0.25043 0.5751121,0.86279 0.6864783,0.6932 0.8254153,1.00361 0.4492003,1.00361 -0.138801,0 -0.187287,-0.0645 -0.190501,-0.2535 -0.0047,-0.27347 -0.4741533,-0.9219 -0.8420582,-1.16296 -0.2067059,-0.13544 -0.2616065,-0.13423 -0.650493,0.0143 -0.2336033,0.0892 -0.4247334,0.19213 -0.4247334,0.22869 0,0.0366 0.085725,0.14405 0.1904992,0.23887 0.1047746,0.0948 0.2772456,0.31276 0.3832689,0.48431 0.1716154,0.27768 0.1854964,0.39922 0.1264914,1.10757 -0.064323,0.77219 -0.060334,0.79566 0.1352233,0.79566 0.2386827,0 0.332062,0.19202 0.2508093,0.51576 -0.083317,0.33196 -0.4933472,0.32662 -0.6206007,-0.008 z M 10.967447,259.23 c 0.197188,-0.30095 0.140389,-0.55932 -0.131458,-0.598 -0.409785,-0.0583 -0.736041,0.44389 -0.464681,0.71525 0.180379,0.18038 0.433782,0.13054 0.596139,-0.11725 z m -0.461518,-0.005 c -0.03265,-0.0851 2.94e-4,-0.14007 0.08391,-0.14007 0.151608,0 0.186097,0.14648 0.05375,0.22827 -0.04615,0.0285 -0.108101,-0.0112 -0.137663,-0.0882 z m -7.007578,2.03931 c 0.1038328,-0.14178 2.1269749,-2.59885 4.4958714,-5.46015 2.8772926,-3.47538 4.2788056,-5.2372 4.2218966,-5.30729 -0.05718,-0.0704 0.08476,-0.23323 0.431673,-0.49515 0.284274,-0.21463 0.516861,-0.36871 0.516861,-0.34241 0,0.0263 -0.114712,0.28172 -0.254914,0.56759 -0.153959,0.31391 -0.301458,0.5019 -0.372434,0.47466 -0.06944,-0.0266 -1.949817,2.17605 -4.5959447,5.38374 -2.4631343,2.98586 -4.5129342,5.43062 -4.5551111,5.43281 -0.042177,0.002 0.00827,-0.11203 0.1121018,-0.2538 z M 21.94463,247.9614 c -0.03437,-0.0344 -0.06249,-0.49646 -0.06249,-1.02686 v -0.96436 l 0.305619,-0.0573 c 0.61213,-0.11484 1.119025,0.35735 0.846839,0.78885 -0.06877,0.10903 -0.04322,0.21689 0.09596,0.40515 0.344016,0.4653 -0.05848,0.91704 -0.817086,0.91704 -0.168494,0 -0.334474,-0.0281 -0.368844,-0.0625 z m 0.85964,-0.30106 c 0.06896,-0.0437 0.111136,-0.18015 0.09374,-0.30321 -0.02601,-0.18392 -0.0942,-0.22892 -0.383147,-0.25283 -0.33191,-0.0275 -0.351512,-0.014 -0.351512,0.24215 0,0.14919 0.02812,0.29937 0.06249,0.33374 0.08718,0.0872 0.428032,0.0755 0.57843,-0.0199 z m -0.07198,-1.00349 c 0.167421,-0.20173 0.004,-0.45171 -0.320619,-0.49048 -0.227729,-0.0272 -0.248321,-0.002 -0.248321,0.30464 0,0.28951 0.02986,0.3343 0.222864,0.3343 0.122575,0 0.278309,-0.0668 0.346076,-0.14846 z m 21.594872,0.51801 c -0.263042,-0.29071 -0.234796,-0.95506 0.05366,-1.26211 0.244975,-0.26076 0.616668,-0.30207 0.893924,-0.0993 0.23738,0.17357 0.118367,0.28974 -0.149805,0.14622 -0.512115,-0.27408 -0.958773,0.4602 -0.60675,0.99746 0.136653,0.20856 0.208335,0.23691 0.485373,0.19195 0.228986,-0.0372 0.314137,-0.0196 0.288141,0.0595 -0.0203,0.0618 -0.20453,0.12485 -0.409412,0.1402 -0.285289,0.0214 -0.41527,-0.0193 -0.555131,-0.17392 z"
         id="path893" />
      <path
         style="fill:#8b8b8b;stroke-width:0.0937364"
         d="m 30.291135,292.39642 c -0.03655,-0.0365 -0.06646,-0.54451 -0.06646,-1.1288 v -1.06235 h 0.609286 c 0.723628,0 0.805892,0.14285 0.135376,0.23506 -0.463561,0.0638 -0.473286,0.0716 -0.445248,0.36031 0.02679,0.2758 0.05267,0.29513 0.39509,0.29513 0.209443,0 0.383463,0.0502 0.406191,0.11717 0.02746,0.0809 -0.07696,0.11717 -0.337461,0.11717 -0.445625,0 -0.521248,0.0896 -0.440201,0.52163 0.05933,0.31624 0.06886,0.322 0.532654,0.322 0.335937,0 0.46108,0.0338 0.43356,0.11717 -0.04212,0.12758 -1.108695,0.21961 -1.222792,0.10551 z m -9.564064,-13.80127 -12.429557,-12.43327 7.306098,-8.95182 7.306097,-8.95183 2.977897,-0.0576 c 1.637843,-0.0317 6.500254,-0.0633 10.80536,-0.0703 l 7.827464,-0.0127 6.667173,8.83466 c 3.666944,4.85906 6.676236,8.87032 6.687314,8.91391 0.01752,0.0689 -8.490063,8.7383 -20.954164,21.35271 l -3.764125,3.80952 z m 24.733115,-0.2333 c 6.700317,-6.79743 12.182394,-12.41923 12.182394,-12.49287 0,-0.0737 -2.973788,-4.08118 -6.608417,-8.90563 l -6.608417,-8.77172 -5.249239,0.0566 c -2.887081,0.0312 -7.696581,0.0567 -10.687778,0.0567 l -5.438538,9e-5 -7.284183,8.92839 -7.2841821,8.92839 12.3009071,12.30451 c 6.7655,6.76748 12.344591,12.29324 12.397983,12.27947 0.05339,-0.0138 5.579151,-5.58657 12.27947,-12.38401 z M 6.3242069,267.16955 c 0.00127,-0.0902 0.098654,-0.54367 0.2164055,-1.00767 0.173502,-0.68367 0.2495972,-0.84885 0.4013509,-0.8712 0.1542868,-0.0227 0.2635653,0.1382 0.6206529,0.91393 0.3749885,0.81462 0.4103854,0.94151 0.2626539,0.94151 -0.1039495,0 -0.19375,-0.0917 -0.2295577,-0.23434 -0.044896,-0.17888 -0.1194006,-0.23404 -0.3148051,-0.23307 -0.4770288,0.002 -0.655496,0.0981 -0.7122714,0.38197 -0.058858,0.29429 -0.248231,0.37864 -0.244429,0.10887 z m 1.0287886,-0.71869 c 0,-0.0215 -0.091087,-0.24295 -0.2024146,-0.49211 -0.154396,-0.34555 -0.2116044,-0.40855 -0.2411527,-0.26555 -0.021306,0.10311 -0.074454,0.32456 -0.118107,0.49212 -0.078102,0.29978 -0.074251,0.30464 0.2411527,0.30464 0.1762869,0 0.3205216,-0.0176 0.3205216,-0.0391 z m 51.7093855,-0.58433 c -0.111929,-1.32411 -0.138649,-1.2513 0.459188,-1.2513 0.694258,0 0.979972,0.26018 0.979972,0.8924 0,0.23773 -0.04558,0.5174 -0.101282,0.62148 -0.120467,0.2251 -0.628729,0.45459 -1.006791,0.45459 -0.269279,0 -0.27073,-0.003 -0.331087,-0.71717 z m 0.986531,0.28083 c 0.202013,-0.18282 0.234759,-0.84726 0.05394,-1.09454 -0.06461,-0.0884 -0.275519,-0.18631 -0.468682,-0.21765 l -0.351204,-0.057 v 0.69966 c 0,0.38482 0.02812,0.72779 0.06249,0.76216 0.117342,0.11734 0.531725,0.0628 0.703453,-0.0926 z M 8.8703488,264.62808 c -0.1116543,-0.0708 -0.1925938,-0.62776 -0.1021753,-0.70308 0.020755,-0.0173 0.1748259,0.006 0.3423797,0.0509 0.2301298,0.0622 0.3046433,0.13438 0.3046433,0.29522 0,0.355 -0.269513,0.53159 -0.5448477,0.35699 z M 6.3814044,263.7648 c -0.276045,-0.21713 -0.3180695,-0.47366 -0.1063776,-0.64935 0.077332,-0.0642 0.1406046,-0.0897 0.1406046,-0.0568 0,0.033 0.2151709,-0.0491 0.4781576,-0.18237 0.2629867,-0.13327 0.4537079,-0.20274 0.423825,-0.15439 -0.029883,0.0483 -0.1817818,0.1407 -0.3375529,0.20522 -0.3181152,0.13177 -0.3465031,0.20657 -0.1426159,0.37578 0.1693049,0.14051 0.1821889,0.38961 0.028121,0.54367 -0.1516042,0.15161 -0.1972491,0.1439 -0.4841618,-0.0818 z m 2.4969041,-0.36814 c 0,-0.232 0.01828,-0.32691 0.040623,-0.21091 0.022342,0.116 0.022342,0.30582 0,0.42182 -0.022342,0.116 -0.040623,0.0211 -0.040623,-0.21091 z m 0.080971,-0.76071 c -0.0093,-0.24692 -0.1190122,-0.4695 -0.4042859,-0.82019 -0.4322641,-0.53139 -0.5422007,-0.58512 -0.5532436,-0.27039 -0.00407,0.11599 -0.027682,0.16116 -0.052471,0.10036 -0.030434,-0.0747 -0.1555719,-0.0356 -0.3853413,0.12037 -0.1871489,0.127 -0.3977255,0.20887 -0.4679481,0.18192 -0.070222,-0.0269 -0.1048701,-0.0121 -0.076995,0.033 0.066624,0.1078 -0.2713393,0.19418 -0.7659586,0.19578 -0.2523517,8.4e-4 -0.5838383,-0.0944 -0.910051,-0.26146 l -0.5131152,-0.26274 0.3945006,-0.40779 c 0.7562322,-0.78172 1.8933126,-1.07624 2.5676566,-0.66506 l 0.2984277,0.18196 0.1985193,-0.33646 c 0.1091856,-0.18506 0.1757379,-0.39583 0.1478941,-0.46839 -0.029082,-0.0758 -0.00945,-0.10648 0.046143,-0.0721 0.1453312,0.0898 0.3657808,-0.13507 0.3084835,-0.31469 -0.036712,-0.11509 -0.026861,-0.12484 0.036783,-0.0364 0.1469962,0.2043 0.5869177,-0.0205 0.5869177,-0.29985 0,-0.63084 0.4927251,-1.06176 1.0866327,-0.95034 0.335328,0.0629 0.321398,0.0815 0.4522,-0.60473 0.02457,-0.12889 0.02598,0.004 0.0031,0.29474 -0.03268,0.41647 -0.01081,0.54088 0.10274,0.58445 0.09745,0.0374 0.206784,-0.0506 0.336992,-0.27132 0.106006,-0.17966 0.21383,-0.32666 0.239607,-0.32666 0.02578,0 -0.04462,0.15506 -0.156437,0.34457 -0.13408,0.22725 -0.209096,0.52396 -0.220313,0.87141 -0.02174,0.6734 -0.240684,1.03369 -0.628158,1.03369 -0.153477,0 -0.279048,-0.0341 -0.279048,-0.0758 0,-0.0417 -0.06098,-0.1577 -0.135512,-0.25777 -0.129416,-0.17377 -0.140662,-0.16742 -0.2500094,0.14133 -0.098777,0.27889 -0.1238356,0.2982 -0.1825047,0.1406 -0.066484,-0.17859 -0.069631,-0.17868 -0.1405676,-0.004 -0.05269,0.12972 -0.014096,0.22598 0.1409278,0.35151 0.2382849,0.19295 0.1873087,0.22674 -0.1055876,0.07 -0.1511574,-0.0809 -0.2249674,-0.0702 -0.3453418,0.0502 -0.1416365,0.14163 -0.1250316,0.17991 0.2218427,0.51144 0.7871646,0.75233 1.0989026,1.13245 1.0446616,1.2738 -0.03,0.0782 -0.116306,0.14216 -0.191783,0.14216 -0.152167,0 -0.288289,-0.32054 -0.198097,-0.46647 0.03168,-0.0513 -0.18897,-0.34676 -0.4903381,-0.65666 L 9.17226,260.86652 8.8120273,261.05017 c -0.1981279,0.10102 -0.4061468,0.19897 -0.4622641,0.21767 -0.056117,0.0187 0.056743,0.2195 0.2507996,0.44622 0.3799611,0.4439 0.4791719,0.69364 0.4133038,1.04041 -0.029194,0.1537 -0.045737,0.11784 -0.054637,-0.11845 z m 1.9717525,-3.33135 c 0.208931,-0.18908 0.222531,-0.52939 0.02762,-0.69115 -0.32891,-0.27297 -0.882018,0.3732 -0.605081,0.70689 0.151458,0.1825 0.364837,0.17668 0.577461,-0.0157 z m -0.358029,-0.01 c 0.03406,-0.0551 0.0089,-0.12158 -0.05582,-0.14769 -0.08428,-0.034 -0.08602,-0.0496 -0.0061,-0.0549 0.161309,-0.0107 0.238797,0.15519 0.109749,0.23495 -0.06541,0.0404 -0.08473,0.0274 -0.04781,-0.0324 z m -2.9622326,3.23761 c 0.155298,-0.0749 0.2148623,-0.19062 0.2259083,-0.4389 l 0.015001,-0.33719 0.039245,0.32394 c 0.038748,0.31984 -0.1405982,0.57627 -0.3918068,0.56021 -0.05459,-0.003 -0.00435,-0.0521 0.1116525,-0.10806 z m -4.1639305,-1.16859 c 0.036718,-0.0612 2.0461443,-2.50616 4.4653908,-5.43323 2.9170363,-3.52935 4.3698353,-5.35664 4.3131423,-5.42495 -0.05684,-0.0685 0.06968,-0.21884 0.377593,-0.44873 0.254695,-0.19014 0.484809,-0.34572 0.511366,-0.34572 0.02656,0 -0.06552,0.23205 -0.204616,0.51566 -0.173621,0.354 -0.298186,0.50335 -0.397362,0.4764 -0.09849,-0.0268 -1.531654,1.64553 -4.5032038,5.25453 -3.8815787,4.71425 -4.8005124,5.80313 -4.5623103,5.40604 z m 7.0756181,-0.56203 c 0.06767,-0.0271 0.148514,-0.0237 0.179661,0.007 0.03115,0.0311 -0.02421,0.0533 -0.123029,0.0492 -0.109197,-0.005 -0.131409,-0.0267 -0.05663,-0.0566 z m -0.374946,-0.0937 c 0.06767,-0.0271 0.148514,-0.0238 0.179662,0.007 0.03115,0.0312 -0.02422,0.0533 -0.123029,0.0492 -0.109198,-0.005 -0.131409,-0.0267 -0.05663,-0.0566 z m 0.744033,-0.003 c 0.06444,-0.0234 0.117171,-0.0972 0.117171,-0.16391 0,-0.1848 0.238138,-0.34239 0.414888,-0.27457 0.09426,0.0362 0.146049,0.14027 0.129052,0.2594 -0.0232,0.16258 -0.09697,0.20105 -0.403336,0.21032 -0.20622,0.006 -0.322219,-0.008 -0.257775,-0.0312 z M 8.0560184,259.5033 c -0.3551631,-0.29112 -0.7283415,-0.30004 -0.9130752,-0.0218 -0.1202235,0.18106 -0.1600859,0.19227 -0.2926425,0.0823 -0.343732,-0.28528 -0.050381,-0.72943 0.3263668,-0.49415 0.095581,0.0597 0.2708579,0.10853 0.3895036,0.10853 0.1186458,0 0.3617612,0.12483 0.5402563,0.2774 0.3908129,0.33405 0.3481579,0.37447 -0.050409,0.0478 z m 0.6175602,-0.28684 c -0.00455,-0.1078 0.049874,-0.38922 0.1209426,-0.62536 0.087106,-0.28943 0.098323,-0.46025 0.034422,-0.52415 -0.1563805,-0.15638 3.187e-4,-0.40497 0.2343228,-0.37174 0.28171,0.04 0.3430812,0.41224 0.081647,0.49522 -0.1376621,0.0437 -0.2240891,0.21395 -0.3252683,0.64077 -0.075786,0.3197 -0.141515,0.49307 -0.1460661,0.38526 z M 12.115977,258.083 c 0.06766,-0.0271 0.148513,-0.0238 0.179662,0.007 0.03115,0.0312 -0.02422,0.0533 -0.123029,0.0492 -0.109199,-0.005 -0.131409,-0.0267 -0.05663,-0.0566 z m -1.294734,-0.7796 c 0,-0.0516 0.04467,-0.0937 0.09927,-0.0937 0.0546,0 0.0732,0.0422 0.04134,0.0937 -0.03186,0.0516 -0.07653,0.0937 -0.09927,0.0937 -0.02274,0 -0.04134,-0.0422 -0.04134,-0.0937 z m 0.446341,-0.16003 c 0.116599,-0.0224 0.285325,-0.0216 0.374945,0.002 0.08962,0.0235 -0.0058,0.0418 -0.212,0.0408 -0.20622,-10e-4 -0.279545,-0.0202 -0.162945,-0.0427 z m 10.673586,-9.18582 c -0.03247,-0.0325 -0.05903,-0.49491 -0.05903,-1.02764 v -0.96861 h 0.461987 c 0.647921,0 0.907968,0.29188 0.66482,0.74621 -0.06667,0.12456 -0.05384,0.20294 0.04687,0.28652 0.196747,0.16329 0.179598,0.72067 -0.0254,0.82571 -0.218071,0.11173 -1.014549,0.2125 -1.08924,0.13781 z m 0.823798,-0.27216 c 0.236057,-0.0906 0.183463,-0.49351 -0.08009,-0.61359 -0.345716,-0.15752 -0.521528,-0.0431 -0.521528,0.33947 0,0.28761 0.02972,0.33102 0.226675,0.33102 0.124671,0 0.293397,-0.0256 0.374945,-0.0569 z m 0.0091,-1.07244 c 0.07833,-0.24679 -0.103314,-0.46418 -0.387849,-0.46418 -0.19221,0 -0.222864,0.0451 -0.222864,0.32808 0,0.30036 0.02322,0.32807 0.274893,0.32807 0.194715,0 0.292664,-0.056 0.335822,-0.19197 z m 21.559692,0.56885 c -0.3456,-0.38189 -0.135268,-1.30834 0.3306,-1.4562 0.267888,-0.085 0.651889,0.0225 0.651889,0.18247 0,0.10707 -0.05228,0.11098 -0.289381,0.0217 -0.260156,-0.098 -0.307489,-0.0867 -0.468682,0.11226 -0.208609,0.25747 -0.234503,0.74535 -0.05275,0.99391 0.09874,0.13504 0.201727,0.16087 0.468682,0.11755 0.342532,-0.0556 0.472843,0.0499 0.193862,0.15701 -0.291758,0.11195 -0.669139,0.0538 -0.834216,-0.12865 z"
         id="path891" />
      <path
         style="fill:#707070;stroke-width:0.0937364"
         d="m 30.285908,291.96695 c -0.03278,-0.27293 -0.05997,-0.78096 -0.06041,-1.12895 l -8.14e-4,-0.63273 h 0.609286 c 0.723856,0 0.805738,0.13726 0.134963,0.22625 -0.466453,0.0619 -0.473842,0.0679 -0.445248,0.36358 0.02729,0.28225 0.05156,0.30067 0.396057,0.30067 0.210182,0 0.383734,0.0501 0.406192,0.11717 0.02705,0.0808 -0.07781,0.11717 -0.338016,0.11717 -0.445625,0 -0.521248,0.0896 -0.440201,0.52163 0.05933,0.31624 0.06886,0.322 0.532654,0.322 0.701352,0 0.554293,0.22656 -0.169993,0.2619 l -0.564868,0.0276 z m -9.594441,-13.40683 -12.3921749,-12.39824 7.3060319,-8.95182 7.306032,-8.95183 2.977073,-0.0576 c 1.63739,-0.0317 6.499219,-0.0632 10.804063,-0.0701 l 7.826991,-0.0126 6.708342,8.88947 6.708344,8.88947 -12.325584,12.50572 c -6.779072,6.87814 -12.37089,12.51697 -12.426264,12.53074 -0.05537,0.0138 -5.677159,-5.55417 -12.492854,-12.37321 z m 24.81552,-0.24566 c 6.726131,-6.8235 12.222997,-12.42626 12.215256,-12.45057 -0.0077,-0.0243 -3.002619,-4.01063 -6.655285,-8.85848 l -6.641212,-8.81426 -5.33498,0.057 c -2.934238,0.0313 -7.744009,0.057 -10.688378,0.057 h -5.353399 l -7.284596,8.92839 -7.2845957,8.92839 12.3019217,12.30451 c 6.766057,6.76748 12.345575,12.29324 12.39893,12.27947 0.05335,-0.0138 5.600207,-5.6079 12.326338,-12.4314 z M 6.321895,267.22995 c 0,-0.0931 0.1167813,-0.58154 0.384234,-1.60705 0.1602783,-0.61457 0.3724822,-0.46974 0.8583933,0.58585 0.3146487,0.68354 0.3946506,0.93737 0.2954446,0.93737 -0.074825,0 -0.1840928,-0.10546 -0.2428179,-0.23434 -0.1844468,-0.40482 -0.9597908,-0.29471 -1.0485131,0.1489 -0.05157,0.25785 -0.2467409,0.39174 -0.2467409,0.16927 z m 0.9786739,-0.9509 C 7.264786,266.16306 7.1691572,265.9416 7.0880605,265.78694 6.959362,265.54149 6.9361663,265.52957 6.905651,265.6932 c -0.019228,0.10311 -0.070677,0.32456 -0.1143298,0.49212 -0.078323,0.30063 -0.075061,0.30464 0.2474694,0.30464 0.2957295,0 0.3206458,-0.0201 0.2617783,-0.21091 z m 51.7714531,-0.60928 c -0.02696,-0.50266 -0.03022,-0.94557 -0.0072,-0.98423 0.02298,-0.0387 0.252113,-0.0703 0.509188,-0.0703 0.637759,0 0.927572,0.27883 0.927572,0.8924 0,0.23773 -0.04558,0.5174 -0.101281,0.62148 -0.120589,0.22533 -0.62884,0.45459 -1.007773,0.45459 h -0.271447 l -0.04902,-0.91393 z m 0.979957,0.46868 c 0.206055,-0.23818 0.261588,-0.55931 0.151389,-0.87543 -0.108982,-0.31263 -0.32712,-0.46031 -0.679897,-0.46031 -0.236317,0 -0.240504,0.012 -0.240504,0.6874 0,0.37807 0.02812,0.71552 0.06249,0.74989 0.123192,0.12319 0.567318,0.0594 0.70652,-0.10155 z M 8.8762122,264.64797 c -0.064925,-0.0268 -0.1171705,-0.20845 -0.1171705,-0.40739 0,-0.3434 0.01091,-0.35611 0.2506032,-0.292 0.3314001,0.0886 0.4853593,0.33162 0.348157,0.54948 -0.1095121,0.1739 -0.2884807,0.22961 -0.4815897,0.14991 z M 6.3814044,263.7648 c -0.276045,-0.21713 -0.3180695,-0.47366 -0.1063776,-0.64935 0.077332,-0.0642 0.1406046,-0.0897 0.1406046,-0.0568 0,0.033 0.2109069,-0.0469 0.468682,-0.17757 0.2577752,-0.13063 0.4686821,-0.21678 0.4686821,-0.19146 0,0.0253 -0.1370895,0.11576 -0.3046433,0.20097 -0.1675539,0.0852 -0.3165058,0.16495 -0.3310042,0.17719 -0.014499,0.0122 0.04703,0.15012 0.1367292,0.30642 0.1371059,0.23889 0.1432107,0.30812 0.038317,0.43451 -0.1612584,0.1943 -0.2138693,0.18978 -0.5109902,-0.0439 z m 2.4950124,-0.32127 c 0.00104,-0.20622 0.020236,-0.27955 0.042657,-0.16295 0.022421,0.1166 0.02157,0.28533 -0.00189,0.37495 -0.023462,0.0896 -0.041806,-0.006 -0.040766,-0.212 z m 0.085099,-0.81693 c -0.00985,-0.22856 -0.1043922,-0.45408 -0.2750768,-0.65616 -0.4613201,-0.54616 -0.5576616,-0.70663 -0.2702225,-0.45011 0.4168271,0.372 0.6410222,0.80197 0.5982902,1.14741 l -0.03799,0.30711 z m -1.3507452,-0.0942 c 0.1452307,-0.07 0.2152805,-0.19212 0.2249517,-0.39203 l 0.014045,-0.29032 0.040865,0.27659 c 0.040333,0.27298 -0.15471,0.52896 -0.3915135,0.51382 -0.05459,-0.003 -0.00435,-0.0521 0.1116518,-0.10806 z m 2.6333814,-0.0496 c -0.0081,-0.0387 -0.02282,-0.18252 -0.03278,-0.31967 -0.02048,-0.28207 -0.3186017,-0.67933 -0.7824511,-1.04266 -0.27901,-0.21854 -0.3369697,-0.23206 -0.5155503,-0.12027 -0.11066,0.0693 -0.3593803,0.17612 -0.5527117,0.23741 -0.2594377,0.0823 -0.3534499,0.1648 -0.3589117,0.31509 -0.00407,0.11201 -0.027682,0.1539 -0.052471,0.0931 -0.030434,-0.0747 -0.1555719,-0.0356 -0.3853413,0.12037 -0.1871489,0.127 -0.3977255,0.20887 -0.4679481,0.18192 -0.070222,-0.0269 -0.1048701,-0.0121 -0.076995,0.033 0.027875,0.0451 -0.043751,0.10732 -0.1591702,0.13825 -0.4479385,0.12006 -0.9749454,0.0491 -1.4981326,-0.20176 l -0.5383888,-0.25814 0.3977841,-0.41118 c 0.7594674,-0.78504 1.8953627,-1.08037 2.5709399,-0.66844 l 0.2984277,0.18196 0.1985193,-0.33646 c 0.1091856,-0.18506 0.1757379,-0.39583 0.1478941,-0.46839 -0.029082,-0.0758 -0.00945,-0.10648 0.046143,-0.0721 0.1453312,0.0898 0.3657808,-0.13507 0.3084835,-0.31469 -0.036712,-0.11509 -0.026861,-0.12484 0.036783,-0.0364 0.1469962,0.2043 0.5869177,-0.0205 0.5869177,-0.29985 0,-0.63228 0.4926012,-1.06179 1.0893565,-0.94983 0.22538,0.0423 0.319384,0.0244 0.326033,-0.062 0.0051,-0.0668 0.03794,-0.0191 0.07289,0.10597 0.09742,0.34863 0.270145,0.33713 0.488236,-0.0325 0.108869,-0.18451 0.219032,-0.33548 0.24481,-0.33548 0.02578,0 -0.04462,0.15506 -0.156437,0.34457 -0.13408,0.22725 -0.209096,0.52396 -0.220313,0.87141 -0.02174,0.6734 -0.240687,1.03369 -0.628161,1.03369 -0.153477,0 -0.279048,-0.0341 -0.279048,-0.0758 0,-0.0417 -0.05922,-0.1568 -0.131589,-0.25578 -0.125039,-0.171 -0.138654,-0.16373 -0.2735625,0.14613 -0.08707,0.19997 -0.1449314,0.2605 -0.1496209,0.1565 -0.010021,-0.22223 -0.1951192,-0.10658 -0.1951192,0.12192 0,0.0966 0.087542,0.20341 0.1945369,0.23737 0.1069952,0.034 0.17388,0.0824 0.1486327,0.10765 -0.025247,0.0253 -0.1388005,-0.004 -0.2523407,-0.0646 -0.1683244,-0.0901 -0.2347014,-0.0822 -0.3595324,0.0426 -0.1416365,0.14164 -0.1250316,0.17992 0.2218427,0.51145 0.7871644,0.75233 1.0989024,1.13245 1.0446614,1.2738 -0.05552,0.14468 -0.329585,0.19995 -0.356318,0.0719 z m -3.2303364,-1.66869 c 0.032011,-0.0834 0.016296,-0.12104 -0.036839,-0.0882 -0.050965,0.0315 -0.092663,0.097 -0.092663,0.14547 0,0.13483 0.067187,0.10512 0.1295022,-0.0573 z m 3.9172164,-1.50944 c 0.20876,-0.18893 0.222578,-0.52935 0.02804,-0.6908 -0.338653,-0.28106 -0.89061,0.36301 -0.605501,0.70654 0.151458,0.1825 0.364837,0.17668 0.577461,-0.0157 z m -7.4896701,2.06803 c 0.033705,-0.0563 2.0434571,-2.50089 4.4661147,-5.43235 2.9458864,-3.56458 4.3762774,-5.36434 4.3186204,-5.43381 -0.0578,-0.0696 0.06641,-0.21782 0.376869,-0.44961 0.254695,-0.19014 0.484809,-0.34572 0.511366,-0.34572 0.02656,0 -0.06552,0.23205 -0.204616,0.51566 -0.174006,0.35479 -0.297966,0.50323 -0.397362,0.47583 -0.09874,-0.0272 -1.523987,1.63568 -4.5032036,5.25405 -3.849232,4.67505 -4.7964685,5.79817 -4.5677885,5.41595 z m 7.0810961,-0.57089 c 0.06767,-0.0271 0.148514,-0.0237 0.179661,0.007 0.03115,0.0311 -0.02421,0.0533 -0.123029,0.0492 -0.109197,-0.005 -0.131409,-0.0267 -0.05663,-0.0566 z m -0.374946,-0.0937 c 0.06767,-0.0271 0.148514,-0.0238 0.179662,0.007 0.03115,0.0312 -0.02422,0.0533 -0.123029,0.0492 -0.109198,-0.005 -0.131409,-0.0267 -0.05663,-0.0566 z m 0.744033,-0.003 c 0.06444,-0.0234 0.117171,-0.0972 0.117171,-0.16391 0,-0.1848 0.238138,-0.34239 0.414888,-0.27457 0.09426,0.0362 0.146049,0.14027 0.129052,0.2594 -0.0232,0.16258 -0.09697,0.20105 -0.403336,0.21032 -0.20622,0.006 -0.322219,-0.008 -0.257775,-0.0312 z m -2.7506961,-1.17525 -0.1785667,-0.2109 0.2109069,0.17856 c 0.1159988,0.0982 0.2109069,0.19312 0.2109069,0.21091 0,0.075 -0.075438,0.0196 -0.2432471,-0.17857 z m -1.3315246,0.005 c -0.1589004,-0.1589 -0.1396339,-0.4454 0.034445,-0.5122 0.08081,-0.031 0.2460381,-0.003 0.3671726,0.0615 l 0.2202445,0.11787 -0.2402557,0.22266 c -0.2821943,0.26153 -0.2418911,0.24989 -0.3816059,0.11018 z m 0.8717486,-0.26246 c -0.1528286,-0.0657 -0.1581814,-0.0818 -0.028966,-0.0872 0.087179,-0.004 0.1845762,0.0356 0.216439,0.0872 0.066615,0.10778 0.063358,0.10778 -0.187473,0 z m 0.9990329,-0.0937 c 0,-0.12889 0.021276,-0.18161 0.047279,-0.11717 0.026004,0.0644 0.026004,0.1699 0,0.23434 -0.026004,0.0644 -0.047279,0.0117 -0.047279,-0.11717 z m 0.095212,-0.42181 c -0.00171,-0.10311 0.030904,-0.27184 0.072464,-0.37495 0.04283,-0.10626 0.035434,-0.23771 -0.017075,-0.30345 -0.1467308,-0.18369 -0.00527,-0.41648 0.232559,-0.38271 0.2796339,0.0397 0.3434086,0.41214 0.084638,0.49427 -0.1118989,0.0355 -0.2208796,0.19543 -0.2769858,0.40643 -0.050875,0.19134 -0.093896,0.26352 -0.0956,0.16041 z m 3.3406592,-0.67332 c 0.06766,-0.0271 0.148513,-0.0238 0.179662,0.007 0.03115,0.0312 -0.02422,0.0533 -0.123029,0.0492 -0.109199,-0.005 -0.131409,-0.0267 -0.05663,-0.0566 z m -1.179251,-0.31092 c 0,-0.18044 0.01929,-0.25426 0.04287,-0.16403 0.02358,0.0902 0.02358,0.23785 0,0.32807 -0.02358,0.0902 -0.04287,0.0164 -0.04287,-0.16404 z m 0.330858,-0.62871 c 0.116599,-0.0224 0.285325,-0.0216 0.374945,0.002 0.08962,0.0235 -0.0058,0.0418 -0.212,0.0408 -0.20622,-10e-4 -0.279545,-0.0202 -0.162945,-0.0427 z m 10.67063,-9.42535 c -0.03084,-0.15421 -0.05607,-0.61255 -0.05607,-1.01855 v -0.73817 h 0.461987 c 0.647921,0 0.907968,0.29188 0.66482,0.74621 -0.06667,0.12456 -0.05384,0.20294 0.04687,0.28652 0.196694,0.16324 0.179561,0.72054 -0.0254,0.82633 -0.09022,0.0466 -0.360257,0.10567 -0.60008,0.13135 -0.42301,0.0453 -0.437717,0.0383 -0.492116,-0.23369 z m 0.913118,-0.11469 c 0.204275,-0.20427 0.08713,-0.49676 -0.226547,-0.56566 -0.363949,-0.0799 -0.461437,7.9e-4 -0.461437,0.38207 0,0.29415 0.02417,0.32255 0.274514,0.32255 0.150983,0 0.337044,-0.0625 0.41347,-0.13896 z m -0.06084,-0.95175 c 0.08551,-0.22283 -0.09284,-0.45144 -0.378826,-0.4856 -0.227729,-0.0272 -0.248321,-0.002 -0.248321,0.30464 0,0.30973 0.02089,0.3343 0.284151,0.3343 0.176601,0 0.306424,-0.058 0.342996,-0.15334 z m 21.588383,0.52829 c -0.281931,-0.28193 -0.258902,-0.96819 0.04261,-1.2697 0.303156,-0.30316 0.894756,-0.2991 0.894756,0.006 0,0.0979 -0.05808,0.10055 -0.289381,0.0134 -0.260156,-0.098 -0.307489,-0.0867 -0.468682,0.11226 -0.208609,0.25747 -0.234503,0.74535 -0.05275,0.99391 0.09874,0.13504 0.201727,0.16087 0.468682,0.11755 0.342532,-0.0556 0.472843,0.0499 0.193862,0.15701 -0.283253,0.10869 -0.60268,0.0558 -0.789093,-0.13058 z"
         id="path889" />
      <path
         style="fill:#5b5b5b;stroke-width:0.0937364"
         d="m 30.31775,291.96283 c -3.75e-4,-0.27066 -0.02756,-0.77684 -0.06042,-1.12483 l -0.05976,-0.63273 h 0.622842 c 0.352737,0 0.622841,0.0407 0.622841,0.0937 0,0.0516 -0.15818,0.0944 -0.351511,0.0952 -0.471282,0.002 -0.607139,0.10456 -0.569925,0.43055 0.02814,0.24651 0.06435,0.2716 0.400145,0.27725 0.203063,0.003 0.385849,0.0562 0.406191,0.11717 0.0244,0.0732 -0.09138,0.11096 -0.340239,0.11096 -0.445625,0 -0.521248,0.0896 -0.440201,0.52163 0.05917,0.31539 0.06994,0.322 0.524842,0.322 0.48117,0 0.621994,0.12338 0.253528,0.22213 -0.115999,0.0311 -0.390178,0.0571 -0.609287,0.0578 l -0.39838,10e-4 -6.56e-4,-0.49212 z m -9.624977,-13.40271 -12.3908672,-12.39824 7.3058082,-8.95182 7.305808,-8.95183 3.77275,-0.0575 c 2.075012,-0.0316 6.936353,-0.0631 10.80298,-0.07 l 7.030231,-0.0126 1.464629,1.94474 c 0.805545,1.0696 3.824042,5.07023 6.707767,8.89028 l 5.243139,6.94555 -12.326006,12.50476 c -6.779303,6.87762 -12.370863,12.51602 -12.425689,12.52979 -0.05483,0.0138 -5.675573,-5.55417 -12.49055,-12.37321 z m 24.819061,-0.24373 C 52.2353,271.49395 57.725,265.88382 57.711168,265.84945 c -0.01383,-0.0344 -3.00871,-4.02186 -6.655285,-8.86107 l -6.630137,-8.79856 -6.319241,0.0576 c -3.475582,0.0317 -8.286642,0.0576 -10.691243,0.0576 H 23.04326 l -7.282855,8.92812 -7.2828546,8.92812 12.3030456,12.30477 c 6.766674,6.76763 12.34888,12.29352 12.4049,12.27975 0.05602,-0.0138 5.602873,-5.60703 12.326338,-12.42947 z M 6.321895,267.22422 c 0,-0.0602 0.1114611,-0.52416 0.2476913,-1.03111 0.3274597,-1.21856 0.4275284,-1.21699 0.994936,0.0156 0.3146487,0.68354 0.3946506,0.93737 0.2954446,0.93737 -0.074825,0 -0.1840928,-0.10546 -0.2428179,-0.23434 -0.1844468,-0.40482 -0.9597908,-0.29471 -1.0485131,0.1489 -0.052302,0.26151 -0.2467409,0.39038 -0.2467409,0.16354 z m 1.0311005,-0.83173 c 0,-0.0536 -0.092646,-0.27506 -0.2058808,-0.49212 -0.1646763,-0.31566 -0.21294,-0.35712 -0.2411527,-0.20717 -0.019399,0.10311 -0.070988,0.32456 -0.1146408,0.49212 -0.078102,0.29978 -0.074251,0.30464 0.2411527,0.30464 0.1762869,0 0.3205216,-0.0439 0.3205216,-0.0975 z m 51.8049905,0.12872 c -0.03437,-0.0344 -0.06249,-0.47728 -0.06249,-0.98424 v -0.92174 h 0.472943 c 0.651616,0 0.933104,0.2752 0.933104,0.91225 0,0.25402 -0.06281,0.54176 -0.143368,0.65677 -0.192306,0.27456 -1.027973,0.50917 -1.200187,0.33696 z m 0.845574,-0.29237 c 0.180902,-0.11502 0.32271,-0.59477 0.260089,-0.87988 -0.07042,-0.32061 -0.367974,-0.54625 -0.72033,-0.54625 h -0.260352 v 0.6874 c 0,0.37807 0.02812,0.71552 0.06249,0.74989 0.08421,0.0842 0.519738,0.0768 0.658101,-0.0112 z M 8.8762122,264.64797 c -0.064925,-0.0268 -0.1171705,-0.20845 -0.1171705,-0.40739 0,-0.3434 0.01091,-0.35611 0.2506032,-0.292 0.3314001,0.0886 0.4853593,0.33162 0.348157,0.54948 -0.1095121,0.1739 -0.2884807,0.22961 -0.4815897,0.14991 z m -2.5025331,-0.88925 c -0.3806517,-0.29942 -0.2794823,-0.51045 0.3978047,-0.82981 0.3246063,-0.15306 0.5680542,-0.24247 0.5409955,-0.19868 -0.027059,0.0438 -0.1766471,0.13239 -0.3324182,0.19691 -0.3207553,0.13287 -0.3311522,0.16392 -0.1396348,0.41713 0.185305,0.245 0.1732021,0.4017 -0.039831,0.51571 -0.1365077,0.0731 -0.235017,0.0497 -0.4269162,-0.10126 z m 2.5027377,-0.31519 c 0.00104,-0.20622 0.020236,-0.27955 0.042657,-0.16295 0.022421,0.1166 0.02157,0.28533 -0.00189,0.37495 -0.023462,0.0896 -0.041806,-0.006 -0.040766,-0.212 z m 0.085099,-0.81178 c -0.010753,-0.24592 -0.1257589,-0.48486 -0.4060611,-0.84363 -0.2150829,-0.27529 -0.3026807,-0.4231 -0.1946617,-0.32847 0.4162384,0.36466 0.6942363,0.87531 0.6541916,1.20168 l -0.038467,0.31352 z m -1.2654669,-0.14219 c 0.059792,-0.0428 0.1290043,-0.20415 0.1538054,-0.35865 0.041309,-0.25733 0.043985,-0.25398 0.031892,0.04 -0.00813,0.19751 -0.067255,0.33538 -0.1538055,0.35865 -0.094949,0.0255 -0.105305,0.0125 -0.031892,-0.04 z m 2.5786391,-0.058 c -0.05546,-0.0668 -0.09431,-0.20807 -0.08634,-0.31389 0.01661,-0.22048 -0.3021553,-0.63907 -0.7594281,-0.99725 -0.27901,-0.21854 -0.3369697,-0.23206 -0.5155503,-0.12027 -0.11066,0.0693 -0.3593803,0.17612 -0.5527117,0.23741 -0.2119679,0.0672 -0.3515115,0.17059 -0.3515115,0.26042 0,0.0819 -0.024522,0.12443 -0.054492,0.0945 -0.029971,-0.03 -0.2067043,0.0488 -0.3927415,0.17505 -0.186037,0.12625 -0.3957039,0.2075 -0.4659265,0.18055 -0.070222,-0.0269 -0.1048701,-0.0121 -0.076995,0.033 0.027875,0.0451 -0.043751,0.10732 -0.1591702,0.13825 -0.4606672,0.12347 -0.9725149,0.0517 -1.4979287,-0.20991 l -0.5381848,-0.26802 0.523979,-0.49556 c 0.4092576,-0.38706 0.5421671,-0.46683 0.6070516,-0.36435 0.067745,0.107 0.083338,0.10263 0.084508,-0.0237 0.00331,-0.3571 1.1357218,-0.47903 1.7134406,-0.18449 l 0.3455988,0.1762 0.2312369,-0.39458 c 0.1271804,-0.21702 0.2944329,-0.44702 0.3716724,-0.51113 0.077239,-0.0641 0.117873,-0.18728 0.090297,-0.27373 -0.041276,-0.1294 -0.033194,-0.13328 0.045727,-0.0219 0.1511976,0.21335 0.5779736,-0.019 0.5779736,-0.31464 0,-0.61324 0.5519762,-1.08587 1.1058244,-0.94686 0.148411,0.0373 0.26434,0.0138 0.313329,-0.0635 0.05493,-0.0866 0.07818,-0.0623 0.07919,0.0828 7.5e-4,0.11295 0.05045,0.23566 0.110352,0.27269 0.101563,0.0628 0.217566,-0.0448 0.529066,-0.49039 0.06734,-0.0963 0.03274,-0.01 -0.07688,0.19286 -0.125588,0.23189 -0.205599,0.56288 -0.216317,0.89484 -0.03018,0.93478 -0.563044,1.35601 -0.984128,0.77795 l -0.186292,-0.25573 -0.1419572,0.32604 c -0.087067,0.19997 -0.1449142,0.26047 -0.1496041,0.15646 -0.00913,-0.20254 -0.1951192,-0.11696 -0.1951192,0.0898 0,0.0789 -0.094908,0.2228 -0.210907,0.31975 l -0.2109069,0.17626 0.3749457,0.36449 c 0.8142487,0.79154 1.0984617,1.13976 1.0446687,1.27994 -0.06686,0.17424 -0.191759,0.18216 -0.325782,0.0207 z m -3.3263419,-0.92718 c -0.029923,-0.0748 -0.052135,-0.0526 -0.056632,0.0566 -0.00407,0.0988 0.018084,0.15417 0.049232,0.12303 0.031148,-0.0311 0.034478,-0.112 0.0074,-0.17966 z m 0.065469,-0.69032 c 0.032011,-0.0834 0.016296,-0.12104 -0.036839,-0.0882 -0.050965,0.0315 -0.092663,0.097 -0.092663,0.14547 0,0.13483 0.067187,0.10512 0.1295022,-0.0573 z m 3.9172169,-1.50944 c 0.208759,-0.18893 0.222578,-0.52935 0.02804,-0.6908 -0.338653,-0.28106 -0.89061,0.36301 -0.605501,0.70654 0.151458,0.1825 0.364837,0.17668 0.577461,-0.0157 z m -7.4575616,2.02442 c 0.05735,-0.0743 2.0351337,-2.47623 4.3950749,-5.33754 2.3599407,-2.8613 4.3350137,-5.25831 4.3890467,-5.32668 0.06941,-0.0878 0.06608,-0.1442 -0.01135,-0.19205 -0.07028,-0.0434 0.05714,-0.19222 0.355103,-0.41467 0.255587,-0.19082 0.486433,-0.34694 0.512989,-0.34694 0.02656,0 -0.06552,0.23205 -0.204616,0.51566 -0.174498,0.35579 -0.297685,0.50308 -0.397362,0.4751 -0.09905,-0.0278 -1.529417,1.63972 -4.5500713,5.30447 -2.4230863,2.93976 -4.4477927,5.3704 -4.4993478,5.40142 -0.051555,0.031 -0.046814,-0.004 0.010537,-0.0788 z m 6.6740416,-0.62101 c 0.06767,-0.0271 0.148514,-0.0238 0.179662,0.007 0.03115,0.0312 -0.02422,0.0533 -0.123029,0.0492 -0.109198,-0.005 -0.131409,-0.0267 -0.05663,-0.0566 z m 0.744033,-0.003 c 0.06444,-0.0234 0.117171,-0.10087 0.117171,-0.17209 0,-0.17246 0.306972,-0.32977 0.459522,-0.23549 0.06674,0.0412 0.106135,0.1543 0.08755,0.25123 -0.02587,0.13491 -0.121472,0.17891 -0.407603,0.18759 -0.205595,0.006 -0.321082,-0.008 -0.256638,-0.0312 z m -1.147608,-0.11964 c -0.032839,-0.0531 0.00479,-0.0688 0.088204,-0.0368 0.1623906,0.0623 0.192102,0.1295 0.057269,0.1295 -0.048512,0 -0.1139753,-0.0417 -0.145473,-0.0927 z m -1.6030886,-1.05561 -0.1785667,-0.2109 0.2109069,0.17856 c 0.1159988,0.0982 0.2109069,0.19312 0.2109069,0.21091 0,0.075 -0.075438,0.0196 -0.2432471,-0.17857 z m -1.3815173,-0.0391 c -0.1304324,-0.13044 -0.054772,-0.39601 0.1294801,-0.45449 0.2842535,-0.0902 0.4866797,0.10855 0.3437016,0.3375 -0.1110162,0.17776 -0.352661,0.23751 -0.4731817,0.11699 z m 1.9207742,-0.31246 c 0,-0.12889 0.021276,-0.18161 0.047279,-0.11717 0.026004,0.0644 0.026004,0.1699 0,0.23434 -0.026004,0.0644 -0.047279,0.0117 -0.047279,-0.11717 z m 0.092924,-0.46868 c -4.499e-4,-0.0773 0.033192,-0.22497 0.074752,-0.32808 0.04283,-0.10626 0.035434,-0.23771 -0.017075,-0.30345 -0.1351224,-0.16916 -0.014291,-0.39957 0.209544,-0.39957 0.2781901,0 0.3525578,0.27795 0.1239063,0.4631 -0.1037112,0.084 -0.2339593,0.27777 -0.2894404,0.43065 -0.055481,0.15287 -0.10124,0.21468 -0.1016869,0.13735 z m 3.3429467,-0.62645 c 0.06766,-0.0271 0.148513,-0.0238 0.179662,0.007 0.03115,0.0312 -0.02422,0.0533 -0.123029,0.0492 -0.109199,-0.005 -0.131409,-0.0267 -0.05663,-0.0566 z m -1.179251,-0.31092 c 0,-0.18044 0.01929,-0.25426 0.04287,-0.16403 0.02358,0.0902 0.02358,0.23785 0,0.32807 -0.02358,0.0902 -0.04287,0.0164 -0.04287,-0.16404 z m 0.330858,-0.62871 c 0.116599,-0.0224 0.285325,-0.0216 0.374945,0.002 0.08962,0.0235 -0.0058,0.0418 -0.212,0.0408 -0.20622,-10e-4 -0.279545,-0.0202 -0.162945,-0.0427 z m 10.675644,-9.84633 c -0.03287,-0.348 -0.06006,-0.7909 -0.06042,-0.98423 l -6.67e-4,-0.35151 h 0.461987 c 0.647921,0 0.907968,0.29188 0.66482,0.74621 -0.06667,0.12456 -0.05384,0.20294 0.04687,0.28652 0.07625,0.0633 0.138635,0.25604 0.138635,0.42836 0,0.38059 -0.194161,0.50737 -0.777042,0.50737 h -0.414422 z m 0.966278,0.30914 c 0.160886,-0.19385 0.03137,-0.50954 -0.236645,-0.57681 -0.365865,-0.0918 -0.509513,0.0158 -0.509513,0.3819 0,0.31353 0.01673,0.33102 0.316601,0.33102 0.174129,0 0.367431,-0.0613 0.429557,-0.13611 z M 22.80427,246.5347 c 0.03526,-0.24939 -0.113135,-0.38195 -0.430015,-0.38411 -0.179528,-0.001 -0.210907,0.0483 -0.210907,0.33259 0,0.32037 0.01244,0.33281 0.304644,0.30464 0.239298,-0.0231 0.311429,-0.0774 0.336278,-0.25312 z m 21.574608,0.64556 c -0.281931,-0.28193 -0.258902,-0.96819 0.04261,-1.2697 0.317705,-0.31771 0.894756,-0.2964 0.894756,0.033 0,0.11614 -0.025,0.12433 -0.112484,0.0368 -0.321312,-0.32131 -0.82488,0.041 -0.82488,0.59348 0,0.45974 0.190724,0.64556 0.595231,0.57992 0.342532,-0.0556 0.472843,0.0499 0.193862,0.15701 -0.283253,0.10869 -0.60268,0.0558 -0.789093,-0.13058 z"
         id="path887" />
      <path
         style="fill:#2d2d2d;stroke-width:0.0937364"
         d="m 30.36694,292.36121 c -0.01487,-0.0258 -0.04242,-0.51086 -0.06122,-1.07797 l -0.03418,-1.0311 0.585853,-0.0279 c 0.363623,-0.0173 0.585852,0.009 0.585852,0.0703 0,0.0554 -0.204488,0.0982 -0.468682,0.0982 h -0.468682 v 0.37494 0.37495 h 0.421814 c 0.231998,0 0.421814,0.0422 0.421814,0.0937 0,0.0516 -0.189816,0.0937 -0.421814,0.0937 h -0.421814 v 0.42182 0.42181 h 0.468682 c 0.257775,0 0.468682,0.0383 0.468682,0.0851 0,0.0879 -1.028231,0.18575 -1.076313,0.10241 z M 20.720195,278.52905 8.35675,266.13374 8.9183021,265.44479 c 0.3088536,-0.37892 3.5893829,-4.40091 7.2900659,-8.93776 l 6.728514,-8.2488 5.401457,-0.0572 c 2.970801,-0.0315 7.826886,-0.0613 10.7913,-0.0664 l 5.389844,-0.009 6.655285,8.8295 c 3.660407,4.85622 6.655285,8.87539 6.655285,8.93149 0,0.11765 -24.591753,25.07653 -24.684776,25.05329 -0.0339,-0.008 -5.625187,-5.5933 -12.425082,-12.41072 z m 25.194564,-0.59877 c 7.236038,-7.3463 11.830701,-12.07894 11.784975,-12.13886 -0.04122,-0.054 -3.040947,-4.03163 -6.66606,-8.83914 l -6.591117,-8.74092 h -3.109648 c -1.710307,0 -6.534585,0.028 -10.72062,0.0623 l -7.610972,0.0623 -7.266759,8.90778 -7.2667601,8.90779 12.3541651,12.35444 12.354164,12.35443 0.439357,-0.44476 c 0.241646,-0.24462 5.77632,-5.86305 12.299275,-12.48541 z M 6.3584729,267.07581 c 0.027066,-0.0902 0.1405414,-0.53312 0.2521672,-0.98423 0.1316898,-0.53219 0.2479563,-0.82019 0.3311103,-0.82019 0.1183354,0 0.9736636,1.56289 0.9736636,1.77912 0,0.18331 -0.1922796,0.0939 -0.298265,-0.13873 -0.090297,-0.19818 -0.1702936,-0.23435 -0.5184168,-0.23435 -0.3731066,0 -0.4208212,0.0263 -0.5096739,0.28121 -0.1025306,0.29412 -0.3162494,0.40272 -0.2305854,0.11717 z m 0.9182461,-0.58457 c 0.142056,-0.001 0.1373093,-0.0485 -0.046868,-0.46775 -0.112713,-0.25656 -0.2312961,-0.46747 -0.263518,-0.46868 -0.032222,-10e-4 -0.08291,0.11941 -0.1126399,0.26806 -0.02973,0.14865 -0.0834,0.38719 -0.1192658,0.5301 -0.060073,0.23935 -0.047505,0.25508 0.1595082,0.19968 0.1235956,-0.0331 0.2958482,-0.0607 0.3827837,-0.0614 z m 51.818775,-0.93864 v -0.93737 h 0.429025 c 0.353149,0 0.479518,0.0505 0.714535,0.28551 0.261585,0.26159 0.281631,0.3259 0.239212,0.76737 -0.05952,0.61945 -0.287193,0.82185 -0.924474,0.82185 h -0.458298 z m 0.989751,0.61684 c 0.135137,-0.0988 0.181955,-0.24566 0.181955,-0.5707 0,-0.50779 -0.258325,-0.79603 -0.713408,-0.79603 h -0.270825 v 0.74989 0.74989 h 0.310162 c 0.170589,0 0.392041,-0.0599 0.492116,-0.13305 z M 8.8742612,264.59922 c -0.063371,-0.0634 -0.1152195,-0.23613 -0.1152195,-0.38391 0,-0.2356 0.030573,-0.26503 0.2483207,-0.23902 0.3197156,0.0382 0.4927422,0.29581 0.3504395,0.52177 -0.1305644,0.20733 -0.334673,0.25003 -0.4835407,0.10116 z m -2.5929227,-0.91438 c -0.2133792,-0.23578 -0.1544369,-0.5145 0.1169758,-0.55315 0.294374,-0.0419 0.4859991,0.141 0.4859991,0.46392 0,0.22047 -0.040146,0.26973 -0.219813,0.26973 -0.1208972,0 -0.29332,-0.0812 -0.3831619,-0.1805 z m 2.5862401,-0.19444 c 0,-0.12889 0.021276,-0.18162 0.047279,-0.11717 0.026004,0.0644 0.026004,0.16989 0,0.23434 -0.026004,0.0644 -0.047279,0.0117 -0.047279,-0.11717 z m 0.093736,-0.93737 c 0,-0.12889 0.021276,-0.18161 0.047279,-0.11717 0.026004,0.0644 0.026004,0.1699 0,0.23434 -0.026004,0.0644 -0.047279,0.0117 -0.047279,-0.11717 z m 1.3015824,-0.13569 c -0.07043,-0.0849 -0.08192,-0.19056 -0.03067,-0.28214 0.116721,-0.20857 0.437829,0.0267 0.349743,0.25627 -0.07567,0.19719 -0.17051,0.20488 -0.319078,0.0259 z m -2.422946,-0.19239 c 0.00191,-0.15466 0.022918,-0.20659 0.046685,-0.11538 0.023766,0.0912 0.022203,0.21774 -0.00347,0.28121 -0.025677,0.0635 -0.045122,-0.0112 -0.043212,-0.16583 z m -2.482074,-0.31444 -0.5422037,-0.27015 0.5329364,-0.48707 c 0.3975468,-0.36334 0.5527861,-0.45577 0.6110707,-0.36386 0.059408,0.0937 0.078478,0.085 0.07957,-0.0364 0.0022,-0.24445 0.9372563,-0.48188 0.9402348,-0.23875 0.00106,0.0862 0.022732,0.0836 0.082027,-0.01 0.1058161,-0.167 0.5741009,-0.0665 0.8386808,0.17999 l 0.1975858,0.18408 0.1983536,-0.38881 c 0.2336167,-0.45792 0.5051672,-0.74192 0.8612891,-0.90078 0.1807777,-0.0806 0.2577751,-0.18426 0.2577751,-0.34692 0,-0.77277 0.7797144,-1.16676 1.4847894,-0.75026 0.354541,0.20943 0.452174,0.58642 0.2991,1.15489 -0.158134,0.58727 -0.783667,0.78693 -0.913225,0.2915 -0.06663,-0.2548 -0.196716,-0.23487 -0.3265135,0.05 -0.075992,0.16678 -0.1294296,0.2023 -0.1803666,0.11989 -0.086912,-0.14063 -0.1472123,-0.0922 -0.1908341,0.15313 -0.047777,0.26875 -0.6253907,0.74428 -1.1337484,0.93338 -0.2448863,0.0911 -0.4452479,0.22541 -0.4452479,0.29848 0,0.0731 -0.031636,0.12347 -0.070302,0.11202 -0.038666,-0.0115 -0.2706474,0.098 -0.5155135,0.24322 -0.6709684,0.39796 -1.3634057,0.42225 -2.0654572,0.0725 z m 0.7057504,-0.24797 c -0.024638,-0.12889 -0.06097,-0.23435 -0.080738,-0.23435 -0.019767,0 -0.035941,0.10546 -0.035941,0.23435 0,0.12888 0.036332,0.23434 0.080738,0.23434 0.044406,0 0.060579,-0.10546 0.035941,-0.23434 z m 0.8827655,-0.25778 c -0.026004,-0.0644 -0.047279,-0.0117 -0.047279,0.11717 0,0.12889 0.021276,0.18162 0.047279,0.11717 0.026004,-0.0644 0.026004,-0.1699 0,-0.23434 z M 6.010982,261.03567 c -0.029923,-0.0748 -0.052135,-0.0526 -0.056633,0.0566 -0.00407,0.0988 0.018084,0.15417 0.049232,0.12303 0.031148,-0.0312 0.034478,-0.112 0.0074,-0.17967 z m 1.0608043,-0.27469 c 0,-0.0516 -0.042181,-0.0677 -0.093736,-0.0358 -0.051555,0.0319 -0.093737,0.10011 -0.093737,0.15167 0,0.0515 0.042181,0.0677 0.093737,0.0358 0.051555,-0.0319 0.093736,-0.10011 0.093736,-0.15166 z m 3.9746007,-1.60518 c 0.169542,-0.47439 -0.151456,-0.7647 -0.553945,-0.50098 -0.160933,0.10545 -0.233618,0.23845 -0.233618,0.42747 0,0.50654 0.612374,0.5637 0.787563,0.0735 z m -7.6303208,2.237 c 0,-0.0195 0.073818,-0.0933 0.1640388,-0.16404 0.1486712,-0.11659 0.1519866,-0.11328 0.035391,0.0354 -0.1224543,0.15614 -0.1994294,0.20579 -0.1994298,0.12864 z m 0.4686821,-0.57389 c 0.1210835,-0.12889 0.2412426,-0.23434 0.2670202,-0.23434 0.025778,0 -0.0522,0.10545 -0.1732838,0.23434 -0.1210835,0.12889 -0.2412427,0.23434 -0.2670202,0.23434 -0.025777,0 0.0522,-0.10545 0.1732838,-0.23434 z m 7.2834357,-0.10612 c -0.03615,-0.0361 -0.06573,-0.146 -0.06573,-0.2441 0,-0.13136 0.05559,-0.17048 0.210907,-0.14842 0.137878,0.0196 0.210907,0.0944 0.210907,0.21614 0,0.18594 -0.231737,0.30072 -0.356082,0.17638 z m -6.8147537,-0.4563 c 0.1210836,-0.12889 0.2412427,-0.23434 0.2670202,-0.23434 0.025778,0 -0.0522,0.10545 -0.1732837,0.23434 -0.1210836,0.12889 -0.2412427,0.23434 -0.2670202,0.23434 -0.025777,0 0.0522,-0.10545 0.1732837,-0.23434 z m 0.4686821,-0.56242 c 0.1210835,-0.12889 0.2412427,-0.23434 0.2670202,-0.23434 0.025778,0 -0.0522,0.10545 -0.1732838,0.23434 -0.1210835,0.12889 -0.2412426,0.23434 -0.2670202,0.23434 -0.025778,0 0.0522,-0.10545 0.1732838,-0.23434 z m 3.3625543,-0.11717 c -0.116596,-0.14867 -0.1132806,-0.15199 0.035391,-0.0354 0.090221,0.0708 0.1640387,0.14457 0.1640387,0.16404 0,0.0771 -0.076975,0.0275 -0.1994293,-0.12865 z M 6.727949,259.40559 c -0.031209,-0.0813 0.010179,-0.21479 0.091974,-0.29659 0.1903491,-0.19035 0.4433964,-0.0131 0.3718586,0.26044 -0.057601,0.22027 -0.383435,0.24567 -0.4638324,0.0362 z m -1.4840227,-0.22707 c 0.093313,-0.10311 0.1907512,-0.18747 0.2165287,-0.18747 0.025778,0 -0.029479,0.0844 -0.1227923,0.18747 -0.093313,0.10311 -0.1907513,0.18747 -0.2165288,0.18747 -0.025778,0 0.029479,-0.0844 0.1227924,-0.18747 z m 0.468682,-0.56242 c 0.093313,-0.10311 0.1907513,-0.18747 0.2165288,-0.18747 0.025778,0 -0.029479,0.0844 -0.1227924,0.18747 -0.093313,0.10311 -0.1907512,0.18747 -0.2165287,0.18747 -0.025778,0 0.029479,-0.0844 0.1227923,-0.18747 z m 0.4218139,-0.51555 c 0.1210835,-0.12889 0.2412426,-0.23434 0.2670201,-0.23434 0.025777,0 -0.0522,0.10545 -0.1732837,0.23434 -0.1210836,0.12889 -0.2412427,0.23434 -0.2670202,0.23434 -0.025778,0 0.0522,-0.10545 0.1732838,-0.23434 z m 2.7288321,-0.0273 c -0.1171019,-0.21881 0.00868,-0.42263 0.2340206,-0.37923 0.2447166,0.0471 0.2735871,0.32662 0.046303,0.44826 -0.1525939,0.0817 -0.2068212,0.0683 -0.2803239,-0.069 z m -2.2601501,-0.53513 c 0.1210836,-0.12888 0.2412427,-0.23434 0.2670202,-0.23434 0.025778,0 -0.0522,0.10546 -0.1732838,0.23434 -0.1210835,0.12889 -0.2412426,0.23434 -0.2670201,0.23434 -0.025778,0 0.0522,-0.10545 0.1732837,-0.23434 z m 0.4686821,-0.56242 c 0.1210835,-0.12888 0.2412426,-0.23434 0.2670201,-0.23434 0.025778,0 -0.0522,0.10546 -0.1732837,0.23434 -0.1210836,0.12889 -0.2412427,0.23435 -0.2670202,0.23435 -0.025778,0 0.0522,-0.10546 0.1732838,-0.23435 z m 0.4218138,-0.51555 c 0.093313,-0.10311 0.1907513,-0.18747 0.2165288,-0.18747 0.025778,0 -0.029479,0.0844 -0.1227924,0.18747 -0.093313,0.10311 -0.1907512,0.18748 -0.2165287,0.18748 -0.025777,0 0.029479,-0.0844 0.1227923,-0.18748 z M 7.915414,255.9446 c 0.1210835,-0.12888 0.2412426,-0.23434 0.2670201,-0.23434 0.025778,0 -0.0522,0.10546 -0.1732837,0.23434 -0.1210836,0.12889 -0.2412427,0.23435 -0.2670202,0.23435 -0.025778,0 0.0522,-0.10546 0.1732838,-0.23435 z m 0.468682,-0.56241 c 0.1210836,-0.12889 0.2412427,-0.23435 0.2670202,-0.23435 0.025778,0 -0.0522,0.10546 -0.1732838,0.23435 -0.1210835,0.12888 -0.2412426,0.23434 -0.2670201,0.23434 -0.025778,0 0.0522,-0.10546 0.1732837,-0.23434 z m 0.4686821,-0.56242 c 0.1210835,-0.12889 0.2412426,-0.23434 0.2670201,-0.23434 0.025778,0 -0.0522,0.10545 -0.1732837,0.23434 -0.1210835,0.12888 -0.2412427,0.23434 -0.2670202,0.23434 -0.025778,0 0.0522,-0.10546 0.1732838,-0.23434 z m 0.4218138,-0.51555 c 0.093313,-0.10311 0.1907513,-0.18748 0.2165288,-0.18748 0.025778,0 -0.029479,0.0844 -0.1227924,0.18748 -0.093313,0.10311 -0.1907512,0.18747 -0.2165287,0.18747 -0.025778,0 0.029479,-0.0844 0.1227923,-0.18747 z m 0.4218139,-0.51555 c 0.1210835,-0.12889 0.2412426,-0.23434 0.2670201,-0.23434 0.025778,0 -0.0522,0.10545 -0.1732837,0.23434 -0.1210835,0.12888 -0.2412427,0.23434 -0.2670202,0.23434 -0.025778,0 0.0522,-0.10546 0.1732838,-0.23434 z m 0.4686822,-0.56242 c 0.121083,-0.12889 0.241242,-0.23434 0.26702,-0.23434 0.02578,0 -0.0522,0.10545 -0.173284,0.23434 -0.121083,0.12889 -0.241242,0.23434 -0.2670199,0.23434 -0.025778,0 0.0522,-0.10545 0.1732839,-0.23434 z m 0.468682,-0.56242 c 0.121083,-0.12889 0.241243,-0.23434 0.26702,-0.23434 0.02578,0 -0.0522,0.10545 -0.173284,0.23434 -0.121083,0.12889 -0.241242,0.23434 -0.26702,0.23434 -0.02578,0 0.0522,-0.10545 0.173284,-0.23434 z m 0.421814,-0.51555 c 0.09331,-0.10311 0.190751,-0.18747 0.216529,-0.18747 0.02578,0 -0.02948,0.0844 -0.122793,0.18747 -0.09331,0.10311 -0.190752,0.18747 -0.216529,0.18747 -0.02578,0 0.02948,-0.0844 0.122793,-0.18747 z m 0.421814,-0.51555 c 0.121084,-0.12889 0.241242,-0.23434 0.26702,-0.23434 0.02578,0 -0.0522,0.10545 -0.173284,0.23434 -0.121084,0.12889 -0.241243,0.23434 -0.26702,0.23434 -0.02578,0 0.0522,-0.10545 0.173284,-0.23434 z m 0.468682,-0.56242 c 0.121084,-0.12889 0.241242,-0.23434 0.26702,-0.23434 0.02578,0 -0.0522,0.10545 -0.173284,0.23434 -0.121084,0.12889 -0.241243,0.23434 -0.26702,0.23434 -0.02578,0 0.0522,-0.10545 0.173284,-0.23434 z m 0.32899,-0.55137 c 0.01168,-0.1585 0.563027,-0.70529 0.71748,-0.71155 0.03423,-0.001 -0.02482,0.20353 -0.131215,0.45537 -0.151235,0.35796 -0.237735,0.45514 -0.39636,0.44526 -0.136932,-0.009 -0.198678,-0.07 -0.189905,-0.18908 z m 9.700806,-2.85587 c 0,-0.14688 -0.02728,-0.58979 -0.06062,-0.98423 l -0.06062,-0.71716 h 0.480276 c 0.408857,0 0.503108,0.0348 0.633822,0.23434 0.141499,0.21595 0.141668,0.25247 0.0022,0.46538 -0.142431,0.21737 -0.140295,0.23698 0.03608,0.33138 0.239379,0.12811 0.248486,0.57188 0.01605,0.78223 -0.10801,0.0977 -0.333389,0.15513 -0.609286,0.15513 -0.418875,0 -0.437867,-0.0116 -0.437867,-0.26707 z m 0.918616,-0.0329 c 0.258258,-0.25825 -0.01336,-0.6374 -0.45663,-0.6374 -0.257775,0 -0.274514,0.0229 -0.274514,0.37494 0,0.36169 0.01094,0.37495 0.309331,0.37495 0.170131,0 0.359947,-0.0506 0.421813,-0.11249 z m -0.30921,-0.82492 c 0.196817,-0.0748 0.240672,-0.14587 0.217009,-0.35151 -0.02471,-0.21475 -0.08047,-0.26263 -0.334299,-0.28711 -0.298538,-0.0288 -0.304644,-0.0217 -0.304644,0.35152 0,0.40702 0.03818,0.433 0.421934,0.2871 z m 21.799123,0.38052 c -0.134683,-0.13469 -0.193,-0.31416 -0.193,-0.59396 0,-0.47004 0.181999,-0.77239 0.515287,-0.85604 0.261746,-0.0657 0.60955,0.0758 0.60955,0.24794 0,0.0813 -0.02877,0.0804 -0.112484,-0.003 -0.336923,-0.33692 -0.82488,0.0457 -0.82488,0.64679 0,0.41528 0.183555,0.58865 0.564083,0.5328 0.177959,-0.0261 0.272161,-0.004 0.251415,0.0595 -0.06328,0.19322 -0.605588,0.17061 -0.809971,-0.0338 z"
         id="path885" />
      <path
         style="fill:#050505;stroke-width:0.0937364"
         d="m 30.318416,291.28324 v -1.07797 h 0.51555 c 0.283553,0 0.515551,0.0422 0.515551,0.0937 0,0.0516 -0.189816,0.0937 -0.421814,0.0937 h -0.421814 v 0.37494 0.37495 h 0.374946 c 0.20622,0 0.374945,0.0422 0.374945,0.0937 0,0.0516 -0.168725,0.0937 -0.374945,0.0937 h -0.374946 v 0.42182 0.42181 h 0.468682 c 0.257775,0 0.468682,0.0422 0.468682,0.0937 0,0.0521 -0.249964,0.0937 -0.562418,0.0937 h -0.562419 z m -9.560114,-12.74715 -12.4188112,-12.41908 0.277434,-0.25877 0.2774341,-0.25877 -0.2279749,0.26136 -0.2279748,0.26136 12.3690088,12.36928 12.369008,12.36928 1.96894,-1.94469 1.96894,-1.94469 -1.967628,1.9919 c -1.082195,1.09554 -1.968064,1.9919 -1.968597,1.9919 -5.63e-4,0 -5.589434,-5.58859 -12.419779,-12.41908 z m 19.58991,5.06077 c 1.726516,-1.7271 3.160212,-3.14017 3.185989,-3.14017 0.02578,0 -1.365736,1.41307 -3.092252,3.14017 -1.726516,1.72709 -3.160212,3.14017 -3.185989,3.14017 -0.02578,0 1.365736,-1.41308 3.092252,-3.14017 z m 6.467813,-6.56155 c 1.726516,-1.7271 3.160211,-3.14017 3.185989,-3.14017 0.02578,0 -1.365737,1.41307 -3.092253,3.14017 -1.726516,1.72709 -3.160212,3.14017 -3.185989,3.14017 -0.02578,0 1.365737,-1.41308 3.092253,-3.14017 z m 6.51468,-6.60842 c 1.70073,-1.70132 3.113328,-3.0933 3.139105,-3.0933 0.02578,0 -1.344638,1.39198 -3.045368,3.0933 -1.70073,1.70132 -3.113328,3.0933 -3.139105,3.0933 -0.02578,0 1.344638,-1.39198 3.045368,-3.0933 z M 6.5886711,266.25562 c 0.1577731,-0.64217 0.2856348,-0.98423 0.3679009,-0.98423 0.097358,0 0.958842,1.6482 0.958842,1.83447 0,0.13179 -0.1738876,0.004 -0.2641535,-0.19408 -0.09273,-0.20352 -0.1671383,-0.23435 -0.5657476,-0.23435 -0.4349827,0 -0.4619145,0.0147 -0.5152164,0.28121 -0.030933,0.15467 -0.093861,0.28121 -0.1398406,0.28121 -0.045979,0 0.025218,-0.4429 0.1582152,-0.98423 z m 0.6917888,0.25074 c 0.1481607,-0.0587 0.1411969,-0.10759 -0.082582,-0.57926 L 6.95349,265.41199 6.8269735,265.88067 c -0.069584,0.25778 -0.1273303,0.52141 -0.1283247,0.58586 -0.00192,0.12468 0.3133744,0.14627 0.5818111,0.0398 z m 49.9668591,-0.0691 0.542104,-0.56829 -0.337717,-0.46281 c -0.302182,-0.41411 -0.306755,-0.42829 -0.04346,-0.13473 0.5153,0.57451 0.515706,0.5706 -0.122199,1.1796 l -0.580836,0.55452 z m 1.848175,-0.89655 v -0.94929 l 0.476505,0.0458 c 0.656507,0.0631 0.882673,0.30038 0.882673,0.92615 0,0.62056 -0.311344,0.92664 -0.94259,0.92664 h -0.416588 z m 1.054535,0.56681 c 0.393699,-0.4817 0.04941,-1.30477 -0.545788,-1.30477 h -0.321274 v 0.80902 0.80902 l 0.351512,-0.0563 c 0.193331,-0.0309 0.425329,-0.1466 0.51555,-0.25699 z M 9.2277237,265.08391 c 0.2158216,-0.25777 0.4134936,-0.46868 0.4392711,-0.46868 0.025778,0 -0.1297131,0.21091 -0.3455347,0.46868 -0.2158215,0.25778 -0.4134935,0.46869 -0.439271,0.46869 -0.025778,0 0.1297131,-0.21091 0.3455346,-0.46869 z M 56.9276,264.7324 c -0.116596,-0.14867 -0.11328,-0.15198 0.03539,-0.0354 0.156142,0.12246 0.205797,0.19943 0.128648,0.19943 -0.01947,0 -0.09328,-0.0738 -0.164039,-0.16404 z M 8.8715254,264.59649 c -0.1036685,-0.10367 -0.1629768,-0.54368 -0.073282,-0.54368 0.021561,0 0.1004848,-0.0235 0.1753865,-0.0523 0.1351988,-0.0519 0.4415665,0.17948 0.4415665,0.33346 0,0.0979 -0.2681526,0.37495 -0.3628938,0.37495 -0.037562,0 -0.1189113,-0.0506 -0.1807773,-0.11248 z m 1.1998256,-0.54368 c 0.215822,-0.25777 0.413494,-0.46868 0.439271,-0.46868 0.02578,0 -0.129713,0.21091 -0.345534,0.46868 -0.2158217,0.25778 -0.4134937,0.46869 -0.4392712,0.46869 -0.025778,0 0.1297131,-0.21091 0.3455342,-0.46869 z m 46.57504,0.30465 c -0.116596,-0.14867 -0.113281,-0.15199 0.03539,-0.0354 0.09022,0.0707 0.164039,0.14457 0.164039,0.16404 0,0.0771 -0.07698,0.0275 -0.19943,-0.12865 z m -0.281209,-0.37495 c -0.116596,-0.14867 -0.113281,-0.15198 0.03539,-0.0354 0.156141,0.12246 0.205796,0.19943 0.128647,0.19943 -0.01946,0 -0.09328,-0.0738 -0.164038,-0.16404 z M 6.3427519,263.71942 c -0.4240612,-0.29702 -0.1595881,-0.73998 0.3131981,-0.52457 0.1686483,0.0769 0.2283634,0.17811 0.2283634,0.38727 0,0.32594 -0.1998867,0.37662 -0.5415615,0.1373 z m 49.7412201,-0.11185 c -0.116596,-0.14868 -0.11328,-0.15199 0.03539,-0.0354 0.156142,0.12245 0.205797,0.19943 0.128648,0.19943 -0.01946,0 -0.09328,-0.0738 -0.164039,-0.16404 z m -45.403334,-0.30465 c 0.09331,-0.10311 0.190752,-0.18747 0.216529,-0.18747 0.02578,0 -0.02948,0.0844 -0.122792,0.18747 -0.09331,0.10311 -0.190752,0.18748 -0.216529,0.18748 -0.02578,0 0.02948,-0.0844 0.122792,-0.18748 z m 45.122125,-0.0703 c -0.116596,-0.14867 -0.11328,-0.15199 0.03539,-0.0354 0.156142,0.12245 0.205797,0.19943 0.128648,0.19943 -0.01947,0 -0.09328,-0.0738 -0.164039,-0.16404 z m -44.700311,-0.44525 c 0.121084,-0.12888 0.241243,-0.23434 0.26702,-0.23434 0.02578,0 -0.0522,0.10546 -0.173284,0.23434 -0.121084,0.12889 -0.241242,0.23434 -0.26702,0.23434 -0.02578,0 0.0522,-0.10545 0.173284,-0.23434 z m 44.419102,0.0703 c -0.116596,-0.14868 -0.113281,-0.15199 0.03539,-0.0354 0.09022,0.0708 0.164039,0.14458 0.164039,0.16404 0,0.0772 -0.07698,0.0275 -0.199429,-0.12864 z m -0.281209,-0.37495 c -0.116596,-0.14867 -0.113281,-0.15199 0.03539,-0.0354 0.09022,0.0708 0.164038,0.14457 0.164038,0.16404 0,0.0772 -0.07697,0.0275 -0.199429,-0.12865 z M 10.258824,262.2279 c 0,-0.16718 0.03902,-0.21643 0.140605,-0.17745 0.07733,0.0297 0.140604,0.13381 0.140604,0.2314 0,0.0976 -0.06327,0.17745 -0.140604,0.17745 -0.08701,0 -0.140605,-0.0882 -0.140605,-0.2314 z m 1.265442,0.0439 c 0.09331,-0.10311 0.190752,-0.18747 0.216529,-0.18747 0.02578,0 -0.02948,0.0844 -0.122793,0.18747 -0.09331,0.10311 -0.190752,0.18748 -0.216529,0.18748 -0.02578,0 0.02948,-0.0844 0.122793,-0.18748 z m 42.696935,-1.12483 c -0.467171,-0.61866 -0.828311,-1.12484 -0.802534,-1.12484 0.02578,0 0.429099,0.50618 0.89627,1.12484 0.467172,0.61866 0.828312,1.12483 0.802534,1.12483 -0.02578,0 -0.429099,-0.50617 -0.89627,-1.12483 z m -48.7037883,0.79706 c -0.2535276,-0.12862 -0.5179589,-0.23404 -0.5876251,-0.23425 -0.069666,-1.9e-4 0.088727,-0.2113 0.3519846,-0.46908 0.2632577,-0.25777 0.5191657,-0.46868 0.5686844,-0.46868 0.049519,0 0.073103,0.17019 0.052408,0.37821 -0.020694,0.20801 0.00673,0.50543 0.060935,0.66094 0.054208,0.1555 0.079663,0.30163 0.056566,0.32472 -0.023097,0.0231 -0.2494264,-0.0632 -0.502954,-0.19186 z M 6.09131,261.73284 c -0.033387,-0.24489 -0.050009,-0.60054 -0.036938,-0.79035 0.022309,-0.32393 0.049191,-0.3515 0.4382559,-0.44947 0.2279691,-0.0574 0.4267886,-0.0919 0.4418211,-0.0767 0.015033,0.0152 -0.00739,0.2171 -0.049821,0.44865 -0.042434,0.23156 -0.064036,0.44246 -0.048004,0.46869 0.016032,0.0262 0.053376,0.20079 0.082988,0.38793 0.050838,0.32129 0.037638,0.3435 -0.2367884,0.39838 -0.4974205,0.0995 -0.52789,0.0795 -0.5915142,-0.38712 z m 0.9759641,0.0619 c -0.1261503,-0.23571 -0.1317247,-0.67184 -0.01367,-1.06954 0.066266,-0.22323 0.1298886,-0.27602 0.3086039,-0.25607 0.123821,0.0138 0.3400375,0.1092 0.4804812,0.21193 l 0.2553523,0.18678 0.1807734,-0.35253 c 0.2074046,-0.40446 0.5001301,-0.69943 0.8988905,-0.90577 0.2241248,-0.11598 0.2802978,-0.20837 0.289602,-0.47629 0.016889,-0.48635 0.3448015,-0.79833 0.8391016,-0.79833 0.470536,0 0.587327,0.0872 0.305219,0.22782 -0.435457,0.2171 -0.504283,0.80881 -0.111607,0.95949 0.249058,0.0956 0.601902,-0.22733 0.608373,-0.55675 0.0055,-0.28094 0.01213,-0.28704 0.09289,-0.0857 0.0525,0.1309 0.0535,0.36565 0.0025,0.59256 -0.154372,0.68706 -0.652851,0.97581 -0.868292,0.50297 -0.132531,-0.29087 -0.297646,-0.29985 -0.4309574,-0.0234 -0.055944,0.11599 -0.1045715,0.15818 -0.1080607,0.0937 -0.012148,-0.22436 -0.1569371,-0.11501 -0.2731128,0.20627 -0.1480535,0.40944 -0.5699272,0.76707 -1.0607706,0.89924 -0.2099081,0.0565 -0.4716238,0.18782 -0.5815905,0.29177 -0.1099667,0.10395 -0.3137507,0.27104 -0.4528531,0.3713 -0.2522038,0.18178 -0.2532169,0.18173 -0.3608852,-0.0195 z m 5.0662779,-0.27278 c 0.215822,-0.25777 0.413494,-0.46868 0.439272,-0.46868 0.02578,0 -0.129714,0.21091 -0.345535,0.46868 -0.215822,0.25778 -0.413494,0.46868 -0.439271,0.46868 -0.02578,0 0.129713,-0.2109 0.345534,-0.46868 z m 0.843628,-1.0311 c 0.215822,-0.25777 0.413494,-0.46868 0.439271,-0.46868 0.02578,0 -0.129713,0.21091 -0.345534,0.46868 -0.215822,0.25778 -0.413494,0.46868 -0.439272,0.46868 -0.02578,0 0.129714,-0.2109 0.345535,-0.46868 z m -1.812237,0.21872 c -0.137338,-0.13734 -0.05828,-0.40619 0.119449,-0.40619 0.23927,0 0.331368,0.16136 0.189598,0.33218 -0.123748,0.14911 -0.212657,0.1704 -0.309047,0.074 z m 2.421524,-0.96861 c 0.09331,-0.10311 0.190752,-0.18747 0.216529,-0.18747 0.02578,0 -0.02948,0.0844 -0.122793,0.18747 -0.09331,0.10311 -0.190751,0.18747 -0.216529,0.18747 -0.02578,0 0.02948,-0.0844 0.122793,-0.18747 z m 39.591677,0.0234 c -0.116596,-0.14867 -0.113281,-0.15198 0.03539,-0.0354 0.09022,0.0708 0.164038,0.14458 0.164038,0.16404 0,0.0772 -0.07697,0.0275 -0.199429,-0.12865 z M 6.7502933,259.39622 c -0.033743,-0.0879 0.00108,-0.21867 0.079003,-0.29659 0.202218,-0.20222 0.4682027,0.0198 0.3309585,0.27621 -0.117662,0.21985 -0.3293784,0.23038 -0.4099617,0.0204 z m 46.1466407,-0.007 c -0.116596,-0.14867 -0.11328,-0.15199 0.03539,-0.0354 0.09022,0.0707 0.164039,0.14457 0.164039,0.16404 0,0.0771 -0.07698,0.0275 -0.19943,-0.12865 z m -38.888653,-0.16404 c 0.121084,-0.12889 0.241243,-0.23434 0.26702,-0.23434 0.02578,0 -0.0522,0.10545 -0.173284,0.23434 -0.121084,0.12889 -0.241243,0.23434 -0.26702,0.23434 -0.02578,0 0.0522,-0.10545 0.173284,-0.23434 z m 38.607444,-0.21091 c -0.116596,-0.14867 -0.11328,-0.15199 0.03539,-0.0354 0.156142,0.12246 0.205797,0.19943 0.128648,0.19943 -0.01946,0 -0.09328,-0.0738 -0.164039,-0.16404 z m -38.18563,-0.30464 c 0.09331,-0.10311 0.190751,-0.18747 0.216529,-0.18747 0.02578,0 -0.02948,0.0844 -0.122793,0.18747 -0.09331,0.10311 -0.190752,0.18747 -0.216529,0.18747 -0.02578,0 0.02948,-0.0844 0.122793,-0.18747 z m 37.904421,-0.0703 c -0.116596,-0.14868 -0.113281,-0.15199 0.03539,-0.0354 0.156141,0.12245 0.205796,0.19942 0.128648,0.19942 -0.01947,0 -0.09328,-0.0738 -0.164039,-0.16403 z m -37.295135,-0.67959 c 0.215822,-0.25778 0.413494,-0.46868 0.439272,-0.46868 0.02578,0 -0.129714,0.2109 -0.345535,0.46868 -0.215822,0.25777 -0.413494,0.46868 -0.439272,0.46868 -0.02578,0 0.129714,-0.21091 0.345535,-0.46868 z m 37.013926,0.30464 c -0.116596,-0.14867 -0.113281,-0.15199 0.03539,-0.0354 0.156141,0.12245 0.205796,0.19943 0.128647,0.19943 -0.01946,0 -0.09328,-0.0738 -0.164038,-0.16404 z M 8.8883981,258.0113 c -0.065298,-0.17016 0.029547,-0.33256 0.1942243,-0.33256 0.1421004,0 0.2662124,0.25482 0.1867416,0.3834 -0.081932,0.13257 -0.322927,0.10041 -0.3809659,-0.0508 z m 42.8836989,-0.12166 c -0.116596,-0.14867 -0.11328,-0.15198 0.03539,-0.0354 0.156142,0.12246 0.205797,0.19943 0.128648,0.19943 -0.01946,0 -0.09328,-0.0738 -0.164039,-0.16404 z m -0.281209,-0.37494 c -0.116596,-0.14867 -0.11328,-0.15199 0.03539,-0.0354 0.156142,0.12245 0.205797,0.19943 0.128648,0.19943 -0.01947,0 -0.09328,-0.0738 -0.164039,-0.16404 z m -35.607879,-0.58585 c 0.215821,-0.25778 0.413494,-0.46869 0.439271,-0.46869 0.02578,0 -0.129713,0.21091 -0.345535,0.46869 -0.215821,0.25777 -0.413493,0.46868 -0.439271,0.46868 -0.02578,0 0.129713,-0.21091 0.345535,-0.46868 z m 34.588736,-0.74989 c -0.467171,-0.61867 -0.828312,-1.12484 -0.802534,-1.12484 0.02578,0 0.429099,0.50617 0.89627,1.12484 0.467171,0.61866 0.828311,1.12483 0.802534,1.12483 -0.02578,0 -0.429099,-0.50617 -0.89627,-1.12483 z m -33.979449,0 c 0.09331,-0.10311 0.190751,-0.18748 0.216529,-0.18748 0.02578,0 -0.02948,0.0844 -0.122793,0.18748 -0.09331,0.10311 -0.190752,0.18747 -0.216529,0.18747 -0.02578,0 0.02948,-0.0844 0.122793,-0.18747 z m 0.421813,-0.51555 c 0.121084,-0.12889 0.241243,-0.23435 0.267021,-0.23435 0.02578,0 -0.0522,0.10546 -0.173284,0.23435 -0.121084,0.12888 -0.241243,0.23434 -0.267021,0.23434 -0.02578,0 0.0522,-0.10546 0.173284,-0.23434 z m 0.421814,-0.51556 c 0.09331,-0.10311 0.190752,-0.18747 0.21653,-0.18747 0.02578,0 -0.02948,0.0844 -0.122793,0.18747 -0.09331,0.10311 -0.190752,0.18748 -0.21653,0.18748 -0.02578,0 0.02948,-0.0844 0.122793,-0.18748 z m 32.092764,-0.35151 c -0.116596,-0.14867 -0.11328,-0.15198 0.03539,-0.0354 0.09022,0.0708 0.164039,0.14458 0.164039,0.16404 0,0.0771 -0.07698,0.0275 -0.19943,-0.12865 z M 17.94521,254.39796 c 0.215821,-0.25777 0.413494,-0.46868 0.439271,-0.46868 0.02578,0 -0.129713,0.21091 -0.345535,0.46868 -0.215821,0.25778 -0.413493,0.46869 -0.439271,0.46869 -0.02578,0 0.129713,-0.21091 0.345535,-0.46869 z m 31.202268,0.0234 c -0.116596,-0.14867 -0.113281,-0.15199 0.03539,-0.0354 0.156141,0.12245 0.205796,0.19943 0.128648,0.19943 -0.01947,0 -0.09328,-0.0738 -0.164039,-0.16404 z m -0.281209,-0.37495 c -0.116596,-0.14867 -0.113281,-0.15199 0.03539,-0.0354 0.09022,0.0708 0.164038,0.14458 0.164038,0.16404 0,0.0772 -0.07697,0.0275 -0.199429,-0.12865 z m -30.077431,-0.67959 c 0.215821,-0.25777 0.413493,-0.46868 0.439271,-0.46868 0.02578,0 -0.129713,0.21091 -0.345535,0.46868 -0.215821,0.25778 -0.413494,0.46868 -0.439271,0.46868 -0.02578,0 0.129713,-0.2109 0.345535,-0.46868 z m 29.796221,0.30465 c -0.116596,-0.14868 -0.11328,-0.15199 0.03539,-0.0354 0.156141,0.12245 0.205796,0.19942 0.128647,0.19942 -0.01946,0 -0.09328,-0.0738 -0.164039,-0.16403 z m -0.281209,-0.37495 c -0.116596,-0.14867 -0.11328,-0.15199 0.03539,-0.0354 0.09022,0.0708 0.164039,0.14457 0.164039,0.16404 0,0.0772 -0.07697,0.0275 -0.19943,-0.12865 z m -0.281209,-0.37495 c -0.116596,-0.14867 -0.113281,-0.15198 0.03539,-0.0354 0.09022,0.0708 0.164039,0.14458 0.164039,0.16404 0,0.0771 -0.07698,0.0275 -0.19943,-0.12865 z m -28.624517,-0.30464 c 0.09331,-0.10311 0.190752,-0.18747 0.21653,-0.18747 0.02578,0 -0.02948,0.0844 -0.122793,0.18747 -0.09331,0.10311 -0.190752,0.18747 -0.216529,0.18747 -0.02578,0 0.02948,-0.0844 0.122792,-0.18747 z m 28.343308,-0.0703 c -0.116596,-0.14867 -0.113281,-0.15199 0.03539,-0.0354 0.09022,0.0708 0.164039,0.14457 0.164039,0.16404 0,0.0771 -0.07698,0.0275 -0.19943,-0.12865 z m -27.921494,-0.44525 c 0.121084,-0.12889 0.241243,-0.23434 0.267021,-0.23434 0.02578,0 -0.0522,0.10545 -0.173284,0.23434 -0.121084,0.12889 -0.241243,0.23434 -0.267021,0.23434 -0.02578,0 0.0522,-0.10545 0.173284,-0.23434 z m 26.90235,-0.89049 c -0.467171,-0.61867 -0.828311,-1.12484 -0.802533,-1.12484 0.02578,0 0.429099,0.50617 0.89627,1.12484 0.467171,0.61866 0.828311,1.12483 0.802533,1.12483 -0.02578,0 -0.429099,-0.50617 -0.89627,-1.12483 z m -26.480536,0.37494 c 0.09331,-0.10311 0.190752,-0.18747 0.216529,-0.18747 0.02578,0 -0.02948,0.0844 -0.122793,0.18747 -0.09331,0.10311 -0.190751,0.18747 -0.216529,0.18747 -0.02578,0 0.02948,-0.0844 0.122793,-0.18747 z m 0.609287,-0.74989 c 0.215821,-0.25778 0.413494,-0.46868 0.439271,-0.46868 0.02578,0 -0.129713,0.2109 -0.345535,0.46868 -0.215821,0.25777 -0.413494,0.46868 -0.439271,0.46868 -0.02578,0 0.129713,-0.21091 0.345535,-0.46868 z m -8.488065,-0.25265 c -0.149395,-0.1494 -0.142777,-0.17213 0.110475,-0.37958 0.565271,-0.46303 0.627604,-0.45211 0.366007,0.0641 -0.132209,0.2609 -0.257747,0.47436 -0.278974,0.47436 -0.02123,0 -0.110104,-0.0715 -0.197508,-0.15891 z m 9.331692,-0.77845 c 0.215822,-0.25778 0.413494,-0.46868 0.439272,-0.46868 0.02578,0 -0.129714,0.2109 -0.345535,0.46868 -0.215822,0.25777 -0.413494,0.46868 -0.439271,0.46868 -0.02578,0 0.129713,-0.21091 0.345534,-0.46868 z m 23.984565,0.0234 c -0.116596,-0.14867 -0.113281,-0.15198 0.03539,-0.0354 0.156141,0.12246 0.205796,0.19943 0.128647,0.19943 -0.01946,0 -0.09328,-0.0738 -0.164038,-0.16404 z m -0.28121,-0.37494 c -0.116595,-0.14867 -0.11328,-0.15199 0.03539,-0.0354 0.09022,0.0708 0.164038,0.14457 0.164038,0.16404 0,0.0771 -0.07697,0.0275 -0.19943,-0.12865 z m -23.094068,-0.39838 c 0.09331,-0.10311 0.190752,-0.18748 0.216529,-0.18748 0.02578,0 -0.02948,0.0844 -0.122793,0.18748 -0.09331,0.10311 -0.190751,0.18747 -0.216529,0.18747 -0.02578,0 0.02948,-0.0844 0.122793,-0.18747 z m 22.812859,0.0234 c -0.116596,-0.14867 -0.11328,-0.15198 0.03539,-0.0354 0.156142,0.12246 0.205797,0.19943 0.128648,0.19943 -0.01946,0 -0.09328,-0.0738 -0.164039,-0.16404 z m -0.281209,-0.37494 c -0.116596,-0.14868 -0.113281,-0.15199 0.03539,-0.0354 0.156141,0.12245 0.205796,0.19942 0.128648,0.19942 -0.01947,0 -0.09328,-0.0738 -0.164039,-0.16403 z m -22.103837,-0.18229 0.228342,-0.29946 3.046433,0.0169 3.046434,0.0169 -2.995839,0.0261 -2.995838,0.0261 -0.278938,0.25643 -0.278937,0.25644 z m 21.835422,-0.16822 c -0.09862,-0.11883 -0.703361,-0.14338 -4.065577,-0.16508 l -3.949723,-0.0255 3.984683,-0.0224 c 3.895603,-0.0219 3.987301,-0.0182 4.101763,0.16509 0.137327,0.21989 0.09517,0.24827 -0.07115,0.0479 z m -22.606935,-1.21958 c -0.0086,-0.43822 -0.01914,-0.87058 -0.02344,-0.9608 -0.0095,-0.19955 0.579372,-0.2795 0.878717,-0.11929 0.207522,0.11106 0.269832,0.59876 0.09065,0.70951 -0.06448,0.0399 -0.0307,0.12759 0.09374,0.24352 0.445843,0.41537 0.102906,0.92382 -0.623088,0.92382 h -0.400956 z m 0.989882,0.39838 c 0.15828,-0.25269 -0.04159,-0.48691 -0.444769,-0.52121 l -0.342018,-0.0291 v 0.38626 0.38626 l 0.342018,-0.0291 c 0.199339,-0.0169 0.384883,-0.0975 0.444769,-0.19313 z m -0.22865,-0.76817 c 0.06182,-0.0745 0.09863,-0.23267 0.08178,-0.35151 -0.02484,-0.17524 -0.09704,-0.22156 -0.38214,-0.24516 -0.374867,-0.031 -0.419233,0.048 -0.292431,0.52121 0.06552,0.24448 0.415541,0.28904 0.592792,0.0755 z m 21.700001,0.37405 c -0.553377,-0.55337 -0.03355,-1.62728 0.660044,-1.36358 0.329036,0.1251 0.292096,0.18514 -0.07705,0.12524 -0.427315,-0.0694 -0.6256,0.14398 -0.6256,0.67304 0,0.48034 0.252206,0.73049 0.649952,0.64466 0.187807,-0.0405 0.209718,-0.03 0.09994,0.048 -0.226682,0.16103 -0.461133,0.11882 -0.707283,-0.12733 z"
         id="path883" />
    </g>
    <path
       style="fill:none;stroke:#000000;stroke-width:0.264583px;stroke-linecap:butt;stroke-linejoin:miter;stroke-opacity:1"
       d="M 6.0915039,21.74159 20.749691,4.05302 42.084024,3.87131 55.541436,21.49355 30.928503,46.672859 Z"
       id="path838" />
    <path
       style="fill:none;stroke:#000000;stroke-width:0.265;stroke-linecap:butt;stroke-linejoin:miter;stroke-miterlimit:4;stroke-dasharray:none;stroke-opacity:1;marker-end:url(#Arrow1Mend)"
       d="M 1.074343,17.10698 10.976174,5.2532126"
       id="path840"
       sodipodi:nodetypes="cc" />
  </g>
</svg>
