<?xml version="1.0" encoding="UTF-8" standalone="no"?>
<!-- Created with matplotlib (https://matplotlib.org/) -->

<svg
   xmlns:dc="http://purl.org/dc/elements/1.1/"
   xmlns:cc="http://creativecommons.org/ns#"
   xmlns:rdf="http://www.w3.org/1999/02/22-rdf-syntax-ns#"
   xmlns:svg="http://www.w3.org/2000/svg"
   xmlns="http://www.w3.org/2000/svg"
   xmlns:xlink="http://www.w3.org/1999/xlink"
   xmlns:sodipodi="http://sodipodi.sourceforge.net/DTD/sodipodi-0.dtd"
   xmlns:inkscape="http://www.inkscape.org/namespaces/inkscape"
   height="226.79999pt"
   version="1.1"
   viewBox="0 0 315.44525 226.8"
   width="315.44525pt"
   id="svg480"
   sodipodi:docname="conc_up.svg"
   inkscape:version="0.92.4 (5da689c313, 2019-01-14)">
  <sodipodi:namedview
     pagecolor="#ffffff"
     bordercolor="#666666"
     borderopacity="1"
     objecttolerance="10"
     gridtolerance="10"
     guidetolerance="10"
     inkscape:pageopacity="0"
     inkscape:pageshadow="2"
     inkscape:window-width="1920"
     inkscape:window-height="983"
     id="namedview482"
     showgrid="false"
     inkscape:zoom="1.2606838"
     inkscape:cx="203.59992"
     inkscape:cy="187.64004"
     inkscape:window-x="0"
     inkscape:window-y="27"
     inkscape:window-maximized="1"
     inkscape:current-layer="svg480" />
  <metadata
     id="metadata2">
    <rdf:RDF>
      <cc:Work>
        <dc:type
           rdf:resource="http://purl.org/dc/dcmitype/StillImage" />
        <dc:date>2023-01-24T15:23:36.061688</dc:date>
        <dc:format>image/svg+xml</dc:format>
        <dc:creator>
          <cc:Agent>
            <dc:title>Matplotlib v3.3.1, https://matplotlib.org/</dc:title>
          </cc:Agent>
        </dc:creator>
        <dc:title></dc:title>
      </cc:Work>
    </rdf:RDF>
  </metadata>
  <defs
     id="defs6"
     style="stroke-linecap:butt;stroke-linejoin:round">
    <style
       type="text/css"
       id="style4">*{stroke-linecap:butt;stroke-linejoin:round;}</style>
    <marker
       inkscape:stockid="DotS"
       orient="auto"
       refY="0"
       refX="0"
       id="DotS"
       style="overflow:visible;stroke-linecap:butt;stroke-linejoin:round"
       inkscape:isstock="true">
      <path
         id="path1266"
         d="m -2.5,-1 c 0,2.76 -2.24,5 -5,5 -2.76,0 -5,-2.24 -5,-5 0,-2.76 2.24,-5 5,-5 2.76,0 5,2.24 5,5 z"
         style="fill:#0000ff;fill-opacity:1;fill-rule:evenodd;stroke:#0000ff;stroke-width:1.00000003pt;stroke-linecap:butt;stroke-linejoin:round;stroke-opacity:1"
         transform="matrix(0.2,0,0,0.2,1.48,0.2)"
         inkscape:connector-curvature="0" />
    </marker>
    <marker
       inkscape:stockid="DotS"
       orient="auto"
       refY="0"
       refX="0"
       id="marker1169"
       style="overflow:visible;stroke-linecap:butt;stroke-linejoin:round"
       inkscape:isstock="true">
      <path
         id="path1167"
         d="m -2.5,-1 c 0,2.76 -2.24,5 -5,5 -2.76,0 -5,-2.24 -5,-5 0,-2.76 2.24,-5 5,-5 2.76,0 5,2.24 5,5 z"
         style="fill:#0000ff;fill-opacity:1;fill-rule:evenodd;stroke:#0000ff;stroke-width:1.00000003pt;stroke-linecap:butt;stroke-linejoin:round;stroke-opacity:1"
         transform="matrix(0.2,0,0,0.2,1.48,0.2)"
         inkscape:connector-curvature="0" />
    </marker>
    <marker
       inkscape:isstock="true"
       style="overflow:visible;stroke-linecap:butt;stroke-linejoin:round"
       id="marker1483"
       refX="0"
       refY="0"
       orient="auto"
       inkscape:stockid="Arrow1Mend">
      <path
         transform="matrix(-0.4,0,0,-0.4,-4,0)"
         style="fill:#000000;fill-opacity:1;fill-rule:evenodd;stroke:#000000;stroke-width:1.00000003pt;stroke-linecap:butt;stroke-linejoin:round;stroke-opacity:1"
         d="M 0,0 5,-5 -12.5,0 5,5 Z"
         id="path1481"
         inkscape:connector-curvature="0" />
    </marker>
    <marker
       inkscape:stockid="Arrow1Mend"
       orient="auto"
       refY="0"
       refX="0"
       id="Arrow1Mend"
       style="overflow:visible;stroke-linecap:butt;stroke-linejoin:round"
       inkscape:isstock="true"
       inkscape:collect="always">
      <path
         id="path1208"
         d="M 0,0 5,-5 -12.5,0 5,5 Z"
         style="fill:#000000;fill-opacity:1;fill-rule:evenodd;stroke:#000000;stroke-width:1.00000003pt;stroke-linecap:butt;stroke-linejoin:round;stroke-opacity:1"
         transform="matrix(-0.4,0,0,-0.4,-4,0)"
         inkscape:connector-curvature="0" />
    </marker>
    <g
       id="g4007"
       style="stroke-linecap:butt;stroke-linejoin:round">
      <symbol
         id="textext-4ff7a5f3-0"
         overflow="visible"
         style="overflow:visible;stroke-linecap:butt;stroke-linejoin:round">
        <path
           id="path3953"
           d=""
           style="stroke:none;stroke-linecap:butt;stroke-linejoin:round"
           inkscape:connector-curvature="0" />
      </symbol>
      <symbol
         id="textext-4ff7a5f3-1"
         overflow="visible"
         style="overflow:visible;stroke-linecap:butt;stroke-linejoin:round">
        <path
           id="path3956"
           d="m 3.65625,-3.984375 h 0.859375 c 0.203125,0 0.296875,0 0.296875,-0.203125 0,-0.109375 -0.09375,-0.109375 -0.265625,-0.109375 H 3.71875 L 3.921875,-5.4375 c 0.046875,-0.203125 0.1875,-0.90625 0.25,-1.03125 0.078125,-0.1875 0.25,-0.34375 0.46875,-0.34375 0.03125,0 0.296875,0 0.484375,0.1875 -0.4375,0.03125 -0.546875,0.390625 -0.546875,0.53125 0,0.234375 0.1875,0.359375 0.375,0.359375 C 5.21875,-5.734375 5.5,-5.96875 5.5,-6.34375 c 0,-0.453125 -0.453125,-0.6875 -0.859375,-0.6875 -0.34375,0 -0.96875,0.1875 -1.265625,1.171875 -0.0625,0.203125 -0.09375,0.3125 -0.328125,1.5625 h -0.6875 c -0.203125,0 -0.3125,0 -0.3125,0.1875 0,0.125 0.09375,0.125 0.28125,0.125 h 0.65625 L 2.25,-0.046875 c -0.1875,0.96875 -0.359375,1.875 -0.875,1.875 -0.046875,0 -0.28125,0 -0.484375,-0.1875 C 1.359375,1.609375 1.453125,1.25 1.453125,1.109375 1.453125,0.875 1.265625,0.75 1.078125,0.75 0.8125,0.75 0.53125,0.984375 0.53125,1.359375 c 0,0.4375 0.4375,0.6875 0.84375,0.6875 0.546875,0 0.953125,-0.59375 1.125,-0.96875 0.328125,-0.625 0.546875,-1.828125 0.5625,-1.90625 z m 0,0"
           style="stroke:none;stroke-linecap:butt;stroke-linejoin:round"
           inkscape:connector-curvature="0" />
      </symbol>
      <symbol
         id="textext-4ff7a5f3-2"
         overflow="visible"
         style="overflow:visible;stroke-linecap:butt;stroke-linejoin:round">
        <path
           id="path3959"
           d="M 3.328125,-3.015625 C 3.390625,-3.265625 3.625,-4.1875 4.3125,-4.1875 c 0.046875,0 0.296875,0 0.5,0.125 C 4.53125,-4 4.34375,-3.765625 4.34375,-3.515625 c 0,0.15625 0.109375,0.34375 0.375,0.34375 0.21875,0 0.53125,-0.171875 0.53125,-0.578125 0,-0.515625 -0.578125,-0.65625 -0.921875,-0.65625 -0.578125,0 -0.921875,0.53125 -1.046875,0.75 -0.25,-0.65625 -0.78125,-0.75 -1.078125,-0.75 -1.03125,0 -1.609375,1.28125 -1.609375,1.53125 0,0.109375 0.109375,0.109375 0.125,0.109375 0.078125,0 0.109375,-0.03125 0.125,-0.109375 0.34375,-1.0625 1,-1.3125 1.34375,-1.3125 0.1875,0 0.53125,0.09375 0.53125,0.671875 0,0.3125 -0.171875,0.96875 -0.53125,2.375 -0.15625,0.609375 -0.515625,1.03125 -0.953125,1.03125 -0.0625,0 -0.28125,0 -0.5,-0.125 0.25,-0.0625 0.46875,-0.265625 0.46875,-0.546875 0,-0.265625 -0.21875,-0.34375 -0.359375,-0.34375 -0.3125,0 -0.546875,0.25 -0.546875,0.578125 0,0.453125 0.484375,0.65625 0.921875,0.65625 0.671875,0 1.03125,-0.703125 1.046875,-0.75 0.125,0.359375 0.484375,0.75 1.078125,0.75 1.03125,0 1.59375,-1.28125 1.59375,-1.53125 0,-0.109375 -0.078125,-0.109375 -0.109375,-0.109375 -0.09375,0 -0.109375,0.046875 -0.140625,0.109375 -0.328125,1.078125 -1,1.3125 -1.3125,1.3125 -0.390625,0 -0.546875,-0.3125 -0.546875,-0.65625 0,-0.21875 0.046875,-0.4375 0.15625,-0.875 z m 0,0"
           style="stroke:none;stroke-linecap:butt;stroke-linejoin:round"
           inkscape:connector-curvature="0" />
      </symbol>
      <symbol
         id="textext-4ff7a5f3-3"
         overflow="visible"
         style="overflow:visible;stroke-linecap:butt;stroke-linejoin:round">
        <path
           id="path3962"
           d="M 3.71875,-3.765625 C 3.53125,-4.140625 3.25,-4.40625 2.796875,-4.40625 c -1.15625,0 -2.390625,1.46875 -2.390625,2.921875 0,0.9375 0.546875,1.59375 1.3125,1.59375 0.203125,0 0.703125,-0.046875 1.296875,-0.75 0.078125,0.421875 0.4375,0.75 0.90625,0.75 0.359375,0 0.578125,-0.234375 0.75,-0.546875 0.15625,-0.359375 0.296875,-0.96875 0.296875,-0.984375 0,-0.109375 -0.09375,-0.109375 -0.125,-0.109375 -0.09375,0 -0.109375,0.046875 -0.140625,0.1875 -0.171875,0.640625 -0.34375,1.234375 -0.75,1.234375 -0.28125,0 -0.296875,-0.265625 -0.296875,-0.453125 0,-0.21875 0.015625,-0.3125 0.125,-0.75 C 3.890625,-1.71875 3.90625,-1.828125 4,-2.203125 L 4.359375,-3.59375 c 0.0625,-0.28125 0.0625,-0.296875 0.0625,-0.34375 0,-0.171875 -0.109375,-0.265625 -0.28125,-0.265625 -0.25,0 -0.390625,0.21875 -0.421875,0.4375 z M 3.078125,-1.1875 C 3.015625,-1 3.015625,-0.984375 2.875,-0.8125 2.4375,-0.265625 2.03125,-0.109375 1.75,-0.109375 c -0.5,0 -0.640625,-0.546875 -0.640625,-0.9375 0,-0.5 0.3125,-1.71875 0.546875,-2.1875 0.3125,-0.578125 0.75,-0.953125 1.15625,-0.953125 0.640625,0 0.78125,0.8125 0.78125,0.875 0,0.0625 -0.015625,0.125 -0.03125,0.171875 z m 0,0"
           style="stroke:none;stroke-linecap:butt;stroke-linejoin:round"
           inkscape:connector-curvature="0" />
      </symbol>
      <symbol
         id="textext-4ff7a5f3-4"
         overflow="visible"
         style="overflow:visible;stroke-linecap:butt;stroke-linejoin:round">
        <path
           id="path3965"
           d="m 2.03125,-0.015625 c 0,-0.65625 -0.25,-1.046875 -0.640625,-1.046875 -0.328125,0 -0.53125,0.25 -0.53125,0.53125 C 0.859375,-0.265625 1.0625,0 1.390625,0 1.5,0 1.640625,-0.046875 1.734375,-0.125 1.765625,-0.15625 1.78125,-0.15625 1.78125,-0.15625 c 0.015625,0 0.015625,0 0.015625,0.140625 0,0.75 -0.34375,1.34375 -0.671875,1.671875 -0.109375,0.109375 -0.109375,0.125 -0.109375,0.15625 0,0.078125 0.046875,0.109375 0.09375,0.109375 0.109375,0 0.921875,-0.765625 0.921875,-1.9375 z m 0,0"
           style="stroke:none;stroke-linecap:butt;stroke-linejoin:round"
           inkscape:connector-curvature="0" />
      </symbol>
      <symbol
         id="textext-4ff7a5f3-5"
         overflow="visible"
         style="overflow:visible;stroke-linecap:butt;stroke-linejoin:round">
        <path
           id="path3968"
           d="m 2.375,-6.8125 c 0,0 0,-0.109375 -0.125,-0.109375 -0.21875,0 -0.953125,0.078125 -1.21875,0.109375 -0.078125,0 -0.1875,0.015625 -0.1875,0.1875 0,0.125 0.09375,0.125 0.25,0.125 0.46875,0 0.484375,0.0625 0.484375,0.171875 0,0.0625 -0.078125,0.40625 -0.125,0.609375 l -0.828125,3.25 c -0.109375,0.5 -0.15625,0.671875 -0.15625,1.015625 0,0.9375 0.53125,1.5625 1.265625,1.5625 1.171875,0 2.40625,-1.484375 2.40625,-2.921875 0,-0.90625 -0.53125,-1.59375 -1.328125,-1.59375 -0.453125,0 -0.875,0.296875 -1.171875,0.59375 z M 1.453125,-3.046875 C 1.5,-3.265625 1.5,-3.28125 1.59375,-3.390625 2.078125,-4.03125 2.53125,-4.1875 2.796875,-4.1875 c 0.359375,0 0.625,0.296875 0.625,0.9375 0,0.59375 -0.328125,1.734375 -0.515625,2.109375 -0.328125,0.671875 -0.78125,1.03125 -1.171875,1.03125 -0.34375,0 -0.671875,-0.265625 -0.671875,-1 0,-0.203125 0,-0.390625 0.15625,-1.015625 z m 0,0"
           style="stroke:none;stroke-linecap:butt;stroke-linejoin:round"
           inkscape:connector-curvature="0" />
      </symbol>
      <symbol
         id="textext-4ff7a5f3-6"
         overflow="visible"
         style="overflow:visible;stroke-linecap:butt;stroke-linejoin:round">
        <path
           id="path3971"
           d=""
           style="stroke:none;stroke-linecap:butt;stroke-linejoin:round"
           inkscape:connector-curvature="0" />
      </symbol>
      <symbol
         id="textext-4ff7a5f3-7"
         overflow="visible"
         style="overflow:visible;stroke-linecap:butt;stroke-linejoin:round">
        <path
           id="path3974"
           d="m 2.015625,-3.296875 c 0.0625,-0.109375 0.0625,-0.171875 0.0625,-0.21875 0,-0.21875 -0.1875,-0.375 -0.40625,-0.375 -0.265625,0 -0.34375,0.21875 -0.375,0.328125 L 0.375,-0.546875 c -0.015625,0.015625 -0.046875,0.09375 -0.046875,0.109375 0,0.078125 0.21875,0.15625 0.28125,0.15625 0.046875,0 0.046875,-0.015625 0.09375,-0.125 z m 0,0"
           style="stroke:none;stroke-linecap:butt;stroke-linejoin:round"
           inkscape:connector-curvature="0" />
      </symbol>
      <symbol
         id="textext-4ff7a5f3-8"
         overflow="visible"
         style="overflow:visible;stroke-linecap:butt;stroke-linejoin:round">
        <path
           id="path3977"
           d=""
           style="stroke:none;stroke-linecap:butt;stroke-linejoin:round"
           inkscape:connector-curvature="0" />
      </symbol>
      <symbol
         id="textext-4ff7a5f3-9"
         overflow="visible"
         style="overflow:visible;stroke-linecap:butt;stroke-linejoin:round">
        <path
           id="path3980"
           d="m 3.296875,2.390625 c 0,-0.03125 0,-0.046875 -0.171875,-0.21875 C 1.890625,0.921875 1.5625,-0.96875 1.5625,-2.5 c 0,-1.734375 0.375,-3.46875 1.609375,-4.703125 0.125,-0.125 0.125,-0.140625 0.125,-0.171875 0,-0.078125 -0.03125,-0.109375 -0.09375,-0.109375 -0.109375,0 -1,0.6875 -1.59375,1.953125 -0.5,1.09375 -0.625,2.203125 -0.625,3.03125 0,0.78125 0.109375,1.984375 0.65625,3.125 C 2.25,1.84375 3.09375,2.5 3.203125,2.5 c 0.0625,0 0.09375,-0.03125 0.09375,-0.109375 z m 0,0"
           style="stroke:none;stroke-linecap:butt;stroke-linejoin:round"
           inkscape:connector-curvature="0" />
      </symbol>
      <symbol
         id="textext-4ff7a5f3-10"
         overflow="visible"
         style="overflow:visible;stroke-linecap:butt;stroke-linejoin:round">
        <path
           id="path3983"
           d="m 2.875,-2.5 c 0,-0.765625 -0.109375,-1.96875 -0.65625,-3.109375 -0.59375,-1.21875 -1.453125,-1.875 -1.546875,-1.875 -0.0625,0 -0.109375,0.046875 -0.109375,0.109375 0,0.03125 0,0.046875 0.1875,0.234375 0.984375,0.984375 1.546875,2.5625 1.546875,4.640625 0,1.71875 -0.359375,3.46875 -1.59375,4.71875 C 0.5625,2.34375 0.5625,2.359375 0.5625,2.390625 0.5625,2.453125 0.609375,2.5 0.671875,2.5 0.765625,2.5 1.671875,1.8125 2.25,0.546875 2.765625,-0.546875 2.875,-1.65625 2.875,-2.5 Z m 0,0"
           style="stroke:none;stroke-linecap:butt;stroke-linejoin:round"
           inkscape:connector-curvature="0" />
      </symbol>
      <symbol
         id="textext-4ff7a5f3-11"
         overflow="visible"
         style="overflow:visible;stroke-linecap:butt;stroke-linejoin:round">
        <path
           id="path3986"
           d="m 6.84375,-3.265625 c 0.15625,0 0.34375,0 0.34375,-0.1875 C 7.1875,-3.65625 7,-3.65625 6.859375,-3.65625 h -5.96875 c -0.140625,0 -0.328125,0 -0.328125,0.203125 0,0.1875 0.1875,0.1875 0.328125,0.1875 z m 0.015625,1.9375 c 0.140625,0 0.328125,0 0.328125,-0.203125 0,-0.1875 -0.1875,-0.1875 -0.34375,-0.1875 H 0.890625 c -0.140625,0 -0.328125,0 -0.328125,0.1875 0,0.203125 0.1875,0.203125 0.328125,0.203125 z m 0,0"
           style="stroke:none;stroke-linecap:butt;stroke-linejoin:round"
           inkscape:connector-curvature="0" />
      </symbol>
      <symbol
         id="textext-4ff7a5f3-12"
         overflow="visible"
         style="overflow:visible;stroke-linecap:butt;stroke-linejoin:round">
        <path
           id="path3989"
           d="m 4.578125,-3.1875 c 0,-0.796875 -0.046875,-1.59375 -0.390625,-2.328125 -0.453125,-0.96875 -1.28125,-1.125 -1.6875,-1.125 -0.609375,0 -1.328125,0.265625 -1.75,1.1875 -0.3125,0.6875 -0.359375,1.46875 -0.359375,2.265625 0,0.75 0.03125,1.640625 0.453125,2.40625 0.421875,0.796875 1.15625,1 1.640625,1 0.53125,0 1.296875,-0.203125 1.734375,-1.15625 0.3125,-0.6875 0.359375,-1.46875 0.359375,-2.25 z M 2.484375,0 C 2.09375,0 1.5,-0.25 1.328125,-1.203125 1.21875,-1.796875 1.21875,-2.71875 1.21875,-3.3125 c 0,-0.640625 0,-1.296875 0.078125,-1.828125 0.1875,-1.1875 0.9375,-1.28125 1.1875,-1.28125 0.328125,0 0.984375,0.1875 1.171875,1.171875 0.109375,0.5625 0.109375,1.3125 0.109375,1.9375 0,0.75 0,1.421875 -0.109375,2.0625 C 3.5,-0.296875 2.9375,0 2.484375,0 Z m 0,0"
           style="stroke:none;stroke-linecap:butt;stroke-linejoin:round"
           inkscape:connector-curvature="0" />
      </symbol>
      <symbol
         id="textext-4ff7a5f3-13"
         overflow="visible"
         style="overflow:visible;stroke-linecap:butt;stroke-linejoin:round">
        <path
           id="path3992"
           d="M 2.546875,2.5 V 2.09375 h -0.96875 v -9.171875 h 0.96875 v -0.40625 h -1.375 V 2.5 Z m 0,0"
           style="stroke:none;stroke-linecap:butt;stroke-linejoin:round"
           inkscape:connector-curvature="0" />
      </symbol>
      <symbol
         id="textext-4ff7a5f3-14"
         overflow="visible"
         style="overflow:visible;stroke-linecap:butt;stroke-linejoin:round">
        <path
           id="path3995"
           d="M 1.578125,-7.484375 H 0.21875 v 0.40625 H 1.1875 V 2.09375 H 0.21875 V 2.5 h 1.359375 z m 0,0"
           style="stroke:none;stroke-linecap:butt;stroke-linejoin:round"
           inkscape:connector-curvature="0" />
      </symbol>
      <symbol
         id="textext-4ff7a5f3-15"
         overflow="visible"
         style="overflow:visible;stroke-linecap:butt;stroke-linejoin:round">
        <path
           id="path3998"
           d=""
           style="stroke:none;stroke-linecap:butt;stroke-linejoin:round"
           inkscape:connector-curvature="0" />
      </symbol>
      <symbol
         id="textext-4ff7a5f3-16"
         overflow="visible"
         style="overflow:visible;stroke-linecap:butt;stroke-linejoin:round">
        <path
           id="path4001"
           d="m 5.5,-6.546875 c 0.046875,-0.109375 0.046875,-0.125 0.046875,-0.171875 0,-0.09375 -0.078125,-0.203125 -0.203125,-0.203125 -0.125,0 -0.1875,0.125 -0.234375,0.234375 L 4.28125,-4.5 H 1.25 L 0.421875,-6.6875 C 0.375,-6.828125 0.328125,-6.921875 0.203125,-6.921875 0.09375,-6.921875 0,-6.8125 0,-6.71875 c 0,0.015625 0,0.046875 0.0625,0.171875 l 2.484375,6.53125 C 2.59375,0.125 2.640625,0.21875 2.765625,0.21875 c 0.140625,0 0.1875,-0.109375 0.21875,-0.203125 z M 1.421875,-4.09375 H 4.125 l -1.359375,3.546875 z m 0,0"
           style="stroke:none;stroke-linecap:butt;stroke-linejoin:round"
           inkscape:connector-curvature="0" />
      </symbol>
      <symbol
         id="textext-4ff7a5f3-17"
         overflow="visible"
         style="overflow:visible;stroke-linecap:butt;stroke-linejoin:round">
        <path
           id="path4004"
           d="m 5.46875,-2.296875 c 0.15625,0 0.34375,0 0.34375,-0.203125 0,-0.1875 -0.1875,-0.1875 -0.34375,-0.1875 H 1.234375 C 1.359375,-4.03125 2.5,-4.984375 3.90625,-4.984375 h 1.5625 c 0.15625,0 0.34375,0 0.34375,-0.203125 0,-0.203125 -0.1875,-0.203125 -0.34375,-0.203125 H 3.890625 c -1.703125,0 -3.0625,1.296875 -3.0625,2.890625 0,1.609375 1.359375,2.90625 3.0625,2.90625 H 5.46875 c 0.15625,0 0.34375,0 0.34375,-0.203125 C 5.8125,0 5.625,0 5.46875,0 H 3.90625 C 2.5,0 1.359375,-0.953125 1.234375,-2.296875 Z m 0,0"
           style="stroke:none;stroke-linecap:butt;stroke-linejoin:round"
           inkscape:connector-curvature="0" />
      </symbol>
    </g>
    <defs
       id="defs3837">
      <g
         style="stroke-linecap:butt;stroke-linejoin:round"
         id="g3835">
        <symbol
           style="overflow:visible;stroke-linecap:butt;stroke-linejoin:round"
           overflow="visible"
           id="textext-94368119-0">
          <path
             inkscape:connector-curvature="0"
             style="stroke:none;stroke-linecap:butt;stroke-linejoin:round"
             d=""
             id="path3811" />
        </symbol>
        <symbol
           style="overflow:visible;stroke-linecap:butt;stroke-linejoin:round"
           overflow="visible"
           id="textext-94368119-1">
          <path
             inkscape:connector-curvature="0"
             style="stroke:none;stroke-linecap:butt;stroke-linejoin:round"
             d="M 3.71875,-3.765625 C 3.53125,-4.140625 3.25,-4.40625 2.796875,-4.40625 c -1.15625,0 -2.390625,1.46875 -2.390625,2.921875 0,0.9375 0.546875,1.59375 1.3125,1.59375 0.203125,0 0.703125,-0.046875 1.296875,-0.75 0.078125,0.421875 0.4375,0.75 0.90625,0.75 0.359375,0 0.578125,-0.234375 0.75,-0.546875 0.15625,-0.359375 0.296875,-0.96875 0.296875,-0.984375 0,-0.109375 -0.09375,-0.109375 -0.125,-0.109375 -0.09375,0 -0.109375,0.046875 -0.140625,0.1875 -0.171875,0.640625 -0.34375,1.234375 -0.75,1.234375 -0.28125,0 -0.296875,-0.265625 -0.296875,-0.453125 0,-0.21875 0.015625,-0.3125 0.125,-0.75 C 3.890625,-1.71875 3.90625,-1.828125 4,-2.203125 L 4.359375,-3.59375 c 0.0625,-0.28125 0.0625,-0.296875 0.0625,-0.34375 0,-0.171875 -0.109375,-0.265625 -0.28125,-0.265625 -0.25,0 -0.390625,0.21875 -0.421875,0.4375 z M 3.078125,-1.1875 C 3.015625,-1 3.015625,-0.984375 2.875,-0.8125 2.4375,-0.265625 2.03125,-0.109375 1.75,-0.109375 c -0.5,0 -0.640625,-0.546875 -0.640625,-0.9375 0,-0.5 0.3125,-1.71875 0.546875,-2.1875 0.3125,-0.578125 0.75,-0.953125 1.15625,-0.953125 0.640625,0 0.78125,0.8125 0.78125,0.875 0,0.0625 -0.015625,0.125 -0.03125,0.171875 z m 0,0"
             id="path3814" />
        </symbol>
        <symbol
           style="overflow:visible;stroke-linecap:butt;stroke-linejoin:round"
           overflow="visible"
           id="textext-94368119-2">
          <path
             inkscape:connector-curvature="0"
             style="stroke:none;stroke-linecap:butt;stroke-linejoin:round"
             d="M 0.453125,1.21875 C 0.375,1.5625 0.34375,1.625 -0.09375,1.625 c -0.109375,0 -0.21875,0 -0.21875,0.1875 0,0.078125 0.046875,0.125 0.125,0.125 0.265625,0 0.5625,-0.03125 0.828125,-0.03125 0.34375,0 0.671875,0.03125 1,0.03125 0.046875,0 0.171875,0 0.171875,-0.203125 C 1.8125,1.625 1.71875,1.625 1.578125,1.625 c -0.5,0 -0.5,-0.0625 -0.5,-0.15625 0,-0.125 0.421875,-1.75 0.484375,-2 0.125,0.296875 0.40625,0.640625 0.921875,0.640625 1.15625,0 2.40625,-1.453125 2.40625,-2.921875 0,-0.9375 -0.578125,-1.59375 -1.328125,-1.59375 -0.5,0 -0.984375,0.359375 -1.3125,0.75 -0.09375,-0.546875 -0.53125,-0.75 -0.890625,-0.75 -0.46875,0 -0.65625,0.390625 -0.734375,0.5625 C 0.4375,-3.5 0.3125,-2.90625 0.3125,-2.875 c 0,0.109375 0.09375,0.109375 0.109375,0.109375 0.109375,0 0.109375,-0.015625 0.171875,-0.234375 0.171875,-0.703125 0.375,-1.1875 0.734375,-1.1875 0.171875,0 0.3125,0.078125 0.3125,0.453125 0,0.234375 -0.03125,0.34375 -0.078125,0.515625 z m 1.75,-4.328125 C 2.265625,-3.375 2.546875,-3.65625 2.71875,-3.8125 c 0.359375,-0.296875 0.640625,-0.375 0.8125,-0.375 0.390625,0 0.640625,0.34375 0.640625,0.9375 0,0.59375 -0.328125,1.734375 -0.515625,2.109375 -0.34375,0.703125 -0.8125,1.03125 -1.1875,1.03125 C 1.8125,-0.109375 1.6875,-0.9375 1.6875,-1 c 0,-0.015625 0,-0.03125 0.03125,-0.15625 z m 0,0"
             id="path3817" />
        </symbol>
        <symbol
           style="overflow:visible;stroke-linecap:butt;stroke-linejoin:round"
           overflow="visible"
           id="textext-94368119-3">
          <path
             inkscape:connector-curvature="0"
             style="stroke:none;stroke-linecap:butt;stroke-linejoin:round"
             d=""
             id="path3820" />
        </symbol>
        <symbol
           style="overflow:visible;stroke-linecap:butt;stroke-linejoin:round"
           overflow="visible"
           id="textext-94368119-4">
          <path
             inkscape:connector-curvature="0"
             style="stroke:none;stroke-linecap:butt;stroke-linejoin:round"
             d="m 2.328125,-4.4375 c 0,-0.1875 0,-0.1875 -0.203125,-0.1875 -0.453125,0.4375 -1.078125,0.4375 -1.359375,0.4375 v 0.25 c 0.15625,0 0.625,0 1,-0.1875 v 3.546875 c 0,0.234375 0,0.328125 -0.6875,0.328125 H 0.8125 V 0 c 0.125,0 0.984375,-0.03125 1.234375,-0.03125 0.21875,0 1.09375,0.03125 1.25,0.03125 V -0.25 H 3.03125 c -0.703125,0 -0.703125,-0.09375 -0.703125,-0.328125 z m 0,0"
             id="path3823" />
        </symbol>
        <symbol
           style="overflow:visible;stroke-linecap:butt;stroke-linejoin:round"
           overflow="visible"
           id="textext-94368119-5">
          <path
             inkscape:connector-curvature="0"
             style="stroke:none;stroke-linecap:butt;stroke-linejoin:round"
             d="M 3.515625,-1.265625 H 3.28125 c -0.015625,0.15625 -0.09375,0.5625 -0.1875,0.625 C 3.046875,-0.59375 2.515625,-0.59375 2.40625,-0.59375 H 1.125 c 0.734375,-0.640625 0.984375,-0.84375 1.390625,-1.171875 0.515625,-0.40625 1,-0.84375 1,-1.5 0,-0.84375 -0.734375,-1.359375 -1.625,-1.359375 -0.859375,0 -1.453125,0.609375 -1.453125,1.25 0,0.34375 0.296875,0.390625 0.375,0.390625 0.15625,0 0.359375,-0.125 0.359375,-0.375 0,-0.125 -0.046875,-0.375 -0.40625,-0.375 C 0.984375,-4.21875 1.453125,-4.375 1.78125,-4.375 c 0.703125,0 1.0625,0.546875 1.0625,1.109375 0,0.609375 -0.4375,1.078125 -0.65625,1.328125 L 0.515625,-0.265625 C 0.4375,-0.203125 0.4375,-0.1875 0.4375,0 h 2.875 z m 0,0"
             id="path3826" />
        </symbol>
        <symbol
           style="overflow:visible;stroke-linecap:butt;stroke-linejoin:round"
           overflow="visible"
           id="textext-94368119-6">
          <path
             inkscape:connector-curvature="0"
             style="stroke:none;stroke-linecap:butt;stroke-linejoin:round"
             d="m 1.90625,-2.328125 c 0.546875,0 0.9375,0.375 0.9375,1.125 0,0.859375 -0.515625,1.125 -0.90625,1.125 -0.28125,0 -0.90625,-0.078125 -1.1875,-0.5 0.328125,0 0.40625,-0.234375 0.40625,-0.390625 0,-0.21875 -0.171875,-0.375 -0.390625,-0.375 -0.1875,0 -0.390625,0.125 -0.390625,0.40625 0,0.65625 0.71875,1.078125 1.5625,1.078125 0.96875,0 1.640625,-0.65625 1.640625,-1.34375 0,-0.546875 -0.4375,-1.09375 -1.203125,-1.25 0.71875,-0.265625 0.984375,-0.78125 0.984375,-1.21875 0,-0.546875 -0.625,-0.953125 -1.40625,-0.953125 -0.765625,0 -1.359375,0.375 -1.359375,0.9375 0,0.234375 0.15625,0.359375 0.359375,0.359375 0.21875,0 0.359375,-0.15625 0.359375,-0.34375 0,-0.203125 -0.140625,-0.359375 -0.359375,-0.375 0.25,-0.296875 0.71875,-0.375 0.984375,-0.375 0.3125,0 0.75,0.15625 0.75,0.75 0,0.296875 -0.09375,0.625 -0.28125,0.828125 -0.21875,0.265625 -0.421875,0.28125 -0.765625,0.3125 -0.171875,0.015625 -0.1875,0.015625 -0.21875,0.015625 -0.015625,0 -0.078125,0.015625 -0.078125,0.09375 0,0.09375 0.0625,0.09375 0.1875,0.09375 z m 0,0"
             id="path3829" />
        </symbol>
        <symbol
           style="overflow:visible;stroke-linecap:butt;stroke-linejoin:round"
           overflow="visible"
           id="textext-94368119-7">
          <path
             inkscape:connector-curvature="0"
             style="stroke:none;stroke-linecap:butt;stroke-linejoin:round"
             d="m 3.6875,-1.140625 v -0.25 H 2.90625 V -4.5 c 0,-0.140625 0,-0.203125 -0.140625,-0.203125 -0.09375,0 -0.125,0 -0.1875,0.109375 l -2.3125,3.203125 v 0.25 h 2.0625 v 0.5625 c 0,0.25 0,0.328125 -0.578125,0.328125 H 1.5625 V 0 C 1.921875,-0.015625 2.359375,-0.03125 2.609375,-0.03125 2.875,-0.03125 3.3125,-0.015625 3.671875,0 v -0.25 h -0.1875 C 2.90625,-0.25 2.90625,-0.328125 2.90625,-0.578125 v -0.5625 z M 2.375,-3.9375 v 2.546875 H 0.53125 Z m 0,0"
             id="path3832" />
        </symbol>
      </g>
    </defs>
  </defs>
  <defs
     id="defs478">
    <clipPath
       id="p105e2d0007"
       style="stroke-linecap:butt;stroke-linejoin:round">
      <rect
         height="266.39999"
         width="301.04526"
         x="7.1999998"
         y="7.1999998"
         id="rect475"
         style="stroke-linecap:butt;stroke-linejoin:round" />
    </clipPath>
  </defs>
  <path
     style="fill:none;stroke:#666666;stroke-width:2.25712729;stroke-linecap:butt;stroke-linejoin:miter;stroke-miterlimit:4;stroke-dasharray:4.51425481, 2.2571274;stroke-dashoffset:1.63422489;stroke-opacity:1"
     d="M 92.391843,125.92562 V 180.5029"
     id="path2867-0-3"
     inkscape:connector-curvature="0"
     sodipodi:nodetypes="cc" />
  <path
     style="fill:none;stroke:#666666;stroke-width:2.25712729;stroke-linecap:butt;stroke-linejoin:miter;stroke-miterlimit:4;stroke-dasharray:4.51425481, 2.2571274;stroke-dashoffset:1.1439575;stroke-opacity:1"
     d="m 142.35879,151.78062 v 28.43179"
     id="path2867-0-3-6"
     inkscape:connector-curvature="0"
     sodipodi:nodetypes="cc" />
  <path
     style="fill:none;stroke:#666666;stroke-width:2.25712729;stroke-linecap:butt;stroke-linejoin:miter;stroke-miterlimit:4;stroke-dasharray:4.51425474, 2.2571274;stroke-dashoffset:0;stroke-opacity:1"
     d="M 200.45988,149.16607 V 180.5029"
     id="path2867-0-3-7"
     inkscape:connector-curvature="0"
     sodipodi:nodetypes="cc" />
  <path
     style="fill:none;stroke:#666666;stroke-width:2.25712729;stroke-linecap:butt;stroke-linejoin:miter;stroke-miterlimit:4;stroke-dasharray:4.51425474, 2.2571274;stroke-dashoffset:0;stroke-opacity:1"
     d="M 243.45469,122.14904 V 180.7934"
     id="path2867-0-3-5"
     inkscape:connector-curvature="0"
     sodipodi:nodetypes="cc" />
  <path
     style="fill:none;stroke:#666666;stroke-width:2.25712729;stroke-linecap:butt;stroke-linejoin:miter;stroke-miterlimit:4;stroke-dasharray:4.5142548, 2.25712743;stroke-dashoffset:0;stroke-opacity:1"
     d="M 61.081707,96.891018 V 181.39036"
     id="path2867-0"
     inkscape:connector-curvature="0" />
  <path
     style="fill:none;stroke:#666666;stroke-width:2.25712729;stroke-linecap:butt;stroke-linejoin:miter;stroke-miterlimit:4;stroke-dasharray:4.51425481, 2.2571274;stroke-dashoffset:1.1439575;stroke-opacity:1"
     d="M 259.52251,96.891018 V 179.74343"
     id="path2869-6"
     inkscape:connector-curvature="0" />
  <path
     style="fill:none;stroke:#000000;stroke-width:2.25712729;stroke-linecap:butt;stroke-linejoin:miter;stroke-miterlimit:4;stroke-dasharray:none;stroke-opacity:1;marker-end:url(#Arrow1Mend)"
     d="M 5.1829514,180.73946 H 305.17312"
     id="path1193"
     inkscape:connector-curvature="0" />
  <path
     style="fill:none;stroke:#000000;stroke-width:2.25712729;stroke-linecap:butt;stroke-linejoin:miter;stroke-miterlimit:4;stroke-dasharray:none;stroke-opacity:1;marker-end:url(#marker1483)"
     d="M 44.312094,222.01998 V 17.93043"
     id="path1195"
     inkscape:connector-curvature="0" />
  <path
     style="fill:none;stroke:#0000ff;stroke-width:3.61140394;stroke-linecap:butt;stroke-linejoin:miter;stroke-miterlimit:4;stroke-dasharray:none;stroke-opacity:1;marker-start:url(#DotS);marker-end:url(#DotS)"
     d="m 61.081707,96.891018 c 89.436623,101.245152 180.827923,46.055422 198.440733,0"
     id="path1551"
     inkscape:connector-curvature="0"
     sodipodi:nodetypes="cc" />
  <g
     id="use3569-8"
     style="fill:#000000;fill-opacity:1;stroke-linecap:butt;stroke-linejoin:round"
     transform="matrix(1.6510539,0,0,1.6510539,56.469196,194.98276)">
    <path
       inkscape:connector-curvature="0"
       id="path1540"
       d="M 3.71875,-3.765625 C 3.53125,-4.140625 3.25,-4.40625 2.796875,-4.40625 c -1.15625,0 -2.390625,1.46875 -2.390625,2.921875 0,0.9375 0.546875,1.59375 1.3125,1.59375 0.203125,0 0.703125,-0.046875 1.296875,-0.75 0.078125,0.421875 0.4375,0.75 0.90625,0.75 0.359375,0 0.578125,-0.234375 0.75,-0.546875 0.15625,-0.359375 0.296875,-0.96875 0.296875,-0.984375 0,-0.109375 -0.09375,-0.109375 -0.125,-0.109375 -0.09375,0 -0.109375,0.046875 -0.140625,0.1875 -0.171875,0.640625 -0.34375,1.234375 -0.75,1.234375 -0.28125,0 -0.296875,-0.265625 -0.296875,-0.453125 0,-0.21875 0.015625,-0.3125 0.125,-0.75 C 3.890625,-1.71875 3.90625,-1.828125 4,-2.203125 L 4.359375,-3.59375 c 0.0625,-0.28125 0.0625,-0.296875 0.0625,-0.34375 0,-0.171875 -0.109375,-0.265625 -0.28125,-0.265625 -0.25,0 -0.390625,0.21875 -0.421875,0.4375 z M 3.078125,-1.1875 C 3.015625,-1 3.015625,-0.984375 2.875,-0.8125 2.4375,-0.265625 2.03125,-0.109375 1.75,-0.109375 c -0.5,0 -0.640625,-0.546875 -0.640625,-0.9375 0,-0.5 0.3125,-1.71875 0.546875,-2.1875 0.3125,-0.578125 0.75,-0.953125 1.15625,-0.953125 0.640625,0 0.78125,0.8125 0.78125,0.875 0,0.0625 -0.015625,0.125 -0.03125,0.171875 z m 0,0"
       style="stroke:none;stroke-linecap:butt;stroke-linejoin:round" />
  </g>
  <g
     id="use3571-9"
     style="fill:#000000;fill-opacity:1;stroke-linecap:butt;stroke-linejoin:round"
     transform="matrix(1.6510539,0,0,1.6510539,255.15759,200.73448)">
    <path
       inkscape:connector-curvature="0"
       id="path1544"
       d="m 2.375,-6.8125 c 0,0 0,-0.109375 -0.125,-0.109375 -0.21875,0 -0.953125,0.078125 -1.21875,0.109375 -0.078125,0 -0.1875,0.015625 -0.1875,0.1875 0,0.125 0.09375,0.125 0.25,0.125 0.46875,0 0.484375,0.0625 0.484375,0.171875 0,0.0625 -0.078125,0.40625 -0.125,0.609375 l -0.828125,3.25 c -0.109375,0.5 -0.15625,0.671875 -0.15625,1.015625 0,0.9375 0.53125,1.5625 1.265625,1.5625 1.171875,0 2.40625,-1.484375 2.40625,-2.921875 0,-0.90625 -0.53125,-1.59375 -1.328125,-1.59375 -0.453125,0 -0.875,0.296875 -1.171875,0.59375 z M 1.453125,-3.046875 C 1.5,-3.265625 1.5,-3.28125 1.59375,-3.390625 2.078125,-4.03125 2.53125,-4.1875 2.796875,-4.1875 c 0.359375,0 0.625,0.296875 0.625,0.9375 0,0.59375 -0.328125,1.734375 -0.515625,2.109375 -0.328125,0.671875 -0.78125,1.03125 -1.171875,1.03125 -0.34375,0 -0.671875,-0.265625 -0.671875,-1 0,-0.203125 0,-0.390625 0.15625,-1.015625 z m 0,0"
       style="stroke:none;stroke-linecap:butt;stroke-linejoin:round" />
  </g>
  <path
     style="fill:none;stroke:#ff0000;stroke-width:2.0717411;stroke-linecap:butt;stroke-linejoin:miter;stroke-miterlimit:4;stroke-dasharray:none;stroke-opacity:1"
     d="m 53.58232,100.42613 88.51674,61.79949"
     id="path3564"
     inkscape:connector-curvature="0" />
  <path
     style="fill:none;stroke:#ff0000;stroke-width:2.0717411;stroke-linecap:butt;stroke-linejoin:miter;stroke-miterlimit:4;stroke-dasharray:none;stroke-opacity:1"
     d="M 97.383193,141.32035 199.94151,164.91784"
     id="path3566"
     inkscape:connector-curvature="0" />
  <path
     style="fill:none;stroke:#ff0000;stroke-width:2.0717411;stroke-linecap:butt;stroke-linejoin:miter;stroke-miterlimit:4;stroke-dasharray:none;stroke-opacity:1"
     d="M 153.69954,164.46956 258.22006,131.59618"
     id="path3568"
     inkscape:connector-curvature="0" />
  <path
     style="fill:none;stroke:#ff0000;stroke-width:2.0717411;stroke-linecap:butt;stroke-linejoin:miter;stroke-miterlimit:4;stroke-dasharray:none;stroke-opacity:1"
     d="m 222.08084,147.28693 35.41192,-40.57616"
     id="path3572"
     inkscape:connector-curvature="0" />
  <g
     id="g3978"
     style="fill:#000000;stroke-linecap:butt;stroke-linejoin:round"
     transform="matrix(1.3811608,0,0,1.3811608,-51.819217,-79.828125)">
    <use
       transform="matrix(1.1859698,0,0,1.1859698,-172.33351,38.605267)"
       id="use3841"
       y="134.765"
       x="228.69823"
       xlink:href="#textext-94368119-2"
       style="fill:#000000;fill-opacity:1;stroke-linecap:butt;stroke-linejoin:round"
       width="100%"
       height="100%" />
    <use
       transform="matrix(1.1859698,0,0,1.1859698,-172.33351,38.605267)"
       id="use3845"
       y="136.259"
       x="233.711"
       xlink:href="#textext-94368119-4"
       style="fill:#000000;fill-opacity:1;stroke-linecap:butt;stroke-linejoin:round"
       width="100%"
       height="100%" />
  </g>
  <g
     id="g3982"
     style="fill:#000000;stroke-linecap:butt;stroke-linejoin:round"
     transform="matrix(1.3811608,0,0,1.3811608,-19.641521,-79.094713)">
    <use
       transform="matrix(1.1859698,0,0,1.1859698,-172.33351,38.605267)"
       id="use3849"
       y="134.765"
       x="238.17999"
       xlink:href="#textext-94368119-2"
       style="fill:#000000;fill-opacity:1;stroke-linecap:butt;stroke-linejoin:round"
       width="100%"
       height="100%" />
    <use
       transform="matrix(1.1859698,0,0,1.1859698,-172.33351,38.605267)"
       id="use3853"
       y="136.259"
       x="243.19299"
       xlink:href="#textext-94368119-5"
       style="fill:#000000;fill-opacity:1;stroke-linecap:butt;stroke-linejoin:round"
       width="100%"
       height="100%" />
  </g>
  <g
     id="g3986"
     style="fill:#000000;stroke-linecap:butt;stroke-linejoin:round"
     transform="matrix(1.3811608,0,0,1.3811608,25.139691,-79.094713)">
    <use
       transform="matrix(1.1859698,0,0,1.1859698,-172.33351,38.605267)"
       id="use3857"
       y="134.765"
       x="247.662"
       xlink:href="#textext-94368119-2"
       style="fill:#000000;fill-opacity:1;stroke-linecap:butt;stroke-linejoin:round"
       width="100%"
       height="100%" />
    <use
       transform="matrix(1.1859698,0,0,1.1859698,-172.33351,38.605267)"
       id="use3861"
       y="136.259"
       x="252.674"
       xlink:href="#textext-94368119-6"
       style="fill:#000000;fill-opacity:1;stroke-linecap:butt;stroke-linejoin:round"
       width="100%"
       height="100%" />
  </g>
  <g
     id="g3990"
     style="fill:#000000;stroke-linecap:butt;stroke-linejoin:round"
     transform="matrix(1.3811608,0,0,1.3811608,49.789899,-80.327224)">
    <use
       transform="matrix(1.1859698,0,0,1.1859698,-172.33351,38.605267)"
       id="use3865"
       y="134.765"
       x="257.14401"
       xlink:href="#textext-94368119-2"
       style="fill:#000000;fill-opacity:1;stroke-linecap:butt;stroke-linejoin:round"
       width="100%"
       height="100%" />
    <use
       transform="matrix(1.1859698,0,0,1.1859698,-172.33351,38.605267)"
       id="use3869"
       y="136.259"
       x="262.15601"
       xlink:href="#textext-94368119-7"
       style="fill:#000000;fill-opacity:1;stroke-linecap:butt;stroke-linejoin:round"
       width="100%"
       height="100%" />
  </g>
</svg>
