<?xml version="1.0" encoding="utf-8" standalone="no"?>
<!DOCTYPE svg PUBLIC "-//W3C//DTD SVG 1.1//EN"
  "http://www.w3.org/Graphics/SVG/1.1/DTD/svg11.dtd">
<!-- Created with matplotlib (https://matplotlib.org/) -->
<svg height="132.268268pt" version="1.1" viewBox="0 0 284.815 132.268268" width="284.815pt" xmlns="http://www.w3.org/2000/svg" xmlns:xlink="http://www.w3.org/1999/xlink">
 <metadata>
  <rdf:RDF xmlns:cc="http://creativecommons.org/ns#" xmlns:dc="http://purl.org/dc/elements/1.1/" xmlns:rdf="http://www.w3.org/1999/02/22-rdf-syntax-ns#">
   <cc:Work>
    <dc:type rdf:resource="http://purl.org/dc/dcmitype/StillImage"/>
    <dc:date>2022-03-07T12:45:22.861266</dc:date>
    <dc:format>image/svg+xml</dc:format>
    <dc:creator>
     <cc:Agent>
      <dc:title>Matplotlib v3.3.3, https://matplotlib.org/</dc:title>
     </cc:Agent>
    </dc:creator>
   </cc:Work>
  </rdf:RDF>
 </metadata>
 <defs>
  <style type="text/css">*{stroke-linecap:butt;stroke-linejoin:round;}</style>
 </defs>
 <g id="figure_1">
  <g id="patch_1">
   <path d="M 0 132.268268 
L 284.815 132.268268 
L 284.815 0 
L 0 0 
z
" style="fill:#ffffff;"/>
  </g>
  <g id="axes_1">
   <g id="patch_2">
    <path d="M 7.2 116.118063 
L 260.335 116.118063 
L 260.335 30.685 
L 7.2 30.685 
z
" style="fill:#ffffff;"/>
   </g>
   <g id="matplotlib.axis_1">
    <g id="xtick_1">
     <g id="line2d_1">
      <defs>
       <path d="M 0 0 
L 0 3.5 
" id="m7c57882025" style="stroke:#000000;stroke-width:0.8;"/>
      </defs>
      <g>
       <use style="stroke:#000000;stroke-width:0.8;" x="72.91774" xlink:href="#m7c57882025" y="108.390143"/>
      </g>
     </g>
     <g id="text_1">
      <!-- −1 -->
      <g transform="translate(65.546647 122.988581)scale(0.1 -0.1)">
       <defs>
        <path d="M 10.59375 35.5 
L 73.1875 35.5 
L 73.1875 27.203125 
L 10.59375 27.203125 
z
" id="DejaVuSans-8722"/>
        <path d="M 12.40625 8.296875 
L 28.515625 8.296875 
L 28.515625 63.921875 
L 10.984375 60.40625 
L 10.984375 69.390625 
L 28.421875 72.90625 
L 38.28125 72.90625 
L 38.28125 8.296875 
L 54.390625 8.296875 
L 54.390625 0 
L 12.40625 0 
z
" id="DejaVuSans-49"/>
       </defs>
       <use xlink:href="#DejaVuSans-8722"/>
       <use x="83.789062" xlink:href="#DejaVuSans-49"/>
      </g>
     </g>
    </g>
    <g id="xtick_2">
     <g id="line2d_2">
      <g>
       <use style="stroke:#000000;stroke-width:0.8;" x="133.7675" xlink:href="#m7c57882025" y="108.390143"/>
      </g>
     </g>
    </g>
    <g id="xtick_3">
     <g id="line2d_3">
      <g>
       <use style="stroke:#000000;stroke-width:0.8;" x="194.61726" xlink:href="#m7c57882025" y="108.390143"/>
      </g>
     </g>
     <g id="text_2">
      <!-- 1 -->
      <g transform="translate(191.43601 122.988581)scale(0.1 -0.1)">
       <use xlink:href="#DejaVuSans-49"/>
      </g>
     </g>
    </g>
    <g id="text_3">
     <!-- $x$ -->
     <g transform="translate(268.335 108.390143)scale(0.16 -0.16)">
      <defs>
       <path d="M 7.8125 2.875 
Q 9.578125 1.515625 12.796875 1.515625 
Q 15.921875 1.515625 18.3125 4.515625 
Q 20.703125 7.515625 21.578125 11.078125 
L 26.125 28.8125 
Q 27.203125 33.640625 27.203125 35.40625 
Q 27.203125 37.890625 25.8125 39.75 
Q 24.421875 41.609375 21.921875 41.609375 
Q 18.75 41.609375 15.96875 39.625 
Q 13.1875 37.640625 11.28125 34.59375 
Q 9.375 31.546875 8.59375 28.421875 
Q 8.40625 27.78125 7.8125 27.78125 
L 6.59375 27.78125 
Q 5.8125 27.78125 5.8125 28.71875 
L 5.8125 29 
Q 6.78125 32.71875 9.125 36.25 
Q 11.46875 39.796875 14.859375 41.984375 
Q 18.265625 44.1875 22.125 44.1875 
Q 25.78125 44.1875 28.734375 42.234375 
Q 31.6875 40.28125 32.90625 36.921875 
Q 34.625 39.984375 37.28125 42.078125 
Q 39.9375 44.1875 43.109375 44.1875 
Q 45.265625 44.1875 47.5 43.421875 
Q 49.75 42.671875 51.171875 41.109375 
Q 52.59375 39.546875 52.59375 37.203125 
Q 52.59375 34.671875 50.953125 32.828125 
Q 49.3125 31 46.78125 31 
Q 45.171875 31 44.09375 32.03125 
Q 43.015625 33.0625 43.015625 34.625 
Q 43.015625 36.71875 44.453125 38.296875 
Q 45.90625 39.890625 47.90625 40.1875 
Q 46.09375 41.609375 42.921875 41.609375 
Q 39.703125 41.609375 37.328125 38.625 
Q 34.96875 35.640625 33.984375 31.984375 
L 29.59375 14.3125 
Q 28.515625 10.296875 28.515625 7.71875 
Q 28.515625 5.171875 29.953125 3.34375 
Q 31.390625 1.515625 33.796875 1.515625 
Q 38.484375 1.515625 42.15625 5.640625 
Q 45.84375 9.765625 47.015625 14.703125 
Q 47.21875 15.28125 47.796875 15.28125 
L 49.03125 15.28125 
Q 49.421875 15.28125 49.65625 15.015625 
Q 49.90625 14.75 49.90625 14.40625 
Q 49.90625 14.3125 49.8125 14.109375 
Q 48.390625 8.15625 43.84375 3.515625 
Q 39.3125 -1.125 33.59375 -1.125 
Q 29.9375 -1.125 26.984375 0.84375 
Q 24.03125 2.828125 22.796875 6.203125 
Q 21.234375 3.265625 18.46875 1.0625 
Q 15.71875 -1.125 12.59375 -1.125 
Q 10.453125 -1.125 8.171875 -0.359375 
Q 5.90625 0.390625 4.484375 1.953125 
Q 3.078125 3.515625 3.078125 5.90625 
Q 3.078125 8.25 4.703125 10.171875 
Q 6.34375 12.109375 8.796875 12.109375 
Q 10.453125 12.109375 11.578125 11.109375 
Q 12.703125 10.109375 12.703125 8.5 
Q 12.703125 6.390625 11.296875 4.828125 
Q 9.90625 3.265625 7.8125 2.875 
z
" id="Cmmi10-120"/>
      </defs>
      <use transform="translate(0 0.8125)" xlink:href="#Cmmi10-120"/>
     </g>
    </g>
   </g>
   <g id="matplotlib.axis_2">
    <g id="ytick_1">
     <g id="line2d_4">
      <defs>
       <path d="M 0 0 
L -3.5 0 
" id="m452298da21" style="stroke:#000000;stroke-width:0.8;"/>
      </defs>
      <g>
       <use style="stroke:#000000;stroke-width:0.8;" x="133.7675" xlink:href="#m452298da21" y="47.540383"/>
      </g>
     </g>
     <g id="text_4">
      <!-- 1 -->
      <g transform="translate(120.405 51.339602)scale(0.1 -0.1)">
       <use xlink:href="#DejaVuSans-49"/>
      </g>
     </g>
    </g>
    <g id="text_5">
     <!-- $y$ -->
     <g transform="translate(129.7675 19.325)scale(0.16 -0.16)">
      <defs>
       <path d="M 8.40625 -14.3125 
Q 10.5 -17.921875 15.71875 -17.921875 
Q 20.453125 -17.921875 23.921875 -14.59375 
Q 27.390625 -11.28125 29.515625 -6.5625 
Q 31.640625 -1.859375 32.8125 3.078125 
Q 28.375 -1.125 23.1875 -1.125 
Q 19.234375 -1.125 16.453125 0.234375 
Q 13.671875 1.609375 12.125 4.3125 
Q 10.59375 7.03125 10.59375 10.890625 
Q 10.59375 14.15625 11.46875 17.59375 
Q 12.359375 21.046875 13.9375 25.265625 
Q 15.53125 29.5 16.703125 32.625 
Q 18.015625 36.28125 18.015625 38.625 
Q 18.015625 41.609375 15.828125 41.609375 
Q 11.859375 41.609375 9.296875 37.53125 
Q 6.734375 33.453125 5.515625 28.421875 
Q 5.328125 27.78125 4.6875 27.78125 
L 3.515625 27.78125 
Q 2.6875 27.78125 2.6875 28.71875 
L 2.6875 29 
Q 4.296875 34.96875 7.609375 39.578125 
Q 10.9375 44.1875 16.015625 44.1875 
Q 19.578125 44.1875 22.046875 41.84375 
Q 24.515625 39.5 24.515625 35.890625 
Q 24.515625 34.03125 23.6875 31.984375 
Q 23.25 30.765625 21.6875 26.65625 
Q 20.125 22.5625 19.28125 19.875 
Q 18.453125 17.1875 17.921875 14.59375 
Q 17.390625 12.015625 17.390625 9.421875 
Q 17.390625 6.109375 18.796875 3.8125 
Q 20.21875 1.515625 23.296875 1.515625 
Q 29.5 1.515625 34.421875 9.078125 
L 42 39.890625 
Q 42.328125 41.21875 43.546875 42.15625 
Q 44.78125 43.109375 46.1875 43.109375 
Q 47.40625 43.109375 48.3125 42.328125 
Q 49.21875 41.546875 49.21875 40.28125 
Q 49.21875 39.703125 49.125 39.5 
L 39.203125 -0.296875 
Q 37.890625 -5.421875 34.375 -10.109375 
Q 30.859375 -14.796875 25.90625 -17.65625 
Q 20.953125 -20.515625 15.578125 -20.515625 
Q 12.984375 -20.515625 10.4375 -19.5 
Q 7.90625 -18.5 6.34375 -16.5 
Q 4.78125 -14.5 4.78125 -11.8125 
Q 4.78125 -9.078125 6.390625 -7.078125 
Q 8.015625 -5.078125 10.6875 -5.078125 
Q 12.3125 -5.078125 13.40625 -6.078125 
Q 14.5 -7.078125 14.5 -8.6875 
Q 14.5 -10.984375 12.78125 -12.6875 
Q 11.078125 -14.40625 8.796875 -14.40625 
Q 8.6875 -14.359375 8.59375 -14.328125 
Q 8.5 -14.3125 8.40625 -14.3125 
z
" id="Cmmi10-121"/>
      </defs>
      <use transform="translate(0 0.8125)" xlink:href="#Cmmi10-121"/>
     </g>
    </g>
   </g>
   <g id="patch_3">
    <path clip-path="url(#p056f2fee1e)" d="M 164.19238 102.305167 
Q 148.97994 102.305167 136.003568 102.305167 
" style="fill:none;stroke:#808080;stroke-linecap:round;stroke-width:2;"/>
    <path clip-path="url(#p056f2fee1e)" d="M 140.003568 104.305167 
L 136.003568 102.305167 
L 140.003568 100.305167 
L 140.003568 104.305167 
z
" style="fill:#808080;stroke:#808080;stroke-linecap:round;stroke-width:2;"/>
   </g>
   <g id="patch_4">
    <path clip-path="url(#p056f2fee1e)" d="M 103.34262 102.305167 
Q 118.55506 102.305167 131.531432 102.305167 
" style="fill:none;stroke:#808080;stroke-linecap:round;stroke-width:2;"/>
    <path clip-path="url(#p056f2fee1e)" d="M 127.531432 100.305167 
L 131.531432 102.305167 
L 127.531432 104.305167 
L 127.531432 100.305167 
z
" style="fill:#808080;stroke:#808080;stroke-linecap:round;stroke-width:2;"/>
   </g>
   <g id="line2d_5">
    <path clip-path="url(#p056f2fee1e)" d="M 12.067981 80.724878 
L 13.463765 80.117494 
L 14.872129 79.505437 
L 15.644757 79.17007 
L 17.454588 78.385821 
L 18.057654 78.124959 
L 18.833287 77.789827 
L 20.59847 77.028868 
L 22.254344 76.317473 
L 22.62009 76.16069 
L 23.90201 75.612244 
L 26.025053 74.707896 
L 26.322887 74.581451 
L 28.533968 73.646271 
L 29.038757 73.433686 
L 30.170976 72.958182 
L 31.376976 72.453777 
L 32.981465 71.786227 
L 34.277952 71.249923 
L 34.709021 71.072248 
L 36.813502 70.209635 
L 37.786264 69.813709 
L 38.706392 69.44091 
L 39.87579 68.969583 
L 42.031762 68.108169 
L 42.30519 67.999646 
L 43.626378 67.477646 
L 45.546252 66.726352 
L 46.130796 66.499366 
L 47.064386 66.138596 
L 48.411067 65.622082 
L 50.196555 64.944571 
L 50.922421 64.671589 
L 52.221527 64.186659 
L 54.247137 63.440107 
L 54.946777 63.185034 
L 55.674602 62.921235 
L 56.976117 62.453513 
L 58.766898 61.818569 
L 59.59488 61.528446 
L 60.512424 61.20954 
L 62.005672 60.696488 
L 62.946934 60.376942 
L 65.051651 59.673466 
L 65.320343 59.584776 
L 67.537282 58.862883 
L 68.359651 58.599648 
L 69.854106 58.127718 
L 70.301731 57.987999 
L 72.313579 57.369506 
L 72.928979 57.183452 
L 74.191128 56.806534 
L 75.928961 56.297983 
L 76.900528 56.019012 
L 78.65243 55.525824 
L 79.652309 55.250097 
L 81.141907 54.847197 
L 82.028594 54.611893 
L 83.165909 54.315077 
L 83.981666 54.105674 
L 85.259326 53.783621 
L 86.210425 53.548618 
L 87.780891 53.169524 
L 89.121202 52.854898 
L 90.740437 52.485877 
L 92.012788 52.204513 
L 92.565579 52.084649 
L 93.847793 51.812215 
L 95.624143 51.447814 
L 96.182303 51.336462 
L 97.596267 51.061175 
L 98.936022 50.80939 
L 100.394592 50.54538 
L 101.599167 50.335348 
L 102.882241 50.119651 
L 103.227952 50.062957 
L 104.62229 49.840455 
L 106.702876 49.526923 
L 107.000694 49.483864 
L 108.40059 49.287615 
L 110.336436 49.033018 
L 111.474312 48.892516 
L 112.438273 48.778814 
L 113.102088 48.703366 
L 114.831121 48.517802 
L 116.059691 48.395608 
L 117.253103 48.284628 
L 118.444796 48.181421 
L 119.651324 48.084705 
L 121.520714 47.950356 
L 121.658147 47.941224 
L 123.657811 47.819938 
L 124.644521 47.76809 
L 125.63288 47.721466 
L 127.405069 47.651198 
L 128.230192 47.624331 
L 129.29205 47.59523 
L 130.186846 47.575494 
L 132.030354 47.548648 
L 132.7498 47.54322 
" style="fill:none;stroke:#0000ff;stroke-linecap:square;stroke-width:1.5;"/>
   </g>
   <g id="line2d_6">
    <path clip-path="url(#p056f2fee1e)" d="M 134.628907 47.542416 
L 135.563623 47.549219 
L 136.491538 47.560706 
L 138.008856 47.589643 
L 138.728934 47.607783 
L 140.534314 47.665723 
L 141.490896 47.703635 
L 142.907652 47.768947 
L 143.772176 47.814168 
L 145.154944 47.894937 
L 146.757186 48.001486 
L 148.194121 48.108842 
L 149.578398 48.22278 
L 150.166789 48.274327 
L 152.081954 48.45494 
L 152.4311 48.489977 
L 154.222343 48.67992 
L 155.566466 48.833609 
L 156.382213 48.931528 
L 157.156016 49.027642 
L 158.941453 49.261362 
L 159.896319 49.393167 
L 161.445721 49.617077 
L 162.451374 49.769019 
L 163.750234 49.972917 
L 164.620417 50.114322 
L 166.099423 50.363445 
L 167.135053 50.54443 
L 168.025711 50.704364 
L 170.295415 51.129696 
L 171.028525 51.272486 
L 172.860903 51.640816 
L 173.254356 51.72202 
L 175.16915 52.12779 
L 175.801647 52.265653 
L 177.761759 52.704833 
L 178.646231 52.908867 
L 179.072095 53.008395 
L 180.655334 53.385702 
L 182.432254 53.822698 
L 182.868033 53.932031 
L 184.165172 54.262457 
L 185.90779 54.717989 
L 186.911696 54.98639 
L 187.635325 55.182536 
L 190.002201 55.839548 
L 190.368415 55.943293 
L 191.935182 56.393366 
L 192.495804 56.556839 
L 194.823587 57.249059 
L 195.783912 57.540857 
L 197.305177 58.010393 
L 197.673548 58.125419 
L 199.175938 58.599836 
L 200.161356 58.915559 
L 201.656816 59.401464 
L 202.899701 59.811399 
L 204.649992 60.397873 
L 204.957891 60.502133 
L 206.130917 60.902287 
L 208.075009 61.57556 
L 209.205445 61.9727 
L 210.087042 62.285238 
L 210.87749 62.567529 
L 213.142375 63.386946 
L 213.919558 63.671649 
L 214.51788 63.892028 
L 216.648462 64.68505 
L 217.497807 65.004695 
L 218.725354 65.470108 
L 219.924052 65.928404 
L 221.222784 66.429089 
L 222.174701 66.798734 
L 223.248842 67.218473 
L 224.830452 67.841442 
L 226.589811 68.541056 
L 226.737496 68.600091 
L 228.99841 69.50958 
L 230.241027 70.01385 
L 231.113777 70.369808 
L 232.56943 70.96666 
L 233.912833 71.520839 
L 234.227095 71.650925 
L 236.351363 72.534491 
L 237.405201 72.975443 
L 238.60271 73.478494 
L 239.577587 73.889507 
L 240.680262 74.355928 
L 241.728451 74.80073 
L 242.965719 75.327456 
L 244.254969 75.878133 
L 246.107978 76.672592 
L 246.564761 76.868932 
L 248.382676 77.652109 
L 248.974221 77.907521 
L 250.928791 78.7532 
L 251.96201 79.201208 
L 253.622616 79.922434 
L 254.717647 80.398696 
L 255.467019 80.724878 
" style="fill:none;stroke:#0000ff;stroke-linecap:square;stroke-width:1.5;"/>
   </g>
   <g id="line2d_7"/>
   <g id="patch_5">
    <path d="M 133.7675 116.118063 
L 133.7675 30.685 
" style="fill:none;stroke:#000000;stroke-linecap:square;stroke-linejoin:miter;stroke-width:0.8;"/>
   </g>
   <g id="patch_6">
    <path d="M 7.2 108.390143 
L 260.335 108.390143 
" style="fill:none;stroke:#000000;stroke-linecap:square;stroke-linejoin:miter;stroke-width:0.8;"/>
   </g>
   <g id="text_6">
    <!-- $y=\dfrac{\sin{x}}{x}$ -->
    <g style="fill:#0000ff;" transform="translate(173.31726 39.330431)scale(0.12 -0.12)">
     <defs>
      <path d="M 7.515625 13.28125 
Q 6.6875 13.28125 6.140625 13.90625 
Q 5.609375 14.546875 5.609375 15.28125 
Q 5.609375 16.109375 6.140625 16.6875 
Q 6.6875 17.28125 7.515625 17.28125 
L 70.3125 17.28125 
Q 71.046875 17.28125 71.578125 16.6875 
Q 72.125 16.109375 72.125 15.28125 
Q 72.125 14.546875 71.578125 13.90625 
Q 71.046875 13.28125 70.3125 13.28125 
z
M 7.515625 32.71875 
Q 6.6875 32.71875 6.140625 33.296875 
Q 5.609375 33.890625 5.609375 34.71875 
Q 5.609375 35.453125 6.140625 36.078125 
Q 6.6875 36.71875 7.515625 36.71875 
L 70.3125 36.71875 
Q 71.046875 36.71875 71.578125 36.078125 
Q 72.125 35.453125 72.125 34.71875 
Q 72.125 33.890625 71.578125 33.296875 
Q 71.046875 32.71875 70.3125 32.71875 
z
" id="Cmr10-61"/>
      <path d="M 3.328125 -0.296875 
L 3.328125 16.015625 
Q 3.328125 16.796875 4.203125 16.796875 
L 5.421875 16.796875 
Q 6 16.796875 6.203125 16.015625 
Q 8.984375 1.515625 19.671875 1.515625 
Q 24.421875 1.515625 27.609375 3.65625 
Q 30.8125 5.8125 30.8125 10.296875 
Q 30.8125 13.53125 28.3125 15.796875 
Q 25.828125 18.0625 22.40625 18.890625 
L 15.71875 20.21875 
Q 12.359375 20.953125 9.59375 22.453125 
Q 6.84375 23.96875 5.078125 26.484375 
Q 3.328125 29 3.328125 32.328125 
Q 3.328125 36.71875 5.640625 39.515625 
Q 7.953125 42.328125 11.65625 43.578125 
Q 15.375 44.828125 19.671875 44.828125 
Q 24.8125 44.828125 28.609375 42.09375 
L 31.5 44.578125 
Q 31.5 44.828125 31.984375 44.828125 
L 32.71875 44.828125 
Q 33.015625 44.828125 33.25 44.546875 
Q 33.5 44.28125 33.5 44 
L 33.5 30.90625 
Q 33.5 29.984375 32.71875 29.984375 
L 31.5 29.984375 
Q 30.609375 29.984375 30.609375 30.90625 
Q 30.609375 36.140625 27.703125 39.3125 
Q 24.8125 42.484375 19.578125 42.484375 
Q 15.09375 42.484375 11.796875 40.8125 
Q 8.5 39.15625 8.5 35.109375 
Q 8.5 32.328125 10.859375 30.546875 
Q 13.234375 28.765625 16.40625 27.984375 
L 23.1875 26.703125 
Q 26.609375 25.921875 29.5625 24.0625 
Q 32.515625 22.21875 34.25 19.375 
Q 35.984375 16.546875 35.984375 12.984375 
Q 35.984375 9.375 34.734375 6.703125 
Q 33.5 4.046875 31.265625 2.28125 
Q 29.046875 0.53125 26.015625 -0.296875 
Q 23 -1.125 19.671875 -1.125 
Q 13.421875 -1.125 8.984375 3.078125 
L 5.328125 -0.875 
Q 5.328125 -1.125 4.78125 -1.125 
L 4.203125 -1.125 
Q 3.328125 -1.125 3.328125 -0.296875 
z
" id="Cmr10-115"/>
      <path d="M 3.078125 0 
L 3.078125 3.515625 
Q 6.5 3.515625 8.6875 4.046875 
Q 10.890625 4.59375 10.890625 6.6875 
L 10.890625 33.984375 
Q 10.890625 37.84375 9.390625 38.71875 
Q 7.90625 39.59375 3.515625 39.59375 
L 3.515625 43.109375 
L 17.921875 44.1875 
L 17.921875 6.6875 
Q 17.921875 4.59375 19.828125 4.046875 
Q 21.734375 3.515625 24.90625 3.515625 
L 24.90625 0 
z
M 7.328125 61.375 
Q 7.328125 63.578125 8.984375 65.234375 
Q 10.640625 66.890625 12.796875 66.890625 
Q 14.203125 66.890625 15.515625 66.15625 
Q 16.84375 65.4375 17.578125 64.109375 
Q 18.3125 62.796875 18.3125 61.375 
Q 18.3125 59.234375 16.640625 57.5625 
Q 14.984375 55.90625 12.796875 55.90625 
Q 10.640625 55.90625 8.984375 57.5625 
Q 7.328125 59.234375 7.328125 61.375 
z
" id="Cmr10-105"/>
      <path d="M 2.984375 0 
L 2.984375 3.515625 
Q 6.390625 3.515625 8.59375 4.046875 
Q 10.796875 4.59375 10.796875 6.6875 
L 10.796875 33.984375 
Q 10.796875 36.671875 9.984375 37.859375 
Q 9.1875 39.0625 7.671875 39.328125 
Q 6.15625 39.59375 2.984375 39.59375 
L 2.984375 43.109375 
L 17.484375 44.1875 
L 17.484375 34.421875 
Q 19.484375 38.71875 23.40625 41.453125 
Q 27.34375 44.1875 31.984375 44.1875 
Q 38.921875 44.1875 42.40625 40.859375 
Q 45.90625 37.546875 45.90625 30.71875 
L 45.90625 6.6875 
Q 45.90625 4.59375 48.09375 4.046875 
Q 50.296875 3.515625 53.71875 3.515625 
L 53.71875 0 
L 30.8125 0 
L 30.8125 3.515625 
Q 34.234375 3.515625 36.421875 4.046875 
Q 38.625 4.59375 38.625 6.6875 
L 38.625 30.421875 
Q 38.625 35.296875 37.203125 38.453125 
Q 35.796875 41.609375 31.390625 41.609375 
Q 25.59375 41.609375 21.84375 36.96875 
Q 18.109375 32.328125 18.109375 26.421875 
L 18.109375 6.6875 
Q 18.109375 4.59375 20.3125 4.046875 
Q 22.515625 3.515625 25.875 3.515625 
L 25.875 0 
z
" id="Cmr10-110"/>
     </defs>
     <use transform="translate(0 0.484375)" xlink:href="#Cmmi10-121"/>
     <use transform="translate(66.582031 0.484375)" xlink:href="#Cmr10-61"/>
     <use transform="translate(161.826172 39.109375)" xlink:href="#Cmr10-115"/>
     <use transform="translate(201.230469 39.109375)" xlink:href="#Cmr10-105"/>
     <use transform="translate(228.916016 39.109375)" xlink:href="#Cmr10-110"/>
     <use transform="translate(284.433594 39.109375)" xlink:href="#Cmmi10-120"/>
     <use transform="translate(222.826172 -37.453125)" xlink:href="#Cmmi10-120"/>
     <path d="M 161.826172 12.984375 
L 161.826172 19.234375 
L 341.513672 19.234375 
L 341.513672 12.984375 
L 161.826172 12.984375 
z
"/>
    </g>
   </g>
   <g id="patch_7">
    <path clip-path="url(#p056f2fee1e)" d="M 133.7675 49.365876 
C 134.251626 49.365876 134.715989 49.173531 135.058318 48.831202 
C 135.400647 48.488873 135.592993 48.02451 135.592993 47.540383 
C 135.592993 47.056257 135.400647 46.591894 135.058318 46.249565 
C 134.715989 45.907236 134.251626 45.714891 133.7675 45.714891 
C 133.283374 45.714891 132.819011 45.907236 132.476682 46.249565 
C 132.134353 46.591894 131.942007 47.056257 131.942007 47.540383 
C 131.942007 48.02451 132.134353 48.488873 132.476682 48.831202 
C 132.819011 49.173531 133.283374 49.365876 133.7675 49.365876 
z
" style="fill:#ffffff;stroke:#0000ff;stroke-linejoin:miter;"/>
   </g>
  </g>
 </g>
 <defs>
  <clipPath id="p056f2fee1e">
   <rect height="85.433063" width="253.135" x="7.2" y="30.685"/>
  </clipPath>
 </defs>
</svg>
