<?xml version="1.0" encoding="utf-8" standalone="no"?>
<!DOCTYPE svg PUBLIC "-//W3C//DTD SVG 1.1//EN"
  "http://www.w3.org/Graphics/SVG/1.1/DTD/svg11.dtd">
<!-- Created with matplotlib (https://matplotlib.org/) -->
<svg height="286.951046pt" version="1.1" viewBox="0 0 427.673143 286.951046" width="427.673143pt" xmlns="http://www.w3.org/2000/svg" xmlns:xlink="http://www.w3.org/1999/xlink">
 <metadata>
  <rdf:RDF xmlns:cc="http://creativecommons.org/ns#" xmlns:dc="http://purl.org/dc/elements/1.1/" xmlns:rdf="http://www.w3.org/1999/02/22-rdf-syntax-ns#">
   <cc:Work>
    <dc:type rdf:resource="http://purl.org/dc/dcmitype/StillImage"/>
    <dc:date>2022-03-16T17:25:32.468835</dc:date>
    <dc:format>image/svg+xml</dc:format>
    <dc:creator>
     <cc:Agent>
      <dc:title>Matplotlib v3.3.3, https://matplotlib.org/</dc:title>
     </cc:Agent>
    </dc:creator>
   </cc:Work>
  </rdf:RDF>
 </metadata>
 <defs>
  <style type="text/css">*{stroke-linecap:butt;stroke-linejoin:round;}</style>
 </defs>
 <g id="figure_1">
  <g id="patch_1">
   <path d="M 0 286.951046 
L 427.673143 286.951046 
L 427.673143 0 
L 0 0 
z
" style="fill:#ffffff;"/>
  </g>
  <g id="axes_1">
   <g id="patch_2">
    <path d="M 10.194681 278.221102 
L 403.193143 278.221102 
L 403.193143 30.685 
L 10.194681 30.685 
z
" style="fill:#ffffff;"/>
   </g>
   <g id="matplotlib.axis_1">
    <g id="xtick_1">
     <g id="line2d_1">
      <defs>
       <path d="M 0 0 
L 0 3.5 
" id="m69f57a86f8" style="stroke:#000000;stroke-width:0.8;"/>
      </defs>
      <g>
       <use style="stroke:#000000;stroke-width:0.8;" x="17.752344" xlink:href="#m69f57a86f8" y="154.658725"/>
      </g>
     </g>
     <g id="text_1">
      <!-- −10 -->
      <g transform="translate(7.2 169.257162)scale(0.1 -0.1)">
       <defs>
        <path d="M 10.59375 35.5 
L 73.1875 35.5 
L 73.1875 27.203125 
L 10.59375 27.203125 
z
" id="DejaVuSans-8722"/>
        <path d="M 12.40625 8.296875 
L 28.515625 8.296875 
L 28.515625 63.921875 
L 10.984375 60.40625 
L 10.984375 69.390625 
L 28.421875 72.90625 
L 38.28125 72.90625 
L 38.28125 8.296875 
L 54.390625 8.296875 
L 54.390625 0 
L 12.40625 0 
z
" id="DejaVuSans-49"/>
        <path d="M 31.78125 66.40625 
Q 24.171875 66.40625 20.328125 58.90625 
Q 16.5 51.421875 16.5 36.375 
Q 16.5 21.390625 20.328125 13.890625 
Q 24.171875 6.390625 31.78125 6.390625 
Q 39.453125 6.390625 43.28125 13.890625 
Q 47.125 21.390625 47.125 36.375 
Q 47.125 51.421875 43.28125 58.90625 
Q 39.453125 66.40625 31.78125 66.40625 
z
M 31.78125 74.21875 
Q 44.046875 74.21875 50.515625 64.515625 
Q 56.984375 54.828125 56.984375 36.375 
Q 56.984375 17.96875 50.515625 8.265625 
Q 44.046875 -1.421875 31.78125 -1.421875 
Q 19.53125 -1.421875 13.0625 8.265625 
Q 6.59375 17.96875 6.59375 36.375 
Q 6.59375 54.828125 13.0625 64.515625 
Q 19.53125 74.21875 31.78125 74.21875 
z
" id="DejaVuSans-48"/>
       </defs>
       <use xlink:href="#DejaVuSans-8722"/>
       <use x="83.789062" xlink:href="#DejaVuSans-49"/>
       <use x="147.412109" xlink:href="#DejaVuSans-48"/>
      </g>
     </g>
    </g>
    <g id="xtick_2">
     <g id="line2d_2">
      <g>
       <use style="stroke:#000000;stroke-width:0.8;" x="395.63548" xlink:href="#m69f57a86f8" y="154.658725"/>
      </g>
     </g>
     <g id="text_2">
      <!-- 10 -->
      <g transform="translate(389.27298 169.257162)scale(0.1 -0.1)">
       <use xlink:href="#DejaVuSans-49"/>
       <use x="63.623047" xlink:href="#DejaVuSans-48"/>
      </g>
     </g>
    </g>
    <g id="text_3">
     <!-- $x$ -->
     <g transform="translate(411.193143 154.658725)scale(0.16 -0.16)">
      <defs>
       <path d="M 7.8125 2.875 
Q 9.578125 1.515625 12.796875 1.515625 
Q 15.921875 1.515625 18.3125 4.515625 
Q 20.703125 7.515625 21.578125 11.078125 
L 26.125 28.8125 
Q 27.203125 33.640625 27.203125 35.40625 
Q 27.203125 37.890625 25.8125 39.75 
Q 24.421875 41.609375 21.921875 41.609375 
Q 18.75 41.609375 15.96875 39.625 
Q 13.1875 37.640625 11.28125 34.59375 
Q 9.375 31.546875 8.59375 28.421875 
Q 8.40625 27.78125 7.8125 27.78125 
L 6.59375 27.78125 
Q 5.8125 27.78125 5.8125 28.71875 
L 5.8125 29 
Q 6.78125 32.71875 9.125 36.25 
Q 11.46875 39.796875 14.859375 41.984375 
Q 18.265625 44.1875 22.125 44.1875 
Q 25.78125 44.1875 28.734375 42.234375 
Q 31.6875 40.28125 32.90625 36.921875 
Q 34.625 39.984375 37.28125 42.078125 
Q 39.9375 44.1875 43.109375 44.1875 
Q 45.265625 44.1875 47.5 43.421875 
Q 49.75 42.671875 51.171875 41.109375 
Q 52.59375 39.546875 52.59375 37.203125 
Q 52.59375 34.671875 50.953125 32.828125 
Q 49.3125 31 46.78125 31 
Q 45.171875 31 44.09375 32.03125 
Q 43.015625 33.0625 43.015625 34.625 
Q 43.015625 36.71875 44.453125 38.296875 
Q 45.90625 39.890625 47.90625 40.1875 
Q 46.09375 41.609375 42.921875 41.609375 
Q 39.703125 41.609375 37.328125 38.625 
Q 34.96875 35.640625 33.984375 31.984375 
L 29.59375 14.3125 
Q 28.515625 10.296875 28.515625 7.71875 
Q 28.515625 5.171875 29.953125 3.34375 
Q 31.390625 1.515625 33.796875 1.515625 
Q 38.484375 1.515625 42.15625 5.640625 
Q 45.84375 9.765625 47.015625 14.703125 
Q 47.21875 15.28125 47.796875 15.28125 
L 49.03125 15.28125 
Q 49.421875 15.28125 49.65625 15.015625 
Q 49.90625 14.75 49.90625 14.40625 
Q 49.90625 14.3125 49.8125 14.109375 
Q 48.390625 8.15625 43.84375 3.515625 
Q 39.3125 -1.125 33.59375 -1.125 
Q 29.9375 -1.125 26.984375 0.84375 
Q 24.03125 2.828125 22.796875 6.203125 
Q 21.234375 3.265625 18.46875 1.0625 
Q 15.71875 -1.125 12.59375 -1.125 
Q 10.453125 -1.125 8.171875 -0.359375 
Q 5.90625 0.390625 4.484375 1.953125 
Q 3.078125 3.515625 3.078125 5.90625 
Q 3.078125 8.25 4.703125 10.171875 
Q 6.34375 12.109375 8.796875 12.109375 
Q 10.453125 12.109375 11.578125 11.109375 
Q 12.703125 10.109375 12.703125 8.5 
Q 12.703125 6.390625 11.296875 4.828125 
Q 9.90625 3.265625 7.8125 2.875 
z
" id="Cmmi10-120"/>
      </defs>
      <use transform="translate(0 0.8125)" xlink:href="#Cmmi10-120"/>
     </g>
    </g>
   </g>
   <g id="matplotlib.axis_2">
    <g id="ytick_1">
     <g id="line2d_3">
      <defs>
       <path d="M 0 0 
L -3.5 0 
" id="m1652226f22" style="stroke:#000000;stroke-width:0.8;"/>
      </defs>
      <g>
       <use style="stroke:#000000;stroke-width:0.8;" x="206.693912" xlink:href="#m1652226f22" y="35.44531"/>
      </g>
     </g>
     <g id="text_4">
      <!-- 1 -->
      <g transform="translate(193.331412 39.244528)scale(0.1 -0.1)">
       <use xlink:href="#DejaVuSans-49"/>
      </g>
     </g>
    </g>
    <g id="ytick_2">
     <g id="line2d_4">
      <g>
       <use style="stroke:#000000;stroke-width:0.8;" x="206.693912" xlink:href="#m1652226f22" y="273.87214"/>
      </g>
     </g>
     <g id="text_5">
      <!-- −1 -->
      <g transform="translate(184.951724 277.671358)scale(0.1 -0.1)">
       <use xlink:href="#DejaVuSans-8722"/>
       <use x="83.789062" xlink:href="#DejaVuSans-49"/>
      </g>
     </g>
    </g>
    <g id="text_6">
     <!-- $y$ -->
     <g transform="translate(202.693912 19.325)scale(0.16 -0.16)">
      <defs>
       <path d="M 8.40625 -14.3125 
Q 10.5 -17.921875 15.71875 -17.921875 
Q 20.453125 -17.921875 23.921875 -14.59375 
Q 27.390625 -11.28125 29.515625 -6.5625 
Q 31.640625 -1.859375 32.8125 3.078125 
Q 28.375 -1.125 23.1875 -1.125 
Q 19.234375 -1.125 16.453125 0.234375 
Q 13.671875 1.609375 12.125 4.3125 
Q 10.59375 7.03125 10.59375 10.890625 
Q 10.59375 14.15625 11.46875 17.59375 
Q 12.359375 21.046875 13.9375 25.265625 
Q 15.53125 29.5 16.703125 32.625 
Q 18.015625 36.28125 18.015625 38.625 
Q 18.015625 41.609375 15.828125 41.609375 
Q 11.859375 41.609375 9.296875 37.53125 
Q 6.734375 33.453125 5.515625 28.421875 
Q 5.328125 27.78125 4.6875 27.78125 
L 3.515625 27.78125 
Q 2.6875 27.78125 2.6875 28.71875 
L 2.6875 29 
Q 4.296875 34.96875 7.609375 39.578125 
Q 10.9375 44.1875 16.015625 44.1875 
Q 19.578125 44.1875 22.046875 41.84375 
Q 24.515625 39.5 24.515625 35.890625 
Q 24.515625 34.03125 23.6875 31.984375 
Q 23.25 30.765625 21.6875 26.65625 
Q 20.125 22.5625 19.28125 19.875 
Q 18.453125 17.1875 17.921875 14.59375 
Q 17.390625 12.015625 17.390625 9.421875 
Q 17.390625 6.109375 18.796875 3.8125 
Q 20.21875 1.515625 23.296875 1.515625 
Q 29.5 1.515625 34.421875 9.078125 
L 42 39.890625 
Q 42.328125 41.21875 43.546875 42.15625 
Q 44.78125 43.109375 46.1875 43.109375 
Q 47.40625 43.109375 48.3125 42.328125 
Q 49.21875 41.546875 49.21875 40.28125 
Q 49.21875 39.703125 49.125 39.5 
L 39.203125 -0.296875 
Q 37.890625 -5.421875 34.375 -10.109375 
Q 30.859375 -14.796875 25.90625 -17.65625 
Q 20.953125 -20.515625 15.578125 -20.515625 
Q 12.984375 -20.515625 10.4375 -19.5 
Q 7.90625 -18.5 6.34375 -16.5 
Q 4.78125 -14.5 4.78125 -11.8125 
Q 4.78125 -9.078125 6.390625 -7.078125 
Q 8.015625 -5.078125 10.6875 -5.078125 
Q 12.3125 -5.078125 13.40625 -6.078125 
Q 14.5 -7.078125 14.5 -8.6875 
Q 14.5 -10.984375 12.78125 -12.6875 
Q 11.078125 -14.40625 8.796875 -14.40625 
Q 8.6875 -14.359375 8.59375 -14.328125 
Q 8.5 -14.3125 8.40625 -14.3125 
z
" id="Cmmi10-121"/>
      </defs>
      <use transform="translate(0 0.8125)" xlink:href="#Cmmi10-121"/>
     </g>
    </g>
   </g>
   <g id="line2d_5">
    <path clip-path="url(#p36ea690af4)" d="M 17.752344 37.805971 
L 19.578772 37.851814 
L 21.474226 37.90081 
L 23.351972 37.950834 
L 25.48898 38.00964 
L 26.43386 38.0363 
L 29.933213 38.138734 
L 30.711408 38.162335 
L 32.949461 38.23196 
L 34.418542 38.279122 
L 36.003151 38.331342 
L 37.694678 38.388687 
L 41.286591 38.516245 
L 41.793535 38.53491 
L 45.206238 38.665093 
L 47.040367 38.738469 
L 48.859585 38.813742 
L 49.127947 38.825063 
L 51.361203 38.921518 
L 54.752993 39.07606 
L 56.193995 39.144836 
L 56.888412 39.178675 
L 58.608261 39.264499 
L 60.559013 39.365457 
L 63.975724 39.552131 
L 65.983256 39.668061 
L 67.586717 39.764198 
L 69.232952 39.866334 
L 70.134133 39.923777 
L 73.502348 40.148624 
L 75.315539 40.276695 
L 76.842019 40.388585 
L 77.977066 40.474303 
L 80.446337 40.668599 
L 82.349403 40.826069 
L 84.683443 41.029037 
L 85.501029 41.102835 
L 88.753888 41.411298 
L 90.709981 41.608984 
L 91.938697 41.738181 
L 94.427738 42.01254 
L 95.69947 42.15963 
L 97.23797 42.344208 
L 99.225649 42.594043 
L 100.814572 42.803542 
L 103.9935 43.250973 
L 105.645836 43.499642 
L 107.386115 43.774458 
L 108.470272 43.952744 
L 110.025822 44.218588 
L 113.59086 44.876248 
L 114.027738 44.961824 
L 115.578565 45.275063 
L 118.695941 45.952612 
L 120.658774 46.415205 
L 121.26383 46.563872 
L 123.21111 47.063045 
L 126.882388 48.098418 
L 128.487275 48.594125 
L 129.29167 48.853392 
L 131.316122 49.540128 
L 132.698993 50.039331 
L 135.343837 51.069129 
L 137.118668 51.820963 
L 139.798623 53.060447 
L 140.948312 53.634493 
L 143.737525 55.145779 
L 144.52142 55.603427 
L 146.442442 56.792415 
L 149.557278 58.947675 
L 151.509613 60.462473 
L 152.222918 61.051142 
L 153.689124 62.325424 
L 155.794276 64.320026 
L 158.669213 67.40335 
L 160.440926 69.54171 
L 162.49937 72.289634 
L 164.645419 75.498578 
L 166.572771 78.723901 
L 167.74582 80.866005 
L 169.484708 84.319905 
L 171.588316 88.997732 
L 173.878124 94.806399 
L 176.000813 100.966601 
L 177.63194 106.281435 
L 178.805386 110.453125 
L 179.978833 114.941918 
L 180.145793 115.607726 
L 181.80708 122.623428 
L 183.468367 130.396626 
L 184.841887 137.44145 
L 185.814789 142.789116 
L 186.787691 148.443861 
L 187.757816 154.394404 
L 189.229987 164.023325 
L 190.702159 174.358767 
L 191.716571 181.865998 
L 193.560979 196.204001 
L 196.985367 224.06966 
L 197.934776 231.695055 
L 199.218215 241.599115 
L 199.902505 246.591884 
L 200.586796 251.318529 
L 201.271086 255.726446 
L 201.955376 259.763116 
L 202.513435 262.74471 
L 203.071494 265.418959 
L 203.959599 268.981169 
L 204.403651 270.419627 
L 204.847703 271.617201 
L 205.378073 272.721328 
L 205.908443 273.460793 
" style="fill:none;stroke:#0000ff;stroke-linecap:square;stroke-width:1.5;"/>
   </g>
   <g id="line2d_6">
    <path clip-path="url(#p36ea690af4)" d="M 207.803417 273.0528 
L 208.637652 271.375221 
L 209.228167 269.658503 
L 209.818683 267.524426 
L 210.409198 264.996316 
L 210.999713 262.100974 
L 211.695795 258.25686 
L 212.391877 253.995802 
L 213.087959 249.37235 
L 213.784041 244.441977 
L 214.901978 236.019092 
L 216.019915 227.16331 
L 216.719829 221.487432 
L 218.537102 206.61824 
L 219.775695 196.612164 
L 221.014287 186.880112 
L 221.9789 179.557921 
L 222.943513 172.499239 
L 224.168003 163.954368 
L 225.392493 155.899101 
L 226.364862 149.858183 
L 227.70678 142.03594 
L 229.048698 134.795432 
L 230.560664 127.302401 
L 231.697855 122.104828 
L 233.036768 116.435831 
L 234.375682 111.220348 
L 235.621159 106.745019 
L 236.866635 102.604042 
L 237.603667 100.300274 
L 239.855889 93.875631 
L 241.325548 90.135049 
L 243.665105 84.820478 
L 246.409201 79.44887 
L 248.229434 76.323349 
L 249.630111 74.125404 
L 252.232165 70.461985 
L 253.74974 68.548323 
L 255.912486 66.068481 
L 257.386863 64.527183 
L 259.612612 62.403055 
L 261.084745 61.118541 
L 262.14 60.251313 
L 265.352014 57.857401 
L 265.678626 57.63292 
L 268.966242 55.544286 
L 269.786065 55.068055 
L 272.086329 53.816323 
L 275.027001 52.379057 
L 276.037283 51.92308 
L 277.624912 51.242024 
L 279.655785 50.429366 
L 281.619904 49.700428 
L 283.246941 49.135342 
L 285.981702 48.257117 
L 287.566376 47.785681 
L 289.128138 47.345637 
L 291.094042 46.823862 
L 292.513326 46.467872 
L 294.605186 45.972431 
L 297.827451 45.271301 
L 298.880564 45.057083 
L 300.389486 44.76199 
L 302.989326 44.284105 
L 303.578857 44.180795 
L 307.027244 43.61086 
L 308.119691 43.441775 
L 310.145294 43.141704 
L 312.575127 42.80329 
L 313.052552 42.739397 
L 316.814053 42.263609 
L 318.706575 42.041477 
L 320.401459 41.851546 
L 320.650617 41.824312 
L 323.708487 41.503632 
L 326.133303 41.266086 
L 326.951972 41.189007 
L 328.277883 41.067354 
L 331.182065 40.813938 
L 332.588568 40.697279 
L 334.359275 40.555701 
L 336.640357 40.381542 
L 339.240671 40.193583 
L 340.845263 40.082869 
L 341.81852 40.017581 
L 344.332227 39.855159 
L 346.615866 39.714945 
L 347.671303 39.652379 
L 349.696649 39.536083 
L 352.651935 39.374807 
L 354.465236 39.280503 
L 356.587412 39.174361 
L 357.698431 39.120533 
L 358.651372 39.075282 
L 362.289578 38.909949 
L 363.88988 38.840765 
L 365.943604 38.754961 
L 366.472492 38.733388 
L 369.380347 38.618446 
L 371.284793 38.546389 
L 372.475186 38.502584 
L 375.441728 38.397356 
L 376.647008 38.356143 
L 378.523222 38.293678 
L 380.636909 38.225676 
L 382.624248 38.163928 
L 384.801607 38.0986 
L 386.871148 38.038657 
L 388.761156 37.985665 
L 390.226264 37.945692 
L 392.357528 37.889202 
L 394.272443 37.840058 
L 395.63548 37.805971 
" style="fill:none;stroke:#0000ff;stroke-linecap:square;stroke-width:1.5;"/>
   </g>
   <g id="line2d_7">
    <path clip-path="url(#p36ea690af4)" d="M 17.752344 35.44531 
L 395.63548 35.44531 
L 395.63548 35.44531 
" style="fill:none;stroke:#d3d3d3;stroke-dasharray:3.7,1.6;stroke-dashoffset:0;"/>
   </g>
   <g id="patch_3">
    <path d="M 206.693912 278.221102 
L 206.693912 30.685 
" style="fill:none;stroke:#000000;stroke-linecap:square;stroke-linejoin:miter;stroke-width:0.8;"/>
   </g>
   <g id="patch_4">
    <path d="M 10.194681 154.658725 
L 403.193143 154.658725 
" style="fill:none;stroke:#000000;stroke-linecap:square;stroke-linejoin:miter;stroke-width:0.8;"/>
   </g>
   <g id="text_7">
    <!-- $y=\dfrac{x^2-1}{x^2+1}$ -->
    <g style="fill:#0000ff;" transform="translate(274.644696 97.272017)scale(0.12 -0.12)">
     <defs>
      <path d="M 7.515625 13.28125 
Q 6.6875 13.28125 6.140625 13.90625 
Q 5.609375 14.546875 5.609375 15.28125 
Q 5.609375 16.109375 6.140625 16.6875 
Q 6.6875 17.28125 7.515625 17.28125 
L 70.3125 17.28125 
Q 71.046875 17.28125 71.578125 16.6875 
Q 72.125 16.109375 72.125 15.28125 
Q 72.125 14.546875 71.578125 13.90625 
Q 71.046875 13.28125 70.3125 13.28125 
z
M 7.515625 32.71875 
Q 6.6875 32.71875 6.140625 33.296875 
Q 5.609375 33.890625 5.609375 34.71875 
Q 5.609375 35.453125 6.140625 36.078125 
Q 6.6875 36.71875 7.515625 36.71875 
L 70.3125 36.71875 
Q 71.046875 36.71875 71.578125 36.078125 
Q 72.125 35.453125 72.125 34.71875 
Q 72.125 33.890625 71.578125 33.296875 
Q 71.046875 32.71875 70.3125 32.71875 
z
" id="Cmr10-61"/>
      <path d="M 4.984375 0 
L 4.984375 2.6875 
Q 4.984375 2.9375 5.171875 3.21875 
L 20.703125 20.40625 
Q 24.21875 24.21875 26.40625 26.796875 
Q 28.609375 29.390625 30.75 32.765625 
Q 32.90625 36.140625 34.15625 39.625 
Q 35.40625 43.109375 35.40625 47.015625 
Q 35.40625 51.125 33.890625 54.859375 
Q 32.375 58.59375 29.375 60.84375 
Q 26.375 63.09375 22.125 63.09375 
Q 17.78125 63.09375 14.3125 60.46875 
Q 10.84375 57.859375 9.421875 53.71875 
Q 9.8125 53.8125 10.5 53.8125 
Q 12.75 53.8125 14.328125 52.296875 
Q 15.921875 50.78125 15.921875 48.390625 
Q 15.921875 46.09375 14.328125 44.5 
Q 12.75 42.921875 10.5 42.921875 
Q 8.15625 42.921875 6.5625 44.546875 
Q 4.984375 46.1875 4.984375 48.390625 
Q 4.984375 52.15625 6.390625 55.4375 
Q 7.8125 58.734375 10.46875 61.296875 
Q 13.140625 63.875 16.484375 65.234375 
Q 19.828125 66.609375 23.578125 66.609375 
Q 29.296875 66.609375 34.21875 64.1875 
Q 39.15625 61.765625 42.03125 57.34375 
Q 44.921875 52.9375 44.921875 47.015625 
Q 44.921875 42.671875 43.015625 38.765625 
Q 41.109375 34.859375 38.125 31.65625 
Q 35.15625 28.46875 30.515625 24.40625 
Q 25.875 20.359375 24.421875 19 
L 13.09375 8.109375 
L 22.703125 8.109375 
Q 29.78125 8.109375 34.546875 8.21875 
Q 39.3125 8.34375 39.59375 8.59375 
Q 40.765625 9.859375 42 17.828125 
L 44.921875 17.828125 
L 42.09375 0 
z
" id="Cmr10-50"/>
      <path d="M 10.203125 23 
Q 9.375 23 8.828125 23.625 
Q 8.296875 24.265625 8.296875 25 
Q 8.296875 25.734375 8.828125 26.359375 
Q 9.375 27 10.203125 27 
L 67.578125 27 
Q 68.359375 27 68.875 26.359375 
Q 69.390625 25.734375 69.390625 25 
Q 69.390625 24.265625 68.875 23.625 
Q 68.359375 23 67.578125 23 
z
" id="Cmsy10-161"/>
      <path d="M 9.28125 0 
L 9.28125 3.515625 
Q 21.78125 3.515625 21.78125 6.6875 
L 21.78125 59.1875 
Q 16.609375 56.6875 8.6875 56.6875 
L 8.6875 60.203125 
Q 20.953125 60.203125 27.203125 66.609375 
L 28.609375 66.609375 
Q 28.953125 66.609375 29.265625 66.328125 
Q 29.59375 66.0625 29.59375 65.71875 
L 29.59375 6.6875 
Q 29.59375 3.515625 42.09375 3.515625 
L 42.09375 0 
z
" id="Cmr10-49"/>
      <path d="M 7.515625 23 
Q 6.6875 23 6.140625 23.625 
Q 5.609375 24.265625 5.609375 25 
Q 5.609375 25.734375 6.140625 26.359375 
Q 6.6875 27 7.515625 27 
L 36.921875 27 
L 36.921875 56.5 
Q 36.921875 57.28125 37.5 57.78125 
Q 38.09375 58.296875 38.921875 58.296875 
Q 39.65625 58.296875 40.28125 57.78125 
Q 40.921875 57.28125 40.921875 56.5 
L 40.921875 27 
L 70.3125 27 
Q 71.046875 27 71.578125 26.359375 
Q 72.125 25.734375 72.125 25 
Q 72.125 24.265625 71.578125 23.625 
Q 71.046875 23 70.3125 23 
L 40.921875 23 
L 40.921875 -6.5 
Q 40.921875 -7.28125 40.28125 -7.78125 
Q 39.65625 -8.296875 38.921875 -8.296875 
Q 38.09375 -8.296875 37.5 -7.78125 
Q 36.921875 -7.28125 36.921875 -6.5 
L 36.921875 23 
z
" id="Cmr10-43"/>
     </defs>
     <use transform="translate(0 0.484375)" xlink:href="#Cmmi10-121"/>
     <use transform="translate(66.582031 0.484375)" xlink:href="#Cmr10-61"/>
     <use transform="translate(161.826172 39.109375)" xlink:href="#Cmmi10-120"/>
     <use transform="translate(225.209531 77.373437)scale(0.7)" xlink:href="#Cmr10-50"/>
     <use transform="translate(284.145469 39.109375)" xlink:href="#Cmsy10-161"/>
     <use transform="translate(379.389609 39.109375)" xlink:href="#Cmr10-49"/>
     <use transform="translate(161.826172 -78.15625)" xlink:href="#Cmmi10-120"/>
     <use transform="translate(225.209531 -39.892188)scale(0.7)" xlink:href="#Cmr10-50"/>
     <use transform="translate(284.145469 -78.15625)" xlink:href="#Cmr10-43"/>
     <use transform="translate(379.389609 -78.15625)" xlink:href="#Cmr10-49"/>
     <path d="M 161.826172 12.984375 
L 161.826172 19.234375 
L 429.389609 19.234375 
L 429.389609 12.984375 
L 161.826172 12.984375 
z
"/>
    </g>
   </g>
  </g>
 </g>
 <defs>
  <clipPath id="p36ea690af4">
   <rect height="247.536102" width="392.998462" x="10.194681" y="30.685"/>
  </clipPath>
 </defs>
</svg>
