<?xml version="1.0" encoding="UTF-8" standalone="no"?>
<!-- Created with matplotlib (http://matplotlib.org/) -->

<svg
   xmlns:dc="http://purl.org/dc/elements/1.1/"
   xmlns:cc="http://creativecommons.org/ns#"
   xmlns:rdf="http://www.w3.org/1999/02/22-rdf-syntax-ns#"
   xmlns:svg="http://www.w3.org/2000/svg"
   xmlns="http://www.w3.org/2000/svg"
   xmlns:xlink="http://www.w3.org/1999/xlink"
   xmlns:sodipodi="http://sodipodi.sourceforge.net/DTD/sodipodi-0.dtd"
   xmlns:inkscape="http://www.inkscape.org/namespaces/inkscape"
   height="150.118065pt"
   version="1.1"
   viewBox="0 0 424.8 150.118065"
   width="424.8pt"
   id="svg129"
   sodipodi:docname="circ-equiv.svg"
   inkscape:version="0.92.4 (5da689c313, 2019-01-14)">
  <metadata
     id="metadata133">
    <rdf:RDF>
      <cc:Work
         rdf:about="">
        <dc:format>image/svg+xml</dc:format>
        <dc:type
           rdf:resource="http://purl.org/dc/dcmitype/StillImage" />
      </cc:Work>
    </rdf:RDF>
  </metadata>
  <sodipodi:namedview
     pagecolor="#ffffff"
     bordercolor="#666666"
     borderopacity="1"
     objecttolerance="10"
     gridtolerance="10"
     guidetolerance="10"
     inkscape:pageopacity="0"
     inkscape:pageshadow="2"
     inkscape:window-width="1920"
     inkscape:window-height="1010"
     id="namedview131"
     showgrid="false"
     inkscape:zoom="1.151046"
     inkscape:cx="350.28013"
     inkscape:cy="190.26965"
     inkscape:window-x="1920"
     inkscape:window-y="0"
     inkscape:window-maximized="1"
     inkscape:current-layer="svg129" />
  <defs
     id="defs4">
    <style
       type="text/css"
       id="style2">
*{stroke-linecap:butt;stroke-linejoin:round;}
  </style>
  </defs>
  <g
     style="stroke-linecap:butt;stroke-linejoin:round"
     id="patch_1">
    <path
       inkscape:connector-curvature="0"
       id="path6"
       style="fill:#ffffff;stroke-linecap:butt;stroke-linejoin:round"
       d="M 0,150.11806 H 424.8 V 0 H 0 Z" />
  </g>
  <g
     id="patch_2"
     style="stroke-linecap:butt;stroke-linejoin:round">
    <path
       d="M 10.7,139.41807 H 133.3 V 12.008408 H 10.7 Z"
       style="fill:#ffffff;stroke-linecap:butt;stroke-linejoin:round"
       id="path9"
       inkscape:connector-curvature="0" />
  </g>
  <g
     id="matplotlib.axis_1"
     style="stroke-linecap:butt;stroke-linejoin:round" />
  <g
     id="matplotlib.axis_2"
     style="stroke-linecap:butt;stroke-linejoin:round" />
  <g
     id="text_1"
     style="stroke-linecap:butt;stroke-linejoin:round">
    <!-- 1 -->
    <defs
       id="defs24">
      <path
         d="m 12.40625,8.296875 h 16.109375 v 55.625 L 10.984375,60.40625 v 8.984375 l 17.4375,3.515625 H 38.28125 V 8.296875 H 54.390625 V 0 H 12.40625 Z"
         id="DejaVuSans-31"
         inkscape:connector-curvature="0"
         style="stroke-linecap:butt;stroke-linejoin:round" />
    </defs>
    <g
       style="fill:#0000ff;stroke-linecap:butt;stroke-linejoin:round"
       transform="matrix(0.15,0,0,-0.15,67.228125,18.597656)"
       id="g28">
      <use
         xlink:href="#DejaVuSans-31"
         id="use26"
         style="stroke-linecap:butt;stroke-linejoin:round"
         x="0"
         y="0"
         width="100%"
         height="100%" />
    </g>
  </g>
  <g
     id="text_2"
     style="stroke-linecap:butt;stroke-linejoin:round">
    <!-- 2 -->
    <defs
       id="defs32">
      <path
         d="M 19.1875,8.296875 H 53.609375 V 0 H 7.328125 v 8.296875 q 5.609375,5.8125 15.296875,15.59375 9.703125,9.796875 12.1875,12.640625 4.734375,5.3125 6.609375,9 1.890625,3.6875 1.890625,7.25 0,5.8125 -4.078125,9.46875 -4.078125,3.671875 -10.625,3.671875 -4.640625,0 -9.796875,-1.609375 -5.140625,-1.609375 -11,-4.890625 v 9.96875 Q 13.765625,71.78125 18.9375,73 q 5.1875,1.21875 9.484375,1.21875 11.328125,0 18.0625,-5.671875 6.734375,-5.65625 6.734375,-15.125 0,-4.5 -1.6875,-8.53125 Q 49.859375,40.875 45.40625,35.40625 44.1875,33.984375 37.640625,27.21875 31.109375,20.453125 19.1875,8.296875 Z"
         id="DejaVuSans-32"
         inkscape:connector-curvature="0"
         style="stroke-linecap:butt;stroke-linejoin:round" />
    </defs>
    <g
       style="fill:#0000ff;stroke-linecap:butt;stroke-linejoin:round"
       transform="matrix(0.15,0,0,-0.15,126.17043,120.68873)"
       id="g36">
      <use
         xlink:href="#DejaVuSans-32"
         id="use34"
         style="stroke-linecap:butt;stroke-linejoin:round"
         x="0"
         y="0"
         width="100%"
         height="100%" />
    </g>
  </g>
  <g
     id="text_3"
     style="stroke-linecap:butt;stroke-linejoin:round">
    <!-- 3 -->
    <defs
       id="defs40">
      <path
         d="M 40.578125,39.3125 Q 47.65625,37.796875 51.625,33 q 3.984375,-4.78125 3.984375,-11.8125 0,-10.78125 -7.421875,-16.703125 -7.421875,-5.90625 -21.09375,-5.90625 -4.578125,0 -9.4375,0.90625 -4.859375,0.90625 -10.03125,2.71875 v 9.515625 q 4.09375,-2.390625 8.96875,-3.609375 4.890625,-1.21875 10.21875,-1.21875 9.265625,0 14.125,3.65625 4.859375,3.65625 4.859375,10.640625 0,6.453125 -4.515625,10.078125 -4.515625,3.640625 -12.5625,3.640625 h -8.5 v 8.109375 h 8.890625 q 7.265625,0 11.125,2.90625 3.859375,2.90625 3.859375,8.375 0,5.609375 -3.984375,8.609375 -3.96875,3.015625 -11.390625,3.015625 -4.0625,0 -8.703125,-0.890625 Q 15.375,64.15625 9.8125,62.3125 v 8.78125 q 5.625,1.5625 10.53125,2.34375 4.90625,0.78125 9.25,0.78125 11.234375,0 17.765625,-5.109375 6.546875,-5.09375 6.546875,-13.78125 0,-6.0625 -3.46875,-10.234375 -3.46875,-4.171875 -9.859375,-5.78125 z"
         id="DejaVuSans-33"
         inkscape:connector-curvature="0"
         style="stroke-linecap:butt;stroke-linejoin:round" />
    </defs>
    <g
       style="fill:#0000ff;stroke-linecap:butt;stroke-linejoin:round"
       transform="matrix(0.15,0,0,-0.15,8.285817,120.68873)"
       id="g44">
      <use
         xlink:href="#DejaVuSans-33"
         id="use42"
         style="stroke-linecap:butt;stroke-linejoin:round"
         x="0"
         y="0"
         width="100%"
         height="100%" />
    </g>
  </g>
  <g
     id="patch_6"
     style="stroke-linecap:butt;stroke-linejoin:round">
    <path
       clip-path="url(#p53d3734d9e)"
       d="m 72,136.96788 c 14.43993,0 28.29038,-5.73704 38.50095,-15.94762 10.21058,-10.21057 15.94762,-24.061022 15.94762,-38.500952 0,-14.43993 -5.73704,-28.290382 -15.94762,-38.500954 C 100.29038,33.807782 86.43993,28.070737 72,28.070737 c -14.43993,0 -28.290382,5.737045 -38.500954,15.947617 -10.210573,10.210572 -15.947618,24.061024 -15.947618,38.500954 0,14.43993 5.737045,28.290382 15.947618,38.500952 C 43.709618,131.23084 57.56007,136.96788 72,136.96788 Z"
       style="fill:none;stroke:#0000ff;stroke-linecap:butt;stroke-linejoin:miter"
       id="path47"
       inkscape:connector-curvature="0" />
  </g>
  <g
     id="patch_7"
     style="stroke-linecap:butt;stroke-linejoin:round">
    <path
       d="M 151.1,139.41807 H 273.7 V 12.008408 H 151.1 Z"
       style="fill:#ffffff;stroke-linecap:butt;stroke-linejoin:round"
       id="path51"
       inkscape:connector-curvature="0" />
  </g>
  <g
     id="matplotlib.axis_3"
     style="stroke-linecap:butt;stroke-linejoin:round" />
  <g
     id="matplotlib.axis_4"
     style="stroke-linecap:butt;stroke-linejoin:round" />
  <g
     id="text_4"
     style="stroke-linecap:butt;stroke-linejoin:round">
    <!-- 3 -->
    <g
       style="fill:#0000ff;stroke-linecap:butt;stroke-linejoin:round"
       transform="matrix(0.15,0,0,-0.15,207.62812,18.597656)"
       id="g67">
      <use
         xlink:href="#DejaVuSans-33"
         id="use65"
         style="stroke-linecap:butt;stroke-linejoin:round"
         x="0"
         y="0"
         width="100%"
         height="100%" />
    </g>
  </g>
  <g
     id="text_5"
     style="stroke-linecap:butt;stroke-linejoin:round">
    <!-- 1 -->
    <g
       style="fill:#0000ff;stroke-linecap:butt;stroke-linejoin:round"
       transform="matrix(0.15,0,0,-0.15,266.57043,120.68873)"
       id="g72">
      <use
         xlink:href="#DejaVuSans-31"
         id="use70"
         style="stroke-linecap:butt;stroke-linejoin:round"
         x="0"
         y="0"
         width="100%"
         height="100%" />
    </g>
  </g>
  <g
     id="text_6"
     style="stroke-linecap:butt;stroke-linejoin:round">
    <!-- 2 -->
    <g
       style="fill:#0000ff;stroke-linecap:butt;stroke-linejoin:round"
       transform="matrix(0.15,0,0,-0.15,148.68582,120.68873)"
       id="g77">
      <use
         xlink:href="#DejaVuSans-32"
         id="use75"
         style="stroke-linecap:butt;stroke-linejoin:round"
         x="0"
         y="0"
         width="100%"
         height="100%" />
    </g>
  </g>
  <g
     id="patch_11"
     style="stroke-linecap:butt;stroke-linejoin:round">
    <path
       clip-path="url(#p44a70541e7)"
       d="m 212.4,136.96788 c 14.43993,0 28.29038,-5.73704 38.50095,-15.94762 10.21058,-10.21057 15.94762,-24.061022 15.94762,-38.500952 0,-14.43993 -5.73704,-28.290382 -15.94762,-38.500954 C 240.69038,33.807782 226.83993,28.070737 212.4,28.070737 c -14.43993,0 -28.29038,5.737045 -38.50095,15.947617 -10.21058,10.210572 -15.94762,24.061024 -15.94762,38.500954 0,14.43993 5.73704,28.290382 15.94762,38.500952 10.21057,10.21058 24.06102,15.94762 38.50095,15.94762 z"
       style="fill:none;stroke:#0000ff;stroke-linecap:butt;stroke-linejoin:miter"
       id="path80"
       inkscape:connector-curvature="0" />
  </g>
  <g
     id="patch_12"
     style="stroke-linecap:butt;stroke-linejoin:round">
    <path
       d="M 291.5,139.41807 H 414.1 V 12.008408 H 291.5 Z"
       style="fill:#ffffff;stroke-linecap:butt;stroke-linejoin:round"
       id="path84"
       inkscape:connector-curvature="0" />
  </g>
  <g
     id="matplotlib.axis_5"
     style="stroke-linecap:butt;stroke-linejoin:round" />
  <g
     id="matplotlib.axis_6"
     style="stroke-linecap:butt;stroke-linejoin:round" />
  <g
     id="text_7"
     style="stroke-linecap:butt;stroke-linejoin:round">
    <!-- 2 -->
    <g
       style="fill:#0000ff;stroke-linecap:butt;stroke-linejoin:round"
       transform="matrix(0.15,0,0,-0.15,348.02812,18.597656)"
       id="g100">
      <use
         xlink:href="#DejaVuSans-32"
         id="use98"
         style="stroke-linecap:butt;stroke-linejoin:round"
         x="0"
         y="0"
         width="100%"
         height="100%" />
    </g>
  </g>
  <g
     id="text_8"
     style="stroke-linecap:butt;stroke-linejoin:round">
    <!-- 3 -->
    <g
       style="fill:#0000ff;stroke-linecap:butt;stroke-linejoin:round"
       transform="matrix(0.15,0,0,-0.15,406.97043,120.68873)"
       id="g105">
      <use
         xlink:href="#DejaVuSans-33"
         id="use103"
         style="stroke-linecap:butt;stroke-linejoin:round"
         x="0"
         y="0"
         width="100%"
         height="100%" />
    </g>
  </g>
  <g
     id="text_9"
     style="stroke-linecap:butt;stroke-linejoin:round">
    <!-- 1 -->
    <g
       style="fill:#0000ff;stroke-linecap:butt;stroke-linejoin:round"
       transform="matrix(0.15,0,0,-0.15,289.08582,120.68873)"
       id="g110">
      <use
         xlink:href="#DejaVuSans-31"
         id="use108"
         style="stroke-linecap:butt;stroke-linejoin:round"
         x="0"
         y="0"
         width="100%"
         height="100%" />
    </g>
  </g>
  <g
     id="patch_16"
     style="stroke-linecap:butt;stroke-linejoin:round">
    <path
       clip-path="url(#p4e82d95624)"
       d="m 352.8,136.96788 c 14.43993,0 28.29038,-5.73704 38.50095,-15.94762 10.21058,-10.21057 15.94762,-24.061022 15.94762,-38.500952 0,-14.43993 -5.73704,-28.290382 -15.94762,-38.500954 C 381.09038,33.807782 367.23993,28.070737 352.8,28.070737 c -14.43993,0 -28.29038,5.737045 -38.50095,15.947617 -10.21058,10.210572 -15.94762,24.061024 -15.94762,38.500954 0,14.43993 5.73704,28.290382 15.94762,38.500952 10.21057,10.21058 24.06102,15.94762 38.50095,15.94762 z"
       style="fill:none;stroke:#0000ff;stroke-linecap:butt;stroke-linejoin:miter"
       id="path113"
       inkscape:connector-curvature="0" />
  </g>
  <defs
     id="defs127">
    <clipPath
       id="p53d3734d9e">
      <rect
         height="127.409657"
         width="122.6"
         x="10.7"
         y="12.008408"
         id="rect118" />
    </clipPath>
    <clipPath
       id="p44a70541e7">
      <rect
         height="127.409657"
         width="122.6"
         x="151.1"
         y="12.008408"
         id="rect121" />
    </clipPath>
    <clipPath
       id="p4e82d95624">
      <rect
         height="127.409657"
         width="122.6"
         x="291.5"
         y="12.008408"
         id="rect124" />
    </clipPath>
  </defs>
  <g
     id="patch_3"
     style="stroke-linecap:butt;stroke-linejoin:round">
    <path
       clip-path="url(#p53d3734d9e)"
       d="m 77.444857,28.070737 c 0,-0.715012 -0.140842,-1.423072 -0.414465,-2.083657 -0.273623,-0.660585 -0.674707,-1.260849 -1.180297,-1.766439 -0.505589,-0.50559 -1.105853,-0.906673 -1.766438,-1.180296 C 73.423072,22.766721 72.715012,22.625879 72,22.625879 c -0.715012,0 -1.423072,0.140842 -2.083657,0.414466 -0.660585,0.273623 -1.260849,0.674706 -1.766438,1.180296 -0.50559,0.50559 -0.906674,1.105854 -1.180297,1.766439 -0.273623,0.660585 -0.414465,1.368645 -0.414465,2.083657 0,0.715012 0.140842,1.423071 0.414465,2.083656 0.273623,0.660585 0.674707,1.260849 1.180297,1.766439 0.505589,0.50559 1.105853,0.906673 1.766438,1.180297 0.660585,0.273623 1.368645,0.414465 2.083657,0.414465 0.715012,0 1.423072,-0.140842 2.083657,-0.414465 0.660585,-0.273624 1.260849,-0.674707 1.766438,-1.180297 0.50559,-0.50559 0.906674,-1.105854 1.180297,-1.766439 0.273623,-0.660585 0.414465,-1.368644 0.414465,-2.083656 m -5.444857,0 m 5.444857,0 z"
       id="path12"
       inkscape:connector-curvature="0"
       style="stroke-linecap:butt;stroke-linejoin:round" />
  </g>
  <g
     id="patch_5"
     style="stroke-linecap:butt;stroke-linejoin:round">
    <path
       clip-path="url(#p53d3734d9e)"
       d="m 30.291011,109.74359 c 0,-0.71501 -0.140842,-1.42307 -0.414465,-2.08365 -0.273623,-0.66059 -0.674707,-1.26085 -1.180297,-1.76644 -0.50559,-0.50559 -1.105853,-0.90668 -1.766439,-1.1803 -0.660585,-0.27362 -1.368644,-0.41446 -2.083656,-0.41446 -0.715012,0 -1.423072,0.14084 -2.083657,0.41446 -0.660585,0.27362 -1.260849,0.67471 -1.766439,1.1803 -0.505589,0.50559 -0.906673,1.10585 -1.180296,1.76644 -0.273624,0.66058 -0.414465,1.36864 -0.414465,2.08365 0,0.71502 0.140841,1.42308 0.414465,2.08366 0.273623,0.66059 0.674707,1.26085 1.180296,1.76644 0.50559,0.50559 1.105854,0.90667 1.766439,1.1803 0.660585,0.27362 1.368645,0.41446 2.083657,0.41446 0.715012,0 1.423071,-0.14084 2.083656,-0.41446 0.660586,-0.27363 1.260849,-0.67471 1.766439,-1.1803 0.50559,-0.50559 0.906674,-1.10585 1.180297,-1.76644 0.273623,-0.66058 0.414465,-1.36864 0.414465,-2.08366 m -5.444857,0 m 5.444857,0 z"
       id="path18"
       inkscape:connector-curvature="0"
       style="stroke-linecap:butt;stroke-linejoin:round" />
  </g>
  <g
     id="patch_4"
     style="stroke-linecap:butt;stroke-linejoin:round">
    <path
       clip-path="url(#p53d3734d9e)"
       d="m 124.5987,109.74359 c 0,-0.71501 -0.14084,-1.42307 -0.41446,-2.08365 -0.27362,-0.66059 -0.67471,-1.26085 -1.1803,-1.76644 -0.50559,-0.50559 -1.10585,-0.90668 -1.76644,-1.1803 -0.66058,-0.27362 -1.36864,-0.41446 -2.08365,-0.41446 -0.71502,0 -1.42308,0.14084 -2.08366,0.41446 -0.66059,0.27362 -1.26085,0.67471 -1.76644,1.1803 -0.50559,0.50559 -0.90667,1.10585 -1.1803,1.76644 -0.27362,0.66058 -0.41446,1.36864 -0.41446,2.08365 0,0.71502 0.14084,1.42308 0.41446,2.08366 0.27363,0.66059 0.67471,1.26085 1.1803,1.76644 0.50559,0.50559 1.10585,0.90667 1.76644,1.1803 0.66058,0.27362 1.36864,0.41446 2.08366,0.41446 0.71501,0 1.42307,-0.14084 2.08365,-0.41446 0.66059,-0.27363 1.26085,-0.67471 1.76644,-1.1803 0.50559,-0.50559 0.90668,-1.10585 1.1803,-1.76644 0.27362,-0.66058 0.41446,-1.36864 0.41446,-2.08366 m -5.44485,0 m 5.44485,0 z"
       id="path15"
       inkscape:connector-curvature="0"
       style="stroke-linecap:butt;stroke-linejoin:round" />
  </g>
  <g
     id="patch_10"
     style="stroke-linecap:butt;stroke-linejoin:round">
    <path
       clip-path="url(#p44a70541e7)"
       d="m 170.69101,109.74359 c 0,-0.71501 -0.14084,-1.42307 -0.41446,-2.08365 -0.27363,-0.66059 -0.67471,-1.26085 -1.1803,-1.76644 -0.50559,-0.50559 -1.10585,-0.90668 -1.76644,-1.1803 -0.66059,-0.27362 -1.36864,-0.41446 -2.08366,-0.41446 -0.71501,0 -1.42307,0.14084 -2.08365,0.41446 -0.66059,0.27362 -1.26085,0.67471 -1.76644,1.1803 -0.50559,0.50559 -0.90668,1.10585 -1.1803,1.76644 -0.27362,0.66058 -0.41446,1.36864 -0.41446,2.08365 0,0.71502 0.14084,1.42308 0.41446,2.08366 0.27362,0.66059 0.67471,1.26085 1.1803,1.76644 0.50559,0.50559 1.10585,0.90667 1.76644,1.1803 0.66058,0.27362 1.36864,0.41446 2.08365,0.41446 0.71502,0 1.42307,-0.14084 2.08366,-0.41446 0.66059,-0.27363 1.26085,-0.67471 1.76644,-1.1803 0.50559,-0.50559 0.90667,-1.10585 1.1803,-1.76644 0.27362,-0.66058 0.41446,-1.36864 0.41446,-2.08366 m -5.44486,0 m 5.44486,0 z"
       id="path60"
       inkscape:connector-curvature="0"
       style="stroke-linecap:butt;stroke-linejoin:round" />
  </g>
  <g
     id="patch_8"
     style="stroke-linecap:butt;stroke-linejoin:round">
    <path
       clip-path="url(#p44a70541e7)"
       d="m 217.84486,28.070737 c 0,-0.715012 -0.14085,-1.423072 -0.41447,-2.083657 -0.27362,-0.660585 -0.67471,-1.260849 -1.1803,-1.766439 -0.50558,-0.50559 -1.10585,-0.906673 -1.76643,-1.180296 -0.66059,-0.273624 -1.36865,-0.414466 -2.08366,-0.414466 -0.71501,0 -1.42307,0.140842 -2.08366,0.414466 -0.66058,0.273623 -1.26085,0.674706 -1.76644,1.180296 -0.50559,0.50559 -0.90667,1.105854 -1.18029,1.766439 -0.27362,0.660585 -0.41447,1.368645 -0.41447,2.083657 0,0.715012 0.14085,1.423071 0.41447,2.083656 0.27362,0.660585 0.6747,1.260849 1.18029,1.766439 0.50559,0.50559 1.10586,0.906673 1.76644,1.180297 0.66059,0.273623 1.36865,0.414465 2.08366,0.414465 0.71501,0 1.42307,-0.140842 2.08366,-0.414465 0.66058,-0.273624 1.26085,-0.674707 1.76643,-1.180297 0.50559,-0.50559 0.90668,-1.105854 1.1803,-1.766439 0.27362,-0.660585 0.41447,-1.368644 0.41447,-2.083656 m -5.44486,0 m 5.44486,0 z"
       id="path54"
       inkscape:connector-curvature="0"
       style="stroke-linecap:butt;stroke-linejoin:round" />
  </g>
  <g
     id="patch_9"
     style="stroke-linecap:butt;stroke-linejoin:round">
    <path
       clip-path="url(#p44a70541e7)"
       d="m 264.9987,109.74359 c 0,-0.71501 -0.14084,-1.42307 -0.41446,-2.08365 -0.27363,-0.66059 -0.67471,-1.26085 -1.1803,-1.76644 -0.50559,-0.50559 -1.10585,-0.90668 -1.76644,-1.1803 -0.66058,-0.27362 -1.36864,-0.41446 -2.08365,-0.41446 -0.71502,0 -1.42307,0.14084 -2.08366,0.41446 -0.66059,0.27362 -1.26085,0.67471 -1.76644,1.1803 -0.50559,0.50559 -0.90667,1.10585 -1.1803,1.76644 -0.27362,0.66058 -0.41446,1.36864 -0.41446,2.08365 0,0.71502 0.14084,1.42308 0.41446,2.08366 0.27363,0.66059 0.67471,1.26085 1.1803,1.76644 0.50559,0.50559 1.10585,0.90667 1.76644,1.1803 0.66059,0.27362 1.36864,0.41446 2.08366,0.41446 0.71501,0 1.42307,-0.14084 2.08365,-0.41446 0.66059,-0.27363 1.26085,-0.67471 1.76644,-1.1803 0.50559,-0.50559 0.90667,-1.10585 1.1803,-1.76644 0.27362,-0.66058 0.41446,-1.36864 0.41446,-2.08366 m -5.44485,0 m 5.44485,0 z"
       id="path57"
       inkscape:connector-curvature="0"
       style="stroke-linecap:butt;stroke-linejoin:round" />
  </g>
  <g
     id="patch_13"
     style="stroke-linecap:butt;stroke-linejoin:round">
    <path
       clip-path="url(#p4e82d95624)"
       d="m 358.24486,28.070737 c 0,-0.715012 -0.14085,-1.423072 -0.41447,-2.083657 -0.27362,-0.660585 -0.67471,-1.260849 -1.18029,-1.766439 -0.50559,-0.50559 -1.10586,-0.906673 -1.76644,-1.180296 -0.66059,-0.273624 -1.36865,-0.414466 -2.08366,-0.414466 -0.71501,0 -1.42307,0.140842 -2.08366,0.414466 -0.66058,0.273623 -1.26085,0.674706 -1.76644,1.180296 -0.50558,0.50559 -0.90667,1.105854 -1.18029,1.766439 -0.27362,0.660585 -0.41447,1.368645 -0.41447,2.083657 0,0.715012 0.14085,1.423071 0.41447,2.083656 0.27362,0.660585 0.67471,1.260849 1.18029,1.766439 0.50559,0.50559 1.10586,0.906673 1.76644,1.180297 0.66059,0.273623 1.36865,0.414465 2.08366,0.414465 0.71501,0 1.42307,-0.140842 2.08366,-0.414465 0.66058,-0.273624 1.26085,-0.674707 1.76644,-1.180297 0.50558,-0.50559 0.90667,-1.105854 1.18029,-1.766439 0.27362,-0.660585 0.41447,-1.368644 0.41447,-2.083656 m -5.44486,0 m 5.44486,0 z"
       id="path87"
       inkscape:connector-curvature="0"
       style="stroke-linecap:butt;stroke-linejoin:round" />
  </g>
  <g
     id="patch_14"
     style="stroke-linecap:butt;stroke-linejoin:round">
    <path
       clip-path="url(#p4e82d95624)"
       d="m 405.3987,109.74359 c 0,-0.71501 -0.14084,-1.42307 -0.41446,-2.08365 -0.27362,-0.66059 -0.67471,-1.26085 -1.1803,-1.76644 -0.50559,-0.50559 -1.10585,-0.90668 -1.76644,-1.1803 -0.66058,-0.27362 -1.36864,-0.41446 -2.08365,-0.41446 -0.71502,0 -1.42308,0.14084 -2.08366,0.41446 -0.66059,0.27362 -1.26085,0.67471 -1.76644,1.1803 -0.50559,0.50559 -0.90667,1.10585 -1.1803,1.76644 -0.27362,0.66058 -0.41446,1.36864 -0.41446,2.08365 0,0.71502 0.14084,1.42308 0.41446,2.08366 0.27363,0.66059 0.67471,1.26085 1.1803,1.76644 0.50559,0.50559 1.10585,0.90667 1.76644,1.1803 0.66058,0.27362 1.36864,0.41446 2.08366,0.41446 0.71501,0 1.42307,-0.14084 2.08365,-0.41446 0.66059,-0.27363 1.26085,-0.67471 1.76644,-1.1803 0.50559,-0.50559 0.90668,-1.10585 1.1803,-1.76644 0.27362,-0.66058 0.41446,-1.36864 0.41446,-2.08366 m -5.44485,0 m 5.44485,0 z"
       id="path90"
       inkscape:connector-curvature="0"
       style="stroke-linecap:butt;stroke-linejoin:round" />
  </g>
  <g
     id="patch_15"
     style="stroke-linecap:butt;stroke-linejoin:round">
    <path
       clip-path="url(#p4e82d95624)"
       d="m 311.09101,109.74359 c 0,-0.71501 -0.14084,-1.42307 -0.41446,-2.08365 -0.27363,-0.66059 -0.67471,-1.26085 -1.1803,-1.76644 -0.50559,-0.50559 -1.10585,-0.90668 -1.76644,-1.1803 -0.66058,-0.27362 -1.36864,-0.41446 -2.08366,-0.41446 -0.71501,0 -1.42307,0.14084 -2.08365,0.41446 -0.66059,0.27362 -1.26085,0.67471 -1.76644,1.1803 -0.50559,0.50559 -0.90668,1.10585 -1.1803,1.76644 -0.27362,0.66058 -0.41446,1.36864 -0.41446,2.08365 0,0.71502 0.14084,1.42308 0.41446,2.08366 0.27362,0.66059 0.67471,1.26085 1.1803,1.76644 0.50559,0.50559 1.10585,0.90667 1.76644,1.1803 0.66058,0.27362 1.36864,0.41446 2.08365,0.41446 0.71502,0 1.42308,-0.14084 2.08366,-0.41446 0.66059,-0.27363 1.26085,-0.67471 1.76644,-1.1803 0.50559,-0.50559 0.90667,-1.10585 1.1803,-1.76644 0.27362,-0.66058 0.41446,-1.36864 0.41446,-2.08366 m -5.44486,0 m 5.44486,0 z"
       id="path93"
       inkscape:connector-curvature="0"
       style="stroke-linecap:butt;stroke-linejoin:round" />
  </g>
</svg>
