<?xml version="1.0" encoding="UTF-8" standalone="no"?>
<!-- Created with matplotlib (http://matplotlib.org/) -->

<svg
   height="292pt"
   version="1.1"
   viewBox="0 0 477.00001 292.00001"
   width="477pt"
   id="svg194"
   sodipodi:docname="R2_xy.svg"
   inkscape:version="1.2.2 (b0a8486541, 2022-12-01)"
   xml:space="preserve"
   xmlns:inkscape="http://www.inkscape.org/namespaces/inkscape"
   xmlns:sodipodi="http://sodipodi.sourceforge.net/DTD/sodipodi-0.dtd"
   xmlns="http://www.w3.org/2000/svg"
   xmlns:svg="http://www.w3.org/2000/svg"><sodipodi:namedview
   id="namedview196"
   pagecolor="#ffffff"
   bordercolor="#666666"
   borderopacity="1.0"
   inkscape:showpageshadow="2"
   inkscape:pageopacity="0.0"
   inkscape:pagecheckerboard="0"
   inkscape:deskcolor="#d1d1d1"
   inkscape:document-units="pt"
   showgrid="false"
   inkscape:zoom="0.8639087"
   inkscape:cx="95.496202"
   inkscape:cy="296.90637"
   inkscape:window-width="1920"
   inkscape:window-height="1043"
   inkscape:window-x="0"
   inkscape:window-y="0"
   inkscape:window-maximized="1"
   inkscape:current-layer="svg194" /><defs
   id="defs4"><marker
   style="overflow:visible"
   id="TriangleStart"
   refX="0"
   refY="0"
   orient="auto-start-reverse"
   inkscape:stockid="TriangleStart"
   markerWidth="4.9916334"
   markerHeight="5.6666179"
   viewBox="0 0 4.9916334 5.6666178"
   inkscape:isstock="true"
   inkscape:collect="always"
   preserveAspectRatio="xMidYMid"><path
     transform="scale(0.5)"
     style="fill:context-stroke;fill-rule:evenodd;stroke:context-stroke;stroke-width:1pt"
     d="M 5.77,0 -2.88,5 V -5 Z"
     id="path135" /></marker><style
   type="text/css"
   id="style2">
*{stroke-linecap:butt;stroke-linejoin:round;}
  </style><clipPath
   id="p53d3734d9e"><rect
     height="127.40966"
     width="122.6"
     x="10.7"
     y="12.008408"
     id="rect118" /></clipPath><path
   d="m 12.40625,8.296875 h 16.109375 v 55.625 L 10.984375,60.40625 v 8.984375 l 17.4375,3.515625 H 38.28125 V 8.296875 H 54.390625 V 0 H 12.40625 Z"
   id="DejaVuSans-31-5"
   inkscape:connector-curvature="0"
   style="stroke-linecap:butt;stroke-linejoin:round" /><clipPath
   id="p53d3734d9e-3"><rect
     height="127.40966"
     width="122.6"
     x="10.7"
     y="12.008408"
     id="rect118-5" /></clipPath><path
   d="m 12.40625,8.296875 h 16.109375 v 55.625 L 10.984375,60.40625 v 8.984375 l 17.4375,3.515625 H 38.28125 V 8.296875 H 54.390625 V 0 H 12.40625 Z"
   id="path899-2"
   inkscape:connector-curvature="0"
   style="stroke-linecap:butt;stroke-linejoin:round" /><defs
   id="defs39"><path
     d="m 12.40625,8.296875 h 16.109375 v 55.625 L 10.984375,60.40625 v 8.984375 l 17.4375,3.515625 H 38.28125 V 8.296875 H 54.390625 V 0 H 12.40625 Z"
     id="DejaVuSans-31" /></defs><defs
   id="defs55"><path
     d="M 40.578125,39.3125 Q 47.65625,37.796875 51.625,33 q 3.984375,-4.78125 3.984375,-11.8125 0,-10.78125 -7.421875,-16.703125 -7.421875,-5.90625 -21.09375,-5.90625 -4.578125,0 -9.4375,0.90625 -4.859375,0.90625 -10.03125,2.71875 v 9.515625 q 4.09375,-2.390625 8.96875,-3.609375 4.890625,-1.21875 10.21875,-1.21875 9.265625,0 14.125,3.65625 4.859375,3.65625 4.859375,10.640625 0,6.453125 -4.515625,10.078125 -4.515625,3.640625 -12.5625,3.640625 h -8.5 v 8.109375 h 8.890625 q 7.265625,0 11.125,2.90625 3.859375,2.90625 3.859375,8.375 0,5.609375 -3.984375,8.609375 -3.96875,3.015625 -11.390625,3.015625 -4.0625,0 -8.703125,-0.890625 Q 15.375,64.15625 9.8125,62.3125 v 8.78125 q 5.625,1.5625 10.53125,2.34375 4.90625,0.78125 9.25,0.78125 11.234375,0 17.765625,-5.109375 6.546875,-5.09375 6.546875,-13.78125 0,-6.0625 -3.46875,-10.234375 -3.46875,-4.171875 -9.859375,-5.78125 z"
     id="DejaVuSans-33" /></defs><defs
   id="defs95"><path
     d="m 31.78125,34.625 q -7.03125,0 -11.0625,-3.765625 -4.015625,-3.765625 -4.015625,-10.34375 0,-6.59375 4.015625,-10.359375 4.03125,-3.765625 11.0625,-3.765625 7.03125,0 11.078125,3.78125 4.0625,3.796875 4.0625,10.34375 0,6.578125 -4.03125,10.34375 Q 38.875,34.625 31.78125,34.625 Z m -9.859375,4.1875 Q 15.578125,40.375 12.03125,44.71875 8.5,49.078125 8.5,55.328125 q 0,8.734375 6.21875,13.8125 6.234375,5.078125 17.0625,5.078125 10.890625,0 17.09375,-5.078125 6.203125,-5.078125 6.203125,-13.8125 0,-6.25 -3.546875,-10.609375 Q 48,40.375 41.703125,38.8125 q 7.125,-1.65625 11.09375,-6.5 3.984375,-4.828125 3.984375,-11.796875 0,-10.609375 -6.46875,-16.28125 -6.46875,-5.65625 -18.53125,-5.65625 -12.046875,0 -18.53125,5.65625 -6.46875,5.671875 -6.46875,16.28125 0,6.96875 4,11.796875 4.015625,4.84375 11.140625,6.5 z M 18.3125,54.390625 q 0,-5.65625 3.53125,-8.828125 3.546875,-3.171875 9.9375,-3.171875 6.359375,0 9.9375,3.171875 3.59375,3.171875 3.59375,8.828125 0,5.671875 -3.59375,8.84375 -3.578125,3.171875 -9.9375,3.171875 -6.390625,0 -9.9375,-3.171875 Q 18.3125,60.0625 18.3125,54.390625 Z"
     id="DejaVuSans-38" /></defs><defs
   id="defs47"><path
     d="M 19.1875,8.296875 H 53.609375 V 0 H 7.328125 v 8.296875 q 5.609375,5.8125 15.296875,15.59375 9.703125,9.796875 12.1875,12.640625 4.734375,5.3125 6.609375,9 1.890625,3.6875 1.890625,7.25 0,5.8125 -4.078125,9.46875 -4.078125,3.671875 -10.625,3.671875 -4.640625,0 -9.796875,-1.609375 -5.140625,-1.609375 -11,-4.890625 v 9.96875 Q 13.765625,71.78125 18.9375,73 q 5.1875,1.21875 9.484375,1.21875 11.328125,0 18.0625,-5.671875 6.734375,-5.65625 6.734375,-15.125 0,-4.5 -1.6875,-8.53125 Q 49.859375,40.875 45.40625,35.40625 44.1875,33.984375 37.640625,27.21875 31.109375,20.453125 19.1875,8.296875 Z"
     id="DejaVuSans-32" /></defs><defs
   id="defs71"><path
     d="m 10.796875,72.90625 h 38.71875 v -8.3125 h -29.6875 V 46.734375 q 2.140625,0.734375 4.28125,1.09375 2.15625,0.359375 4.3125,0.359375 Q 40.625,48.1875 47.75,41.5 54.890625,34.8125 54.890625,23.390625 54.890625,11.625 47.5625,5.09375 40.234375,-1.421875 26.90625,-1.421875 q -4.59375,0 -9.359375,0.78125 -4.75,0.78125 -9.828125,2.34375 V 11.625 q 4.390625,-2.390625 9.078125,-3.5625 4.6875,-1.171875 9.90625,-1.171875 8.453125,0 13.375,4.4375 4.9375,4.4375 4.9375,12.0625 0,7.609375 -4.9375,12.046875 -4.921875,4.453125 -13.375,4.453125 -3.953125,0 -7.890625,-0.875 -3.921875,-0.875 -8.015625,-2.734375 z"
     id="DejaVuSans-35" /></defs><defs
   id="defs87"><path
     d="m 8.203125,72.90625 h 46.875 V 68.703125 L 28.609375,0 H 18.3125 L 43.21875,64.59375 H 8.203125 Z"
     id="DejaVuSans-37" /></defs><defs
   id="defs79"><path
     d="m 33.015625,40.375 q -6.640625,0 -10.53125,-4.546875 -3.875,-4.53125 -3.875,-12.4375 0,-7.859375 3.875,-12.4375 3.890625,-4.5625 10.53125,-4.5625 6.640625,0 10.515625,4.5625 3.875,4.578125 3.875,12.4375 0,7.90625 -3.875,12.4375 Q 39.65625,40.375 33.015625,40.375 Z M 52.59375,71.296875 V 62.3125 q -3.71875,1.75 -7.5,2.671875 -3.78125,0.9375 -7.5,0.9375 -9.765625,0 -14.921875,-6.59375 -5.140625,-6.59375 -5.875,-19.921875 2.875,4.25 7.21875,6.515625 4.359375,2.265625 9.578125,2.265625 10.984375,0 17.359375,-6.671875 6.375,-6.65625 6.375,-18.125 0,-11.234375 -6.640625,-18.03125 -6.640625,-6.78125 -17.671875,-6.78125 -12.65625,0 -19.34375,9.6875 -6.6875,9.703125 -6.6875,28.109375 0,17.28125 8.203125,27.5625 8.203125,10.28125 22.015625,10.28125 3.71875,0 7.5,-0.734375 3.78125,-0.734375 7.890625,-2.1875 z"
     id="DejaVuSans-36" /></defs><defs
   id="defs63"><path
     d="M 37.796875,64.3125 12.890625,25.390625 h 24.90625 z m -2.59375,8.59375 h 12.40625 V 25.390625 h 10.40625 V 17.1875 H 47.609375 V 0 h -9.8125 V 17.1875 H 4.890625 v 9.515625 z"
     id="DejaVuSans-34" /></defs><clipPath
   id="p53d3734d9e-9"><rect
     height="127.40966"
     width="122.6"
     x="10.7"
     y="12.008408"
     id="rect118-3" /></clipPath><path
   d="m 12.40625,8.296875 h 16.109375 v 55.625 L 10.984375,60.40625 v 8.984375 l 17.4375,3.515625 H 38.28125 V 8.296875 H 54.390625 V 0 H 12.40625 Z"
   id="path899-1"
   inkscape:connector-curvature="0"
   style="stroke-linecap:butt;stroke-linejoin:round" /><clipPath
   id="p53d3734d9e-92"><rect
     height="127.40966"
     width="122.6"
     x="10.7"
     y="12.008408"
     id="rect118-0" /></clipPath><path
   d="m 12.40625,8.296875 h 16.109375 v 55.625 L 10.984375,60.40625 v 8.984375 l 17.4375,3.515625 H 38.28125 V 8.296875 H 54.390625 V 0 H 12.40625 Z"
   id="path899-9"
   inkscape:connector-curvature="0"
   style="stroke-linecap:butt;stroke-linejoin:round" /><clipPath
   id="p53d3734d9e-92-8"><rect
     height="127.40966"
     width="122.6"
     x="10.7"
     y="12.008408"
     id="rect118-0-9" /></clipPath><path
   d="m 12.40625,8.296875 h 16.109375 v 55.625 L 10.984375,60.40625 v 8.984375 l 17.4375,3.515625 H 38.28125 V 8.296875 H 54.390625 V 0 H 12.40625 Z"
   id="path1525-9"
   inkscape:connector-curvature="0"
   style="stroke-linecap:butt;stroke-linejoin:round" /><clipPath
   id="p53d3734d9e-92-9"><rect
     height="127.40966"
     width="122.6"
     x="10.7"
     y="12.008408"
     id="rect118-0-4" /></clipPath><path
   d="m 12.40625,8.296875 h 16.109375 v 55.625 L 10.984375,60.40625 v 8.984375 l 17.4375,3.515625 H 38.28125 V 8.296875 H 54.390625 V 0 H 12.40625 Z"
   id="path1525-6"
   inkscape:connector-curvature="0"
   style="stroke-linecap:butt;stroke-linejoin:round" /><clipPath
   id="p53d3734d9e-92-6"><rect
     height="127.40966"
     width="122.6"
     x="10.7"
     y="12.008408"
     id="rect118-0-3" /></clipPath><path
   d="m 12.40625,8.296875 h 16.109375 v 55.625 L 10.984375,60.40625 v 8.984375 l 17.4375,3.515625 H 38.28125 V 8.296875 H 54.390625 V 0 H 12.40625 Z"
   id="path1525-4"
   inkscape:connector-curvature="0"
   style="stroke-linecap:butt;stroke-linejoin:round" /><clipPath
   id="p53d3734d9e-92-5"><rect
     height="127.40966"
     width="122.6"
     x="10.7"
     y="12.008408"
     id="rect118-0-6" /></clipPath><path
   d="m 12.40625,8.296875 h 16.109375 v 55.625 L 10.984375,60.40625 v 8.984375 l 17.4375,3.515625 H 38.28125 V 8.296875 H 54.390625 V 0 H 12.40625 Z"
   id="path1525-7"
   inkscape:connector-curvature="0"
   style="stroke-linecap:butt;stroke-linejoin:round" /><filter
   inkscape:collect="always"
   style="color-interpolation-filters:sRGB"
   id="filter1673"
   x="-0.035547601"
   y="-0.048301578"
   width="1.0710952"
   height="1.0966032"><feGaussianBlur
     inkscape:collect="always"
     stdDeviation="3.3374252"
     id="feGaussianBlur1675" /></filter><clipPath
   id="clipPath762">
      <path
   d="M 0,1 H 8 V 8.109375 H 0 Z m 0,0"
   id="path5794" />
    </clipPath>
  <clipPath
   id="clipPath2629">
      <path
   d="M 0,1 H 8 V 8.109375 H 0 Z m 0,0"
   id="path1438" />
    </clipPath>
  
    
    
    
    
  

    
    
    
    
    
    
    
    
    
    
  
      
    
      
    
      
    
      
    
      
    
      
    
      
    
      
    
      
    
      
    
        
        
      
        
      
        
      
        
      
        
      
        
      
        
      
        
      
        
      
        
      
          
        <clipPath
   clipPathUnits="userSpaceOnUse"
   id="clipPath4446"><g
     id="g4454"><g
       id="g4452"><g
         id="g4450"><path
           d="m 66.590925,137.22025 h 5 v 6.74609 h -5 z m 0,0"
           id="path4448" /></g></g></g></clipPath>
          
        <clipPath
   clipPathUnits="userSpaceOnUse"
   id="clipPath4483"><g
     id="g4491"><g
       id="g4489"><g
         id="g4487"><path
           d="m 32.590925,137.22025 h 11 v 6.74609 h -11 z m 0,0"
           id="path4485" /></g></g></g></clipPath>
          
        <clipPath
   clipPathUnits="userSpaceOnUse"
   id="clipPath4520"><g
     id="g4528"><g
       id="g4526"><g
         id="g4524"><path
           d="m 61.590925,138.22025 h 4 v 5.74609 h -4 z m 0,0"
           id="path4522" /></g></g></g></clipPath>
          
        <clipPath
   clipPathUnits="userSpaceOnUse"
   id="clipPath4557"><g
     id="g4565"><g
       id="g4563"><g
         id="g4561"><path
           d="m 80.590925,138.22025 h 4 v 5.74609 h -4 z m 0,0"
           id="path4559" /></g></g></g></clipPath>
          
        <clipPath
   clipPathUnits="userSpaceOnUse"
   id="clipPath4594"><g
     id="g4602"><g
       id="g4600"><g
         id="g4598"><path
           d="m 71.590925,138.22025 h 4 v 5.74609 h -4 z m 0,0"
           id="path4596" /></g></g></g></clipPath>
          
        <clipPath
   clipPathUnits="userSpaceOnUse"
   id="clipPath4631"><g
     id="g4639"><g
       id="g4637"><g
         id="g4635"><path
           d="m 32.590925,137.22025 h 11 v 6.74609 h -11 z m 0,0"
           id="path4633" /></g></g></g></clipPath><clipPath
   id="clipPath7286">
      <path
   d="m 24,0 h 5 v 9.964844 h -5 z m 0,0"
   id="path4134" />
    </clipPath>
    <clipPath
   id="clipPath5974">
      <path
   d="m 30,0 h 3 v 9.964844 h -3 z m 0,0"
   id="path356" />
    </clipPath>
    <clipPath
   id="clipPath4543">
      <path
   d="m 33,3 h 8 v 6.964844 h -8 z m 0,0"
   id="path4081" />
    </clipPath>
    <clipPath
   id="clipPath5169">
      <path
   d="m 43,3 h 5 v 6.964844 h -5 z m 0,0"
   id="path3079" />
    </clipPath>
    <clipPath
   id="clipPath9093">
      <path
   d="m 49,6 h 2 v 3.964844 h -2 z m 0,0"
   id="path2077" />
    </clipPath>
    <clipPath
   id="clipPath9212">
      <path
   d="m 53,0 h 8 v 9.964844 h -8 z m 0,0"
   id="path7811" />
    </clipPath>
    <clipPath
   id="clipPath2295">
      <path
   d="m 70,3 h 8 v 6.964844 h -8 z m 0,0"
   id="path6013" />
    </clipPath>
    <clipPath
   id="clipPath5321">
      <path
   d="m 80,3 h 5 v 6.964844 h -5 z m 0,0"
   id="path7884" />
    </clipPath>
    <clipPath
   id="clipPath1645">
      <path
   d="m 105,0 h 4 v 9.964844 h -4 z m 0,0"
   id="path3327" />
    </clipPath>
  <filter
   inkscape:collect="always"
   style="color-interpolation-filters:sRGB"
   id="filter10620"
   x="-0.51984685"
   y="-0.51984685"
   width="2.0396937"
   height="2.0396937"><feGaussianBlur
     inkscape:collect="always"
     stdDeviation="1.2987841"
     id="feGaussianBlur10622" /></filter></defs><defs
   id="defs192"><clipPath
     id="pde6e611a2f"><rect
       height="207.93828"
       width="192.8"
       x="10.7"
       y="10.7"
       id="rect186" /></clipPath><clipPath
     id="p06ee07b343"><rect
       height="207.93828"
       width="192.8"
       x="221.3"
       y="10.7"
       id="rect189" /></clipPath></defs><rect
   style="opacity:0.908028;fill:#aaeeff;stroke:none;stroke-width:2.66647;stroke-linecap:round;stroke-dasharray:none;paint-order:markers fill stroke;filter:url(#filter1673)"
   id="rect1308"
   width="225.32661"
   height="165.82938"
   x="398.28885"
   y="362.39941"
   transform="matrix(1.2814031,0,-0.89974604,0.91238755,-15.69856,-207.2691)" /><path
   style="fill:none;stroke:#000000;stroke-width:2.25;stroke-linecap:butt;stroke-linejoin:miter;stroke-dasharray:none;stroke-opacity:1;marker-end:url(#TriangleStart)"
   d="M 181.72086,151.66882 64.807891,269.74301"
   id="path467"
   sodipodi:nodetypes="cc" /><path
   style="fill:none;stroke:#000000;stroke-width:2.25;stroke-linecap:butt;stroke-linejoin:miter;stroke-dasharray:none;stroke-opacity:1;marker-end:url(#TriangleStart)"
   d="M 181.72086,153.07955 V 14.633785"
   id="path469"
   sodipodi:nodetypes="cc" /><path
   style="fill:none;stroke:#000000;stroke-width:2.25;stroke-linecap:butt;stroke-linejoin:miter;stroke-dasharray:none;stroke-opacity:1;marker-end:url(#TriangleStart)"
   d="M 181.72086,151.66882 H 420.07477"
   id="path1609" /><path
   style="fill:none;stroke:#000000;stroke-width:1.5;stroke-linecap:butt;stroke-linejoin:miter;stroke-dasharray:4.5, 4.5;stroke-dashoffset:0;stroke-opacity:1"
   d="m 179.45044,41.13564 123.13619,63.44428"
   id="path1641"
   sodipodi:nodetypes="cc" /><path
   style="fill:none;stroke:#000000;stroke-width:1.5;stroke-linecap:butt;stroke-linejoin:miter;stroke-dasharray:4.5, 4.5;stroke-dashoffset:0;stroke-opacity:1"
   d="m 304.78583,214.33141 -2.1992,-108.85584"
   id="path1649"
   sodipodi:nodetypes="cc" /><path
   style="fill:none;stroke:#000000;stroke-width:1.5;stroke-linecap:butt;stroke-linejoin:miter;stroke-dasharray:4.5, 4.5;stroke-dashoffset:0;stroke-opacity:1"
   d="m 181.72086,151.66882 123.06497,62.66259 h -185.3341"
   id="path1657" /><path
   style="fill:none;stroke:#000000;stroke-width:1.5;stroke-linecap:butt;stroke-linejoin:miter;stroke-dasharray:4.5, 4.5;stroke-dashoffset:0;stroke-opacity:1"
   d="m 304.78583,214.33141 62.66259,-62.66259"
   id="path1665" /><g
   inkscape:label=""
   transform="matrix(2.2380566,0,0,2.2380566,333.41772,44.67815)"
   id="g2401"><g
   id="surface2"
   transform="translate(-0.15625,0.13)">
    <g
   clip-path="url(#clipPath762)"
   clip-rule="nonzero"
   id="g25">
      <g
   style="fill:#000000;fill-opacity:1"
   id="g23">
        <g
   id="use21"
   transform="translate(0,8.1099997)">
          <path
   style="stroke:none"
   d="M 2.671875,-3.125 H 3.03125 l 1.5,2.3125 C 4.625,-0.65625 4.859375,-0.265625 4.96875,-0.125 5.046875,0 5.078125,0 5.296875,0 h 1.375 c 0.1875,0 0.34375,0 0.34375,-0.171875 0,-0.09375 -0.0625,-0.15625 -0.15625,-0.171875 C 6.484375,-0.421875 6,-1.09375 5.765625,-1.40625 5.6875,-1.5 5.1875,-2.15625 4.53125,-3.234375 5.40625,-3.40625 6.265625,-3.78125 6.265625,-4.96875 6.265625,-6.34375 4.8125,-6.828125 3.625,-6.828125 H 0.5 c -0.1875,0 -0.34375,0 -0.34375,0.171875 0,0.171875 0.1875,0.171875 0.265625,0.171875 0.578125,0 0.625,0.078125 0.625,0.578125 v 4.984375 c 0,0.5 -0.046875,0.578125 -0.625,0.578125 -0.078125,0 -0.265625,0 -0.265625,0.171875 C 0.15625,0 0.3125,0 0.5,0 H 3.234375 C 3.40625,0 3.5625,0 3.5625,-0.171875 c 0,-0.171875 -0.171875,-0.171875 -0.28125,-0.171875 -0.5625,0 -0.609375,-0.078125 -0.609375,-0.578125 z m 1.921875,-0.5 c 0.28125,-0.359375 0.3125,-0.890625 0.3125,-1.328125 0,-0.484375 -0.0625,-1.015625 -0.375,-1.421875 0.40625,0.09375 1.390625,0.40625 1.390625,1.40625 0,0.65625 -0.296875,1.15625 -1.328125,1.34375 z M 2.671875,-5.9375 c 0,-0.21875 0,-0.546875 0.625,-0.546875 0.84375,0 1.265625,0.359375 1.265625,1.53125 0,1.28125 -0.3125,1.46875 -1.890625,1.46875 z M 1.3125,-0.34375 C 1.390625,-0.53125 1.390625,-0.8125 1.390625,-0.890625 V -5.9375 c 0,-0.09375 0,-0.359375 -0.078125,-0.546875 h 1.140625 c -0.125,0.171875 -0.125,0.359375 -0.125,0.515625 v 5.078125 c 0,0.09375 0,0.359375 0.078125,0.546875 z M 3.4375,-3.125 c 0.078125,-0.015625 0.109375,-0.03125 0.1875,-0.03125 0.15625,0 0.375,-0.015625 0.515625,-0.03125 0.15625,0.234375 1.234375,2.015625 2.0625,2.84375 h -0.96875 z m 0,0"
   id="path36" />
        </g>
      </g>
    </g>
    <g
   style="fill:#000000;fill-opacity:1"
   id="g29">
      <g
   id="use27"
   transform="translate(7.1950002,4.4949999)">
        <path
   style="stroke:none"
   d="m 1.90625,-2.328125 c 0.546875,0 0.9375,0.375 0.9375,1.125 0,0.859375 -0.515625,1.125 -0.90625,1.125 -0.28125,0 -0.90625,-0.078125 -1.1875,-0.5 0.328125,0 0.40625,-0.234375 0.40625,-0.390625 0,-0.21875 -0.171875,-0.375 -0.390625,-0.375 -0.1875,0 -0.390625,0.125 -0.390625,0.40625 0,0.65625 0.71875,1.078125 1.5625,1.078125 0.96875,0 1.640625,-0.65625 1.640625,-1.34375 0,-0.546875 -0.4375,-1.09375 -1.203125,-1.25 0.71875,-0.265625 0.984375,-0.78125 0.984375,-1.21875 0,-0.546875 -0.625,-0.953125 -1.40625,-0.953125 -0.765625,0 -1.359375,0.375 -1.359375,0.9375 0,0.234375 0.15625,0.359375 0.359375,0.359375 0.21875,0 0.359375,-0.15625 0.359375,-0.34375 0,-0.203125 -0.140625,-0.359375 -0.359375,-0.375 0.25,-0.296875 0.71875,-0.375 0.984375,-0.375 0.3125,0 0.75,0.15625 0.75,0.75 0,0.296875 -0.09375,0.625 -0.28125,0.828125 -0.21875,0.265625 -0.421875,0.28125 -0.765625,0.3125 -0.171875,0.015625 -0.1875,0.015625 -0.21875,0.015625 -0.015625,0 -0.078125,0.015625 -0.078125,0.09375 0,0.09375 0.0625,0.09375 0.1875,0.09375 z m 0,0"
   id="path40" />
      </g>
    </g>
  </g>
</g><path
   style="clip-rule:nonzero;fill:#000000;fill-opacity:1;stroke:none"
   d="m 35.712531,139.01263 c 0.0625,-0.25 0.296875,-1.17188 0.984375,-1.17188 0.04687,0 0.296875,0 0.5,0.125 -0.28125,0.0625 -0.46875,0.29688 -0.46875,0.54688 0,0.15625 0.109375,0.34375 0.375,0.34375 0.21875,0 0.53125,-0.17188 0.53125,-0.57813 0,-0.51562 -0.578125,-0.65625 -0.921875,-0.65625 -0.578125,0 -0.921875,0.53125 -1.046875,0.75 -0.25,-0.65625 -0.78125,-0.75 -1.078125,-0.75 -1.03125,0 -1.609375,1.28125 -1.609375,1.53125 0,0.10938 0.109375,0.10938 0.125,0.10938 0.07813,0 0.109375,-0.0312 0.125,-0.10938 0.34375,-1.0625 1,-1.3125 1.34375,-1.3125 0.1875,0 0.53125,0.0937 0.53125,0.67188 0,0.3125 -0.171875,0.96875 -0.53125,2.375 -0.15625,0.60937 -0.515625,1.03125 -0.953125,1.03125 -0.0625,0 -0.28125,0 -0.5,-0.125 0.25,-0.0625 0.46875,-0.26563 0.46875,-0.54688 0,-0.26562 -0.21875,-0.34375 -0.359375,-0.34375 -0.3125,0 -0.546875,0.25 -0.546875,0.57813 0,0.45312 0.484375,0.65625 0.921875,0.65625 0.671875,0 1.03125,-0.70313 1.046875,-0.75 0.125,0.35937 0.484375,0.75 1.078125,0.75 1.03125,0 1.59375,-1.28125 1.59375,-1.53125 0,-0.10938 -0.07813,-0.10938 -0.109375,-0.10938 -0.09375,0 -0.109375,0.0469 -0.140625,0.10938 -0.328125,1.07812 -1,1.3125 -1.3125,1.3125 -0.390625,0 -0.546875,-0.3125 -0.546875,-0.65625 0,-0.21875 0.04687,-0.4375 0.15625,-0.875 z m 0,0"
   id="path106"
   clip-path="url(#clipPath4483)"
   transform="matrix(2.7893364,0,0,2.7893364,-15.68601,-114.83763)" /><path
   style="clip-rule:nonzero;fill:#000000;fill-opacity:1;stroke:none"
   d="m 42.921781,138.23138 c 0.04687,-0.14063 0.04687,-0.15625 0.04687,-0.23438 0,-0.17187 -0.140625,-0.26562 -0.296875,-0.26562 -0.09375,0 -0.25,0.0625 -0.34375,0.20312 -0.01563,0.0625 -0.109375,0.35938 -0.140625,0.54688 -0.07813,0.25 -0.140625,0.53125 -0.203125,0.79687 l -0.453125,1.79688 c -0.03125,0.14062 -0.46875,0.84375 -1.125,0.84375 -0.5,0 -0.609375,-0.4375 -0.609375,-0.8125 0,-0.45313 0.171875,-1.07813 0.5,-1.95313 0.15625,-0.40625 0.203125,-0.51562 0.203125,-0.71875 0,-0.4375 -0.3125,-0.8125 -0.8125,-0.8125 -0.953125,0 -1.3125,1.45313 -1.3125,1.53125 0,0.10938 0.09375,0.10938 0.109375,0.10938 0.109375,0 0.109375,-0.0312 0.15625,-0.1875 0.28125,-0.9375 0.671875,-1.23438 1.015625,-1.23438 0.07813,0 0.25,0 0.25,0.3125 0,0.25 -0.109375,0.51563 -0.171875,0.70313 -0.40625,1.0625 -0.578125,1.625 -0.578125,2.09375 0,0.89062 0.625,1.1875 1.21875,1.1875 0.390625,0 0.71875,-0.17188 1,-0.45313 -0.125,0.51563 -0.25,1.01563 -0.640625,1.54688 -0.265625,0.32812 -0.640625,0.625 -1.09375,0.625 -0.140625,0 -0.59375,-0.0312 -0.765625,-0.42188 0.15625,0 0.296875,0 0.421875,-0.125 0.109375,-0.0781 0.203125,-0.21875 0.203125,-0.40625 0,-0.3125 -0.265625,-0.34375 -0.359375,-0.34375 -0.234375,0 -0.5625,0.15625 -0.5625,0.64063 0,0.5 0.4375,0.875 1.0625,0.875 1.015625,0 2.046875,-0.90625 2.328125,-2.03125 z m 0,0"
   id="path110"
   clip-path="url(#clipPath4631)"
   transform="matrix(2.7893364,0,0,2.7893364,316.40477,-224.29336)" />
      
    <path
   style="fill:#000000;fill-opacity:1;stroke:none;stroke-width:2.78933"
   d="m 194.80136,20.873659 c 1.48183,-1.61259 2.30992,-2.30994 3.31234,-3.1816 0,0 1.69975,-1.48184 2.70216,-2.48424 2.65859,-2.57144 3.26876,-3.9225 3.26876,-4.05327 0,-0.26135 -0.26149,-0.26135 -0.30509,-0.26135 -0.21792,0 -0.26149,0.0434 -0.43583,0.30509 -0.82809,1.35108 -1.39466,1.78691 -2.04841,1.78691 -0.69735,0 -1.00242,-0.43583 -1.43825,-0.91524 -0.52302,-0.61017 -1.00243,-1.17676 -1.91767,-1.17676 -2.09201,0 -3.35593,2.57143 -3.35593,3.1816 0,0.13079 0.0871,0.30506 0.30508,0.30506 0.26152,0 0.30509,-0.1308 0.39226,-0.30506 0.52301,-1.30752 2.13558,-1.30752 2.3535,-1.30752 0.56658,0 1.08958,0.17439 1.74334,0.39226 1.13317,0.43583 1.43824,0.43583 2.13559,0.43583 -1.00242,1.17676 -3.31235,3.18159 -3.83534,3.61742 l -2.52783,2.35352 c -1.8741,1.87406 -2.87651,3.44306 -2.87651,3.66099 0,0.26136 0.30508,0.26136 0.34867,0.26136 0.21791,0 0.2615,-0.0436 0.43583,-0.34866 0.65375,-1.00244 1.48184,-1.74333 2.39709,-1.74333 0.61016,0 0.91524,0.26135 1.61259,1.046 0.43583,0.61015 0.95881,1.04599 1.74333,1.04599 2.78933,0 4.40192,-3.53026 4.40192,-4.27117 0,-0.13079 -0.13079,-0.3051 -0.34867,-0.3051 -0.2615,0 -0.30508,0.1744 -0.39226,0.39228 -0.65375,1.78689 -2.44066,2.3099 -3.35593,2.3099 -0.52298,0 -1.04599,-0.17439 -1.61256,-0.34868 -0.95884,-0.34865 -1.39469,-0.47939 -1.96127,-0.47939 -0.0436,0 -0.47941,0 -0.74091,0.087 z m 0,0"
   id="path114" /><path
   style="fill:#000000;fill-opacity:1;stroke:none;stroke-width:1.54829"
   d="m 174.4086,144.34715 c 0,-2.49178 -1.64506,-4.16104 -3.9433,-4.16104 -3.31432,0 -6.7254,3.50786 -6.7254,7.11247 0,2.56436 1.74183,4.11265 3.9675,4.11265 3.26593,0 6.7012,-3.38689 6.7012,-7.06408 z m -6.62862,6.65282 c -1.5241,0 -2.58855,-1.2338 -2.58855,-3.26593 0,-0.70156 0.21772,-2.95143 1.40313,-4.74165 1.06446,-1.62086 2.56436,-2.4192 3.79816,-2.4192 1.25799,0 2.63693,0.87091 2.63693,3.16916 0,1.11284 -0.41126,3.50785 -1.93536,5.41903 -0.74996,0.94348 -2.00794,1.83859 -3.31431,1.83859 z m 0,0"
   id="path118" />
      <g
   id="g4767"
   transform="translate(27.324597,94.45247)"><path
     style="fill:#000000;fill-opacity:1;stroke:none;stroke-width:1.54829"
     d="m 78.065748,113.34869 c 0.09677,-0.38707 0.45965,-1.81441 1.5241,-1.81441 0.07257,0 0.45965,0 0.774146,0.19354 -0.435457,0.0968 -0.725761,0.45965 -0.725761,0.84673 0,0.24192 0.169344,0.53222 0.580609,0.53222 0.338689,0 0.82253,-0.26612 0.82253,-0.89511 0,-0.79833 -0.895106,-1.01607 -1.427332,-1.01607 -0.895106,0 -1.427331,0.82253 -1.620868,1.16122 -0.387073,-1.01607 -1.209603,-1.16122 -1.669252,-1.16122 -1.596677,0 -2.491783,1.98375 -2.491783,2.37082 0,0.16935 0.169344,0.16935 0.193537,0.16935 0.120968,0 0.169344,-0.0483 0.193536,-0.16935 0.532225,-1.64506 1.548292,-2.03213 2.080518,-2.03213 0.290304,0 0.82253,0.14507 0.82253,1.04027 0,0.48384 -0.266113,1.4999 -0.82253,3.67719 -0.241921,0.94348 -0.798339,1.59668 -1.475716,1.59668 -0.09677,0 -0.435457,0 -0.774146,-0.19354 0.387073,-0.0968 0.725762,-0.41127 0.725762,-0.84673 0,-0.41126 -0.338689,-0.53223 -0.556418,-0.53223 -0.483841,0 -0.846722,0.38708 -0.846722,0.89512 0,0.70156 0.749954,1.01606 1.427332,1.01606 1.040258,0 1.596676,-1.08865 1.620868,-1.16121 0.193536,0.55641 0.749954,1.16121 1.669252,1.16121 1.596677,0 2.467591,-1.98374 2.467591,-2.37082 0,-0.16935 -0.120968,-0.16935 -0.169344,-0.16935 -0.145153,0 -0.169345,0.0726 -0.217729,0.16935 -0.508033,1.66925 -1.548292,2.03214 -2.032133,2.03214 -0.604802,0 -0.846723,-0.48385 -0.846723,-1.01607 0,-0.33869 0.07257,-0.67738 0.241921,-1.35476 z m 0,0"
     id="path122" /><path
     style="clip-rule:nonzero;fill:#000000;fill-opacity:1;stroke:none"
     d="m 65.554674,141.3035 c 0,-0.76562 -0.09375,-1.32812 -0.40625,-1.8125 -0.21875,-0.3125 -0.65625,-0.59375 -1.203125,-0.59375 -1.625,0 -1.625,1.90625 -1.625,2.40625 0,0.5 0,2.35938 1.625,2.35938 1.609375,0 1.609375,-1.85938 1.609375,-2.35938 z m -1.609375,2.15625 c -0.328125,0 -0.75,-0.1875 -0.890625,-0.75 -0.09375,-0.40625 -0.09375,-0.98437 -0.09375,-1.5 0,-0.51562 0,-1.04687 0.09375,-1.42187 0.15625,-0.54688 0.59375,-0.70313 0.890625,-0.70313 0.375,0 0.734375,0.23438 0.859375,0.64063 0.109375,0.375 0.125,0.875 0.125,1.48437 0,0.51563 0,1.03125 -0.09375,1.46875 -0.140625,0.64063 -0.609375,0.78125 -0.890625,0.78125 z m 0,0"
     id="path126"
     clip-path="url(#clipPath4520)"
     transform="matrix(1.5482921,0,0,1.5482921,-14.212238,-101.88347)" /></g>
    
      
    <g
   id="g4777"
   transform="translate(273.96659,25.984138)"><path
     style="clip-rule:nonzero;fill:#000000;fill-opacity:1;stroke:none"
     d="m 71.273676,138.23138 c 0.04687,-0.14063 0.04687,-0.15625 0.04687,-0.23438 0,-0.17187 -0.140625,-0.26562 -0.296875,-0.26562 -0.09375,0 -0.25,0.0625 -0.34375,0.20312 -0.01563,0.0625 -0.109375,0.35938 -0.140625,0.54688 -0.07813,0.25 -0.140625,0.53125 -0.203125,0.79687 l -0.453125,1.79688 c -0.03125,0.14062 -0.46875,0.84375 -1.125,0.84375 -0.5,0 -0.609375,-0.4375 -0.609375,-0.8125 0,-0.45313 0.171875,-1.07813 0.5,-1.95313 0.15625,-0.40625 0.203125,-0.51562 0.203125,-0.71875 0,-0.4375 -0.3125,-0.8125 -0.8125,-0.8125 -0.953125,0 -1.3125,1.45313 -1.3125,1.53125 0,0.10938 0.09375,0.10938 0.109375,0.10938 0.109375,0 0.109375,-0.0312 0.15625,-0.1875 0.28125,-0.9375 0.671875,-1.23438 1.015625,-1.23438 0.07813,0 0.25,0 0.25,0.3125 0,0.25 -0.109375,0.51563 -0.171875,0.70313 -0.40625,1.0625 -0.578125,1.625 -0.578125,2.09375 0,0.89062 0.625,1.1875 1.21875,1.1875 0.390625,0 0.71875,-0.17188 1,-0.45313 -0.125,0.51563 -0.25,1.01563 -0.640625,1.54688 -0.265625,0.32812 -0.640625,0.625 -1.09375,0.625 -0.140625,0 -0.59375,-0.0312 -0.765625,-0.42188 0.15625,0 0.296875,0 0.421875,-0.125 0.109375,-0.0781 0.203125,-0.21875 0.203125,-0.40625 0,-0.3125 -0.265625,-0.34375 -0.359375,-0.34375 -0.234375,0 -0.5625,0.15625 -0.5625,0.64063 0,0.5 0.4375,0.875 1.0625,0.875 1.015625,0 2.046875,-0.90625 2.328125,-2.03125 z m 0,0"
     id="path130"
     clip-path="url(#clipPath4446)"
     transform="matrix(1.5482921,0,0,1.5482921,-14.212238,-101.88347)" /><path
     style="clip-rule:nonzero;fill:#000000;fill-opacity:1;stroke:none"
     d="m 74.908674,141.3035 c 0,-0.76562 -0.09375,-1.32812 -0.40625,-1.8125 -0.21875,-0.3125 -0.65625,-0.59375 -1.203125,-0.59375 -1.625,0 -1.625,1.90625 -1.625,2.40625 0,0.5 0,2.35938 1.625,2.35938 1.609375,0 1.609375,-1.85938 1.609375,-2.35938 z m -1.609375,2.15625 c -0.328125,0 -0.75,-0.1875 -0.890625,-0.75 -0.09375,-0.40625 -0.09375,-0.98437 -0.09375,-1.5 0,-0.51562 0,-1.04687 0.09375,-1.42187 0.15625,-0.54688 0.59375,-0.70313 0.890625,-0.70313 0.375,0 0.734375,0.23438 0.859375,0.64063 0.109375,0.375 0.125,0.875 0.125,1.48437 0,0.51563 0,1.03125 -0.09375,1.46875 -0.140625,0.64063 -0.609375,0.78125 -0.890625,0.78125 z m 0,0"
     id="path134"
     clip-path="url(#clipPath4594)"
     transform="matrix(1.5482921,0,0,1.5482921,-14.212238,-101.88347)" /></g>
      
    <g
   id="g4787"
   transform="translate(60.822874,-73.503514)"><path
     style="fill:#000000;fill-opacity:1;stroke:none;stroke-width:1.54829"
     d="m 105.17974,116.73558 c 0.82253,-0.89511 1.28218,-1.28219 1.8386,-1.76603 0,0 0.94349,-0.82253 1.49991,-1.37894 1.47571,-1.42734 1.8144,-2.17728 1.8144,-2.24987 0,-0.14507 -0.14515,-0.14507 -0.16934,-0.14507 -0.12097,0 -0.14515,0.0241 -0.24192,0.16935 -0.45965,0.74995 -0.77415,0.99187 -1.13703,0.99187 -0.38707,0 -0.55642,-0.24192 -0.79834,-0.50803 -0.2903,-0.33869 -0.55641,-0.65319 -1.06445,-0.65319 -1.16122,0 -1.86279,1.42734 -1.86279,1.76603 0,0.0726 0.0484,0.16933 0.16935,0.16933 0.14515,0 0.16934,-0.0726 0.21773,-0.16933 0.2903,-0.72577 1.18541,-0.72577 1.30637,-0.72577 0.31449,0 0.6048,0.0968 0.96768,0.21773 0.62899,0.24192 0.79834,0.24192 1.18541,0.24192 -0.55642,0.65319 -1.8386,1.76602 -2.1289,2.00794 l -1.40314,1.30638 c -1.04026,1.04025 -1.59668,1.91116 -1.59668,2.03213 0,0.14507 0.16935,0.14507 0.19354,0.14507 0.12097,0 0.14515,-0.0242 0.24192,-0.19353 0.36288,-0.55643 0.82253,-0.96768 1.33056,-0.96768 0.33869,0 0.50804,0.14507 0.89511,0.58061 0.24192,0.33868 0.53223,0.5806 0.96768,0.5806 1.5483,0 2.4434,-1.95956 2.4434,-2.37082 0,-0.0726 -0.0726,-0.16935 -0.19353,-0.16935 -0.14516,0 -0.16935,0.0968 -0.21773,0.21774 -0.36288,0.99186 -1.35476,1.28217 -1.86279,1.28217 -0.29031,0 -0.58061,-0.0968 -0.89511,-0.19354 -0.53222,-0.19353 -0.77414,-0.2661 -1.08864,-0.2661 -0.0242,0 -0.26611,0 -0.41127,0.0483 z m 0,0"
     id="path138" /><path
     style="clip-rule:nonzero;fill:#000000;fill-opacity:1;stroke:none"
     d="m 84.010675,141.3035 c 0,-0.76562 -0.09375,-1.32812 -0.40625,-1.8125 -0.21875,-0.3125 -0.65625,-0.59375 -1.203125,-0.59375 -1.625,0 -1.625,1.90625 -1.625,2.40625 0,0.5 0,2.35938 1.625,2.35938 1.609375,0 1.609375,-1.85938 1.609375,-2.35938 z m -1.609375,2.15625 c -0.328125,0 -0.75,-0.1875 -0.890625,-0.75 -0.09375,-0.40625 -0.09375,-0.98437 -0.09375,-1.5 0,-0.51562 0,-1.04687 0.09375,-1.42187 0.15625,-0.54688 0.59375,-0.70313 0.890625,-0.70313 0.375,0 0.734375,0.23438 0.859375,0.64063 0.109375,0.375 0.125,0.875 0.125,1.48437 0,0.51563 0,1.03125 -0.09375,1.46875 -0.140625,0.64063 -0.609375,0.78125 -0.890625,0.78125 z m 0,0"
     id="path142"
     clip-path="url(#clipPath4557)"
     transform="matrix(1.5482921,0,0,1.5482921,-14.212238,-101.88347)" /></g>
      
    <g
   inkscape:label=""
   transform="matrix(2.0770618,0,0,2.0770618,104.25927,242.04199)"
   id="g6369"><g
   id="g6367"
   transform="translate(-0.546875,0.0123749)">
    <g
   style="fill:#000000;fill-opacity:1"
   id="g86">
      <g
   id="use84"
   transform="translate(0,7.4720001)">
        <path
   style="stroke:none"
   d="m 9.140625,-5.65625 c 0.25,-0.4375 0.484375,-0.796875 1.125,-0.84375 0.07813,-0.015625 0.1875,-0.015625 0.1875,-0.203125 0,-0.03125 -0.04687,-0.109375 -0.125,-0.109375 -0.234375,0 -0.515625,0.03125 -0.765625,0.03125 -0.34375,0 -0.703125,-0.03125 -1.046875,-0.03125 -0.046875,0 -0.1875,0 -0.1875,0.1875 0,0.109375 0.09375,0.125 0.15625,0.125 0.234375,0.015625 0.59375,0.09375 0.59375,0.390625 0,0.109375 -0.0625,0.1875 -0.140625,0.328125 L 6.25,-1.09375 5.875,-6.03125 c 0,-0.203125 -0.015625,-0.453125 0.703125,-0.46875 0.171875,0 0.265625,0 0.265625,-0.203125 0,-0.09375 -0.109375,-0.109375 -0.140625,-0.109375 -0.40625,0 -0.828125,0.03125 -1.21875,0.03125 -0.234375,0 -0.8125,-0.03125 -1.046875,-0.03125 -0.0625,0 -0.1875,0 -0.1875,0.203125 C 4.25,-6.5 4.34375,-6.5 4.484375,-6.5 4.921875,-6.5 5,-6.4375 5.015625,-6.25 l 0.0625,0.765625 -2.53125,4.390625 -0.375,-5.046875 c 0,-0.125 0,-0.34375 0.765625,-0.359375 0.09375,0 0.203125,0 0.203125,-0.203125 C 3.140625,-6.8125 3.015625,-6.8125 3,-6.8125 c -0.390625,0 -0.8125,0.03125 -1.21875,0.03125 -0.359375,0 -0.71875,-0.03125 -1.046875,-0.03125 -0.0625,0 -0.1875,0 -0.1875,0.1875 0,0.125 0.09375,0.125 0.25,0.125 0.5,0 0.515625,0.09375 0.53125,0.375 l 0.453125,6.078125 c 0,0.1875 0.015625,0.265625 0.15625,0.265625 0.109375,0 0.140625,-0.0625 0.234375,-0.203125 l 2.9375,-5.09375 0.359375,5.03125 C 5.5,0.171875 5.515625,0.21875 5.625,0.21875 c 0.140625,0 0.203125,-0.09375 0.25,-0.1875 z m 0,0"
   id="path169" />
      </g>
    </g>
    <g
   style="fill:#000000;fill-opacity:1"
   id="g90">
      <g
   id="use88"
   transform="translate(13.56,7.4720001)">
        <path
   style="stroke:none"
   d="m 6.84375,-3.265625 c 0.15625,0 0.34375,0 0.34375,-0.1875 C 7.1875,-3.65625 7,-3.65625 6.859375,-3.65625 h -5.96875 c -0.140625,0 -0.328125,0 -0.328125,0.203125 0,0.1875 0.1875,0.1875 0.328125,0.1875 z m 0.015625,1.9375 c 0.140625,0 0.328125,0 0.328125,-0.203125 0,-0.1875 -0.1875,-0.1875 -0.34375,-0.1875 H 0.890625 c -0.140625,0 -0.328125,0 -0.328125,0.1875 0,0.203125 0.1875,0.203125 0.328125,0.203125 z m 0,0"
   id="path173" />
      </g>
    </g>
    <g
   clip-path="url(#clipPath7286)"
   clip-rule="nonzero"
   id="g96">
      <g
   style="fill:#000000;fill-opacity:1"
   id="g94">
        <g
   id="use92"
   transform="translate(24.076,7.4720001)">
          <path
   style="stroke:none"
   d="m 2.828125,-6.15625 c 0,-0.390625 0.25,-1.03125 1.34375,-1.09375 C 4.21875,-7.265625 4.25,-7.3125 4.25,-7.359375 c 0,-0.125 -0.078125,-0.125 -0.1875,-0.125 -0.984375,0 -1.90625,0.515625 -1.90625,1.25 v 2.28125 c 0,0.390625 0,0.703125 -0.40625,1.03125 -0.34375,0.296875 -0.71875,0.3125 -0.9375,0.3125 C 0.75,-2.59375 0.71875,-2.546875 0.71875,-2.5 c 0,0.109375 0.0625,0.109375 0.15625,0.125 0.65625,0.03125 1.140625,0.390625 1.25,0.875 0.03125,0.109375 0.03125,0.140625 0.03125,0.5 v 1.96875 c 0,0.421875 0,0.734375 0.46875,1.109375 C 3.015625,2.375 3.671875,2.5 4.0625,2.5 4.171875,2.5 4.25,2.5 4.25,2.375 4.25,2.28125 4.203125,2.28125 4.09375,2.265625 3.46875,2.234375 2.984375,1.90625 2.84375,1.40625 2.828125,1.3125 2.828125,1.296875 2.828125,0.9375 v -2.09375 c 0,-0.453125 -0.09375,-0.625 -0.40625,-0.953125 C 2.21875,-2.3125 1.921875,-2.40625 1.640625,-2.5 c 0.828125,-0.21875 1.1875,-0.6875 1.1875,-1.265625 z m 0,0"
   id="path177" />
        </g>
      </g>
    </g>
    <g
   clip-path="url(#clipPath5974)"
   clip-rule="nonzero"
   id="g102">
      <g
   style="fill:#000000;fill-opacity:1"
   id="g100">
        <g
   id="use98"
   transform="translate(29.058001,7.4720001)">
          <path
   style="stroke:none"
   d="m 3.296875,2.390625 c 0,-0.03125 0,-0.046875 -0.171875,-0.21875 C 1.890625,0.921875 1.5625,-0.96875 1.5625,-2.5 c 0,-1.734375 0.375,-3.46875 1.609375,-4.703125 0.125,-0.125 0.125,-0.140625 0.125,-0.171875 0,-0.078125 -0.03125,-0.109375 -0.09375,-0.109375 -0.109375,0 -1,0.6875 -1.59375,1.953125 -0.5,1.09375 -0.625,2.203125 -0.625,3.03125 0,0.78125 0.109375,1.984375 0.65625,3.125 C 2.25,1.84375 3.09375,2.5 3.203125,2.5 c 0.0625,0 0.09375,-0.03125 0.09375,-0.109375 z m 0,0"
   id="path181" />
        </g>
      </g>
    </g>
    <g
   clip-path="url(#clipPath4543)"
   clip-rule="nonzero"
   id="g110">
      <g
   style="fill:#000000;fill-opacity:1"
   id="g108">
        <g
   id="use104"
   transform="translate(32.931999,7.4720001)">
          <path
   style="stroke:none"
   d="M 3.328125,-3.015625 C 3.390625,-3.265625 3.625,-4.1875 4.3125,-4.1875 c 0.046875,0 0.296875,0 0.5,0.125 C 4.53125,-4 4.34375,-3.765625 4.34375,-3.515625 c 0,0.15625 0.109375,0.34375 0.375,0.34375 0.21875,0 0.53125,-0.171875 0.53125,-0.578125 0,-0.515625 -0.578125,-0.65625 -0.921875,-0.65625 -0.578125,0 -0.921875,0.53125 -1.046875,0.75 -0.25,-0.65625 -0.78125,-0.75 -1.078125,-0.75 -1.03125,0 -1.609375,1.28125 -1.609375,1.53125 0,0.109375 0.109375,0.109375 0.125,0.109375 0.078125,0 0.109375,-0.03125 0.125,-0.109375 0.34375,-1.0625 1,-1.3125 1.34375,-1.3125 0.1875,0 0.53125,0.09375 0.53125,0.671875 0,0.3125 -0.171875,0.96875 -0.53125,2.375 -0.15625,0.609375 -0.515625,1.03125 -0.953125,1.03125 -0.0625,0 -0.28125,0 -0.5,-0.125 0.25,-0.0625 0.46875,-0.265625 0.46875,-0.546875 0,-0.265625 -0.21875,-0.34375 -0.359375,-0.34375 -0.3125,0 -0.546875,0.25 -0.546875,0.578125 0,0.453125 0.484375,0.65625 0.921875,0.65625 0.671875,0 1.03125,-0.703125 1.046875,-0.75 0.125,0.359375 0.484375,0.75 1.078125,0.75 1.03125,0 1.59375,-1.28125 1.59375,-1.53125 0,-0.109375 -0.078125,-0.109375 -0.109375,-0.109375 -0.09375,0 -0.109375,0.046875 -0.140625,0.109375 -0.328125,1.078125 -1,1.3125 -1.3125,1.3125 -0.390625,0 -0.546875,-0.3125 -0.546875,-0.65625 0,-0.21875 0.046875,-0.4375 0.15625,-0.875 z m 0,0"
   id="path185" />
        </g>
        <g
   id="use106"
   transform="translate(38.625626,7.4720001)">
          <path
   style="stroke:none"
   d="m 2.03125,-0.015625 c 0,-0.65625 -0.25,-1.046875 -0.640625,-1.046875 -0.328125,0 -0.53125,0.25 -0.53125,0.53125 C 0.859375,-0.265625 1.0625,0 1.390625,0 1.5,0 1.640625,-0.046875 1.734375,-0.125 1.765625,-0.15625 1.78125,-0.15625 1.78125,-0.15625 c 0.015625,0 0.015625,0 0.015625,0.140625 0,0.75 -0.34375,1.34375 -0.671875,1.671875 -0.109375,0.109375 -0.109375,0.125 -0.109375,0.15625 0,0.078125 0.046875,0.109375 0.09375,0.109375 0.109375,0 0.921875,-0.765625 0.921875,-1.9375 z m 0,0"
   id="path189" />
        </g>
      </g>
    </g>
    <g
   clip-path="url(#clipPath5169)"
   clip-rule="nonzero"
   id="g116">
      <g
   style="fill:#000000;fill-opacity:1"
   id="g114">
        <g
   id="use112"
   transform="translate(43.056992,7.4720001)">
          <path
   style="stroke:none"
   d="m 4.84375,-3.796875 c 0.046875,-0.140625 0.046875,-0.15625 0.046875,-0.234375 0,-0.171875 -0.140625,-0.265625 -0.296875,-0.265625 -0.09375,0 -0.25,0.0625 -0.34375,0.203125 -0.015625,0.0625 -0.109375,0.359375 -0.140625,0.546875 -0.078125,0.25 -0.140625,0.53125 -0.203125,0.796875 l -0.453125,1.796875 c -0.03125,0.140625 -0.46875,0.84375 -1.125,0.84375 -0.5,0 -0.609375,-0.4375 -0.609375,-0.8125 C 1.71875,-1.375 1.890625,-2 2.21875,-2.875 2.375,-3.28125 2.421875,-3.390625 2.421875,-3.59375 c 0,-0.4375 -0.3125,-0.8125 -0.8125,-0.8125 -0.953125,0 -1.3125,1.453125 -1.3125,1.53125 0,0.109375 0.09375,0.109375 0.109375,0.109375 0.109375,0 0.109375,-0.03125 0.15625,-0.1875 0.28125,-0.9375 0.671875,-1.234375 1.015625,-1.234375 0.078125,0 0.25,0 0.25,0.3125 0,0.25 -0.109375,0.515625 -0.171875,0.703125 -0.40625,1.0625 -0.578125,1.625 -0.578125,2.09375 0,0.890625 0.625,1.1875 1.21875,1.1875 0.390625,0 0.71875,-0.171875 1,-0.453125 -0.125,0.515625 -0.25,1.015625 -0.640625,1.546875 -0.265625,0.328125 -0.640625,0.625 -1.09375,0.625 -0.140625,0 -0.59375,-0.03125 -0.765625,-0.421875 0.15625,0 0.296875,0 0.421875,-0.125 C 1.328125,1.203125 1.421875,1.0625 1.421875,0.875 1.421875,0.5625 1.15625,0.53125 1.0625,0.53125 0.828125,0.53125 0.5,0.6875 0.5,1.171875 c 0,0.5 0.4375,0.875 1.0625,0.875 1.015625,0 2.046875,-0.90625 2.328125,-2.03125 z m 0,0"
   id="path193" />
        </g>
      </g>
    </g>
    <g
   clip-path="url(#clipPath9093)"
   clip-rule="nonzero"
   id="g122">
      <g
   style="fill:#000000;fill-opacity:1"
   id="g120">
        <g
   id="use118"
   transform="translate(48.300308,7.4720001)">
          <path
   style="stroke:none"
   d="m 2.03125,-0.015625 c 0,-0.65625 -0.25,-1.046875 -0.640625,-1.046875 -0.328125,0 -0.53125,0.25 -0.53125,0.53125 C 0.859375,-0.265625 1.0625,0 1.390625,0 1.5,0 1.640625,-0.046875 1.734375,-0.125 1.765625,-0.15625 1.78125,-0.15625 1.78125,-0.15625 c 0.015625,0 0.015625,0 0.015625,0.140625 0,0.75 -0.34375,1.34375 -0.671875,1.671875 -0.109375,0.109375 -0.109375,0.125 -0.109375,0.15625 0,0.078125 0.046875,0.109375 0.09375,0.109375 0.109375,0 0.921875,-0.765625 0.921875,-1.9375 z m 0,0"
   id="path197" />
        </g>
      </g>
    </g>
    <g
   clip-path="url(#clipPath9212)"
   clip-rule="nonzero"
   id="g130">
      <g
   style="fill:#000000;fill-opacity:1"
   id="g128">
        <g
   id="use124"
   transform="translate(52.723,7.4720001)">
          <path
   style="stroke:none"
   d="m 4.578125,-3.1875 c 0,-0.796875 -0.046875,-1.59375 -0.390625,-2.328125 -0.453125,-0.96875 -1.28125,-1.125 -1.6875,-1.125 -0.609375,0 -1.328125,0.265625 -1.75,1.1875 -0.3125,0.6875 -0.359375,1.46875 -0.359375,2.265625 0,0.75 0.03125,1.640625 0.453125,2.40625 0.421875,0.796875 1.15625,1 1.640625,1 0.53125,0 1.296875,-0.203125 1.734375,-1.15625 0.3125,-0.6875 0.359375,-1.46875 0.359375,-2.25 z M 2.484375,0 C 2.09375,0 1.5,-0.25 1.328125,-1.203125 1.21875,-1.796875 1.21875,-2.71875 1.21875,-3.3125 c 0,-0.640625 0,-1.296875 0.078125,-1.828125 0.1875,-1.1875 0.9375,-1.28125 1.1875,-1.28125 0.328125,0 0.984375,0.1875 1.171875,1.171875 0.109375,0.5625 0.109375,1.3125 0.109375,1.9375 0,0.75 0,1.421875 -0.109375,2.0625 C 3.5,-0.296875 2.9375,0 2.484375,0 Z m 0,0"
   id="path201" />
        </g>
        <g
   id="use126"
   transform="translate(57.7043,7.4720001)">
          <path
   style="stroke:none"
   d="m 2.875,-2.5 c 0,-0.765625 -0.109375,-1.96875 -0.65625,-3.109375 -0.59375,-1.21875 -1.453125,-1.875 -1.546875,-1.875 -0.0625,0 -0.109375,0.046875 -0.109375,0.109375 0,0.03125 0,0.046875 0.1875,0.234375 0.984375,0.984375 1.546875,2.5625 1.546875,4.640625 0,1.71875 -0.359375,3.46875 -1.59375,4.71875 C 0.5625,2.34375 0.5625,2.359375 0.5625,2.390625 0.5625,2.453125 0.609375,2.5 0.671875,2.5 0.765625,2.5 1.671875,1.8125 2.25,0.546875 2.765625,-0.546875 2.875,-1.65625 2.875,-2.5 Z m 0,0"
   id="path205" />
        </g>
      </g>
    </g>
    <g
   style="fill:#000000;fill-opacity:1"
   id="g134">
      <g
   id="use132"
   transform="translate(64.348358,7.4720001)">
        <path
   style="stroke:none"
   d="m 1.90625,-3.765625 c 0,-0.296875 -0.234375,-0.53125 -0.515625,-0.53125 -0.296875,0 -0.53125,0.234375 -0.53125,0.53125 0,0.28125 0.234375,0.53125 0.53125,0.53125 0.28125,0 0.515625,-0.25 0.515625,-0.53125 z m 0,3.234375 c 0,-0.28125 -0.234375,-0.53125 -0.515625,-0.53125 -0.296875,0 -0.53125,0.25 -0.53125,0.53125 C 0.859375,-0.234375 1.09375,0 1.390625,0 1.671875,0 1.90625,-0.234375 1.90625,-0.53125 Z m 0,0"
   id="path209" />
      </g>
    </g>
    <g
   clip-path="url(#clipPath2295)"
   clip-rule="nonzero"
   id="g142">
      <g
   style="fill:#000000;fill-opacity:1"
   id="g140">
        <g
   id="use136"
   transform="translate(69.880997,7.4720001)">
          <path
   style="stroke:none"
   d="M 3.328125,-3.015625 C 3.390625,-3.265625 3.625,-4.1875 4.3125,-4.1875 c 0.046875,0 0.296875,0 0.5,0.125 C 4.53125,-4 4.34375,-3.765625 4.34375,-3.515625 c 0,0.15625 0.109375,0.34375 0.375,0.34375 0.21875,0 0.53125,-0.171875 0.53125,-0.578125 0,-0.515625 -0.578125,-0.65625 -0.921875,-0.65625 -0.578125,0 -0.921875,0.53125 -1.046875,0.75 -0.25,-0.65625 -0.78125,-0.75 -1.078125,-0.75 -1.03125,0 -1.609375,1.28125 -1.609375,1.53125 0,0.109375 0.109375,0.109375 0.125,0.109375 0.078125,0 0.109375,-0.03125 0.125,-0.109375 0.34375,-1.0625 1,-1.3125 1.34375,-1.3125 0.1875,0 0.53125,0.09375 0.53125,0.671875 0,0.3125 -0.171875,0.96875 -0.53125,2.375 -0.15625,0.609375 -0.515625,1.03125 -0.953125,1.03125 -0.0625,0 -0.28125,0 -0.5,-0.125 0.25,-0.0625 0.46875,-0.265625 0.46875,-0.546875 0,-0.265625 -0.21875,-0.34375 -0.359375,-0.34375 -0.3125,0 -0.546875,0.25 -0.546875,0.578125 0,0.453125 0.484375,0.65625 0.921875,0.65625 0.671875,0 1.03125,-0.703125 1.046875,-0.75 0.125,0.359375 0.484375,0.75 1.078125,0.75 1.03125,0 1.59375,-1.28125 1.59375,-1.53125 0,-0.109375 -0.078125,-0.109375 -0.109375,-0.109375 -0.09375,0 -0.109375,0.046875 -0.140625,0.109375 -0.328125,1.078125 -1,1.3125 -1.3125,1.3125 -0.390625,0 -0.546875,-0.3125 -0.546875,-0.65625 0,-0.21875 0.046875,-0.4375 0.15625,-0.875 z m 0,0"
   id="path213" />
        </g>
        <g
   id="use138"
   transform="translate(75.574623,7.4720001)">
          <path
   style="stroke:none"
   d="m 2.03125,-0.015625 c 0,-0.65625 -0.25,-1.046875 -0.640625,-1.046875 -0.328125,0 -0.53125,0.25 -0.53125,0.53125 C 0.859375,-0.265625 1.0625,0 1.390625,0 1.5,0 1.640625,-0.046875 1.734375,-0.125 1.765625,-0.15625 1.78125,-0.15625 1.78125,-0.15625 c 0.015625,0 0.015625,0 0.015625,0.140625 0,0.75 -0.34375,1.34375 -0.671875,1.671875 -0.109375,0.109375 -0.109375,0.125 -0.109375,0.15625 0,0.078125 0.046875,0.109375 0.09375,0.109375 0.109375,0 0.921875,-0.765625 0.921875,-1.9375 z m 0,0"
   id="path217" />
        </g>
      </g>
    </g>
    <g
   clip-path="url(#clipPath5321)"
   clip-rule="nonzero"
   id="g148">
      <g
   style="fill:#000000;fill-opacity:1"
   id="g146">
        <g
   id="use144"
   transform="translate(80.005989,7.4720001)">
          <path
   style="stroke:none"
   d="m 4.84375,-3.796875 c 0.046875,-0.140625 0.046875,-0.15625 0.046875,-0.234375 0,-0.171875 -0.140625,-0.265625 -0.296875,-0.265625 -0.09375,0 -0.25,0.0625 -0.34375,0.203125 -0.015625,0.0625 -0.109375,0.359375 -0.140625,0.546875 -0.078125,0.25 -0.140625,0.53125 -0.203125,0.796875 l -0.453125,1.796875 c -0.03125,0.140625 -0.46875,0.84375 -1.125,0.84375 -0.5,0 -0.609375,-0.4375 -0.609375,-0.8125 C 1.71875,-1.375 1.890625,-2 2.21875,-2.875 2.375,-3.28125 2.421875,-3.390625 2.421875,-3.59375 c 0,-0.4375 -0.3125,-0.8125 -0.8125,-0.8125 -0.953125,0 -1.3125,1.453125 -1.3125,1.53125 0,0.109375 0.09375,0.109375 0.109375,0.109375 0.109375,0 0.109375,-0.03125 0.15625,-0.1875 0.28125,-0.9375 0.671875,-1.234375 1.015625,-1.234375 0.078125,0 0.25,0 0.25,0.3125 0,0.25 -0.109375,0.515625 -0.171875,0.703125 -0.40625,1.0625 -0.578125,1.625 -0.578125,2.09375 0,0.890625 0.625,1.1875 1.21875,1.1875 0.390625,0 0.71875,-0.171875 1,-0.453125 -0.125,0.515625 -0.25,1.015625 -0.640625,1.546875 -0.265625,0.328125 -0.640625,0.625 -1.09375,0.625 -0.140625,0 -0.59375,-0.03125 -0.765625,-0.421875 0.15625,0 0.296875,0 0.421875,-0.125 C 1.328125,1.203125 1.421875,1.0625 1.421875,0.875 1.421875,0.5625 1.15625,0.53125 1.0625,0.53125 0.828125,0.53125 0.5,0.6875 0.5,1.171875 c 0,0.5 0.4375,0.875 1.0625,0.875 1.015625,0 2.046875,-0.90625 2.328125,-2.03125 z m 0,0"
   id="path221" />
        </g>
      </g>
    </g>
    <g
   style="fill:#000000;fill-opacity:1"
   id="g152">
      <g
   id="use150"
   transform="translate(88.012001,7.4720001)">
        <path
   style="stroke:none"
   d="m 5.46875,-2.296875 c 0.15625,0 0.34375,0 0.34375,-0.203125 0,-0.1875 -0.1875,-0.1875 -0.34375,-0.1875 H 1.234375 C 1.359375,-4.03125 2.5,-4.984375 3.90625,-4.984375 h 1.5625 c 0.15625,0 0.34375,0 0.34375,-0.203125 0,-0.203125 -0.1875,-0.203125 -0.34375,-0.203125 H 3.890625 c -1.703125,0 -3.0625,1.296875 -3.0625,2.890625 0,1.609375 1.359375,2.90625 3.0625,2.90625 H 5.46875 c 0.15625,0 0.34375,0 0.34375,-0.203125 C 5.8125,0 5.625,0 5.46875,0 H 3.90625 C 2.5,0 1.359375,-0.953125 1.234375,-2.296875 Z m 0,0"
   id="path225" />
      </g>
    </g>
    <g
   style="fill:#000000;fill-opacity:1"
   id="g156">
      <g
   id="use154"
   transform="translate(97.420998,7.4720001)">
        <path
   style="stroke:none"
   d="M 2.671875,-3.125 H 3.03125 l 1.5,2.3125 C 4.625,-0.65625 4.859375,-0.265625 4.96875,-0.125 5.046875,0 5.078125,0 5.296875,0 h 1.375 c 0.1875,0 0.34375,0 0.34375,-0.171875 0,-0.09375 -0.0625,-0.15625 -0.15625,-0.171875 C 6.484375,-0.421875 6,-1.09375 5.765625,-1.40625 5.6875,-1.5 5.1875,-2.15625 4.53125,-3.234375 5.40625,-3.40625 6.265625,-3.78125 6.265625,-4.96875 6.265625,-6.34375 4.8125,-6.828125 3.625,-6.828125 H 0.5 c -0.1875,0 -0.34375,0 -0.34375,0.171875 0,0.171875 0.1875,0.171875 0.265625,0.171875 0.578125,0 0.625,0.078125 0.625,0.578125 v 4.984375 c 0,0.5 -0.046875,0.578125 -0.625,0.578125 -0.078125,0 -0.265625,0 -0.265625,0.171875 C 0.15625,0 0.3125,0 0.5,0 H 3.234375 C 3.40625,0 3.5625,0 3.5625,-0.171875 c 0,-0.171875 -0.171875,-0.171875 -0.28125,-0.171875 -0.5625,0 -0.609375,-0.078125 -0.609375,-0.578125 z m 1.921875,-0.5 c 0.28125,-0.359375 0.3125,-0.890625 0.3125,-1.328125 0,-0.484375 -0.0625,-1.015625 -0.375,-1.421875 0.40625,0.09375 1.390625,0.40625 1.390625,1.40625 0,0.65625 -0.296875,1.15625 -1.328125,1.34375 z M 2.671875,-5.9375 c 0,-0.21875 0,-0.546875 0.625,-0.546875 0.84375,0 1.265625,0.359375 1.265625,1.53125 0,1.28125 -0.3125,1.46875 -1.890625,1.46875 z M 1.3125,-0.34375 C 1.390625,-0.53125 1.390625,-0.8125 1.390625,-0.890625 V -5.9375 c 0,-0.09375 0,-0.359375 -0.078125,-0.546875 h 1.140625 c -0.125,0.171875 -0.125,0.359375 -0.125,0.515625 v 5.078125 c 0,0.09375 0,0.359375 0.078125,0.546875 z M 3.4375,-3.125 c 0.078125,-0.015625 0.109375,-0.03125 0.1875,-0.03125 0.15625,0 0.375,-0.015625 0.515625,-0.03125 0.15625,0.234375 1.234375,2.015625 2.0625,2.84375 h -0.96875 z m 0,0"
   id="path229" />
      </g>
    </g>
    <g
   clip-path="url(#clipPath1645)"
   clip-rule="nonzero"
   id="g162">
      <g
   style="fill:#000000;fill-opacity:1"
   id="g160">
        <g
   id="use158"
   transform="translate(104.617,7.4720001)">
          <path
   style="stroke:none"
   d="m 2.15625,1.171875 c 0,0.390625 -0.265625,1.03125 -1.34375,1.09375 C 0.75,2.28125 0.71875,2.328125 0.71875,2.375 0.71875,2.5 0.828125,2.5 0.921875,2.5 1.890625,2.5 2.8125,2 2.828125,1.25 v -2.28125 c 0,-0.390625 0,-0.703125 0.390625,-1.03125 C 3.5625,-2.359375 3.953125,-2.375 4.171875,-2.375 4.21875,-2.390625 4.25,-2.4375 4.25,-2.5 4.25,-2.59375 4.203125,-2.59375 4.09375,-2.609375 3.4375,-2.640625 2.953125,-3 2.84375,-3.484375 2.828125,-3.59375 2.828125,-3.625 2.828125,-3.984375 v -1.96875 c 0,-0.421875 0,-0.734375 -0.484375,-1.109375 C 1.9375,-7.375 1.25,-7.484375 0.921875,-7.484375 c -0.09375,0 -0.203125,0 -0.203125,0.125 0,0.09375 0.0625,0.09375 0.15625,0.109375 0.625,0.03125 1.125,0.359375 1.25,0.859375 0.03125,0.09375 0.03125,0.109375 0.03125,0.46875 v 2.09375 c 0,0.453125 0.078125,0.625 0.390625,0.953125 0.21875,0.203125 0.5,0.296875 0.78125,0.375 -0.8125,0.234375 -1.171875,0.703125 -1.171875,1.28125 z m 0,0"
   id="path233" />
        </g>
      </g>
    </g>
  </g>
</g><g
   id="g11400"
   transform="translate(267.02998,12.395327)"><circle
     style="opacity:0.908028;fill:#000000;stroke:none;stroke-width:1.5;stroke-linecap:round;stroke-dasharray:4.5, 4.5;stroke-dashoffset:0;paint-order:markers fill stroke"
     id="path10604"
     cx="35.587257"
     cy="92.55603"
     r="4.6934214" /><circle
     style="opacity:0.495423;fill:#ffffff;stroke:none;stroke-width:0.958174;stroke-linecap:round;stroke-dasharray:2.87452, 2.87452;stroke-dashoffset:0;paint-order:markers fill stroke;filter:url(#filter10620)"
     id="circle10612"
     cx="36.201134"
     cy="91.942169"
     r="2.9980772" /></g></svg>
