<?xml version="1.0" encoding="utf-8" standalone="no"?>
<!DOCTYPE svg PUBLIC "-//W3C//DTD SVG 1.1//EN"
  "http://www.w3.org/Graphics/SVG/1.1/DTD/svg11.dtd">
<!-- Created with matplotlib (https://matplotlib.org/) -->
<svg height="278.684081pt" version="1.1" viewBox="0 0 279.875052 278.684081" width="279.875052pt" xmlns="http://www.w3.org/2000/svg" xmlns:xlink="http://www.w3.org/1999/xlink">
 <defs>
  <style type="text/css">
*{stroke-linecap:butt;stroke-linejoin:round;}
  </style>
 </defs>
 <g id="figure_1">
  <g id="patch_1">
   <path d="M 0 278.684081 
L 279.875052 278.684081 
L 279.875052 0 
L 0 0 
z
" style="fill:#ffffff;"/>
  </g>
  <g id="axes_1">
   <g id="patch_2">
    <path d="M 28.962744 257.169976 
L 253.655052 257.169976 
L 253.655052 33.588438 
L 28.962744 33.588438 
z
" style="fill:#ffffff;"/>
   </g>
   <g id="PathCollection_1">
    <path clip-path="url(#pa4c4bd7cf4)" d="M 76.493809 158.308484 
C 76.913132 158.308484 77.315337 158.141885 77.611843 157.845379 
C 77.908349 157.548873 78.074948 157.146668 78.074948 156.727345 
C 78.074948 156.308022 77.908349 155.905817 77.611843 155.609311 
C 77.315337 155.312805 76.913132 155.146206 76.493809 155.146206 
C 76.074486 155.146206 75.672281 155.312805 75.375775 155.609311 
C 75.079269 155.905817 74.91267 156.308022 74.91267 156.727345 
C 74.91267 157.146668 75.079269 157.548873 75.375775 157.845379 
C 75.672281 158.141885 76.074486 158.308484 76.493809 158.308484 
z
" style="fill:#ff0000;"/>
   </g>
   <g id="PathCollection_2">
    <path clip-path="url(#pa4c4bd7cf4)" d="M 119.703868 118.484756 
C 120.123191 118.484756 120.525396 118.318157 120.821902 118.021651 
C 121.118408 117.725145 121.285007 117.32294 121.285007 116.903617 
C 121.285007 116.484294 121.118408 116.082089 120.821902 115.785583 
C 120.525396 115.489077 120.123191 115.322478 119.703868 115.322478 
C 119.284545 115.322478 118.88234 115.489077 118.585834 115.785583 
C 118.289328 116.082089 118.12273 116.484294 118.12273 116.903617 
C 118.12273 117.32294 118.289328 117.725145 118.585834 118.021651 
C 118.88234 118.318157 119.284545 118.484756 119.703868 118.484756 
z
" style="fill:#ff0000;"/>
   </g>
   <g id="PathCollection_3">
    <path clip-path="url(#pa4c4bd7cf4)" d="M 162.913928 87.926934 
C 163.33325 87.926934 163.735455 87.760335 164.031962 87.463829 
C 164.328468 87.167323 164.495066 86.765118 164.495066 86.345795 
C 164.495066 85.926472 164.328468 85.524267 164.031962 85.227761 
C 163.735455 84.931255 163.33325 84.764656 162.913928 84.764656 
C 162.494605 84.764656 162.0924 84.931255 161.795894 85.227761 
C 161.499387 85.524267 161.332789 85.926472 161.332789 86.345795 
C 161.332789 86.765118 161.499387 87.167323 161.795894 87.463829 
C 162.0924 87.760335 162.494605 87.926934 162.913928 87.926934 
z
" style="fill:#ff0000;"/>
   </g>
   <g id="PathCollection_4">
    <path clip-path="url(#pa4c4bd7cf4)" d="M 206.123987 62.165498 
C 206.54331 62.165498 206.945515 61.9989 207.242021 61.702394 
C 207.538527 61.405887 207.705126 61.003682 207.705126 60.58436 
C 207.705126 60.165037 207.538527 59.762832 207.242021 59.466326 
C 206.945515 59.16982 206.54331 59.003221 206.123987 59.003221 
C 205.704664 59.003221 205.302459 59.16982 205.005953 59.466326 
C 204.709447 59.762832 204.542848 60.165037 204.542848 60.58436 
C 204.542848 61.003682 204.709447 61.405887 205.005953 61.702394 
C 205.302459 61.9989 205.704664 62.165498 206.123987 62.165498 
z
" style="fill:#ff0000;"/>
   </g>
   <g id="PathCollection_5">
    <path clip-path="url(#pa4c4bd7cf4)" d="M 249.334046 39.469218 
C 249.753369 39.469218 250.155574 39.302619 250.45208 39.006113 
C 250.748586 38.709607 250.915185 38.307402 250.915185 37.888079 
C 250.915185 37.468756 250.748586 37.066551 250.45208 36.770045 
C 250.155574 36.473539 249.753369 36.306941 249.334046 36.306941 
C 248.914723 36.306941 248.512518 36.473539 248.216012 36.770045 
C 247.919506 37.066551 247.752907 37.468756 247.752907 37.888079 
C 247.752907 38.307402 247.919506 38.709607 248.216012 39.006113 
C 248.512518 39.302619 248.914723 39.469218 249.334046 39.469218 
z
" style="fill:#ff0000;"/>
   </g>
   <g id="patch_3">
    <path clip-path="url(#pa4c4bd7cf4)" d="M 33.28375 252.870331 
L 33.28375 156.727345 
L 33.414822 156.727345 
L 33.652885 156.727345 
L 33.868528 156.727345 
L 34.217914 156.727345 
L 34.464902 156.727345 
L 34.649029 156.727345 
L 34.784172 156.727345 
L 35.068697 156.727345 
L 35.316581 156.727345 
L 35.374863 156.727345 
L 35.700558 156.727345 
L 35.88101 156.727345 
L 36.194079 156.727345 
L 36.367639 156.727345 
L 36.560124 156.727345 
L 36.794565 156.727345 
L 36.923457 156.727345 
L 37.185163 156.727345 
L 37.307412 156.727345 
L 37.578904 156.727345 
L 37.846225 156.727345 
L 38.080247 156.727345 
L 38.313053 156.727345 
L 38.584598 156.727345 
L 38.666759 156.727345 
L 39.012287 156.727345 
L 39.137552 156.727345 
L 39.319592 156.727345 
L 39.570277 156.727345 
L 39.818401 156.727345 
L 39.972905 156.727345 
L 40.240237 156.727345 
L 40.371456 156.727345 
L 40.578859 156.727345 
L 40.857923 156.727345 
L 41.092035 156.727345 
L 41.373958 156.727345 
L 41.6089 156.727345 
L 41.809028 156.727345 
L 41.864469 156.727345 
L 42.236508 156.727345 
L 42.364118 156.727345 
L 42.58422 156.727345 
L 42.898206 156.727345 
L 43.155129 156.727345 
L 43.221971 156.727345 
L 43.485283 156.727345 
L 43.611181 156.727345 
L 43.876532 156.727345 
L 44.038704 156.727345 
L 44.393413 156.727345 
L 44.663526 156.727345 
L 44.84253 156.727345 
L 45.025456 156.727345 
L 45.189774 156.727345 
L 45.482157 156.727345 
L 45.612824 156.727345 
L 45.777405 156.727345 
L 46.202328 156.727345 
L 46.293948 156.727345 
L 46.457751 156.727345 
L 46.818937 156.727345 
L 46.901215 156.727345 
L 47.214533 156.727345 
L 47.314637 156.727345 
L 47.594989 156.727345 
L 47.74487 156.727345 
L 48.10596 156.727345 
L 48.269297 156.727345 
L 48.509588 156.727345 
L 48.687507 156.727345 
L 48.980477 156.727345 
L 49.091649 156.727345 
L 49.424726 156.727345 
L 49.602145 156.727345 
L 49.756384 156.727345 
L 50.093856 156.727345 
L 50.264599 156.727345 
L 50.424689 156.727345 
L 50.617048 156.727345 
L 50.76668 156.727345 
L 51.152954 156.727345 
L 51.380925 156.727345 
L 51.501932 156.727345 
L 51.794423 156.727345 
L 52.032929 156.727345 
L 52.230864 156.727345 
L 52.312625 156.727345 
L 52.505568 156.727345 
L 52.920547 156.727345 
L 53.117331 156.727345 
L 53.302365 156.727345 
L 53.416895 156.727345 
L 53.794941 156.727345 
L 53.866162 156.727345 
L 54.136882 156.727345 
L 54.329299 156.727345 
L 54.584737 156.727345 
L 54.874875 156.727345 
L 54.896779 156.727345 
L 55.234907 156.727345 
L 55.52494 156.727345 
L 55.549751 156.727345 
L 55.94916 156.727345 
L 56.1887 156.727345 
L 56.237729 156.727345 
L 56.427321 156.727345 
L 56.762999 156.727345 
L 57.026599 156.727345 
L 57.070774 156.727345 
L 57.412202 156.727345 
L 57.671438 156.727345 
L 57.727132 156.727345 
L 58.091093 156.727345 
L 58.160774 156.727345 
L 58.494517 156.727345 
L 58.663596 156.727345 
L 58.969563 156.727345 
L 59.165121 156.727345 
L 59.346596 156.727345 
L 59.52195 156.727345 
L 59.788495 156.727345 
L 60.03402 156.727345 
L 60.141788 156.727345 
L 60.35426 156.727345 
L 60.56183 156.727345 
L 60.877652 156.727345 
L 61.053916 156.727345 
L 61.278446 156.727345 
L 61.520799 156.727345 
L 61.818119 156.727345 
L 61.912919 156.727345 
L 62.062032 156.727345 
L 62.421995 156.727345 
L 62.643204 156.727345 
L 62.831836 156.727345 
L 63.046458 156.727345 
L 63.307353 156.727345 
L 63.479564 156.727345 
L 63.750689 156.727345 
L 63.844625 156.727345 
L 64.222875 156.727345 
L 64.291601 156.727345 
L 64.466792 156.727345 
L 64.856295 156.727345 
L 65.087595 156.727345 
L 65.255591 156.727345 
L 65.39287 156.727345 
L 65.601159 156.727345 
L 65.798529 156.727345 
L 66.14 156.727345 
L 66.271044 156.727345 
L 66.54551 156.727345 
L 66.82286 156.727345 
L 66.898526 156.727345 
L 67.051605 156.727345 
L 67.400438 156.727345 
L 67.621597 156.727345 
L 67.865736 156.727345 
L 68.078726 156.727345 
L 68.293594 156.727345 
L 68.484335 156.727345 
L 68.716626 156.727345 
L 68.786677 156.727345 
L 69.052891 156.727345 
L 69.338163 156.727345 
L 69.622259 156.727345 
L 69.736765 156.727345 
L 70.021683 156.727345 
L 70.248684 156.727345 
L 70.421145 156.727345 
L 70.710619 156.727345 
L 70.944094 156.727345 
L 71.088775 156.727345 
L 71.317411 156.727345 
L 71.542169 156.727345 
L 71.668013 156.727345 
L 71.909393 156.727345 
L 72.248189 156.727345 
L 72.44504 156.727345 
L 72.603728 156.727345 
L 72.70534 156.727345 
L 73.094931 156.727345 
L 73.270358 156.727345 
L 73.350682 156.727345 
L 73.756585 156.727345 
L 73.784547 156.727345 
L 74.193244 156.727345 
L 74.346458 156.727345 
L 74.59188 156.727345 
L 74.775218 156.727345 
L 74.971954 156.727345 
L 75.100589 156.727345 
L 75.321652 156.727345 
L 75.647152 156.727345 
L 75.904784 156.727345 
L 76.136869 156.727345 
L 76.254882 156.727345 
L 76.493809 156.727345 
L 76.493809 252.870331 
z
" style="fill:#cde0eb;opacity:0.5;"/>
   </g>
   <g id="patch_4">
    <path clip-path="url(#pa4c4bd7cf4)" d="M 76.493809 252.870331 
L 76.493809 116.903617 
L 76.608132 116.903617 
L 76.939909 116.903617 
L 77.147535 116.903617 
L 77.39129 116.903617 
L 77.607691 116.903617 
L 77.787676 116.903617 
L 78.061192 116.903617 
L 78.211743 116.903617 
L 78.494186 116.903617 
L 78.661984 116.903617 
L 78.902784 116.903617 
L 79.017183 116.903617 
L 79.325703 116.903617 
L 79.602229 116.903617 
L 79.777115 116.903617 
L 79.876471 116.903617 
L 80.288611 116.903617 
L 80.349441 116.903617 
L 80.571528 116.903617 
L 80.838755 116.903617 
L 81.05884 116.903617 
L 81.270835 116.903617 
L 81.503795 116.903617 
L 81.693286 116.903617 
L 81.885841 116.903617 
L 82.10183 116.903617 
L 82.29187 116.903617 
L 82.492354 116.903617 
L 82.846343 116.903617 
L 82.996004 116.903617 
L 83.246479 116.903617 
L 83.424026 116.903617 
L 83.552957 116.903617 
L 83.879407 116.903617 
L 84.031357 116.903617 
L 84.392925 116.903617 
L 84.469762 116.903617 
L 84.66671 116.903617 
L 85.043867 116.903617 
L 85.122309 116.903617 
L 85.449004 116.903617 
L 85.630353 116.903617 
L 85.841804 116.903617 
L 86.013559 116.903617 
L 86.277313 116.903617 
L 86.457083 116.903617 
L 86.682743 116.903617 
L 86.845724 116.903617 
L 87.224663 116.903617 
L 87.411309 116.903617 
L 87.532136 116.903617 
L 87.681515 116.903617 
L 87.921156 116.903617 
L 88.126172 116.903617 
L 88.53493 116.903617 
L 88.635106 116.903617 
L 88.898534 116.903617 
L 89.077373 116.903617 
L 89.255317 116.903617 
L 89.496899 116.903617 
L 89.815013 116.903617 
L 89.858187 116.903617 
L 90.086726 116.903617 
L 90.429986 116.903617 
L 90.520533 116.903617 
L 90.832076 116.903617 
L 91.056116 116.903617 
L 91.225685 116.903617 
L 91.43552 116.903617 
L 91.762522 116.903617 
L 92.004864 116.903617 
L 92.04072 116.903617 
L 92.390857 116.903617 
L 92.505562 116.903617 
L 92.785676 116.903617 
L 93.007602 116.903617 
L 93.134069 116.903617 
L 93.494989 116.903617 
L 93.701173 116.903617 
L 93.824859 116.903617 
L 94.060299 116.903617 
L 94.282856 116.903617 
L 94.593891 116.903617 
L 94.824409 116.903617 
L 94.930782 116.903617 
L 95.120303 116.903617 
L 95.357813 116.903617 
L 95.647676 116.903617 
L 95.888102 116.903617 
L 96.127113 116.903617 
L 96.162502 116.903617 
L 96.513902 116.903617 
L 96.613382 116.903617 
L 97.006683 116.903617 
L 97.222991 116.903617 
L 97.407123 116.903617 
L 97.5989 116.903617 
L 97.754505 116.903617 
L 97.934713 116.903617 
L 98.225378 116.903617 
L 98.44498 116.903617 
L 98.625695 116.903617 
L 98.835545 116.903617 
L 98.992513 116.903617 
L 99.356134 116.903617 
L 99.547736 116.903617 
L 99.739975 116.903617 
L 99.937362 116.903617 
L 100.15939 116.903617 
L 100.382042 116.903617 
L 100.563947 116.903617 
L 100.794938 116.903617 
L 100.945593 116.903617 
L 101.152534 116.903617 
L 101.374166 116.903617 
L 101.786731 116.903617 
L 101.797302 116.903617 
L 102.091134 116.903617 
L 102.379555 116.903617 
L 102.491251 116.903617 
L 102.724271 116.903617 
L 102.901814 116.903617 
L 103.231572 116.903617 
L 103.419016 116.903617 
L 103.617194 116.903617 
L 103.876832 116.903617 
L 104.047118 116.903617 
L 104.335256 116.903617 
L 104.524247 116.903617 
L 104.668664 116.903617 
L 104.940474 116.903617 
L 105.10022 116.903617 
L 105.471275 116.903617 
L 105.623789 116.903617 
L 105.8233 116.903617 
L 106.014523 116.903617 
L 106.228607 116.903617 
L 106.54182 116.903617 
L 106.756421 116.903617 
L 106.858884 116.903617 
L 107.204742 116.903617 
L 107.309393 116.903617 
L 107.481801 116.903617 
L 107.653754 116.903617 
L 107.928993 116.903617 
L 108.137602 116.903617 
L 108.409884 116.903617 
L 108.623997 116.903617 
L 108.895797 116.903617 
L 109.030537 116.903617 
L 109.287355 116.903617 
L 109.527493 116.903617 
L 109.820997 116.903617 
L 109.909621 116.903617 
L 110.061626 116.903617 
L 110.419943 116.903617 
L 110.479199 116.903617 
L 110.72484 116.903617 
L 111.070046 116.903617 
L 111.247804 116.903617 
L 111.409553 116.903617 
L 111.75648 116.903617 
L 111.852732 116.903617 
L 112.059803 116.903617 
L 112.289496 116.903617 
L 112.464113 116.903617 
L 112.762921 116.903617 
L 112.910492 116.903617 
L 113.152281 116.903617 
L 113.360634 116.903617 
L 113.554929 116.903617 
L 113.925595 116.903617 
L 114.137105 116.903617 
L 114.16839 116.903617 
L 114.505159 116.903617 
L 114.626232 116.903617 
L 114.818956 116.903617 
L 115.139966 116.903617 
L 115.326593 116.903617 
L 115.611792 116.903617 
L 115.845978 116.903617 
L 115.951436 116.903617 
L 116.308546 116.903617 
L 116.50407 116.903617 
L 116.649393 116.903617 
L 116.972451 116.903617 
L 117.0034 116.903617 
L 117.3908 116.903617 
L 117.474347 116.903617 
L 117.760994 116.903617 
L 117.946887 116.903617 
L 118.251046 116.903617 
L 118.323227 116.903617 
L 118.538089 116.903617 
L 118.881123 116.903617 
L 118.979152 116.903617 
L 119.351016 116.903617 
L 119.459374 116.903617 
L 119.703868 116.903617 
L 119.703868 252.870331 
z
" style="fill:#cde0eb;opacity:0.5;"/>
   </g>
   <g id="patch_5">
    <path clip-path="url(#pa4c4bd7cf4)" d="M 119.703868 252.870331 
L 119.703868 86.345795 
L 119.946632 86.345795 
L 120.096847 86.345795 
L 120.355216 86.345795 
L 120.517122 86.345795 
L 120.688283 86.345795 
L 121.04348 86.345795 
L 121.289385 86.345795 
L 121.436093 86.345795 
L 121.711235 86.345795 
L 121.875888 86.345795 
L 122.084358 86.345795 
L 122.213464 86.345795 
L 122.447962 86.345795 
L 122.658403 86.345795 
L 122.867719 86.345795 
L 123.14382 86.345795 
L 123.408053 86.345795 
L 123.551585 86.345795 
L 123.794346 86.345795 
L 124.019713 86.345795 
L 124.291131 86.345795 
L 124.53656 86.345795 
L 124.658358 86.345795 
L 124.935619 86.345795 
L 125.13655 86.345795 
L 125.398908 86.345795 
L 125.643673 86.345795 
L 125.857183 86.345795 
L 126.084398 86.345795 
L 126.192443 86.345795 
L 126.473058 86.345795 
L 126.552243 86.345795 
L 126.963258 86.345795 
L 127.007789 86.345795 
L 127.241453 86.345795 
L 127.580966 86.345795 
L 127.647887 86.345795 
L 127.849388 86.345795 
L 128.236515 86.345795 
L 128.298943 86.345795 
L 128.591277 86.345795 
L 128.901114 86.345795 
L 128.967462 86.345795 
L 129.238121 86.345795 
L 129.454171 86.345795 
L 129.674884 86.345795 
L 129.888681 86.345795 
L 130.232376 86.345795 
L 130.38688 86.345795 
L 130.52562 86.345795 
L 130.679196 86.345795 
L 130.962836 86.345795 
L 131.157332 86.345795 
L 131.473975 86.345795 
L 131.652256 86.345795 
L 131.954931 86.345795 
L 132.117286 86.345795 
L 132.368277 86.345795 
L 132.488249 86.345795 
L 132.670729 86.345795 
L 132.936289 86.345795 
L 133.169212 86.345795 
L 133.294496 86.345795 
L 133.521844 86.345795 
L 133.834993 86.345795 
L 134.014931 86.345795 
L 134.326457 86.345795 
L 134.543366 86.345795 
L 134.790363 86.345795 
L 134.90959 86.345795 
L 135.018048 86.345795 
L 135.279749 86.345795 
L 135.598429 86.345795 
L 135.804954 86.345795 
L 135.908977 86.345795 
L 136.15234 86.345795 
L 136.438886 86.345795 
L 136.536377 86.345795 
L 136.944239 86.345795 
L 137.002176 86.345795 
L 137.356638 86.345795 
L 137.511476 86.345795 
L 137.824543 86.345795 
L 137.987645 86.345795 
L 138.260734 86.345795 
L 138.342672 86.345795 
L 138.600873 86.345795 
L 138.803245 86.345795 
L 138.986682 86.345795 
L 139.16126 86.345795 
L 139.526553 86.345795 
L 139.751805 86.345795 
L 139.866461 86.345795 
L 140.017047 86.345795 
L 140.43596 86.345795 
L 140.53387 86.345795 
L 140.798149 86.345795 
L 140.914295 86.345795 
L 141.11705 86.345795 
L 141.31178 86.345795 
L 141.669771 86.345795 
L 141.768039 86.345795 
L 142.086674 86.345795 
L 142.298061 86.345795 
L 142.476204 86.345795 
L 142.616186 86.345795 
L 142.888559 86.345795 
L 143.224582 86.345795 
L 143.371214 86.345795 
L 143.520865 86.345795 
L 143.80383 86.345795 
L 143.94947 86.345795 
L 144.140679 86.345795 
L 144.424763 86.345795 
L 144.738627 86.345795 
L 144.827785 86.345795 
L 145.206471 86.345795 
L 145.36281 86.345795 
L 145.649884 86.345795 
L 145.833108 86.345795 
L 145.873553 86.345795 
L 146.108057 86.345795 
L 146.373714 86.345795 
L 146.728908 86.345795 
L 146.940662 86.345795 
L 147.133152 86.345795 
L 147.381244 86.345795 
L 147.404308 86.345795 
L 147.779671 86.345795 
L 147.940269 86.345795 
L 148.061822 86.345795 
L 148.308315 86.345795 
L 148.521202 86.345795 
L 148.786943 86.345795 
L 148.999773 86.345795 
L 149.211735 86.345795 
L 149.360217 86.345795 
L 149.768109 86.345795 
L 149.984044 86.345795 
L 150.115819 86.345795 
L 150.420662 86.345795 
L 150.483433 86.345795 
L 150.766754 86.345795 
L 150.90626 86.345795 
L 151.154318 86.345795 
L 151.350059 86.345795 
L 151.558028 86.345795 
L 151.834336 86.345795 
L 152.087901 86.345795 
L 152.212915 86.345795 
L 152.38395 86.345795 
L 152.661012 86.345795 
L 152.924782 86.345795 
L 153.122769 86.345795 
L 153.377522 86.345795 
L 153.474722 86.345795 
L 153.7985 86.345795 
L 153.946271 86.345795 
L 154.146249 86.345795 
L 154.400647 86.345795 
L 154.612016 86.345795 
L 154.847218 86.345795 
L 155.186365 86.345795 
L 155.28208 86.345795 
L 155.638587 86.345795 
L 155.649087 86.345795 
L 155.902535 86.345795 
L 156.092259 86.345795 
L 156.381432 86.345795 
L 156.609777 86.345795 
L 156.772 86.345795 
L 156.964927 86.345795 
L 157.365688 86.345795 
L 157.444814 86.345795 
L 157.647391 86.345795 
L 158.019296 86.345795 
L 158.075507 86.345795 
L 158.290073 86.345795 
L 158.649991 86.345795 
L 158.721177 86.345795 
L 159.02295 86.345795 
L 159.200131 86.345795 
L 159.415699 86.345795 
L 159.608677 86.345795 
L 159.973793 86.345795 
L 160.128411 86.345795 
L 160.259813 86.345795 
L 160.472683 86.345795 
L 160.69925 86.345795 
L 160.857593 86.345795 
L 161.068646 86.345795 
L 161.34339 86.345795 
L 161.651547 86.345795 
L 161.805244 86.345795 
L 162.060045 86.345795 
L 162.201373 86.345795 
L 162.524784 86.345795 
L 162.669614 86.345795 
L 162.913928 86.345795 
L 162.913928 252.870331 
z
" style="fill:#cde0eb;opacity:0.5;"/>
   </g>
   <g id="patch_6">
    <path clip-path="url(#pa4c4bd7cf4)" d="M 162.913928 252.870331 
L 162.913928 60.58436 
L 163.092224 60.58436 
L 163.349916 60.58436 
L 163.593302 60.58436 
L 163.705585 60.58436 
L 164.009636 60.58436 
L 164.211878 60.58436 
L 164.359686 60.58436 
L 164.731278 60.58436 
L 164.865854 60.58436 
L 165.155831 60.58436 
L 165.332442 60.58436 
L 165.525565 60.58436 
L 165.637851 60.58436 
L 165.894694 60.58436 
L 166.113613 60.58436 
L 166.288313 60.58436 
L 166.684614 60.58436 
L 166.848748 60.58436 
L 166.962377 60.58436 
L 167.343435 60.58436 
L 167.438023 60.58436 
L 167.686875 60.58436 
L 167.872637 60.58436 
L 168.190919 60.58436 
L 168.361977 60.58436 
L 168.664397 60.58436 
L 168.790604 60.58436 
L 169.033364 60.58436 
L 169.315388 60.58436 
L 169.421052 60.58436 
L 169.610122 60.58436 
L 169.830977 60.58436 
L 170.037622 60.58436 
L 170.358473 60.58436 
L 170.533354 60.58436 
L 170.684973 60.58436 
L 171.044468 60.58436 
L 171.149001 60.58436 
L 171.311201 60.58436 
L 171.607978 60.58436 
L 171.825398 60.58436 
L 172.137917 60.58436 
L 172.199843 60.58436 
L 172.541752 60.58436 
L 172.760438 60.58436 
L 172.832034 60.58436 
L 173.176935 60.58436 
L 173.284674 60.58436 
L 173.540832 60.58436 
L 173.779462 60.58436 
L 174.011382 60.58436 
L 174.203427 60.58436 
L 174.447242 60.58436 
L 174.731383 60.58436 
L 174.882292 60.58436 
L 175.097211 60.58436 
L 175.20475 60.58436 
L 175.500595 60.58436 
L 175.740799 60.58436 
L 175.843294 60.58436 
L 176.222965 60.58436 
L 176.484101 60.58436 
L 176.612333 60.58436 
L 176.726329 60.58436 
L 177.083537 60.58436 
L 177.227052 60.58436 
L 177.562015 60.58436 
L 177.715746 60.58436 
L 177.88555 60.58436 
L 178.106301 60.58436 
L 178.266611 60.58436 
L 178.622677 60.58436 
L 178.858142 60.58436 
L 178.961424 60.58436 
L 179.111697 60.58436 
L 179.387929 60.58436 
L 179.567671 60.58436 
L 179.770647 60.58436 
L 180.036152 60.58436 
L 180.22906 60.58436 
L 180.528853 60.58436 
L 180.673511 60.58436 
L 180.912511 60.58436 
L 181.15904 60.58436 
L 181.399729 60.58436 
L 181.663094 60.58436 
L 181.878869 60.58436 
L 181.994804 60.58436 
L 182.343003 60.58436 
L 182.559828 60.58436 
L 182.728059 60.58436 
L 182.972039 60.58436 
L 183.113697 60.58436 
L 183.411229 60.58436 
L 183.520646 60.58436 
L 183.725342 60.58436 
L 184.036258 60.58436 
L 184.284491 60.58436 
L 184.431116 60.58436 
L 184.564962 60.58436 
L 184.94991 60.58436 
L 184.989617 60.58436 
L 185.245703 60.58436 
L 185.541278 60.58436 
L 185.636866 60.58436 
L 185.97058 60.58436 
L 186.072684 60.58436 
L 186.262863 60.58436 
L 186.673309 60.58436 
L 186.794095 60.58436 
L 187.09351 60.58436 
L 187.138443 60.58436 
L 187.343181 60.58436 
L 187.740024 60.58436 
L 187.864996 60.58436 
L 188.174055 60.58436 
L 188.24786 60.58436 
L 188.571926 60.58436 
L 188.858225 60.58436 
L 188.936287 60.58436 
L 189.168037 60.58436 
L 189.300343 60.58436 
L 189.706265 60.58436 
L 189.872809 60.58436 
L 190.011005 60.58436 
L 190.29529 60.58436 
L 190.510987 60.58436 
L 190.684804 60.58436 
L 190.983783 60.58436 
L 191.156252 60.58436 
L 191.381865 60.58436 
L 191.57429 60.58436 
L 191.753529 60.58436 
L 191.948573 60.58436 
L 192.161112 60.58436 
L 192.454697 60.58436 
L 192.6091 60.58436 
L 192.772703 60.58436 
L 193.190467 60.58436 
L 193.230226 60.58436 
L 193.523708 60.58436 
L 193.640126 60.58436 
L 194.01749 60.58436 
L 194.11046 60.58436 
L 194.335424 60.58436 
L 194.608855 60.58436 
L 194.919325 60.58436 
L 194.968822 60.58436 
L 195.346709 60.58436 
L 195.390958 60.58436 
L 195.646351 60.58436 
L 196.017546 60.58436 
L 196.058982 60.58436 
L 196.294764 60.58436 
L 196.484956 60.58436 
L 196.77367 60.58436 
L 196.938297 60.58436 
L 197.177656 60.58436 
L 197.367445 60.58436 
L 197.641933 60.58436 
L 197.764726 60.58436 
L 198.060314 60.58436 
L 198.328132 60.58436 
L 198.482949 60.58436 
L 198.755758 60.58436 
L 199.064628 60.58436 
L 199.125383 60.58436 
L 199.450113 60.58436 
L 199.645722 60.58436 
L 199.86941 60.58436 
L 200.090689 60.58436 
L 200.258563 60.58436 
L 200.524803 60.58436 
L 200.672585 60.58436 
L 200.993406 60.58436 
L 201.172485 60.58436 
L 201.293025 60.58436 
L 201.505694 60.58436 
L 201.809664 60.58436 
L 201.958405 60.58436 
L 202.262762 60.58436 
L 202.474295 60.58436 
L 202.655701 60.58436 
L 202.804155 60.58436 
L 203.148911 60.58436 
L 203.275599 60.58436 
L 203.520451 60.58436 
L 203.667107 60.58436 
L 204.029097 60.58436 
L 204.257728 60.58436 
L 204.335273 60.58436 
L 204.66585 60.58436 
L 204.796117 60.58436 
L 205.1274 60.58436 
L 205.160811 60.58436 
L 205.452741 60.58436 
L 205.650391 60.58436 
L 205.967837 60.58436 
L 206.123987 60.58436 
L 206.123987 252.870331 
z
" style="fill:#cde0eb;opacity:0.5;"/>
   </g>
   <g id="patch_7">
    <path clip-path="url(#pa4c4bd7cf4)" d="M 206.123987 252.870331 
L 206.123987 37.888079 
L 206.341816 37.888079 
L 206.467632 37.888079 
L 206.749257 37.888079 
L 207.039738 37.888079 
L 207.162796 37.888079 
L 207.441489 37.888079 
L 207.600413 37.888079 
L 207.853958 37.888079 
L 208.062962 37.888079 
L 208.239002 37.888079 
L 208.600424 37.888079 
L 208.81283 37.888079 
L 209.017425 37.888079 
L 209.126469 37.888079 
L 209.422429 37.888079 
L 209.581368 37.888079 
L 209.763244 37.888079 
L 210.036867 37.888079 
L 210.147246 37.888079 
L 210.571923 37.888079 
L 210.652241 37.888079 
L 210.839674 37.888079 
L 211.190219 37.888079 
L 211.248138 37.888079 
L 211.606428 37.888079 
L 211.666499 37.888079 
L 212.094768 37.888079 
L 212.210132 37.888079 
L 212.521121 37.888079 
L 212.587157 37.888079 
L 212.857681 37.888079 
L 213.160193 37.888079 
L 213.282477 37.888079 
L 213.414327 37.888079 
L 213.742237 37.888079 
L 213.998145 37.888079 
L 214.080013 37.888079 
L 214.413803 37.888079 
L 214.678647 37.888079 
L 214.800003 37.888079 
L 215.118173 37.888079 
L 215.244156 37.888079 
L 215.550642 37.888079 
L 215.761506 37.888079 
L 215.87317 37.888079 
L 216.146142 37.888079 
L 216.302392 37.888079 
L 216.453345 37.888079 
L 216.863167 37.888079 
L 217.016776 37.888079 
L 217.155388 37.888079 
L 217.430093 37.888079 
L 217.572229 37.888079 
L 217.880289 37.888079 
L 217.995099 37.888079 
L 218.325476 37.888079 
L 218.436764 37.888079 
L 218.696691 37.888079 
L 218.827481 37.888079 
L 219.240682 37.888079 
L 219.300277 37.888079 
L 219.485651 37.888079 
L 219.783957 37.888079 
L 220.009369 37.888079 
L 220.214567 37.888079 
L 220.487368 37.888079 
L 220.624694 37.888079 
L 220.888547 37.888079 
L 221.081251 37.888079 
L 221.301299 37.888079 
L 221.496193 37.888079 
L 221.803769 37.888079 
L 221.936791 37.888079 
L 222.136644 37.888079 
L 222.48887 37.888079 
L 222.628718 37.888079 
L 222.88992 37.888079 
L 223.116593 37.888079 
L 223.332495 37.888079 
L 223.428395 37.888079 
L 223.766454 37.888079 
L 223.858976 37.888079 
L 224.173554 37.888079 
L 224.47016 37.888079 
L 224.513037 37.888079 
L 224.873296 37.888079 
L 224.970033 37.888079 
L 225.320547 37.888079 
L 225.340549 37.888079 
L 225.564808 37.888079 
L 225.961966 37.888079 
L 225.998392 37.888079 
L 226.351515 37.888079 
L 226.489696 37.888079 
L 226.677775 37.888079 
L 227.049776 37.888079 
L 227.110066 37.888079 
L 227.336509 37.888079 
L 227.706081 37.888079 
L 227.811003 37.888079 
L 227.972798 37.888079 
L 228.205161 37.888079 
L 228.543065 37.888079 
L 228.680341 37.888079 
L 228.941232 37.888079 
L 229.077517 37.888079 
L 229.434515 37.888079 
L 229.528271 37.888079 
L 229.883136 37.888079 
L 230.102476 37.888079 
L 230.173828 37.888079 
L 230.517371 37.888079 
L 230.576223 37.888079 
L 230.971419 37.888079 
L 231.004191 37.888079 
L 231.408518 37.888079 
L 231.472941 37.888079 
L 231.659091 37.888079 
L 231.995805 37.888079 
L 232.118 37.888079 
L 232.341939 37.888079 
L 232.547576 37.888079 
L 232.798422 37.888079 
L 232.983811 37.888079 
L 233.258271 37.888079 
L 233.511188 37.888079 
L 233.799123 37.888079 
L 233.992947 37.888079 
L 234.238238 37.888079 
L 234.386402 37.888079 
L 234.509091 37.888079 
L 234.793621 37.888079 
L 234.924615 37.888079 
L 235.118269 37.888079 
L 235.360546 37.888079 
L 235.592946 37.888079 
L 235.79501 37.888079 
L 236.104217 37.888079 
L 236.244712 37.888079 
L 236.501334 37.888079 
L 236.821433 37.888079 
L 236.941955 37.888079 
L 237.282478 37.888079 
L 237.3681 37.888079 
L 237.572823 37.888079 
L 237.767612 37.888079 
L 238.147493 37.888079 
L 238.29551 37.888079 
L 238.437218 37.888079 
L 238.595757 37.888079 
L 238.907242 37.888079 
L 239.157446 37.888079 
L 239.318107 37.888079 
L 239.645335 37.888079 
L 239.865005 37.888079 
L 240.043434 37.888079 
L 240.122464 37.888079 
L 240.389563 37.888079 
L 240.572212 37.888079 
L 240.804135 37.888079 
L 241.002217 37.888079 
L 241.373953 37.888079 
L 241.584738 37.888079 
L 241.771536 37.888079 
L 241.993511 37.888079 
L 242.183781 37.888079 
L 242.429249 37.888079 
L 242.527049 37.888079 
L 242.878607 37.888079 
L 243.107498 37.888079 
L 243.154105 37.888079 
L 243.547855 37.888079 
L 243.791032 37.888079 
L 244.004961 37.888079 
L 244.057159 37.888079 
L 244.381652 37.888079 
L 244.661774 37.888079 
L 244.84226 37.888079 
L 245.078407 37.888079 
L 245.263904 37.888079 
L 245.467141 37.888079 
L 245.621481 37.888079 
L 245.927634 37.888079 
L 246.121767 37.888079 
L 246.276922 37.888079 
L 246.550742 37.888079 
L 246.64101 37.888079 
L 246.87073 37.888079 
L 247.060768 37.888079 
L 247.344543 37.888079 
L 247.53627 37.888079 
L 247.737956 37.888079 
L 247.938476 37.888079 
L 248.243398 37.888079 
L 248.523147 37.888079 
L 248.774847 37.888079 
L 248.973056 37.888079 
L 249.116589 37.888079 
L 249.334046 37.888079 
L 249.334046 252.870331 
z
" style="fill:#cde0eb;opacity:0.5;"/>
   </g>
   <g id="matplotlib.axis_1">
    <g id="xtick_1">
     <g id="line2d_1">
      <defs>
       <path d="M 0 0 
L 0 3.5 
" id="mca9cfde33a" style="stroke:#000000;stroke-width:0.8;"/>
      </defs>
      <g>
       <use style="stroke:#000000;stroke-width:0.8;" x="76.493809" xlink:href="#mca9cfde33a" y="252.870331"/>
      </g>
     </g>
     <g id="text_1">
      <!-- 1/5 -->
      <defs>
       <path d="M 12.40625 8.296875 
L 28.515625 8.296875 
L 28.515625 63.921875 
L 10.984375 60.40625 
L 10.984375 69.390625 
L 28.421875 72.90625 
L 38.28125 72.90625 
L 38.28125 8.296875 
L 54.390625 8.296875 
L 54.390625 0 
L 12.40625 0 
z
" id="DejaVuSans-49"/>
       <path d="M 25.390625 72.90625 
L 33.6875 72.90625 
L 8.296875 -9.28125 
L 0 -9.28125 
z
" id="DejaVuSans-47"/>
       <path d="M 10.796875 72.90625 
L 49.515625 72.90625 
L 49.515625 64.59375 
L 19.828125 64.59375 
L 19.828125 46.734375 
Q 21.96875 47.46875 24.109375 47.828125 
Q 26.265625 48.1875 28.421875 48.1875 
Q 40.625 48.1875 47.75 41.5 
Q 54.890625 34.8125 54.890625 23.390625 
Q 54.890625 11.625 47.5625 5.09375 
Q 40.234375 -1.421875 26.90625 -1.421875 
Q 22.3125 -1.421875 17.546875 -0.640625 
Q 12.796875 0.140625 7.71875 1.703125 
L 7.71875 11.625 
Q 12.109375 9.234375 16.796875 8.0625 
Q 21.484375 6.890625 26.703125 6.890625 
Q 35.15625 6.890625 40.078125 11.328125 
Q 45.015625 15.765625 45.015625 23.390625 
Q 45.015625 31 40.078125 35.4375 
Q 35.15625 39.890625 26.703125 39.890625 
Q 22.75 39.890625 18.8125 39.015625 
Q 14.890625 38.140625 10.796875 36.28125 
z
" id="DejaVuSans-53"/>
      </defs>
      <g transform="translate(66.837559 268.988456)scale(0.12 -0.12)">
       <use xlink:href="#DejaVuSans-49"/>
       <use x="63.623047" xlink:href="#DejaVuSans-47"/>
       <use x="97.314453" xlink:href="#DejaVuSans-53"/>
      </g>
     </g>
    </g>
    <g id="xtick_2">
     <g id="line2d_2">
      <g>
       <use style="stroke:#000000;stroke-width:0.8;" x="119.703868" xlink:href="#mca9cfde33a" y="252.870331"/>
      </g>
     </g>
     <g id="text_2">
      <!-- 2/5 -->
      <defs>
       <path d="M 19.1875 8.296875 
L 53.609375 8.296875 
L 53.609375 0 
L 7.328125 0 
L 7.328125 8.296875 
Q 12.9375 14.109375 22.625 23.890625 
Q 32.328125 33.6875 34.8125 36.53125 
Q 39.546875 41.84375 41.421875 45.53125 
Q 43.3125 49.21875 43.3125 52.78125 
Q 43.3125 58.59375 39.234375 62.25 
Q 35.15625 65.921875 28.609375 65.921875 
Q 23.96875 65.921875 18.8125 64.3125 
Q 13.671875 62.703125 7.8125 59.421875 
L 7.8125 69.390625 
Q 13.765625 71.78125 18.9375 73 
Q 24.125 74.21875 28.421875 74.21875 
Q 39.75 74.21875 46.484375 68.546875 
Q 53.21875 62.890625 53.21875 53.421875 
Q 53.21875 48.921875 51.53125 44.890625 
Q 49.859375 40.875 45.40625 35.40625 
Q 44.1875 33.984375 37.640625 27.21875 
Q 31.109375 20.453125 19.1875 8.296875 
z
" id="DejaVuSans-50"/>
      </defs>
      <g transform="translate(110.047618 268.988456)scale(0.12 -0.12)">
       <use xlink:href="#DejaVuSans-50"/>
       <use x="63.623047" xlink:href="#DejaVuSans-47"/>
       <use x="97.314453" xlink:href="#DejaVuSans-53"/>
      </g>
     </g>
    </g>
    <g id="xtick_3">
     <g id="line2d_3">
      <g>
       <use style="stroke:#000000;stroke-width:0.8;" x="162.913928" xlink:href="#mca9cfde33a" y="252.870331"/>
      </g>
     </g>
     <g id="text_3">
      <!-- 3/5 -->
      <defs>
       <path d="M 40.578125 39.3125 
Q 47.65625 37.796875 51.625 33 
Q 55.609375 28.21875 55.609375 21.1875 
Q 55.609375 10.40625 48.1875 4.484375 
Q 40.765625 -1.421875 27.09375 -1.421875 
Q 22.515625 -1.421875 17.65625 -0.515625 
Q 12.796875 0.390625 7.625 2.203125 
L 7.625 11.71875 
Q 11.71875 9.328125 16.59375 8.109375 
Q 21.484375 6.890625 26.8125 6.890625 
Q 36.078125 6.890625 40.9375 10.546875 
Q 45.796875 14.203125 45.796875 21.1875 
Q 45.796875 27.640625 41.28125 31.265625 
Q 36.765625 34.90625 28.71875 34.90625 
L 20.21875 34.90625 
L 20.21875 43.015625 
L 29.109375 43.015625 
Q 36.375 43.015625 40.234375 45.921875 
Q 44.09375 48.828125 44.09375 54.296875 
Q 44.09375 59.90625 40.109375 62.90625 
Q 36.140625 65.921875 28.71875 65.921875 
Q 24.65625 65.921875 20.015625 65.03125 
Q 15.375 64.15625 9.8125 62.3125 
L 9.8125 71.09375 
Q 15.4375 72.65625 20.34375 73.4375 
Q 25.25 74.21875 29.59375 74.21875 
Q 40.828125 74.21875 47.359375 69.109375 
Q 53.90625 64.015625 53.90625 55.328125 
Q 53.90625 49.265625 50.4375 45.09375 
Q 46.96875 40.921875 40.578125 39.3125 
z
" id="DejaVuSans-51"/>
      </defs>
      <g transform="translate(153.257678 268.988456)scale(0.12 -0.12)">
       <use xlink:href="#DejaVuSans-51"/>
       <use x="63.623047" xlink:href="#DejaVuSans-47"/>
       <use x="97.314453" xlink:href="#DejaVuSans-53"/>
      </g>
     </g>
    </g>
    <g id="xtick_4">
     <g id="line2d_4">
      <g>
       <use style="stroke:#000000;stroke-width:0.8;" x="206.123987" xlink:href="#mca9cfde33a" y="252.870331"/>
      </g>
     </g>
     <g id="text_4">
      <!-- 4/5 -->
      <defs>
       <path d="M 37.796875 64.3125 
L 12.890625 25.390625 
L 37.796875 25.390625 
z
M 35.203125 72.90625 
L 47.609375 72.90625 
L 47.609375 25.390625 
L 58.015625 25.390625 
L 58.015625 17.1875 
L 47.609375 17.1875 
L 47.609375 0 
L 37.796875 0 
L 37.796875 17.1875 
L 4.890625 17.1875 
L 4.890625 26.703125 
z
" id="DejaVuSans-52"/>
      </defs>
      <g transform="translate(196.467737 268.988456)scale(0.12 -0.12)">
       <use xlink:href="#DejaVuSans-52"/>
       <use x="63.623047" xlink:href="#DejaVuSans-47"/>
       <use x="97.314453" xlink:href="#DejaVuSans-53"/>
      </g>
     </g>
    </g>
    <g id="xtick_5">
     <g id="line2d_5">
      <g>
       <use style="stroke:#000000;stroke-width:0.8;" x="249.334046" xlink:href="#mca9cfde33a" y="252.870331"/>
      </g>
     </g>
     <g id="text_5">
      <!-- 1 -->
      <g transform="translate(245.516546 268.988456)scale(0.12 -0.12)">
       <use xlink:href="#DejaVuSans-49"/>
      </g>
     </g>
    </g>
    <g id="xtick_6">
     <g id="line2d_6">
      <g>
       <use style="stroke:#000000;stroke-width:0.8;" x="249.334046" xlink:href="#mca9cfde33a" y="252.870331"/>
      </g>
     </g>
     <g id="text_6">
      <!-- 1 -->
      <g transform="translate(245.516546 268.988456)scale(0.12 -0.12)">
       <use xlink:href="#DejaVuSans-49"/>
      </g>
     </g>
    </g>
    <g id="text_7">
     <!-- $x$ -->
     <defs>
      <path d="M 7.8125 2.875 
Q 9.578125 1.515625 12.796875 1.515625 
Q 15.921875 1.515625 18.3125 4.515625 
Q 20.703125 7.515625 21.578125 11.078125 
L 26.125 28.8125 
Q 27.203125 33.640625 27.203125 35.40625 
Q 27.203125 37.890625 25.8125 39.75 
Q 24.421875 41.609375 21.921875 41.609375 
Q 18.75 41.609375 15.96875 39.625 
Q 13.1875 37.640625 11.28125 34.59375 
Q 9.375 31.546875 8.59375 28.421875 
Q 8.40625 27.78125 7.8125 27.78125 
L 6.59375 27.78125 
Q 5.8125 27.78125 5.8125 28.71875 
L 5.8125 29 
Q 6.78125 32.71875 9.125 36.25 
Q 11.46875 39.796875 14.859375 41.984375 
Q 18.265625 44.1875 22.125 44.1875 
Q 25.78125 44.1875 28.734375 42.234375 
Q 31.6875 40.28125 32.90625 36.921875 
Q 34.625 39.984375 37.28125 42.078125 
Q 39.9375 44.1875 43.109375 44.1875 
Q 45.265625 44.1875 47.5 43.421875 
Q 49.75 42.671875 51.171875 41.109375 
Q 52.59375 39.546875 52.59375 37.203125 
Q 52.59375 34.671875 50.953125 32.828125 
Q 49.3125 31 46.78125 31 
Q 45.171875 31 44.09375 32.03125 
Q 43.015625 33.0625 43.015625 34.625 
Q 43.015625 36.71875 44.453125 38.296875 
Q 45.90625 39.890625 47.90625 40.1875 
Q 46.09375 41.609375 42.921875 41.609375 
Q 39.703125 41.609375 37.328125 38.625 
Q 34.96875 35.640625 33.984375 31.984375 
L 29.59375 14.3125 
Q 28.515625 10.296875 28.515625 7.71875 
Q 28.515625 5.171875 29.953125 3.34375 
Q 31.390625 1.515625 33.796875 1.515625 
Q 38.484375 1.515625 42.15625 5.640625 
Q 45.84375 9.765625 47.015625 14.703125 
Q 47.21875 15.28125 47.796875 15.28125 
L 49.03125 15.28125 
Q 49.421875 15.28125 49.65625 15.015625 
Q 49.90625 14.75 49.90625 14.40625 
Q 49.90625 14.3125 49.8125 14.109375 
Q 48.390625 8.15625 43.84375 3.515625 
Q 39.3125 -1.125 33.59375 -1.125 
Q 29.9375 -1.125 26.984375 0.84375 
Q 24.03125 2.828125 22.796875 6.203125 
Q 21.234375 3.265625 18.46875 1.0625 
Q 15.71875 -1.125 12.59375 -1.125 
Q 10.453125 -1.125 8.171875 -0.359375 
Q 5.90625 0.390625 4.484375 1.953125 
Q 3.078125 3.515625 3.078125 5.90625 
Q 3.078125 8.25 4.703125 10.171875 
Q 6.34375 12.109375 8.796875 12.109375 
Q 10.453125 12.109375 11.578125 11.109375 
Q 12.703125 10.109375 12.703125 8.5 
Q 12.703125 6.390625 11.296875 4.828125 
Q 9.90625 3.265625 7.8125 2.875 
z
" id="Cmmi10-120"/>
     </defs>
     <g transform="translate(261.655052 252.870331)scale(0.19 -0.19)">
      <use transform="translate(0 0.8125)" xlink:href="#Cmmi10-120"/>
     </g>
    </g>
   </g>
   <g id="matplotlib.axis_2">
    <g id="ytick_1">
     <g id="line2d_7">
      <defs>
       <path d="M 0 0 
L -3.5 0 
" id="m93df9bb61a" style="stroke:#000000;stroke-width:0.8;"/>
      </defs>
      <g>
       <use style="stroke:#000000;stroke-width:0.8;" x="33.28375" xlink:href="#m93df9bb61a" y="252.870331"/>
      </g>
     </g>
    </g>
    <g id="ytick_2">
     <g id="line2d_8">
      <g>
       <use style="stroke:#000000;stroke-width:0.8;" x="33.28375" xlink:href="#m93df9bb61a" y="37.888079"/>
      </g>
     </g>
     <g id="text_8">
      <!-- 1.0 -->
      <defs>
       <path d="M 10.6875 12.40625 
L 21 12.40625 
L 21 0 
L 10.6875 0 
z
" id="DejaVuSans-46"/>
       <path d="M 31.78125 66.40625 
Q 24.171875 66.40625 20.328125 58.90625 
Q 16.5 51.421875 16.5 36.375 
Q 16.5 21.390625 20.328125 13.890625 
Q 24.171875 6.390625 31.78125 6.390625 
Q 39.453125 6.390625 43.28125 13.890625 
Q 47.125 21.390625 47.125 36.375 
Q 47.125 51.421875 43.28125 58.90625 
Q 39.453125 66.40625 31.78125 66.40625 
z
M 31.78125 74.21875 
Q 44.046875 74.21875 50.515625 64.515625 
Q 56.984375 54.828125 56.984375 36.375 
Q 56.984375 17.96875 50.515625 8.265625 
Q 44.046875 -1.421875 31.78125 -1.421875 
Q 19.53125 -1.421875 13.0625 8.265625 
Q 6.59375 17.96875 6.59375 36.375 
Q 6.59375 54.828125 13.0625 64.515625 
Q 19.53125 74.21875 31.78125 74.21875 
z
" id="DejaVuSans-48"/>
      </defs>
      <g transform="translate(7.2 42.447142)scale(0.12 -0.12)">
       <use xlink:href="#DejaVuSans-49"/>
       <use x="63.623047" xlink:href="#DejaVuSans-46"/>
       <use x="95.410156" xlink:href="#DejaVuSans-48"/>
      </g>
     </g>
    </g>
    <g id="text_9">
     <!-- $y$ -->
     <defs>
      <path d="M 8.40625 -14.3125 
Q 10.5 -17.921875 15.71875 -17.921875 
Q 20.453125 -17.921875 23.921875 -14.59375 
Q 27.390625 -11.28125 29.515625 -6.5625 
Q 31.640625 -1.859375 32.8125 3.078125 
Q 28.375 -1.125 23.1875 -1.125 
Q 19.234375 -1.125 16.453125 0.234375 
Q 13.671875 1.609375 12.125 4.3125 
Q 10.59375 7.03125 10.59375 10.890625 
Q 10.59375 14.15625 11.46875 17.59375 
Q 12.359375 21.046875 13.9375 25.265625 
Q 15.53125 29.5 16.703125 32.625 
Q 18.015625 36.28125 18.015625 38.625 
Q 18.015625 41.609375 15.828125 41.609375 
Q 11.859375 41.609375 9.296875 37.53125 
Q 6.734375 33.453125 5.515625 28.421875 
Q 5.328125 27.78125 4.6875 27.78125 
L 3.515625 27.78125 
Q 2.6875 27.78125 2.6875 28.71875 
L 2.6875 29 
Q 4.296875 34.96875 7.609375 39.578125 
Q 10.9375 44.1875 16.015625 44.1875 
Q 19.578125 44.1875 22.046875 41.84375 
Q 24.515625 39.5 24.515625 35.890625 
Q 24.515625 34.03125 23.6875 31.984375 
Q 23.25 30.765625 21.6875 26.65625 
Q 20.125 22.5625 19.28125 19.875 
Q 18.453125 17.1875 17.921875 14.59375 
Q 17.390625 12.015625 17.390625 9.421875 
Q 17.390625 6.109375 18.796875 3.8125 
Q 20.21875 1.515625 23.296875 1.515625 
Q 29.5 1.515625 34.421875 9.078125 
L 42 39.890625 
Q 42.328125 41.21875 43.546875 42.15625 
Q 44.78125 43.109375 46.1875 43.109375 
Q 47.40625 43.109375 48.3125 42.328125 
Q 49.21875 41.546875 49.21875 40.28125 
Q 49.21875 39.703125 49.125 39.5 
L 39.203125 -0.296875 
Q 37.890625 -5.421875 34.375 -10.109375 
Q 30.859375 -14.796875 25.90625 -17.65625 
Q 20.953125 -20.515625 15.578125 -20.515625 
Q 12.984375 -20.515625 10.4375 -19.5 
Q 7.90625 -18.5 6.34375 -16.5 
Q 4.78125 -14.5 4.78125 -11.8125 
Q 4.78125 -9.078125 6.390625 -7.078125 
Q 8.015625 -5.078125 10.6875 -5.078125 
Q 12.3125 -5.078125 13.40625 -6.078125 
Q 14.5 -7.078125 14.5 -8.6875 
Q 14.5 -10.984375 12.78125 -12.6875 
Q 11.078125 -14.40625 8.796875 -14.40625 
Q 8.6875 -14.359375 8.59375 -14.328125 
Q 8.5 -14.3125 8.40625 -14.3125 
z
" id="Cmmi10-121"/>
     </defs>
     <g transform="translate(28.53375 21.598438)scale(0.19 -0.19)">
      <use transform="translate(0 0.8125)" xlink:href="#Cmmi10-121"/>
     </g>
    </g>
   </g>
   <g id="line2d_9">
    <path clip-path="url(#pa4c4bd7cf4)" d="M 33.28375 252.870331 
L 33.447739 246.947461 
L 33.857711 241.789657 
L 34.499762 236.741828 
L 35.442098 231.382832 
L 36.588935 226.280042 
L 37.836277 221.663372 
L 39.535768 216.299461 
L 41.504402 210.93517 
L 43.825603 205.382357 
L 46.086738 200.536703 
L 48.787494 195.28081 
L 51.570442 190.325309 
L 55.098728 184.557456 
L 58.699749 179.134468 
L 62.219122 174.194795 
L 66.324944 168.79801 
L 69.786446 164.503832 
L 75.404722 157.946695 
L 81.169838 151.658832 
L 86.050343 146.62626 
L 91.458825 141.314147 
L 96.887773 136.224971 
L 104.286095 129.627541 
L 110.682875 124.195621 
L 117.90007 118.330077 
L 126.067104 111.986806 
L 133.933787 106.135862 
L 142.631018 99.927494 
L 151.684392 93.721958 
L 161.629024 87.173152 
L 171.055408 81.196098 
L 182.389064 74.274328 
L 193.544954 67.713655 
L 205.987014 60.660566 
L 219.121643 53.48541 
L 231.581911 46.909556 
L 245.683877 39.711878 
L 249.334046 37.888079 
L 249.334046 37.888079 
" style="fill:none;stroke:#0000ff;stroke-linecap:square;"/>
   </g>
   <g id="line2d_10">
    <path clip-path="url(#pa4c4bd7cf4)" d="M 33.28375 252.870331 
L 33.28375 156.727345 
L 76.493809 156.727345 
L 76.493809 252.870331 
" style="fill:none;stroke:#ff0000;stroke-linecap:square;"/>
   </g>
   <g id="line2d_11">
    <path clip-path="url(#pa4c4bd7cf4)" d="M 33.28375 156.727345 
L 76.493809 156.727345 
L 76.493809 156.727345 
" style="fill:none;stroke:#ff0000;stroke-linecap:square;"/>
   </g>
   <g id="line2d_12">
    <path clip-path="url(#pa4c4bd7cf4)" d="M 76.493809 252.870331 
L 76.493809 116.903617 
L 119.703868 116.903617 
L 119.703868 252.870331 
" style="fill:none;stroke:#ff0000;stroke-linecap:square;"/>
   </g>
   <g id="line2d_13">
    <path clip-path="url(#pa4c4bd7cf4)" d="M 76.493809 116.903617 
L 119.703868 116.903617 
L 119.703868 116.903617 
" style="fill:none;stroke:#ff0000;stroke-linecap:square;"/>
   </g>
   <g id="line2d_14">
    <path clip-path="url(#pa4c4bd7cf4)" d="M 119.703868 252.870331 
L 119.703868 86.345795 
L 162.913928 86.345795 
L 162.913928 252.870331 
" style="fill:none;stroke:#ff0000;stroke-linecap:square;"/>
   </g>
   <g id="line2d_15">
    <path clip-path="url(#pa4c4bd7cf4)" d="M 119.703868 86.345795 
L 162.913928 86.345795 
L 162.913928 86.345795 
" style="fill:none;stroke:#ff0000;stroke-linecap:square;"/>
   </g>
   <g id="line2d_16">
    <path clip-path="url(#pa4c4bd7cf4)" d="M 162.913928 252.870331 
L 162.913928 60.58436 
L 206.123987 60.58436 
L 206.123987 252.870331 
" style="fill:none;stroke:#ff0000;stroke-linecap:square;"/>
   </g>
   <g id="line2d_17">
    <path clip-path="url(#pa4c4bd7cf4)" d="M 162.913928 60.58436 
L 206.123987 60.58436 
L 206.123987 60.58436 
" style="fill:none;stroke:#ff0000;stroke-linecap:square;"/>
   </g>
   <g id="line2d_18">
    <path clip-path="url(#pa4c4bd7cf4)" d="M 206.123987 252.870331 
L 206.123987 37.888079 
L 249.334046 37.888079 
L 249.334046 252.870331 
" style="fill:none;stroke:#ff0000;stroke-linecap:square;"/>
   </g>
   <g id="line2d_19">
    <path clip-path="url(#pa4c4bd7cf4)" d="M 206.123987 37.888079 
L 249.334046 37.888079 
L 249.334046 37.888079 
" style="fill:none;stroke:#ff0000;stroke-linecap:square;"/>
   </g>
   <g id="patch_8">
    <path d="M 33.28375 257.169976 
L 33.28375 33.588438 
" style="fill:none;stroke:#000000;stroke-linecap:square;stroke-linejoin:miter;stroke-width:0.8;"/>
   </g>
   <g id="patch_9">
    <path d="M 28.962744 252.870331 
L 253.655052 252.870331 
" style="fill:none;stroke:#000000;stroke-linecap:square;stroke-linejoin:miter;stroke-width:0.8;"/>
   </g>
   <g id="text_10">
    <!-- $y=\sqrt{x}$ -->
    <defs>
     <path d="M 7.515625 13.28125 
Q 6.6875 13.28125 6.140625 13.90625 
Q 5.609375 14.546875 5.609375 15.28125 
Q 5.609375 16.109375 6.140625 16.6875 
Q 6.6875 17.28125 7.515625 17.28125 
L 70.3125 17.28125 
Q 71.046875 17.28125 71.578125 16.6875 
Q 72.125 16.109375 72.125 15.28125 
Q 72.125 14.546875 71.578125 13.90625 
Q 71.046875 13.28125 70.3125 13.28125 
z
M 7.515625 32.71875 
Q 6.6875 32.71875 6.140625 33.296875 
Q 5.609375 33.890625 5.609375 34.71875 
Q 5.609375 35.453125 6.140625 36.078125 
Q 6.6875 36.71875 7.515625 36.71875 
L 70.3125 36.71875 
Q 71.046875 36.71875 71.578125 36.078125 
Q 72.125 35.453125 72.125 34.71875 
Q 72.125 33.890625 71.578125 33.296875 
Q 71.046875 32.71875 70.3125 32.71875 
z
" id="Cmr10-61"/>
     <path d="M 42.390625 -116.015625 
L 19.828125 -63.484375 
L 12.796875 -68.890625 
L 10.984375 -67.09375 
L 25.296875 -56 
L 46.390625 -105.078125 
L 98.296875 3.078125 
Q 98.78125 4 100 4 
Q 100.828125 4 101.40625 3.40625 
Q 102 2.828125 102 2 
Q 102 1.515625 101.90625 1.3125 
L 46.09375 -115.09375 
Q 45.703125 -116.015625 44.578125 -116.015625 
z
" id="Cmex10-112"/>
    </defs>
    <g style="fill:#0000ff;" transform="translate(98.143868 67.428054)scale(0.14 -0.14)">
     <use transform="translate(0 0.578125)" xlink:href="#Cmmi10-121"/>
     <use transform="translate(66.582031 0.578125)" xlink:href="#Cmr10-61"/>
     <use transform="translate(161.826172 73.453125)scale(0.637938)" xlink:href="#Cmex10-112"/>
     <use transform="translate(238.107422 0.5625)" xlink:href="#Cmmi10-120"/>
     <path d="M 225.607422 69.5 
L 225.607422 75.75 
L 307.6875 75.75 
L 307.6875 69.5 
L 225.607422 69.5 
z
"/>
    </g>
   </g>
   <g id="text_11">
    <!-- $y=\sqrt{x}$ -->
    <g style="fill:#0000ff;" transform="translate(98.143868 67.428054)scale(0.14 -0.14)">
     <use transform="translate(0 0.578125)" xlink:href="#Cmmi10-121"/>
     <use transform="translate(66.582031 0.578125)" xlink:href="#Cmr10-61"/>
     <use transform="translate(161.826172 73.453125)scale(0.637938)" xlink:href="#Cmex10-112"/>
     <use transform="translate(238.107422 0.5625)" xlink:href="#Cmmi10-120"/>
     <path d="M 225.607422 69.5 
L 225.607422 75.75 
L 307.6875 75.75 
L 307.6875 69.5 
L 225.607422 69.5 
z
"/>
    </g>
   </g>
   <g id="text_12">
    <!-- $y=\sqrt{x}$ -->
    <g style="fill:#0000ff;" transform="translate(98.143868 67.428054)scale(0.14 -0.14)">
     <use transform="translate(0 0.578125)" xlink:href="#Cmmi10-121"/>
     <use transform="translate(66.582031 0.578125)" xlink:href="#Cmr10-61"/>
     <use transform="translate(161.826172 73.453125)scale(0.637938)" xlink:href="#Cmex10-112"/>
     <use transform="translate(238.107422 0.5625)" xlink:href="#Cmmi10-120"/>
     <path d="M 225.607422 69.5 
L 225.607422 75.75 
L 307.6875 75.75 
L 307.6875 69.5 
L 225.607422 69.5 
z
"/>
    </g>
   </g>
   <g id="text_13">
    <!-- $y=\sqrt{x}$ -->
    <g style="fill:#0000ff;" transform="translate(98.143868 67.428054)scale(0.14 -0.14)">
     <use transform="translate(0 0.578125)" xlink:href="#Cmmi10-121"/>
     <use transform="translate(66.582031 0.578125)" xlink:href="#Cmr10-61"/>
     <use transform="translate(161.826172 73.453125)scale(0.637938)" xlink:href="#Cmex10-112"/>
     <use transform="translate(238.107422 0.5625)" xlink:href="#Cmmi10-120"/>
     <path d="M 225.607422 69.5 
L 225.607422 75.75 
L 307.6875 75.75 
L 307.6875 69.5 
L 225.607422 69.5 
z
"/>
    </g>
   </g>
   <g id="text_14">
    <!-- $y=\sqrt{x}$ -->
    <g style="fill:#0000ff;" transform="translate(98.143868 67.428054)scale(0.14 -0.14)">
     <use transform="translate(0 0.578125)" xlink:href="#Cmmi10-121"/>
     <use transform="translate(66.582031 0.578125)" xlink:href="#Cmr10-61"/>
     <use transform="translate(161.826172 73.453125)scale(0.637938)" xlink:href="#Cmex10-112"/>
     <use transform="translate(238.107422 0.5625)" xlink:href="#Cmmi10-120"/>
     <path d="M 225.607422 69.5 
L 225.607422 75.75 
L 307.6875 75.75 
L 307.6875 69.5 
L 225.607422 69.5 
z
"/>
    </g>
   </g>
  </g>
 </g>
 <defs>
  <clipPath id="pa4c4bd7cf4">
   <rect height="223.581538" width="224.692308" x="28.962744" y="33.588437"/>
  </clipPath>
 </defs>
</svg>
