<?xml version="1.0" encoding="utf-8" standalone="no"?>
<!DOCTYPE svg PUBLIC "-//W3C//DTD SVG 1.1//EN"
  "http://www.w3.org/Graphics/SVG/1.1/DTD/svg11.dtd">
<!-- Created with matplotlib (https://matplotlib.org/) -->
<svg height="278.684081pt" version="1.1" viewBox="0 0 351.542877 278.684081" width="351.542877pt" xmlns="http://www.w3.org/2000/svg" xmlns:xlink="http://www.w3.org/1999/xlink">
 <defs>
  <style type="text/css">
*{stroke-linecap:butt;stroke-linejoin:round;}
  </style>
 </defs>
 <g id="figure_1">
  <g id="patch_1">
   <path d="M 0 278.684081 
L 351.542877 278.684081 
L 351.542877 0 
L 0 0 
z
" style="fill:#ffffff;"/>
  </g>
  <g id="axes_1">
   <g id="patch_2">
    <path d="M 27.557493 257.169976 
L 325.322877 257.169976 
L 325.322877 33.588438 
L 27.557493 33.588438 
z
" style="fill:#ffffff;"/>
   </g>
   <g id="PathCollection_1">
    <path clip-path="url(#p5980ee431b)" d="M 57.143156 40.663567 
C 57.562479 40.663567 57.964684 40.496968 58.26119 40.200462 
C 58.557696 39.903956 58.724295 39.501751 58.724295 39.082428 
C 58.724295 38.663105 58.557696 38.2609 58.26119 37.964394 
C 57.964684 37.667888 57.562479 37.501289 57.143156 37.501289 
C 56.723833 37.501289 56.321628 37.667888 56.025122 37.964394 
C 55.728616 38.2609 55.562017 38.663105 55.562017 39.082428 
C 55.562017 39.501751 55.728616 39.903956 56.025122 40.200462 
C 56.321628 40.496968 56.723833 40.663567 57.143156 40.663567 
z
" style="fill:#ff0000;"/>
   </g>
   <g id="PathCollection_2">
    <path clip-path="url(#p5980ee431b)" d="M 104.861967 50.218334 
C 105.28129 50.218334 105.683495 50.051735 105.980001 49.755229 
C 106.276508 49.458723 106.443106 49.056518 106.443106 48.637195 
C 106.443106 48.217872 106.276508 47.815667 105.980001 47.519161 
C 105.683495 47.222655 105.28129 47.056056 104.861967 47.056056 
C 104.442645 47.056056 104.04044 47.222655 103.743933 47.519161 
C 103.447427 47.815667 103.280829 48.217872 103.280829 48.637195 
C 103.280829 49.056518 103.447427 49.458723 103.743933 49.755229 
C 104.04044 50.051735 104.442645 50.218334 104.861967 50.218334 
z
" style="fill:#ff0000;"/>
   </g>
   <g id="PathCollection_3">
    <path clip-path="url(#p5980ee431b)" d="M 152.580779 69.327867 
C 153.000102 69.327867 153.402307 69.161268 153.698813 68.864762 
C 153.995319 68.568256 154.161918 68.166051 154.161918 67.746728 
C 154.161918 67.327405 153.995319 66.9252 153.698813 66.628694 
C 153.402307 66.332188 153.000102 66.165589 152.580779 66.165589 
C 152.161456 66.165589 151.759251 66.332188 151.462745 66.628694 
C 151.166239 66.9252 150.99964 67.327405 150.99964 67.746728 
C 150.99964 68.166051 151.166239 68.568256 151.462745 68.864762 
C 151.759251 69.161268 152.161456 69.327867 152.580779 69.327867 
z
" style="fill:#ff0000;"/>
   </g>
   <g id="PathCollection_4">
    <path clip-path="url(#p5980ee431b)" d="M 200.299591 97.992167 
C 200.718914 97.992167 201.121119 97.825568 201.417625 97.529062 
C 201.714131 97.232556 201.88073 96.830351 201.88073 96.411028 
C 201.88073 95.991705 201.714131 95.5895 201.417625 95.292994 
C 201.121119 94.996488 200.718914 94.829889 200.299591 94.829889 
C 199.880268 94.829889 199.478063 94.996488 199.181557 95.292994 
C 198.885051 95.5895 198.718452 95.991705 198.718452 96.411028 
C 198.718452 96.830351 198.885051 97.232556 199.181557 97.529062 
C 199.478063 97.825568 199.880268 97.992167 200.299591 97.992167 
z
" style="fill:#ff0000;"/>
   </g>
   <g id="PathCollection_5">
    <path clip-path="url(#p5980ee431b)" d="M 248.018402 136.211233 
C 248.437725 136.211233 248.83993 136.044634 249.136436 135.748128 
C 249.432942 135.451622 249.599541 135.049417 249.599541 134.630094 
C 249.599541 134.210771 249.432942 133.808566 249.136436 133.51206 
C 248.83993 133.215554 248.437725 133.048955 248.018402 133.048955 
C 247.599079 133.048955 247.196874 133.215554 246.900368 133.51206 
C 246.603862 133.808566 246.437264 134.210771 246.437264 134.630094 
C 246.437264 135.049417 246.603862 135.451622 246.900368 135.748128 
C 247.196874 136.044634 247.599079 136.211233 248.018402 136.211233 
z
" style="fill:#ff0000;"/>
   </g>
   <g id="PathCollection_6">
    <path clip-path="url(#p5980ee431b)" d="M 295.737214 183.985066 
C 296.156537 183.985066 296.558742 183.818467 296.855248 183.521961 
C 297.151754 183.225455 297.318353 182.82325 297.318353 182.403927 
C 297.318353 181.984604 297.151754 181.582399 296.855248 181.285893 
C 296.558742 180.989387 296.156537 180.822788 295.737214 180.822788 
C 295.317891 180.822788 294.915686 180.989387 294.61918 181.285893 
C 294.322674 181.582399 294.156075 181.984604 294.156075 182.403927 
C 294.156075 182.82325 294.322674 183.225455 294.61918 183.521961 
C 294.915686 183.818467 295.317891 183.985066 295.737214 183.985066 
z
" style="fill:#ff0000;"/>
   </g>
   <g id="patch_3">
    <path clip-path="url(#p5980ee431b)" d="M 33.28375 252.870331 
L 33.28375 39.082428 
L 33.44599 39.082428 
L 33.801677 39.082428 
L 33.883757 39.082428 
L 34.163825 39.082428 
L 34.536719 39.082428 
L 34.756102 39.082428 
L 34.875557 39.082428 
L 35.183674 39.082428 
L 35.528523 39.082428 
L 35.612254 39.082428 
L 36.032297 39.082428 
L 36.157361 39.082428 
L 36.398583 39.082428 
L 36.689088 39.082428 
L 36.975575 39.082428 
L 37.089406 39.082428 
L 37.399781 39.082428 
L 37.662533 39.082428 
L 37.887632 39.082428 
L 38.006538 39.082428 
L 38.220258 39.082428 
L 38.575123 39.082428 
L 38.844448 39.082428 
L 38.946613 39.082428 
L 39.231897 39.082428 
L 39.611856 39.082428 
L 39.809052 39.082428 
L 39.888348 39.082428 
L 40.15689 39.082428 
L 40.476644 39.082428 
L 40.601307 39.082428 
L 40.89541 39.082428 
L 41.297526 39.082428 
L 41.470067 39.082428 
L 41.748122 39.082428 
L 41.909149 39.082428 
L 42.173323 39.082428 
L 42.374813 39.082428 
L 42.657754 39.082428 
L 42.77926 39.082428 
L 43.051185 39.082428 
L 43.264312 39.082428 
L 43.694398 39.082428 
L 43.909384 39.082428 
L 43.97438 39.082428 
L 44.395469 39.082428 
L 44.651575 39.082428 
L 44.742189 39.082428 
L 45.143013 39.082428 
L 45.2043 39.082428 
L 45.60156 39.082428 
L 45.776405 39.082428 
L 46.071571 39.082428 
L 46.159642 39.082428 
L 46.501532 39.082428 
L 46.781672 39.082428 
L 47.030521 39.082428 
L 47.279097 39.082428 
L 47.467216 39.082428 
L 47.684696 39.082428 
L 47.801358 39.082428 
L 48.067201 39.082428 
L 48.313945 39.082428 
L 48.647543 39.082428 
L 48.794083 39.082428 
L 49.177513 39.082428 
L 49.295018 39.082428 
L 49.475286 39.082428 
L 49.795617 39.082428 
L 50.175682 39.082428 
L 50.36095 39.082428 
L 50.601334 39.082428 
L 50.900925 39.082428 
L 50.990711 39.082428 
L 51.248521 39.082428 
L 51.535386 39.082428 
L 51.759676 39.082428 
L 51.933148 39.082428 
L 52.190203 39.082428 
L 52.496168 39.082428 
L 52.698933 39.082428 
L 53.05554 39.082428 
L 53.19648 39.082428 
L 53.451594 39.082428 
L 53.769345 39.082428 
L 53.874934 39.082428 
L 54.203376 39.082428 
L 54.397962 39.082428 
L 54.525398 39.082428 
L 54.984208 39.082428 
L 55.136635 39.082428 
L 55.442375 39.082428 
L 55.683115 39.082428 
L 55.863499 39.082428 
L 56.061745 39.082428 
L 56.245745 39.082428 
L 56.465539 39.082428 
L 56.866867 39.082428 
L 56.991437 39.082428 
L 57.379931 39.082428 
L 57.517138 39.082428 
L 57.626283 39.082428 
L 57.944284 39.082428 
L 58.258175 39.082428 
L 58.553642 39.082428 
L 58.725889 39.082428 
L 58.853337 39.082428 
L 59.075534 39.082428 
L 59.391482 39.082428 
L 59.721046 39.082428 
L 59.927039 39.082428 
L 60.170445 39.082428 
L 60.319737 39.082428 
L 60.64209 39.082428 
L 60.768891 39.082428 
L 61.179001 39.082428 
L 61.388213 39.082428 
L 61.607856 39.082428 
L 61.786893 39.082428 
L 62.048431 39.082428 
L 62.245017 39.082428 
L 62.450694 39.082428 
L 62.674081 39.082428 
L 63.058026 39.082428 
L 63.232459 39.082428 
L 63.384147 39.082428 
L 63.695686 39.082428 
L 64.043525 39.082428 
L 64.23799 39.082428 
L 64.38651 39.082428 
L 64.594711 39.082428 
L 64.945894 39.082428 
L 65.100453 39.082428 
L 65.392101 39.082428 
L 65.636542 39.082428 
L 65.85288 39.082428 
L 66.160827 39.082428 
L 66.418681 39.082428 
L 66.495189 39.082428 
L 66.861018 39.082428 
L 67.20483 39.082428 
L 67.367048 39.082428 
L 67.691636 39.082428 
L 67.830687 39.082428 
L 68.17034 39.082428 
L 68.354965 39.082428 
L 68.636406 39.082428 
L 68.655805 39.082428 
L 68.929258 39.082428 
L 69.326943 39.082428 
L 69.47533 39.082428 
L 69.82775 39.082428 
L 69.88312 39.082428 
L 70.1814 39.082428 
L 70.414403 39.082428 
L 70.684541 39.082428 
L 70.93392 39.082428 
L 71.139841 39.082428 
L 71.330939 39.082428 
L 71.70357 39.082428 
L 71.960742 39.082428 
L 72.074737 39.082428 
L 72.323708 39.082428 
L 72.68029 39.082428 
L 72.961025 39.082428 
L 73.081532 39.082428 
L 73.279983 39.082428 
L 73.637738 39.082428 
L 73.791886 39.082428 
L 73.974835 39.082428 
L 74.39159 39.082428 
L 74.475047 39.082428 
L 74.770907 39.082428 
L 75.080459 39.082428 
L 75.16464 39.082428 
L 75.44568 39.082428 
L 75.702591 39.082428 
L 75.970575 39.082428 
L 76.190846 39.082428 
L 76.391058 39.082428 
L 76.717542 39.082428 
L 76.869897 39.082428 
L 77.065948 39.082428 
L 77.355188 39.082428 
L 77.597339 39.082428 
L 77.802276 39.082428 
L 78.234502 39.082428 
L 78.455746 39.082428 
L 78.494313 39.082428 
L 78.745669 39.082428 
L 79.057416 39.082428 
L 79.239346 39.082428 
L 79.58764 39.082428 
L 79.802073 39.082428 
L 79.951041 39.082428 
L 80.199117 39.082428 
L 80.577374 39.082428 
L 80.729039 39.082428 
L 81.002562 39.082428 
L 81.002562 252.870331 
z
" style="fill:#cde0eb;opacity:0.5;"/>
   </g>
   <g id="patch_4">
    <path clip-path="url(#p5980ee431b)" d="M 81.002562 252.870331 
L 81.002562 48.637195 
L 81.215923 48.637195 
L 81.387468 48.637195 
L 81.71989 48.637195 
L 82.048233 48.637195 
L 82.086619 48.637195 
L 82.454519 48.637195 
L 82.739163 48.637195 
L 82.870327 48.637195 
L 83.063388 48.637195 
L 83.342775 48.637195 
L 83.688567 48.637195 
L 83.881435 48.637195 
L 84.011828 48.637195 
L 84.303473 48.637195 
L 84.550678 48.637195 
L 84.887462 48.637195 
L 85.017294 48.637195 
L 85.282579 48.637195 
L 85.617051 48.637195 
L 85.763111 48.637195 
L 86.060879 48.637195 
L 86.23137 48.637195 
L 86.466423 48.637195 
L 86.841786 48.637195 
L 86.978281 48.637195 
L 87.129364 48.637195 
L 87.58003 48.637195 
L 87.670745 48.637195 
L 88.056405 48.637195 
L 88.190732 48.637195 
L 88.496125 48.637195 
L 88.756983 48.637195 
L 88.989252 48.637195 
L 89.052411 48.637195 
L 89.361038 48.637195 
L 89.594173 48.637195 
L 89.918005 48.637195 
L 90.12011 48.637195 
L 90.392348 48.637195 
L 90.596423 48.637195 
L 90.91714 48.637195 
L 91.056311 48.637195 
L 91.398004 48.637195 
L 91.618505 48.637195 
L 91.877347 48.637195 
L 92.044747 48.637195 
L 92.173879 48.637195 
L 92.487647 48.637195 
L 92.76376 48.637195 
L 92.922071 48.637195 
L 93.172257 48.637195 
L 93.404834 48.637195 
L 93.755328 48.637195 
L 93.998517 48.637195 
L 94.308035 48.637195 
L 94.451395 48.637195 
L 94.779745 48.637195 
L 94.878945 48.637195 
L 95.181821 48.637195 
L 95.494762 48.637195 
L 95.533926 48.637195 
L 95.96881 48.637195 
L 96.162847 48.637195 
L 96.358322 48.637195 
L 96.528975 48.637195 
L 96.72609 48.637195 
L 97.073414 48.637195 
L 97.385951 48.637195 
L 97.632133 48.637195 
L 97.692933 48.637195 
L 98.067785 48.637195 
L 98.34065 48.637195 
L 98.607058 48.637195 
L 98.833767 48.637195 
L 98.95234 48.637195 
L 99.32899 48.637195 
L 99.375785 48.637195 
L 99.806925 48.637195 
L 99.909371 48.637195 
L 100.174878 48.637195 
L 100.54307 48.637195 
L 100.735402 48.637195 
L 100.910011 48.637195 
L 101.098549 48.637195 
L 101.287578 48.637195 
L 101.515432 48.637195 
L 101.8068 48.637195 
L 102.169956 48.637195 
L 102.295518 48.637195 
L 102.698868 48.637195 
L 102.917164 48.637195 
L 103.101736 48.637195 
L 103.297941 48.637195 
L 103.576161 48.637195 
L 103.789583 48.637195 
L 103.917815 48.637195 
L 104.190796 48.637195 
L 104.437063 48.637195 
L 104.737324 48.637195 
L 105.032809 48.637195 
L 105.24844 48.637195 
L 105.560674 48.637195 
L 105.673965 48.637195 
L 106.021731 48.637195 
L 106.146115 48.637195 
L 106.40805 48.637195 
L 106.729324 48.637195 
L 106.801219 48.637195 
L 107.169676 48.637195 
L 107.486956 48.637195 
L 107.508763 48.637195 
L 107.845431 48.637195 
L 108.130577 48.637195 
L 108.380576 48.637195 
L 108.683378 48.637195 
L 108.826261 48.637195 
L 109.03284 48.637195 
L 109.229523 48.637195 
L 109.64284 48.637195 
L 109.70918 48.637195 
L 110.082281 48.637195 
L 110.331018 48.637195 
L 110.535789 48.637195 
L 110.710994 48.637195 
L 110.901091 48.637195 
L 111.128748 48.637195 
L 111.423777 48.637195 
L 111.711655 48.637195 
L 112.050936 48.637195 
L 112.165335 48.637195 
L 112.515925 48.637195 
L 112.542397 48.637195 
L 112.874009 48.637195 
L 113.059467 48.637195 
L 113.406155 48.637195 
L 113.690409 48.637195 
L 113.916723 48.637195 
L 114.1434 48.637195 
L 114.255451 48.637195 
L 114.511948 48.637195 
L 114.843962 48.637195 
L 115.169338 48.637195 
L 115.229746 48.637195 
L 115.634166 48.637195 
L 115.81839 48.637195 
L 115.930576 48.637195 
L 116.160633 48.637195 
L 116.544112 48.637195 
L 116.813304 48.637195 
L 117.017083 48.637195 
L 117.270559 48.637195 
L 117.474033 48.637195 
L 117.655245 48.637195 
L 117.904821 48.637195 
L 118.174583 48.637195 
L 118.436388 48.637195 
L 118.651109 48.637195 
L 118.880588 48.637195 
L 119.09493 48.637195 
L 119.280372 48.637195 
L 119.695489 48.637195 
L 119.825965 48.637195 
L 120.208151 48.637195 
L 120.29563 48.637195 
L 120.487167 48.637195 
L 120.702148 48.637195 
L 121.069145 48.637195 
L 121.337128 48.637195 
L 121.41052 48.637195 
L 121.720468 48.637195 
L 121.928644 48.637195 
L 122.1899 48.637195 
L 122.604869 48.637195 
L 122.83104 48.637195 
L 122.922134 48.637195 
L 123.325818 48.637195 
L 123.562124 48.637195 
L 123.782575 48.637195 
L 123.973362 48.637195 
L 124.046723 48.637195 
L 124.367038 48.637195 
L 124.683659 48.637195 
L 124.856131 48.637195 
L 125.053553 48.637195 
L 125.347279 48.637195 
L 125.690453 48.637195 
L 125.779403 48.637195 
L 126.04114 48.637195 
L 126.419693 48.637195 
L 126.444158 48.637195 
L 126.709588 48.637195 
L 127.141365 48.637195 
L 127.186457 48.637195 
L 127.632308 48.637195 
L 127.869553 48.637195 
L 128.065797 48.637195 
L 128.219245 48.637195 
L 128.544216 48.637195 
L 128.721373 48.637195 
L 128.721373 252.870331 
z
" style="fill:#cde0eb;opacity:0.5;"/>
   </g>
   <g id="patch_5">
    <path clip-path="url(#p5980ee431b)" d="M 128.721373 252.870331 
L 128.721373 67.746728 
L 128.913378 67.746728 
L 129.199257 67.746728 
L 129.455391 67.746728 
L 129.606799 67.746728 
L 130.002499 67.746728 
L 130.092845 67.746728 
L 130.511874 67.746728 
L 130.710927 67.746728 
L 130.884283 67.746728 
L 131.01499 67.746728 
L 131.321128 67.746728 
L 131.480919 67.746728 
L 131.815866 67.746728 
L 132.08967 67.746728 
L 132.31106 67.746728 
L 132.561385 67.746728 
L 132.736285 67.746728 
L 133.081096 67.746728 
L 133.395649 67.746728 
L 133.568276 67.746728 
L 133.703981 67.746728 
L 133.955322 67.746728 
L 134.336487 67.746728 
L 134.518402 67.746728 
L 134.632589 67.746728 
L 134.848024 67.746728 
L 135.188949 67.746728 
L 135.369051 67.746728 
L 135.649632 67.746728 
L 135.945716 67.746728 
L 136.175871 67.746728 
L 136.454944 67.746728 
L 136.519931 67.746728 
L 136.8494 67.746728 
L 137.215669 67.746728 
L 137.27143 67.746728 
L 137.628504 67.746728 
L 137.881689 67.746728 
L 138.057829 67.746728 
L 138.239191 67.746728 
L 138.547704 67.746728 
L 138.813126 67.746728 
L 139.05661 67.746728 
L 139.267469 67.746728 
L 139.546932 67.746728 
L 139.643074 67.746728 
L 139.970551 67.746728 
L 140.165459 67.746728 
L 140.497808 67.746728 
L 140.737576 67.746728 
L 140.929393 67.746728 
L 141.245573 67.746728 
L 141.469411 67.746728 
L 141.778137 67.746728 
L 141.884602 67.746728 
L 142.150703 67.746728 
L 142.415877 67.746728 
L 142.73491 67.746728 
L 142.793741 67.746728 
L 143.152554 67.746728 
L 143.459542 67.746728 
L 143.697595 67.746728 
L 143.941941 67.746728 
L 144.155628 67.746728 
L 144.309098 67.746728 
L 144.557314 67.746728 
L 144.853489 67.746728 
L 145.095674 67.746728 
L 145.319671 67.746728 
L 145.461723 67.746728 
L 145.757849 67.746728 
L 146.101735 67.746728 
L 146.298261 67.746728 
L 146.560254 67.746728 
L 146.686984 67.746728 
L 147.02953 67.746728 
L 147.077174 67.746728 
L 147.484326 67.746728 
L 147.756403 67.746728 
L 147.804259 67.746728 
L 148.180511 67.746728 
L 148.282235 67.746728 
L 148.735735 67.746728 
L 148.776434 67.746728 
L 149.056058 67.746728 
L 149.441402 67.746728 
L 149.471557 67.746728 
L 149.931102 67.746728 
L 150.17612 67.746728 
L 150.331504 67.746728 
L 150.484329 67.746728 
L 150.801618 67.746728 
L 151.133652 67.746728 
L 151.185762 67.746728 
L 151.526196 67.746728 
L 151.828318 67.746728 
L 151.937441 67.746728 
L 152.122748 67.746728 
L 152.462229 67.746728 
L 152.616538 67.746728 
L 153.008452 67.746728 
L 153.269943 67.746728 
L 153.434102 67.746728 
L 153.679803 67.746728 
L 153.836994 67.746728 
L 154.231425 67.746728 
L 154.25967 67.746728 
L 154.656384 67.746728 
L 154.905321 67.746728 
L 155.141864 67.746728 
L 155.345784 67.746728 
L 155.588159 67.746728 
L 155.715675 67.746728 
L 156.102754 67.746728 
L 156.234617 67.746728 
L 156.539347 67.746728 
L 156.855843 67.746728 
L 157.047881 67.746728 
L 157.139015 67.746728 
L 157.509637 67.746728 
L 157.834012 67.746728 
L 158.069081 67.746728 
L 158.244992 67.746728 
L 158.417864 67.746728 
L 158.622817 67.746728 
L 159.054995 67.746728 
L 159.207374 67.746728 
L 159.31399 67.746728 
L 159.590202 67.746728 
L 159.952652 67.746728 
L 160.148633 67.746728 
L 160.481474 67.746728 
L 160.530039 67.746728 
L 160.737009 67.746728 
L 161.128275 67.746728 
L 161.445686 67.746728 
L 161.551986 67.746728 
L 161.868341 67.746728 
L 161.951279 67.746728 
L 162.219253 67.746728 
L 162.597505 67.746728 
L 162.78763 67.746728 
L 163.037785 67.746728 
L 163.141073 67.746728 
L 163.533422 67.746728 
L 163.719786 67.746728 
L 163.884955 67.746728 
L 164.294282 67.746728 
L 164.479862 67.746728 
L 164.720789 67.746728 
L 164.827399 67.746728 
L 165.139501 67.746728 
L 165.461625 67.746728 
L 165.653992 67.746728 
L 165.834615 67.746728 
L 166.145273 67.746728 
L 166.327784 67.746728 
L 166.612882 67.746728 
L 166.946753 67.746728 
L 167.193385 67.746728 
L 167.246089 67.746728 
L 167.485685 67.746728 
L 167.699726 67.746728 
L 168.047468 67.746728 
L 168.199242 67.746728 
L 168.440161 67.746728 
L 168.673342 67.746728 
L 168.981467 67.746728 
L 169.290435 67.746728 
L 169.466502 67.746728 
L 169.804416 67.746728 
L 169.906454 67.746728 
L 170.274637 67.746728 
L 170.415333 67.746728 
L 170.622646 67.746728 
L 170.929794 67.746728 
L 171.084514 67.746728 
L 171.370435 67.746728 
L 171.710813 67.746728 
L 171.900902 67.746728 
L 172.007753 67.746728 
L 172.287155 67.746728 
L 172.65092 67.746728 
L 172.92748 67.746728 
L 173.056681 67.746728 
L 173.366357 67.746728 
L 173.619455 67.746728 
L 173.908944 67.746728 
L 174.129134 67.746728 
L 174.368955 67.746728 
L 174.425075 67.746728 
L 174.661487 67.746728 
L 175.099414 67.746728 
L 175.320223 67.746728 
L 175.536713 67.746728 
L 175.683564 67.746728 
L 175.926766 67.746728 
L 176.292302 67.746728 
L 176.440185 67.746728 
L 176.440185 252.870331 
z
" style="fill:#cde0eb;opacity:0.5;"/>
   </g>
   <g id="patch_6">
    <path clip-path="url(#p5980ee431b)" d="M 176.440185 252.870331 
L 176.440185 96.411028 
L 176.723764 96.411028 
L 176.957531 96.411028 
L 177.249437 96.411028 
L 177.309357 96.411028 
L 177.557445 96.411028 
L 177.869066 96.411028 
L 178.145742 96.411028 
L 178.444224 96.411028 
L 178.678836 96.411028 
L 178.828051 96.411028 
L 179.179328 96.411028 
L 179.361952 96.411028 
L 179.652138 96.411028 
L 179.759294 96.411028 
L 179.986556 96.411028 
L 180.343699 96.411028 
L 180.546632 96.411028 
L 180.712738 96.411028 
L 181.054393 96.411028 
L 181.314362 96.411028 
L 181.378955 96.411028 
L 181.637502 96.411028 
L 182.063398 96.411028 
L 182.289247 96.411028 
L 182.431742 96.411028 
L 182.620779 96.411028 
L 182.861786 96.411028 
L 183.180787 96.411028 
L 183.372244 96.411028 
L 183.674848 96.411028 
L 183.924355 96.411028 
L 184.222869 96.411028 
L 184.355066 96.411028 
L 184.559496 96.411028 
L 184.755959 96.411028 
L 185.006236 96.411028 
L 185.321968 96.411028 
L 185.669459 96.411028 
L 185.785125 96.411028 
L 186.026626 96.411028 
L 186.372288 96.411028 
L 186.46481 96.411028 
L 186.687136 96.411028 
L 186.995061 96.411028 
L 187.334236 96.411028 
L 187.525317 96.411028 
L 187.819883 96.411028 
L 188.024614 96.411028 
L 188.111201 96.411028 
L 188.459012 96.411028 
L 188.558872 96.411028 
L 188.902203 96.411028 
L 189.218484 96.411028 
L 189.292353 96.411028 
L 189.703662 96.411028 
L 189.798199 96.411028 
L 190.114008 96.411028 
L 190.231979 96.411028 
L 190.705611 96.411028 
L 190.937704 96.411028 
L 191.006709 96.411028 
L 191.365437 96.411028 
L 191.580242 96.411028 
L 191.757771 96.411028 
L 192.110384 96.411028 
L 192.309351 96.411028 
L 192.440168 96.411028 
L 192.79901 96.411028 
L 193.083795 96.411028 
L 193.27779 96.411028 
L 193.371405 96.411028 
L 193.818829 96.411028 
L 194.064872 96.411028 
L 194.3027 96.411028 
L 194.360109 96.411028 
L 194.732024 96.411028 
L 194.992808 96.411028 
L 195.0469 96.411028 
L 195.292661 96.411028 
L 195.682436 96.411028 
L 195.893923 96.411028 
L 196.085213 96.411028 
L 196.27774 96.411028 
L 196.568765 96.411028 
L 196.713291 96.411028 
L 197.116328 96.411028 
L 197.227533 96.411028 
L 197.540847 96.411028 
L 197.683875 96.411028 
L 198.025573 96.411028 
L 198.144693 96.411028 
L 198.472721 96.411028 
L 198.816675 96.411028 
L 199.017807 96.411028 
L 199.335357 96.411028 
L 199.398271 96.411028 
L 199.769029 96.411028 
L 200.049958 96.411028 
L 200.061718 96.411028 
L 200.302203 96.411028 
L 200.637385 96.411028 
L 200.865757 96.411028 
L 201.201811 96.411028 
L 201.284662 96.411028 
L 201.53643 96.411028 
L 201.832923 96.411028 
L 202.177124 96.411028 
L 202.426458 96.411028 
L 202.63753 96.411028 
L 202.904621 96.411028 
L 203.160991 96.411028 
L 203.298126 96.411028 
L 203.482831 96.411028 
L 203.822422 96.411028 
L 204.039414 96.411028 
L 204.265277 96.411028 
L 204.527579 96.411028 
L 204.638677 96.411028 
L 204.940431 96.411028 
L 205.294788 96.411028 
L 205.554734 96.411028 
L 205.614687 96.411028 
L 205.829901 96.411028 
L 206.284513 96.411028 
L 206.509214 96.411028 
L 206.748928 96.411028 
L 206.775196 96.411028 
L 207.24856 96.411028 
L 207.41614 96.411028 
L 207.632169 96.411028 
L 207.871103 96.411028 
L 207.978644 96.411028 
L 208.422168 96.411028 
L 208.659371 96.411028 
L 208.883956 96.411028 
L 209.037456 96.411028 
L 209.328368 96.411028 
L 209.586942 96.411028 
L 209.849381 96.411028 
L 210.072099 96.411028 
L 210.173185 96.411028 
L 210.529796 96.411028 
L 210.738872 96.411028 
L 211.016499 96.411028 
L 211.20986 96.411028 
L 211.54211 96.411028 
L 211.798823 96.411028 
L 211.820352 96.411028 
L 212.254033 96.411028 
L 212.299699 96.411028 
L 212.686971 96.411028 
L 212.816562 96.411028 
L 213.026094 96.411028 
L 213.444719 96.411028 
L 213.662487 96.411028 
L 213.817226 96.411028 
L 214.025393 96.411028 
L 214.328068 96.411028 
L 214.67024 96.411028 
L 214.705443 96.411028 
L 214.982097 96.411028 
L 215.200113 96.411028 
L 215.579118 96.411028 
L 215.803941 96.411028 
L 216.116967 96.411028 
L 216.13404 96.411028 
L 216.569329 96.411028 
L 216.644079 96.411028 
L 216.899963 96.411028 
L 217.166835 96.411028 
L 217.553857 96.411028 
L 217.710784 96.411028 
L 217.913818 96.411028 
L 218.149441 96.411028 
L 218.516623 96.411028 
L 218.727659 96.411028 
L 218.807868 96.411028 
L 219.239246 96.411028 
L 219.440801 96.411028 
L 219.580909 96.411028 
L 219.729524 96.411028 
L 220.119623 96.411028 
L 220.341176 96.411028 
L 220.480595 96.411028 
L 220.781674 96.411028 
L 221.112865 96.411028 
L 221.224061 96.411028 
L 221.554215 96.411028 
L 221.760232 96.411028 
L 222.079441 96.411028 
L 222.313144 96.411028 
L 222.4456 96.411028 
L 222.739809 96.411028 
L 222.86255 96.411028 
L 223.1751 96.411028 
L 223.394165 96.411028 
L 223.657931 96.411028 
L 224.024859 96.411028 
L 224.158997 96.411028 
L 224.158997 252.870331 
z
" style="fill:#cde0eb;opacity:0.5;"/>
   </g>
   <g id="patch_7">
    <path clip-path="url(#p5980ee431b)" d="M 224.158997 252.870331 
L 224.158997 134.630094 
L 224.501018 134.630094 
L 224.621002 134.630094 
L 224.840599 134.630094 
L 225.168554 134.630094 
L 225.386476 134.630094 
L 225.531112 134.630094 
L 225.852025 134.630094 
L 226.002841 134.630094 
L 226.339066 134.630094 
L 226.659109 134.630094 
L 226.68555 134.630094 
L 227.075938 134.630094 
L 227.185693 134.630094 
L 227.578911 134.630094 
L 227.636081 134.630094 
L 227.907121 134.630094 
L 228.237965 134.630094 
L 228.528018 134.630094 
L 228.599964 134.630094 
L 229.041786 134.630094 
L 229.090201 134.630094 
L 229.358266 134.630094 
L 229.633062 134.630094 
L 229.912 134.630094 
L 230.229256 134.630094 
L 230.387515 134.630094 
L 230.640171 134.630094 
L 230.936017 134.630094 
L 231.000203 134.630094 
L 231.450467 134.630094 
L 231.703062 134.630094 
L 231.785082 134.630094 
L 232.142311 134.630094 
L 232.388483 134.630094 
L 232.48156 134.630094 
L 232.889905 134.630094 
L 233.011785 134.630094 
L 233.293568 134.630094 
L 233.572565 134.630094 
L 233.691159 134.630094 
L 234.102812 134.630094 
L 234.227704 134.630094 
L 234.565145 134.630094 
L 234.633249 134.630094 
L 234.949412 134.630094 
L 235.247132 134.630094 
L 235.545453 134.630094 
L 235.69417 134.630094 
L 235.841818 134.630094 
L 236.123009 134.630094 
L 236.419253 134.630094 
L 236.736334 134.630094 
L 236.81801 134.630094 
L 237.096496 134.630094 
L 237.270831 134.630094 
L 237.50694 134.630094 
L 237.889019 134.630094 
L 238.006702 134.630094 
L 238.337016 134.630094 
L 238.665032 134.630094 
L 238.712581 134.630094 
L 239.020238 134.630094 
L 239.275984 134.630094 
L 239.445425 134.630094 
L 239.678978 134.630094 
L 240.033671 134.630094 
L 240.236887 134.630094 
L 240.461167 134.630094 
L 240.755817 134.630094 
L 240.864808 134.630094 
L 241.273389 134.630094 
L 241.458813 134.630094 
L 241.745389 134.630094 
L 241.875978 134.630094 
L 242.138521 134.630094 
L 242.29719 134.630094 
L 242.653655 134.630094 
L 242.755107 134.630094 
L 243.179266 134.630094 
L 243.356632 134.630094 
L 243.654938 134.630094 
L 243.721091 134.630094 
L 244.127188 134.630094 
L 244.415996 134.630094 
L 244.491438 134.630094 
L 244.789901 134.630094 
L 245.099519 134.630094 
L 245.186627 134.630094 
L 245.415244 134.630094 
L 245.661963 134.630094 
L 245.978004 134.630094 
L 246.133355 134.630094 
L 246.410499 134.630094 
L 246.691467 134.630094 
L 246.827495 134.630094 
L 247.166468 134.630094 
L 247.376894 134.630094 
L 247.775354 134.630094 
L 247.902203 134.630094 
L 248.035435 134.630094 
L 248.276473 134.630094 
L 248.63827 134.630094 
L 248.890332 134.630094 
L 249.186336 134.630094 
L 249.251487 134.630094 
L 249.465742 134.630094 
L 249.789488 134.630094 
L 249.978839 134.630094 
L 250.206653 134.630094 
L 250.634068 134.630094 
L 250.664573 134.630094 
L 250.955363 134.630094 
L 251.194015 134.630094 
L 251.54824 134.630094 
L 251.796903 134.630094 
L 251.99003 134.630094 
L 252.272768 134.630094 
L 252.35977 134.630094 
L 252.58042 134.630094 
L 252.824445 134.630094 
L 253.259229 134.630094 
L 253.458083 134.630094 
L 253.654865 134.630094 
L 253.959628 134.630094 
L 254.103957 134.630094 
L 254.358245 134.630094 
L 254.587806 134.630094 
L 254.758851 134.630094 
L 255.111687 134.630094 
L 255.268724 134.630094 
L 255.536743 134.630094 
L 255.821111 134.630094 
L 256.063445 134.630094 
L 256.217213 134.630094 
L 256.589201 134.630094 
L 256.807156 134.630094 
L 257.070217 134.630094 
L 257.292213 134.630094 
L 257.507041 134.630094 
L 257.615367 134.630094 
L 257.999543 134.630094 
L 258.096236 134.630094 
L 258.450417 134.630094 
L 258.644913 134.630094 
L 258.855605 134.630094 
L 259.22823 134.630094 
L 259.357674 134.630094 
L 259.563518 134.630094 
L 259.960988 134.630094 
L 260.149627 134.630094 
L 260.408947 134.630094 
L 260.518553 134.630094 
L 260.887638 134.630094 
L 261.125704 134.630094 
L 261.376345 134.630094 
L 261.518327 134.630094 
L 261.809036 134.630094 
L 262.0005 134.630094 
L 262.260974 134.630094 
L 262.586149 134.630094 
L 262.708419 134.630094 
L 263.062085 134.630094 
L 263.267654 134.630094 
L 263.533653 134.630094 
L 263.77751 134.630094 
L 263.867023 134.630094 
L 264.183208 134.630094 
L 264.546389 134.630094 
L 264.73247 134.630094 
L 265.043347 134.630094 
L 265.118406 134.630094 
L 265.382609 134.630094 
L 265.535329 134.630094 
L 265.919052 134.630094 
L 266.122267 134.630094 
L 266.377825 134.630094 
L 266.506069 134.630094 
L 266.929519 134.630094 
L 267.021881 134.630094 
L 267.265289 134.630094 
L 267.532003 134.630094 
L 267.844866 134.630094 
L 268.007503 134.630094 
L 268.389524 134.630094 
L 268.495631 134.630094 
L 268.825284 134.630094 
L 269.089819 134.630094 
L 269.305965 134.630094 
L 269.481363 134.630094 
L 269.625393 134.630094 
L 269.870402 134.630094 
L 270.151649 134.630094 
L 270.425727 134.630094 
L 270.604825 134.630094 
L 270.873887 134.630094 
L 271.075887 134.630094 
L 271.404463 134.630094 
L 271.655856 134.630094 
L 271.877808 134.630094 
L 271.877808 252.870331 
z
" style="fill:#cde0eb;opacity:0.5;"/>
   </g>
   <g id="patch_8">
    <path clip-path="url(#p5980ee431b)" d="M 271.877808 252.870331 
L 271.877808 182.403927 
L 272.16332 182.403927 
L 272.268369 182.403927 
L 272.686946 182.403927 
L 272.786356 182.403927 
L 273.010675 182.403927 
L 273.218986 182.403927 
L 273.514972 182.403927 
L 273.799258 182.403927 
L 274.092201 182.403927 
L 274.279927 182.403927 
L 274.456452 182.403927 
L 274.649188 182.403927 
L 275.107412 182.403927 
L 275.312145 182.403927 
L 275.363974 182.403927 
L 275.673766 182.403927 
L 275.836054 182.403927 
L 276.185318 182.403927 
L 276.330527 182.403927 
L 276.652859 182.403927 
L 276.925509 182.403927 
L 277.18104 182.403927 
L 277.29738 182.403927 
L 277.574078 182.403927 
L 277.831179 182.403927 
L 278.089631 182.403927 
L 278.44813 182.403927 
L 278.667752 182.403927 
L 278.747154 182.403927 
L 279.000032 182.403927 
L 279.3015 182.403927 
L 279.455252 182.403927 
L 279.715393 182.403927 
L 280.120324 182.403927 
L 280.211758 182.403927 
L 280.44913 182.403927 
L 280.653953 182.403927 
L 281.096379 182.403927 
L 281.226305 182.403927 
L 281.537406 182.403927 
L 281.748488 182.403927 
L 281.937528 182.403927 
L 282.157628 182.403927 
L 282.355346 182.403927 
L 282.744681 182.403927 
L 282.974855 182.403927 
L 283.22147 182.403927 
L 283.483705 182.403927 
L 283.670023 182.403927 
L 283.811576 182.403927 
L 284.057031 182.403927 
L 284.279749 182.403927 
L 284.649573 182.403927 
L 284.731009 182.403927 
L 285.059496 182.403927 
L 285.204055 182.403927 
L 285.645419 182.403927 
L 285.842697 182.403927 
L 286.07952 182.403927 
L 286.310579 182.403927 
L 286.413666 182.403927 
L 286.671183 182.403927 
L 286.932636 182.403927 
L 287.181743 182.403927 
L 287.408894 182.403927 
L 287.659072 182.403927 
L 287.878097 182.403927 
L 288.112965 182.403927 
L 288.514094 182.403927 
L 288.742422 182.403927 
L 288.907932 182.403927 
L 289.162314 182.403927 
L 289.404974 182.403927 
L 289.550713 182.403927 
L 289.847212 182.403927 
L 290.203118 182.403927 
L 290.404886 182.403927 
L 290.662677 182.403927 
L 290.898182 182.403927 
L 291.179284 182.403927 
L 291.357847 182.403927 
L 291.45696 182.403927 
L 291.861596 182.403927 
L 292.113911 182.403927 
L 292.359944 182.403927 
L 292.411605 182.403927 
L 292.730714 182.403927 
L 292.887013 182.403927 
L 293.202817 182.403927 
L 293.553908 182.403927 
L 293.804149 182.403927 
L 294.022889 182.403927 
L 294.223116 182.403927 
L 294.304544 182.403927 
L 294.578545 182.403927 
L 294.850292 182.403927 
L 295.126078 182.403927 
L 295.315164 182.403927 
L 295.727825 182.403927 
L 295.818364 182.403927 
L 296.011668 182.403927 
L 296.333979 182.403927 
L 296.512125 182.403927 
L 296.776918 182.403927 
L 297.01414 182.403927 
L 297.189409 182.403927 
L 297.579038 182.403927 
L 297.661047 182.403927 
L 298.009897 182.403927 
L 298.369692 182.403927 
L 298.414444 182.403927 
L 298.62681 182.403927 
L 299.03845 182.403927 
L 299.110916 182.403927 
L 299.405139 182.403927 
L 299.577629 182.403927 
L 299.999066 182.403927 
L 300.215233 182.403927 
L 300.452425 182.403927 
L 300.707374 182.403927 
L 300.947436 182.403927 
L 301.18639 182.403927 
L 301.46162 182.403927 
L 301.672827 182.403927 
L 301.847722 182.403927 
L 302.090868 182.403927 
L 302.271989 182.403927 
L 302.647738 182.403927 
L 302.888481 182.403927 
L 303.067645 182.403927 
L 303.184116 182.403927 
L 303.541299 182.403927 
L 303.844489 182.403927 
L 304.009294 182.403927 
L 304.134827 182.403927 
L 304.443515 182.403927 
L 304.613706 182.403927 
L 305.055219 182.403927 
L 305.193982 182.403927 
L 305.426232 182.403927 
L 305.708215 182.403927 
L 305.812048 182.403927 
L 306.229734 182.403927 
L 306.411475 182.403927 
L 306.630998 182.403927 
L 306.799765 182.403927 
L 307.211183 182.403927 
L 307.281536 182.403927 
L 307.670363 182.403927 
L 307.790598 182.403927 
L 307.992922 182.403927 
L 308.323025 182.403927 
L 308.606946 182.403927 
L 308.730844 182.403927 
L 309.065062 182.403927 
L 309.301191 182.403927 
L 309.545321 182.403927 
L 309.793409 182.403927 
L 310.040207 182.403927 
L 310.210138 182.403927 
L 310.403856 182.403927 
L 310.724423 182.403927 
L 310.986675 182.403927 
L 311.247101 182.403927 
L 311.546714 182.403927 
L 311.585522 182.403927 
L 311.972736 182.403927 
L 312.144426 182.403927 
L 312.49627 182.403927 
L 312.598515 182.403927 
L 312.824522 182.403927 
L 313.068672 182.403927 
L 313.301238 182.403927 
L 313.672215 182.403927 
L 313.753158 182.403927 
L 314.100722 182.403927 
L 314.407218 182.403927 
L 314.478374 182.403927 
L 314.881176 182.403927 
L 315.133569 182.403927 
L 315.369203 182.403927 
L 315.559904 182.403927 
L 315.840074 182.403927 
L 315.88789 182.403927 
L 316.162318 182.403927 
L 316.472525 182.403927 
L 316.807835 182.403927 
L 317.007634 182.403927 
L 317.160562 182.403927 
L 317.557566 182.403927 
L 317.580237 182.403927 
L 317.814237 182.403927 
L 318.103439 182.403927 
L 318.368829 182.403927 
L 318.579814 182.403927 
L 318.948378 182.403927 
L 319.220901 182.403927 
L 319.450739 182.403927 
L 319.59662 182.403927 
L 319.59662 252.870331 
z
" style="fill:#cde0eb;opacity:0.5;"/>
   </g>
   <g id="matplotlib.axis_1">
    <g id="xtick_1">
     <g id="line2d_1">
      <defs>
       <path d="M 0 0 
L 0 3.5 
" id="m4ca102f233" style="stroke:#000000;stroke-width:0.8;"/>
      </defs>
      <g>
       <use style="stroke:#000000;stroke-width:0.8;" x="57.143156" xlink:href="#m4ca102f233" y="252.870331"/>
      </g>
     </g>
     <g id="text_1">
      <!-- 1/6 -->
      <defs>
       <path d="M 12.40625 8.296875 
L 28.515625 8.296875 
L 28.515625 63.921875 
L 10.984375 60.40625 
L 10.984375 69.390625 
L 28.421875 72.90625 
L 38.28125 72.90625 
L 38.28125 8.296875 
L 54.390625 8.296875 
L 54.390625 0 
L 12.40625 0 
z
" id="DejaVuSans-49"/>
       <path d="M 25.390625 72.90625 
L 33.6875 72.90625 
L 8.296875 -9.28125 
L 0 -9.28125 
z
" id="DejaVuSans-47"/>
       <path d="M 33.015625 40.375 
Q 26.375 40.375 22.484375 35.828125 
Q 18.609375 31.296875 18.609375 23.390625 
Q 18.609375 15.53125 22.484375 10.953125 
Q 26.375 6.390625 33.015625 6.390625 
Q 39.65625 6.390625 43.53125 10.953125 
Q 47.40625 15.53125 47.40625 23.390625 
Q 47.40625 31.296875 43.53125 35.828125 
Q 39.65625 40.375 33.015625 40.375 
z
M 52.59375 71.296875 
L 52.59375 62.3125 
Q 48.875 64.0625 45.09375 64.984375 
Q 41.3125 65.921875 37.59375 65.921875 
Q 27.828125 65.921875 22.671875 59.328125 
Q 17.53125 52.734375 16.796875 39.40625 
Q 19.671875 43.65625 24.015625 45.921875 
Q 28.375 48.1875 33.59375 48.1875 
Q 44.578125 48.1875 50.953125 41.515625 
Q 57.328125 34.859375 57.328125 23.390625 
Q 57.328125 12.15625 50.6875 5.359375 
Q 44.046875 -1.421875 33.015625 -1.421875 
Q 20.359375 -1.421875 13.671875 8.265625 
Q 6.984375 17.96875 6.984375 36.375 
Q 6.984375 53.65625 15.1875 63.9375 
Q 23.390625 74.21875 37.203125 74.21875 
Q 40.921875 74.21875 44.703125 73.484375 
Q 48.484375 72.75 52.59375 71.296875 
z
" id="DejaVuSans-54"/>
      </defs>
      <g transform="translate(47.486906 268.988456)scale(0.12 -0.12)">
       <use xlink:href="#DejaVuSans-49"/>
       <use x="63.623047" xlink:href="#DejaVuSans-47"/>
       <use x="97.314453" xlink:href="#DejaVuSans-54"/>
      </g>
     </g>
    </g>
    <g id="xtick_2">
     <g id="line2d_2">
      <g>
       <use style="stroke:#000000;stroke-width:0.8;" x="104.861967" xlink:href="#m4ca102f233" y="252.870331"/>
      </g>
     </g>
     <g id="text_2">
      <!-- 1/2 -->
      <defs>
       <path d="M 19.1875 8.296875 
L 53.609375 8.296875 
L 53.609375 0 
L 7.328125 0 
L 7.328125 8.296875 
Q 12.9375 14.109375 22.625 23.890625 
Q 32.328125 33.6875 34.8125 36.53125 
Q 39.546875 41.84375 41.421875 45.53125 
Q 43.3125 49.21875 43.3125 52.78125 
Q 43.3125 58.59375 39.234375 62.25 
Q 35.15625 65.921875 28.609375 65.921875 
Q 23.96875 65.921875 18.8125 64.3125 
Q 13.671875 62.703125 7.8125 59.421875 
L 7.8125 69.390625 
Q 13.765625 71.78125 18.9375 73 
Q 24.125 74.21875 28.421875 74.21875 
Q 39.75 74.21875 46.484375 68.546875 
Q 53.21875 62.890625 53.21875 53.421875 
Q 53.21875 48.921875 51.53125 44.890625 
Q 49.859375 40.875 45.40625 35.40625 
Q 44.1875 33.984375 37.640625 27.21875 
Q 31.109375 20.453125 19.1875 8.296875 
z
" id="DejaVuSans-50"/>
      </defs>
      <g transform="translate(95.205717 268.988456)scale(0.12 -0.12)">
       <use xlink:href="#DejaVuSans-49"/>
       <use x="63.623047" xlink:href="#DejaVuSans-47"/>
       <use x="97.314453" xlink:href="#DejaVuSans-50"/>
      </g>
     </g>
    </g>
    <g id="xtick_3">
     <g id="line2d_3">
      <g>
       <use style="stroke:#000000;stroke-width:0.8;" x="152.580779" xlink:href="#m4ca102f233" y="252.870331"/>
      </g>
     </g>
     <g id="text_3">
      <!-- 5/6 -->
      <defs>
       <path d="M 10.796875 72.90625 
L 49.515625 72.90625 
L 49.515625 64.59375 
L 19.828125 64.59375 
L 19.828125 46.734375 
Q 21.96875 47.46875 24.109375 47.828125 
Q 26.265625 48.1875 28.421875 48.1875 
Q 40.625 48.1875 47.75 41.5 
Q 54.890625 34.8125 54.890625 23.390625 
Q 54.890625 11.625 47.5625 5.09375 
Q 40.234375 -1.421875 26.90625 -1.421875 
Q 22.3125 -1.421875 17.546875 -0.640625 
Q 12.796875 0.140625 7.71875 1.703125 
L 7.71875 11.625 
Q 12.109375 9.234375 16.796875 8.0625 
Q 21.484375 6.890625 26.703125 6.890625 
Q 35.15625 6.890625 40.078125 11.328125 
Q 45.015625 15.765625 45.015625 23.390625 
Q 45.015625 31 40.078125 35.4375 
Q 35.15625 39.890625 26.703125 39.890625 
Q 22.75 39.890625 18.8125 39.015625 
Q 14.890625 38.140625 10.796875 36.28125 
z
" id="DejaVuSans-53"/>
      </defs>
      <g transform="translate(142.924529 268.988456)scale(0.12 -0.12)">
       <use xlink:href="#DejaVuSans-53"/>
       <use x="63.623047" xlink:href="#DejaVuSans-47"/>
       <use x="97.314453" xlink:href="#DejaVuSans-54"/>
      </g>
     </g>
    </g>
    <g id="xtick_4">
     <g id="line2d_4">
      <g>
       <use style="stroke:#000000;stroke-width:0.8;" x="200.299591" xlink:href="#m4ca102f233" y="252.870331"/>
      </g>
     </g>
     <g id="text_4">
      <!-- 7/6 -->
      <defs>
       <path d="M 8.203125 72.90625 
L 55.078125 72.90625 
L 55.078125 68.703125 
L 28.609375 0 
L 18.3125 0 
L 43.21875 64.59375 
L 8.203125 64.59375 
z
" id="DejaVuSans-55"/>
      </defs>
      <g transform="translate(190.643341 268.988456)scale(0.12 -0.12)">
       <use xlink:href="#DejaVuSans-55"/>
       <use x="63.623047" xlink:href="#DejaVuSans-47"/>
       <use x="97.314453" xlink:href="#DejaVuSans-54"/>
      </g>
     </g>
    </g>
    <g id="xtick_5">
     <g id="line2d_5">
      <g>
       <use style="stroke:#000000;stroke-width:0.8;" x="248.018402" xlink:href="#m4ca102f233" y="252.870331"/>
      </g>
     </g>
     <g id="text_5">
      <!-- 3/2 -->
      <defs>
       <path d="M 40.578125 39.3125 
Q 47.65625 37.796875 51.625 33 
Q 55.609375 28.21875 55.609375 21.1875 
Q 55.609375 10.40625 48.1875 4.484375 
Q 40.765625 -1.421875 27.09375 -1.421875 
Q 22.515625 -1.421875 17.65625 -0.515625 
Q 12.796875 0.390625 7.625 2.203125 
L 7.625 11.71875 
Q 11.71875 9.328125 16.59375 8.109375 
Q 21.484375 6.890625 26.8125 6.890625 
Q 36.078125 6.890625 40.9375 10.546875 
Q 45.796875 14.203125 45.796875 21.1875 
Q 45.796875 27.640625 41.28125 31.265625 
Q 36.765625 34.90625 28.71875 34.90625 
L 20.21875 34.90625 
L 20.21875 43.015625 
L 29.109375 43.015625 
Q 36.375 43.015625 40.234375 45.921875 
Q 44.09375 48.828125 44.09375 54.296875 
Q 44.09375 59.90625 40.109375 62.90625 
Q 36.140625 65.921875 28.71875 65.921875 
Q 24.65625 65.921875 20.015625 65.03125 
Q 15.375 64.15625 9.8125 62.3125 
L 9.8125 71.09375 
Q 15.4375 72.65625 20.34375 73.4375 
Q 25.25 74.21875 29.59375 74.21875 
Q 40.828125 74.21875 47.359375 69.109375 
Q 53.90625 64.015625 53.90625 55.328125 
Q 53.90625 49.265625 50.4375 45.09375 
Q 46.96875 40.921875 40.578125 39.3125 
z
" id="DejaVuSans-51"/>
      </defs>
      <g transform="translate(238.362152 268.988456)scale(0.12 -0.12)">
       <use xlink:href="#DejaVuSans-51"/>
       <use x="63.623047" xlink:href="#DejaVuSans-47"/>
       <use x="97.314453" xlink:href="#DejaVuSans-50"/>
      </g>
     </g>
    </g>
    <g id="xtick_6">
     <g id="line2d_6">
      <g>
       <use style="stroke:#000000;stroke-width:0.8;" x="295.737214" xlink:href="#m4ca102f233" y="252.870331"/>
      </g>
     </g>
     <g id="text_6">
      <!-- 11/6 -->
      <g transform="translate(282.263464 268.988456)scale(0.12 -0.12)">
       <use xlink:href="#DejaVuSans-49"/>
       <use x="63.623047" xlink:href="#DejaVuSans-49"/>
       <use x="127.246094" xlink:href="#DejaVuSans-47"/>
       <use x="160.9375" xlink:href="#DejaVuSans-54"/>
      </g>
     </g>
    </g>
    <g id="xtick_7">
     <g id="line2d_7">
      <g>
       <use style="stroke:#000000;stroke-width:0.8;" x="319.59662" xlink:href="#m4ca102f233" y="252.870331"/>
      </g>
     </g>
     <g id="text_7">
      <!-- 2 -->
      <g transform="translate(315.77912 268.988456)scale(0.12 -0.12)">
       <use xlink:href="#DejaVuSans-50"/>
      </g>
     </g>
    </g>
    <g id="text_8">
     <!-- $x$ -->
     <defs>
      <path d="M 7.8125 2.875 
Q 9.578125 1.515625 12.796875 1.515625 
Q 15.921875 1.515625 18.3125 4.515625 
Q 20.703125 7.515625 21.578125 11.078125 
L 26.125 28.8125 
Q 27.203125 33.640625 27.203125 35.40625 
Q 27.203125 37.890625 25.8125 39.75 
Q 24.421875 41.609375 21.921875 41.609375 
Q 18.75 41.609375 15.96875 39.625 
Q 13.1875 37.640625 11.28125 34.59375 
Q 9.375 31.546875 8.59375 28.421875 
Q 8.40625 27.78125 7.8125 27.78125 
L 6.59375 27.78125 
Q 5.8125 27.78125 5.8125 28.71875 
L 5.8125 29 
Q 6.78125 32.71875 9.125 36.25 
Q 11.46875 39.796875 14.859375 41.984375 
Q 18.265625 44.1875 22.125 44.1875 
Q 25.78125 44.1875 28.734375 42.234375 
Q 31.6875 40.28125 32.90625 36.921875 
Q 34.625 39.984375 37.28125 42.078125 
Q 39.9375 44.1875 43.109375 44.1875 
Q 45.265625 44.1875 47.5 43.421875 
Q 49.75 42.671875 51.171875 41.109375 
Q 52.59375 39.546875 52.59375 37.203125 
Q 52.59375 34.671875 50.953125 32.828125 
Q 49.3125 31 46.78125 31 
Q 45.171875 31 44.09375 32.03125 
Q 43.015625 33.0625 43.015625 34.625 
Q 43.015625 36.71875 44.453125 38.296875 
Q 45.90625 39.890625 47.90625 40.1875 
Q 46.09375 41.609375 42.921875 41.609375 
Q 39.703125 41.609375 37.328125 38.625 
Q 34.96875 35.640625 33.984375 31.984375 
L 29.59375 14.3125 
Q 28.515625 10.296875 28.515625 7.71875 
Q 28.515625 5.171875 29.953125 3.34375 
Q 31.390625 1.515625 33.796875 1.515625 
Q 38.484375 1.515625 42.15625 5.640625 
Q 45.84375 9.765625 47.015625 14.703125 
Q 47.21875 15.28125 47.796875 15.28125 
L 49.03125 15.28125 
Q 49.421875 15.28125 49.65625 15.015625 
Q 49.90625 14.75 49.90625 14.40625 
Q 49.90625 14.3125 49.8125 14.109375 
Q 48.390625 8.15625 43.84375 3.515625 
Q 39.3125 -1.125 33.59375 -1.125 
Q 29.9375 -1.125 26.984375 0.84375 
Q 24.03125 2.828125 22.796875 6.203125 
Q 21.234375 3.265625 18.46875 1.0625 
Q 15.71875 -1.125 12.59375 -1.125 
Q 10.453125 -1.125 8.171875 -0.359375 
Q 5.90625 0.390625 4.484375 1.953125 
Q 3.078125 3.515625 3.078125 5.90625 
Q 3.078125 8.25 4.703125 10.171875 
Q 6.34375 12.109375 8.796875 12.109375 
Q 10.453125 12.109375 11.578125 11.109375 
Q 12.703125 10.109375 12.703125 8.5 
Q 12.703125 6.390625 11.296875 4.828125 
Q 9.90625 3.265625 7.8125 2.875 
z
" id="Cmmi10-120"/>
     </defs>
     <g transform="translate(333.322877 252.870331)scale(0.19 -0.19)">
      <use transform="translate(0 0.8125)" xlink:href="#Cmmi10-120"/>
     </g>
    </g>
   </g>
   <g id="matplotlib.axis_2">
    <g id="ytick_1">
     <g id="line2d_8">
      <defs>
       <path d="M 0 0 
L -3.5 0 
" id="m499d9acde4" style="stroke:#000000;stroke-width:0.8;"/>
      </defs>
      <g>
       <use style="stroke:#000000;stroke-width:0.8;" x="33.28375" xlink:href="#m499d9acde4" y="37.888082"/>
      </g>
     </g>
     <g id="text_9">
      <!-- 5.0 -->
      <defs>
       <path d="M 10.6875 12.40625 
L 21 12.40625 
L 21 0 
L 10.6875 0 
z
" id="DejaVuSans-46"/>
       <path d="M 31.78125 66.40625 
Q 24.171875 66.40625 20.328125 58.90625 
Q 16.5 51.421875 16.5 36.375 
Q 16.5 21.390625 20.328125 13.890625 
Q 24.171875 6.390625 31.78125 6.390625 
Q 39.453125 6.390625 43.28125 13.890625 
Q 47.125 21.390625 47.125 36.375 
Q 47.125 51.421875 43.28125 58.90625 
Q 39.453125 66.40625 31.78125 66.40625 
z
M 31.78125 74.21875 
Q 44.046875 74.21875 50.515625 64.515625 
Q 56.984375 54.828125 56.984375 36.375 
Q 56.984375 17.96875 50.515625 8.265625 
Q 44.046875 -1.421875 31.78125 -1.421875 
Q 19.53125 -1.421875 13.0625 8.265625 
Q 6.59375 17.96875 6.59375 36.375 
Q 6.59375 54.828125 13.0625 64.515625 
Q 19.53125 74.21875 31.78125 74.21875 
z
" id="DejaVuSans-48"/>
      </defs>
      <g transform="translate(7.2 42.447145)scale(0.12 -0.12)">
       <use xlink:href="#DejaVuSans-53"/>
       <use x="63.623047" xlink:href="#DejaVuSans-46"/>
       <use x="95.410156" xlink:href="#DejaVuSans-48"/>
      </g>
     </g>
    </g>
    <g id="ytick_2">
     <g id="line2d_9">
      <g>
       <use style="stroke:#000000;stroke-width:0.8;" x="33.28375" xlink:href="#m499d9acde4" y="209.873881"/>
      </g>
     </g>
     <g id="text_10">
      <!-- 1.0 -->
      <g transform="translate(7.2 214.432944)scale(0.12 -0.12)">
       <use xlink:href="#DejaVuSans-49"/>
       <use x="63.623047" xlink:href="#DejaVuSans-46"/>
       <use x="95.410156" xlink:href="#DejaVuSans-48"/>
      </g>
     </g>
    </g>
    <g id="text_11">
     <!-- $y$ -->
     <defs>
      <path d="M 8.40625 -14.3125 
Q 10.5 -17.921875 15.71875 -17.921875 
Q 20.453125 -17.921875 23.921875 -14.59375 
Q 27.390625 -11.28125 29.515625 -6.5625 
Q 31.640625 -1.859375 32.8125 3.078125 
Q 28.375 -1.125 23.1875 -1.125 
Q 19.234375 -1.125 16.453125 0.234375 
Q 13.671875 1.609375 12.125 4.3125 
Q 10.59375 7.03125 10.59375 10.890625 
Q 10.59375 14.15625 11.46875 17.59375 
Q 12.359375 21.046875 13.9375 25.265625 
Q 15.53125 29.5 16.703125 32.625 
Q 18.015625 36.28125 18.015625 38.625 
Q 18.015625 41.609375 15.828125 41.609375 
Q 11.859375 41.609375 9.296875 37.53125 
Q 6.734375 33.453125 5.515625 28.421875 
Q 5.328125 27.78125 4.6875 27.78125 
L 3.515625 27.78125 
Q 2.6875 27.78125 2.6875 28.71875 
L 2.6875 29 
Q 4.296875 34.96875 7.609375 39.578125 
Q 10.9375 44.1875 16.015625 44.1875 
Q 19.578125 44.1875 22.046875 41.84375 
Q 24.515625 39.5 24.515625 35.890625 
Q 24.515625 34.03125 23.6875 31.984375 
Q 23.25 30.765625 21.6875 26.65625 
Q 20.125 22.5625 19.28125 19.875 
Q 18.453125 17.1875 17.921875 14.59375 
Q 17.390625 12.015625 17.390625 9.421875 
Q 17.390625 6.109375 18.796875 3.8125 
Q 20.21875 1.515625 23.296875 1.515625 
Q 29.5 1.515625 34.421875 9.078125 
L 42 39.890625 
Q 42.328125 41.21875 43.546875 42.15625 
Q 44.78125 43.109375 46.1875 43.109375 
Q 47.40625 43.109375 48.3125 42.328125 
Q 49.21875 41.546875 49.21875 40.28125 
Q 49.21875 39.703125 49.125 39.5 
L 39.203125 -0.296875 
Q 37.890625 -5.421875 34.375 -10.109375 
Q 30.859375 -14.796875 25.90625 -17.65625 
Q 20.953125 -20.515625 15.578125 -20.515625 
Q 12.984375 -20.515625 10.4375 -19.5 
Q 7.90625 -18.5 6.34375 -16.5 
Q 4.78125 -14.5 4.78125 -11.8125 
Q 4.78125 -9.078125 6.390625 -7.078125 
Q 8.015625 -5.078125 10.6875 -5.078125 
Q 12.3125 -5.078125 13.40625 -6.078125 
Q 14.5 -7.078125 14.5 -8.6875 
Q 14.5 -10.984375 12.78125 -12.6875 
Q 11.078125 -14.40625 8.796875 -14.40625 
Q 8.6875 -14.359375 8.59375 -14.328125 
Q 8.5 -14.3125 8.40625 -14.3125 
z
" id="Cmmi10-121"/>
     </defs>
     <g transform="translate(28.53375 21.598438)scale(0.19 -0.19)">
      <use transform="translate(0 0.8125)" xlink:href="#Cmmi10-121"/>
     </g>
    </g>
   </g>
   <g id="line2d_10">
    <path clip-path="url(#p5980ee431b)" d="M 33.28375 37.888082 
L 40.293939 37.991185 
L 47.116757 38.289544 
L 55.037571 38.880929 
L 62.983429 39.73869 
L 70.871465 40.85225 
L 76.291195 41.768676 
L 84.407671 43.371599 
L 92.353114 45.208493 
L 100.124218 47.261324 
L 107.218975 49.356768 
L 114.964613 51.885615 
L 123.045656 54.792296 
L 130.484943 57.710382 
L 138.784634 61.240027 
L 145.976629 64.532351 
L 153.411054 68.163791 
L 159.93868 71.543505 
L 167.226983 75.528324 
L 175.220066 80.15474 
L 182.641116 84.690053 
L 189.431874 89.042646 
L 198.495078 95.153244 
L 206.381489 100.750871 
L 214.181379 106.543782 
L 223.318902 113.654845 
L 232.05378 120.780089 
L 240.295896 127.796945 
L 248.585043 135.141332 
L 257.202904 143.082656 
L 266.657814 152.15382 
L 275.433775 160.909261 
L 282.946807 168.661483 
L 291.827604 178.130466 
L 301.839027 189.201774 
L 310.348255 198.942496 
L 319.59662 209.873881 
L 319.59662 209.873881 
" style="fill:none;stroke:#0000ff;stroke-linecap:square;"/>
   </g>
   <g id="line2d_11">
    <path clip-path="url(#p5980ee431b)" d="M 33.28375 252.870331 
L 33.28375 39.082428 
L 81.002562 39.082428 
L 81.002562 252.870331 
" style="fill:none;stroke:#ff0000;stroke-linecap:square;"/>
   </g>
   <g id="line2d_12">
    <path clip-path="url(#p5980ee431b)" d="M 33.28375 39.082428 
L 81.002562 39.082428 
L 81.002562 39.082428 
" style="fill:none;stroke:#ff0000;stroke-linecap:square;"/>
   </g>
   <g id="line2d_13">
    <path clip-path="url(#p5980ee431b)" d="M 81.002562 252.870331 
L 81.002562 48.637195 
L 128.721373 48.637195 
L 128.721373 252.870331 
" style="fill:none;stroke:#ff0000;stroke-linecap:square;"/>
   </g>
   <g id="line2d_14">
    <path clip-path="url(#p5980ee431b)" d="M 81.002562 48.637195 
L 128.721373 48.637195 
L 128.721373 48.637195 
" style="fill:none;stroke:#ff0000;stroke-linecap:square;"/>
   </g>
   <g id="line2d_15">
    <path clip-path="url(#p5980ee431b)" d="M 128.721373 252.870331 
L 128.721373 67.746728 
L 176.440185 67.746728 
L 176.440185 252.870331 
" style="fill:none;stroke:#ff0000;stroke-linecap:square;"/>
   </g>
   <g id="line2d_16">
    <path clip-path="url(#p5980ee431b)" d="M 128.721373 67.746728 
L 176.440185 67.746728 
L 176.440185 67.746728 
" style="fill:none;stroke:#ff0000;stroke-linecap:square;"/>
   </g>
   <g id="line2d_17">
    <path clip-path="url(#p5980ee431b)" d="M 176.440185 252.870331 
L 176.440185 96.411028 
L 224.158997 96.411028 
L 224.158997 252.870331 
" style="fill:none;stroke:#ff0000;stroke-linecap:square;"/>
   </g>
   <g id="line2d_18">
    <path clip-path="url(#p5980ee431b)" d="M 176.440185 96.411028 
L 224.158997 96.411028 
L 224.158997 96.411028 
" style="fill:none;stroke:#ff0000;stroke-linecap:square;"/>
   </g>
   <g id="line2d_19">
    <path clip-path="url(#p5980ee431b)" d="M 224.158997 252.870331 
L 224.158997 134.630094 
L 271.877808 134.630094 
L 271.877808 252.870331 
" style="fill:none;stroke:#ff0000;stroke-linecap:square;"/>
   </g>
   <g id="line2d_20">
    <path clip-path="url(#p5980ee431b)" d="M 224.158997 134.630094 
L 271.877808 134.630094 
L 271.877808 134.630094 
" style="fill:none;stroke:#ff0000;stroke-linecap:square;"/>
   </g>
   <g id="line2d_21">
    <path clip-path="url(#p5980ee431b)" d="M 271.877808 252.870331 
L 271.877808 182.403927 
L 319.59662 182.403927 
L 319.59662 252.870331 
" style="fill:none;stroke:#ff0000;stroke-linecap:square;"/>
   </g>
   <g id="line2d_22">
    <path clip-path="url(#p5980ee431b)" d="M 271.877808 182.403927 
L 319.59662 182.403927 
L 319.59662 182.403927 
" style="fill:none;stroke:#ff0000;stroke-linecap:square;"/>
   </g>
   <g id="patch_9">
    <path d="M 33.28375 257.169976 
L 33.28375 33.588438 
" style="fill:none;stroke:#000000;stroke-linecap:square;stroke-linejoin:miter;stroke-width:0.8;"/>
   </g>
   <g id="patch_10">
    <path d="M 27.557493 252.870331 
L 325.322877 252.870331 
" style="fill:none;stroke:#000000;stroke-linecap:square;stroke-linejoin:miter;stroke-width:0.8;"/>
   </g>
   <g id="text_12">
    <!-- $y=-x^2+5$ -->
    <defs>
     <path d="M 7.515625 13.28125 
Q 6.6875 13.28125 6.140625 13.90625 
Q 5.609375 14.546875 5.609375 15.28125 
Q 5.609375 16.109375 6.140625 16.6875 
Q 6.6875 17.28125 7.515625 17.28125 
L 70.3125 17.28125 
Q 71.046875 17.28125 71.578125 16.6875 
Q 72.125 16.109375 72.125 15.28125 
Q 72.125 14.546875 71.578125 13.90625 
Q 71.046875 13.28125 70.3125 13.28125 
z
M 7.515625 32.71875 
Q 6.6875 32.71875 6.140625 33.296875 
Q 5.609375 33.890625 5.609375 34.71875 
Q 5.609375 35.453125 6.140625 36.078125 
Q 6.6875 36.71875 7.515625 36.71875 
L 70.3125 36.71875 
Q 71.046875 36.71875 71.578125 36.078125 
Q 72.125 35.453125 72.125 34.71875 
Q 72.125 33.890625 71.578125 33.296875 
Q 71.046875 32.71875 70.3125 32.71875 
z
" id="Cmr10-61"/>
     <path d="M 10.203125 23 
Q 9.375 23 8.828125 23.625 
Q 8.296875 24.265625 8.296875 25 
Q 8.296875 25.734375 8.828125 26.359375 
Q 9.375 27 10.203125 27 
L 67.578125 27 
Q 68.359375 27 68.875 26.359375 
Q 69.390625 25.734375 69.390625 25 
Q 69.390625 24.265625 68.875 23.625 
Q 68.359375 23 67.578125 23 
z
" id="Cmsy10-161"/>
     <path d="M 4.984375 0 
L 4.984375 2.6875 
Q 4.984375 2.9375 5.171875 3.21875 
L 20.703125 20.40625 
Q 24.21875 24.21875 26.40625 26.796875 
Q 28.609375 29.390625 30.75 32.765625 
Q 32.90625 36.140625 34.15625 39.625 
Q 35.40625 43.109375 35.40625 47.015625 
Q 35.40625 51.125 33.890625 54.859375 
Q 32.375 58.59375 29.375 60.84375 
Q 26.375 63.09375 22.125 63.09375 
Q 17.78125 63.09375 14.3125 60.46875 
Q 10.84375 57.859375 9.421875 53.71875 
Q 9.8125 53.8125 10.5 53.8125 
Q 12.75 53.8125 14.328125 52.296875 
Q 15.921875 50.78125 15.921875 48.390625 
Q 15.921875 46.09375 14.328125 44.5 
Q 12.75 42.921875 10.5 42.921875 
Q 8.15625 42.921875 6.5625 44.546875 
Q 4.984375 46.1875 4.984375 48.390625 
Q 4.984375 52.15625 6.390625 55.4375 
Q 7.8125 58.734375 10.46875 61.296875 
Q 13.140625 63.875 16.484375 65.234375 
Q 19.828125 66.609375 23.578125 66.609375 
Q 29.296875 66.609375 34.21875 64.1875 
Q 39.15625 61.765625 42.03125 57.34375 
Q 44.921875 52.9375 44.921875 47.015625 
Q 44.921875 42.671875 43.015625 38.765625 
Q 41.109375 34.859375 38.125 31.65625 
Q 35.15625 28.46875 30.515625 24.40625 
Q 25.875 20.359375 24.421875 19 
L 13.09375 8.109375 
L 22.703125 8.109375 
Q 29.78125 8.109375 34.546875 8.21875 
Q 39.3125 8.34375 39.59375 8.59375 
Q 40.765625 9.859375 42 17.828125 
L 44.921875 17.828125 
L 42.09375 0 
z
" id="Cmr10-50"/>
     <path d="M 7.515625 23 
Q 6.6875 23 6.140625 23.625 
Q 5.609375 24.265625 5.609375 25 
Q 5.609375 25.734375 6.140625 26.359375 
Q 6.6875 27 7.515625 27 
L 36.921875 27 
L 36.921875 56.5 
Q 36.921875 57.28125 37.5 57.78125 
Q 38.09375 58.296875 38.921875 58.296875 
Q 39.65625 58.296875 40.28125 57.78125 
Q 40.921875 57.28125 40.921875 56.5 
L 40.921875 27 
L 70.3125 27 
Q 71.046875 27 71.578125 26.359375 
Q 72.125 25.734375 72.125 25 
Q 72.125 24.265625 71.578125 23.625 
Q 71.046875 23 70.3125 23 
L 40.921875 23 
L 40.921875 -6.5 
Q 40.921875 -7.28125 40.28125 -7.78125 
Q 39.65625 -8.296875 38.921875 -8.296875 
Q 38.09375 -8.296875 37.5 -7.78125 
Q 36.921875 -7.28125 36.921875 -6.5 
L 36.921875 23 
z
" id="Cmr10-43"/>
     <path d="M 8.6875 11.375 
Q 9.71875 8.453125 11.84375 6.046875 
Q 13.96875 3.65625 16.875 2.3125 
Q 19.78125 0.984375 22.90625 0.984375 
Q 30.125 0.984375 32.859375 6.59375 
Q 35.59375 12.203125 35.59375 20.21875 
Q 35.59375 23.6875 35.46875 26.046875 
Q 35.359375 28.421875 34.8125 30.609375 
Q 33.890625 34.125 31.5625 36.765625 
Q 29.25 39.40625 25.875 39.40625 
Q 22.515625 39.40625 20.09375 38.375 
Q 17.671875 37.359375 16.15625 35.984375 
Q 14.65625 34.625 13.484375 33.109375 
Q 12.3125 31.59375 12.015625 31.5 
L 10.890625 31.5 
Q 10.640625 31.5 10.265625 31.8125 
Q 9.90625 32.125 9.90625 32.421875 
L 9.90625 65.828125 
Q 9.90625 66.0625 10.21875 66.328125 
Q 10.546875 66.609375 10.890625 66.609375 
L 11.1875 66.609375 
Q 17.921875 63.375 25.484375 63.375 
Q 32.90625 63.375 39.796875 66.609375 
L 40.09375 66.609375 
Q 40.4375 66.609375 40.71875 66.359375 
Q 41.015625 66.109375 41.015625 65.828125 
L 41.015625 64.890625 
Q 41.015625 64.40625 40.828125 64.40625 
Q 37.40625 59.859375 32.25 57.3125 
Q 27.09375 54.78125 21.578125 54.78125 
Q 17.578125 54.78125 13.375 55.90625 
L 13.375 37.015625 
Q 16.703125 39.703125 19.3125 40.84375 
Q 21.921875 42 25.984375 42 
Q 31.5 42 35.859375 38.8125 
Q 40.234375 35.640625 42.578125 30.53125 
Q 44.921875 25.4375 44.921875 20.125 
Q 44.921875 14.109375 41.96875 8.984375 
Q 39.015625 3.859375 33.9375 0.828125 
Q 28.859375 -2.203125 22.90625 -2.203125 
Q 17.96875 -2.203125 13.84375 0.328125 
Q 9.71875 2.875 7.34375 7.171875 
Q 4.984375 11.46875 4.984375 16.3125 
Q 4.984375 18.5625 6.4375 19.96875 
Q 7.90625 21.390625 10.109375 21.390625 
Q 12.3125 21.390625 13.796875 19.9375 
Q 15.28125 18.5 15.28125 16.3125 
Q 15.28125 14.15625 13.796875 12.671875 
Q 12.3125 11.1875 10.109375 11.1875 
Q 9.765625 11.1875 9.328125 11.25 
Q 8.890625 11.328125 8.6875 11.375 
z
" id="Cmr10-53"/>
    </defs>
    <g style="fill:#0000ff;" transform="translate(210.008402 74.61542)scale(0.14 -0.14)">
     <use transform="translate(0 0.109375)" xlink:href="#Cmmi10-121"/>
     <use transform="translate(66.582031 0.109375)" xlink:href="#Cmr10-61"/>
     <use transform="translate(179.384766 0.109375)" xlink:href="#Cmsy10-161"/>
     <use transform="translate(274.628906 0.109375)" xlink:href="#Cmmi10-120"/>
     <use transform="translate(338.012266 38.373438)scale(0.7)" xlink:href="#Cmr10-50"/>
     <use transform="translate(396.948203 0.109375)" xlink:href="#Cmr10-43"/>
     <use transform="translate(492.192344 0.109375)" xlink:href="#Cmr10-53"/>
    </g>
   </g>
   <g id="text_13">
    <!-- $y=-x^2+5$ -->
    <g style="fill:#0000ff;" transform="translate(210.008402 74.61542)scale(0.14 -0.14)">
     <use transform="translate(0 0.109375)" xlink:href="#Cmmi10-121"/>
     <use transform="translate(66.582031 0.109375)" xlink:href="#Cmr10-61"/>
     <use transform="translate(179.384766 0.109375)" xlink:href="#Cmsy10-161"/>
     <use transform="translate(274.628906 0.109375)" xlink:href="#Cmmi10-120"/>
     <use transform="translate(338.012266 38.373438)scale(0.7)" xlink:href="#Cmr10-50"/>
     <use transform="translate(396.948203 0.109375)" xlink:href="#Cmr10-43"/>
     <use transform="translate(492.192344 0.109375)" xlink:href="#Cmr10-53"/>
    </g>
   </g>
   <g id="text_14">
    <!-- $y=-x^2+5$ -->
    <g style="fill:#0000ff;" transform="translate(210.008402 74.61542)scale(0.14 -0.14)">
     <use transform="translate(0 0.109375)" xlink:href="#Cmmi10-121"/>
     <use transform="translate(66.582031 0.109375)" xlink:href="#Cmr10-61"/>
     <use transform="translate(179.384766 0.109375)" xlink:href="#Cmsy10-161"/>
     <use transform="translate(274.628906 0.109375)" xlink:href="#Cmmi10-120"/>
     <use transform="translate(338.012266 38.373438)scale(0.7)" xlink:href="#Cmr10-50"/>
     <use transform="translate(396.948203 0.109375)" xlink:href="#Cmr10-43"/>
     <use transform="translate(492.192344 0.109375)" xlink:href="#Cmr10-53"/>
    </g>
   </g>
   <g id="text_15">
    <!-- $y=-x^2+5$ -->
    <g style="fill:#0000ff;" transform="translate(210.008402 74.61542)scale(0.14 -0.14)">
     <use transform="translate(0 0.109375)" xlink:href="#Cmmi10-121"/>
     <use transform="translate(66.582031 0.109375)" xlink:href="#Cmr10-61"/>
     <use transform="translate(179.384766 0.109375)" xlink:href="#Cmsy10-161"/>
     <use transform="translate(274.628906 0.109375)" xlink:href="#Cmmi10-120"/>
     <use transform="translate(338.012266 38.373438)scale(0.7)" xlink:href="#Cmr10-50"/>
     <use transform="translate(396.948203 0.109375)" xlink:href="#Cmr10-43"/>
     <use transform="translate(492.192344 0.109375)" xlink:href="#Cmr10-53"/>
    </g>
   </g>
   <g id="text_16">
    <!-- $y=-x^2+5$ -->
    <g style="fill:#0000ff;" transform="translate(210.008402 74.61542)scale(0.14 -0.14)">
     <use transform="translate(0 0.109375)" xlink:href="#Cmmi10-121"/>
     <use transform="translate(66.582031 0.109375)" xlink:href="#Cmr10-61"/>
     <use transform="translate(179.384766 0.109375)" xlink:href="#Cmsy10-161"/>
     <use transform="translate(274.628906 0.109375)" xlink:href="#Cmmi10-120"/>
     <use transform="translate(338.012266 38.373438)scale(0.7)" xlink:href="#Cmr10-50"/>
     <use transform="translate(396.948203 0.109375)" xlink:href="#Cmr10-43"/>
     <use transform="translate(492.192344 0.109375)" xlink:href="#Cmr10-53"/>
    </g>
   </g>
   <g id="text_17">
    <!-- $y=-x^2+5$ -->
    <g style="fill:#0000ff;" transform="translate(210.008402 74.61542)scale(0.14 -0.14)">
     <use transform="translate(0 0.109375)" xlink:href="#Cmmi10-121"/>
     <use transform="translate(66.582031 0.109375)" xlink:href="#Cmr10-61"/>
     <use transform="translate(179.384766 0.109375)" xlink:href="#Cmsy10-161"/>
     <use transform="translate(274.628906 0.109375)" xlink:href="#Cmmi10-120"/>
     <use transform="translate(338.012266 38.373438)scale(0.7)" xlink:href="#Cmr10-50"/>
     <use transform="translate(396.948203 0.109375)" xlink:href="#Cmr10-43"/>
     <use transform="translate(492.192344 0.109375)" xlink:href="#Cmr10-53"/>
    </g>
   </g>
  </g>
 </g>
 <defs>
  <clipPath id="p5980ee431b">
   <rect height="223.581538" width="297.765385" x="27.557493" y="33.588438"/>
  </clipPath>
 </defs>
</svg>
