<?xml version="1.0" encoding="utf-8" standalone="no"?>
<!DOCTYPE svg PUBLIC "-//W3C//DTD SVG 1.1//EN"
  "http://www.w3.org/Graphics/SVG/1.1/DTD/svg11.dtd">
<!-- Created with matplotlib (https://matplotlib.org/) -->
<svg height="275.321485pt" version="1.1" viewBox="0 0 279.283397 275.321485" width="279.283397pt" xmlns="http://www.w3.org/2000/svg" xmlns:xlink="http://www.w3.org/1999/xlink">
 <defs>
  <style type="text/css">
*{stroke-linecap:butt;stroke-linejoin:round;}
  </style>
 </defs>
 <g id="figure_1">
  <g id="patch_1">
   <path d="M 0 275.321485 
L 279.283397 275.321485 
L 279.283397 0 
L 0 0 
z
" style="fill:#ffffff;"/>
  </g>
  <g id="axes_1">
   <g id="patch_2">
    <path d="M 37.902286 253.469976 
L 253.063397 253.469976 
L 253.063397 33.588438 
L 37.902286 33.588438 
z
" style="fill:#ffffff;"/>
   </g>
   <g id="PathCollection_1">
    <path clip-path="url(#pa1d89ca0c1)" d="M 67.90071 247.519115 
C 68.320033 247.519115 68.722238 247.352516 69.018744 247.05601 
C 69.315251 246.759504 69.481849 246.357299 69.481849 245.937976 
C 69.481849 245.518653 69.315251 245.116448 69.018744 244.819942 
C 68.722238 244.523436 68.320033 244.356837 67.90071 244.356837 
C 67.481388 244.356837 67.079183 244.523436 66.782676 244.819942 
C 66.48617 245.116448 66.319572 245.518653 66.319572 245.937976 
C 66.319572 246.357299 66.48617 246.759504 66.782676 247.05601 
C 67.079183 247.352516 67.481388 247.519115 67.90071 247.519115 
z
" style="fill:#ff0000;"/>
   </g>
   <g id="PathCollection_2">
    <path clip-path="url(#pa1d89ca0c1)" d="M 119.622131 221.091044 
C 120.041454 221.091044 120.443659 220.924445 120.740165 220.627939 
C 121.036671 220.331433 121.20327 219.929228 121.20327 219.509905 
C 121.20327 219.090582 121.036671 218.688377 120.740165 218.391871 
C 120.443659 218.095365 120.041454 217.928766 119.622131 217.928766 
C 119.202808 217.928766 118.800603 218.095365 118.504097 218.391871 
C 118.207591 218.688377 118.040992 219.090582 118.040992 219.509905 
C 118.040992 219.929228 118.207591 220.331433 118.504097 220.627939 
C 118.800603 220.924445 119.202808 221.091044 119.622131 221.091044 
z
" style="fill:#ff0000;"/>
   </g>
   <g id="PathCollection_3">
    <path clip-path="url(#pa1d89ca0c1)" d="M 171.343552 168.234901 
C 171.762875 168.234901 172.16508 168.068303 172.461586 167.771797 
C 172.758092 167.475291 172.924691 167.073086 172.924691 166.653763 
C 172.924691 166.23444 172.758092 165.832235 172.461586 165.535729 
C 172.16508 165.239223 171.762875 165.072624 171.343552 165.072624 
C 170.924229 165.072624 170.522024 165.239223 170.225518 165.535729 
C 169.929012 165.832235 169.762413 166.23444 169.762413 166.653763 
C 169.762413 167.073086 169.929012 167.475291 170.225518 167.771797 
C 170.522024 168.068303 170.924229 168.234901 171.343552 168.234901 
z
" style="fill:#ff0000;"/>
   </g>
   <g id="PathCollection_4">
    <path clip-path="url(#pa1d89ca0c1)" d="M 223.064973 88.950688 
C 223.484296 88.950688 223.886501 88.784089 224.183007 88.487583 
C 224.479513 88.191077 224.646112 87.788872 224.646112 87.369549 
C 224.646112 86.950226 224.479513 86.548021 224.183007 86.251515 
C 223.886501 85.955009 223.484296 85.78841 223.064973 85.78841 
C 222.64565 85.78841 222.243445 85.955009 221.946939 86.251515 
C 221.650433 86.548021 221.483834 86.950226 221.483834 87.369549 
C 221.483834 87.788872 221.650433 88.191077 221.946939 88.487583 
C 222.243445 88.784089 222.64565 88.950688 223.064973 88.950688 
z
" style="fill:#ff0000;"/>
   </g>
   <g id="patch_3">
    <path clip-path="url(#pa1d89ca0c1)" d="M 42.04 249.241485 
L 42.04 245.937976 
L 42.358216 245.937976 
L 42.584689 245.937976 
L 42.819681 245.937976 
L 43.109697 245.937976 
L 43.361427 245.937976 
L 43.718737 245.937976 
L 43.822761 245.937976 
L 44.034028 245.937976 
L 44.488372 245.937976 
L 44.595291 245.937976 
L 44.855316 245.937976 
L 45.091853 245.937976 
L 45.442911 245.937976 
L 45.697908 245.937976 
L 45.988783 245.937976 
L 46.212254 245.937976 
L 46.491104 245.937976 
L 46.602398 245.937976 
L 46.86154 245.937976 
L 47.324973 245.937976 
L 47.412098 245.937976 
L 47.737817 245.937976 
L 47.952708 245.937976 
L 48.404914 245.937976 
L 48.493383 245.937976 
L 48.906982 245.937976 
L 48.975071 245.937976 
L 49.338782 245.937976 
L 49.642447 245.937976 
L 49.773973 245.937976 
L 50.182896 245.937976 
L 50.429484 245.937976 
L 50.545853 245.937976 
L 50.93537 245.937976 
L 51.158128 245.937976 
L 51.395344 245.937976 
L 51.786412 245.937976 
L 51.931991 245.937976 
L 52.270726 245.937976 
L 52.532685 245.937976 
L 52.594569 245.937976 
L 53.042507 245.937976 
L 53.341012 245.937976 
L 53.508634 245.937976 
L 53.79232 245.937976 
L 54.077084 245.937976 
L 54.331538 245.937976 
L 54.460355 245.937976 
L 54.742727 245.937976 
L 55.113502 245.937976 
L 55.391912 245.937976 
L 55.657436 245.937976 
L 55.691592 245.937976 
L 55.960421 245.937976 
L 56.424913 245.937976 
L 56.701613 245.937976 
L 56.861794 245.937976 
L 57.155861 245.937976 
L 57.342849 245.937976 
L 57.759064 245.937976 
L 57.863349 245.937976 
L 58.229023 245.937976 
L 58.470915 245.937976 
L 58.641776 245.937976 
L 59.06145 245.937976 
L 59.110907 245.937976 
L 59.443024 245.937976 
L 59.726562 245.937976 
L 59.854104 245.937976 
L 60.349443 245.937976 
L 60.495027 245.937976 
L 60.710423 245.937976 
L 61.026098 245.937976 
L 61.194517 245.937976 
L 61.527321 245.937976 
L 61.78412 245.937976 
L 62.159781 245.937976 
L 62.257666 245.937976 
L 62.666927 245.937976 
L 62.900015 245.937976 
L 62.995482 245.937976 
L 63.444834 245.937976 
L 63.706878 245.937976 
L 63.879172 245.937976 
L 64.116648 245.937976 
L 64.276451 245.937976 
L 64.567878 245.937976 
L 64.82293 245.937976 
L 65.262273 245.937976 
L 65.532641 245.937976 
L 65.808874 245.937976 
L 66.072373 245.937976 
L 66.248757 245.937976 
L 66.560695 245.937976 
L 66.753926 245.937976 
L 67.104805 245.937976 
L 67.286112 245.937976 
L 67.507536 245.937976 
L 67.816034 245.937976 
L 68.024588 245.937976 
L 68.33758 245.937976 
L 68.463266 245.937976 
L 68.722791 245.937976 
L 69.066882 245.937976 
L 69.276653 245.937976 
L 69.706776 245.937976 
L 69.858952 245.937976 
L 70.094369 245.937976 
L 70.415032 245.937976 
L 70.524611 245.937976 
L 70.885977 245.937976 
L 71.083464 245.937976 
L 71.282585 245.937976 
L 71.563554 245.937976 
L 71.831622 245.937976 
L 72.07296 245.937976 
L 72.476051 245.937976 
L 72.579266 245.937976 
L 72.958745 245.937976 
L 73.337078 245.937976 
L 73.480349 245.937976 
L 73.830345 245.937976 
L 73.908886 245.937976 
L 74.191819 245.937976 
L 74.40002 245.937976 
L 74.732815 245.937976 
L 74.948784 245.937976 
L 75.379843 245.937976 
L 75.55124 245.937976 
L 75.829711 245.937976 
L 76.209486 245.937976 
L 76.376182 245.937976 
L 76.542818 245.937976 
L 76.913588 245.937976 
L 77.101105 245.937976 
L 77.335921 245.937976 
L 77.672654 245.937976 
L 77.982012 245.937976 
L 78.165679 245.937976 
L 78.298463 245.937976 
L 78.562595 245.937976 
L 78.817654 245.937976 
L 79.111915 245.937976 
L 79.587571 245.937976 
L 79.623295 245.937976 
L 80.094478 245.937976 
L 80.209891 245.937976 
L 80.602308 245.937976 
L 80.787504 245.937976 
L 80.967682 245.937976 
L 81.239815 245.937976 
L 81.426949 245.937976 
L 81.715548 245.937976 
L 82.0592 245.937976 
L 82.246339 245.937976 
L 82.545444 245.937976 
L 82.738318 245.937976 
L 83.029898 245.937976 
L 83.397735 245.937976 
L 83.614245 245.937976 
L 83.969485 245.937976 
L 84.236951 245.937976 
L 84.44994 245.937976 
L 84.681385 245.937976 
L 85.015381 245.937976 
L 85.249517 245.937976 
L 85.474698 245.937976 
L 85.57608 245.937976 
L 85.947812 245.937976 
L 86.200437 245.937976 
L 86.590676 245.937976 
L 86.648826 245.937976 
L 86.925521 245.937976 
L 87.361794 245.937976 
L 87.597399 245.937976 
L 87.889423 245.937976 
L 87.937914 245.937976 
L 88.233464 245.937976 
L 88.58911 245.937976 
L 88.846193 245.937976 
L 89.192298 245.937976 
L 89.321341 245.937976 
L 89.548227 245.937976 
L 89.829561 245.937976 
L 90.083848 245.937976 
L 90.257202 245.937976 
L 90.548427 245.937976 
L 90.825398 245.937976 
L 91.127124 245.937976 
L 91.383491 245.937976 
L 91.733839 245.937976 
L 91.817328 245.937976 
L 92.302947 245.937976 
L 92.446962 245.937976 
L 92.617404 245.937976 
L 92.914027 245.937976 
L 93.301624 245.937976 
L 93.505947 245.937976 
L 93.761421 245.937976 
L 93.761421 249.241485 
z
" style="fill:#cde0eb;opacity:0.5;"/>
   </g>
   <g id="patch_4">
    <path clip-path="url(#pa1d89ca0c1)" d="M 93.761421 249.241485 
L 93.761421 219.509905 
L 93.914378 219.509905 
L 94.217741 219.509905 
L 94.575359 219.509905 
L 94.809009 219.509905 
L 94.947518 219.509905 
L 95.33527 219.509905 
L 95.629462 219.509905 
L 95.939087 219.509905 
L 96.104771 219.509905 
L 96.405718 219.509905 
L 96.618481 219.509905 
L 96.779037 219.509905 
L 97.015752 219.509905 
L 97.404834 219.509905 
L 97.608194 219.509905 
L 97.943722 219.509905 
L 98.298276 219.509905 
L 98.363406 219.509905 
L 98.708824 219.509905 
L 99.027501 219.509905 
L 99.290017 219.509905 
L 99.573745 219.509905 
L 99.848757 219.509905 
L 99.95654 219.509905 
L 100.152071 219.509905 
L 100.516127 219.509905 
L 100.725555 219.509905 
L 101.059982 219.509905 
L 101.328557 219.509905 
L 101.482548 219.509905 
L 101.73536 219.509905 
L 101.963164 219.509905 
L 102.252754 219.509905 
L 102.533374 219.509905 
L 102.750405 219.509905 
L 103.213157 219.509905 
L 103.357841 219.509905 
L 103.508319 219.509905 
L 103.768041 219.509905 
L 104.213567 219.509905 
L 104.47244 219.509905 
L 104.702267 219.509905 
L 104.8773 219.509905 
L 105.084446 219.509905 
L 105.39964 219.509905 
L 105.697237 219.509905 
L 106.023776 219.509905 
L 106.363706 219.509905 
L 106.593732 219.509905 
L 106.7035 219.509905 
L 106.990588 219.509905 
L 107.3392 219.509905 
L 107.625632 219.509905 
L 107.708797 219.509905 
L 108.08042 219.509905 
L 108.199475 219.509905 
L 108.521998 219.509905 
L 108.874786 219.509905 
L 109.208624 219.509905 
L 109.274301 219.509905 
L 109.685813 219.509905 
L 109.812906 219.509905 
L 110.194018 219.509905 
L 110.304239 219.509905 
L 110.773709 219.509905 
L 110.969413 219.509905 
L 111.217722 219.509905 
L 111.55975 219.509905 
L 111.765182 219.509905 
L 111.88267 219.509905 
L 112.265803 219.509905 
L 112.561286 219.509905 
L 112.633846 219.509905 
L 113.005732 219.509905 
L 113.231066 219.509905 
L 113.631909 219.509905 
L 113.717828 219.509905 
L 114.140502 219.509905 
L 114.331759 219.509905 
L 114.478311 219.509905 
L 114.739762 219.509905 
L 115.06661 219.509905 
L 115.435825 219.509905 
L 115.536408 219.509905 
L 115.884141 219.509905 
L 116.112048 219.509905 
L 116.251039 219.509905 
L 116.643946 219.509905 
L 117.017395 219.509905 
L 117.219603 219.509905 
L 117.414073 219.509905 
L 117.678735 219.509905 
L 117.958997 219.509905 
L 118.1726 219.509905 
L 118.44528 219.509905 
L 118.790204 219.509905 
L 118.958748 219.509905 
L 119.342095 219.509905 
L 119.399843 219.509905 
L 119.707539 219.509905 
L 120.124639 219.509905 
L 120.339432 219.509905 
L 120.45541 219.509905 
L 120.677843 219.509905 
L 121.158646 219.509905 
L 121.292483 219.509905 
L 121.44259 219.509905 
L 121.943175 219.509905 
L 122.100203 219.509905 
L 122.426526 219.509905 
L 122.687236 219.509905 
L 122.756044 219.509905 
L 123.018558 219.509905 
L 123.39811 219.509905 
L 123.734762 219.509905 
L 123.829285 219.509905 
L 124.14205 219.509905 
L 124.53434 219.509905 
L 124.639766 219.509905 
L 124.992373 219.509905 
L 125.229003 219.509905 
L 125.408836 219.509905 
L 125.741814 219.509905 
L 126.002285 219.509905 
L 126.272378 219.509905 
L 126.60921 219.509905 
L 126.774078 219.509905 
L 127.015421 219.509905 
L 127.224359 219.509905 
L 127.499491 219.509905 
L 127.767281 219.509905 
L 128.198279 219.509905 
L 128.381218 219.509905 
L 128.588215 219.509905 
L 128.807606 219.509905 
L 129.0693 219.509905 
L 129.476283 219.509905 
L 129.590643 219.509905 
L 129.890329 219.509905 
L 130.069186 219.509905 
L 130.511327 219.509905 
L 130.710055 219.509905 
L 130.813301 219.509905 
L 131.27028 219.509905 
L 131.398936 219.509905 
L 131.836997 219.509905 
L 131.950413 219.509905 
L 132.238123 219.509905 
L 132.488543 219.509905 
L 132.872662 219.509905 
L 133.023646 219.509905 
L 133.181831 219.509905 
L 133.494737 219.509905 
L 133.71659 219.509905 
L 134.14135 219.509905 
L 134.256419 219.509905 
L 134.654707 219.509905 
L 134.909033 219.509905 
L 135.163836 219.509905 
L 135.44096 219.509905 
L 135.682928 219.509905 
L 135.959402 219.509905 
L 136.240545 219.509905 
L 136.266163 219.509905 
L 136.767018 219.509905 
L 136.959789 219.509905 
L 137.156073 219.509905 
L 137.517266 219.509905 
L 137.617212 219.509905 
L 137.877281 219.509905 
L 138.162433 219.509905 
L 138.484677 219.509905 
L 138.665725 219.509905 
L 139.048237 219.509905 
L 139.256706 219.509905 
L 139.535538 219.509905 
L 139.806909 219.509905 
L 140.089747 219.509905 
L 140.236808 219.509905 
L 140.441723 219.509905 
L 140.892021 219.509905 
L 141.178313 219.509905 
L 141.348214 219.509905 
L 141.474938 219.509905 
L 141.949909 219.509905 
L 142.002213 219.509905 
L 142.271014 219.509905 
L 142.54162 219.509905 
L 142.945047 219.509905 
L 143.186554 219.509905 
L 143.50883 219.509905 
L 143.604956 219.509905 
L 144.047465 219.509905 
L 144.25076 219.509905 
L 144.538227 219.509905 
L 144.707699 219.509905 
L 144.910788 219.509905 
L 145.322394 219.509905 
L 145.482842 219.509905 
L 145.482842 249.241485 
z
" style="fill:#cde0eb;opacity:0.5;"/>
   </g>
   <g id="patch_5">
    <path clip-path="url(#pa1d89ca0c1)" d="M 145.482842 249.241485 
L 145.482842 166.653763 
L 145.803444 166.653763 
L 146.009124 166.653763 
L 146.138455 166.653763 
L 146.548052 166.653763 
L 146.759965 166.653763 
L 147.160147 166.653763 
L 147.332433 166.653763 
L 147.640294 166.653763 
L 147.87594 166.653763 
L 148.026342 166.653763 
L 148.259404 166.653763 
L 148.623751 166.653763 
L 148.801443 166.653763 
L 149.241816 166.653763 
L 149.399815 166.653763 
L 149.7118 166.653763 
L 149.979681 166.653763 
L 150.126006 166.653763 
L 150.330198 166.653763 
L 150.726204 166.653763 
L 151.010747 166.653763 
L 151.100591 166.653763 
L 151.547534 166.653763 
L 151.601321 166.653763 
L 152.099031 166.653763 
L 152.125964 166.653763 
L 152.445302 166.653763 
L 152.755962 166.653763 
L 153.066284 166.653763 
L 153.377745 166.653763 
L 153.421735 166.653763 
L 153.875066 166.653763 
L 153.980485 166.653763 
L 154.389513 166.653763 
L 154.541861 166.653763 
L 154.825186 166.653763 
L 154.991124 166.653763 
L 155.362047 166.653763 
L 155.543828 166.653763 
L 155.90412 166.653763 
L 156.039824 166.653763 
L 156.467246 166.653763 
L 156.582578 166.653763 
L 156.977823 166.653763 
L 157.30176 166.653763 
L 157.407743 166.653763 
L 157.741163 166.653763 
L 157.999007 166.653763 
L 158.235086 166.653763 
L 158.384346 166.653763 
L 158.696822 166.653763 
L 159.05936 166.653763 
L 159.380281 166.653763 
L 159.415993 166.653763 
L 159.75008 166.653763 
L 160.102352 166.653763 
L 160.260104 166.653763 
L 160.594982 166.653763 
L 160.846667 166.653763 
L 161.021374 166.653763 
L 161.278719 166.653763 
L 161.656867 166.653763 
L 161.7492 166.653763 
L 162.170512 166.653763 
L 162.404682 166.653763 
L 162.516583 166.653763 
L 162.767608 166.653763 
L 163.21266 166.653763 
L 163.541188 166.653763 
L 163.730788 166.653763 
L 164.04482 166.653763 
L 164.118457 166.653763 
L 164.521751 166.653763 
L 164.768425 166.653763 
L 165.046533 166.653763 
L 165.324405 166.653763 
L 165.423761 166.653763 
L 165.673438 166.653763 
L 166.121144 166.653763 
L 166.34841 166.653763 
L 166.44086 166.653763 
L 166.711283 166.653763 
L 167.172552 166.653763 
L 167.340496 166.653763 
L 167.684842 166.653763 
L 167.793151 166.653763 
L 168.00679 166.653763 
L 168.40037 166.653763 
L 168.528156 166.653763 
L 168.964337 166.653763 
L 169.251773 166.653763 
L 169.329328 166.653763 
L 169.532082 166.653763 
L 169.837024 166.653763 
L 170.229982 166.653763 
L 170.417094 166.653763 
L 170.812732 166.653763 
L 171.052846 166.653763 
L 171.171131 166.653763 
L 171.532789 166.653763 
L 171.807012 166.653763 
L 172.027378 166.653763 
L 172.36102 166.653763 
L 172.484857 166.653763 
L 172.890322 166.653763 
L 173.042035 166.653763 
L 173.314931 166.653763 
L 173.654031 166.653763 
L 173.731765 166.653763 
L 174.023871 166.653763 
L 174.384119 166.653763 
L 174.464745 166.653763 
L 174.77771 166.653763 
L 175.083498 166.653763 
L 175.462162 166.653763 
L 175.654871 166.653763 
L 175.775822 166.653763 
L 176.214423 166.653763 
L 176.455826 166.653763 
L 176.638072 166.653763 
L 176.858169 166.653763 
L 177.271155 166.653763 
L 177.488637 166.653763 
L 177.84016 166.653763 
L 177.970942 166.653763 
L 178.148761 166.653763 
L 178.38596 166.653763 
L 178.793048 166.653763 
L 179.101204 166.653763 
L 179.373401 166.653763 
L 179.414785 166.653763 
L 179.868528 166.653763 
L 179.937067 166.653763 
L 180.329299 166.653763 
L 180.458375 166.653763 
L 180.846399 166.653763 
L 181.123592 166.653763 
L 181.467268 166.653763 
L 181.49696 166.653763 
L 181.990483 166.653763 
L 182.010778 166.653763 
L 182.490521 166.653763 
L 182.602612 166.653763 
L 182.866337 166.653763 
L 183.174523 166.653763 
L 183.414064 166.653763 
L 183.773656 166.653763 
L 183.898622 166.653763 
L 184.156716 166.653763 
L 184.441622 166.653763 
L 184.821073 166.653763 
L 185.115535 166.653763 
L 185.300432 166.653763 
L 185.412562 166.653763 
L 185.639357 166.653763 
L 186.06202 166.653763 
L 186.334737 166.653763 
L 186.538557 166.653763 
L 186.745298 166.653763 
L 187.111341 166.653763 
L 187.423298 166.653763 
L 187.711395 166.653763 
L 187.869066 166.653763 
L 188.200552 166.653763 
L 188.485797 166.653763 
L 188.74205 166.653763 
L 188.908254 166.653763 
L 189.246898 166.653763 
L 189.437544 166.653763 
L 189.584506 166.653763 
L 190.044161 166.653763 
L 190.304165 166.653763 
L 190.488082 166.653763 
L 190.647321 166.653763 
L 190.90456 166.653763 
L 191.126607 166.653763 
L 191.56033 166.653763 
L 191.842238 166.653763 
L 192.029814 166.653763 
L 192.22842 166.653763 
L 192.405068 166.653763 
L 192.710389 166.653763 
L 192.993132 166.653763 
L 193.336147 166.653763 
L 193.443107 166.653763 
L 193.905838 166.653763 
L 194.054155 166.653763 
L 194.305256 166.653763 
L 194.573962 166.653763 
L 194.968968 166.653763 
L 195.126552 166.653763 
L 195.341048 166.653763 
L 195.624689 166.653763 
L 195.838767 166.653763 
L 196.215321 166.653763 
L 196.525879 166.653763 
L 196.579272 166.653763 
L 196.825879 166.653763 
L 197.204263 166.653763 
L 197.204263 249.241485 
z
" style="fill:#cde0eb;opacity:0.5;"/>
   </g>
   <g id="patch_6">
    <path clip-path="url(#pa1d89ca0c1)" d="M 197.204263 249.241485 
L 197.204263 87.369549 
L 197.338814 87.369549 
L 197.669469 87.369549 
L 198.053853 87.369549 
L 198.251394 87.369549 
L 198.446564 87.369549 
L 198.775859 87.369549 
L 199.083673 87.369549 
L 199.266528 87.369549 
L 199.644403 87.369549 
L 199.774592 87.369549 
L 200.003261 87.369549 
L 200.309378 87.369549 
L 200.708522 87.369549 
L 200.815839 87.369549 
L 200.979758 87.369549 
L 201.405442 87.369549 
L 201.682343 87.369549 
L 201.96373 87.369549 
L 202.054555 87.369549 
L 202.34587 87.369549 
L 202.543603 87.369549 
L 202.834035 87.369549 
L 203.201202 87.369549 
L 203.445637 87.369549 
L 203.616671 87.369549 
L 203.8804 87.369549 
L 204.20098 87.369549 
L 204.575572 87.369549 
L 204.667543 87.369549 
L 205.061106 87.369549 
L 205.168561 87.369549 
L 205.565238 87.369549 
L 205.820427 87.369549 
L 206.053826 87.369549 
L 206.336411 87.369549 
L 206.621584 87.369549 
L 206.866193 87.369549 
L 207.135367 87.369549 
L 207.349519 87.369549 
L 207.647218 87.369549 
L 207.971939 87.369549 
L 208.189473 87.369549 
L 208.290387 87.369549 
L 208.619974 87.369549 
L 208.813871 87.369549 
L 209.045124 87.369549 
L 209.2967 87.369549 
L 209.756854 87.369549 
L 209.89437 87.369549 
L 210.122718 87.369549 
L 210.344714 87.369549 
L 210.702557 87.369549 
L 211.060126 87.369549 
L 211.271345 87.369549 
L 211.511388 87.369549 
L 211.797929 87.369549 
L 212.024229 87.369549 
L 212.198262 87.369549 
L 212.505648 87.369549 
L 212.832068 87.369549 
L 213.110399 87.369549 
L 213.283355 87.369549 
L 213.600835 87.369549 
L 213.718735 87.369549 
L 214.203124 87.369549 
L 214.42651 87.369549 
L 214.638646 87.369549 
L 214.939037 87.369549 
L 215.219636 87.369549 
L 215.29544 87.369549 
L 215.553772 87.369549 
L 215.891222 87.369549 
L 216.203723 87.369549 
L 216.355348 87.369549 
L 216.614488 87.369549 
L 216.964171 87.369549 
L 217.226359 87.369549 
L 217.419306 87.369549 
L 217.640008 87.369549 
L 217.958221 87.369549 
L 218.247023 87.369549 
L 218.398359 87.369549 
L 218.764334 87.369549 
L 219.034337 87.369549 
L 219.263537 87.369549 
L 219.535804 87.369549 
L 219.927029 87.369549 
L 220.08832 87.369549 
L 220.26835 87.369549 
L 220.618002 87.369549 
L 220.795991 87.369549 
L 221.106431 87.369549 
L 221.263267 87.369549 
L 221.687876 87.369549 
L 221.782779 87.369549 
L 222.130205 87.369549 
L 222.341472 87.369549 
L 222.669149 87.369549 
L 222.931107 87.369549 
L 223.112309 87.369549 
L 223.578654 87.369549 
L 223.689602 87.369549 
L 223.931244 87.369549 
L 224.335405 87.369549 
L 224.499285 87.369549 
L 224.742533 87.369549 
L 225.000217 87.369549 
L 225.278417 87.369549 
L 225.567532 87.369549 
L 225.83166 87.369549 
L 226.109536 87.369549 
L 226.31015 87.369549 
L 226.611718 87.369549 
L 226.870482 87.369549 
L 227.055076 87.369549 
L 227.360966 87.369549 
L 227.533268 87.369549 
L 227.990226 87.369549 
L 228.027491 87.369549 
L 228.410414 87.369549 
L 228.601231 87.369549 
L 228.926234 87.369549 
L 229.053908 87.369549 
L 229.491137 87.369549 
L 229.68128 87.369549 
L 229.986333 87.369549 
L 230.177382 87.369549 
L 230.351556 87.369549 
L 230.730641 87.369549 
L 231.10857 87.369549 
L 231.348253 87.369549 
L 231.404069 87.369549 
L 231.677626 87.369549 
L 232.068723 87.369549 
L 232.254522 87.369549 
L 232.519317 87.369549 
L 232.812508 87.369549 
L 233.006673 87.369549 
L 233.23356 87.369549 
L 233.670356 87.369549 
L 233.837761 87.369549 
L 234.008843 87.369549 
L 234.380062 87.369549 
L 234.546638 87.369549 
L 234.80907 87.369549 
L 235.067554 87.369549 
L 235.286287 87.369549 
L 235.701481 87.369549 
L 236.024909 87.369549 
L 236.186905 87.369549 
L 236.361333 87.369549 
L 236.765887 87.369549 
L 237.014433 87.369549 
L 237.193771 87.369549 
L 237.497519 87.369549 
L 237.621743 87.369549 
L 237.94774 87.369549 
L 238.248187 87.369549 
L 238.40139 87.369549 
L 238.659803 87.369549 
L 239.045644 87.369549 
L 239.191252 87.369549 
L 239.450904 87.369549 
L 239.880777 87.369549 
L 240.05833 87.369549 
L 240.333544 87.369549 
L 240.518456 87.369549 
L 240.839335 87.369549 
L 241.176829 87.369549 
L 241.390668 87.369549 
L 241.635771 87.369549 
L 241.964219 87.369549 
L 242.219559 87.369549 
L 242.494794 87.369549 
L 242.741359 87.369549 
L 242.95028 87.369549 
L 243.178447 87.369549 
L 243.439727 87.369549 
L 243.629852 87.369549 
L 244.083266 87.369549 
L 244.179816 87.369549 
L 244.461756 87.369549 
L 244.655206 87.369549 
L 244.976961 87.369549 
L 245.199968 87.369549 
L 245.495843 87.369549 
L 245.769208 87.369549 
L 245.968183 87.369549 
L 246.308447 87.369549 
L 246.693389 87.369549 
L 246.964341 87.369549 
L 247.200497 87.369549 
L 247.462941 87.369549 
L 247.728432 87.369549 
L 247.99526 87.369549 
L 248.173172 87.369549 
L 248.362661 87.369549 
L 248.711154 87.369549 
L 248.925683 87.369549 
L 248.925683 249.241485 
z
" style="fill:#cde0eb;opacity:0.5;"/>
   </g>
   <g id="matplotlib.axis_1">
    <g id="xtick_1">
     <g id="line2d_1">
      <defs>
       <path d="M 0 0 
L 0 3.5 
" id="ma5a8770478" style="stroke:#000000;stroke-width:0.8;"/>
      </defs>
      <g>
       <use style="stroke:#000000;stroke-width:0.8;" x="67.90071" xlink:href="#ma5a8770478" y="249.241485"/>
      </g>
     </g>
     <g id="text_1">
      <!-- $x_1^{\ast}$ -->
      <defs>
       <path d="M 7.8125 2.875 
Q 9.578125 1.515625 12.796875 1.515625 
Q 15.921875 1.515625 18.3125 4.515625 
Q 20.703125 7.515625 21.578125 11.078125 
L 26.125 28.8125 
Q 27.203125 33.640625 27.203125 35.40625 
Q 27.203125 37.890625 25.8125 39.75 
Q 24.421875 41.609375 21.921875 41.609375 
Q 18.75 41.609375 15.96875 39.625 
Q 13.1875 37.640625 11.28125 34.59375 
Q 9.375 31.546875 8.59375 28.421875 
Q 8.40625 27.78125 7.8125 27.78125 
L 6.59375 27.78125 
Q 5.8125 27.78125 5.8125 28.71875 
L 5.8125 29 
Q 6.78125 32.71875 9.125 36.25 
Q 11.46875 39.796875 14.859375 41.984375 
Q 18.265625 44.1875 22.125 44.1875 
Q 25.78125 44.1875 28.734375 42.234375 
Q 31.6875 40.28125 32.90625 36.921875 
Q 34.625 39.984375 37.28125 42.078125 
Q 39.9375 44.1875 43.109375 44.1875 
Q 45.265625 44.1875 47.5 43.421875 
Q 49.75 42.671875 51.171875 41.109375 
Q 52.59375 39.546875 52.59375 37.203125 
Q 52.59375 34.671875 50.953125 32.828125 
Q 49.3125 31 46.78125 31 
Q 45.171875 31 44.09375 32.03125 
Q 43.015625 33.0625 43.015625 34.625 
Q 43.015625 36.71875 44.453125 38.296875 
Q 45.90625 39.890625 47.90625 40.1875 
Q 46.09375 41.609375 42.921875 41.609375 
Q 39.703125 41.609375 37.328125 38.625 
Q 34.96875 35.640625 33.984375 31.984375 
L 29.59375 14.3125 
Q 28.515625 10.296875 28.515625 7.71875 
Q 28.515625 5.171875 29.953125 3.34375 
Q 31.390625 1.515625 33.796875 1.515625 
Q 38.484375 1.515625 42.15625 5.640625 
Q 45.84375 9.765625 47.015625 14.703125 
Q 47.21875 15.28125 47.796875 15.28125 
L 49.03125 15.28125 
Q 49.421875 15.28125 49.65625 15.015625 
Q 49.90625 14.75 49.90625 14.40625 
Q 49.90625 14.3125 49.8125 14.109375 
Q 48.390625 8.15625 43.84375 3.515625 
Q 39.3125 -1.125 33.59375 -1.125 
Q 29.9375 -1.125 26.984375 0.84375 
Q 24.03125 2.828125 22.796875 6.203125 
Q 21.234375 3.265625 18.46875 1.0625 
Q 15.71875 -1.125 12.59375 -1.125 
Q 10.453125 -1.125 8.171875 -0.359375 
Q 5.90625 0.390625 4.484375 1.953125 
Q 3.078125 3.515625 3.078125 5.90625 
Q 3.078125 8.25 4.703125 10.171875 
Q 6.34375 12.109375 8.796875 12.109375 
Q 10.453125 12.109375 11.578125 11.109375 
Q 12.703125 10.109375 12.703125 8.5 
Q 12.703125 6.390625 11.296875 4.828125 
Q 9.90625 3.265625 7.8125 2.875 
z
" id="Cmmi10-120"/>
       <path d="M 9.421875 12.703125 
Q 8.296875 12.703125 7.390625 13.640625 
Q 6.5 14.59375 6.5 15.71875 
Q 6.5 17.4375 7.90625 18.109375 
L 22.3125 25 
L 7.90625 31.78125 
Q 6.5 32.375 6.5 34.1875 
Q 6.5 35.296875 7.390625 36.25 
Q 8.296875 37.203125 9.421875 37.203125 
Q 10.15625 37.203125 10.796875 36.71875 
L 23.578125 27.390625 
L 22.125 43.703125 
Q 22.125 44.921875 22.953125 45.703125 
Q 23.78125 46.484375 25 46.484375 
Q 26.171875 46.484375 26.96875 45.75 
Q 27.78125 45.015625 27.78125 43.890625 
L 27.78125 43.703125 
L 26.3125 27.390625 
L 39.109375 36.71875 
Q 39.75 37.203125 40.484375 37.203125 
Q 41.703125 37.203125 42.546875 36.25 
Q 43.40625 35.296875 43.40625 34.1875 
Q 43.40625 32.375 42 31.78125 
L 27.59375 25 
L 42 18.109375 
Q 43.40625 17.4375 43.40625 15.71875 
Q 43.40625 14.59375 42.546875 13.640625 
Q 41.703125 12.703125 40.484375 12.703125 
Q 39.75 12.703125 39.109375 13.1875 
L 26.3125 22.515625 
L 27.78125 6.296875 
L 27.78125 6 
Q 27.78125 4.890625 26.921875 4.15625 
Q 26.078125 3.421875 25 3.421875 
Q 23.828125 3.421875 22.96875 4.21875 
Q 22.125 5.03125 22.125 6.203125 
L 23.578125 22.515625 
L 10.796875 13.1875 
Q 10.15625 12.703125 9.421875 12.703125 
z
" id="Cmsy10-164"/>
       <path d="M 9.28125 0 
L 9.28125 3.515625 
Q 21.78125 3.515625 21.78125 6.6875 
L 21.78125 59.1875 
Q 16.609375 56.6875 8.6875 56.6875 
L 8.6875 60.203125 
Q 20.953125 60.203125 27.203125 66.609375 
L 28.609375 66.609375 
Q 28.953125 66.609375 29.265625 66.328125 
Q 29.59375 66.0625 29.59375 65.71875 
L 29.59375 6.6875 
Q 29.59375 3.515625 42.09375 3.515625 
L 42.09375 0 
z
" id="Cmr10-49"/>
      </defs>
      <g transform="translate(61.60071 264.761485)scale(0.12 -0.12)">
       <use transform="translate(0 0.196875)" xlink:href="#Cmmi10-120"/>
       <use transform="translate(63.383359 38.460938)scale(0.7)" xlink:href="#Cmsy10-164"/>
       <use transform="translate(57.080078 -25.3125)scale(0.7)" xlink:href="#Cmr10-49"/>
      </g>
     </g>
    </g>
    <g id="xtick_2">
     <g id="line2d_2">
      <g>
       <use style="stroke:#000000;stroke-width:0.8;" x="119.622131" xlink:href="#ma5a8770478" y="249.241485"/>
      </g>
     </g>
     <g id="text_2">
      <!-- $x_2^{\ast}$ -->
      <defs>
       <path d="M 4.984375 0 
L 4.984375 2.6875 
Q 4.984375 2.9375 5.171875 3.21875 
L 20.703125 20.40625 
Q 24.21875 24.21875 26.40625 26.796875 
Q 28.609375 29.390625 30.75 32.765625 
Q 32.90625 36.140625 34.15625 39.625 
Q 35.40625 43.109375 35.40625 47.015625 
Q 35.40625 51.125 33.890625 54.859375 
Q 32.375 58.59375 29.375 60.84375 
Q 26.375 63.09375 22.125 63.09375 
Q 17.78125 63.09375 14.3125 60.46875 
Q 10.84375 57.859375 9.421875 53.71875 
Q 9.8125 53.8125 10.5 53.8125 
Q 12.75 53.8125 14.328125 52.296875 
Q 15.921875 50.78125 15.921875 48.390625 
Q 15.921875 46.09375 14.328125 44.5 
Q 12.75 42.921875 10.5 42.921875 
Q 8.15625 42.921875 6.5625 44.546875 
Q 4.984375 46.1875 4.984375 48.390625 
Q 4.984375 52.15625 6.390625 55.4375 
Q 7.8125 58.734375 10.46875 61.296875 
Q 13.140625 63.875 16.484375 65.234375 
Q 19.828125 66.609375 23.578125 66.609375 
Q 29.296875 66.609375 34.21875 64.1875 
Q 39.15625 61.765625 42.03125 57.34375 
Q 44.921875 52.9375 44.921875 47.015625 
Q 44.921875 42.671875 43.015625 38.765625 
Q 41.109375 34.859375 38.125 31.65625 
Q 35.15625 28.46875 30.515625 24.40625 
Q 25.875 20.359375 24.421875 19 
L 13.09375 8.109375 
L 22.703125 8.109375 
Q 29.78125 8.109375 34.546875 8.21875 
Q 39.3125 8.34375 39.59375 8.59375 
Q 40.765625 9.859375 42 17.828125 
L 44.921875 17.828125 
L 42.09375 0 
z
" id="Cmr10-50"/>
      </defs>
      <g transform="translate(113.322131 264.761485)scale(0.12 -0.12)">
       <use transform="translate(0 0.196875)" xlink:href="#Cmmi10-120"/>
       <use transform="translate(63.383359 38.460938)scale(0.7)" xlink:href="#Cmsy10-164"/>
       <use transform="translate(57.080078 -25.3125)scale(0.7)" xlink:href="#Cmr10-50"/>
      </g>
     </g>
    </g>
    <g id="xtick_3">
     <g id="line2d_3">
      <g>
       <use style="stroke:#000000;stroke-width:0.8;" x="171.343552" xlink:href="#ma5a8770478" y="249.241485"/>
      </g>
     </g>
     <g id="text_3">
      <!-- $x_3^{\ast}$ -->
      <defs>
       <path d="M 9.515625 7.71875 
Q 11.859375 4.296875 15.8125 2.640625 
Q 19.78125 0.984375 24.3125 0.984375 
Q 30.125 0.984375 32.5625 5.9375 
Q 35.015625 10.890625 35.015625 17.1875 
Q 35.015625 20.015625 34.5 22.84375 
Q 33.984375 25.6875 32.765625 28.125 
Q 31.546875 30.5625 29.421875 32.03125 
Q 27.296875 33.5 24.21875 33.5 
L 17.578125 33.5 
Q 16.703125 33.5 16.703125 34.421875 
L 16.703125 35.296875 
Q 16.703125 36.078125 17.578125 36.078125 
L 23.09375 36.53125 
Q 26.609375 36.53125 28.921875 39.15625 
Q 31.25 41.796875 32.328125 45.578125 
Q 33.40625 49.359375 33.40625 52.78125 
Q 33.40625 57.5625 31.15625 60.640625 
Q 28.90625 63.71875 24.3125 63.71875 
Q 20.515625 63.71875 17.046875 62.28125 
Q 13.578125 60.84375 11.53125 57.90625 
Q 11.71875 57.953125 11.859375 57.984375 
Q 12.015625 58.015625 12.203125 58.015625 
Q 14.453125 58.015625 15.96875 56.453125 
Q 17.484375 54.890625 17.484375 52.6875 
Q 17.484375 50.53125 15.96875 48.96875 
Q 14.453125 47.40625 12.203125 47.40625 
Q 10.015625 47.40625 8.453125 48.96875 
Q 6.890625 50.53125 6.890625 52.6875 
Q 6.890625 56.984375 9.46875 60.15625 
Q 12.0625 63.328125 16.140625 64.96875 
Q 20.21875 66.609375 24.3125 66.609375 
Q 27.34375 66.609375 30.703125 65.703125 
Q 34.078125 64.796875 36.8125 63.109375 
Q 39.546875 61.421875 41.28125 58.78125 
Q 43.015625 56.15625 43.015625 52.78125 
Q 43.015625 48.578125 41.140625 45.015625 
Q 39.265625 41.453125 35.984375 38.859375 
Q 32.71875 36.28125 28.8125 35.015625 
Q 33.15625 34.1875 37.0625 31.734375 
Q 40.96875 29.296875 43.328125 25.484375 
Q 45.703125 21.6875 45.703125 17.28125 
Q 45.703125 11.765625 42.671875 7.296875 
Q 39.65625 2.828125 34.71875 0.3125 
Q 29.78125 -2.203125 24.3125 -2.203125 
Q 19.625 -2.203125 14.90625 -0.40625 
Q 10.203125 1.375 7.203125 4.9375 
Q 4.203125 8.5 4.203125 13.484375 
Q 4.203125 15.96875 5.859375 17.625 
Q 7.515625 19.28125 10.015625 19.28125 
Q 11.625 19.28125 12.96875 18.53125 
Q 14.3125 17.78125 15.0625 16.40625 
Q 15.828125 15.046875 15.828125 13.484375 
Q 15.828125 11.03125 14.109375 9.375 
Q 12.40625 7.71875 10.015625 7.71875 
z
" id="Cmr10-51"/>
      </defs>
      <g transform="translate(165.043552 264.761485)scale(0.12 -0.12)">
       <use transform="translate(0 0.196875)" xlink:href="#Cmmi10-120"/>
       <use transform="translate(63.383359 38.460938)scale(0.7)" xlink:href="#Cmsy10-164"/>
       <use transform="translate(57.080078 -25.3125)scale(0.7)" xlink:href="#Cmr10-51"/>
      </g>
     </g>
    </g>
    <g id="xtick_4">
     <g id="line2d_4">
      <g>
       <use style="stroke:#000000;stroke-width:0.8;" x="223.064973" xlink:href="#ma5a8770478" y="249.241485"/>
      </g>
     </g>
     <g id="text_4">
      <!-- $x_4^{\ast}$ -->
      <defs>
       <path d="M 2.78125 16.5 
L 2.78125 20.015625 
L 33.6875 66.109375 
Q 34.03125 66.609375 34.71875 66.609375 
L 36.1875 66.609375 
Q 37.3125 66.609375 37.3125 65.484375 
L 37.3125 20.015625 
L 47.125 20.015625 
L 47.125 16.5 
L 37.3125 16.5 
L 37.3125 6.6875 
Q 37.3125 4.640625 40.234375 4.078125 
Q 43.171875 3.515625 47.015625 3.515625 
L 47.015625 0 
L 19.484375 0 
L 19.484375 3.515625 
Q 23.34375 3.515625 26.265625 4.078125 
Q 29.203125 4.640625 29.203125 6.6875 
L 29.203125 16.5 
z
M 6.109375 20.015625 
L 29.78125 20.015625 
L 29.78125 55.421875 
z
" id="Cmr10-52"/>
      </defs>
      <g transform="translate(216.764973 264.761485)scale(0.12 -0.12)">
       <use transform="translate(0 0.196875)" xlink:href="#Cmmi10-120"/>
       <use transform="translate(63.383359 38.460938)scale(0.7)" xlink:href="#Cmsy10-164"/>
       <use transform="translate(57.080078 -25.3125)scale(0.7)" xlink:href="#Cmr10-52"/>
      </g>
     </g>
    </g>
    <g id="text_5">
     <!-- $x$ -->
     <g transform="translate(261.063397 249.241485)scale(0.19 -0.19)">
      <use transform="translate(0 0.8125)" xlink:href="#Cmmi10-120"/>
     </g>
    </g>
   </g>
   <g id="matplotlib.axis_2">
    <g id="ytick_1">
     <g id="line2d_5">
      <defs>
       <path d="M 0 0 
L -3.5 0 
" id="m54802c1984" style="stroke:#000000;stroke-width:0.8;"/>
      </defs>
      <g>
       <use style="stroke:#000000;stroke-width:0.8;" x="42.04" xlink:href="#m54802c1984" y="245.937976"/>
      </g>
     </g>
     <g id="text_6">
      <!-- $f(x_1^{\ast})$ -->
      <defs>
       <path d="M 9.71875 -16.5 
Q 11.578125 -17.921875 14.203125 -17.921875 
Q 17.78125 -17.921875 20.015625 -10.015625 
Q 20.953125 -6.203125 25.09375 15.09375 
L 29.6875 39.59375 
L 21.09375 39.59375 
Q 20.125 39.59375 20.125 40.921875 
Q 20.515625 43.109375 21.390625 43.109375 
L 30.328125 43.109375 
L 31.5 49.609375 
Q 32.078125 52.640625 32.5625 54.8125 
Q 33.0625 56.984375 33.625 58.828125 
Q 34.1875 60.6875 35.296875 62.984375 
Q 37.015625 66.265625 39.921875 68.390625 
Q 42.828125 70.515625 46.1875 70.515625 
Q 48.390625 70.515625 50.46875 69.703125 
Q 52.546875 68.890625 53.859375 67.28125 
Q 55.171875 65.671875 55.171875 63.484375 
Q 55.171875 60.9375 53.484375 59.046875 
Q 51.8125 57.171875 49.421875 57.171875 
Q 47.796875 57.171875 46.65625 58.171875 
Q 45.515625 59.1875 45.515625 60.796875 
Q 45.515625 62.984375 47 64.625 
Q 48.484375 66.265625 50.6875 66.5 
Q 48.828125 67.921875 46.09375 67.921875 
Q 44.578125 67.921875 43.234375 66.5 
Q 41.890625 65.09375 41.5 63.484375 
Q 40.875 60.9375 38.71875 49.703125 
L 37.5 43.109375 
L 47.796875 43.109375 
Q 48.78125 43.109375 48.78125 41.796875 
Q 48.734375 41.546875 48.578125 40.9375 
Q 48.4375 40.328125 48.171875 39.953125 
Q 47.90625 39.59375 47.515625 39.59375 
L 36.8125 39.59375 
L 32.171875 15.1875 
Q 31.296875 9.859375 30.140625 4.359375 
Q 29 -1.125 26.921875 -6.90625 
Q 24.859375 -12.703125 21.625 -16.609375 
Q 18.40625 -20.515625 14.015625 -20.515625 
Q 10.640625 -20.515625 7.984375 -18.578125 
Q 5.328125 -16.65625 5.328125 -13.484375 
Q 5.328125 -10.9375 6.953125 -9.046875 
Q 8.59375 -7.171875 11.078125 -7.171875 
Q 12.75 -7.171875 13.859375 -8.171875 
Q 14.984375 -9.1875 14.984375 -10.796875 
Q 14.984375 -12.9375 13.390625 -14.71875 
Q 11.8125 -16.5 9.71875 -16.5 
z
" id="Cmmi10-102"/>
       <path d="M 31 -24.8125 
Q 25.4375 -20.40625 21.40625 -14.71875 
Q 17.390625 -9.03125 14.8125 -2.578125 
Q 12.25 3.859375 10.984375 10.890625 
Q 9.71875 17.921875 9.71875 25 
Q 9.71875 32.171875 10.984375 39.203125 
Q 12.25 46.234375 14.859375 52.734375 
Q 17.484375 59.234375 21.53125 64.890625 
Q 25.59375 70.5625 31 74.8125 
Q 31 75 31.5 75 
L 32.421875 75 
Q 32.71875 75 32.953125 74.734375 
Q 33.203125 74.46875 33.203125 74.125 
Q 33.203125 73.6875 33.015625 73.484375 
Q 28.125 68.703125 24.875 63.234375 
Q 21.625 57.765625 19.640625 51.578125 
Q 17.671875 45.40625 16.796875 38.78125 
Q 15.921875 32.171875 15.921875 25 
Q 15.921875 -6.78125 32.90625 -23.296875 
Q 33.203125 -23.578125 33.203125 -24.125 
Q 33.203125 -24.359375 32.9375 -24.671875 
Q 32.671875 -25 32.421875 -25 
L 31.5 -25 
Q 31 -25 31 -24.8125 
z
" id="Cmr10-40"/>
       <path d="M 6.5 -25 
Q 5.609375 -25 5.609375 -24.125 
Q 5.609375 -23.6875 5.8125 -23.484375 
Q 22.90625 -6.78125 22.90625 25 
Q 22.90625 56.78125 6 73.296875 
Q 5.609375 73.53125 5.609375 74.125 
Q 5.609375 74.46875 5.875 74.734375 
Q 6.15625 75 6.5 75 
L 7.421875 75 
Q 7.71875 75 7.90625 74.8125 
Q 15.09375 69.140625 19.875 61.03125 
Q 24.65625 52.9375 26.875 43.75 
Q 29.109375 34.578125 29.109375 25 
Q 29.109375 17.921875 27.90625 11.0625 
Q 26.703125 4.203125 24.09375 -2.453125 
Q 21.484375 -9.125 17.484375 -14.765625 
Q 13.484375 -20.40625 7.90625 -24.8125 
Q 7.71875 -25 7.421875 -25 
z
" id="Cmr10-41"/>
      </defs>
      <g transform="translate(7.2 250.437976)scale(0.12 -0.12)">
       <use xlink:href="#Cmmi10-102"/>
       <use transform="translate(48.876953 0)" xlink:href="#Cmr10-40"/>
       <use transform="translate(87.695312 0)" xlink:href="#Cmmi10-120"/>
       <use transform="translate(151.078672 38.264062)scale(0.7)" xlink:href="#Cmsy10-164"/>
       <use transform="translate(144.775391 -25.509375)scale(0.7)" xlink:href="#Cmr10-49"/>
       <use transform="translate(192.456016 0)" xlink:href="#Cmr10-41"/>
      </g>
     </g>
    </g>
    <g id="ytick_2">
     <g id="line2d_6">
      <g>
       <use style="stroke:#000000;stroke-width:0.8;" x="42.04" xlink:href="#m54802c1984" y="219.509905"/>
      </g>
     </g>
     <g id="text_7">
      <!-- $f(x_2^{\ast})$ -->
      <g transform="translate(7.2 224.009905)scale(0.12 -0.12)">
       <use xlink:href="#Cmmi10-102"/>
       <use transform="translate(48.876953 0)" xlink:href="#Cmr10-40"/>
       <use transform="translate(87.695312 0)" xlink:href="#Cmmi10-120"/>
       <use transform="translate(151.078672 38.264062)scale(0.7)" xlink:href="#Cmsy10-164"/>
       <use transform="translate(144.775391 -25.509375)scale(0.7)" xlink:href="#Cmr10-50"/>
       <use transform="translate(192.456016 0)" xlink:href="#Cmr10-41"/>
      </g>
     </g>
    </g>
    <g id="ytick_3">
     <g id="line2d_7">
      <g>
       <use style="stroke:#000000;stroke-width:0.8;" x="42.04" xlink:href="#m54802c1984" y="166.653763"/>
      </g>
     </g>
     <g id="text_8">
      <!-- $f(x_3^{\ast})$ -->
      <g transform="translate(7.2 171.153763)scale(0.12 -0.12)">
       <use xlink:href="#Cmmi10-102"/>
       <use transform="translate(48.876953 0)" xlink:href="#Cmr10-40"/>
       <use transform="translate(87.695312 0)" xlink:href="#Cmmi10-120"/>
       <use transform="translate(151.078672 38.264062)scale(0.7)" xlink:href="#Cmsy10-164"/>
       <use transform="translate(144.775391 -25.509375)scale(0.7)" xlink:href="#Cmr10-51"/>
       <use transform="translate(192.456016 0)" xlink:href="#Cmr10-41"/>
      </g>
     </g>
    </g>
    <g id="ytick_4">
     <g id="line2d_8">
      <g>
       <use style="stroke:#000000;stroke-width:0.8;" x="42.04" xlink:href="#m54802c1984" y="87.369549"/>
      </g>
     </g>
     <g id="text_9">
      <!-- $f(x_4^{\ast})$ -->
      <g transform="translate(7.2 91.869549)scale(0.12 -0.12)">
       <use xlink:href="#Cmmi10-102"/>
       <use transform="translate(48.876953 0)" xlink:href="#Cmr10-40"/>
       <use transform="translate(87.695312 0)" xlink:href="#Cmmi10-120"/>
       <use transform="translate(151.078672 38.264062)scale(0.7)" xlink:href="#Cmsy10-164"/>
       <use transform="translate(144.775391 -25.509375)scale(0.7)" xlink:href="#Cmr10-52"/>
       <use transform="translate(192.456016 0)" xlink:href="#Cmr10-41"/>
      </g>
     </g>
    </g>
    <g id="text_10">
     <!-- $y$ -->
     <defs>
      <path d="M 8.40625 -14.3125 
Q 10.5 -17.921875 15.71875 -17.921875 
Q 20.453125 -17.921875 23.921875 -14.59375 
Q 27.390625 -11.28125 29.515625 -6.5625 
Q 31.640625 -1.859375 32.8125 3.078125 
Q 28.375 -1.125 23.1875 -1.125 
Q 19.234375 -1.125 16.453125 0.234375 
Q 13.671875 1.609375 12.125 4.3125 
Q 10.59375 7.03125 10.59375 10.890625 
Q 10.59375 14.15625 11.46875 17.59375 
Q 12.359375 21.046875 13.9375 25.265625 
Q 15.53125 29.5 16.703125 32.625 
Q 18.015625 36.28125 18.015625 38.625 
Q 18.015625 41.609375 15.828125 41.609375 
Q 11.859375 41.609375 9.296875 37.53125 
Q 6.734375 33.453125 5.515625 28.421875 
Q 5.328125 27.78125 4.6875 27.78125 
L 3.515625 27.78125 
Q 2.6875 27.78125 2.6875 28.71875 
L 2.6875 29 
Q 4.296875 34.96875 7.609375 39.578125 
Q 10.9375 44.1875 16.015625 44.1875 
Q 19.578125 44.1875 22.046875 41.84375 
Q 24.515625 39.5 24.515625 35.890625 
Q 24.515625 34.03125 23.6875 31.984375 
Q 23.25 30.765625 21.6875 26.65625 
Q 20.125 22.5625 19.28125 19.875 
Q 18.453125 17.1875 17.921875 14.59375 
Q 17.390625 12.015625 17.390625 9.421875 
Q 17.390625 6.109375 18.796875 3.8125 
Q 20.21875 1.515625 23.296875 1.515625 
Q 29.5 1.515625 34.421875 9.078125 
L 42 39.890625 
Q 42.328125 41.21875 43.546875 42.15625 
Q 44.78125 43.109375 46.1875 43.109375 
Q 47.40625 43.109375 48.3125 42.328125 
Q 49.21875 41.546875 49.21875 40.28125 
Q 49.21875 39.703125 49.125 39.5 
L 39.203125 -0.296875 
Q 37.890625 -5.421875 34.375 -10.109375 
Q 30.859375 -14.796875 25.90625 -17.65625 
Q 20.953125 -20.515625 15.578125 -20.515625 
Q 12.984375 -20.515625 10.4375 -19.5 
Q 7.90625 -18.5 6.34375 -16.5 
Q 4.78125 -14.5 4.78125 -11.8125 
Q 4.78125 -9.078125 6.390625 -7.078125 
Q 8.015625 -5.078125 10.6875 -5.078125 
Q 12.3125 -5.078125 13.40625 -6.078125 
Q 14.5 -7.078125 14.5 -8.6875 
Q 14.5 -10.984375 12.78125 -12.6875 
Q 11.078125 -14.40625 8.796875 -14.40625 
Q 8.6875 -14.359375 8.59375 -14.328125 
Q 8.5 -14.3125 8.40625 -14.3125 
z
" id="Cmmi10-121"/>
     </defs>
     <g transform="translate(37.29 21.598438)scale(0.19 -0.19)">
      <use transform="translate(0 0.8125)" xlink:href="#Cmmi10-121"/>
     </g>
    </g>
   </g>
   <g id="line2d_9">
    <path clip-path="url(#pa1d89ca0c1)" d="M 42.04 249.241485 
L 46.764485 249.131229 
L 51.949164 248.756455 
L 56.561044 248.199911 
L 61.346605 247.400262 
L 66.395465 246.311351 
L 71.400128 244.983438 
L 75.830012 243.601587 
L 81.010039 241.739844 
L 85.591666 239.87225 
L 90.811431 237.491817 
L 95.981661 234.868625 
L 100.520456 232.348124 
L 105.932777 229.07649 
L 110.770742 225.907084 
L 116.182766 222.087589 
L 122.002156 217.657744 
L 127.823055 212.892055 
L 133.615493 207.817382 
L 139.222961 202.588994 
L 144.036275 197.853309 
L 149.620514 192.072326 
L 155.670764 185.461203 
L 161.648267 178.574433 
L 167.226808 171.828875 
L 172.824792 164.750753 
L 179.075408 156.481606 
L 185.470852 147.621357 
L 192.268386 137.761069 
L 198.93326 127.650004 
L 205.779968 116.806117 
L 212.089139 106.403586 
L 217.916281 96.446491 
L 224.250975 85.241563 
L 230.428156 73.933472 
L 237.048793 61.395046 
L 244.088644 47.587664 
L 248.925683 37.816916 
L 248.925683 37.816916 
" style="fill:none;stroke:#0000ff;stroke-linecap:square;"/>
   </g>
   <g id="line2d_10">
    <path clip-path="url(#pa1d89ca0c1)" d="M 42.04 249.241485 
L 42.04 245.937976 
L 93.761421 245.937976 
L 93.761421 249.241485 
" style="fill:none;stroke:#ff0000;stroke-linecap:square;"/>
   </g>
   <g id="line2d_11">
    <path clip-path="url(#pa1d89ca0c1)" d="M 67.90071 249.241485 
L 67.90071 245.937976 
" style="fill:none;stroke:#808080;stroke-dasharray:3.7,1.6;stroke-dashoffset:0;"/>
   </g>
   <g id="line2d_12">
    <path clip-path="url(#pa1d89ca0c1)" d="M 42.04 245.937976 
L 67.90071 245.937976 
" style="fill:none;stroke:#808080;stroke-dasharray:3.7,1.6;stroke-dashoffset:0;"/>
   </g>
   <g id="line2d_13">
    <path clip-path="url(#pa1d89ca0c1)" d="M 42.04 245.937976 
L 93.761421 245.937976 
L 93.761421 245.937976 
" style="fill:none;stroke:#ff0000;stroke-linecap:square;"/>
   </g>
   <g id="line2d_14">
    <path clip-path="url(#pa1d89ca0c1)" d="M 93.761421 249.241485 
L 93.761421 219.509905 
L 145.482842 219.509905 
L 145.482842 249.241485 
" style="fill:none;stroke:#ff0000;stroke-linecap:square;"/>
   </g>
   <g id="line2d_15">
    <path clip-path="url(#pa1d89ca0c1)" d="M 119.622131 249.241485 
L 119.622131 219.509905 
" style="fill:none;stroke:#808080;stroke-dasharray:3.7,1.6;stroke-dashoffset:0;"/>
   </g>
   <g id="line2d_16">
    <path clip-path="url(#pa1d89ca0c1)" d="M 42.04 219.509905 
L 119.622131 219.509905 
" style="fill:none;stroke:#808080;stroke-dasharray:3.7,1.6;stroke-dashoffset:0;"/>
   </g>
   <g id="line2d_17">
    <path clip-path="url(#pa1d89ca0c1)" d="M 93.761421 219.509905 
L 145.482842 219.509905 
L 145.482842 219.509905 
" style="fill:none;stroke:#ff0000;stroke-linecap:square;"/>
   </g>
   <g id="line2d_18">
    <path clip-path="url(#pa1d89ca0c1)" d="M 145.482842 249.241485 
L 145.482842 166.653763 
L 197.204263 166.653763 
L 197.204263 249.241485 
" style="fill:none;stroke:#ff0000;stroke-linecap:square;"/>
   </g>
   <g id="line2d_19">
    <path clip-path="url(#pa1d89ca0c1)" d="M 171.343552 249.241485 
L 171.343552 166.653763 
" style="fill:none;stroke:#808080;stroke-dasharray:3.7,1.6;stroke-dashoffset:0;"/>
   </g>
   <g id="line2d_20">
    <path clip-path="url(#pa1d89ca0c1)" d="M 42.04 166.653763 
L 171.343552 166.653763 
" style="fill:none;stroke:#808080;stroke-dasharray:3.7,1.6;stroke-dashoffset:0;"/>
   </g>
   <g id="line2d_21">
    <path clip-path="url(#pa1d89ca0c1)" d="M 145.482842 166.653763 
L 197.204263 166.653763 
L 197.204263 166.653763 
" style="fill:none;stroke:#ff0000;stroke-linecap:square;"/>
   </g>
   <g id="line2d_22">
    <path clip-path="url(#pa1d89ca0c1)" d="M 197.204263 249.241485 
L 197.204263 87.369549 
L 248.925683 87.369549 
L 248.925683 249.241485 
" style="fill:none;stroke:#ff0000;stroke-linecap:square;"/>
   </g>
   <g id="line2d_23">
    <path clip-path="url(#pa1d89ca0c1)" d="M 223.064973 249.241485 
L 223.064973 87.369549 
" style="fill:none;stroke:#808080;stroke-dasharray:3.7,1.6;stroke-dashoffset:0;"/>
   </g>
   <g id="line2d_24">
    <path clip-path="url(#pa1d89ca0c1)" d="M 42.04 87.369549 
L 223.064973 87.369549 
" style="fill:none;stroke:#808080;stroke-dasharray:3.7,1.6;stroke-dashoffset:0;"/>
   </g>
   <g id="line2d_25">
    <path clip-path="url(#pa1d89ca0c1)" d="M 197.204263 87.369549 
L 248.925683 87.369549 
L 248.925683 87.369549 
" style="fill:none;stroke:#ff0000;stroke-linecap:square;"/>
   </g>
   <g id="patch_7">
    <path d="M 42.04 253.469976 
L 42.04 33.588438 
" style="fill:none;stroke:#000000;stroke-linecap:square;stroke-linejoin:miter;stroke-width:0.8;"/>
   </g>
   <g id="patch_8">
    <path d="M 37.902286 249.241485 
L 253.063397 249.241485 
" style="fill:none;stroke:#000000;stroke-linecap:square;stroke-linejoin:miter;stroke-width:0.8;"/>
   </g>
  </g>
 </g>
 <defs>
  <clipPath id="pa1d89ca0c1">
   <rect height="219.881538" width="215.161111" x="37.902286" y="33.588438"/>
  </clipPath>
 </defs>
</svg>
