<?xml version="1.0" encoding="utf-8" standalone="no"?>
<!DOCTYPE svg PUBLIC "-//W3C//DTD SVG 1.1//EN"
  "http://www.w3.org/Graphics/SVG/1.1/DTD/svg11.dtd">
<!-- Created with matplotlib (https://matplotlib.org/) -->
<svg height="274.634946pt" version="1.1" viewBox="0 0 279.283397 274.634946" width="279.283397pt" xmlns="http://www.w3.org/2000/svg" xmlns:xlink="http://www.w3.org/1999/xlink">
 <defs>
  <style type="text/css">
*{stroke-linecap:butt;stroke-linejoin:round;}
  </style>
 </defs>
 <g id="figure_1">
  <g id="patch_1">
   <path d="M 0 274.634946 
L 279.283397 274.634946 
L 279.283397 0 
L 0 0 
z
" style="fill:#ffffff;"/>
  </g>
  <g id="axes_1">
   <g id="patch_2">
    <path d="M 37.902286 252.769976 
L 253.063397 252.769976 
L 253.063397 33.588437 
L 37.902286 33.588437 
z
" style="fill:#ffffff;"/>
   </g>
   <g id="PathCollection_1">
    <path clip-path="url(#p67fd07d582)" d="M 93.761421 236.964117 
C 94.180744 236.964117 94.582949 236.797518 94.879455 236.501012 
C 95.175961 236.204506 95.34256 235.802301 95.34256 235.382978 
C 95.34256 234.963655 95.175961 234.56145 94.879455 234.264944 
C 94.582949 233.968438 94.180744 233.801839 93.761421 233.801839 
C 93.342098 233.801839 92.939893 233.968438 92.643387 234.264944 
C 92.346881 234.56145 92.180282 234.963655 92.180282 235.382978 
C 92.180282 235.802301 92.346881 236.204506 92.643387 236.501012 
C 92.939893 236.797518 93.342098 236.964117 93.761421 236.964117 
z
" style="fill:#ff0000;"/>
   </g>
   <g id="PathCollection_2">
    <path clip-path="url(#p67fd07d582)" d="M 145.482842 197.448212 
C 145.902165 197.448212 146.30437 197.281613 146.600876 196.985107 
C 146.897382 196.688601 147.063981 196.286396 147.063981 195.867073 
C 147.063981 195.44775 146.897382 195.045545 146.600876 194.749039 
C 146.30437 194.452533 145.902165 194.285935 145.482842 194.285935 
C 145.063519 194.285935 144.661314 194.452533 144.364808 194.749039 
C 144.068302 195.045545 143.901703 195.44775 143.901703 195.867073 
C 143.901703 196.286396 144.068302 196.688601 144.364808 196.985107 
C 144.661314 197.281613 145.063519 197.448212 145.482842 197.448212 
z
" style="fill:#ff0000;"/>
   </g>
   <g id="PathCollection_3">
    <path clip-path="url(#p67fd07d582)" d="M 197.204263 131.588371 
C 197.623586 131.588371 198.025791 131.421772 198.322297 131.125266 
C 198.618803 130.82876 198.785401 130.426555 198.785401 130.007232 
C 198.785401 129.587909 198.618803 129.185704 198.322297 128.889198 
C 198.025791 128.592692 197.623586 128.426093 197.204263 128.426093 
C 196.78494 128.426093 196.382735 128.592692 196.086229 128.889198 
C 195.789723 129.185704 195.623124 129.587909 195.623124 130.007232 
C 195.623124 130.426555 195.789723 130.82876 196.086229 131.125266 
C 196.382735 131.421772 196.78494 131.588371 197.204263 131.588371 
z
" style="fill:#ff0000;"/>
   </g>
   <g id="PathCollection_4">
    <path clip-path="url(#p67fd07d582)" d="M 248.925683 39.384593 
C 249.345006 39.384593 249.747211 39.217995 250.043717 38.921488 
C 250.340224 38.624982 250.506822 38.222777 250.506822 37.803454 
C 250.506822 37.384132 250.340224 36.981927 250.043717 36.68542 
C 249.747211 36.388914 249.345006 36.222316 248.925683 36.222316 
C 248.506361 36.222316 248.104156 36.388914 247.807649 36.68542 
C 247.511143 36.981927 247.344545 37.384132 247.344545 37.803454 
C 247.344545 38.222777 247.511143 38.624982 247.807649 38.921488 
C 248.104156 39.217995 248.506361 39.384593 248.925683 39.384593 
z
" style="fill:#ff0000;"/>
   </g>
   <g id="patch_3">
    <path clip-path="url(#p67fd07d582)" d="M 42.04 248.554946 
L 42.04 235.382978 
L 42.380437 235.382978 
L 42.524168 235.382978 
L 42.727201 235.382978 
L 43.025067 235.382978 
L 43.422543 235.382978 
L 43.668879 235.382978 
L 43.792205 235.382978 
L 44.029393 235.382978 
L 44.443252 235.382978 
L 44.720177 235.382978 
L 44.801681 235.382978 
L 45.26958 235.382978 
L 45.340742 235.382978 
L 45.663143 235.382978 
L 45.858434 235.382978 
L 46.125105 235.382978 
L 46.443408 235.382978 
L 46.709224 235.382978 
L 46.925039 235.382978 
L 47.31348 235.382978 
L 47.528974 235.382978 
L 47.762409 235.382978 
L 47.983027 235.382978 
L 48.293277 235.382978 
L 48.572198 235.382978 
L 48.844748 235.382978 
L 49.093226 235.382978 
L 49.428719 235.382978 
L 49.619541 235.382978 
L 49.966426 235.382978 
L 50.063178 235.382978 
L 50.315441 235.382978 
L 50.634951 235.382978 
L 50.909718 235.382978 
L 51.124469 235.382978 
L 51.365644 235.382978 
L 51.541169 235.382978 
L 51.840822 235.382978 
L 52.048395 235.382978 
L 52.328266 235.382978 
L 52.658139 235.382978 
L 52.922623 235.382978 
L 53.280475 235.382978 
L 53.603688 235.382978 
L 53.823432 235.382978 
L 53.923761 235.382978 
L 54.361729 235.382978 
L 54.414538 235.382978 
L 54.903311 235.382978 
L 55.112834 235.382978 
L 55.352557 235.382978 
L 55.458449 235.382978 
L 55.857423 235.382978 
L 56.118964 235.382978 
L 56.408472 235.382978 
L 56.561517 235.382978 
L 56.943959 235.382978 
L 56.993289 235.382978 
L 57.462078 235.382978 
L 57.762107 235.382978 
L 58.004636 235.382978 
L 58.180776 235.382978 
L 58.313139 235.382978 
L 58.691622 235.382978 
L 58.809761 235.382978 
L 59.134141 235.382978 
L 59.34352 235.382978 
L 59.771382 235.382978 
L 60.019958 235.382978 
L 60.135269 235.382978 
L 60.414112 235.382978 
L 60.766736 235.382978 
L 61.04044 235.382978 
L 61.216182 235.382978 
L 61.423346 235.382978 
L 61.742989 235.382978 
L 62.027356 235.382978 
L 62.266592 235.382978 
L 62.574116 235.382978 
L 62.824709 235.382978 
L 63.117497 235.382978 
L 63.268054 235.382978 
L 63.530425 235.382978 
L 63.96371 235.382978 
L 64.109331 235.382978 
L 64.344807 235.382978 
L 64.583626 235.382978 
L 64.867304 235.382978 
L 65.100192 235.382978 
L 65.424469 235.382978 
L 65.73393 235.382978 
L 65.911145 235.382978 
L 66.105031 235.382978 
L 66.526619 235.382978 
L 66.753378 235.382978 
L 67.038899 235.382978 
L 67.26161 235.382978 
L 67.40779 235.382978 
L 67.869907 235.382978 
L 67.974417 235.382978 
L 68.335515 235.382978 
L 68.430913 235.382978 
L 68.78422 235.382978 
L 69.149706 235.382978 
L 69.274285 235.382978 
L 69.63561 235.382978 
L 69.836034 235.382978 
L 70.189418 235.382978 
L 70.346842 235.382978 
L 70.653156 235.382978 
L 70.873053 235.382978 
L 71.255092 235.382978 
L 71.354275 235.382978 
L 71.582115 235.382978 
L 72.053851 235.382978 
L 72.319 235.382978 
L 72.349889 235.382978 
L 72.718589 235.382978 
L 72.941925 235.382978 
L 73.266994 235.382978 
L 73.518432 235.382978 
L 73.648153 235.382978 
L 74.125882 235.382978 
L 74.223724 235.382978 
L 74.452983 235.382978 
L 74.885038 235.382978 
L 74.951515 235.382978 
L 75.182772 235.382978 
L 75.581298 235.382978 
L 75.732056 235.382978 
L 76.024028 235.382978 
L 76.405936 235.382978 
L 76.605212 235.382978 
L 76.867011 235.382978 
L 77.021803 235.382978 
L 77.414011 235.382978 
L 77.632581 235.382978 
L 77.992996 235.382978 
L 78.168876 235.382978 
L 78.454114 235.382978 
L 78.752771 235.382978 
L 78.969211 235.382978 
L 79.216747 235.382978 
L 79.351988 235.382978 
L 79.81204 235.382978 
L 79.898603 235.382978 
L 80.225392 235.382978 
L 80.450937 235.382978 
L 80.772542 235.382978 
L 81.152903 235.382978 
L 81.228162 235.382978 
L 81.554198 235.382978 
L 81.808664 235.382978 
L 82.023449 235.382978 
L 82.414626 235.382978 
L 82.593585 235.382978 
L 82.935405 235.382978 
L 83.168767 235.382978 
L 83.416631 235.382978 
L 83.613359 235.382978 
L 83.968466 235.382978 
L 84.06639 235.382978 
L 84.396577 235.382978 
L 84.561511 235.382978 
L 85.023622 235.382978 
L 85.142358 235.382978 
L 85.423772 235.382978 
L 85.669396 235.382978 
L 85.884349 235.382978 
L 86.13121 235.382978 
L 86.36671 235.382978 
L 86.726297 235.382978 
L 86.992483 235.382978 
L 87.297952 235.382978 
L 87.617072 235.382978 
L 87.758611 235.382978 
L 88.156197 235.382978 
L 88.418722 235.382978 
L 88.571518 235.382978 
L 88.894858 235.382978 
L 89.182853 235.382978 
L 89.41589 235.382978 
L 89.60191 235.382978 
L 89.890655 235.382978 
L 90.245046 235.382978 
L 90.371596 235.382978 
L 90.66884 235.382978 
L 90.786416 235.382978 
L 91.067423 235.382978 
L 91.405226 235.382978 
L 91.616528 235.382978 
L 91.957633 235.382978 
L 92.127107 235.382978 
L 92.487226 235.382978 
L 92.680951 235.382978 
L 92.994646 235.382978 
L 93.121053 235.382978 
L 93.533227 235.382978 
L 93.761421 235.382978 
L 93.761421 248.554946 
z
" style="fill:#cde0eb;opacity:0.5;"/>
   </g>
   <g id="patch_4">
    <path clip-path="url(#p67fd07d582)" d="M 93.761421 248.554946 
L 93.761421 195.867073 
L 93.912919 195.867073 
L 94.20928 195.867073 
L 94.537473 195.867073 
L 94.721443 195.867073 
L 94.974496 195.867073 
L 95.333538 195.867073 
L 95.502227 195.867073 
L 95.80046 195.867073 
L 95.984807 195.867073 
L 96.447756 195.867073 
L 96.695834 195.867073 
L 96.979417 195.867073 
L 97.085457 195.867073 
L 97.353935 195.867073 
L 97.601244 195.867073 
L 97.996506 195.867073 
L 98.307722 195.867073 
L 98.485397 195.867073 
L 98.749243 195.867073 
L 98.883063 195.867073 
L 99.194165 195.867073 
L 99.476764 195.867073 
L 99.671077 195.867073 
L 100.001782 195.867073 
L 100.169478 195.867073 
L 100.491496 195.867073 
L 100.884696 195.867073 
L 101.049476 195.867073 
L 101.391895 195.867073 
L 101.67989 195.867073 
L 101.93599 195.867073 
L 102.054223 195.867073 
L 102.323526 195.867073 
L 102.622531 195.867073 
L 102.840585 195.867073 
L 103.125413 195.867073 
L 103.479728 195.867073 
L 103.51969 195.867073 
L 104.025385 195.867073 
L 104.059897 195.867073 
L 104.428281 195.867073 
L 104.779908 195.867073 
L 104.926775 195.867073 
L 105.30296 195.867073 
L 105.439421 195.867073 
L 105.739601 195.867073 
L 105.906283 195.867073 
L 106.238206 195.867073 
L 106.621461 195.867073 
L 106.713192 195.867073 
L 106.979515 195.867073 
L 107.161701 195.867073 
L 107.582339 195.867073 
L 107.757951 195.867073 
L 108.097498 195.867073 
L 108.254784 195.867073 
L 108.504032 195.867073 
L 108.711567 195.867073 
L 109.000777 195.867073 
L 109.317582 195.867073 
L 109.540603 195.867073 
L 109.929261 195.867073 
L 110.138836 195.867073 
L 110.345656 195.867073 
L 110.6128 195.867073 
L 110.969568 195.867073 
L 111.23015 195.867073 
L 111.43627 195.867073 
L 111.716588 195.867073 
L 111.840239 195.867073 
L 112.230283 195.867073 
L 112.389567 195.867073 
L 112.774436 195.867073 
L 113.105551 195.867073 
L 113.281316 195.867073 
L 113.619715 195.867073 
L 113.828998 195.867073 
L 114.104573 195.867073 
L 114.327837 195.867073 
L 114.545072 195.867073 
L 114.89874 195.867073 
L 115.055576 195.867073 
L 115.340827 195.867073 
L 115.602744 195.867073 
L 115.814873 195.867073 
L 116.088234 195.867073 
L 116.418402 195.867073 
L 116.509867 195.867073 
L 116.779778 195.867073 
L 117.073054 195.867073 
L 117.426621 195.867073 
L 117.702682 195.867073 
L 117.89069 195.867073 
L 118.321289 195.867073 
L 118.508288 195.867073 
L 118.625834 195.867073 
L 118.956129 195.867073 
L 119.304096 195.867073 
L 119.479991 195.867073 
L 119.6312 195.867073 
L 120.120054 195.867073 
L 120.384917 195.867073 
L 120.581566 195.867073 
L 120.817532 195.867073 
L 121.105315 195.867073 
L 121.43165 195.867073 
L 121.532485 195.867073 
L 121.843159 195.867073 
L 122.038305 195.867073 
L 122.427195 195.867073 
L 122.630739 195.867073 
L 122.749602 195.867073 
L 123.18482 195.867073 
L 123.36923 195.867073 
L 123.702689 195.867073 
L 123.972575 195.867073 
L 124.159717 195.867073 
L 124.435695 195.867073 
L 124.707738 195.867073 
L 124.861554 195.867073 
L 125.189674 195.867073 
L 125.432746 195.867073 
L 125.73821 195.867073 
L 125.861395 195.867073 
L 126.2926 195.867073 
L 126.51583 195.867073 
L 126.765888 195.867073 
L 126.99568 195.867073 
L 127.163533 195.867073 
L 127.466009 195.867073 
L 127.787779 195.867073 
L 128.040793 195.867073 
L 128.314037 195.867073 
L 128.504311 195.867073 
L 128.945815 195.867073 
L 128.997038 195.867073 
L 129.452548 195.867073 
L 129.741328 195.867073 
L 129.799453 195.867073 
L 130.110116 195.867073 
L 130.457333 195.867073 
L 130.726708 195.867073 
L 130.857844 195.867073 
L 131.124744 195.867073 
L 131.42794 195.867073 
L 131.827889 195.867073 
L 132.032465 195.867073 
L 132.217478 195.867073 
L 132.565505 195.867073 
L 132.627021 195.867073 
L 132.945449 195.867073 
L 133.169445 195.867073 
L 133.410737 195.867073 
L 133.857719 195.867073 
L 134.057074 195.867073 
L 134.186376 195.867073 
L 134.65567 195.867073 
L 134.903603 195.867073 
L 135.154815 195.867073 
L 135.28091 195.867073 
L 135.587638 195.867073 
L 135.910897 195.867073 
L 136.082938 195.867073 
L 136.270076 195.867073 
L 136.590623 195.867073 
L 136.828737 195.867073 
L 137.179903 195.867073 
L 137.335096 195.867073 
L 137.804193 195.867073 
L 137.841228 195.867073 
L 138.213332 195.867073 
L 138.586371 195.867073 
L 138.672307 195.867073 
L 139.060453 195.867073 
L 139.140412 195.867073 
L 139.568296 195.867073 
L 139.684358 195.867073 
L 140.039645 195.867073 
L 140.162466 195.867073 
L 140.463429 195.867073 
L 140.802767 195.867073 
L 141.051971 195.867073 
L 141.298112 195.867073 
L 141.584197 195.867073 
L 141.798908 195.867073 
L 141.993174 195.867073 
L 142.284011 195.867073 
L 142.753498 195.867073 
L 142.908171 195.867073 
L 143.167741 195.867073 
L 143.300797 195.867073 
L 143.728596 195.867073 
L 144.025746 195.867073 
L 144.101942 195.867073 
L 144.473261 195.867073 
L 144.763299 195.867073 
L 144.986905 195.867073 
L 145.293532 195.867073 
L 145.482842 195.867073 
L 145.482842 248.554946 
z
" style="fill:#cde0eb;opacity:0.5;"/>
   </g>
   <g id="patch_5">
    <path clip-path="url(#p67fd07d582)" d="M 145.482842 248.554946 
L 145.482842 130.007232 
L 145.697759 130.007232 
L 146.020057 130.007232 
L 146.220675 130.007232 
L 146.45604 130.007232 
L 146.859966 130.007232 
L 147.08375 130.007232 
L 147.309283 130.007232 
L 147.585017 130.007232 
L 147.776719 130.007232 
L 148.081012 130.007232 
L 148.295757 130.007232 
L 148.583737 130.007232 
L 148.873387 130.007232 
L 149.184001 130.007232 
L 149.385248 130.007232 
L 149.663872 130.007232 
L 149.931081 130.007232 
L 150.162154 130.007232 
L 150.374378 130.007232 
L 150.574309 130.007232 
L 150.851005 130.007232 
L 151.112331 130.007232 
L 151.364554 130.007232 
L 151.709122 130.007232 
L 151.94042 130.007232 
L 152.164649 130.007232 
L 152.558286 130.007232 
L 152.858255 130.007232 
L 153.039314 130.007232 
L 153.264043 130.007232 
L 153.458543 130.007232 
L 153.796279 130.007232 
L 153.978323 130.007232 
L 154.248402 130.007232 
L 154.480485 130.007232 
L 154.902266 130.007232 
L 155.006365 130.007232 
L 155.294889 130.007232 
L 155.506144 130.007232 
L 155.822453 130.007232 
L 156.199906 130.007232 
L 156.43204 130.007232 
L 156.595872 130.007232 
L 156.877385 130.007232 
L 157.164638 130.007232 
L 157.497601 130.007232 
L 157.734306 130.007232 
L 158.045973 130.007232 
L 158.257639 130.007232 
L 158.434148 130.007232 
L 158.697404 130.007232 
L 158.93772 130.007232 
L 159.320797 130.007232 
L 159.59765 130.007232 
L 159.818581 130.007232 
L 160.044652 130.007232 
L 160.359679 130.007232 
L 160.574635 130.007232 
L 160.730137 130.007232 
L 160.9659 130.007232 
L 161.413596 130.007232 
L 161.718773 130.007232 
L 161.764451 130.007232 
L 162.079228 130.007232 
L 162.480938 130.007232 
L 162.709793 130.007232 
L 162.843833 130.007232 
L 163.204009 130.007232 
L 163.543773 130.007232 
L 163.714344 130.007232 
L 163.860985 130.007232 
L 164.075203 130.007232 
L 164.381451 130.007232 
L 164.590805 130.007232 
L 165.034028 130.007232 
L 165.281377 130.007232 
L 165.409679 130.007232 
L 165.815824 130.007232 
L 166.079957 130.007232 
L 166.28416 130.007232 
L 166.658692 130.007232 
L 166.674591 130.007232 
L 167.092853 130.007232 
L 167.19251 130.007232 
L 167.548415 130.007232 
L 167.956721 130.007232 
L 168.191051 130.007232 
L 168.42169 130.007232 
L 168.619466 130.007232 
L 168.82244 130.007232 
L 169.041159 130.007232 
L 169.285764 130.007232 
L 169.694909 130.007232 
L 169.943248 130.007232 
L 170.267198 130.007232 
L 170.407957 130.007232 
L 170.764109 130.007232 
L 170.890047 130.007232 
L 171.285962 130.007232 
L 171.534255 130.007232 
L 171.72453 130.007232 
L 171.97286 130.007232 
L 172.369675 130.007232 
L 172.461706 130.007232 
L 172.820469 130.007232 
L 172.906171 130.007232 
L 173.207077 130.007232 
L 173.488766 130.007232 
L 173.765898 130.007232 
L 174.123012 130.007232 
L 174.442619 130.007232 
L 174.644599 130.007232 
L 174.833318 130.007232 
L 175.053427 130.007232 
L 175.375599 130.007232 
L 175.695839 130.007232 
L 175.842648 130.007232 
L 176.150512 130.007232 
L 176.320171 130.007232 
L 176.601329 130.007232 
L 176.899597 130.007232 
L 177.125084 130.007232 
L 177.45502 130.007232 
L 177.733672 130.007232 
L 177.954951 130.007232 
L 178.156447 130.007232 
L 178.441018 130.007232 
L 178.713891 130.007232 
L 178.966975 130.007232 
L 179.148119 130.007232 
L 179.413748 130.007232 
L 179.909919 130.007232 
L 180.161816 130.007232 
L 180.286057 130.007232 
L 180.49183 130.007232 
L 180.834425 130.007232 
L 180.997512 130.007232 
L 181.414422 130.007232 
L 181.525586 130.007232 
L 181.862337 130.007232 
L 182.134668 130.007232 
L 182.504154 130.007232 
L 182.622911 130.007232 
L 182.92618 130.007232 
L 183.279516 130.007232 
L 183.545941 130.007232 
L 183.801113 130.007232 
L 183.834301 130.007232 
L 184.212007 130.007232 
L 184.556369 130.007232 
L 184.699693 130.007232 
L 185.110732 130.007232 
L 185.376672 130.007232 
L 185.626777 130.007232 
L 185.702468 130.007232 
L 186.033788 130.007232 
L 186.16859 130.007232 
L 186.61703 130.007232 
L 186.796696 130.007232 
L 187.083281 130.007232 
L 187.313142 130.007232 
L 187.634659 130.007232 
L 187.824049 130.007232 
L 188.13621 130.007232 
L 188.293353 130.007232 
L 188.541961 130.007232 
L 188.845263 130.007232 
L 189.214286 130.007232 
L 189.509571 130.007232 
L 189.539328 130.007232 
L 189.869589 130.007232 
L 190.195072 130.007232 
L 190.36562 130.007232 
L 190.711718 130.007232 
L 190.890175 130.007232 
L 191.268762 130.007232 
L 191.427945 130.007232 
L 191.694344 130.007232 
L 192.017058 130.007232 
L 192.150544 130.007232 
L 192.57008 130.007232 
L 192.712248 130.007232 
L 192.91758 130.007232 
L 193.399988 130.007232 
L 193.634968 130.007232 
L 193.75228 130.007232 
L 194.068625 130.007232 
L 194.444612 130.007232 
L 194.588711 130.007232 
L 194.841407 130.007232 
L 195.059659 130.007232 
L 195.488842 130.007232 
L 195.67466 130.007232 
L 195.917454 130.007232 
L 196.28091 130.007232 
L 196.373294 130.007232 
L 196.646456 130.007232 
L 197.066091 130.007232 
L 197.204263 130.007232 
L 197.204263 248.554946 
z
" style="fill:#cde0eb;opacity:0.5;"/>
   </g>
   <g id="patch_6">
    <path clip-path="url(#p67fd07d582)" d="M 197.204263 248.554946 
L 197.204263 37.803454 
L 197.542731 37.803454 
L 197.802849 37.803454 
L 198.065922 37.803454 
L 198.354288 37.803454 
L 198.509385 37.803454 
L 198.819527 37.803454 
L 198.94386 37.803454 
L 199.234785 37.803454 
L 199.618512 37.803454 
L 199.861497 37.803454 
L 200.06567 37.803454 
L 200.267042 37.803454 
L 200.519164 37.803454 
L 200.77991 37.803454 
L 201.182692 37.803454 
L 201.286699 37.803454 
L 201.6791 37.803454 
L 202.011246 37.803454 
L 202.045962 37.803454 
L 202.385964 37.803454 
L 202.634626 37.803454 
L 202.911027 37.803454 
L 203.067373 37.803454 
L 203.40069 37.803454 
L 203.734788 37.803454 
L 204.064286 37.803454 
L 204.104433 37.803454 
L 204.466247 37.803454 
L 204.65296 37.803454 
L 205.058093 37.803454 
L 205.17212 37.803454 
L 205.548014 37.803454 
L 205.812113 37.803454 
L 206.138469 37.803454 
L 206.397893 37.803454 
L 206.666723 37.803454 
L 206.761472 37.803454 
L 207.144335 37.803454 
L 207.341943 37.803454 
L 207.652675 37.803454 
L 207.847031 37.803454 
L 208.157741 37.803454 
L 208.360806 37.803454 
L 208.665661 37.803454 
L 208.783985 37.803454 
L 209.085911 37.803454 
L 209.509921 37.803454 
L 209.587053 37.803454 
L 209.839654 37.803454 
L 210.212934 37.803454 
L 210.476439 37.803454 
L 210.659915 37.803454 
L 210.950622 37.803454 
L 211.319873 37.803454 
L 211.59941 37.803454 
L 211.775486 37.803454 
L 211.921272 37.803454 
L 212.379478 37.803454 
L 212.465202 37.803454 
L 212.70628 37.803454 
L 212.96519 37.803454 
L 213.206907 37.803454 
L 213.559068 37.803454 
L 213.843879 37.803454 
L 214.050437 37.803454 
L 214.338369 37.803454 
L 214.67475 37.803454 
L 214.883661 37.803454 
L 215.108266 37.803454 
L 215.363577 37.803454 
L 215.671851 37.803454 
L 215.839295 37.803454 
L 216.07415 37.803454 
L 216.40866 37.803454 
L 216.597485 37.803454 
L 216.950785 37.803454 
L 217.179848 37.803454 
L 217.551655 37.803454 
L 217.676897 37.803454 
L 218.121561 37.803454 
L 218.167612 37.803454 
L 218.633176 37.803454 
L 218.859278 37.803454 
L 218.916801 37.803454 
L 219.193128 37.803454 
L 219.486517 37.803454 
L 219.863232 37.803454 
L 220.178871 37.803454 
L 220.282854 37.803454 
L 220.603757 37.803454 
L 220.906426 37.803454 
L 220.99208 37.803454 
L 221.458157 37.803454 
L 221.641039 37.803454 
L 221.986796 37.803454 
L 222.092943 37.803454 
L 222.371056 37.803454 
L 222.689258 37.803454 
L 222.807685 37.803454 
L 223.143285 37.803454 
L 223.416654 37.803454 
L 223.69312 37.803454 
L 224.047249 37.803454 
L 224.301999 37.803454 
L 224.473977 37.803454 
L 224.635365 37.803454 
L 224.893037 37.803454 
L 225.162742 37.803454 
L 225.457826 37.803454 
L 225.696879 37.803454 
L 226.160408 37.803454 
L 226.222846 37.803454 
L 226.618942 37.803454 
L 226.829345 37.803454 
L 227.127446 37.803454 
L 227.33757 37.803454 
L 227.595298 37.803454 
L 227.81606 37.803454 
L 228.142365 37.803454 
L 228.382173 37.803454 
L 228.598842 37.803454 
L 228.90435 37.803454 
L 229.095605 37.803454 
L 229.394098 37.803454 
L 229.671471 37.803454 
L 229.924073 37.803454 
L 230.211588 37.803454 
L 230.424072 37.803454 
L 230.602693 37.803454 
L 230.95842 37.803454 
L 231.353228 37.803454 
L 231.557691 37.803454 
L 231.785912 37.803454 
L 232.069702 37.803454 
L 232.256133 37.803454 
L 232.542464 37.803454 
L 232.904375 37.803454 
L 233.122897 37.803454 
L 233.223542 37.803454 
L 233.681817 37.803454 
L 233.924743 37.803454 
L 234.171591 37.803454 
L 234.484575 37.803454 
L 234.571862 37.803454 
L 234.958102 37.803454 
L 235.089385 37.803454 
L 235.439052 37.803454 
L 235.704456 37.803454 
L 236.037859 37.803454 
L 236.237406 37.803454 
L 236.494473 37.803454 
L 236.771342 37.803454 
L 237.092585 37.803454 
L 237.168967 37.803454 
L 237.468393 37.803454 
L 237.648033 37.803454 
L 237.966284 37.803454 
L 238.210185 37.803454 
L 238.523218 37.803454 
L 238.662523 37.803454 
L 238.921209 37.803454 
L 239.201763 37.803454 
L 239.638669 37.803454 
L 239.944879 37.803454 
L 240.014816 37.803454 
L 240.317338 37.803454 
L 240.643448 37.803454 
L 240.976277 37.803454 
L 241.201615 37.803454 
L 241.473315 37.803454 
L 241.682023 37.803454 
L 241.797481 37.803454 
L 242.048686 37.803454 
L 242.359616 37.803454 
L 242.57981 37.803454 
L 242.83781 37.803454 
L 243.109946 37.803454 
L 243.53268 37.803454 
L 243.600539 37.803454 
L 244.107952 37.803454 
L 244.339067 37.803454 
L 244.584509 37.803454 
L 244.815135 37.803454 
L 244.96381 37.803454 
L 245.23706 37.803454 
L 245.488525 37.803454 
L 245.822458 37.803454 
L 245.937325 37.803454 
L 246.321372 37.803454 
L 246.499327 37.803454 
L 246.869888 37.803454 
L 247.214657 37.803454 
L 247.30127 37.803454 
L 247.608305 37.803454 
L 247.987154 37.803454 
L 248.110737 37.803454 
L 248.473863 37.803454 
L 248.666431 37.803454 
L 248.925683 37.803454 
L 248.925683 248.554946 
z
" style="fill:#cde0eb;opacity:0.5;"/>
   </g>
   <g id="matplotlib.axis_1">
    <g id="xtick_1">
     <g id="line2d_1">
      <defs>
       <path d="M 0 0 
L 0 3.5 
" id="m12b451bef1" style="stroke:#000000;stroke-width:0.8;"/>
      </defs>
      <g>
       <use style="stroke:#000000;stroke-width:0.8;" x="93.761421" xlink:href="#m12b451bef1" y="248.554946"/>
      </g>
     </g>
     <g id="text_1">
      <!-- $x_1^{\ast}$ -->
      <defs>
       <path d="M 7.8125 2.875 
Q 9.578125 1.515625 12.796875 1.515625 
Q 15.921875 1.515625 18.3125 4.515625 
Q 20.703125 7.515625 21.578125 11.078125 
L 26.125 28.8125 
Q 27.203125 33.640625 27.203125 35.40625 
Q 27.203125 37.890625 25.8125 39.75 
Q 24.421875 41.609375 21.921875 41.609375 
Q 18.75 41.609375 15.96875 39.625 
Q 13.1875 37.640625 11.28125 34.59375 
Q 9.375 31.546875 8.59375 28.421875 
Q 8.40625 27.78125 7.8125 27.78125 
L 6.59375 27.78125 
Q 5.8125 27.78125 5.8125 28.71875 
L 5.8125 29 
Q 6.78125 32.71875 9.125 36.25 
Q 11.46875 39.796875 14.859375 41.984375 
Q 18.265625 44.1875 22.125 44.1875 
Q 25.78125 44.1875 28.734375 42.234375 
Q 31.6875 40.28125 32.90625 36.921875 
Q 34.625 39.984375 37.28125 42.078125 
Q 39.9375 44.1875 43.109375 44.1875 
Q 45.265625 44.1875 47.5 43.421875 
Q 49.75 42.671875 51.171875 41.109375 
Q 52.59375 39.546875 52.59375 37.203125 
Q 52.59375 34.671875 50.953125 32.828125 
Q 49.3125 31 46.78125 31 
Q 45.171875 31 44.09375 32.03125 
Q 43.015625 33.0625 43.015625 34.625 
Q 43.015625 36.71875 44.453125 38.296875 
Q 45.90625 39.890625 47.90625 40.1875 
Q 46.09375 41.609375 42.921875 41.609375 
Q 39.703125 41.609375 37.328125 38.625 
Q 34.96875 35.640625 33.984375 31.984375 
L 29.59375 14.3125 
Q 28.515625 10.296875 28.515625 7.71875 
Q 28.515625 5.171875 29.953125 3.34375 
Q 31.390625 1.515625 33.796875 1.515625 
Q 38.484375 1.515625 42.15625 5.640625 
Q 45.84375 9.765625 47.015625 14.703125 
Q 47.21875 15.28125 47.796875 15.28125 
L 49.03125 15.28125 
Q 49.421875 15.28125 49.65625 15.015625 
Q 49.90625 14.75 49.90625 14.40625 
Q 49.90625 14.3125 49.8125 14.109375 
Q 48.390625 8.15625 43.84375 3.515625 
Q 39.3125 -1.125 33.59375 -1.125 
Q 29.9375 -1.125 26.984375 0.84375 
Q 24.03125 2.828125 22.796875 6.203125 
Q 21.234375 3.265625 18.46875 1.0625 
Q 15.71875 -1.125 12.59375 -1.125 
Q 10.453125 -1.125 8.171875 -0.359375 
Q 5.90625 0.390625 4.484375 1.953125 
Q 3.078125 3.515625 3.078125 5.90625 
Q 3.078125 8.25 4.703125 10.171875 
Q 6.34375 12.109375 8.796875 12.109375 
Q 10.453125 12.109375 11.578125 11.109375 
Q 12.703125 10.109375 12.703125 8.5 
Q 12.703125 6.390625 11.296875 4.828125 
Q 9.90625 3.265625 7.8125 2.875 
z
" id="Cmmi10-120"/>
       <path d="M 9.421875 12.703125 
Q 8.296875 12.703125 7.390625 13.640625 
Q 6.5 14.59375 6.5 15.71875 
Q 6.5 17.4375 7.90625 18.109375 
L 22.3125 25 
L 7.90625 31.78125 
Q 6.5 32.375 6.5 34.1875 
Q 6.5 35.296875 7.390625 36.25 
Q 8.296875 37.203125 9.421875 37.203125 
Q 10.15625 37.203125 10.796875 36.71875 
L 23.578125 27.390625 
L 22.125 43.703125 
Q 22.125 44.921875 22.953125 45.703125 
Q 23.78125 46.484375 25 46.484375 
Q 26.171875 46.484375 26.96875 45.75 
Q 27.78125 45.015625 27.78125 43.890625 
L 27.78125 43.703125 
L 26.3125 27.390625 
L 39.109375 36.71875 
Q 39.75 37.203125 40.484375 37.203125 
Q 41.703125 37.203125 42.546875 36.25 
Q 43.40625 35.296875 43.40625 34.1875 
Q 43.40625 32.375 42 31.78125 
L 27.59375 25 
L 42 18.109375 
Q 43.40625 17.4375 43.40625 15.71875 
Q 43.40625 14.59375 42.546875 13.640625 
Q 41.703125 12.703125 40.484375 12.703125 
Q 39.75 12.703125 39.109375 13.1875 
L 26.3125 22.515625 
L 27.78125 6.296875 
L 27.78125 6 
Q 27.78125 4.890625 26.921875 4.15625 
Q 26.078125 3.421875 25 3.421875 
Q 23.828125 3.421875 22.96875 4.21875 
Q 22.125 5.03125 22.125 6.203125 
L 23.578125 22.515625 
L 10.796875 13.1875 
Q 10.15625 12.703125 9.421875 12.703125 
z
" id="Cmsy10-164"/>
       <path d="M 9.28125 0 
L 9.28125 3.515625 
Q 21.78125 3.515625 21.78125 6.6875 
L 21.78125 59.1875 
Q 16.609375 56.6875 8.6875 56.6875 
L 8.6875 60.203125 
Q 20.953125 60.203125 27.203125 66.609375 
L 28.609375 66.609375 
Q 28.953125 66.609375 29.265625 66.328125 
Q 29.59375 66.0625 29.59375 65.71875 
L 29.59375 6.6875 
Q 29.59375 3.515625 42.09375 3.515625 
L 42.09375 0 
z
" id="Cmr10-49"/>
      </defs>
      <g transform="translate(87.461421 264.074946)scale(0.12 -0.12)">
       <use transform="translate(0 0.196875)" xlink:href="#Cmmi10-120"/>
       <use transform="translate(63.383359 38.460938)scale(0.7)" xlink:href="#Cmsy10-164"/>
       <use transform="translate(57.080078 -25.3125)scale(0.7)" xlink:href="#Cmr10-49"/>
      </g>
     </g>
    </g>
    <g id="xtick_2">
     <g id="line2d_2">
      <g>
       <use style="stroke:#000000;stroke-width:0.8;" x="145.482842" xlink:href="#m12b451bef1" y="248.554946"/>
      </g>
     </g>
     <g id="text_2">
      <!-- $x_2^{\ast}$ -->
      <defs>
       <path d="M 4.984375 0 
L 4.984375 2.6875 
Q 4.984375 2.9375 5.171875 3.21875 
L 20.703125 20.40625 
Q 24.21875 24.21875 26.40625 26.796875 
Q 28.609375 29.390625 30.75 32.765625 
Q 32.90625 36.140625 34.15625 39.625 
Q 35.40625 43.109375 35.40625 47.015625 
Q 35.40625 51.125 33.890625 54.859375 
Q 32.375 58.59375 29.375 60.84375 
Q 26.375 63.09375 22.125 63.09375 
Q 17.78125 63.09375 14.3125 60.46875 
Q 10.84375 57.859375 9.421875 53.71875 
Q 9.8125 53.8125 10.5 53.8125 
Q 12.75 53.8125 14.328125 52.296875 
Q 15.921875 50.78125 15.921875 48.390625 
Q 15.921875 46.09375 14.328125 44.5 
Q 12.75 42.921875 10.5 42.921875 
Q 8.15625 42.921875 6.5625 44.546875 
Q 4.984375 46.1875 4.984375 48.390625 
Q 4.984375 52.15625 6.390625 55.4375 
Q 7.8125 58.734375 10.46875 61.296875 
Q 13.140625 63.875 16.484375 65.234375 
Q 19.828125 66.609375 23.578125 66.609375 
Q 29.296875 66.609375 34.21875 64.1875 
Q 39.15625 61.765625 42.03125 57.34375 
Q 44.921875 52.9375 44.921875 47.015625 
Q 44.921875 42.671875 43.015625 38.765625 
Q 41.109375 34.859375 38.125 31.65625 
Q 35.15625 28.46875 30.515625 24.40625 
Q 25.875 20.359375 24.421875 19 
L 13.09375 8.109375 
L 22.703125 8.109375 
Q 29.78125 8.109375 34.546875 8.21875 
Q 39.3125 8.34375 39.59375 8.59375 
Q 40.765625 9.859375 42 17.828125 
L 44.921875 17.828125 
L 42.09375 0 
z
" id="Cmr10-50"/>
      </defs>
      <g transform="translate(139.182842 264.074946)scale(0.12 -0.12)">
       <use transform="translate(0 0.196875)" xlink:href="#Cmmi10-120"/>
       <use transform="translate(63.383359 38.460938)scale(0.7)" xlink:href="#Cmsy10-164"/>
       <use transform="translate(57.080078 -25.3125)scale(0.7)" xlink:href="#Cmr10-50"/>
      </g>
     </g>
    </g>
    <g id="xtick_3">
     <g id="line2d_3">
      <g>
       <use style="stroke:#000000;stroke-width:0.8;" x="197.204263" xlink:href="#m12b451bef1" y="248.554946"/>
      </g>
     </g>
     <g id="text_3">
      <!-- $x_3^{\ast}$ -->
      <defs>
       <path d="M 9.515625 7.71875 
Q 11.859375 4.296875 15.8125 2.640625 
Q 19.78125 0.984375 24.3125 0.984375 
Q 30.125 0.984375 32.5625 5.9375 
Q 35.015625 10.890625 35.015625 17.1875 
Q 35.015625 20.015625 34.5 22.84375 
Q 33.984375 25.6875 32.765625 28.125 
Q 31.546875 30.5625 29.421875 32.03125 
Q 27.296875 33.5 24.21875 33.5 
L 17.578125 33.5 
Q 16.703125 33.5 16.703125 34.421875 
L 16.703125 35.296875 
Q 16.703125 36.078125 17.578125 36.078125 
L 23.09375 36.53125 
Q 26.609375 36.53125 28.921875 39.15625 
Q 31.25 41.796875 32.328125 45.578125 
Q 33.40625 49.359375 33.40625 52.78125 
Q 33.40625 57.5625 31.15625 60.640625 
Q 28.90625 63.71875 24.3125 63.71875 
Q 20.515625 63.71875 17.046875 62.28125 
Q 13.578125 60.84375 11.53125 57.90625 
Q 11.71875 57.953125 11.859375 57.984375 
Q 12.015625 58.015625 12.203125 58.015625 
Q 14.453125 58.015625 15.96875 56.453125 
Q 17.484375 54.890625 17.484375 52.6875 
Q 17.484375 50.53125 15.96875 48.96875 
Q 14.453125 47.40625 12.203125 47.40625 
Q 10.015625 47.40625 8.453125 48.96875 
Q 6.890625 50.53125 6.890625 52.6875 
Q 6.890625 56.984375 9.46875 60.15625 
Q 12.0625 63.328125 16.140625 64.96875 
Q 20.21875 66.609375 24.3125 66.609375 
Q 27.34375 66.609375 30.703125 65.703125 
Q 34.078125 64.796875 36.8125 63.109375 
Q 39.546875 61.421875 41.28125 58.78125 
Q 43.015625 56.15625 43.015625 52.78125 
Q 43.015625 48.578125 41.140625 45.015625 
Q 39.265625 41.453125 35.984375 38.859375 
Q 32.71875 36.28125 28.8125 35.015625 
Q 33.15625 34.1875 37.0625 31.734375 
Q 40.96875 29.296875 43.328125 25.484375 
Q 45.703125 21.6875 45.703125 17.28125 
Q 45.703125 11.765625 42.671875 7.296875 
Q 39.65625 2.828125 34.71875 0.3125 
Q 29.78125 -2.203125 24.3125 -2.203125 
Q 19.625 -2.203125 14.90625 -0.40625 
Q 10.203125 1.375 7.203125 4.9375 
Q 4.203125 8.5 4.203125 13.484375 
Q 4.203125 15.96875 5.859375 17.625 
Q 7.515625 19.28125 10.015625 19.28125 
Q 11.625 19.28125 12.96875 18.53125 
Q 14.3125 17.78125 15.0625 16.40625 
Q 15.828125 15.046875 15.828125 13.484375 
Q 15.828125 11.03125 14.109375 9.375 
Q 12.40625 7.71875 10.015625 7.71875 
z
" id="Cmr10-51"/>
      </defs>
      <g transform="translate(190.904263 264.074946)scale(0.12 -0.12)">
       <use transform="translate(0 0.196875)" xlink:href="#Cmmi10-120"/>
       <use transform="translate(63.383359 38.460938)scale(0.7)" xlink:href="#Cmsy10-164"/>
       <use transform="translate(57.080078 -25.3125)scale(0.7)" xlink:href="#Cmr10-51"/>
      </g>
     </g>
    </g>
    <g id="xtick_4">
     <g id="line2d_4">
      <g>
       <use style="stroke:#000000;stroke-width:0.8;" x="248.925683" xlink:href="#m12b451bef1" y="248.554946"/>
      </g>
     </g>
     <g id="text_4">
      <!-- $x_4^{\ast}$ -->
      <defs>
       <path d="M 2.78125 16.5 
L 2.78125 20.015625 
L 33.6875 66.109375 
Q 34.03125 66.609375 34.71875 66.609375 
L 36.1875 66.609375 
Q 37.3125 66.609375 37.3125 65.484375 
L 37.3125 20.015625 
L 47.125 20.015625 
L 47.125 16.5 
L 37.3125 16.5 
L 37.3125 6.6875 
Q 37.3125 4.640625 40.234375 4.078125 
Q 43.171875 3.515625 47.015625 3.515625 
L 47.015625 0 
L 19.484375 0 
L 19.484375 3.515625 
Q 23.34375 3.515625 26.265625 4.078125 
Q 29.203125 4.640625 29.203125 6.6875 
L 29.203125 16.5 
z
M 6.109375 20.015625 
L 29.78125 20.015625 
L 29.78125 55.421875 
z
" id="Cmr10-52"/>
      </defs>
      <g transform="translate(242.625683 264.074946)scale(0.12 -0.12)">
       <use transform="translate(0 0.196875)" xlink:href="#Cmmi10-120"/>
       <use transform="translate(63.383359 38.460938)scale(0.7)" xlink:href="#Cmsy10-164"/>
       <use transform="translate(57.080078 -25.3125)scale(0.7)" xlink:href="#Cmr10-52"/>
      </g>
     </g>
    </g>
    <g id="xtick_5">
     <g id="line2d_5">
      <g>
       <use style="stroke:#000000;stroke-width:0.8;" x="248.925683" xlink:href="#m12b451bef1" y="248.554946"/>
      </g>
     </g>
     <g id="text_5">
      <!-- $x_5^{\ast}$ -->
      <defs>
       <path d="M 8.6875 11.375 
Q 9.71875 8.453125 11.84375 6.046875 
Q 13.96875 3.65625 16.875 2.3125 
Q 19.78125 0.984375 22.90625 0.984375 
Q 30.125 0.984375 32.859375 6.59375 
Q 35.59375 12.203125 35.59375 20.21875 
Q 35.59375 23.6875 35.46875 26.046875 
Q 35.359375 28.421875 34.8125 30.609375 
Q 33.890625 34.125 31.5625 36.765625 
Q 29.25 39.40625 25.875 39.40625 
Q 22.515625 39.40625 20.09375 38.375 
Q 17.671875 37.359375 16.15625 35.984375 
Q 14.65625 34.625 13.484375 33.109375 
Q 12.3125 31.59375 12.015625 31.5 
L 10.890625 31.5 
Q 10.640625 31.5 10.265625 31.8125 
Q 9.90625 32.125 9.90625 32.421875 
L 9.90625 65.828125 
Q 9.90625 66.0625 10.21875 66.328125 
Q 10.546875 66.609375 10.890625 66.609375 
L 11.1875 66.609375 
Q 17.921875 63.375 25.484375 63.375 
Q 32.90625 63.375 39.796875 66.609375 
L 40.09375 66.609375 
Q 40.4375 66.609375 40.71875 66.359375 
Q 41.015625 66.109375 41.015625 65.828125 
L 41.015625 64.890625 
Q 41.015625 64.40625 40.828125 64.40625 
Q 37.40625 59.859375 32.25 57.3125 
Q 27.09375 54.78125 21.578125 54.78125 
Q 17.578125 54.78125 13.375 55.90625 
L 13.375 37.015625 
Q 16.703125 39.703125 19.3125 40.84375 
Q 21.921875 42 25.984375 42 
Q 31.5 42 35.859375 38.8125 
Q 40.234375 35.640625 42.578125 30.53125 
Q 44.921875 25.4375 44.921875 20.125 
Q 44.921875 14.109375 41.96875 8.984375 
Q 39.015625 3.859375 33.9375 0.828125 
Q 28.859375 -2.203125 22.90625 -2.203125 
Q 17.96875 -2.203125 13.84375 0.328125 
Q 9.71875 2.875 7.34375 7.171875 
Q 4.984375 11.46875 4.984375 16.3125 
Q 4.984375 18.5625 6.4375 19.96875 
Q 7.90625 21.390625 10.109375 21.390625 
Q 12.3125 21.390625 13.796875 19.9375 
Q 15.28125 18.5 15.28125 16.3125 
Q 15.28125 14.15625 13.796875 12.671875 
Q 12.3125 11.1875 10.109375 11.1875 
Q 9.765625 11.1875 9.328125 11.25 
Q 8.890625 11.328125 8.6875 11.375 
z
" id="Cmr10-53"/>
      </defs>
      <g transform="translate(242.625683 264.074946)scale(0.12 -0.12)">
       <use transform="translate(0 0.196875)" xlink:href="#Cmmi10-120"/>
       <use transform="translate(63.383359 38.460938)scale(0.7)" xlink:href="#Cmsy10-164"/>
       <use transform="translate(57.080078 -25.3125)scale(0.7)" xlink:href="#Cmr10-53"/>
      </g>
     </g>
    </g>
    <g id="text_6">
     <!-- $x$ -->
     <g transform="translate(261.063397 248.554946)scale(0.19 -0.19)">
      <use transform="translate(0 0.8125)" xlink:href="#Cmmi10-120"/>
     </g>
    </g>
   </g>
   <g id="matplotlib.axis_2">
    <g id="ytick_1">
     <g id="line2d_6">
      <defs>
       <path d="M 0 0 
L -3.5 0 
" id="mbea0918449" style="stroke:#000000;stroke-width:0.8;"/>
      </defs>
      <g>
       <use style="stroke:#000000;stroke-width:0.8;" x="42.04" xlink:href="#mbea0918449" y="235.382978"/>
      </g>
     </g>
     <g id="text_7">
      <!-- $f(x_1^{\ast})$ -->
      <defs>
       <path d="M 9.71875 -16.5 
Q 11.578125 -17.921875 14.203125 -17.921875 
Q 17.78125 -17.921875 20.015625 -10.015625 
Q 20.953125 -6.203125 25.09375 15.09375 
L 29.6875 39.59375 
L 21.09375 39.59375 
Q 20.125 39.59375 20.125 40.921875 
Q 20.515625 43.109375 21.390625 43.109375 
L 30.328125 43.109375 
L 31.5 49.609375 
Q 32.078125 52.640625 32.5625 54.8125 
Q 33.0625 56.984375 33.625 58.828125 
Q 34.1875 60.6875 35.296875 62.984375 
Q 37.015625 66.265625 39.921875 68.390625 
Q 42.828125 70.515625 46.1875 70.515625 
Q 48.390625 70.515625 50.46875 69.703125 
Q 52.546875 68.890625 53.859375 67.28125 
Q 55.171875 65.671875 55.171875 63.484375 
Q 55.171875 60.9375 53.484375 59.046875 
Q 51.8125 57.171875 49.421875 57.171875 
Q 47.796875 57.171875 46.65625 58.171875 
Q 45.515625 59.1875 45.515625 60.796875 
Q 45.515625 62.984375 47 64.625 
Q 48.484375 66.265625 50.6875 66.5 
Q 48.828125 67.921875 46.09375 67.921875 
Q 44.578125 67.921875 43.234375 66.5 
Q 41.890625 65.09375 41.5 63.484375 
Q 40.875 60.9375 38.71875 49.703125 
L 37.5 43.109375 
L 47.796875 43.109375 
Q 48.78125 43.109375 48.78125 41.796875 
Q 48.734375 41.546875 48.578125 40.9375 
Q 48.4375 40.328125 48.171875 39.953125 
Q 47.90625 39.59375 47.515625 39.59375 
L 36.8125 39.59375 
L 32.171875 15.1875 
Q 31.296875 9.859375 30.140625 4.359375 
Q 29 -1.125 26.921875 -6.90625 
Q 24.859375 -12.703125 21.625 -16.609375 
Q 18.40625 -20.515625 14.015625 -20.515625 
Q 10.640625 -20.515625 7.984375 -18.578125 
Q 5.328125 -16.65625 5.328125 -13.484375 
Q 5.328125 -10.9375 6.953125 -9.046875 
Q 8.59375 -7.171875 11.078125 -7.171875 
Q 12.75 -7.171875 13.859375 -8.171875 
Q 14.984375 -9.1875 14.984375 -10.796875 
Q 14.984375 -12.9375 13.390625 -14.71875 
Q 11.8125 -16.5 9.71875 -16.5 
z
" id="Cmmi10-102"/>
       <path d="M 31 -24.8125 
Q 25.4375 -20.40625 21.40625 -14.71875 
Q 17.390625 -9.03125 14.8125 -2.578125 
Q 12.25 3.859375 10.984375 10.890625 
Q 9.71875 17.921875 9.71875 25 
Q 9.71875 32.171875 10.984375 39.203125 
Q 12.25 46.234375 14.859375 52.734375 
Q 17.484375 59.234375 21.53125 64.890625 
Q 25.59375 70.5625 31 74.8125 
Q 31 75 31.5 75 
L 32.421875 75 
Q 32.71875 75 32.953125 74.734375 
Q 33.203125 74.46875 33.203125 74.125 
Q 33.203125 73.6875 33.015625 73.484375 
Q 28.125 68.703125 24.875 63.234375 
Q 21.625 57.765625 19.640625 51.578125 
Q 17.671875 45.40625 16.796875 38.78125 
Q 15.921875 32.171875 15.921875 25 
Q 15.921875 -6.78125 32.90625 -23.296875 
Q 33.203125 -23.578125 33.203125 -24.125 
Q 33.203125 -24.359375 32.9375 -24.671875 
Q 32.671875 -25 32.421875 -25 
L 31.5 -25 
Q 31 -25 31 -24.8125 
z
" id="Cmr10-40"/>
       <path d="M 6.5 -25 
Q 5.609375 -25 5.609375 -24.125 
Q 5.609375 -23.6875 5.8125 -23.484375 
Q 22.90625 -6.78125 22.90625 25 
Q 22.90625 56.78125 6 73.296875 
Q 5.609375 73.53125 5.609375 74.125 
Q 5.609375 74.46875 5.875 74.734375 
Q 6.15625 75 6.5 75 
L 7.421875 75 
Q 7.71875 75 7.90625 74.8125 
Q 15.09375 69.140625 19.875 61.03125 
Q 24.65625 52.9375 26.875 43.75 
Q 29.109375 34.578125 29.109375 25 
Q 29.109375 17.921875 27.90625 11.0625 
Q 26.703125 4.203125 24.09375 -2.453125 
Q 21.484375 -9.125 17.484375 -14.765625 
Q 13.484375 -20.40625 7.90625 -24.8125 
Q 7.71875 -25 7.421875 -25 
z
" id="Cmr10-41"/>
      </defs>
      <g transform="translate(7.2 239.882978)scale(0.12 -0.12)">
       <use xlink:href="#Cmmi10-102"/>
       <use transform="translate(48.876953 0)" xlink:href="#Cmr10-40"/>
       <use transform="translate(87.695312 0)" xlink:href="#Cmmi10-120"/>
       <use transform="translate(151.078672 38.264062)scale(0.7)" xlink:href="#Cmsy10-164"/>
       <use transform="translate(144.775391 -25.509375)scale(0.7)" xlink:href="#Cmr10-49"/>
       <use transform="translate(192.456016 0)" xlink:href="#Cmr10-41"/>
      </g>
     </g>
    </g>
    <g id="ytick_2">
     <g id="line2d_7">
      <g>
       <use style="stroke:#000000;stroke-width:0.8;" x="42.04" xlink:href="#mbea0918449" y="195.867073"/>
      </g>
     </g>
     <g id="text_8">
      <!-- $f(x_2^{\ast})$ -->
      <g transform="translate(7.2 200.367073)scale(0.12 -0.12)">
       <use xlink:href="#Cmmi10-102"/>
       <use transform="translate(48.876953 0)" xlink:href="#Cmr10-40"/>
       <use transform="translate(87.695312 0)" xlink:href="#Cmmi10-120"/>
       <use transform="translate(151.078672 38.264062)scale(0.7)" xlink:href="#Cmsy10-164"/>
       <use transform="translate(144.775391 -25.509375)scale(0.7)" xlink:href="#Cmr10-50"/>
       <use transform="translate(192.456016 0)" xlink:href="#Cmr10-41"/>
      </g>
     </g>
    </g>
    <g id="ytick_3">
     <g id="line2d_8">
      <g>
       <use style="stroke:#000000;stroke-width:0.8;" x="42.04" xlink:href="#mbea0918449" y="130.007232"/>
      </g>
     </g>
     <g id="text_9">
      <!-- $f(x_3^{\ast})$ -->
      <g transform="translate(7.2 134.507232)scale(0.12 -0.12)">
       <use xlink:href="#Cmmi10-102"/>
       <use transform="translate(48.876953 0)" xlink:href="#Cmr10-40"/>
       <use transform="translate(87.695312 0)" xlink:href="#Cmmi10-120"/>
       <use transform="translate(151.078672 38.264062)scale(0.7)" xlink:href="#Cmsy10-164"/>
       <use transform="translate(144.775391 -25.509375)scale(0.7)" xlink:href="#Cmr10-51"/>
       <use transform="translate(192.456016 0)" xlink:href="#Cmr10-41"/>
      </g>
     </g>
    </g>
    <g id="ytick_4">
     <g id="line2d_9">
      <g>
       <use style="stroke:#000000;stroke-width:0.8;" x="42.04" xlink:href="#mbea0918449" y="37.803454"/>
      </g>
     </g>
     <g id="text_10">
      <!-- $f(x_4^{\ast})$ -->
      <g transform="translate(7.2 42.303454)scale(0.12 -0.12)">
       <use xlink:href="#Cmmi10-102"/>
       <use transform="translate(48.876953 0)" xlink:href="#Cmr10-40"/>
       <use transform="translate(87.695312 0)" xlink:href="#Cmmi10-120"/>
       <use transform="translate(151.078672 38.264062)scale(0.7)" xlink:href="#Cmsy10-164"/>
       <use transform="translate(144.775391 -25.509375)scale(0.7)" xlink:href="#Cmr10-52"/>
       <use transform="translate(192.456016 0)" xlink:href="#Cmr10-41"/>
      </g>
     </g>
    </g>
    <g id="ytick_5">
     <g id="line2d_10">
      <g>
       <use style="stroke:#000000;stroke-width:0.8;" x="42.04" xlink:href="#mbea0918449" y="37.803454"/>
      </g>
     </g>
     <g id="text_11">
      <!-- $f(x_5^{\ast})$ -->
      <g transform="translate(7.2 42.303454)scale(0.12 -0.12)">
       <use xlink:href="#Cmmi10-102"/>
       <use transform="translate(48.876953 0)" xlink:href="#Cmr10-40"/>
       <use transform="translate(87.695312 0)" xlink:href="#Cmmi10-120"/>
       <use transform="translate(151.078672 38.264062)scale(0.7)" xlink:href="#Cmsy10-164"/>
       <use transform="translate(144.775391 -25.509375)scale(0.7)" xlink:href="#Cmr10-53"/>
       <use transform="translate(192.456016 0)" xlink:href="#Cmr10-41"/>
      </g>
     </g>
    </g>
    <g id="text_12">
     <!-- $y$ -->
     <defs>
      <path d="M 8.40625 -14.3125 
Q 10.5 -17.921875 15.71875 -17.921875 
Q 20.453125 -17.921875 23.921875 -14.59375 
Q 27.390625 -11.28125 29.515625 -6.5625 
Q 31.640625 -1.859375 32.8125 3.078125 
Q 28.375 -1.125 23.1875 -1.125 
Q 19.234375 -1.125 16.453125 0.234375 
Q 13.671875 1.609375 12.125 4.3125 
Q 10.59375 7.03125 10.59375 10.890625 
Q 10.59375 14.15625 11.46875 17.59375 
Q 12.359375 21.046875 13.9375 25.265625 
Q 15.53125 29.5 16.703125 32.625 
Q 18.015625 36.28125 18.015625 38.625 
Q 18.015625 41.609375 15.828125 41.609375 
Q 11.859375 41.609375 9.296875 37.53125 
Q 6.734375 33.453125 5.515625 28.421875 
Q 5.328125 27.78125 4.6875 27.78125 
L 3.515625 27.78125 
Q 2.6875 27.78125 2.6875 28.71875 
L 2.6875 29 
Q 4.296875 34.96875 7.609375 39.578125 
Q 10.9375 44.1875 16.015625 44.1875 
Q 19.578125 44.1875 22.046875 41.84375 
Q 24.515625 39.5 24.515625 35.890625 
Q 24.515625 34.03125 23.6875 31.984375 
Q 23.25 30.765625 21.6875 26.65625 
Q 20.125 22.5625 19.28125 19.875 
Q 18.453125 17.1875 17.921875 14.59375 
Q 17.390625 12.015625 17.390625 9.421875 
Q 17.390625 6.109375 18.796875 3.8125 
Q 20.21875 1.515625 23.296875 1.515625 
Q 29.5 1.515625 34.421875 9.078125 
L 42 39.890625 
Q 42.328125 41.21875 43.546875 42.15625 
Q 44.78125 43.109375 46.1875 43.109375 
Q 47.40625 43.109375 48.3125 42.328125 
Q 49.21875 41.546875 49.21875 40.28125 
Q 49.21875 39.703125 49.125 39.5 
L 39.203125 -0.296875 
Q 37.890625 -5.421875 34.375 -10.109375 
Q 30.859375 -14.796875 25.90625 -17.65625 
Q 20.953125 -20.515625 15.578125 -20.515625 
Q 12.984375 -20.515625 10.4375 -19.5 
Q 7.90625 -18.5 6.34375 -16.5 
Q 4.78125 -14.5 4.78125 -11.8125 
Q 4.78125 -9.078125 6.390625 -7.078125 
Q 8.015625 -5.078125 10.6875 -5.078125 
Q 12.3125 -5.078125 13.40625 -6.078125 
Q 14.5 -7.078125 14.5 -8.6875 
Q 14.5 -10.984375 12.78125 -12.6875 
Q 11.078125 -14.40625 8.796875 -14.40625 
Q 8.6875 -14.359375 8.59375 -14.328125 
Q 8.5 -14.3125 8.40625 -14.3125 
z
" id="Cmmi10-121"/>
     </defs>
     <g transform="translate(37.29 21.598437)scale(0.19 -0.19)">
      <use transform="translate(0 0.8125)" xlink:href="#Cmmi10-121"/>
     </g>
    </g>
   </g>
   <g id="line2d_11">
    <path clip-path="url(#p67fd07d582)" d="M 42.04 248.554946 
L 46.611096 248.452062 
L 50.927051 248.166058 
L 55.21686 247.70001 
L 60.076119 246.953192 
L 64.690863 246.028679 
L 69.282204 244.90073 
L 73.54161 243.668701 
L 78.533243 241.997501 
L 83.06512 240.267714 
L 87.581595 238.342583 
L 92.498547 236.018361 
L 97.567072 233.373284 
L 102.596521 230.498528 
L 107.870957 227.21614 
L 112.999426 223.761896 
L 118.805498 219.538654 
L 123.852066 215.598187 
L 129.641618 210.768675 
L 135.458718 205.583736 
L 141.580261 199.767585 
L 147.529478 193.761569 
L 152.966254 187.968083 
L 159.511828 180.606859 
L 165.427859 173.590621 
L 171.058604 166.592585 
L 177.715737 157.916144 
L 183.500916 150.021718 
L 189.702383 141.193211 
L 196.039949 131.779662 
L 201.998416 122.568459 
L 208.491996 112.131883 
L 214.508697 102.09113 
L 221.456386 90.053222 
L 227.957089 78.359317 
L 234.483949 66.199684 
L 241.762175 52.145507 
L 248.925683 37.803454 
L 248.925683 37.803454 
" style="fill:none;stroke:#0000ff;stroke-linecap:square;"/>
   </g>
   <g id="line2d_12">
    <path clip-path="url(#p67fd07d582)" d="M 42.04 248.554946 
L 42.04 235.382978 
L 93.761421 235.382978 
L 93.761421 248.554946 
" style="fill:none;stroke:#ff0000;stroke-linecap:square;"/>
   </g>
   <g id="line2d_13">
    <path clip-path="url(#p67fd07d582)" d="M 93.761421 248.554946 
L 93.761421 235.382978 
" style="fill:none;stroke:#808080;stroke-dasharray:3.7,1.6;stroke-dashoffset:0;"/>
   </g>
   <g id="line2d_14">
    <path clip-path="url(#p67fd07d582)" d="M 42.04 235.382978 
L 93.761421 235.382978 
" style="fill:none;stroke:#808080;stroke-dasharray:3.7,1.6;stroke-dashoffset:0;"/>
   </g>
   <g id="line2d_15">
    <path clip-path="url(#p67fd07d582)" d="M 42.04 235.382978 
L 93.761421 235.382978 
L 93.761421 235.382978 
" style="fill:none;stroke:#ff0000;stroke-linecap:square;"/>
   </g>
   <g id="line2d_16">
    <path clip-path="url(#p67fd07d582)" d="M 93.761421 248.554946 
L 93.761421 195.867073 
L 145.482842 195.867073 
L 145.482842 248.554946 
" style="fill:none;stroke:#ff0000;stroke-linecap:square;"/>
   </g>
   <g id="line2d_17">
    <path clip-path="url(#p67fd07d582)" d="M 145.482842 248.554946 
L 145.482842 195.867073 
" style="fill:none;stroke:#808080;stroke-dasharray:3.7,1.6;stroke-dashoffset:0;"/>
   </g>
   <g id="line2d_18">
    <path clip-path="url(#p67fd07d582)" d="M 42.04 195.867073 
L 145.482842 195.867073 
" style="fill:none;stroke:#808080;stroke-dasharray:3.7,1.6;stroke-dashoffset:0;"/>
   </g>
   <g id="line2d_19">
    <path clip-path="url(#p67fd07d582)" d="M 93.761421 195.867073 
L 145.482842 195.867073 
L 145.482842 195.867073 
" style="fill:none;stroke:#ff0000;stroke-linecap:square;"/>
   </g>
   <g id="line2d_20">
    <path clip-path="url(#p67fd07d582)" d="M 145.482842 248.554946 
L 145.482842 130.007232 
L 197.204263 130.007232 
L 197.204263 248.554946 
" style="fill:none;stroke:#ff0000;stroke-linecap:square;"/>
   </g>
   <g id="line2d_21">
    <path clip-path="url(#p67fd07d582)" d="M 197.204263 248.554946 
L 197.204263 130.007232 
" style="fill:none;stroke:#808080;stroke-dasharray:3.7,1.6;stroke-dashoffset:0;"/>
   </g>
   <g id="line2d_22">
    <path clip-path="url(#p67fd07d582)" d="M 42.04 130.007232 
L 197.204263 130.007232 
" style="fill:none;stroke:#808080;stroke-dasharray:3.7,1.6;stroke-dashoffset:0;"/>
   </g>
   <g id="line2d_23">
    <path clip-path="url(#p67fd07d582)" d="M 145.482842 130.007232 
L 197.204263 130.007232 
L 197.204263 130.007232 
" style="fill:none;stroke:#ff0000;stroke-linecap:square;"/>
   </g>
   <g id="line2d_24">
    <path clip-path="url(#p67fd07d582)" d="M 197.204263 248.554946 
L 197.204263 37.803454 
L 248.925683 37.803454 
L 248.925683 248.554946 
" style="fill:none;stroke:#ff0000;stroke-linecap:square;"/>
   </g>
   <g id="line2d_25">
    <path clip-path="url(#p67fd07d582)" d="M 248.925683 248.554946 
L 248.925683 37.803454 
" style="fill:none;stroke:#808080;stroke-dasharray:3.7,1.6;stroke-dashoffset:0;"/>
   </g>
   <g id="line2d_26">
    <path clip-path="url(#p67fd07d582)" d="M 42.04 37.803454 
L 248.925683 37.803454 
" style="fill:none;stroke:#808080;stroke-dasharray:3.7,1.6;stroke-dashoffset:0;"/>
   </g>
   <g id="line2d_27">
    <path clip-path="url(#p67fd07d582)" d="M 197.204263 37.803454 
L 248.925683 37.803454 
L 248.925683 37.803454 
" style="fill:none;stroke:#ff0000;stroke-linecap:square;"/>
   </g>
   <g id="patch_7">
    <path d="M 42.04 252.769976 
L 42.04 33.588437 
" style="fill:none;stroke:#000000;stroke-linecap:square;stroke-linejoin:miter;stroke-width:0.8;"/>
   </g>
   <g id="patch_8">
    <path d="M 37.902286 248.554946 
L 253.063397 248.554946 
" style="fill:none;stroke:#000000;stroke-linecap:square;stroke-linejoin:miter;stroke-width:0.8;"/>
   </g>
  </g>
 </g>
 <defs>
  <clipPath id="p67fd07d582">
   <rect height="219.181538" width="215.161111" x="37.902286" y="33.588437"/>
  </clipPath>
 </defs>
</svg>
