<?xml version="1.0" encoding="utf-8" standalone="no"?>
<!DOCTYPE svg PUBLIC "-//W3C//DTD SVG 1.1//EN"
  "http://www.w3.org/Graphics/SVG/1.1/DTD/svg11.dtd">
<!-- Created with matplotlib (https://matplotlib.org/) -->
<svg height="278.684081pt" version="1.1" viewBox="0 0 279.875052 278.684081" width="279.875052pt" xmlns="http://www.w3.org/2000/svg" xmlns:xlink="http://www.w3.org/1999/xlink">
 <defs>
  <style type="text/css">
*{stroke-linecap:butt;stroke-linejoin:round;}
  </style>
 </defs>
 <g id="figure_1">
  <g id="patch_1">
   <path d="M 0 278.684081 
L 279.875052 278.684081 
L 279.875052 0 
L 0 0 
z
" style="fill:#ffffff;"/>
  </g>
  <g id="axes_1">
   <g id="patch_2">
    <path d="M 28.962744 257.169976 
L 253.655052 257.169976 
L 253.655052 33.588438 
L 28.962744 33.588438 
z
" style="fill:#ffffff;"/>
   </g>
   <g id="PathCollection_1">
    <path clip-path="url(#p7c229c5b15)" d="M 54.88878 186.468113 
C 55.308103 186.468113 55.710307 186.301514 56.006814 186.005008 
C 56.30332 185.708502 56.469918 185.306297 56.469918 184.886974 
C 56.469918 184.467651 56.30332 184.065446 56.006814 183.76894 
C 55.710307 183.472434 55.308103 183.305835 54.88878 183.305835 
C 54.469457 183.305835 54.067252 183.472434 53.770746 183.76894 
C 53.47424 184.065446 53.307641 184.467651 53.307641 184.886974 
C 53.307641 185.306297 53.47424 185.708502 53.770746 186.005008 
C 54.067252 186.301514 54.469457 186.468113 54.88878 186.468113 
z
" style="fill:#ff0000;"/>
   </g>
   <g id="PathCollection_2">
    <path clip-path="url(#p7c229c5b15)" d="M 98.098839 136.700841 
C 98.518162 136.700841 98.920367 136.534242 99.216873 136.237736 
C 99.513379 135.94123 99.679978 135.539025 99.679978 135.119702 
C 99.679978 134.700379 99.513379 134.298174 99.216873 134.001668 
C 98.920367 133.705162 98.518162 133.538563 98.098839 133.538563 
C 97.679516 133.538563 97.277311 133.705162 96.980805 134.001668 
C 96.684299 134.298174 96.5177 134.700379 96.5177 135.119702 
C 96.5177 135.539025 96.684299 135.94123 96.980805 136.237736 
C 97.277311 136.534242 97.679516 136.700841 98.098839 136.700841 
z
" style="fill:#ff0000;"/>
   </g>
   <g id="PathCollection_3">
    <path clip-path="url(#p7c229c5b15)" d="M 141.308898 102.436062 
C 141.728221 102.436062 142.130426 102.269463 142.426932 101.972957 
C 142.723438 101.676451 142.890037 101.274246 142.890037 100.854923 
C 142.890037 100.4356 142.723438 100.033395 142.426932 99.736889 
C 142.130426 99.440383 141.728221 99.273784 141.308898 99.273784 
C 140.889575 99.273784 140.48737 99.440383 140.190864 99.736889 
C 139.894358 100.033395 139.727759 100.4356 139.727759 100.854923 
C 139.727759 101.274246 139.894358 101.676451 140.190864 101.972957 
C 140.48737 102.269463 140.889575 102.436062 141.308898 102.436062 
z
" style="fill:#ff0000;"/>
   </g>
   <g id="PathCollection_4">
    <path clip-path="url(#p7c229c5b15)" d="M 184.518957 74.584413 
C 184.93828 74.584413 185.340485 74.417815 185.636991 74.121309 
C 185.933497 73.824803 186.100096 73.422598 186.100096 73.003275 
C 186.100096 72.583952 185.933497 72.181747 185.636991 71.885241 
C 185.340485 71.588735 184.93828 71.422136 184.518957 71.422136 
C 184.099634 71.422136 183.697429 71.588735 183.400923 71.885241 
C 183.104417 72.181747 182.937818 72.583952 182.937818 73.003275 
C 182.937818 73.422598 183.104417 73.824803 183.400923 74.121309 
C 183.697429 74.417815 184.099634 74.584413 184.518957 74.584413 
z
" style="fill:#ff0000;"/>
   </g>
   <g id="PathCollection_5">
    <path clip-path="url(#p7c229c5b15)" d="M 227.729016 50.501398 
C 228.148339 50.501398 228.550544 50.3348 228.84705 50.038294 
C 229.143556 49.741787 229.310155 49.339582 229.310155 48.92026 
C 229.310155 48.500937 229.143556 48.098732 228.84705 47.802226 
C 228.550544 47.505719 228.148339 47.339121 227.729016 47.339121 
C 227.309693 47.339121 226.907488 47.505719 226.610982 47.802226 
C 226.314476 48.098732 226.147877 48.500937 226.147877 48.92026 
C 226.147877 49.339582 226.314476 49.741787 226.610982 50.038294 
C 226.907488 50.3348 227.309693 50.501398 227.729016 50.501398 
z
" style="fill:#ff0000;"/>
   </g>
   <g id="patch_3">
    <path clip-path="url(#p7c229c5b15)" d="M 33.28375 252.870331 
L 33.28375 184.886974 
L 33.465906 184.886974 
L 33.797651 184.886974 
L 33.878356 184.886974 
L 34.204287 184.886974 
L 34.327937 184.886974 
L 34.592483 184.886974 
L 34.739442 184.886974 
L 35.094954 184.886974 
L 35.182913 184.886974 
L 35.449276 184.886974 
L 35.69066 184.886974 
L 35.850848 184.886974 
L 36.182025 184.886974 
L 36.414691 184.886974 
L 36.578722 184.886974 
L 36.822243 184.886974 
L 36.901826 184.886974 
L 37.242627 184.886974 
L 37.460288 184.886974 
L 37.723924 184.886974 
L 37.945696 184.886974 
L 38.119748 184.886974 
L 38.326823 184.886974 
L 38.55367 184.886974 
L 38.645465 184.886974 
L 38.837576 184.886974 
L 39.118137 184.886974 
L 39.360924 184.886974 
L 39.658922 184.886974 
L 39.713552 184.886974 
L 39.970148 184.886974 
L 40.189659 184.886974 
L 40.423834 184.886974 
L 40.599882 184.886974 
L 40.942459 184.886974 
L 41.083252 184.886974 
L 41.271102 184.886974 
L 41.518309 184.886974 
L 41.670028 184.886974 
L 41.956122 184.886974 
L 42.087972 184.886974 
L 42.427921 184.886974 
L 42.653169 184.886974 
L 42.760456 184.886974 
L 43.125441 184.886974 
L 43.186619 184.886974 
L 43.44412 184.886974 
L 43.600545 184.886974 
L 43.916464 184.886974 
L 44.050209 184.886974 
L 44.31038 184.886974 
L 44.589213 184.886974 
L 44.8536 184.886974 
L 44.958389 184.886974 
L 45.245733 184.886974 
L 45.538373 184.886974 
L 45.678743 184.886974 
L 45.86197 184.886974 
L 46.029674 184.886974 
L 46.409536 184.886974 
L 46.617036 184.886974 
L 46.81908 184.886974 
L 46.860237 184.886974 
L 47.14294 184.886974 
L 47.345624 184.886974 
L 47.685365 184.886974 
L 47.912116 184.886974 
L 47.97991 184.886974 
L 48.374182 184.886974 
L 48.453967 184.886974 
L 48.742215 184.886974 
L 48.965064 184.886974 
L 49.20749 184.886974 
L 49.299569 184.886974 
L 49.51981 184.886974 
L 49.851079 184.886974 
L 50.020542 184.886974 
L 50.237358 184.886974 
L 50.367772 184.886974 
L 50.679362 184.886974 
L 50.784495 184.886974 
L 50.985719 184.886974 
L 51.296795 184.886974 
L 51.543565 184.886974 
L 51.835364 184.886974 
L 52.065953 184.886974 
L 52.239949 184.886974 
L 52.311473 184.886974 
L 52.705219 184.886974 
L 52.821131 184.886974 
L 53.026767 184.886974 
L 53.224157 184.886974 
L 53.397705 184.886974 
L 53.699687 184.886974 
L 53.913302 184.886974 
L 54.021184 184.886974 
L 54.38138 184.886974 
L 54.651616 184.886974 
L 54.871005 184.886974 
L 55.033712 184.886974 
L 55.285224 184.886974 
L 55.353863 184.886974 
L 55.569765 184.886974 
L 55.882132 184.886974 
L 56.142123 184.886974 
L 56.263137 184.886974 
L 56.527945 184.886974 
L 56.766677 184.886974 
L 56.914018 184.886974 
L 57.112363 184.886974 
L 57.306985 184.886974 
L 57.653107 184.886974 
L 57.907377 184.886974 
L 57.947535 184.886974 
L 58.332475 184.886974 
L 58.534484 184.886974 
L 58.707449 184.886974 
L 58.826543 184.886974 
L 59.192133 184.886974 
L 59.393228 184.886974 
L 59.664964 184.886974 
L 59.779952 184.886974 
L 59.946382 184.886974 
L 60.234188 184.886974 
L 60.41349 184.886974 
L 60.738119 184.886974 
L 60.809895 184.886974 
L 61.112051 184.886974 
L 61.266139 184.886974 
L 61.435747 184.886974 
L 61.661294 184.886974 
L 61.871015 184.886974 
L 62.213613 184.886974 
L 62.30331 184.886974 
L 62.550561 184.886974 
L 62.724313 184.886974 
L 63.018448 184.886974 
L 63.17615 184.886974 
L 63.468731 184.886974 
L 63.775067 184.886974 
L 63.927751 184.886974 
L 64.161854 184.886974 
L 64.282375 184.886974 
L 64.537148 184.886974 
L 64.867575 184.886974 
L 64.960034 184.886974 
L 65.178411 184.886974 
L 65.491788 184.886974 
L 65.610932 184.886974 
L 65.876456 184.886974 
L 66.167927 184.886974 
L 66.364402 184.886974 
L 66.565371 184.886974 
L 66.661072 184.886974 
L 66.871548 184.886974 
L 67.255829 184.886974 
L 67.29499 184.886974 
L 67.576762 184.886974 
L 67.764463 184.886974 
L 67.960395 184.886974 
L 68.329099 184.886974 
L 68.549537 184.886974 
L 68.668574 184.886974 
L 68.808694 184.886974 
L 69.062084 184.886974 
L 69.351997 184.886974 
L 69.621769 184.886974 
L 69.696019 184.886974 
L 69.914329 184.886974 
L 70.24514 184.886974 
L 70.419091 184.886974 
L 70.672451 184.886974 
L 70.845903 184.886974 
L 71.053895 184.886974 
L 71.335951 184.886974 
L 71.545443 184.886974 
L 71.725847 184.886974 
L 71.918636 184.886974 
L 72.165986 184.886974 
L 72.420923 184.886974 
L 72.62728 184.886974 
L 72.713089 184.886974 
L 73.089649 184.886974 
L 73.321594 184.886974 
L 73.43295 184.886974 
L 73.616691 184.886974 
L 73.882445 184.886974 
L 74.097504 184.886974 
L 74.276158 184.886974 
L 74.620379 184.886974 
L 74.718934 184.886974 
L 75.068804 184.886974 
L 75.113558 184.886974 
L 75.457265 184.886974 
L 75.681678 184.886974 
L 75.800348 184.886974 
L 76.16587 184.886974 
L 76.213793 184.886974 
L 76.493809 184.886974 
L 76.493809 252.870331 
z
" style="fill:#cde0eb;opacity:0.5;"/>
   </g>
   <g id="patch_4">
    <path clip-path="url(#p7c229c5b15)" d="M 76.493809 252.870331 
L 76.493809 135.119702 
L 76.656011 135.119702 
L 76.906697 135.119702 
L 77.108044 135.119702 
L 77.447893 135.119702 
L 77.568039 135.119702 
L 77.823234 135.119702 
L 77.98853 135.119702 
L 78.250731 135.119702 
L 78.47628 135.119702 
L 78.605096 135.119702 
L 78.970403 135.119702 
L 79.118221 135.119702 
L 79.39401 135.119702 
L 79.426914 135.119702 
L 79.730757 135.119702 
L 80.057782 135.119702 
L 80.201504 135.119702 
L 80.492539 135.119702 
L 80.525389 135.119702 
L 80.882712 135.119702 
L 80.988411 135.119702 
L 81.191984 135.119702 
L 81.541078 135.119702 
L 81.692373 135.119702 
L 82.018928 135.119702 
L 82.152267 135.119702 
L 82.329673 135.119702 
L 82.577195 135.119702 
L 82.792294 135.119702 
L 82.991519 135.119702 
L 83.30383 135.119702 
L 83.458683 135.119702 
L 83.678191 135.119702 
L 83.792407 135.119702 
L 83.999594 135.119702 
L 84.415443 135.119702 
L 84.428447 135.119702 
L 84.674317 135.119702 
L 85.035399 135.119702 
L 85.090529 135.119702 
L 85.413225 135.119702 
L 85.57506 135.119702 
L 85.806091 135.119702 
L 86.116744 135.119702 
L 86.314612 135.119702 
L 86.497138 135.119702 
L 86.699951 135.119702 
L 86.844085 135.119702 
L 87.073998 135.119702 
L 87.305212 135.119702 
L 87.520967 135.119702 
L 87.827827 135.119702 
L 87.985665 135.119702 
L 88.171091 135.119702 
L 88.466877 135.119702 
L 88.701936 135.119702 
L 88.94922 135.119702 
L 89.160202 135.119702 
L 89.337432 135.119702 
L 89.473867 135.119702 
L 89.726743 135.119702 
L 89.987119 135.119702 
L 90.0926 135.119702 
L 90.325932 135.119702 
L 90.527669 135.119702 
L 90.833946 135.119702 
L 91.079481 135.119702 
L 91.328147 135.119702 
L 91.553308 135.119702 
L 91.607211 135.119702 
L 92.004515 135.119702 
L 92.231236 135.119702 
L 92.333291 135.119702 
L 92.606752 135.119702 
L 92.829042 135.119702 
L 92.958392 135.119702 
L 93.315806 135.119702 
L 93.356126 135.119702 
L 93.669061 135.119702 
L 93.926304 135.119702 
L 94.05275 135.119702 
L 94.302872 135.119702 
L 94.431731 135.119702 
L 94.800574 135.119702 
L 94.982556 135.119702 
L 95.085384 135.119702 
L 95.329496 135.119702 
L 95.68691 135.119702 
L 95.81941 135.119702 
L 95.951492 135.119702 
L 96.280593 135.119702 
L 96.577817 135.119702 
L 96.615828 135.119702 
L 96.835834 135.119702 
L 97.214124 135.119702 
L 97.401471 135.119702 
L 97.606243 135.119702 
L 97.664965 135.119702 
L 98.08405 135.119702 
L 98.285454 135.119702 
L 98.455567 135.119702 
L 98.661787 135.119702 
L 98.773043 135.119702 
L 99.113972 135.119702 
L 99.397572 135.119702 
L 99.606831 135.119702 
L 99.706291 135.119702 
L 99.922193 135.119702 
L 100.090026 135.119702 
L 100.301014 135.119702 
L 100.508697 135.119702 
L 100.733692 135.119702 
L 100.996977 135.119702 
L 101.345439 135.119702 
L 101.541145 135.119702 
L 101.786151 135.119702 
L 101.904223 135.119702 
L 102.104919 135.119702 
L 102.32131 135.119702 
L 102.484951 135.119702 
L 102.827978 135.119702 
L 102.974136 135.119702 
L 103.113838 135.119702 
L 103.520671 135.119702 
L 103.718263 135.119702 
L 103.753634 135.119702 
L 104.160437 135.119702 
L 104.358189 135.119702 
L 104.517864 135.119702 
L 104.657127 135.119702 
L 104.999855 135.119702 
L 105.135823 135.119702 
L 105.414475 135.119702 
L 105.500926 135.119702 
L 105.712303 135.119702 
L 106.021167 135.119702 
L 106.342979 135.119702 
L 106.517589 135.119702 
L 106.574798 135.119702 
L 106.958135 135.119702 
L 107.205936 135.119702 
L 107.271377 135.119702 
L 107.623291 135.119702 
L 107.802543 135.119702 
L 107.921115 135.119702 
L 108.188169 135.119702 
L 108.378365 135.119702 
L 108.644944 135.119702 
L 108.950201 135.119702 
L 109.077567 135.119702 
L 109.280036 135.119702 
L 109.503712 135.119702 
L 109.686638 135.119702 
L 109.993067 135.119702 
L 110.230765 135.119702 
L 110.41705 135.119702 
L 110.560008 135.119702 
L 110.873562 135.119702 
L 111.11926 135.119702 
L 111.290463 135.119702 
L 111.475855 135.119702 
L 111.666476 135.119702 
L 111.937544 135.119702 
L 112.071579 135.119702 
L 112.235606 135.119702 
L 112.624113 135.119702 
L 112.692012 135.119702 
L 113.027395 135.119702 
L 113.289295 135.119702 
L 113.484206 135.119702 
L 113.729212 135.119702 
L 113.857528 135.119702 
L 113.952544 135.119702 
L 114.338196 135.119702 
L 114.545396 135.119702 
L 114.802408 135.119702 
L 114.982164 135.119702 
L 115.052833 135.119702 
L 115.449614 135.119702 
L 115.573434 135.119702 
L 115.719769 135.119702 
L 116.07454 135.119702 
L 116.293244 135.119702 
L 116.508758 135.119702 
L 116.560982 135.119702 
L 116.87931 135.119702 
L 117.044374 135.119702 
L 117.376723 135.119702 
L 117.634997 135.119702 
L 117.780998 135.119702 
L 117.936026 135.119702 
L 118.137593 135.119702 
L 118.50499 135.119702 
L 118.61765 135.119702 
L 118.808519 135.119702 
L 119.006407 135.119702 
L 119.322489 135.119702 
L 119.569926 135.119702 
L 119.703868 135.119702 
L 119.703868 252.870331 
z
" style="fill:#cde0eb;opacity:0.5;"/>
   </g>
   <g id="patch_5">
    <path clip-path="url(#p7c229c5b15)" d="M 119.703868 252.870331 
L 119.703868 100.854923 
L 119.835548 100.854923 
L 120.116992 100.854923 
L 120.291798 100.854923 
L 120.669708 100.854923 
L 120.715302 100.854923 
L 120.984417 100.854923 
L 121.21323 100.854923 
L 121.405542 100.854923 
L 121.699343 100.854923 
L 121.839967 100.854923 
L 122.001896 100.854923 
L 122.292951 100.854923 
L 122.590343 100.854923 
L 122.757323 100.854923 
L 122.912035 100.854923 
L 123.209902 100.854923 
L 123.467273 100.854923 
L 123.530594 100.854923 
L 123.735461 100.854923 
L 123.989459 100.854923 
L 124.166626 100.854923 
L 124.588783 100.854923 
L 124.79317 100.854923 
L 124.835876 100.854923 
L 125.197458 100.854923 
L 125.381379 100.854923 
L 125.470251 100.854923 
L 125.865814 100.854923 
L 125.929601 100.854923 
L 126.312966 100.854923 
L 126.369164 100.854923 
L 126.612483 100.854923 
L 126.935451 100.854923 
L 127.036317 100.854923 
L 127.232952 100.854923 
L 127.627938 100.854923 
L 127.745182 100.854923 
L 128.018532 100.854923 
L 128.273239 100.854923 
L 128.480254 100.854923 
L 128.644192 100.854923 
L 128.806524 100.854923 
L 129.020976 100.854923 
L 129.298702 100.854923 
L 129.530344 100.854923 
L 129.779554 100.854923 
L 130.005137 100.854923 
L 130.206663 100.854923 
L 130.367276 100.854923 
L 130.572065 100.854923 
L 130.751943 100.854923 
L 131.097748 100.854923 
L 131.26478 100.854923 
L 131.400535 100.854923 
L 131.729301 100.854923 
L 131.963692 100.854923 
L 132.115923 100.854923 
L 132.34218 100.854923 
L 132.583307 100.854923 
L 132.725863 100.854923 
L 132.915629 100.854923 
L 133.246937 100.854923 
L 133.41753 100.854923 
L 133.630041 100.854923 
L 133.829483 100.854923 
L 134.052601 100.854923 
L 134.326818 100.854923 
L 134.445709 100.854923 
L 134.630163 100.854923 
L 134.915003 100.854923 
L 135.175725 100.854923 
L 135.423107 100.854923 
L 135.541335 100.854923 
L 135.878146 100.854923 
L 135.938202 100.854923 
L 136.145137 100.854923 
L 136.513564 100.854923 
L 136.671067 100.854923 
L 136.82334 100.854923 
L 136.975702 100.854923 
L 137.25146 100.854923 
L 137.481918 100.854923 
L 137.666161 100.854923 
L 137.912717 100.854923 
L 138.193262 100.854923 
L 138.295982 100.854923 
L 138.493286 100.854923 
L 138.731117 100.854923 
L 139.079806 100.854923 
L 139.265751 100.854923 
L 139.488109 100.854923 
L 139.578397 100.854923 
L 139.830634 100.854923 
L 140.113133 100.854923 
L 140.391862 100.854923 
L 140.584009 100.854923 
L 140.699866 100.854923 
L 141.069802 100.854923 
L 141.254169 100.854923 
L 141.403684 100.854923 
L 141.641204 100.854923 
L 141.862042 100.854923 
L 142.043361 100.854923 
L 142.305653 100.854923 
L 142.471456 100.854923 
L 142.700942 100.854923 
L 142.93347 100.854923 
L 143.17041 100.854923 
L 143.287331 100.854923 
L 143.512159 100.854923 
L 143.907416 100.854923 
L 144.07497 100.854923 
L 144.339128 100.854923 
L 144.39075 100.854923 
L 144.632635 100.854923 
L 144.867849 100.854923 
L 145.120426 100.854923 
L 145.403187 100.854923 
L 145.438876 100.854923 
L 145.817126 100.854923 
L 145.980707 100.854923 
L 146.248624 100.854923 
L 146.355276 100.854923 
L 146.548134 100.854923 
L 146.914648 100.854923 
L 147.135909 100.854923 
L 147.172549 100.854923 
L 147.448174 100.854923 
L 147.819985 100.854923 
L 147.844758 100.854923 
L 148.09054 100.854923 
L 148.268871 100.854923 
L 148.587213 100.854923 
L 148.834333 100.854923 
L 148.981559 100.854923 
L 149.234592 100.854923 
L 149.451283 100.854923 
L 149.694262 100.854923 
L 149.8029 100.854923 
L 150.059154 100.854923 
L 150.226095 100.854923 
L 150.578696 100.854923 
L 150.822787 100.854923 
L 150.944118 100.854923 
L 151.140604 100.854923 
L 151.400567 100.854923 
L 151.674999 100.854923 
L 151.849337 100.854923 
L 152.072261 100.854923 
L 152.248264 100.854923 
L 152.493581 100.854923 
L 152.716524 100.854923 
L 152.963466 100.854923 
L 153.21069 100.854923 
L 153.412149 100.854923 
L 153.662041 100.854923 
L 153.700308 100.854923 
L 154.072635 100.854923 
L 154.232053 100.854923 
L 154.411606 100.854923 
L 154.754299 100.854923 
L 154.899545 100.854923 
L 155.194164 100.854923 
L 155.365718 100.854923 
L 155.540686 100.854923 
L 155.681644 100.854923 
L 155.961692 100.854923 
L 156.224969 100.854923 
L 156.381197 100.854923 
L 156.671779 100.854923 
L 156.801439 100.854923 
L 156.997516 100.854923 
L 157.237688 100.854923 
L 157.44981 100.854923 
L 157.732302 100.854923 
L 157.95003 100.854923 
L 158.048792 100.854923 
L 158.330468 100.854923 
L 158.604808 100.854923 
L 158.816385 100.854923 
L 158.989126 100.854923 
L 159.136531 100.854923 
L 159.468778 100.854923 
L 159.588857 100.854923 
L 159.906712 100.854923 
L 160.099967 100.854923 
L 160.316059 100.854923 
L 160.45292 100.854923 
L 160.811501 100.854923 
L 160.988942 100.854923 
L 161.079535 100.854923 
L 161.461175 100.854923 
L 161.711204 100.854923 
L 161.809978 100.854923 
L 161.959705 100.854923 
L 162.294455 100.854923 
L 162.375521 100.854923 
L 162.792085 100.854923 
L 162.913928 100.854923 
L 162.913928 252.870331 
z
" style="fill:#cde0eb;opacity:0.5;"/>
   </g>
   <g id="patch_6">
    <path clip-path="url(#p7c229c5b15)" d="M 162.913928 252.870331 
L 162.913928 73.003275 
L 163.107216 73.003275 
L 163.370695 73.003275 
L 163.632598 73.003275 
L 163.689674 73.003275 
L 164.035868 73.003275 
L 164.164265 73.003275 
L 164.466349 73.003275 
L 164.75174 73.003275 
L 164.953934 73.003275 
L 165.123135 73.003275 
L 165.295064 73.003275 
L 165.572085 73.003275 
L 165.646787 73.003275 
L 165.887436 73.003275 
L 166.254691 73.003275 
L 166.491651 73.003275 
L 166.575534 73.003275 
L 166.777283 73.003275 
L 167.093838 73.003275 
L 167.247235 73.003275 
L 167.44128 73.003275 
L 167.786226 73.003275 
L 167.818191 73.003275 
L 168.018303 73.003275 
L 168.423061 73.003275 
L 168.591961 73.003275 
L 168.695564 73.003275 
L 168.983564 73.003275 
L 169.255766 73.003275 
L 169.488666 73.003275 
L 169.69062 73.003275 
L 169.939182 73.003275 
L 170.148978 73.003275 
L 170.372965 73.003275 
L 170.463608 73.003275 
L 170.741014 73.003275 
L 171.050613 73.003275 
L 171.069603 73.003275 
L 171.290906 73.003275 
L 171.60294 73.003275 
L 171.842136 73.003275 
L 172.013361 73.003275 
L 172.224878 73.003275 
L 172.465699 73.003275 
L 172.584714 73.003275 
L 173.005844 73.003275 
L 173.117829 73.003275 
L 173.435265 73.003275 
L 173.600603 73.003275 
L 173.864085 73.003275 
L 174.027369 73.003275 
L 174.27981 73.003275 
L 174.417631 73.003275 
L 174.694718 73.003275 
L 174.784224 73.003275 
L 175.092991 73.003275 
L 175.296224 73.003275 
L 175.534243 73.003275 
L 175.803277 73.003275 
L 175.967402 73.003275 
L 176.243849 73.003275 
L 176.395563 73.003275 
L 176.562195 73.003275 
L 176.900438 73.003275 
L 177.040401 73.003275 
L 177.325432 73.003275 
L 177.458675 73.003275 
L 177.773272 73.003275 
L 177.994331 73.003275 
L 178.109015 73.003275 
L 178.267766 73.003275 
L 178.562326 73.003275 
L 178.713531 73.003275 
L 179.082212 73.003275 
L 179.199034 73.003275 
L 179.317929 73.003275 
L 179.739873 73.003275 
L 179.907523 73.003275 
L 180.176121 73.003275 
L 180.244072 73.003275 
L 180.422225 73.003275 
L 180.779568 73.003275 
L 180.93047 73.003275 
L 181.213383 73.003275 
L 181.449262 73.003275 
L 181.52543 73.003275 
L 181.851718 73.003275 
L 182.1232 73.003275 
L 182.324976 73.003275 
L 182.415264 73.003275 
L 182.745423 73.003275 
L 182.990239 73.003275 
L 183.208034 73.003275 
L 183.252626 73.003275 
L 183.522939 73.003275 
L 183.858256 73.003275 
L 183.924892 73.003275 
L 184.194311 73.003275 
L 184.429086 73.003275 
L 184.608929 73.003275 
L 184.813475 73.003275 
L 185.135821 73.003275 
L 185.258179 73.003275 
L 185.585632 73.003275 
L 185.796401 73.003275 
L 186.018363 73.003275 
L 186.058085 73.003275 
L 186.418894 73.003275 
L 186.666814 73.003275 
L 186.851085 73.003275 
L 187.078009 73.003275 
L 187.271592 73.003275 
L 187.447091 73.003275 
L 187.696724 73.003275 
L 187.791565 73.003275 
L 188.160537 73.003275 
L 188.277356 73.003275 
L 188.622721 73.003275 
L 188.669606 73.003275 
L 188.945212 73.003275 
L 189.080336 73.003275 
L 189.306979 73.003275 
L 189.656618 73.003275 
L 189.811259 73.003275 
L 190.156872 73.003275 
L 190.264808 73.003275 
L 190.507928 73.003275 
L 190.634512 73.003275 
L 190.898729 73.003275 
L 191.190867 73.003275 
L 191.27592 73.003275 
L 191.476429 73.003275 
L 191.750674 73.003275 
L 191.991747 73.003275 
L 192.14789 73.003275 
L 192.437263 73.003275 
L 192.742407 73.003275 
L 192.81977 73.003275 
L 193.060331 73.003275 
L 193.307224 73.003275 
L 193.524446 73.003275 
L 193.690784 73.003275 
L 193.879373 73.003275 
L 194.246853 73.003275 
L 194.433008 73.003275 
L 194.517172 73.003275 
L 194.857872 73.003275 
L 195.092272 73.003275 
L 195.281164 73.003275 
L 195.459524 73.003275 
L 195.647644 73.003275 
L 195.949602 73.003275 
L 196.043147 73.003275 
L 196.431108 73.003275 
L 196.486758 73.003275 
L 196.728597 73.003275 
L 196.909046 73.003275 
L 197.251005 73.003275 
L 197.466859 73.003275 
L 197.674224 73.003275 
L 197.809485 73.003275 
L 198.154023 73.003275 
L 198.270825 73.003275 
L 198.536355 73.003275 
L 198.84617 73.003275 
L 198.901482 73.003275 
L 199.137431 73.003275 
L 199.329862 73.003275 
L 199.611109 73.003275 
L 199.742414 73.003275 
L 199.986171 73.003275 
L 200.24072 73.003275 
L 200.436981 73.003275 
L 200.603969 73.003275 
L 200.90782 73.003275 
L 201.110398 73.003275 
L 201.311468 73.003275 
L 201.605509 73.003275 
L 201.729279 73.003275 
L 201.976798 73.003275 
L 202.255668 73.003275 
L 202.427412 73.003275 
L 202.584285 73.003275 
L 202.8616 73.003275 
L 203.03275 73.003275 
L 203.301717 73.003275 
L 203.536601 73.003275 
L 203.650184 73.003275 
L 204.035184 73.003275 
L 204.260078 73.003275 
L 204.377643 73.003275 
L 204.664119 73.003275 
L 204.826457 73.003275 
L 205.030639 73.003275 
L 205.203172 73.003275 
L 205.58042 73.003275 
L 205.630102 73.003275 
L 205.879953 73.003275 
L 206.123987 73.003275 
L 206.123987 252.870331 
z
" style="fill:#cde0eb;opacity:0.5;"/>
   </g>
   <g id="patch_7">
    <path clip-path="url(#p7c229c5b15)" d="M 206.123987 252.870331 
L 206.123987 48.92026 
L 206.402575 48.92026 
L 206.617435 48.92026 
L 206.707134 48.92026 
L 207.035586 48.92026 
L 207.10562 48.92026 
L 207.454842 48.92026 
L 207.72631 48.92026 
L 207.94238 48.92026 
L 208.071769 48.92026 
L 208.240853 48.92026 
L 208.618518 48.92026 
L 208.825949 48.92026 
L 208.995768 48.92026 
L 209.117985 48.92026 
L 209.329621 48.92026 
L 209.69245 48.92026 
L 209.83229 48.92026 
L 209.974299 48.92026 
L 210.267946 48.92026 
L 210.491691 48.92026 
L 210.669146 48.92026 
L 210.888961 48.92026 
L 211.174613 48.92026 
L 211.367671 48.92026 
L 211.470443 48.92026 
L 211.667949 48.92026 
L 212.035405 48.92026 
L 212.169267 48.92026 
L 212.503871 48.92026 
L 212.619433 48.92026 
L 212.924593 48.92026 
L 213.155726 48.92026 
L 213.39109 48.92026 
L 213.476156 48.92026 
L 213.625002 48.92026 
L 213.993073 48.92026 
L 214.258685 48.92026 
L 214.372658 48.92026 
L 214.700013 48.92026 
L 214.703527 48.92026 
L 214.957685 48.92026 
L 215.169022 48.92026 
L 215.439623 48.92026 
L 215.626282 48.92026 
L 215.896046 48.92026 
L 216.048969 48.92026 
L 216.399775 48.92026 
L 216.619577 48.92026 
L 216.662407 48.92026 
L 216.88438 48.92026 
L 217.125035 48.92026 
L 217.453573 48.92026 
L 217.596252 48.92026 
L 217.90892 48.92026 
L 218.130088 48.92026 
L 218.322825 48.92026 
L 218.421362 48.92026 
L 218.789774 48.92026 
L 218.974385 48.92026 
L 219.188203 48.92026 
L 219.333096 48.92026 
L 219.50651 48.92026 
L 219.814233 48.92026 
L 220.123345 48.92026 
L 220.209719 48.92026 
L 220.477122 48.92026 
L 220.569199 48.92026 
L 220.945168 48.92026 
L 221.030225 48.92026 
L 221.261206 48.92026 
L 221.570789 48.92026 
L 221.695117 48.92026 
L 222.060762 48.92026 
L 222.184295 48.92026 
L 222.499909 48.92026 
L 222.61239 48.92026 
L 222.938116 48.92026 
L 223.028894 48.92026 
L 223.305622 48.92026 
L 223.445719 48.92026 
L 223.689304 48.92026 
L 223.95815 48.92026 
L 224.154768 48.92026 
L 224.287188 48.92026 
L 224.549394 48.92026 
L 224.827613 48.92026 
L 225.093634 48.92026 
L 225.189545 48.92026 
L 225.370571 48.92026 
L 225.591733 48.92026 
L 225.835615 48.92026 
L 225.993046 48.92026 
L 226.352147 48.92026 
L 226.442323 48.92026 
L 226.740162 48.92026 
L 226.874036 48.92026 
L 227.08137 48.92026 
L 227.377291 48.92026 
L 227.721125 48.92026 
L 227.913576 48.92026 
L 228.078038 48.92026 
L 228.312919 48.92026 
L 228.512988 48.92026 
L 228.689544 48.92026 
L 228.901687 48.92026 
L 229.11999 48.92026 
L 229.374762 48.92026 
L 229.63331 48.92026 
L 229.897697 48.92026 
L 229.986411 48.92026 
L 230.207035 48.92026 
L 230.426437 48.92026 
L 230.658331 48.92026 
L 230.80834 48.92026 
L 231.199652 48.92026 
L 231.314332 48.92026 
L 231.541477 48.92026 
L 231.83554 48.92026 
L 231.867473 48.92026 
L 232.286054 48.92026 
L 232.321166 48.92026 
L 232.683828 48.92026 
L 232.901844 48.92026 
L 233.031358 48.92026 
L 233.279707 48.92026 
L 233.464018 48.92026 
L 233.785794 48.92026 
L 233.848171 48.92026 
L 234.207702 48.92026 
L 234.393278 48.92026 
L 234.614738 48.92026 
L 234.839443 48.92026 
L 235.077491 48.92026 
L 235.226166 48.92026 
L 235.532644 48.92026 
L 235.692638 48.92026 
L 235.803053 48.92026 
L 236.009955 48.92026 
L 236.373626 48.92026 
L 236.586099 48.92026 
L 236.686788 48.92026 
L 236.884635 48.92026 
L 237.139744 48.92026 
L 237.329631 48.92026 
L 237.621724 48.92026 
L 237.778065 48.92026 
L 238.097659 48.92026 
L 238.180929 48.92026 
L 238.403769 48.92026 
L 238.632071 48.92026 
L 238.883516 48.92026 
L 239.092204 48.92026 
L 239.369595 48.92026 
L 239.578268 48.92026 
L 239.844067 48.92026 
L 239.92514 48.92026 
L 240.197724 48.92026 
L 240.461193 48.92026 
L 240.671411 48.92026 
L 240.830667 48.92026 
L 241.074236 48.92026 
L 241.229241 48.92026 
L 241.530203 48.92026 
L 241.807389 48.92026 
L 241.929044 48.92026 
L 242.248838 48.92026 
L 242.358833 48.92026 
L 242.509577 48.92026 
L 242.772187 48.92026 
L 243.130113 48.92026 
L 243.349611 48.92026 
L 243.40444 48.92026 
L 243.788852 48.92026 
L 243.963472 48.92026 
L 244.066642 48.92026 
L 244.37777 48.92026 
L 244.600447 48.92026 
L 244.737539 48.92026 
L 245.094998 48.92026 
L 245.125259 48.92026 
L 245.427225 48.92026 
L 245.538074 48.92026 
L 245.828669 48.92026 
L 246.133214 48.92026 
L 246.373159 48.92026 
L 246.546909 48.92026 
L 246.712283 48.92026 
L 246.985736 48.92026 
L 247.257198 48.92026 
L 247.441756 48.92026 
L 247.599974 48.92026 
L 247.72115 48.92026 
L 248.099793 48.92026 
L 248.281783 48.92026 
L 248.388032 48.92026 
L 248.754132 48.92026 
L 248.828362 48.92026 
L 249.155619 48.92026 
L 249.334046 48.92026 
L 249.334046 252.870331 
z
" style="fill:#cde0eb;opacity:0.5;"/>
   </g>
   <g id="matplotlib.axis_1">
    <g id="xtick_1">
     <g id="line2d_1">
      <defs>
       <path d="M 0 0 
L 0 3.5 
" id="m232b5654e1" style="stroke:#000000;stroke-width:0.8;"/>
      </defs>
      <g>
       <use style="stroke:#000000;stroke-width:0.8;" x="54.88878" xlink:href="#m232b5654e1" y="252.870331"/>
      </g>
     </g>
     <g id="text_1">
      <!-- 1/10 -->
      <defs>
       <path d="M 12.40625 8.296875 
L 28.515625 8.296875 
L 28.515625 63.921875 
L 10.984375 60.40625 
L 10.984375 69.390625 
L 28.421875 72.90625 
L 38.28125 72.90625 
L 38.28125 8.296875 
L 54.390625 8.296875 
L 54.390625 0 
L 12.40625 0 
z
" id="DejaVuSans-49"/>
       <path d="M 25.390625 72.90625 
L 33.6875 72.90625 
L 8.296875 -9.28125 
L 0 -9.28125 
z
" id="DejaVuSans-47"/>
       <path d="M 31.78125 66.40625 
Q 24.171875 66.40625 20.328125 58.90625 
Q 16.5 51.421875 16.5 36.375 
Q 16.5 21.390625 20.328125 13.890625 
Q 24.171875 6.390625 31.78125 6.390625 
Q 39.453125 6.390625 43.28125 13.890625 
Q 47.125 21.390625 47.125 36.375 
Q 47.125 51.421875 43.28125 58.90625 
Q 39.453125 66.40625 31.78125 66.40625 
z
M 31.78125 74.21875 
Q 44.046875 74.21875 50.515625 64.515625 
Q 56.984375 54.828125 56.984375 36.375 
Q 56.984375 17.96875 50.515625 8.265625 
Q 44.046875 -1.421875 31.78125 -1.421875 
Q 19.53125 -1.421875 13.0625 8.265625 
Q 6.59375 17.96875 6.59375 36.375 
Q 6.59375 54.828125 13.0625 64.515625 
Q 19.53125 74.21875 31.78125 74.21875 
z
" id="DejaVuSans-48"/>
      </defs>
      <g transform="translate(41.41503 268.988456)scale(0.12 -0.12)">
       <use xlink:href="#DejaVuSans-49"/>
       <use x="63.623047" xlink:href="#DejaVuSans-47"/>
       <use x="97.314453" xlink:href="#DejaVuSans-49"/>
       <use x="160.9375" xlink:href="#DejaVuSans-48"/>
      </g>
     </g>
    </g>
    <g id="xtick_2">
     <g id="line2d_2">
      <g>
       <use style="stroke:#000000;stroke-width:0.8;" x="98.098839" xlink:href="#m232b5654e1" y="252.870331"/>
      </g>
     </g>
     <g id="text_2">
      <!-- 3/10 -->
      <defs>
       <path d="M 40.578125 39.3125 
Q 47.65625 37.796875 51.625 33 
Q 55.609375 28.21875 55.609375 21.1875 
Q 55.609375 10.40625 48.1875 4.484375 
Q 40.765625 -1.421875 27.09375 -1.421875 
Q 22.515625 -1.421875 17.65625 -0.515625 
Q 12.796875 0.390625 7.625 2.203125 
L 7.625 11.71875 
Q 11.71875 9.328125 16.59375 8.109375 
Q 21.484375 6.890625 26.8125 6.890625 
Q 36.078125 6.890625 40.9375 10.546875 
Q 45.796875 14.203125 45.796875 21.1875 
Q 45.796875 27.640625 41.28125 31.265625 
Q 36.765625 34.90625 28.71875 34.90625 
L 20.21875 34.90625 
L 20.21875 43.015625 
L 29.109375 43.015625 
Q 36.375 43.015625 40.234375 45.921875 
Q 44.09375 48.828125 44.09375 54.296875 
Q 44.09375 59.90625 40.109375 62.90625 
Q 36.140625 65.921875 28.71875 65.921875 
Q 24.65625 65.921875 20.015625 65.03125 
Q 15.375 64.15625 9.8125 62.3125 
L 9.8125 71.09375 
Q 15.4375 72.65625 20.34375 73.4375 
Q 25.25 74.21875 29.59375 74.21875 
Q 40.828125 74.21875 47.359375 69.109375 
Q 53.90625 64.015625 53.90625 55.328125 
Q 53.90625 49.265625 50.4375 45.09375 
Q 46.96875 40.921875 40.578125 39.3125 
z
" id="DejaVuSans-51"/>
      </defs>
      <g transform="translate(84.625089 268.988456)scale(0.12 -0.12)">
       <use xlink:href="#DejaVuSans-51"/>
       <use x="63.623047" xlink:href="#DejaVuSans-47"/>
       <use x="97.314453" xlink:href="#DejaVuSans-49"/>
       <use x="160.9375" xlink:href="#DejaVuSans-48"/>
      </g>
     </g>
    </g>
    <g id="xtick_3">
     <g id="line2d_3">
      <g>
       <use style="stroke:#000000;stroke-width:0.8;" x="141.308898" xlink:href="#m232b5654e1" y="252.870331"/>
      </g>
     </g>
     <g id="text_3">
      <!-- 1/2 -->
      <defs>
       <path d="M 19.1875 8.296875 
L 53.609375 8.296875 
L 53.609375 0 
L 7.328125 0 
L 7.328125 8.296875 
Q 12.9375 14.109375 22.625 23.890625 
Q 32.328125 33.6875 34.8125 36.53125 
Q 39.546875 41.84375 41.421875 45.53125 
Q 43.3125 49.21875 43.3125 52.78125 
Q 43.3125 58.59375 39.234375 62.25 
Q 35.15625 65.921875 28.609375 65.921875 
Q 23.96875 65.921875 18.8125 64.3125 
Q 13.671875 62.703125 7.8125 59.421875 
L 7.8125 69.390625 
Q 13.765625 71.78125 18.9375 73 
Q 24.125 74.21875 28.421875 74.21875 
Q 39.75 74.21875 46.484375 68.546875 
Q 53.21875 62.890625 53.21875 53.421875 
Q 53.21875 48.921875 51.53125 44.890625 
Q 49.859375 40.875 45.40625 35.40625 
Q 44.1875 33.984375 37.640625 27.21875 
Q 31.109375 20.453125 19.1875 8.296875 
z
" id="DejaVuSans-50"/>
      </defs>
      <g transform="translate(131.652648 268.988456)scale(0.12 -0.12)">
       <use xlink:href="#DejaVuSans-49"/>
       <use x="63.623047" xlink:href="#DejaVuSans-47"/>
       <use x="97.314453" xlink:href="#DejaVuSans-50"/>
      </g>
     </g>
    </g>
    <g id="xtick_4">
     <g id="line2d_4">
      <g>
       <use style="stroke:#000000;stroke-width:0.8;" x="184.518957" xlink:href="#m232b5654e1" y="252.870331"/>
      </g>
     </g>
     <g id="text_4">
      <!-- 7/10 -->
      <defs>
       <path d="M 8.203125 72.90625 
L 55.078125 72.90625 
L 55.078125 68.703125 
L 28.609375 0 
L 18.3125 0 
L 43.21875 64.59375 
L 8.203125 64.59375 
z
" id="DejaVuSans-55"/>
      </defs>
      <g transform="translate(171.045207 268.988456)scale(0.12 -0.12)">
       <use xlink:href="#DejaVuSans-55"/>
       <use x="63.623047" xlink:href="#DejaVuSans-47"/>
       <use x="97.314453" xlink:href="#DejaVuSans-49"/>
       <use x="160.9375" xlink:href="#DejaVuSans-48"/>
      </g>
     </g>
    </g>
    <g id="xtick_5">
     <g id="line2d_5">
      <g>
       <use style="stroke:#000000;stroke-width:0.8;" x="227.729016" xlink:href="#m232b5654e1" y="252.870331"/>
      </g>
     </g>
     <g id="text_5">
      <!-- 9/10 -->
      <defs>
       <path d="M 10.984375 1.515625 
L 10.984375 10.5 
Q 14.703125 8.734375 18.5 7.8125 
Q 22.3125 6.890625 25.984375 6.890625 
Q 35.75 6.890625 40.890625 13.453125 
Q 46.046875 20.015625 46.78125 33.40625 
Q 43.953125 29.203125 39.59375 26.953125 
Q 35.25 24.703125 29.984375 24.703125 
Q 19.046875 24.703125 12.671875 31.3125 
Q 6.296875 37.9375 6.296875 49.421875 
Q 6.296875 60.640625 12.9375 67.421875 
Q 19.578125 74.21875 30.609375 74.21875 
Q 43.265625 74.21875 49.921875 64.515625 
Q 56.59375 54.828125 56.59375 36.375 
Q 56.59375 19.140625 48.40625 8.859375 
Q 40.234375 -1.421875 26.421875 -1.421875 
Q 22.703125 -1.421875 18.890625 -0.6875 
Q 15.09375 0.046875 10.984375 1.515625 
z
M 30.609375 32.421875 
Q 37.25 32.421875 41.125 36.953125 
Q 45.015625 41.5 45.015625 49.421875 
Q 45.015625 57.28125 41.125 61.84375 
Q 37.25 66.40625 30.609375 66.40625 
Q 23.96875 66.40625 20.09375 61.84375 
Q 16.21875 57.28125 16.21875 49.421875 
Q 16.21875 41.5 20.09375 36.953125 
Q 23.96875 32.421875 30.609375 32.421875 
z
" id="DejaVuSans-57"/>
      </defs>
      <g transform="translate(214.255266 268.988456)scale(0.12 -0.12)">
       <use xlink:href="#DejaVuSans-57"/>
       <use x="63.623047" xlink:href="#DejaVuSans-47"/>
       <use x="97.314453" xlink:href="#DejaVuSans-49"/>
       <use x="160.9375" xlink:href="#DejaVuSans-48"/>
      </g>
     </g>
    </g>
    <g id="xtick_6">
     <g id="line2d_6">
      <g>
       <use style="stroke:#000000;stroke-width:0.8;" x="249.334046" xlink:href="#m232b5654e1" y="252.870331"/>
      </g>
     </g>
     <g id="text_6">
      <!-- 1 -->
      <g transform="translate(245.516546 268.988456)scale(0.12 -0.12)">
       <use xlink:href="#DejaVuSans-49"/>
      </g>
     </g>
    </g>
    <g id="text_7">
     <!-- $x$ -->
     <defs>
      <path d="M 7.8125 2.875 
Q 9.578125 1.515625 12.796875 1.515625 
Q 15.921875 1.515625 18.3125 4.515625 
Q 20.703125 7.515625 21.578125 11.078125 
L 26.125 28.8125 
Q 27.203125 33.640625 27.203125 35.40625 
Q 27.203125 37.890625 25.8125 39.75 
Q 24.421875 41.609375 21.921875 41.609375 
Q 18.75 41.609375 15.96875 39.625 
Q 13.1875 37.640625 11.28125 34.59375 
Q 9.375 31.546875 8.59375 28.421875 
Q 8.40625 27.78125 7.8125 27.78125 
L 6.59375 27.78125 
Q 5.8125 27.78125 5.8125 28.71875 
L 5.8125 29 
Q 6.78125 32.71875 9.125 36.25 
Q 11.46875 39.796875 14.859375 41.984375 
Q 18.265625 44.1875 22.125 44.1875 
Q 25.78125 44.1875 28.734375 42.234375 
Q 31.6875 40.28125 32.90625 36.921875 
Q 34.625 39.984375 37.28125 42.078125 
Q 39.9375 44.1875 43.109375 44.1875 
Q 45.265625 44.1875 47.5 43.421875 
Q 49.75 42.671875 51.171875 41.109375 
Q 52.59375 39.546875 52.59375 37.203125 
Q 52.59375 34.671875 50.953125 32.828125 
Q 49.3125 31 46.78125 31 
Q 45.171875 31 44.09375 32.03125 
Q 43.015625 33.0625 43.015625 34.625 
Q 43.015625 36.71875 44.453125 38.296875 
Q 45.90625 39.890625 47.90625 40.1875 
Q 46.09375 41.609375 42.921875 41.609375 
Q 39.703125 41.609375 37.328125 38.625 
Q 34.96875 35.640625 33.984375 31.984375 
L 29.59375 14.3125 
Q 28.515625 10.296875 28.515625 7.71875 
Q 28.515625 5.171875 29.953125 3.34375 
Q 31.390625 1.515625 33.796875 1.515625 
Q 38.484375 1.515625 42.15625 5.640625 
Q 45.84375 9.765625 47.015625 14.703125 
Q 47.21875 15.28125 47.796875 15.28125 
L 49.03125 15.28125 
Q 49.421875 15.28125 49.65625 15.015625 
Q 49.90625 14.75 49.90625 14.40625 
Q 49.90625 14.3125 49.8125 14.109375 
Q 48.390625 8.15625 43.84375 3.515625 
Q 39.3125 -1.125 33.59375 -1.125 
Q 29.9375 -1.125 26.984375 0.84375 
Q 24.03125 2.828125 22.796875 6.203125 
Q 21.234375 3.265625 18.46875 1.0625 
Q 15.71875 -1.125 12.59375 -1.125 
Q 10.453125 -1.125 8.171875 -0.359375 
Q 5.90625 0.390625 4.484375 1.953125 
Q 3.078125 3.515625 3.078125 5.90625 
Q 3.078125 8.25 4.703125 10.171875 
Q 6.34375 12.109375 8.796875 12.109375 
Q 10.453125 12.109375 11.578125 11.109375 
Q 12.703125 10.109375 12.703125 8.5 
Q 12.703125 6.390625 11.296875 4.828125 
Q 9.90625 3.265625 7.8125 2.875 
z
" id="Cmmi10-120"/>
     </defs>
     <g transform="translate(261.655052 252.870331)scale(0.19 -0.19)">
      <use transform="translate(0 0.8125)" xlink:href="#Cmmi10-120"/>
     </g>
    </g>
   </g>
   <g id="matplotlib.axis_2">
    <g id="ytick_1">
     <g id="line2d_7">
      <defs>
       <path d="M 0 0 
L -3.5 0 
" id="m1fe85b57e7" style="stroke:#000000;stroke-width:0.8;"/>
      </defs>
      <g>
       <use style="stroke:#000000;stroke-width:0.8;" x="33.28375" xlink:href="#m1fe85b57e7" y="252.870331"/>
      </g>
     </g>
    </g>
    <g id="ytick_2">
     <g id="line2d_8">
      <g>
       <use style="stroke:#000000;stroke-width:0.8;" x="33.28375" xlink:href="#m1fe85b57e7" y="37.888079"/>
      </g>
     </g>
     <g id="text_8">
      <!-- 1.0 -->
      <defs>
       <path d="M 10.6875 12.40625 
L 21 12.40625 
L 21 0 
L 10.6875 0 
z
" id="DejaVuSans-46"/>
      </defs>
      <g transform="translate(7.2 42.447142)scale(0.12 -0.12)">
       <use xlink:href="#DejaVuSans-49"/>
       <use x="63.623047" xlink:href="#DejaVuSans-46"/>
       <use x="95.410156" xlink:href="#DejaVuSans-48"/>
      </g>
     </g>
    </g>
    <g id="text_9">
     <!-- $y$ -->
     <defs>
      <path d="M 8.40625 -14.3125 
Q 10.5 -17.921875 15.71875 -17.921875 
Q 20.453125 -17.921875 23.921875 -14.59375 
Q 27.390625 -11.28125 29.515625 -6.5625 
Q 31.640625 -1.859375 32.8125 3.078125 
Q 28.375 -1.125 23.1875 -1.125 
Q 19.234375 -1.125 16.453125 0.234375 
Q 13.671875 1.609375 12.125 4.3125 
Q 10.59375 7.03125 10.59375 10.890625 
Q 10.59375 14.15625 11.46875 17.59375 
Q 12.359375 21.046875 13.9375 25.265625 
Q 15.53125 29.5 16.703125 32.625 
Q 18.015625 36.28125 18.015625 38.625 
Q 18.015625 41.609375 15.828125 41.609375 
Q 11.859375 41.609375 9.296875 37.53125 
Q 6.734375 33.453125 5.515625 28.421875 
Q 5.328125 27.78125 4.6875 27.78125 
L 3.515625 27.78125 
Q 2.6875 27.78125 2.6875 28.71875 
L 2.6875 29 
Q 4.296875 34.96875 7.609375 39.578125 
Q 10.9375 44.1875 16.015625 44.1875 
Q 19.578125 44.1875 22.046875 41.84375 
Q 24.515625 39.5 24.515625 35.890625 
Q 24.515625 34.03125 23.6875 31.984375 
Q 23.25 30.765625 21.6875 26.65625 
Q 20.125 22.5625 19.28125 19.875 
Q 18.453125 17.1875 17.921875 14.59375 
Q 17.390625 12.015625 17.390625 9.421875 
Q 17.390625 6.109375 18.796875 3.8125 
Q 20.21875 1.515625 23.296875 1.515625 
Q 29.5 1.515625 34.421875 9.078125 
L 42 39.890625 
Q 42.328125 41.21875 43.546875 42.15625 
Q 44.78125 43.109375 46.1875 43.109375 
Q 47.40625 43.109375 48.3125 42.328125 
Q 49.21875 41.546875 49.21875 40.28125 
Q 49.21875 39.703125 49.125 39.5 
L 39.203125 -0.296875 
Q 37.890625 -5.421875 34.375 -10.109375 
Q 30.859375 -14.796875 25.90625 -17.65625 
Q 20.953125 -20.515625 15.578125 -20.515625 
Q 12.984375 -20.515625 10.4375 -19.5 
Q 7.90625 -18.5 6.34375 -16.5 
Q 4.78125 -14.5 4.78125 -11.8125 
Q 4.78125 -9.078125 6.390625 -7.078125 
Q 8.015625 -5.078125 10.6875 -5.078125 
Q 12.3125 -5.078125 13.40625 -6.078125 
Q 14.5 -7.078125 14.5 -8.6875 
Q 14.5 -10.984375 12.78125 -12.6875 
Q 11.078125 -14.40625 8.796875 -14.40625 
Q 8.6875 -14.359375 8.59375 -14.328125 
Q 8.5 -14.3125 8.40625 -14.3125 
z
" id="Cmmi10-121"/>
     </defs>
     <g transform="translate(28.53375 21.598438)scale(0.19 -0.19)">
      <use transform="translate(0 0.8125)" xlink:href="#Cmmi10-121"/>
     </g>
    </g>
   </g>
   <g id="line2d_9">
    <path clip-path="url(#p7c229c5b15)" d="M 33.28375 252.870331 
L 33.472366 246.518279 
L 33.849597 241.868254 
L 34.509752 236.675712 
L 35.268041 232.267452 
L 36.323501 227.370098 
L 37.639741 222.344417 
L 39.390701 216.726232 
L 41.104302 211.968395 
L 43.133967 206.96659 
L 45.248464 202.278972 
L 47.454485 197.812212 
L 50.46097 192.25233 
L 53.705498 186.77487 
L 56.949906 181.718016 
L 60.541615 176.509422 
L 64.409176 171.271709 
L 69.247703 165.158357 
L 74.488236 158.985068 
L 78.466292 154.557432 
L 84.540346 148.157463 
L 89.770539 142.944788 
L 95.765125 137.258983 
L 102.31759 131.347972 
L 109.039703 125.56882 
L 117.014438 119.036009 
L 125.08945 112.731014 
L 133.904032 106.157553 
L 142.961677 99.696423 
L 152.828014 92.955204 
L 162.442015 86.649184 
L 173.21542 79.85556 
L 183.740531 73.46677 
L 194.590846 67.110456 
L 207.443849 59.851578 
L 220.473518 52.761513 
L 234.200162 45.554302 
L 248.00744 38.54912 
L 249.334046 37.888079 
L 249.334046 37.888079 
" style="fill:none;stroke:#0000ff;stroke-linecap:square;"/>
   </g>
   <g id="line2d_10">
    <path clip-path="url(#p7c229c5b15)" d="M 33.28375 252.870331 
L 33.28375 184.886974 
L 76.493809 184.886974 
L 76.493809 252.870331 
" style="fill:none;stroke:#ff0000;stroke-linecap:square;"/>
   </g>
   <g id="line2d_11">
    <path clip-path="url(#p7c229c5b15)" d="M 33.28375 184.886974 
L 76.493809 184.886974 
L 76.493809 184.886974 
" style="fill:none;stroke:#ff0000;stroke-linecap:square;"/>
   </g>
   <g id="line2d_12">
    <path clip-path="url(#p7c229c5b15)" d="M 76.493809 252.870331 
L 76.493809 135.119702 
L 119.703868 135.119702 
L 119.703868 252.870331 
" style="fill:none;stroke:#ff0000;stroke-linecap:square;"/>
   </g>
   <g id="line2d_13">
    <path clip-path="url(#p7c229c5b15)" d="M 76.493809 135.119702 
L 119.703868 135.119702 
L 119.703868 135.119702 
" style="fill:none;stroke:#ff0000;stroke-linecap:square;"/>
   </g>
   <g id="line2d_14">
    <path clip-path="url(#p7c229c5b15)" d="M 119.703868 252.870331 
L 119.703868 100.854923 
L 162.913928 100.854923 
L 162.913928 252.870331 
" style="fill:none;stroke:#ff0000;stroke-linecap:square;"/>
   </g>
   <g id="line2d_15">
    <path clip-path="url(#p7c229c5b15)" d="M 119.703868 100.854923 
L 162.913928 100.854923 
L 162.913928 100.854923 
" style="fill:none;stroke:#ff0000;stroke-linecap:square;"/>
   </g>
   <g id="line2d_16">
    <path clip-path="url(#p7c229c5b15)" d="M 162.913928 252.870331 
L 162.913928 73.003275 
L 206.123987 73.003275 
L 206.123987 252.870331 
" style="fill:none;stroke:#ff0000;stroke-linecap:square;"/>
   </g>
   <g id="line2d_17">
    <path clip-path="url(#p7c229c5b15)" d="M 162.913928 73.003275 
L 206.123987 73.003275 
L 206.123987 73.003275 
" style="fill:none;stroke:#ff0000;stroke-linecap:square;"/>
   </g>
   <g id="line2d_18">
    <path clip-path="url(#p7c229c5b15)" d="M 206.123987 252.870331 
L 206.123987 48.92026 
L 249.334046 48.92026 
L 249.334046 252.870331 
" style="fill:none;stroke:#ff0000;stroke-linecap:square;"/>
   </g>
   <g id="line2d_19">
    <path clip-path="url(#p7c229c5b15)" d="M 206.123987 48.92026 
L 249.334046 48.92026 
L 249.334046 48.92026 
" style="fill:none;stroke:#ff0000;stroke-linecap:square;"/>
   </g>
   <g id="patch_8">
    <path d="M 33.28375 257.169976 
L 33.28375 33.588438 
" style="fill:none;stroke:#000000;stroke-linecap:square;stroke-linejoin:miter;stroke-width:0.8;"/>
   </g>
   <g id="patch_9">
    <path d="M 28.962744 252.870331 
L 253.655052 252.870331 
" style="fill:none;stroke:#000000;stroke-linecap:square;stroke-linejoin:miter;stroke-width:0.8;"/>
   </g>
   <g id="text_10">
    <!-- $y=\sqrt{x}$ -->
    <defs>
     <path d="M 7.515625 13.28125 
Q 6.6875 13.28125 6.140625 13.90625 
Q 5.609375 14.546875 5.609375 15.28125 
Q 5.609375 16.109375 6.140625 16.6875 
Q 6.6875 17.28125 7.515625 17.28125 
L 70.3125 17.28125 
Q 71.046875 17.28125 71.578125 16.6875 
Q 72.125 16.109375 72.125 15.28125 
Q 72.125 14.546875 71.578125 13.90625 
Q 71.046875 13.28125 70.3125 13.28125 
z
M 7.515625 32.71875 
Q 6.6875 32.71875 6.140625 33.296875 
Q 5.609375 33.890625 5.609375 34.71875 
Q 5.609375 35.453125 6.140625 36.078125 
Q 6.6875 36.71875 7.515625 36.71875 
L 70.3125 36.71875 
Q 71.046875 36.71875 71.578125 36.078125 
Q 72.125 35.453125 72.125 34.71875 
Q 72.125 33.890625 71.578125 33.296875 
Q 71.046875 32.71875 70.3125 32.71875 
z
" id="Cmr10-61"/>
     <path d="M 42.390625 -116.015625 
L 19.828125 -63.484375 
L 12.796875 -68.890625 
L 10.984375 -67.09375 
L 25.296875 -56 
L 46.390625 -105.078125 
L 98.296875 3.078125 
Q 98.78125 4 100 4 
Q 100.828125 4 101.40625 3.40625 
Q 102 2.828125 102 2 
Q 102 1.515625 101.90625 1.3125 
L 46.09375 -115.09375 
Q 45.703125 -116.015625 44.578125 -116.015625 
z
" id="Cmex10-112"/>
    </defs>
    <g style="fill:#0000ff;" transform="translate(98.143868 67.428054)scale(0.14 -0.14)">
     <use transform="translate(0 0.578125)" xlink:href="#Cmmi10-121"/>
     <use transform="translate(66.582031 0.578125)" xlink:href="#Cmr10-61"/>
     <use transform="translate(161.826172 73.453125)scale(0.637938)" xlink:href="#Cmex10-112"/>
     <use transform="translate(238.107422 0.5625)" xlink:href="#Cmmi10-120"/>
     <path d="M 225.607422 69.5 
L 225.607422 75.75 
L 307.6875 75.75 
L 307.6875 69.5 
L 225.607422 69.5 
z
"/>
    </g>
   </g>
   <g id="text_11">
    <!-- $y=\sqrt{x}$ -->
    <g style="fill:#0000ff;" transform="translate(98.143868 67.428054)scale(0.14 -0.14)">
     <use transform="translate(0 0.578125)" xlink:href="#Cmmi10-121"/>
     <use transform="translate(66.582031 0.578125)" xlink:href="#Cmr10-61"/>
     <use transform="translate(161.826172 73.453125)scale(0.637938)" xlink:href="#Cmex10-112"/>
     <use transform="translate(238.107422 0.5625)" xlink:href="#Cmmi10-120"/>
     <path d="M 225.607422 69.5 
L 225.607422 75.75 
L 307.6875 75.75 
L 307.6875 69.5 
L 225.607422 69.5 
z
"/>
    </g>
   </g>
   <g id="text_12">
    <!-- $y=\sqrt{x}$ -->
    <g style="fill:#0000ff;" transform="translate(98.143868 67.428054)scale(0.14 -0.14)">
     <use transform="translate(0 0.578125)" xlink:href="#Cmmi10-121"/>
     <use transform="translate(66.582031 0.578125)" xlink:href="#Cmr10-61"/>
     <use transform="translate(161.826172 73.453125)scale(0.637938)" xlink:href="#Cmex10-112"/>
     <use transform="translate(238.107422 0.5625)" xlink:href="#Cmmi10-120"/>
     <path d="M 225.607422 69.5 
L 225.607422 75.75 
L 307.6875 75.75 
L 307.6875 69.5 
L 225.607422 69.5 
z
"/>
    </g>
   </g>
   <g id="text_13">
    <!-- $y=\sqrt{x}$ -->
    <g style="fill:#0000ff;" transform="translate(98.143868 67.428054)scale(0.14 -0.14)">
     <use transform="translate(0 0.578125)" xlink:href="#Cmmi10-121"/>
     <use transform="translate(66.582031 0.578125)" xlink:href="#Cmr10-61"/>
     <use transform="translate(161.826172 73.453125)scale(0.637938)" xlink:href="#Cmex10-112"/>
     <use transform="translate(238.107422 0.5625)" xlink:href="#Cmmi10-120"/>
     <path d="M 225.607422 69.5 
L 225.607422 75.75 
L 307.6875 75.75 
L 307.6875 69.5 
L 225.607422 69.5 
z
"/>
    </g>
   </g>
   <g id="text_14">
    <!-- $y=\sqrt{x}$ -->
    <g style="fill:#0000ff;" transform="translate(98.143868 67.428054)scale(0.14 -0.14)">
     <use transform="translate(0 0.578125)" xlink:href="#Cmmi10-121"/>
     <use transform="translate(66.582031 0.578125)" xlink:href="#Cmr10-61"/>
     <use transform="translate(161.826172 73.453125)scale(0.637938)" xlink:href="#Cmex10-112"/>
     <use transform="translate(238.107422 0.5625)" xlink:href="#Cmmi10-120"/>
     <path d="M 225.607422 69.5 
L 225.607422 75.75 
L 307.6875 75.75 
L 307.6875 69.5 
L 225.607422 69.5 
z
"/>
    </g>
   </g>
  </g>
 </g>
 <defs>
  <clipPath id="p7c229c5b15">
   <rect height="223.581538" width="224.692308" x="28.962744" y="33.588437"/>
  </clipPath>
 </defs>
</svg>
