<?xml version="1.0" encoding="utf-8" standalone="no"?>
<!DOCTYPE svg PUBLIC "-//W3C//DTD SVG 1.1//EN"
  "http://www.w3.org/Graphics/SVG/1.1/DTD/svg11.dtd">
<!-- Created with matplotlib (https://matplotlib.org/) -->
<svg height="274.634946pt" version="1.1" viewBox="0 0 279.283397 274.634946" width="279.283397pt" xmlns="http://www.w3.org/2000/svg" xmlns:xlink="http://www.w3.org/1999/xlink">
 <defs>
  <style type="text/css">
*{stroke-linecap:butt;stroke-linejoin:round;}
  </style>
 </defs>
 <g id="figure_1">
  <g id="patch_1">
   <path d="M 0 274.634946 
L 279.283397 274.634946 
L 279.283397 0 
L 0 0 
z
" style="fill:#ffffff;"/>
  </g>
  <g id="axes_1">
   <g id="patch_2">
    <path d="M 37.902286 252.769976 
L 253.063397 252.769976 
L 253.063397 33.588437 
L 37.902286 33.588437 
z
" style="fill:#ffffff;"/>
   </g>
   <g id="PathCollection_1">
    <path clip-path="url(#p55b62ee5bc)" d="M 42.04 250.136085 
C 42.459323 250.136085 42.861528 249.969486 43.158034 249.67298 
C 43.45454 249.376474 43.621139 248.974269 43.621139 248.554946 
C 43.621139 248.135623 43.45454 247.733418 43.158034 247.436912 
C 42.861528 247.140406 42.459323 246.973808 42.04 246.973808 
C 41.620677 246.973808 41.218472 247.140406 40.921966 247.436912 
C 40.62546 247.733418 40.458861 248.135623 40.458861 248.554946 
C 40.458861 248.974269 40.62546 249.376474 40.921966 249.67298 
C 41.218472 249.969486 41.620677 250.136085 42.04 250.136085 
z
" style="fill:#ff0000;"/>
   </g>
   <g id="PathCollection_2">
    <path clip-path="url(#p55b62ee5bc)" d="M 93.761421 236.964117 
C 94.180744 236.964117 94.582949 236.797518 94.879455 236.501012 
C 95.175961 236.204506 95.34256 235.802301 95.34256 235.382978 
C 95.34256 234.963655 95.175961 234.56145 94.879455 234.264944 
C 94.582949 233.968438 94.180744 233.801839 93.761421 233.801839 
C 93.342098 233.801839 92.939893 233.968438 92.643387 234.264944 
C 92.346881 234.56145 92.180282 234.963655 92.180282 235.382978 
C 92.180282 235.802301 92.346881 236.204506 92.643387 236.501012 
C 92.939893 236.797518 93.342098 236.964117 93.761421 236.964117 
z
" style="fill:#ff0000;"/>
   </g>
   <g id="PathCollection_3">
    <path clip-path="url(#p55b62ee5bc)" d="M 145.482842 197.448212 
C 145.902165 197.448212 146.30437 197.281613 146.600876 196.985107 
C 146.897382 196.688601 147.063981 196.286396 147.063981 195.867073 
C 147.063981 195.44775 146.897382 195.045545 146.600876 194.749039 
C 146.30437 194.452533 145.902165 194.285935 145.482842 194.285935 
C 145.063519 194.285935 144.661314 194.452533 144.364808 194.749039 
C 144.068302 195.045545 143.901703 195.44775 143.901703 195.867073 
C 143.901703 196.286396 144.068302 196.688601 144.364808 196.985107 
C 144.661314 197.281613 145.063519 197.448212 145.482842 197.448212 
z
" style="fill:#ff0000;"/>
   </g>
   <g id="PathCollection_4">
    <path clip-path="url(#p55b62ee5bc)" d="M 197.204263 131.588371 
C 197.623586 131.588371 198.025791 131.421772 198.322297 131.125266 
C 198.618803 130.82876 198.785401 130.426555 198.785401 130.007232 
C 198.785401 129.587909 198.618803 129.185704 198.322297 128.889198 
C 198.025791 128.592692 197.623586 128.426093 197.204263 128.426093 
C 196.78494 128.426093 196.382735 128.592692 196.086229 128.889198 
C 195.789723 129.185704 195.623124 129.587909 195.623124 130.007232 
C 195.623124 130.426555 195.789723 130.82876 196.086229 131.125266 
C 196.382735 131.421772 196.78494 131.588371 197.204263 131.588371 
z
" style="fill:#ff0000;"/>
   </g>
   <g id="patch_3">
    <path clip-path="url(#p55b62ee5bc)" d="M 42.04 248.554946 
L 42.04 248.554946 
L 42.330605 248.554946 
L 42.630163 248.554946 
L 42.810111 248.554946 
L 43.193986 248.554946 
L 43.215342 248.554946 
L 43.553855 248.554946 
L 43.747315 248.554946 
L 44.092163 248.554946 
L 44.342368 248.554946 
L 44.758209 248.554946 
L 44.82801 248.554946 
L 45.115386 248.554946 
L 45.442005 248.554946 
L 45.686063 248.554946 
L 45.966006 248.554946 
L 46.267307 248.554946 
L 46.575256 248.554946 
L 46.800324 248.554946 
L 46.913343 248.554946 
L 47.237898 248.554946 
L 47.539592 248.554946 
L 47.884469 248.554946 
L 47.997411 248.554946 
L 48.331209 248.554946 
L 48.641025 248.554946 
L 48.889423 248.554946 
L 49.059108 248.554946 
L 49.279938 248.554946 
L 49.527311 248.554946 
L 49.897508 248.554946 
L 50.211314 248.554946 
L 50.380753 248.554946 
L 50.533002 248.554946 
L 50.911643 248.554946 
L 51.112635 248.554946 
L 51.337299 248.554946 
L 51.579939 248.554946 
L 51.901452 248.554946 
L 52.177917 248.554946 
L 52.353751 248.554946 
L 52.683049 248.554946 
L 52.87469 248.554946 
L 53.118055 248.554946 
L 53.413127 248.554946 
L 53.66103 248.554946 
L 54.118211 248.554946 
L 54.296001 248.554946 
L 54.58005 248.554946 
L 54.783079 248.554946 
L 55.055787 248.554946 
L 55.304727 248.554946 
L 55.580811 248.554946 
L 55.727721 248.554946 
L 56.144661 248.554946 
L 56.318904 248.554946 
L 56.532407 248.554946 
L 56.85709 248.554946 
L 57.220928 248.554946 
L 57.436587 248.554946 
L 57.669888 248.554946 
L 57.792226 248.554946 
L 58.10209 248.554946 
L 58.437641 248.554946 
L 58.637732 248.554946 
L 58.824817 248.554946 
L 59.146325 248.554946 
L 59.400611 248.554946 
L 59.66637 248.554946 
L 59.999188 248.554946 
L 60.186231 248.554946 
L 60.61224 248.554946 
L 60.813051 248.554946 
L 61.045455 248.554946 
L 61.346227 248.554946 
L 61.600638 248.554946 
L 61.91259 248.554946 
L 61.986108 248.554946 
L 62.242494 248.554946 
L 62.521075 248.554946 
L 62.819043 248.554946 
L 63.204373 248.554946 
L 63.309409 248.554946 
L 63.517434 248.554946 
L 63.858538 248.554946 
L 64.026914 248.554946 
L 64.334394 248.554946 
L 64.674406 248.554946 
L 64.826613 248.554946 
L 65.292876 248.554946 
L 65.420493 248.554946 
L 65.73894 248.554946 
L 66.013339 248.554946 
L 66.285171 248.554946 
L 66.575079 248.554946 
L 66.678475 248.554946 
L 66.906542 248.554946 
L 67.138488 248.554946 
L 67.518673 248.554946 
L 67.869764 248.554946 
L 68.003372 248.554946 
L 68.390556 248.554946 
L 68.615044 248.554946 
L 68.767304 248.554946 
L 68.953554 248.554946 
L 69.426292 248.554946 
L 69.494803 248.554946 
L 69.816849 248.554946 
L 70.008981 248.554946 
L 70.403605 248.554946 
L 70.661395 248.554946 
L 70.856889 248.554946 
L 71.237474 248.554946 
L 71.302806 248.554946 
L 71.770824 248.554946 
L 72.00119 248.554946 
L 72.11321 248.554946 
L 72.454112 248.554946 
L 72.743197 248.554946 
L 72.864205 248.554946 
L 73.220735 248.554946 
L 73.486301 248.554946 
L 73.658106 248.554946 
L 74.095557 248.554946 
L 74.368945 248.554946 
L 74.462291 248.554946 
L 74.771082 248.554946 
L 75.15261 248.554946 
L 75.416721 248.554946 
L 75.565047 248.554946 
L 75.834604 248.554946 
L 76.154109 248.554946 
L 76.283975 248.554946 
L 76.717163 248.554946 
L 76.778653 248.554946 
L 77.194005 248.554946 
L 77.384235 248.554946 
L 77.63259 248.554946 
L 77.944643 248.554946 
L 78.174605 248.554946 
L 78.513318 248.554946 
L 78.788623 248.554946 
L 78.936894 248.554946 
L 79.07764 248.554946 
L 79.562976 248.554946 
L 79.641081 248.554946 
L 80.008522 248.554946 
L 80.219792 248.554946 
L 80.566479 248.554946 
L 80.880451 248.554946 
L 81.063599 248.554946 
L 81.209354 248.554946 
L 81.598891 248.554946 
L 81.849712 248.554946 
L 82.066294 248.554946 
L 82.286187 248.554946 
L 82.570712 248.554946 
L 82.884358 248.554946 
L 83.222693 248.554946 
L 83.407278 248.554946 
L 83.678848 248.554946 
L 83.828702 248.554946 
L 84.240985 248.554946 
L 84.509157 248.554946 
L 84.771447 248.554946 
L 84.892218 248.554946 
L 85.106568 248.554946 
L 85.357377 248.554946 
L 85.668133 248.554946 
L 86.057161 248.554946 
L 86.285242 248.554946 
L 86.363423 248.554946 
L 86.767289 248.554946 
L 87.088002 248.554946 
L 87.14808 248.554946 
L 87.41483 248.554946 
L 87.682286 248.554946 
L 88.105678 248.554946 
L 88.199414 248.554946 
L 88.46818 248.554946 
L 88.913773 248.554946 
L 89.035091 248.554946 
L 89.340003 248.554946 
L 89.585595 248.554946 
L 89.797861 248.554946 
L 90.248942 248.554946 
L 90.323142 248.554946 
L 90.602372 248.554946 
L 91.002434 248.554946 
L 91.259747 248.554946 
L 91.29962 248.554946 
L 91.741773 248.554946 
L 91.915289 248.554946 
L 92.297998 248.554946 
L 92.505243 248.554946 
L 92.819766 248.554946 
L 93.003434 248.554946 
L 93.115573 248.554946 
L 93.548 248.554946 
L 93.761421 248.554946 
L 93.761421 248.554946 
z
" style="fill:#cde0eb;opacity:0.5;"/>
   </g>
   <g id="patch_4">
    <path clip-path="url(#p55b62ee5bc)" d="M 93.761421 248.554946 
L 93.761421 235.382978 
L 93.911124 235.382978 
L 94.402205 235.382978 
L 94.429216 235.382978 
L 94.829717 235.382978 
L 95.118186 235.382978 
L 95.407955 235.382978 
L 95.596457 235.382978 
L 95.924941 235.382978 
L 96.023438 235.382978 
L 96.450165 235.382978 
L 96.737401 235.382978 
L 96.840806 235.382978 
L 97.029977 235.382978 
L 97.360458 235.382978 
L 97.719867 235.382978 
L 97.876362 235.382978 
L 98.186121 235.382978 
L 98.544979 235.382978 
L 98.72401 235.382978 
L 98.997656 235.382978 
L 99.250158 235.382978 
L 99.420149 235.382978 
L 99.790395 235.382978 
L 99.878294 235.382978 
L 100.243058 235.382978 
L 100.62518 235.382978 
L 100.882716 235.382978 
L 101.143658 235.382978 
L 101.255573 235.382978 
L 101.462865 235.382978 
L 101.71981 235.382978 
L 101.98266 235.382978 
L 102.247622 235.382978 
L 102.519863 235.382978 
L 102.821253 235.382978 
L 103.00932 235.382978 
L 103.463275 235.382978 
L 103.684407 235.382978 
L 103.857836 235.382978 
L 104.050055 235.382978 
L 104.312386 235.382978 
L 104.689347 235.382978 
L 105.064988 235.382978 
L 105.141869 235.382978 
L 105.437563 235.382978 
L 105.696753 235.382978 
L 105.926238 235.382978 
L 106.155141 235.382978 
L 106.411396 235.382978 
L 106.660527 235.382978 
L 106.942244 235.382978 
L 107.309448 235.382978 
L 107.511536 235.382978 
L 107.719882 235.382978 
L 108.073575 235.382978 
L 108.444406 235.382978 
L 108.597777 235.382978 
L 108.797115 235.382978 
L 109.19695 235.382978 
L 109.283818 235.382978 
L 109.508824 235.382978 
L 110.000842 235.382978 
L 110.17398 235.382978 
L 110.382424 235.382978 
L 110.622934 235.382978 
L 110.882373 235.382978 
L 111.190051 235.382978 
L 111.556027 235.382978 
L 111.809172 235.382978 
L 111.835531 235.382978 
L 112.126566 235.382978 
L 112.405301 235.382978 
L 112.739566 235.382978 
L 112.937696 235.382978 
L 113.191843 235.382978 
L 113.565936 235.382978 
L 113.65916 235.382978 
L 114.006743 235.382978 
L 114.40406 235.382978 
L 114.617845 235.382978 
L 114.908534 235.382978 
L 115.099592 235.382978 
L 115.327603 235.382978 
L 115.569496 235.382978 
L 115.782164 235.382978 
L 116.220746 235.382978 
L 116.358064 235.382978 
L 116.627204 235.382978 
L 116.903474 235.382978 
L 117.039751 235.382978 
L 117.465749 235.382978 
L 117.630547 235.382978 
L 117.890916 235.382978 
L 118.31991 235.382978 
L 118.370775 235.382978 
L 118.692858 235.382978 
L 118.991688 235.382978 
L 119.148553 235.382978 
L 119.366587 235.382978 
L 119.829774 235.382978 
L 120.038346 235.382978 
L 120.159294 235.382978 
L 120.636432 235.382978 
L 120.721591 235.382978 
L 120.922183 235.382978 
L 121.251793 235.382978 
L 121.671503 235.382978 
L 121.753101 235.382978 
L 122.165774 235.382978 
L 122.358099 235.382978 
L 122.643002 235.382978 
L 122.800175 235.382978 
L 123.001573 235.382978 
L 123.418385 235.382978 
L 123.769755 235.382978 
L 123.987685 235.382978 
L 124.201556 235.382978 
L 124.429377 235.382978 
L 124.633339 235.382978 
L 124.821495 235.382978 
L 125.297253 235.382978 
L 125.461045 235.382978 
L 125.75619 235.382978 
L 125.958515 235.382978 
L 126.312344 235.382978 
L 126.536872 235.382978 
L 126.881489 235.382978 
L 127.092344 235.382978 
L 127.248112 235.382978 
L 127.547014 235.382978 
L 127.891858 235.382978 
L 128.144336 235.382978 
L 128.211361 235.382978 
L 128.520587 235.382978 
L 128.913731 235.382978 
L 129.217046 235.382978 
L 129.403414 235.382978 
L 129.541036 235.382978 
L 129.893348 235.382978 
L 130.096203 235.382978 
L 130.299895 235.382978 
L 130.786901 235.382978 
L 131.013797 235.382978 
L 131.222876 235.382978 
L 131.463059 235.382978 
L 131.722933 235.382978 
L 131.989346 235.382978 
L 132.28887 235.382978 
L 132.507965 235.382978 
L 132.735641 235.382978 
L 133.092534 235.382978 
L 133.208135 235.382978 
L 133.496149 235.382978 
L 133.770005 235.382978 
L 133.923576 235.382978 
L 134.401314 235.382978 
L 134.544693 235.382978 
L 134.76961 235.382978 
L 135.072643 235.382978 
L 135.43704 235.382978 
L 135.630279 235.382978 
L 135.859427 235.382978 
L 136.043596 235.382978 
L 136.269073 235.382978 
L 136.771497 235.382978 
L 136.893494 235.382978 
L 137.217584 235.382978 
L 137.352006 235.382978 
L 137.669763 235.382978 
L 137.854011 235.382978 
L 138.205608 235.382978 
L 138.379079 235.382978 
L 138.640869 235.382978 
L 139.045665 235.382978 
L 139.135427 235.382978 
L 139.588499 235.382978 
L 139.857959 235.382978 
L 140.119044 235.382978 
L 140.364028 235.382978 
L 140.519872 235.382978 
L 140.746332 235.382978 
L 141.156391 235.382978 
L 141.277669 235.382978 
L 141.577078 235.382978 
L 141.812633 235.382978 
L 142.026412 235.382978 
L 142.491038 235.382978 
L 142.497341 235.382978 
L 142.816092 235.382978 
L 143.056374 235.382978 
L 143.340302 235.382978 
L 143.647809 235.382978 
L 144.019143 235.382978 
L 144.13771 235.382978 
L 144.340128 235.382978 
L 144.764887 235.382978 
L 145.052833 235.382978 
L 145.230878 235.382978 
L 145.482842 235.382978 
L 145.482842 248.554946 
z
" style="fill:#cde0eb;opacity:0.5;"/>
   </g>
   <g id="patch_5">
    <path clip-path="url(#p55b62ee5bc)" d="M 145.482842 248.554946 
L 145.482842 195.867073 
L 145.797033 195.867073 
L 145.948082 195.867073 
L 146.259062 195.867073 
L 146.479089 195.867073 
L 146.813332 195.867073 
L 147.149892 195.867073 
L 147.252651 195.867073 
L 147.500356 195.867073 
L 147.947767 195.867073 
L 148.190692 195.867073 
L 148.402185 195.867073 
L 148.569606 195.867073 
L 148.965923 195.867073 
L 149.014046 195.867073 
L 149.273945 195.867073 
L 149.655646 195.867073 
L 150.019737 195.867073 
L 150.230824 195.867073 
L 150.453158 195.867073 
L 150.565473 195.867073 
L 151.050379 195.867073 
L 151.152385 195.867073 
L 151.556509 195.867073 
L 151.696445 195.867073 
L 152.077266 195.867073 
L 152.350884 195.867073 
L 152.596657 195.867073 
L 152.710385 195.867073 
L 153.054448 195.867073 
L 153.39036 195.867073 
L 153.413512 195.867073 
L 153.830793 195.867073 
L 153.939649 195.867073 
L 154.41264 195.867073 
L 154.691201 195.867073 
L 154.7421 195.867073 
L 154.991713 195.867073 
L 155.393359 195.867073 
L 155.690695 195.867073 
L 155.960681 195.867073 
L 156.262655 195.867073 
L 156.466878 195.867073 
L 156.765589 195.867073 
L 156.902901 195.867073 
L 157.169219 195.867073 
L 157.549988 195.867073 
L 157.707187 195.867073 
L 158.038582 195.867073 
L 158.124839 195.867073 
L 158.355769 195.867073 
L 158.763999 195.867073 
L 158.986509 195.867073 
L 159.337669 195.867073 
L 159.489266 195.867073 
L 159.784166 195.867073 
L 159.925547 195.867073 
L 160.180424 195.867073 
L 160.488005 195.867073 
L 160.855657 195.867073 
L 160.950608 195.867073 
L 161.379761 195.867073 
L 161.492158 195.867073 
L 161.980062 195.867073 
L 162.204671 195.867073 
L 162.409631 195.867073 
L 162.531246 195.867073 
L 162.856239 195.867073 
L 163.130723 195.867073 
L 163.457575 195.867073 
L 163.76788 195.867073 
L 163.916188 195.867073 
L 164.325175 195.867073 
L 164.475952 195.867073 
L 164.686838 195.867073 
L 164.900298 195.867073 
L 165.240268 195.867073 
L 165.579995 195.867073 
L 165.751361 195.867073 
L 165.95134 195.867073 
L 166.205659 195.867073 
L 166.587951 195.867073 
L 166.797039 195.867073 
L 167.036858 195.867073 
L 167.243578 195.867073 
L 167.573089 195.867073 
L 167.810402 195.867073 
L 168.023426 195.867073 
L 168.286017 195.867073 
L 168.588333 195.867073 
L 168.803076 195.867073 
L 169.192223 195.867073 
L 169.450892 195.867073 
L 169.651033 195.867073 
L 169.829703 195.867073 
L 170.179799 195.867073 
L 170.468698 195.867073 
L 170.772176 195.867073 
L 170.875191 195.867073 
L 171.294752 195.867073 
L 171.539486 195.867073 
L 171.779435 195.867073 
L 171.87197 195.867073 
L 172.128642 195.867073 
L 172.519958 195.867073 
L 172.900681 195.867073 
L 173.160926 195.867073 
L 173.275852 195.867073 
L 173.641913 195.867073 
L 173.709233 195.867073 
L 174.009477 195.867073 
L 174.314564 195.867073 
L 174.672665 195.867073 
L 174.772959 195.867073 
L 175.068364 195.867073 
L 175.32723 195.867073 
L 175.656569 195.867073 
L 176.006671 195.867073 
L 176.148531 195.867073 
L 176.425024 195.867073 
L 176.756149 195.867073 
L 176.865994 195.867073 
L 177.153401 195.867073 
L 177.531178 195.867073 
L 177.748735 195.867073 
L 177.847057 195.867073 
L 178.306814 195.867073 
L 178.5984 195.867073 
L 178.696652 195.867073 
L 178.950923 195.867073 
L 179.183259 195.867073 
L 179.493231 195.867073 
L 179.880618 195.867073 
L 180.176941 195.867073 
L 180.408027 195.867073 
L 180.69259 195.867073 
L 180.87103 195.867073 
L 181.180319 195.867073 
L 181.45025 195.867073 
L 181.684906 195.867073 
L 181.926279 195.867073 
L 182.004875 195.867073 
L 182.442257 195.867073 
L 182.754006 195.867073 
L 182.89204 195.867073 
L 183.213034 195.867073 
L 183.34278 195.867073 
L 183.800429 195.867073 
L 183.9361 195.867073 
L 184.133891 195.867073 
L 184.462016 195.867073 
L 184.753379 195.867073 
L 185.011197 195.867073 
L 185.189473 195.867073 
L 185.451764 195.867073 
L 185.669712 195.867073 
L 186.104013 195.867073 
L 186.290256 195.867073 
L 186.601859 195.867073 
L 186.753785 195.867073 
L 186.981482 195.867073 
L 187.306278 195.867073 
L 187.577771 195.867073 
L 187.973807 195.867073 
L 188.161442 195.867073 
L 188.469011 195.867073 
L 188.676832 195.867073 
L 188.815011 195.867073 
L 189.210562 195.867073 
L 189.483412 195.867073 
L 189.7643 195.867073 
L 190.01891 195.867073 
L 190.177105 195.867073 
L 190.360443 195.867073 
L 190.640474 195.867073 
L 191.022086 195.867073 
L 191.260578 195.867073 
L 191.570219 195.867073 
L 191.818996 195.867073 
L 192.035036 195.867073 
L 192.210624 195.867073 
L 192.454017 195.867073 
L 192.89928 195.867073 
L 192.951761 195.867073 
L 193.389551 195.867073 
L 193.541834 195.867073 
L 193.92486 195.867073 
L 194.131601 195.867073 
L 194.343842 195.867073 
L 194.563632 195.867073 
L 194.973357 195.867073 
L 195.170838 195.867073 
L 195.47557 195.867073 
L 195.562974 195.867073 
L 195.836247 195.867073 
L 196.246905 195.867073 
L 196.543652 195.867073 
L 196.689356 195.867073 
L 196.821355 195.867073 
L 197.204263 195.867073 
L 197.204263 248.554946 
z
" style="fill:#cde0eb;opacity:0.5;"/>
   </g>
   <g id="patch_6">
    <path clip-path="url(#p55b62ee5bc)" d="M 197.204263 248.554946 
L 197.204263 130.007232 
L 197.415686 130.007232 
L 197.66646 130.007232 
L 197.908312 130.007232 
L 198.256142 130.007232 
L 198.583846 130.007232 
L 198.863111 130.007232 
L 199.000862 130.007232 
L 199.331105 130.007232 
L 199.43381 130.007232 
L 199.730042 130.007232 
L 200.063866 130.007232 
L 200.279993 130.007232 
L 200.583109 130.007232 
L 200.878811 130.007232 
L 201.134332 130.007232 
L 201.325861 130.007232 
L 201.742419 130.007232 
L 201.847218 130.007232 
L 202.071405 130.007232 
L 202.522143 130.007232 
L 202.66667 130.007232 
L 202.817745 130.007232 
L 203.289662 130.007232 
L 203.478552 130.007232 
L 203.628862 130.007232 
L 204.031888 130.007232 
L 204.143182 130.007232 
L 204.450107 130.007232 
L 204.80346 130.007232 
L 205.043269 130.007232 
L 205.32544 130.007232 
L 205.511016 130.007232 
L 205.851206 130.007232 
L 206.083931 130.007232 
L 206.388224 130.007232 
L 206.514506 130.007232 
L 206.881559 130.007232 
L 206.961208 130.007232 
L 207.465572 130.007232 
L 207.562989 130.007232 
L 207.886717 130.007232 
L 208.087649 130.007232 
L 208.406495 130.007232 
L 208.534278 130.007232 
L 208.914612 130.007232 
L 209.132713 130.007232 
L 209.546448 130.007232 
L 209.752963 130.007232 
L 209.98768 130.007232 
L 210.328457 130.007232 
L 210.397477 130.007232 
L 210.800167 130.007232 
L 210.88513 130.007232 
L 211.212606 130.007232 
L 211.541419 130.007232 
L 211.660056 130.007232 
L 212.080907 130.007232 
L 212.220153 130.007232 
L 212.489464 130.007232 
L 212.864841 130.007232 
L 213.119179 130.007232 
L 213.194055 130.007232 
L 213.570313 130.007232 
L 213.894478 130.007232 
L 214.121609 130.007232 
L 214.365014 130.007232 
L 214.690295 130.007232 
L 214.979854 130.007232 
L 215.01835 130.007232 
L 215.456219 130.007232 
L 215.558649 130.007232 
L 215.921977 130.007232 
L 216.086377 130.007232 
L 216.414851 130.007232 
L 216.590697 130.007232 
L 217.074929 130.007232 
L 217.197102 130.007232 
L 217.45759 130.007232 
L 217.814379 130.007232 
L 217.996555 130.007232 
L 218.319797 130.007232 
L 218.584194 130.007232 
L 218.782767 130.007232 
L 218.910937 130.007232 
L 219.192417 130.007232 
L 219.584799 130.007232 
L 219.815685 130.007232 
L 219.966161 130.007232 
L 220.24214 130.007232 
L 220.646905 130.007232 
L 220.731871 130.007232 
L 221.222832 130.007232 
L 221.478998 130.007232 
L 221.758887 130.007232 
L 221.875234 130.007232 
L 222.193337 130.007232 
L 222.368955 130.007232 
L 222.551079 130.007232 
L 222.920715 130.007232 
L 223.234797 130.007232 
L 223.387726 130.007232 
L 223.71947 130.007232 
L 224.067062 130.007232 
L 224.306112 130.007232 
L 224.498557 130.007232 
L 224.847498 130.007232 
L 224.960774 130.007232 
L 225.193831 130.007232 
L 225.438136 130.007232 
L 225.673738 130.007232 
L 225.94268 130.007232 
L 226.364484 130.007232 
L 226.642498 130.007232 
L 226.873778 130.007232 
L 227.051259 130.007232 
L 227.383644 130.007232 
L 227.720277 130.007232 
L 227.985123 130.007232 
L 228.204195 130.007232 
L 228.4707 130.007232 
L 228.536877 130.007232 
L 228.868931 130.007232 
L 229.210405 130.007232 
L 229.373006 130.007232 
L 229.790672 130.007232 
L 230.052125 130.007232 
L 230.212233 130.007232 
L 230.521438 130.007232 
L 230.656759 130.007232 
L 231.04308 130.007232 
L 231.319494 130.007232 
L 231.544714 130.007232 
L 231.705895 130.007232 
L 232.137685 130.007232 
L 232.191235 130.007232 
L 232.63554 130.007232 
L 232.879956 130.007232 
L 232.956157 130.007232 
L 233.435457 130.007232 
L 233.692143 130.007232 
L 233.803015 130.007232 
L 233.998805 130.007232 
L 234.425623 130.007232 
L 234.703176 130.007232 
L 234.847416 130.007232 
L 235.252181 130.007232 
L 235.457063 130.007232 
L 235.66722 130.007232 
L 235.83739 130.007232 
L 236.201896 130.007232 
L 236.391963 130.007232 
L 236.593673 130.007232 
L 236.92631 130.007232 
L 237.198869 130.007232 
L 237.545229 130.007232 
L 237.80403 130.007232 
L 237.909117 130.007232 
L 238.325304 130.007232 
L 238.55227 130.007232 
L 238.847366 130.007232 
L 239.132266 130.007232 
L 239.305216 130.007232 
L 239.503414 130.007232 
L 239.818274 130.007232 
L 239.998556 130.007232 
L 240.328961 130.007232 
L 240.701084 130.007232 
L 240.918544 130.007232 
L 241.140745 130.007232 
L 241.350797 130.007232 
L 241.605473 130.007232 
L 241.981346 130.007232 
L 242.110088 130.007232 
L 242.533319 130.007232 
L 242.575291 130.007232 
L 242.941441 130.007232 
L 243.201042 130.007232 
L 243.546054 130.007232 
L 243.618689 130.007232 
L 244.032321 130.007232 
L 244.30042 130.007232 
L 244.505375 130.007232 
L 244.750556 130.007232 
L 245.064954 130.007232 
L 245.268088 130.007232 
L 245.525112 130.007232 
L 245.806125 130.007232 
L 246.070741 130.007232 
L 246.260355 130.007232 
L 246.625552 130.007232 
L 246.742395 130.007232 
L 247.209689 130.007232 
L 247.356757 130.007232 
L 247.576678 130.007232 
L 247.990145 130.007232 
L 248.069033 130.007232 
L 248.450903 130.007232 
L 248.71196 130.007232 
L 248.925683 130.007232 
L 248.925683 248.554946 
z
" style="fill:#cde0eb;opacity:0.5;"/>
   </g>
   <g id="matplotlib.axis_1">
    <g id="xtick_1">
     <g id="line2d_1">
      <defs>
       <path d="M 0 0 
L 0 3.5 
" id="mc318785158" style="stroke:#000000;stroke-width:0.8;"/>
      </defs>
      <g>
       <use style="stroke:#000000;stroke-width:0.8;" x="42.04" xlink:href="#mc318785158" y="248.554946"/>
      </g>
     </g>
    </g>
    <g id="xtick_2">
     <g id="line2d_2">
      <g>
       <use style="stroke:#000000;stroke-width:0.8;" x="93.761421" xlink:href="#mc318785158" y="248.554946"/>
      </g>
     </g>
     <g id="text_1">
      <!-- $x_1^{\ast}$ -->
      <defs>
       <path d="M 7.8125 2.875 
Q 9.578125 1.515625 12.796875 1.515625 
Q 15.921875 1.515625 18.3125 4.515625 
Q 20.703125 7.515625 21.578125 11.078125 
L 26.125 28.8125 
Q 27.203125 33.640625 27.203125 35.40625 
Q 27.203125 37.890625 25.8125 39.75 
Q 24.421875 41.609375 21.921875 41.609375 
Q 18.75 41.609375 15.96875 39.625 
Q 13.1875 37.640625 11.28125 34.59375 
Q 9.375 31.546875 8.59375 28.421875 
Q 8.40625 27.78125 7.8125 27.78125 
L 6.59375 27.78125 
Q 5.8125 27.78125 5.8125 28.71875 
L 5.8125 29 
Q 6.78125 32.71875 9.125 36.25 
Q 11.46875 39.796875 14.859375 41.984375 
Q 18.265625 44.1875 22.125 44.1875 
Q 25.78125 44.1875 28.734375 42.234375 
Q 31.6875 40.28125 32.90625 36.921875 
Q 34.625 39.984375 37.28125 42.078125 
Q 39.9375 44.1875 43.109375 44.1875 
Q 45.265625 44.1875 47.5 43.421875 
Q 49.75 42.671875 51.171875 41.109375 
Q 52.59375 39.546875 52.59375 37.203125 
Q 52.59375 34.671875 50.953125 32.828125 
Q 49.3125 31 46.78125 31 
Q 45.171875 31 44.09375 32.03125 
Q 43.015625 33.0625 43.015625 34.625 
Q 43.015625 36.71875 44.453125 38.296875 
Q 45.90625 39.890625 47.90625 40.1875 
Q 46.09375 41.609375 42.921875 41.609375 
Q 39.703125 41.609375 37.328125 38.625 
Q 34.96875 35.640625 33.984375 31.984375 
L 29.59375 14.3125 
Q 28.515625 10.296875 28.515625 7.71875 
Q 28.515625 5.171875 29.953125 3.34375 
Q 31.390625 1.515625 33.796875 1.515625 
Q 38.484375 1.515625 42.15625 5.640625 
Q 45.84375 9.765625 47.015625 14.703125 
Q 47.21875 15.28125 47.796875 15.28125 
L 49.03125 15.28125 
Q 49.421875 15.28125 49.65625 15.015625 
Q 49.90625 14.75 49.90625 14.40625 
Q 49.90625 14.3125 49.8125 14.109375 
Q 48.390625 8.15625 43.84375 3.515625 
Q 39.3125 -1.125 33.59375 -1.125 
Q 29.9375 -1.125 26.984375 0.84375 
Q 24.03125 2.828125 22.796875 6.203125 
Q 21.234375 3.265625 18.46875 1.0625 
Q 15.71875 -1.125 12.59375 -1.125 
Q 10.453125 -1.125 8.171875 -0.359375 
Q 5.90625 0.390625 4.484375 1.953125 
Q 3.078125 3.515625 3.078125 5.90625 
Q 3.078125 8.25 4.703125 10.171875 
Q 6.34375 12.109375 8.796875 12.109375 
Q 10.453125 12.109375 11.578125 11.109375 
Q 12.703125 10.109375 12.703125 8.5 
Q 12.703125 6.390625 11.296875 4.828125 
Q 9.90625 3.265625 7.8125 2.875 
z
" id="Cmmi10-120"/>
       <path d="M 9.421875 12.703125 
Q 8.296875 12.703125 7.390625 13.640625 
Q 6.5 14.59375 6.5 15.71875 
Q 6.5 17.4375 7.90625 18.109375 
L 22.3125 25 
L 7.90625 31.78125 
Q 6.5 32.375 6.5 34.1875 
Q 6.5 35.296875 7.390625 36.25 
Q 8.296875 37.203125 9.421875 37.203125 
Q 10.15625 37.203125 10.796875 36.71875 
L 23.578125 27.390625 
L 22.125 43.703125 
Q 22.125 44.921875 22.953125 45.703125 
Q 23.78125 46.484375 25 46.484375 
Q 26.171875 46.484375 26.96875 45.75 
Q 27.78125 45.015625 27.78125 43.890625 
L 27.78125 43.703125 
L 26.3125 27.390625 
L 39.109375 36.71875 
Q 39.75 37.203125 40.484375 37.203125 
Q 41.703125 37.203125 42.546875 36.25 
Q 43.40625 35.296875 43.40625 34.1875 
Q 43.40625 32.375 42 31.78125 
L 27.59375 25 
L 42 18.109375 
Q 43.40625 17.4375 43.40625 15.71875 
Q 43.40625 14.59375 42.546875 13.640625 
Q 41.703125 12.703125 40.484375 12.703125 
Q 39.75 12.703125 39.109375 13.1875 
L 26.3125 22.515625 
L 27.78125 6.296875 
L 27.78125 6 
Q 27.78125 4.890625 26.921875 4.15625 
Q 26.078125 3.421875 25 3.421875 
Q 23.828125 3.421875 22.96875 4.21875 
Q 22.125 5.03125 22.125 6.203125 
L 23.578125 22.515625 
L 10.796875 13.1875 
Q 10.15625 12.703125 9.421875 12.703125 
z
" id="Cmsy10-164"/>
       <path d="M 9.28125 0 
L 9.28125 3.515625 
Q 21.78125 3.515625 21.78125 6.6875 
L 21.78125 59.1875 
Q 16.609375 56.6875 8.6875 56.6875 
L 8.6875 60.203125 
Q 20.953125 60.203125 27.203125 66.609375 
L 28.609375 66.609375 
Q 28.953125 66.609375 29.265625 66.328125 
Q 29.59375 66.0625 29.59375 65.71875 
L 29.59375 6.6875 
Q 29.59375 3.515625 42.09375 3.515625 
L 42.09375 0 
z
" id="Cmr10-49"/>
      </defs>
      <g transform="translate(87.461421 264.074946)scale(0.12 -0.12)">
       <use transform="translate(0 0.196875)" xlink:href="#Cmmi10-120"/>
       <use transform="translate(63.383359 38.460938)scale(0.7)" xlink:href="#Cmsy10-164"/>
       <use transform="translate(57.080078 -25.3125)scale(0.7)" xlink:href="#Cmr10-49"/>
      </g>
     </g>
    </g>
    <g id="xtick_3">
     <g id="line2d_3">
      <g>
       <use style="stroke:#000000;stroke-width:0.8;" x="145.482842" xlink:href="#mc318785158" y="248.554946"/>
      </g>
     </g>
     <g id="text_2">
      <!-- $x_2^{\ast}$ -->
      <defs>
       <path d="M 4.984375 0 
L 4.984375 2.6875 
Q 4.984375 2.9375 5.171875 3.21875 
L 20.703125 20.40625 
Q 24.21875 24.21875 26.40625 26.796875 
Q 28.609375 29.390625 30.75 32.765625 
Q 32.90625 36.140625 34.15625 39.625 
Q 35.40625 43.109375 35.40625 47.015625 
Q 35.40625 51.125 33.890625 54.859375 
Q 32.375 58.59375 29.375 60.84375 
Q 26.375 63.09375 22.125 63.09375 
Q 17.78125 63.09375 14.3125 60.46875 
Q 10.84375 57.859375 9.421875 53.71875 
Q 9.8125 53.8125 10.5 53.8125 
Q 12.75 53.8125 14.328125 52.296875 
Q 15.921875 50.78125 15.921875 48.390625 
Q 15.921875 46.09375 14.328125 44.5 
Q 12.75 42.921875 10.5 42.921875 
Q 8.15625 42.921875 6.5625 44.546875 
Q 4.984375 46.1875 4.984375 48.390625 
Q 4.984375 52.15625 6.390625 55.4375 
Q 7.8125 58.734375 10.46875 61.296875 
Q 13.140625 63.875 16.484375 65.234375 
Q 19.828125 66.609375 23.578125 66.609375 
Q 29.296875 66.609375 34.21875 64.1875 
Q 39.15625 61.765625 42.03125 57.34375 
Q 44.921875 52.9375 44.921875 47.015625 
Q 44.921875 42.671875 43.015625 38.765625 
Q 41.109375 34.859375 38.125 31.65625 
Q 35.15625 28.46875 30.515625 24.40625 
Q 25.875 20.359375 24.421875 19 
L 13.09375 8.109375 
L 22.703125 8.109375 
Q 29.78125 8.109375 34.546875 8.21875 
Q 39.3125 8.34375 39.59375 8.59375 
Q 40.765625 9.859375 42 17.828125 
L 44.921875 17.828125 
L 42.09375 0 
z
" id="Cmr10-50"/>
      </defs>
      <g transform="translate(139.182842 264.074946)scale(0.12 -0.12)">
       <use transform="translate(0 0.196875)" xlink:href="#Cmmi10-120"/>
       <use transform="translate(63.383359 38.460938)scale(0.7)" xlink:href="#Cmsy10-164"/>
       <use transform="translate(57.080078 -25.3125)scale(0.7)" xlink:href="#Cmr10-50"/>
      </g>
     </g>
    </g>
    <g id="xtick_4">
     <g id="line2d_4">
      <g>
       <use style="stroke:#000000;stroke-width:0.8;" x="197.204263" xlink:href="#mc318785158" y="248.554946"/>
      </g>
     </g>
     <g id="text_3">
      <!-- $x_3^{\ast}$ -->
      <defs>
       <path d="M 9.515625 7.71875 
Q 11.859375 4.296875 15.8125 2.640625 
Q 19.78125 0.984375 24.3125 0.984375 
Q 30.125 0.984375 32.5625 5.9375 
Q 35.015625 10.890625 35.015625 17.1875 
Q 35.015625 20.015625 34.5 22.84375 
Q 33.984375 25.6875 32.765625 28.125 
Q 31.546875 30.5625 29.421875 32.03125 
Q 27.296875 33.5 24.21875 33.5 
L 17.578125 33.5 
Q 16.703125 33.5 16.703125 34.421875 
L 16.703125 35.296875 
Q 16.703125 36.078125 17.578125 36.078125 
L 23.09375 36.53125 
Q 26.609375 36.53125 28.921875 39.15625 
Q 31.25 41.796875 32.328125 45.578125 
Q 33.40625 49.359375 33.40625 52.78125 
Q 33.40625 57.5625 31.15625 60.640625 
Q 28.90625 63.71875 24.3125 63.71875 
Q 20.515625 63.71875 17.046875 62.28125 
Q 13.578125 60.84375 11.53125 57.90625 
Q 11.71875 57.953125 11.859375 57.984375 
Q 12.015625 58.015625 12.203125 58.015625 
Q 14.453125 58.015625 15.96875 56.453125 
Q 17.484375 54.890625 17.484375 52.6875 
Q 17.484375 50.53125 15.96875 48.96875 
Q 14.453125 47.40625 12.203125 47.40625 
Q 10.015625 47.40625 8.453125 48.96875 
Q 6.890625 50.53125 6.890625 52.6875 
Q 6.890625 56.984375 9.46875 60.15625 
Q 12.0625 63.328125 16.140625 64.96875 
Q 20.21875 66.609375 24.3125 66.609375 
Q 27.34375 66.609375 30.703125 65.703125 
Q 34.078125 64.796875 36.8125 63.109375 
Q 39.546875 61.421875 41.28125 58.78125 
Q 43.015625 56.15625 43.015625 52.78125 
Q 43.015625 48.578125 41.140625 45.015625 
Q 39.265625 41.453125 35.984375 38.859375 
Q 32.71875 36.28125 28.8125 35.015625 
Q 33.15625 34.1875 37.0625 31.734375 
Q 40.96875 29.296875 43.328125 25.484375 
Q 45.703125 21.6875 45.703125 17.28125 
Q 45.703125 11.765625 42.671875 7.296875 
Q 39.65625 2.828125 34.71875 0.3125 
Q 29.78125 -2.203125 24.3125 -2.203125 
Q 19.625 -2.203125 14.90625 -0.40625 
Q 10.203125 1.375 7.203125 4.9375 
Q 4.203125 8.5 4.203125 13.484375 
Q 4.203125 15.96875 5.859375 17.625 
Q 7.515625 19.28125 10.015625 19.28125 
Q 11.625 19.28125 12.96875 18.53125 
Q 14.3125 17.78125 15.0625 16.40625 
Q 15.828125 15.046875 15.828125 13.484375 
Q 15.828125 11.03125 14.109375 9.375 
Q 12.40625 7.71875 10.015625 7.71875 
z
" id="Cmr10-51"/>
      </defs>
      <g transform="translate(190.904263 264.074946)scale(0.12 -0.12)">
       <use transform="translate(0 0.196875)" xlink:href="#Cmmi10-120"/>
       <use transform="translate(63.383359 38.460938)scale(0.7)" xlink:href="#Cmsy10-164"/>
       <use transform="translate(57.080078 -25.3125)scale(0.7)" xlink:href="#Cmr10-51"/>
      </g>
     </g>
    </g>
    <g id="xtick_5">
     <g id="line2d_5">
      <g>
       <use style="stroke:#000000;stroke-width:0.8;" x="248.925683" xlink:href="#mc318785158" y="248.554946"/>
      </g>
     </g>
     <g id="text_4">
      <!-- $x_5^{\ast}$ -->
      <defs>
       <path d="M 8.6875 11.375 
Q 9.71875 8.453125 11.84375 6.046875 
Q 13.96875 3.65625 16.875 2.3125 
Q 19.78125 0.984375 22.90625 0.984375 
Q 30.125 0.984375 32.859375 6.59375 
Q 35.59375 12.203125 35.59375 20.21875 
Q 35.59375 23.6875 35.46875 26.046875 
Q 35.359375 28.421875 34.8125 30.609375 
Q 33.890625 34.125 31.5625 36.765625 
Q 29.25 39.40625 25.875 39.40625 
Q 22.515625 39.40625 20.09375 38.375 
Q 17.671875 37.359375 16.15625 35.984375 
Q 14.65625 34.625 13.484375 33.109375 
Q 12.3125 31.59375 12.015625 31.5 
L 10.890625 31.5 
Q 10.640625 31.5 10.265625 31.8125 
Q 9.90625 32.125 9.90625 32.421875 
L 9.90625 65.828125 
Q 9.90625 66.0625 10.21875 66.328125 
Q 10.546875 66.609375 10.890625 66.609375 
L 11.1875 66.609375 
Q 17.921875 63.375 25.484375 63.375 
Q 32.90625 63.375 39.796875 66.609375 
L 40.09375 66.609375 
Q 40.4375 66.609375 40.71875 66.359375 
Q 41.015625 66.109375 41.015625 65.828125 
L 41.015625 64.890625 
Q 41.015625 64.40625 40.828125 64.40625 
Q 37.40625 59.859375 32.25 57.3125 
Q 27.09375 54.78125 21.578125 54.78125 
Q 17.578125 54.78125 13.375 55.90625 
L 13.375 37.015625 
Q 16.703125 39.703125 19.3125 40.84375 
Q 21.921875 42 25.984375 42 
Q 31.5 42 35.859375 38.8125 
Q 40.234375 35.640625 42.578125 30.53125 
Q 44.921875 25.4375 44.921875 20.125 
Q 44.921875 14.109375 41.96875 8.984375 
Q 39.015625 3.859375 33.9375 0.828125 
Q 28.859375 -2.203125 22.90625 -2.203125 
Q 17.96875 -2.203125 13.84375 0.328125 
Q 9.71875 2.875 7.34375 7.171875 
Q 4.984375 11.46875 4.984375 16.3125 
Q 4.984375 18.5625 6.4375 19.96875 
Q 7.90625 21.390625 10.109375 21.390625 
Q 12.3125 21.390625 13.796875 19.9375 
Q 15.28125 18.5 15.28125 16.3125 
Q 15.28125 14.15625 13.796875 12.671875 
Q 12.3125 11.1875 10.109375 11.1875 
Q 9.765625 11.1875 9.328125 11.25 
Q 8.890625 11.328125 8.6875 11.375 
z
" id="Cmr10-53"/>
      </defs>
      <g transform="translate(242.625683 264.074946)scale(0.12 -0.12)">
       <use transform="translate(0 0.196875)" xlink:href="#Cmmi10-120"/>
       <use transform="translate(63.383359 38.460938)scale(0.7)" xlink:href="#Cmsy10-164"/>
       <use transform="translate(57.080078 -25.3125)scale(0.7)" xlink:href="#Cmr10-53"/>
      </g>
     </g>
    </g>
    <g id="text_5">
     <!-- $x$ -->
     <g transform="translate(261.063397 248.554946)scale(0.19 -0.19)">
      <use transform="translate(0 0.8125)" xlink:href="#Cmmi10-120"/>
     </g>
    </g>
   </g>
   <g id="matplotlib.axis_2">
    <g id="ytick_1">
     <g id="line2d_6">
      <defs>
       <path d="M 0 0 
L -3.5 0 
" id="mdc36779148" style="stroke:#000000;stroke-width:0.8;"/>
      </defs>
      <g>
       <use style="stroke:#000000;stroke-width:0.8;" x="42.04" xlink:href="#mdc36779148" y="248.554946"/>
      </g>
     </g>
    </g>
    <g id="ytick_2">
     <g id="line2d_7">
      <g>
       <use style="stroke:#000000;stroke-width:0.8;" x="42.04" xlink:href="#mdc36779148" y="235.382978"/>
      </g>
     </g>
     <g id="text_6">
      <!-- $f(x_1^{\ast})$ -->
      <defs>
       <path d="M 9.71875 -16.5 
Q 11.578125 -17.921875 14.203125 -17.921875 
Q 17.78125 -17.921875 20.015625 -10.015625 
Q 20.953125 -6.203125 25.09375 15.09375 
L 29.6875 39.59375 
L 21.09375 39.59375 
Q 20.125 39.59375 20.125 40.921875 
Q 20.515625 43.109375 21.390625 43.109375 
L 30.328125 43.109375 
L 31.5 49.609375 
Q 32.078125 52.640625 32.5625 54.8125 
Q 33.0625 56.984375 33.625 58.828125 
Q 34.1875 60.6875 35.296875 62.984375 
Q 37.015625 66.265625 39.921875 68.390625 
Q 42.828125 70.515625 46.1875 70.515625 
Q 48.390625 70.515625 50.46875 69.703125 
Q 52.546875 68.890625 53.859375 67.28125 
Q 55.171875 65.671875 55.171875 63.484375 
Q 55.171875 60.9375 53.484375 59.046875 
Q 51.8125 57.171875 49.421875 57.171875 
Q 47.796875 57.171875 46.65625 58.171875 
Q 45.515625 59.1875 45.515625 60.796875 
Q 45.515625 62.984375 47 64.625 
Q 48.484375 66.265625 50.6875 66.5 
Q 48.828125 67.921875 46.09375 67.921875 
Q 44.578125 67.921875 43.234375 66.5 
Q 41.890625 65.09375 41.5 63.484375 
Q 40.875 60.9375 38.71875 49.703125 
L 37.5 43.109375 
L 47.796875 43.109375 
Q 48.78125 43.109375 48.78125 41.796875 
Q 48.734375 41.546875 48.578125 40.9375 
Q 48.4375 40.328125 48.171875 39.953125 
Q 47.90625 39.59375 47.515625 39.59375 
L 36.8125 39.59375 
L 32.171875 15.1875 
Q 31.296875 9.859375 30.140625 4.359375 
Q 29 -1.125 26.921875 -6.90625 
Q 24.859375 -12.703125 21.625 -16.609375 
Q 18.40625 -20.515625 14.015625 -20.515625 
Q 10.640625 -20.515625 7.984375 -18.578125 
Q 5.328125 -16.65625 5.328125 -13.484375 
Q 5.328125 -10.9375 6.953125 -9.046875 
Q 8.59375 -7.171875 11.078125 -7.171875 
Q 12.75 -7.171875 13.859375 -8.171875 
Q 14.984375 -9.1875 14.984375 -10.796875 
Q 14.984375 -12.9375 13.390625 -14.71875 
Q 11.8125 -16.5 9.71875 -16.5 
z
" id="Cmmi10-102"/>
       <path d="M 31 -24.8125 
Q 25.4375 -20.40625 21.40625 -14.71875 
Q 17.390625 -9.03125 14.8125 -2.578125 
Q 12.25 3.859375 10.984375 10.890625 
Q 9.71875 17.921875 9.71875 25 
Q 9.71875 32.171875 10.984375 39.203125 
Q 12.25 46.234375 14.859375 52.734375 
Q 17.484375 59.234375 21.53125 64.890625 
Q 25.59375 70.5625 31 74.8125 
Q 31 75 31.5 75 
L 32.421875 75 
Q 32.71875 75 32.953125 74.734375 
Q 33.203125 74.46875 33.203125 74.125 
Q 33.203125 73.6875 33.015625 73.484375 
Q 28.125 68.703125 24.875 63.234375 
Q 21.625 57.765625 19.640625 51.578125 
Q 17.671875 45.40625 16.796875 38.78125 
Q 15.921875 32.171875 15.921875 25 
Q 15.921875 -6.78125 32.90625 -23.296875 
Q 33.203125 -23.578125 33.203125 -24.125 
Q 33.203125 -24.359375 32.9375 -24.671875 
Q 32.671875 -25 32.421875 -25 
L 31.5 -25 
Q 31 -25 31 -24.8125 
z
" id="Cmr10-40"/>
       <path d="M 6.5 -25 
Q 5.609375 -25 5.609375 -24.125 
Q 5.609375 -23.6875 5.8125 -23.484375 
Q 22.90625 -6.78125 22.90625 25 
Q 22.90625 56.78125 6 73.296875 
Q 5.609375 73.53125 5.609375 74.125 
Q 5.609375 74.46875 5.875 74.734375 
Q 6.15625 75 6.5 75 
L 7.421875 75 
Q 7.71875 75 7.90625 74.8125 
Q 15.09375 69.140625 19.875 61.03125 
Q 24.65625 52.9375 26.875 43.75 
Q 29.109375 34.578125 29.109375 25 
Q 29.109375 17.921875 27.90625 11.0625 
Q 26.703125 4.203125 24.09375 -2.453125 
Q 21.484375 -9.125 17.484375 -14.765625 
Q 13.484375 -20.40625 7.90625 -24.8125 
Q 7.71875 -25 7.421875 -25 
z
" id="Cmr10-41"/>
      </defs>
      <g transform="translate(7.2 239.882978)scale(0.12 -0.12)">
       <use xlink:href="#Cmmi10-102"/>
       <use transform="translate(48.876953 0)" xlink:href="#Cmr10-40"/>
       <use transform="translate(87.695312 0)" xlink:href="#Cmmi10-120"/>
       <use transform="translate(151.078672 38.264062)scale(0.7)" xlink:href="#Cmsy10-164"/>
       <use transform="translate(144.775391 -25.509375)scale(0.7)" xlink:href="#Cmr10-49"/>
       <use transform="translate(192.456016 0)" xlink:href="#Cmr10-41"/>
      </g>
     </g>
    </g>
    <g id="ytick_3">
     <g id="line2d_8">
      <g>
       <use style="stroke:#000000;stroke-width:0.8;" x="42.04" xlink:href="#mdc36779148" y="195.867073"/>
      </g>
     </g>
     <g id="text_7">
      <!-- $f(x_2^{\ast})$ -->
      <g transform="translate(7.2 200.367073)scale(0.12 -0.12)">
       <use xlink:href="#Cmmi10-102"/>
       <use transform="translate(48.876953 0)" xlink:href="#Cmr10-40"/>
       <use transform="translate(87.695312 0)" xlink:href="#Cmmi10-120"/>
       <use transform="translate(151.078672 38.264062)scale(0.7)" xlink:href="#Cmsy10-164"/>
       <use transform="translate(144.775391 -25.509375)scale(0.7)" xlink:href="#Cmr10-50"/>
       <use transform="translate(192.456016 0)" xlink:href="#Cmr10-41"/>
      </g>
     </g>
    </g>
    <g id="ytick_4">
     <g id="line2d_9">
      <g>
       <use style="stroke:#000000;stroke-width:0.8;" x="42.04" xlink:href="#mdc36779148" y="130.007232"/>
      </g>
     </g>
     <g id="text_8">
      <!-- $f(x_3^{\ast})$ -->
      <g transform="translate(7.2 134.507232)scale(0.12 -0.12)">
       <use xlink:href="#Cmmi10-102"/>
       <use transform="translate(48.876953 0)" xlink:href="#Cmr10-40"/>
       <use transform="translate(87.695312 0)" xlink:href="#Cmmi10-120"/>
       <use transform="translate(151.078672 38.264062)scale(0.7)" xlink:href="#Cmsy10-164"/>
       <use transform="translate(144.775391 -25.509375)scale(0.7)" xlink:href="#Cmr10-51"/>
       <use transform="translate(192.456016 0)" xlink:href="#Cmr10-41"/>
      </g>
     </g>
    </g>
    <g id="ytick_5">
     <g id="line2d_10">
      <g>
       <use style="stroke:#000000;stroke-width:0.8;" x="42.04" xlink:href="#mdc36779148" y="37.803454"/>
      </g>
     </g>
     <g id="text_9">
      <!-- $f(x_5^{\ast})$ -->
      <g transform="translate(7.2 42.303454)scale(0.12 -0.12)">
       <use xlink:href="#Cmmi10-102"/>
       <use transform="translate(48.876953 0)" xlink:href="#Cmr10-40"/>
       <use transform="translate(87.695312 0)" xlink:href="#Cmmi10-120"/>
       <use transform="translate(151.078672 38.264062)scale(0.7)" xlink:href="#Cmsy10-164"/>
       <use transform="translate(144.775391 -25.509375)scale(0.7)" xlink:href="#Cmr10-53"/>
       <use transform="translate(192.456016 0)" xlink:href="#Cmr10-41"/>
      </g>
     </g>
    </g>
    <g id="text_10">
     <!-- $y$ -->
     <defs>
      <path d="M 8.40625 -14.3125 
Q 10.5 -17.921875 15.71875 -17.921875 
Q 20.453125 -17.921875 23.921875 -14.59375 
Q 27.390625 -11.28125 29.515625 -6.5625 
Q 31.640625 -1.859375 32.8125 3.078125 
Q 28.375 -1.125 23.1875 -1.125 
Q 19.234375 -1.125 16.453125 0.234375 
Q 13.671875 1.609375 12.125 4.3125 
Q 10.59375 7.03125 10.59375 10.890625 
Q 10.59375 14.15625 11.46875 17.59375 
Q 12.359375 21.046875 13.9375 25.265625 
Q 15.53125 29.5 16.703125 32.625 
Q 18.015625 36.28125 18.015625 38.625 
Q 18.015625 41.609375 15.828125 41.609375 
Q 11.859375 41.609375 9.296875 37.53125 
Q 6.734375 33.453125 5.515625 28.421875 
Q 5.328125 27.78125 4.6875 27.78125 
L 3.515625 27.78125 
Q 2.6875 27.78125 2.6875 28.71875 
L 2.6875 29 
Q 4.296875 34.96875 7.609375 39.578125 
Q 10.9375 44.1875 16.015625 44.1875 
Q 19.578125 44.1875 22.046875 41.84375 
Q 24.515625 39.5 24.515625 35.890625 
Q 24.515625 34.03125 23.6875 31.984375 
Q 23.25 30.765625 21.6875 26.65625 
Q 20.125 22.5625 19.28125 19.875 
Q 18.453125 17.1875 17.921875 14.59375 
Q 17.390625 12.015625 17.390625 9.421875 
Q 17.390625 6.109375 18.796875 3.8125 
Q 20.21875 1.515625 23.296875 1.515625 
Q 29.5 1.515625 34.421875 9.078125 
L 42 39.890625 
Q 42.328125 41.21875 43.546875 42.15625 
Q 44.78125 43.109375 46.1875 43.109375 
Q 47.40625 43.109375 48.3125 42.328125 
Q 49.21875 41.546875 49.21875 40.28125 
Q 49.21875 39.703125 49.125 39.5 
L 39.203125 -0.296875 
Q 37.890625 -5.421875 34.375 -10.109375 
Q 30.859375 -14.796875 25.90625 -17.65625 
Q 20.953125 -20.515625 15.578125 -20.515625 
Q 12.984375 -20.515625 10.4375 -19.5 
Q 7.90625 -18.5 6.34375 -16.5 
Q 4.78125 -14.5 4.78125 -11.8125 
Q 4.78125 -9.078125 6.390625 -7.078125 
Q 8.015625 -5.078125 10.6875 -5.078125 
Q 12.3125 -5.078125 13.40625 -6.078125 
Q 14.5 -7.078125 14.5 -8.6875 
Q 14.5 -10.984375 12.78125 -12.6875 
Q 11.078125 -14.40625 8.796875 -14.40625 
Q 8.6875 -14.359375 8.59375 -14.328125 
Q 8.5 -14.3125 8.40625 -14.3125 
z
" id="Cmmi10-121"/>
     </defs>
     <g transform="translate(37.29 21.598437)scale(0.19 -0.19)">
      <use transform="translate(0 0.8125)" xlink:href="#Cmmi10-121"/>
     </g>
    </g>
   </g>
   <g id="line2d_11">
    <path clip-path="url(#p55b62ee5bc)" d="M 42.04 248.554946 
L 45.872738 248.482615 
L 50.384769 248.212069 
L 54.740242 247.760739 
L 59.768387 247.007384 
L 64.366556 246.100502 
L 69.602208 244.814376 
L 74.70741 243.300352 
L 80.026956 241.449706 
L 84.975558 239.477911 
L 89.922346 237.265813 
L 94.934683 234.778607 
L 99.743438 232.159881 
L 104.37672 229.421303 
L 109.563948 226.104477 
L 114.664726 222.584537 
L 119.593713 218.939726 
L 125.15727 214.538235 
L 130.104211 210.36855 
L 136.290663 204.814964 
L 142.088359 199.268249 
L 147.927934 193.346855 
L 154.339965 186.458175 
L 160.009939 180.029403 
L 165.257782 173.79714 
L 171.256699 166.340703 
L 177.002032 158.867224 
L 182.501139 151.409566 
L 189.40029 141.632049 
L 195.698231 132.297323 
L 201.915441 122.69913 
L 208.322126 112.41019 
L 214.385515 102.300272 
L 221.614688 89.773403 
L 227.956417 78.360547 
L 234.253151 66.636819 
L 241.477217 52.705571 
L 248.925683 37.803454 
L 248.925683 37.803454 
" style="fill:none;stroke:#0000ff;stroke-linecap:square;"/>
   </g>
   <g id="line2d_12">
    <path clip-path="url(#p55b62ee5bc)" d="M 42.04 248.554946 
L 42.04 248.554946 
L 93.761421 248.554946 
L 93.761421 248.554946 
" style="fill:none;stroke:#ff0000;stroke-linecap:square;"/>
   </g>
   <g id="line2d_13">
    <path clip-path="url(#p55b62ee5bc)" d="M 42.04 248.554946 
L 42.04 248.554946 
" style="fill:none;stroke:#808080;stroke-dasharray:3.7,1.6;stroke-dashoffset:0;"/>
   </g>
   <g id="line2d_14">
    <path clip-path="url(#p55b62ee5bc)" d="M 42.04 248.554946 
L 42.04 248.554946 
" style="fill:none;stroke:#808080;stroke-dasharray:3.7,1.6;stroke-dashoffset:0;"/>
   </g>
   <g id="line2d_15">
    <path clip-path="url(#p55b62ee5bc)" d="M 42.04 248.554946 
L 93.761421 248.554946 
L 93.761421 248.554946 
" style="fill:none;stroke:#ff0000;stroke-linecap:square;"/>
   </g>
   <g id="line2d_16">
    <path clip-path="url(#p55b62ee5bc)" d="M 93.761421 248.554946 
L 93.761421 235.382978 
L 145.482842 235.382978 
L 145.482842 248.554946 
" style="fill:none;stroke:#ff0000;stroke-linecap:square;"/>
   </g>
   <g id="line2d_17">
    <path clip-path="url(#p55b62ee5bc)" d="M 93.761421 248.554946 
L 93.761421 235.382978 
" style="fill:none;stroke:#808080;stroke-dasharray:3.7,1.6;stroke-dashoffset:0;"/>
   </g>
   <g id="line2d_18">
    <path clip-path="url(#p55b62ee5bc)" d="M 42.04 235.382978 
L 93.761421 235.382978 
" style="fill:none;stroke:#808080;stroke-dasharray:3.7,1.6;stroke-dashoffset:0;"/>
   </g>
   <g id="line2d_19">
    <path clip-path="url(#p55b62ee5bc)" d="M 93.761421 235.382978 
L 145.482842 235.382978 
L 145.482842 235.382978 
" style="fill:none;stroke:#ff0000;stroke-linecap:square;"/>
   </g>
   <g id="line2d_20">
    <path clip-path="url(#p55b62ee5bc)" d="M 145.482842 248.554946 
L 145.482842 195.867073 
L 197.204263 195.867073 
L 197.204263 248.554946 
" style="fill:none;stroke:#ff0000;stroke-linecap:square;"/>
   </g>
   <g id="line2d_21">
    <path clip-path="url(#p55b62ee5bc)" d="M 145.482842 248.554946 
L 145.482842 195.867073 
" style="fill:none;stroke:#808080;stroke-dasharray:3.7,1.6;stroke-dashoffset:0;"/>
   </g>
   <g id="line2d_22">
    <path clip-path="url(#p55b62ee5bc)" d="M 42.04 195.867073 
L 145.482842 195.867073 
" style="fill:none;stroke:#808080;stroke-dasharray:3.7,1.6;stroke-dashoffset:0;"/>
   </g>
   <g id="line2d_23">
    <path clip-path="url(#p55b62ee5bc)" d="M 145.482842 195.867073 
L 197.204263 195.867073 
L 197.204263 195.867073 
" style="fill:none;stroke:#ff0000;stroke-linecap:square;"/>
   </g>
   <g id="line2d_24">
    <path clip-path="url(#p55b62ee5bc)" d="M 197.204263 248.554946 
L 197.204263 130.007232 
L 248.925683 130.007232 
L 248.925683 248.554946 
" style="fill:none;stroke:#ff0000;stroke-linecap:square;"/>
   </g>
   <g id="line2d_25">
    <path clip-path="url(#p55b62ee5bc)" d="M 197.204263 248.554946 
L 197.204263 130.007232 
" style="fill:none;stroke:#808080;stroke-dasharray:3.7,1.6;stroke-dashoffset:0;"/>
   </g>
   <g id="line2d_26">
    <path clip-path="url(#p55b62ee5bc)" d="M 42.04 130.007232 
L 197.204263 130.007232 
" style="fill:none;stroke:#808080;stroke-dasharray:3.7,1.6;stroke-dashoffset:0;"/>
   </g>
   <g id="line2d_27">
    <path clip-path="url(#p55b62ee5bc)" d="M 197.204263 130.007232 
L 248.925683 130.007232 
L 248.925683 130.007232 
" style="fill:none;stroke:#ff0000;stroke-linecap:square;"/>
   </g>
   <g id="patch_7">
    <path d="M 42.04 252.769976 
L 42.04 33.588437 
" style="fill:none;stroke:#000000;stroke-linecap:square;stroke-linejoin:miter;stroke-width:0.8;"/>
   </g>
   <g id="patch_8">
    <path d="M 37.902286 248.554946 
L 253.063397 248.554946 
" style="fill:none;stroke:#000000;stroke-linecap:square;stroke-linejoin:miter;stroke-width:0.8;"/>
   </g>
  </g>
 </g>
 <defs>
  <clipPath id="p55b62ee5bc">
   <rect height="219.181538" width="215.161111" x="37.902286" y="33.588437"/>
  </clipPath>
 </defs>
</svg>
