<?xml version="1.0" encoding="utf-8" standalone="no"?>
<!DOCTYPE svg PUBLIC "-//W3C//DTD SVG 1.1//EN"
  "http://www.w3.org/Graphics/SVG/1.1/DTD/svg11.dtd">
<!-- Created with matplotlib (https://matplotlib.org/) -->
<svg height="278.684081pt" version="1.1" viewBox="0 0 279.875052 278.684081" width="279.875052pt" xmlns="http://www.w3.org/2000/svg" xmlns:xlink="http://www.w3.org/1999/xlink">
 <defs>
  <style type="text/css">
*{stroke-linecap:butt;stroke-linejoin:round;}
  </style>
 </defs>
 <g id="figure_1">
  <g id="patch_1">
   <path d="M 0 278.684081 
L 279.875052 278.684081 
L 279.875052 0 
L 0 0 
z
" style="fill:#ffffff;"/>
  </g>
  <g id="axes_1">
   <g id="patch_2">
    <path d="M 28.962744 257.169976 
L 253.655052 257.169976 
L 253.655052 33.588438 
L 28.962744 33.588438 
z
" style="fill:#ffffff;"/>
   </g>
   <g id="PathCollection_1">
    <path clip-path="url(#pa3adbe2d1c)" d="M 33.28375 254.45147 
C 33.703073 254.45147 34.105278 254.284871 34.401784 253.988365 
C 34.69829 253.691859 34.864889 253.289654 34.864889 252.870331 
C 34.864889 252.451008 34.69829 252.048803 34.401784 251.752297 
C 34.105278 251.455791 33.703073 251.289192 33.28375 251.289192 
C 32.864427 251.289192 32.462222 251.455791 32.165716 251.752297 
C 31.86921 252.048803 31.702611 252.451008 31.702611 252.870331 
C 31.702611 253.289654 31.86921 253.691859 32.165716 253.988365 
C 32.462222 254.284871 32.864427 254.45147 33.28375 254.45147 
z
" style="fill:#ff0000;"/>
   </g>
   <g id="PathCollection_2">
    <path clip-path="url(#pa3adbe2d1c)" d="M 76.493809 158.308484 
C 76.913132 158.308484 77.315337 158.141885 77.611843 157.845379 
C 77.908349 157.548873 78.074948 157.146668 78.074948 156.727345 
C 78.074948 156.308022 77.908349 155.905817 77.611843 155.609311 
C 77.315337 155.312805 76.913132 155.146206 76.493809 155.146206 
C 76.074486 155.146206 75.672281 155.312805 75.375775 155.609311 
C 75.079269 155.905817 74.91267 156.308022 74.91267 156.727345 
C 74.91267 157.146668 75.079269 157.548873 75.375775 157.845379 
C 75.672281 158.141885 76.074486 158.308484 76.493809 158.308484 
z
" style="fill:#ff0000;"/>
   </g>
   <g id="PathCollection_3">
    <path clip-path="url(#pa3adbe2d1c)" d="M 119.703868 118.484756 
C 120.123191 118.484756 120.525396 118.318157 120.821902 118.021651 
C 121.118408 117.725145 121.285007 117.32294 121.285007 116.903617 
C 121.285007 116.484294 121.118408 116.082089 120.821902 115.785583 
C 120.525396 115.489077 120.123191 115.322478 119.703868 115.322478 
C 119.284545 115.322478 118.88234 115.489077 118.585834 115.785583 
C 118.289328 116.082089 118.12273 116.484294 118.12273 116.903617 
C 118.12273 117.32294 118.289328 117.725145 118.585834 118.021651 
C 118.88234 118.318157 119.284545 118.484756 119.703868 118.484756 
z
" style="fill:#ff0000;"/>
   </g>
   <g id="PathCollection_4">
    <path clip-path="url(#pa3adbe2d1c)" d="M 162.913928 87.926934 
C 163.33325 87.926934 163.735455 87.760335 164.031962 87.463829 
C 164.328468 87.167323 164.495066 86.765118 164.495066 86.345795 
C 164.495066 85.926472 164.328468 85.524267 164.031962 85.227761 
C 163.735455 84.931255 163.33325 84.764656 162.913928 84.764656 
C 162.494605 84.764656 162.0924 84.931255 161.795894 85.227761 
C 161.499387 85.524267 161.332789 85.926472 161.332789 86.345795 
C 161.332789 86.765118 161.499387 87.167323 161.795894 87.463829 
C 162.0924 87.760335 162.494605 87.926934 162.913928 87.926934 
z
" style="fill:#ff0000;"/>
   </g>
   <g id="PathCollection_5">
    <path clip-path="url(#pa3adbe2d1c)" d="M 206.123987 62.165498 
C 206.54331 62.165498 206.945515 61.9989 207.242021 61.702394 
C 207.538527 61.405887 207.705126 61.003682 207.705126 60.58436 
C 207.705126 60.165037 207.538527 59.762832 207.242021 59.466326 
C 206.945515 59.16982 206.54331 59.003221 206.123987 59.003221 
C 205.704664 59.003221 205.302459 59.16982 205.005953 59.466326 
C 204.709447 59.762832 204.542848 60.165037 204.542848 60.58436 
C 204.542848 61.003682 204.709447 61.405887 205.005953 61.702394 
C 205.302459 61.9989 205.704664 62.165498 206.123987 62.165498 
z
" style="fill:#ff0000;"/>
   </g>
   <g id="patch_3">
    <path clip-path="url(#pa3adbe2d1c)" d="M 33.28375 252.870331 
L 33.28375 252.870331 
L 33.600693 252.870331 
L 33.728194 252.870331 
L 33.856871 252.870331 
L 34.053202 252.870331 
L 34.340395 252.870331 
L 34.541112 252.870331 
L 34.70876 252.870331 
L 34.91912 252.870331 
L 35.174982 252.870331 
L 35.506086 252.870331 
L 35.630797 252.870331 
L 35.907274 252.870331 
L 36.006401 252.870331 
L 36.341035 252.870331 
L 36.559089 252.870331 
L 36.655559 252.870331 
L 37.020471 252.870331 
L 37.132803 252.870331 
L 37.395715 252.870331 
L 37.698186 252.870331 
L 37.860308 252.870331 
L 37.977928 252.870331 
L 38.183818 252.870331 
L 38.579764 252.870331 
L 38.719706 252.870331 
L 39.009533 252.870331 
L 39.196287 252.870331 
L 39.307796 252.870331 
L 39.578294 252.870331 
L 39.802057 252.870331 
L 40.07801 252.870331 
L 40.204226 252.870331 
L 40.520516 252.870331 
L 40.686389 252.870331 
L 40.912314 252.870331 
L 41.196847 252.870331 
L 41.363517 252.870331 
L 41.642153 252.870331 
L 41.683065 252.870331 
L 41.886535 252.870331 
L 42.260098 252.870331 
L 42.489809 252.870331 
L 42.56744 252.870331 
L 42.921405 252.870331 
L 42.991668 252.870331 
L 43.235223 252.870331 
L 43.596487 252.870331 
L 43.651795 252.870331 
L 44.028348 252.870331 
L 44.144953 252.870331 
L 44.418632 252.870331 
L 44.617061 252.870331 
L 44.755981 252.870331 
L 44.93598 252.870331 
L 45.310359 252.870331 
L 45.548798 252.870331 
L 45.758488 252.870331 
L 45.925048 252.870331 
L 45.992045 252.870331 
L 46.36249 252.870331 
L 46.562023 252.870331 
L 46.647304 252.870331 
L 46.882013 252.870331 
L 47.107173 252.870331 
L 47.464169 252.870331 
L 47.554132 252.870331 
L 47.804424 252.870331 
L 48.008879 252.870331 
L 48.32393 252.870331 
L 48.415213 252.870331 
L 48.65829 252.870331 
L 48.91324 252.870331 
L 49.084409 252.870331 
L 49.449581 252.870331 
L 49.469886 252.870331 
L 49.890898 252.870331 
L 49.984233 252.870331 
L 50.168041 252.870331 
L 50.366995 252.870331 
L 50.607427 252.870331 
L 50.77366 252.870331 
L 50.980389 252.870331 
L 51.252428 252.870331 
L 51.546365 252.870331 
L 51.650625 252.870331 
L 51.97827 252.870331 
L 52.262963 252.870331 
L 52.490116 252.870331 
L 52.564154 252.870331 
L 52.773714 252.870331 
L 53.07034 252.870331 
L 53.330087 252.870331 
L 53.4822 252.870331 
L 53.612938 252.870331 
L 53.868537 252.870331 
L 54.034247 252.870331 
L 54.385207 252.870331 
L 54.6089 252.870331 
L 54.821215 252.870331 
L 55.012806 252.870331 
L 55.289426 252.870331 
L 55.508809 252.870331 
L 55.627475 252.870331 
L 55.955046 252.870331 
L 56.164874 252.870331 
L 56.204782 252.870331 
L 56.514674 252.870331 
L 56.794775 252.870331 
L 56.894089 252.870331 
L 57.266495 252.870331 
L 57.367149 252.870331 
L 57.517087 252.870331 
L 57.723904 252.870331 
L 58.130013 252.870331 
L 58.308035 252.870331 
L 58.471986 252.870331 
L 58.619999 252.870331 
L 58.962177 252.870331 
L 59.123565 252.870331 
L 59.43885 252.870331 
L 59.657424 252.870331 
L 59.72381 252.870331 
L 60.030521 252.870331 
L 60.234907 252.870331 
L 60.469017 252.870331 
L 60.622731 252.870331 
L 60.764315 252.870331 
L 61.12768 252.870331 
L 61.344598 252.870331 
L 61.496129 252.870331 
L 61.634619 252.870331 
L 62.053351 252.870331 
L 62.155065 252.870331 
L 62.440385 252.870331 
L 62.586784 252.870331 
L 62.86735 252.870331 
L 62.93663 252.870331 
L 63.278619 252.870331 
L 63.404969 252.870331 
L 63.584503 252.870331 
L 63.833694 252.870331 
L 64.217844 252.870331 
L 64.254014 252.870331 
L 64.569287 252.870331 
L 64.682936 252.870331 
L 65.050314 252.870331 
L 65.171778 252.870331 
L 65.318908 252.870331 
L 65.711386 252.870331 
L 65.885631 252.870331 
L 66.050536 252.870331 
L 66.371415 252.870331 
L 66.404069 252.870331 
L 66.66986 252.870331 
L 66.923895 252.870331 
L 67.090457 252.870331 
L 67.417789 252.870331 
L 67.681018 252.870331 
L 67.805671 252.870331 
L 68.090397 252.870331 
L 68.14999 252.870331 
L 68.392147 252.870331 
L 68.572261 252.870331 
L 68.823334 252.870331 
L 69.137806 252.870331 
L 69.35617 252.870331 
L 69.597045 252.870331 
L 69.84672 252.870331 
L 70.003526 252.870331 
L 70.208571 252.870331 
L 70.310432 252.870331 
L 70.531555 252.870331 
L 70.852029 252.870331 
L 71.136484 252.870331 
L 71.214527 252.870331 
L 71.415335 252.870331 
L 71.71974 252.870331 
L 71.936624 252.870331 
L 72.082265 252.870331 
L 72.404612 252.870331 
L 72.490977 252.870331 
L 72.842591 252.870331 
L 72.963653 252.870331 
L 73.249847 252.870331 
L 73.493776 252.870331 
L 73.617638 252.870331 
L 73.960737 252.870331 
L 73.998663 252.870331 
L 74.2696 252.870331 
L 74.559901 252.870331 
L 74.856534 252.870331 
L 75.035129 252.870331 
L 75.105464 252.870331 
L 75.377634 252.870331 
L 75.675537 252.870331 
L 75.83561 252.870331 
L 76.131563 252.870331 
L 76.283117 252.870331 
L 76.493809 252.870331 
L 76.493809 252.870331 
z
" style="fill:#cde0eb;opacity:0.5;"/>
   </g>
   <g id="patch_4">
    <path clip-path="url(#pa3adbe2d1c)" d="M 76.493809 252.870331 
L 76.493809 156.727345 
L 76.650618 156.727345 
L 76.973079 156.727345 
L 77.205677 156.727345 
L 77.329924 156.727345 
L 77.612237 156.727345 
L 77.693275 156.727345 
L 78.09502 156.727345 
L 78.191933 156.727345 
L 78.484768 156.727345 
L 78.619328 156.727345 
L 78.922946 156.727345 
L 79.131972 156.727345 
L 79.28926 156.727345 
L 79.578812 156.727345 
L 79.705854 156.727345 
L 79.929688 156.727345 
L 80.12238 156.727345 
L 80.293881 156.727345 
L 80.591055 156.727345 
L 80.787545 156.727345 
L 80.975955 156.727345 
L 81.176413 156.727345 
L 81.399436 156.727345 
L 81.661085 156.727345 
L 81.924137 156.727345 
L 82.237922 156.727345 
L 82.300142 156.727345 
L 82.548831 156.727345 
L 82.786355 156.727345 
L 82.964553 156.727345 
L 83.245412 156.727345 
L 83.411218 156.727345 
L 83.740638 156.727345 
L 83.83876 156.727345 
L 84.091087 156.727345 
L 84.315008 156.727345 
L 84.617545 156.727345 
L 84.775122 156.727345 
L 84.90381 156.727345 
L 85.098526 156.727345 
L 85.330062 156.727345 
L 85.571722 156.727345 
L 85.760267 156.727345 
L 86.105754 156.727345 
L 86.272094 156.727345 
L 86.456569 156.727345 
L 86.757923 156.727345 
L 86.830224 156.727345 
L 87.031128 156.727345 
L 87.258658 156.727345 
L 87.478513 156.727345 
L 87.715871 156.727345 
L 88.060689 156.727345 
L 88.207636 156.727345 
L 88.351209 156.727345 
L 88.613087 156.727345 
L 88.794348 156.727345 
L 89.052773 156.727345 
L 89.316575 156.727345 
L 89.46534 156.727345 
L 89.649619 156.727345 
L 90.01026 156.727345 
L 90.270267 156.727345 
L 90.396008 156.727345 
L 90.594735 156.727345 
L 90.723569 156.727345 
L 91.116455 156.727345 
L 91.336012 156.727345 
L 91.429631 156.727345 
L 91.598122 156.727345 
L 91.973043 156.727345 
L 92.140898 156.727345 
L 92.427391 156.727345 
L 92.647163 156.727345 
L 92.852005 156.727345 
L 92.892499 156.727345 
L 93.107554 156.727345 
L 93.466094 156.727345 
L 93.647436 156.727345 
L 93.965994 156.727345 
L 94.183684 156.727345 
L 94.24968 156.727345 
L 94.492853 156.727345 
L 94.633077 156.727345 
L 94.962064 156.727345 
L 95.239704 156.727345 
L 95.415258 156.727345 
L 95.600932 156.727345 
L 95.840361 156.727345 
L 96.125838 156.727345 
L 96.278623 156.727345 
L 96.457434 156.727345 
L 96.587715 156.727345 
L 96.899197 156.727345 
L 97.070277 156.727345 
L 97.346481 156.727345 
L 97.574889 156.727345 
L 97.723096 156.727345 
L 97.964736 156.727345 
L 98.156424 156.727345 
L 98.518389 156.727345 
L 98.686276 156.727345 
L 98.858506 156.727345 
L 98.981972 156.727345 
L 99.287068 156.727345 
L 99.547404 156.727345 
L 99.81274 156.727345 
L 99.954898 156.727345 
L 100.083706 156.727345 
L 100.441319 156.727345 
L 100.633738 156.727345 
L 100.769585 156.727345 
L 101.027749 156.727345 
L 101.311614 156.727345 
L 101.531445 156.727345 
L 101.620609 156.727345 
L 101.79553 156.727345 
L 102.052298 156.727345 
L 102.364391 156.727345 
L 102.590683 156.727345 
L 102.723487 156.727345 
L 103.018326 156.727345 
L 103.131645 156.727345 
L 103.519547 156.727345 
L 103.613758 156.727345 
L 103.78974 156.727345 
L 104.153093 156.727345 
L 104.256256 156.727345 
L 104.398464 156.727345 
L 104.707784 156.727345 
L 104.861492 156.727345 
L 105.093355 156.727345 
L 105.424512 156.727345 
L 105.635874 156.727345 
L 105.781839 156.727345 
L 105.999823 156.727345 
L 106.167106 156.727345 
L 106.566826 156.727345 
L 106.698606 156.727345 
L 106.898523 156.727345 
L 107.131022 156.727345 
L 107.360341 156.727345 
L 107.530432 156.727345 
L 107.739473 156.727345 
L 107.988139 156.727345 
L 108.175326 156.727345 
L 108.321734 156.727345 
L 108.523256 156.727345 
L 108.753558 156.727345 
L 108.968758 156.727345 
L 109.376779 156.727345 
L 109.484024 156.727345 
L 109.778531 156.727345 
L 109.963755 156.727345 
L 110.155253 156.727345 
L 110.26715 156.727345 
L 110.564043 156.727345 
L 110.830636 156.727345 
L 111.122264 156.727345 
L 111.299392 156.727345 
L 111.425632 156.727345 
L 111.627847 156.727345 
L 111.819022 156.727345 
L 112.155168 156.727345 
L 112.28793 156.727345 
L 112.568741 156.727345 
L 112.857418 156.727345 
L 113.003737 156.727345 
L 113.292749 156.727345 
L 113.402583 156.727345 
L 113.669264 156.727345 
L 113.920522 156.727345 
L 114.010534 156.727345 
L 114.342496 156.727345 
L 114.521425 156.727345 
L 114.690508 156.727345 
L 114.913731 156.727345 
L 115.143717 156.727345 
L 115.339487 156.727345 
L 115.583258 156.727345 
L 115.750363 156.727345 
L 116.05265 156.727345 
L 116.157547 156.727345 
L 116.48121 156.727345 
L 116.598182 156.727345 
L 116.96515 156.727345 
L 117.091505 156.727345 
L 117.331965 156.727345 
L 117.608135 156.727345 
L 117.698313 156.727345 
L 117.900598 156.727345 
L 118.288836 156.727345 
L 118.33948 156.727345 
L 118.693405 156.727345 
L 118.903446 156.727345 
L 119.013944 156.727345 
L 119.1811 156.727345 
L 119.522758 156.727345 
L 119.703868 156.727345 
L 119.703868 252.870331 
z
" style="fill:#cde0eb;opacity:0.5;"/>
   </g>
   <g id="patch_5">
    <path clip-path="url(#pa3adbe2d1c)" d="M 119.703868 252.870331 
L 119.703868 116.903617 
L 119.869432 116.903617 
L 120.072206 116.903617 
L 120.260766 116.903617 
L 120.607527 116.903617 
L 120.745698 116.903617 
L 120.97195 116.903617 
L 121.193935 116.903617 
L 121.410083 116.903617 
L 121.632982 116.903617 
L 121.899458 116.903617 
L 122.104987 116.903617 
L 122.274623 116.903617 
L 122.462765 116.903617 
L 122.835167 116.903617 
L 123.037911 116.903617 
L 123.0946 116.903617 
L 123.321181 116.903617 
L 123.509855 116.903617 
L 123.856009 116.903617 
L 124.151755 116.903617 
L 124.256562 116.903617 
L 124.562043 116.903617 
L 124.592998 116.903617 
L 125.019573 116.903617 
L 125.080688 116.903617 
L 125.41276 116.903617 
L 125.597461 116.903617 
L 125.796137 116.903617 
L 126.077784 116.903617 
L 126.181157 116.903617 
L 126.491567 116.903617 
L 126.575525 116.903617 
L 126.882485 116.903617 
L 127.025379 116.903617 
L 127.307299 116.903617 
L 127.532599 116.903617 
L 127.747645 116.903617 
L 127.884248 116.903617 
L 128.274835 116.903617 
L 128.436457 116.903617 
L 128.633248 116.903617 
L 128.77851 116.903617 
L 128.986416 116.903617 
L 129.198431 116.903617 
L 129.376298 116.903617 
L 129.788416 116.903617 
L 129.825299 116.903617 
L 130.123203 116.903617 
L 130.313029 116.903617 
L 130.59033 116.903617 
L 130.849846 116.903617 
L 131.079376 116.903617 
L 131.195165 116.903617 
L 131.411425 116.903617 
L 131.65609 116.903617 
L 131.804074 116.903617 
L 132.121513 116.903617 
L 132.272629 116.903617 
L 132.555761 116.903617 
L 132.798868 116.903617 
L 132.848014 116.903617 
L 133.082771 116.903617 
L 133.46716 116.903617 
L 133.530162 116.903617 
L 133.762118 116.903617 
L 134.019012 116.903617 
L 134.222323 116.903617 
L 134.421156 116.903617 
L 134.768882 116.903617 
L 134.889922 116.903617 
L 135.140046 116.903617 
L 135.421531 116.903617 
L 135.612917 116.903617 
L 135.879171 116.903617 
L 135.983506 116.903617 
L 136.192203 116.903617 
L 136.524527 116.903617 
L 136.572136 116.903617 
L 136.817028 116.903617 
L 137.163826 116.903617 
L 137.208989 116.903617 
L 137.512823 116.903617 
L 137.772799 116.903617 
L 137.864962 116.903617 
L 138.1929 116.903617 
L 138.461282 116.903617 
L 138.559732 116.903617 
L 138.850689 116.903617 
L 139.030103 116.903617 
L 139.353322 116.903617 
L 139.371401 116.903617 
L 139.63535 116.903617 
L 139.82644 116.903617 
L 140.068942 116.903617 
L 140.358032 116.903617 
L 140.569894 116.903617 
L 140.756805 116.903617 
L 140.951139 116.903617 
L 141.246572 116.903617 
L 141.347981 116.903617 
L 141.693109 116.903617 
L 141.758251 116.903617 
L 142.032232 116.903617 
L 142.309502 116.903617 
L 142.564307 116.903617 
L 142.716801 116.903617 
L 142.829835 116.903617 
L 143.061941 116.903617 
L 143.304427 116.903617 
L 143.49527 116.903617 
L 143.750555 116.903617 
L 143.995838 116.903617 
L 144.16537 116.903617 
L 144.376334 116.903617 
L 144.67825 116.903617 
L 144.814026 116.903617 
L 145.056327 116.903617 
L 145.223224 116.903617 
L 145.546223 116.903617 
L 145.692418 116.903617 
L 145.882806 116.903617 
L 146.114114 116.903617 
L 146.411224 116.903617 
L 146.603653 116.903617 
L 146.837095 116.903617 
L 147.154795 116.903617 
L 147.276636 116.903617 
L 147.599695 116.903617 
L 147.703676 116.903617 
L 147.867745 116.903617 
L 148.153033 116.903617 
L 148.257529 116.903617 
L 148.552178 116.903617 
L 148.714894 116.903617 
L 149.110822 116.903617 
L 149.225676 116.903617 
L 149.461215 116.903617 
L 149.672913 116.903617 
L 149.873904 116.903617 
L 150.139078 116.903617 
L 150.264557 116.903617 
L 150.495561 116.903617 
L 150.651644 116.903617 
L 150.955584 116.903617 
L 151.135206 116.903617 
L 151.432106 116.903617 
L 151.680496 116.903617 
L 151.820841 116.903617 
L 152.015513 116.903617 
L 152.341833 116.903617 
L 152.446553 116.903617 
L 152.673262 116.903617 
L 153.004392 116.903617 
L 153.073553 116.903617 
L 153.321136 116.903617 
L 153.476788 116.903617 
L 153.830773 116.903617 
L 154.048906 116.903617 
L 154.258865 116.903617 
L 154.383735 116.903617 
L 154.696282 116.903617 
L 154.836537 116.903617 
L 155.101022 116.903617 
L 155.274545 116.903617 
L 155.502995 116.903617 
L 155.735823 116.903617 
L 156.044481 116.903617 
L 156.101965 116.903617 
L 156.495783 116.903617 
L 156.652607 116.903617 
L 156.869034 116.903617 
L 157.00414 116.903617 
L 157.221247 116.903617 
L 157.575849 116.903617 
L 157.755266 116.903617 
L 157.891135 116.903617 
L 158.095007 116.903617 
L 158.436852 116.903617 
L 158.535467 116.903617 
L 158.785629 116.903617 
L 158.900692 116.903617 
L 159.266298 116.903617 
L 159.434794 116.903617 
L 159.597702 116.903617 
L 159.884674 116.903617 
L 160.120716 116.903617 
L 160.380403 116.903617 
L 160.462459 116.903617 
L 160.814546 116.903617 
L 160.959781 116.903617 
L 161.129515 116.903617 
L 161.353681 116.903617 
L 161.557843 116.903617 
L 161.753585 116.903617 
L 162.125655 116.903617 
L 162.178062 116.903617 
L 162.456842 116.903617 
L 162.627269 116.903617 
L 162.913928 116.903617 
L 162.913928 252.870331 
z
" style="fill:#cde0eb;opacity:0.5;"/>
   </g>
   <g id="patch_6">
    <path clip-path="url(#pa3adbe2d1c)" d="M 162.913928 252.870331 
L 162.913928 86.345795 
L 163.055356 86.345795 
L 163.419873 86.345795 
L 163.623161 86.345795 
L 163.772787 86.345795 
L 163.98364 86.345795 
L 164.243671 86.345795 
L 164.374926 86.345795 
L 164.683066 86.345795 
L 164.950488 86.345795 
L 165.116773 86.345795 
L 165.288162 86.345795 
L 165.486112 86.345795 
L 165.832742 86.345795 
L 166.008621 86.345795 
L 166.208097 86.345795 
L 166.291421 86.345795 
L 166.671882 86.345795 
L 166.906799 86.345795 
L 166.983404 86.345795 
L 167.166221 86.345795 
L 167.482466 86.345795 
L 167.684554 86.345795 
L 167.966345 86.345795 
L 168.059842 86.345795 
L 168.352205 86.345795 
L 168.560203 86.345795 
L 168.781068 86.345795 
L 168.976853 86.345795 
L 169.110466 86.345795 
L 169.474568 86.345795 
L 169.666231 86.345795 
L 169.76303 86.345795 
L 170.038804 86.345795 
L 170.374079 86.345795 
L 170.608812 86.345795 
L 170.743384 86.345795 
L 171.024986 86.345795 
L 171.238438 86.345795 
L 171.39178 86.345795 
L 171.647504 86.345795 
L 171.71455 86.345795 
L 172.000283 86.345795 
L 172.341983 86.345795 
L 172.4477 86.345795 
L 172.664624 86.345795 
L 172.86027 86.345795 
L 173.173857 86.345795 
L 173.307492 86.345795 
L 173.615467 86.345795 
L 173.67377 86.345795 
L 173.951852 86.345795 
L 174.267658 86.345795 
L 174.397051 86.345795 
L 174.648311 86.345795 
L 174.840905 86.345795 
L 175.029722 86.345795 
L 175.210704 86.345795 
L 175.584817 86.345795 
L 175.804935 86.345795 
L 176.018425 86.345795 
L 176.135768 86.345795 
L 176.330442 86.345795 
L 176.521443 86.345795 
L 176.852634 86.345795 
L 177.028396 86.345795 
L 177.206684 86.345795 
L 177.470997 86.345795 
L 177.72991 86.345795 
L 177.921986 86.345795 
L 178.141566 86.345795 
L 178.393176 86.345795 
L 178.588181 86.345795 
L 178.864292 86.345795 
L 179.041909 86.345795 
L 179.09324 86.345795 
L 179.430478 86.345795 
L 179.618049 86.345795 
L 179.856266 86.345795 
L 180.082067 86.345795 
L 180.256666 86.345795 
L 180.487021 86.345795 
L 180.788037 86.345795 
L 180.871062 86.345795 
L 181.135654 86.345795 
L 181.385067 86.345795 
L 181.480649 86.345795 
L 181.775754 86.345795 
L 181.930731 86.345795 
L 182.217313 86.345795 
L 182.447208 86.345795 
L 182.753184 86.345795 
L 182.963196 86.345795 
L 183.093911 86.345795 
L 183.338744 86.345795 
L 183.586111 86.345795 
L 183.817496 86.345795 
L 184.01667 86.345795 
L 184.16953 86.345795 
L 184.443361 86.345795 
L 184.673333 86.345795 
L 184.900095 86.345795 
L 185.169377 86.345795 
L 185.318023 86.345795 
L 185.48356 86.345795 
L 185.692376 86.345795 
L 185.83285 86.345795 
L 186.059384 86.345795 
L 186.384425 86.345795 
L 186.498359 86.345795 
L 186.764407 86.345795 
L 186.966472 86.345795 
L 187.148902 86.345795 
L 187.356503 86.345795 
L 187.578619 86.345795 
L 187.878323 86.345795 
L 188.036681 86.345795 
L 188.390961 86.345795 
L 188.584472 86.345795 
L 188.707736 86.345795 
L 189.024772 86.345795 
L 189.121534 86.345795 
L 189.379091 86.345795 
L 189.704613 86.345795 
L 189.761923 86.345795 
L 190.04555 86.345795 
L 190.181079 86.345795 
L 190.467918 86.345795 
L 190.729218 86.345795 
L 190.99372 86.345795 
L 191.100091 86.345795 
L 191.266416 86.345795 
L 191.519058 86.345795 
L 191.853299 86.345795 
L 191.926603 86.345795 
L 192.187053 86.345795 
L 192.524494 86.345795 
L 192.564536 86.345795 
L 192.984704 86.345795 
L 193.010455 86.345795 
L 193.338399 86.345795 
L 193.614394 86.345795 
L 193.835591 86.345795 
L 193.925151 86.345795 
L 194.231881 86.345795 
L 194.316404 86.345795 
L 194.665765 86.345795 
L 194.939251 86.345795 
L 195.078652 86.345795 
L 195.182564 86.345795 
L 195.487418 86.345795 
L 195.631037 86.345795 
L 195.812223 86.345795 
L 196.093816 86.345795 
L 196.445745 86.345795 
L 196.510996 86.345795 
L 196.894387 86.345795 
L 197.074153 86.345795 
L 197.137084 86.345795 
L 197.370904 86.345795 
L 197.681856 86.345795 
L 197.823953 86.345795 
L 198.116361 86.345795 
L 198.342434 86.345795 
L 198.615235 86.345795 
L 198.703193 86.345795 
L 198.853232 86.345795 
L 199.173946 86.345795 
L 199.432048 86.345795 
L 199.718384 86.345795 
L 199.901633 86.345795 
L 200.151339 86.345795 
L 200.258657 86.345795 
L 200.586396 86.345795 
L 200.79329 86.345795 
L 200.887939 86.345795 
L 201.031697 86.345795 
L 201.374043 86.345795 
L 201.597413 86.345795 
L 201.712027 86.345795 
L 201.947392 86.345795 
L 202.133926 86.345795 
L 202.502933 86.345795 
L 202.553323 86.345795 
L 202.859348 86.345795 
L 203.05847 86.345795 
L 203.299447 86.345795 
L 203.518379 86.345795 
L 203.706619 86.345795 
L 203.879651 86.345795 
L 204.086599 86.345795 
L 204.400135 86.345795 
L 204.586014 86.345795 
L 204.918238 86.345795 
L 205.136104 86.345795 
L 205.316993 86.345795 
L 205.443296 86.345795 
L 205.696849 86.345795 
L 205.848256 86.345795 
L 206.123987 86.345795 
L 206.123987 252.870331 
z
" style="fill:#cde0eb;opacity:0.5;"/>
   </g>
   <g id="patch_7">
    <path clip-path="url(#pa3adbe2d1c)" d="M 206.123987 252.870331 
L 206.123987 60.58436 
L 206.405053 60.58436 
L 206.452417 60.58436 
L 206.757232 60.58436 
L 207.008734 60.58436 
L 207.118218 60.58436 
L 207.424126 60.58436 
L 207.703238 60.58436 
L 207.773679 60.58436 
L 208.089244 60.58436 
L 208.213057 60.58436 
L 208.520816 60.58436 
L 208.702644 60.58436 
L 209.023235 60.58436 
L 209.057339 60.58436 
L 209.335099 60.58436 
L 209.570458 60.58436 
L 209.869973 60.58436 
L 210.021774 60.58436 
L 210.226609 60.58436 
L 210.515065 60.58436 
L 210.600025 60.58436 
L 210.836088 60.58436 
L 211.123715 60.58436 
L 211.298642 60.58436 
L 211.619083 60.58436 
L 211.822097 60.58436 
L 212.028689 60.58436 
L 212.166891 60.58436 
L 212.438067 60.58436 
L 212.701751 60.58436 
L 212.8557 60.58436 
L 213.089878 60.58436 
L 213.390254 60.58436 
L 213.531407 60.58436 
L 213.738908 60.58436 
L 213.912865 60.58436 
L 214.131529 60.58436 
L 214.446664 60.58436 
L 214.58915 60.58436 
L 214.722369 60.58436 
L 214.942169 60.58436 
L 215.154404 60.58436 
L 215.569392 60.58436 
L 215.570522 60.58436 
L 215.931377 60.58436 
L 216.111828 60.58436 
L 216.413375 60.58436 
L 216.516063 60.58436 
L 216.755007 60.58436 
L 216.950939 60.58436 
L 217.20838 60.58436 
L 217.518667 60.58436 
L 217.550558 60.58436 
L 217.806098 60.58436 
L 218.122557 60.58436 
L 218.315057 60.58436 
L 218.472577 60.58436 
L 218.806634 60.58436 
L 218.991004 60.58436 
L 219.128655 60.58436 
L 219.435427 60.58436 
L 219.63165 60.58436 
L 219.705215 60.58436 
L 219.983248 60.58436 
L 220.245175 60.58436 
L 220.353222 60.58436 
L 220.660441 60.58436 
L 220.929493 60.58436 
L 221.060747 60.58436 
L 221.407026 60.58436 
L 221.525407 60.58436 
L 221.727101 60.58436 
L 221.939029 60.58436 
L 222.2695 60.58436 
L 222.447936 60.58436 
L 222.595544 60.58436 
L 222.805739 60.58436 
L 223.119885 60.58436 
L 223.208162 60.58436 
L 223.479034 60.58436 
L 223.78275 60.58436 
L 223.923153 60.58436 
L 224.20194 60.58436 
L 224.421125 60.58436 
L 224.611343 60.58436 
L 224.762529 60.58436 
L 225.103373 60.58436 
L 225.226682 60.58436 
L 225.465525 60.58436 
L 225.688634 60.58436 
L 225.80877 60.58436 
L 226.005743 60.58436 
L 226.263396 60.58436 
L 226.450664 60.58436 
L 226.824317 60.58436 
L 226.877035 60.58436 
L 227.151866 60.58436 
L 227.511498 60.58436 
L 227.656468 60.58436 
L 227.84661 60.58436 
L 228.05351 60.58436 
L 228.256855 60.58436 
L 228.512052 60.58436 
L 228.760296 60.58436 
L 228.934886 60.58436 
L 229.217695 60.58436 
L 229.296014 60.58436 
L 229.516545 60.58436 
L 229.701027 60.58436 
L 230.075844 60.58436 
L 230.327765 60.58436 
L 230.384706 60.58436 
L 230.602515 60.58436 
L 230.857475 60.58436 
L 231.03338 60.58436 
L 231.24101 60.58436 
L 231.476265 60.58436 
L 231.730101 60.58436 
L 231.986492 60.58436 
L 232.09983 60.58436 
L 232.319405 60.58436 
L 232.561982 60.58436 
L 232.775951 60.58436 
L 232.984993 60.58436 
L 233.349075 60.58436 
L 233.39056 60.58436 
L 233.806444 60.58436 
L 233.899348 60.58436 
L 234.216634 60.58436 
L 234.448832 60.58436 
L 234.661894 60.58436 
L 234.833297 60.58436 
L 235.097601 60.58436 
L 235.166282 60.58436 
L 235.343547 60.58436 
L 235.639411 60.58436 
L 235.886108 60.58436 
L 236.14066 60.58436 
L 236.414054 60.58436 
L 236.594385 60.58436 
L 236.746604 60.58436 
L 237.053315 60.58436 
L 237.155954 60.58436 
L 237.286799 60.58436 
L 237.620675 60.58436 
L 237.816445 60.58436 
L 238.117342 60.58436 
L 238.23166 60.58436 
L 238.527852 60.58436 
L 238.671982 60.58436 
L 238.983372 60.58436 
L 239.224593 60.58436 
L 239.32693 60.58436 
L 239.597491 60.58436 
L 239.683172 60.58436 
L 239.910678 60.58436 
L 240.295965 60.58436 
L 240.350184 60.58436 
L 240.57967 60.58436 
L 240.804902 60.58436 
L 241.113245 60.58436 
L 241.231824 60.58436 
L 241.553058 60.58436 
L 241.76802 60.58436 
L 241.853547 60.58436 
L 242.19855 60.58436 
L 242.484607 60.58436 
L 242.509564 60.58436 
L 242.861656 60.58436 
L 242.950033 60.58436 
L 243.298155 60.58436 
L 243.513873 60.58436 
L 243.726637 60.58436 
L 244.004093 60.58436 
L 244.204536 60.58436 
L 244.405093 60.58436 
L 244.508683 60.58436 
L 244.702891 60.58436 
L 244.966459 60.58436 
L 245.295901 60.58436 
L 245.472568 60.58436 
L 245.686962 60.58436 
L 245.904129 60.58436 
L 246.067868 60.58436 
L 246.249483 60.58436 
L 246.416784 60.58436 
L 246.785323 60.58436 
L 246.928663 60.58436 
L 247.170506 60.58436 
L 247.3958 60.58436 
L 247.619156 60.58436 
L 247.849798 60.58436 
L 248.083166 60.58436 
L 248.191688 60.58436 
L 248.556829 60.58436 
L 248.664153 60.58436 
L 248.82831 60.58436 
L 249.12824 60.58436 
L 249.334046 60.58436 
L 249.334046 252.870331 
z
" style="fill:#cde0eb;opacity:0.5;"/>
   </g>
   <g id="matplotlib.axis_1">
    <g id="xtick_1">
     <g id="line2d_1">
      <defs>
       <path d="M 0 0 
L 0 3.5 
" id="m6c0c39c179" style="stroke:#000000;stroke-width:0.8;"/>
      </defs>
      <g>
       <use style="stroke:#000000;stroke-width:0.8;" x="33.28375" xlink:href="#m6c0c39c179" y="252.870331"/>
      </g>
     </g>
    </g>
    <g id="xtick_2">
     <g id="line2d_2">
      <g>
       <use style="stroke:#000000;stroke-width:0.8;" x="76.493809" xlink:href="#m6c0c39c179" y="252.870331"/>
      </g>
     </g>
     <g id="text_1">
      <!-- 1/5 -->
      <defs>
       <path d="M 12.40625 8.296875 
L 28.515625 8.296875 
L 28.515625 63.921875 
L 10.984375 60.40625 
L 10.984375 69.390625 
L 28.421875 72.90625 
L 38.28125 72.90625 
L 38.28125 8.296875 
L 54.390625 8.296875 
L 54.390625 0 
L 12.40625 0 
z
" id="DejaVuSans-49"/>
       <path d="M 25.390625 72.90625 
L 33.6875 72.90625 
L 8.296875 -9.28125 
L 0 -9.28125 
z
" id="DejaVuSans-47"/>
       <path d="M 10.796875 72.90625 
L 49.515625 72.90625 
L 49.515625 64.59375 
L 19.828125 64.59375 
L 19.828125 46.734375 
Q 21.96875 47.46875 24.109375 47.828125 
Q 26.265625 48.1875 28.421875 48.1875 
Q 40.625 48.1875 47.75 41.5 
Q 54.890625 34.8125 54.890625 23.390625 
Q 54.890625 11.625 47.5625 5.09375 
Q 40.234375 -1.421875 26.90625 -1.421875 
Q 22.3125 -1.421875 17.546875 -0.640625 
Q 12.796875 0.140625 7.71875 1.703125 
L 7.71875 11.625 
Q 12.109375 9.234375 16.796875 8.0625 
Q 21.484375 6.890625 26.703125 6.890625 
Q 35.15625 6.890625 40.078125 11.328125 
Q 45.015625 15.765625 45.015625 23.390625 
Q 45.015625 31 40.078125 35.4375 
Q 35.15625 39.890625 26.703125 39.890625 
Q 22.75 39.890625 18.8125 39.015625 
Q 14.890625 38.140625 10.796875 36.28125 
z
" id="DejaVuSans-53"/>
      </defs>
      <g transform="translate(66.837559 268.988456)scale(0.12 -0.12)">
       <use xlink:href="#DejaVuSans-49"/>
       <use x="63.623047" xlink:href="#DejaVuSans-47"/>
       <use x="97.314453" xlink:href="#DejaVuSans-53"/>
      </g>
     </g>
    </g>
    <g id="xtick_3">
     <g id="line2d_3">
      <g>
       <use style="stroke:#000000;stroke-width:0.8;" x="119.703868" xlink:href="#m6c0c39c179" y="252.870331"/>
      </g>
     </g>
     <g id="text_2">
      <!-- 2/5 -->
      <defs>
       <path d="M 19.1875 8.296875 
L 53.609375 8.296875 
L 53.609375 0 
L 7.328125 0 
L 7.328125 8.296875 
Q 12.9375 14.109375 22.625 23.890625 
Q 32.328125 33.6875 34.8125 36.53125 
Q 39.546875 41.84375 41.421875 45.53125 
Q 43.3125 49.21875 43.3125 52.78125 
Q 43.3125 58.59375 39.234375 62.25 
Q 35.15625 65.921875 28.609375 65.921875 
Q 23.96875 65.921875 18.8125 64.3125 
Q 13.671875 62.703125 7.8125 59.421875 
L 7.8125 69.390625 
Q 13.765625 71.78125 18.9375 73 
Q 24.125 74.21875 28.421875 74.21875 
Q 39.75 74.21875 46.484375 68.546875 
Q 53.21875 62.890625 53.21875 53.421875 
Q 53.21875 48.921875 51.53125 44.890625 
Q 49.859375 40.875 45.40625 35.40625 
Q 44.1875 33.984375 37.640625 27.21875 
Q 31.109375 20.453125 19.1875 8.296875 
z
" id="DejaVuSans-50"/>
      </defs>
      <g transform="translate(110.047618 268.988456)scale(0.12 -0.12)">
       <use xlink:href="#DejaVuSans-50"/>
       <use x="63.623047" xlink:href="#DejaVuSans-47"/>
       <use x="97.314453" xlink:href="#DejaVuSans-53"/>
      </g>
     </g>
    </g>
    <g id="xtick_4">
     <g id="line2d_4">
      <g>
       <use style="stroke:#000000;stroke-width:0.8;" x="162.913928" xlink:href="#m6c0c39c179" y="252.870331"/>
      </g>
     </g>
     <g id="text_3">
      <!-- 3/5 -->
      <defs>
       <path d="M 40.578125 39.3125 
Q 47.65625 37.796875 51.625 33 
Q 55.609375 28.21875 55.609375 21.1875 
Q 55.609375 10.40625 48.1875 4.484375 
Q 40.765625 -1.421875 27.09375 -1.421875 
Q 22.515625 -1.421875 17.65625 -0.515625 
Q 12.796875 0.390625 7.625 2.203125 
L 7.625 11.71875 
Q 11.71875 9.328125 16.59375 8.109375 
Q 21.484375 6.890625 26.8125 6.890625 
Q 36.078125 6.890625 40.9375 10.546875 
Q 45.796875 14.203125 45.796875 21.1875 
Q 45.796875 27.640625 41.28125 31.265625 
Q 36.765625 34.90625 28.71875 34.90625 
L 20.21875 34.90625 
L 20.21875 43.015625 
L 29.109375 43.015625 
Q 36.375 43.015625 40.234375 45.921875 
Q 44.09375 48.828125 44.09375 54.296875 
Q 44.09375 59.90625 40.109375 62.90625 
Q 36.140625 65.921875 28.71875 65.921875 
Q 24.65625 65.921875 20.015625 65.03125 
Q 15.375 64.15625 9.8125 62.3125 
L 9.8125 71.09375 
Q 15.4375 72.65625 20.34375 73.4375 
Q 25.25 74.21875 29.59375 74.21875 
Q 40.828125 74.21875 47.359375 69.109375 
Q 53.90625 64.015625 53.90625 55.328125 
Q 53.90625 49.265625 50.4375 45.09375 
Q 46.96875 40.921875 40.578125 39.3125 
z
" id="DejaVuSans-51"/>
      </defs>
      <g transform="translate(153.257678 268.988456)scale(0.12 -0.12)">
       <use xlink:href="#DejaVuSans-51"/>
       <use x="63.623047" xlink:href="#DejaVuSans-47"/>
       <use x="97.314453" xlink:href="#DejaVuSans-53"/>
      </g>
     </g>
    </g>
    <g id="xtick_5">
     <g id="line2d_5">
      <g>
       <use style="stroke:#000000;stroke-width:0.8;" x="206.123987" xlink:href="#m6c0c39c179" y="252.870331"/>
      </g>
     </g>
     <g id="text_4">
      <!-- 4/5 -->
      <defs>
       <path d="M 37.796875 64.3125 
L 12.890625 25.390625 
L 37.796875 25.390625 
z
M 35.203125 72.90625 
L 47.609375 72.90625 
L 47.609375 25.390625 
L 58.015625 25.390625 
L 58.015625 17.1875 
L 47.609375 17.1875 
L 47.609375 0 
L 37.796875 0 
L 37.796875 17.1875 
L 4.890625 17.1875 
L 4.890625 26.703125 
z
" id="DejaVuSans-52"/>
      </defs>
      <g transform="translate(196.467737 268.988456)scale(0.12 -0.12)">
       <use xlink:href="#DejaVuSans-52"/>
       <use x="63.623047" xlink:href="#DejaVuSans-47"/>
       <use x="97.314453" xlink:href="#DejaVuSans-53"/>
      </g>
     </g>
    </g>
    <g id="xtick_6">
     <g id="line2d_6">
      <g>
       <use style="stroke:#000000;stroke-width:0.8;" x="249.334046" xlink:href="#m6c0c39c179" y="252.870331"/>
      </g>
     </g>
     <g id="text_5">
      <!-- 1 -->
      <g transform="translate(245.516546 268.988456)scale(0.12 -0.12)">
       <use xlink:href="#DejaVuSans-49"/>
      </g>
     </g>
    </g>
    <g id="text_6">
     <!-- $x$ -->
     <defs>
      <path d="M 7.8125 2.875 
Q 9.578125 1.515625 12.796875 1.515625 
Q 15.921875 1.515625 18.3125 4.515625 
Q 20.703125 7.515625 21.578125 11.078125 
L 26.125 28.8125 
Q 27.203125 33.640625 27.203125 35.40625 
Q 27.203125 37.890625 25.8125 39.75 
Q 24.421875 41.609375 21.921875 41.609375 
Q 18.75 41.609375 15.96875 39.625 
Q 13.1875 37.640625 11.28125 34.59375 
Q 9.375 31.546875 8.59375 28.421875 
Q 8.40625 27.78125 7.8125 27.78125 
L 6.59375 27.78125 
Q 5.8125 27.78125 5.8125 28.71875 
L 5.8125 29 
Q 6.78125 32.71875 9.125 36.25 
Q 11.46875 39.796875 14.859375 41.984375 
Q 18.265625 44.1875 22.125 44.1875 
Q 25.78125 44.1875 28.734375 42.234375 
Q 31.6875 40.28125 32.90625 36.921875 
Q 34.625 39.984375 37.28125 42.078125 
Q 39.9375 44.1875 43.109375 44.1875 
Q 45.265625 44.1875 47.5 43.421875 
Q 49.75 42.671875 51.171875 41.109375 
Q 52.59375 39.546875 52.59375 37.203125 
Q 52.59375 34.671875 50.953125 32.828125 
Q 49.3125 31 46.78125 31 
Q 45.171875 31 44.09375 32.03125 
Q 43.015625 33.0625 43.015625 34.625 
Q 43.015625 36.71875 44.453125 38.296875 
Q 45.90625 39.890625 47.90625 40.1875 
Q 46.09375 41.609375 42.921875 41.609375 
Q 39.703125 41.609375 37.328125 38.625 
Q 34.96875 35.640625 33.984375 31.984375 
L 29.59375 14.3125 
Q 28.515625 10.296875 28.515625 7.71875 
Q 28.515625 5.171875 29.953125 3.34375 
Q 31.390625 1.515625 33.796875 1.515625 
Q 38.484375 1.515625 42.15625 5.640625 
Q 45.84375 9.765625 47.015625 14.703125 
Q 47.21875 15.28125 47.796875 15.28125 
L 49.03125 15.28125 
Q 49.421875 15.28125 49.65625 15.015625 
Q 49.90625 14.75 49.90625 14.40625 
Q 49.90625 14.3125 49.8125 14.109375 
Q 48.390625 8.15625 43.84375 3.515625 
Q 39.3125 -1.125 33.59375 -1.125 
Q 29.9375 -1.125 26.984375 0.84375 
Q 24.03125 2.828125 22.796875 6.203125 
Q 21.234375 3.265625 18.46875 1.0625 
Q 15.71875 -1.125 12.59375 -1.125 
Q 10.453125 -1.125 8.171875 -0.359375 
Q 5.90625 0.390625 4.484375 1.953125 
Q 3.078125 3.515625 3.078125 5.90625 
Q 3.078125 8.25 4.703125 10.171875 
Q 6.34375 12.109375 8.796875 12.109375 
Q 10.453125 12.109375 11.578125 11.109375 
Q 12.703125 10.109375 12.703125 8.5 
Q 12.703125 6.390625 11.296875 4.828125 
Q 9.90625 3.265625 7.8125 2.875 
z
" id="Cmmi10-120"/>
     </defs>
     <g transform="translate(261.655052 252.870331)scale(0.19 -0.19)">
      <use transform="translate(0 0.8125)" xlink:href="#Cmmi10-120"/>
     </g>
    </g>
   </g>
   <g id="matplotlib.axis_2">
    <g id="ytick_1">
     <g id="line2d_7">
      <defs>
       <path d="M 0 0 
L -3.5 0 
" id="m24bcffeb5e" style="stroke:#000000;stroke-width:0.8;"/>
      </defs>
      <g>
       <use style="stroke:#000000;stroke-width:0.8;" x="33.28375" xlink:href="#m24bcffeb5e" y="252.870331"/>
      </g>
     </g>
    </g>
    <g id="ytick_2">
     <g id="line2d_8">
      <g>
       <use style="stroke:#000000;stroke-width:0.8;" x="33.28375" xlink:href="#m24bcffeb5e" y="37.888079"/>
      </g>
     </g>
     <g id="text_7">
      <!-- 1.0 -->
      <defs>
       <path d="M 10.6875 12.40625 
L 21 12.40625 
L 21 0 
L 10.6875 0 
z
" id="DejaVuSans-46"/>
       <path d="M 31.78125 66.40625 
Q 24.171875 66.40625 20.328125 58.90625 
Q 16.5 51.421875 16.5 36.375 
Q 16.5 21.390625 20.328125 13.890625 
Q 24.171875 6.390625 31.78125 6.390625 
Q 39.453125 6.390625 43.28125 13.890625 
Q 47.125 21.390625 47.125 36.375 
Q 47.125 51.421875 43.28125 58.90625 
Q 39.453125 66.40625 31.78125 66.40625 
z
M 31.78125 74.21875 
Q 44.046875 74.21875 50.515625 64.515625 
Q 56.984375 54.828125 56.984375 36.375 
Q 56.984375 17.96875 50.515625 8.265625 
Q 44.046875 -1.421875 31.78125 -1.421875 
Q 19.53125 -1.421875 13.0625 8.265625 
Q 6.59375 17.96875 6.59375 36.375 
Q 6.59375 54.828125 13.0625 64.515625 
Q 19.53125 74.21875 31.78125 74.21875 
z
" id="DejaVuSans-48"/>
      </defs>
      <g transform="translate(7.2 42.447142)scale(0.12 -0.12)">
       <use xlink:href="#DejaVuSans-49"/>
       <use x="63.623047" xlink:href="#DejaVuSans-46"/>
       <use x="95.410156" xlink:href="#DejaVuSans-48"/>
      </g>
     </g>
    </g>
    <g id="text_8">
     <!-- $y$ -->
     <defs>
      <path d="M 8.40625 -14.3125 
Q 10.5 -17.921875 15.71875 -17.921875 
Q 20.453125 -17.921875 23.921875 -14.59375 
Q 27.390625 -11.28125 29.515625 -6.5625 
Q 31.640625 -1.859375 32.8125 3.078125 
Q 28.375 -1.125 23.1875 -1.125 
Q 19.234375 -1.125 16.453125 0.234375 
Q 13.671875 1.609375 12.125 4.3125 
Q 10.59375 7.03125 10.59375 10.890625 
Q 10.59375 14.15625 11.46875 17.59375 
Q 12.359375 21.046875 13.9375 25.265625 
Q 15.53125 29.5 16.703125 32.625 
Q 18.015625 36.28125 18.015625 38.625 
Q 18.015625 41.609375 15.828125 41.609375 
Q 11.859375 41.609375 9.296875 37.53125 
Q 6.734375 33.453125 5.515625 28.421875 
Q 5.328125 27.78125 4.6875 27.78125 
L 3.515625 27.78125 
Q 2.6875 27.78125 2.6875 28.71875 
L 2.6875 29 
Q 4.296875 34.96875 7.609375 39.578125 
Q 10.9375 44.1875 16.015625 44.1875 
Q 19.578125 44.1875 22.046875 41.84375 
Q 24.515625 39.5 24.515625 35.890625 
Q 24.515625 34.03125 23.6875 31.984375 
Q 23.25 30.765625 21.6875 26.65625 
Q 20.125 22.5625 19.28125 19.875 
Q 18.453125 17.1875 17.921875 14.59375 
Q 17.390625 12.015625 17.390625 9.421875 
Q 17.390625 6.109375 18.796875 3.8125 
Q 20.21875 1.515625 23.296875 1.515625 
Q 29.5 1.515625 34.421875 9.078125 
L 42 39.890625 
Q 42.328125 41.21875 43.546875 42.15625 
Q 44.78125 43.109375 46.1875 43.109375 
Q 47.40625 43.109375 48.3125 42.328125 
Q 49.21875 41.546875 49.21875 40.28125 
Q 49.21875 39.703125 49.125 39.5 
L 39.203125 -0.296875 
Q 37.890625 -5.421875 34.375 -10.109375 
Q 30.859375 -14.796875 25.90625 -17.65625 
Q 20.953125 -20.515625 15.578125 -20.515625 
Q 12.984375 -20.515625 10.4375 -19.5 
Q 7.90625 -18.5 6.34375 -16.5 
Q 4.78125 -14.5 4.78125 -11.8125 
Q 4.78125 -9.078125 6.390625 -7.078125 
Q 8.015625 -5.078125 10.6875 -5.078125 
Q 12.3125 -5.078125 13.40625 -6.078125 
Q 14.5 -7.078125 14.5 -8.6875 
Q 14.5 -10.984375 12.78125 -12.6875 
Q 11.078125 -14.40625 8.796875 -14.40625 
Q 8.6875 -14.359375 8.59375 -14.328125 
Q 8.5 -14.3125 8.40625 -14.3125 
z
" id="Cmmi10-121"/>
     </defs>
     <g transform="translate(28.53375 21.598438)scale(0.19 -0.19)">
      <use transform="translate(0 0.8125)" xlink:href="#Cmmi10-121"/>
     </g>
    </g>
   </g>
   <g id="line2d_9">
    <path clip-path="url(#pa3adbe2d1c)" d="M 33.28375 252.870331 
L 33.428297 247.309623 
L 33.789665 242.4672 
L 34.385863 237.515743 
L 35.171748 232.773576 
L 36.181737 227.971818 
L 37.348601 223.382182 
L 38.74158 218.701102 
L 40.333137 214.03734 
L 42.549099 208.350237 
L 44.771826 203.296918 
L 47.134329 198.437724 
L 50.117406 192.861606 
L 53.353498 187.346975 
L 56.629429 182.201415 
L 59.282355 178.29414 
L 63.409425 172.592881 
L 68.016459 166.672864 
L 72.119609 161.723488 
L 77.809852 155.27422 
L 83.47763 149.248668 
L 89.769317 142.945978 
L 95.922733 137.113261 
L 102.269928 131.38993 
L 110.006694 124.758923 
L 116.600716 119.367063 
L 125.359108 112.525351 
L 134.009302 106.080827 
L 142.583871 99.960469 
L 152.266666 93.331106 
L 163.056988 86.253932 
L 172.94118 80.025181 
L 184.27346 73.149321 
L 195.870484 66.375101 
L 208.109904 59.482841 
L 221.085032 52.43492 
L 234.774987 45.257947 
L 249.334046 37.888079 
L 249.334046 37.888079 
" style="fill:none;stroke:#0000ff;stroke-linecap:square;"/>
   </g>
   <g id="line2d_10">
    <path clip-path="url(#pa3adbe2d1c)" d="M 33.28375 252.870331 
L 33.28375 252.870331 
L 76.493809 252.870331 
L 76.493809 252.870331 
" style="fill:none;stroke:#ff0000;stroke-linecap:square;"/>
   </g>
   <g id="line2d_11">
    <path clip-path="url(#pa3adbe2d1c)" d="M 33.28375 252.870331 
L 76.493809 252.870331 
L 76.493809 252.870331 
" style="fill:none;stroke:#ff0000;stroke-linecap:square;"/>
   </g>
   <g id="line2d_12">
    <path clip-path="url(#pa3adbe2d1c)" d="M 76.493809 252.870331 
L 76.493809 156.727345 
L 119.703868 156.727345 
L 119.703868 252.870331 
" style="fill:none;stroke:#ff0000;stroke-linecap:square;"/>
   </g>
   <g id="line2d_13">
    <path clip-path="url(#pa3adbe2d1c)" d="M 76.493809 156.727345 
L 119.703868 156.727345 
L 119.703868 156.727345 
" style="fill:none;stroke:#ff0000;stroke-linecap:square;"/>
   </g>
   <g id="line2d_14">
    <path clip-path="url(#pa3adbe2d1c)" d="M 119.703868 252.870331 
L 119.703868 116.903617 
L 162.913928 116.903617 
L 162.913928 252.870331 
" style="fill:none;stroke:#ff0000;stroke-linecap:square;"/>
   </g>
   <g id="line2d_15">
    <path clip-path="url(#pa3adbe2d1c)" d="M 119.703868 116.903617 
L 162.913928 116.903617 
L 162.913928 116.903617 
" style="fill:none;stroke:#ff0000;stroke-linecap:square;"/>
   </g>
   <g id="line2d_16">
    <path clip-path="url(#pa3adbe2d1c)" d="M 162.913928 252.870331 
L 162.913928 86.345795 
L 206.123987 86.345795 
L 206.123987 252.870331 
" style="fill:none;stroke:#ff0000;stroke-linecap:square;"/>
   </g>
   <g id="line2d_17">
    <path clip-path="url(#pa3adbe2d1c)" d="M 162.913928 86.345795 
L 206.123987 86.345795 
L 206.123987 86.345795 
" style="fill:none;stroke:#ff0000;stroke-linecap:square;"/>
   </g>
   <g id="line2d_18">
    <path clip-path="url(#pa3adbe2d1c)" d="M 206.123987 252.870331 
L 206.123987 60.58436 
L 249.334046 60.58436 
L 249.334046 252.870331 
" style="fill:none;stroke:#ff0000;stroke-linecap:square;"/>
   </g>
   <g id="line2d_19">
    <path clip-path="url(#pa3adbe2d1c)" d="M 206.123987 60.58436 
L 249.334046 60.58436 
L 249.334046 60.58436 
" style="fill:none;stroke:#ff0000;stroke-linecap:square;"/>
   </g>
   <g id="patch_8">
    <path d="M 33.28375 257.169976 
L 33.28375 33.588438 
" style="fill:none;stroke:#000000;stroke-linecap:square;stroke-linejoin:miter;stroke-width:0.8;"/>
   </g>
   <g id="patch_9">
    <path d="M 28.962744 252.870331 
L 253.655052 252.870331 
" style="fill:none;stroke:#000000;stroke-linecap:square;stroke-linejoin:miter;stroke-width:0.8;"/>
   </g>
   <g id="text_9">
    <!-- $y=\sqrt{x}$ -->
    <defs>
     <path d="M 7.515625 13.28125 
Q 6.6875 13.28125 6.140625 13.90625 
Q 5.609375 14.546875 5.609375 15.28125 
Q 5.609375 16.109375 6.140625 16.6875 
Q 6.6875 17.28125 7.515625 17.28125 
L 70.3125 17.28125 
Q 71.046875 17.28125 71.578125 16.6875 
Q 72.125 16.109375 72.125 15.28125 
Q 72.125 14.546875 71.578125 13.90625 
Q 71.046875 13.28125 70.3125 13.28125 
z
M 7.515625 32.71875 
Q 6.6875 32.71875 6.140625 33.296875 
Q 5.609375 33.890625 5.609375 34.71875 
Q 5.609375 35.453125 6.140625 36.078125 
Q 6.6875 36.71875 7.515625 36.71875 
L 70.3125 36.71875 
Q 71.046875 36.71875 71.578125 36.078125 
Q 72.125 35.453125 72.125 34.71875 
Q 72.125 33.890625 71.578125 33.296875 
Q 71.046875 32.71875 70.3125 32.71875 
z
" id="Cmr10-61"/>
     <path d="M 42.390625 -116.015625 
L 19.828125 -63.484375 
L 12.796875 -68.890625 
L 10.984375 -67.09375 
L 25.296875 -56 
L 46.390625 -105.078125 
L 98.296875 3.078125 
Q 98.78125 4 100 4 
Q 100.828125 4 101.40625 3.40625 
Q 102 2.828125 102 2 
Q 102 1.515625 101.90625 1.3125 
L 46.09375 -115.09375 
Q 45.703125 -116.015625 44.578125 -116.015625 
z
" id="Cmex10-112"/>
    </defs>
    <g style="fill:#0000ff;" transform="translate(98.143868 67.428054)scale(0.14 -0.14)">
     <use transform="translate(0 0.578125)" xlink:href="#Cmmi10-121"/>
     <use transform="translate(66.582031 0.578125)" xlink:href="#Cmr10-61"/>
     <use transform="translate(161.826172 73.453125)scale(0.637938)" xlink:href="#Cmex10-112"/>
     <use transform="translate(238.107422 0.5625)" xlink:href="#Cmmi10-120"/>
     <path d="M 225.607422 69.5 
L 225.607422 75.75 
L 307.6875 75.75 
L 307.6875 69.5 
L 225.607422 69.5 
z
"/>
    </g>
   </g>
   <g id="text_10">
    <!-- $y=\sqrt{x}$ -->
    <g style="fill:#0000ff;" transform="translate(98.143868 67.428054)scale(0.14 -0.14)">
     <use transform="translate(0 0.578125)" xlink:href="#Cmmi10-121"/>
     <use transform="translate(66.582031 0.578125)" xlink:href="#Cmr10-61"/>
     <use transform="translate(161.826172 73.453125)scale(0.637938)" xlink:href="#Cmex10-112"/>
     <use transform="translate(238.107422 0.5625)" xlink:href="#Cmmi10-120"/>
     <path d="M 225.607422 69.5 
L 225.607422 75.75 
L 307.6875 75.75 
L 307.6875 69.5 
L 225.607422 69.5 
z
"/>
    </g>
   </g>
   <g id="text_11">
    <!-- $y=\sqrt{x}$ -->
    <g style="fill:#0000ff;" transform="translate(98.143868 67.428054)scale(0.14 -0.14)">
     <use transform="translate(0 0.578125)" xlink:href="#Cmmi10-121"/>
     <use transform="translate(66.582031 0.578125)" xlink:href="#Cmr10-61"/>
     <use transform="translate(161.826172 73.453125)scale(0.637938)" xlink:href="#Cmex10-112"/>
     <use transform="translate(238.107422 0.5625)" xlink:href="#Cmmi10-120"/>
     <path d="M 225.607422 69.5 
L 225.607422 75.75 
L 307.6875 75.75 
L 307.6875 69.5 
L 225.607422 69.5 
z
"/>
    </g>
   </g>
   <g id="text_12">
    <!-- $y=\sqrt{x}$ -->
    <g style="fill:#0000ff;" transform="translate(98.143868 67.428054)scale(0.14 -0.14)">
     <use transform="translate(0 0.578125)" xlink:href="#Cmmi10-121"/>
     <use transform="translate(66.582031 0.578125)" xlink:href="#Cmr10-61"/>
     <use transform="translate(161.826172 73.453125)scale(0.637938)" xlink:href="#Cmex10-112"/>
     <use transform="translate(238.107422 0.5625)" xlink:href="#Cmmi10-120"/>
     <path d="M 225.607422 69.5 
L 225.607422 75.75 
L 307.6875 75.75 
L 307.6875 69.5 
L 225.607422 69.5 
z
"/>
    </g>
   </g>
   <g id="text_13">
    <!-- $y=\sqrt{x}$ -->
    <g style="fill:#0000ff;" transform="translate(98.143868 67.428054)scale(0.14 -0.14)">
     <use transform="translate(0 0.578125)" xlink:href="#Cmmi10-121"/>
     <use transform="translate(66.582031 0.578125)" xlink:href="#Cmr10-61"/>
     <use transform="translate(161.826172 73.453125)scale(0.637938)" xlink:href="#Cmex10-112"/>
     <use transform="translate(238.107422 0.5625)" xlink:href="#Cmmi10-120"/>
     <path d="M 225.607422 69.5 
L 225.607422 75.75 
L 307.6875 75.75 
L 307.6875 69.5 
L 225.607422 69.5 
z
"/>
    </g>
   </g>
  </g>
 </g>
 <defs>
  <clipPath id="pa3adbe2d1c">
   <rect height="223.581538" width="224.692308" x="28.962744" y="33.588437"/>
  </clipPath>
 </defs>
</svg>
