<?xml version="1.0" encoding="utf-8" standalone="no"?>
<!DOCTYPE svg PUBLIC "-//W3C//DTD SVG 1.1//EN"
  "http://www.w3.org/Graphics/SVG/1.1/DTD/svg11.dtd">
<!-- Created with matplotlib (https://matplotlib.org/) -->
<svg height="278.684081pt" version="1.1" viewBox="0 0 279.875052 278.684081" width="279.875052pt" xmlns="http://www.w3.org/2000/svg" xmlns:xlink="http://www.w3.org/1999/xlink">
 <defs>
  <style type="text/css">
*{stroke-linecap:butt;stroke-linejoin:round;}
  </style>
 </defs>
 <g id="figure_1">
  <g id="patch_1">
   <path d="M 0 278.684081 
L 279.875052 278.684081 
L 279.875052 0 
L 0 0 
z
" style="fill:#ffffff;"/>
  </g>
  <g id="axes_1">
   <g id="patch_2">
    <path d="M 28.962744 257.169976 
L 253.655052 257.169976 
L 253.655052 33.588438 
L 28.962744 33.588438 
z
" style="fill:#ffffff;"/>
   </g>
   <g id="PathCollection_1">
    <path clip-path="url(#pac604f89e9)" d="M 76.493809 245.852179 
C 76.913132 245.852179 77.315337 245.685581 77.611843 245.389075 
C 77.908349 245.092568 78.074948 244.690363 78.074948 244.271041 
C 78.074948 243.851718 77.908349 243.449513 77.611843 243.153007 
C 77.315337 242.8565 76.913132 242.689902 76.493809 242.689902 
C 76.074486 242.689902 75.672281 242.8565 75.375775 243.153007 
C 75.079269 243.449513 74.91267 243.851718 74.91267 244.271041 
C 74.91267 244.690363 75.079269 245.092568 75.375775 245.389075 
C 75.672281 245.685581 76.074486 245.852179 76.493809 245.852179 
z
" style="fill:#ff0000;"/>
   </g>
   <g id="PathCollection_2">
    <path clip-path="url(#pac604f89e9)" d="M 119.703868 220.054308 
C 120.123191 220.054308 120.525396 219.887709 120.821902 219.591203 
C 121.118408 219.294697 121.285007 218.892492 121.285007 218.473169 
C 121.285007 218.053846 121.118408 217.651641 120.821902 217.355135 
C 120.525396 217.058629 120.123191 216.89203 119.703868 216.89203 
C 119.284545 216.89203 118.88234 217.058629 118.585834 217.355135 
C 118.289328 217.651641 118.12273 218.053846 118.12273 218.473169 
C 118.12273 218.892492 118.289328 219.294697 118.585834 219.591203 
C 118.88234 219.887709 119.284545 220.054308 119.703868 220.054308 
z
" style="fill:#ff0000;"/>
   </g>
   <g id="PathCollection_3">
    <path clip-path="url(#pac604f89e9)" d="M 162.913928 177.057856 
C 163.33325 177.057856 163.735455 176.891257 164.031962 176.594751 
C 164.328468 176.298245 164.495066 175.89604 164.495066 175.476717 
C 164.495066 175.057394 164.328468 174.655189 164.031962 174.358683 
C 163.735455 174.062177 163.33325 173.895578 162.913928 173.895578 
C 162.494605 173.895578 162.0924 174.062177 161.795894 174.358683 
C 161.499387 174.655189 161.332789 175.057394 161.332789 175.476717 
C 161.332789 175.89604 161.499387 176.298245 161.795894 176.594751 
C 162.0924 176.891257 162.494605 177.057856 162.913928 177.057856 
z
" style="fill:#ff0000;"/>
   </g>
   <g id="PathCollection_4">
    <path clip-path="url(#pac604f89e9)" d="M 206.123987 116.862823 
C 206.54331 116.862823 206.945515 116.696224 207.242021 116.399718 
C 207.538527 116.103212 207.705126 115.701007 207.705126 115.281684 
C 207.705126 114.862361 207.538527 114.460156 207.242021 114.16365 
C 206.945515 113.867144 206.54331 113.700545 206.123987 113.700545 
C 205.704664 113.700545 205.302459 113.867144 205.005953 114.16365 
C 204.709447 114.460156 204.542848 114.862361 204.542848 115.281684 
C 204.542848 115.701007 204.709447 116.103212 205.005953 116.399718 
C 205.302459 116.696224 205.704664 116.862823 206.123987 116.862823 
z
" style="fill:#ff0000;"/>
   </g>
   <g id="PathCollection_5">
    <path clip-path="url(#pac604f89e9)" d="M 249.334046 39.469209 
C 249.753369 39.469209 250.155574 39.30261 250.45208 39.006104 
C 250.748586 38.709598 250.915185 38.307393 250.915185 37.88807 
C 250.915185 37.468747 250.748586 37.066542 250.45208 36.770036 
C 250.155574 36.47353 249.753369 36.306931 249.334046 36.306931 
C 248.914723 36.306931 248.512518 36.47353 248.216012 36.770036 
C 247.919506 37.066542 247.752907 37.468747 247.752907 37.88807 
C 247.752907 38.307393 247.919506 38.709598 248.216012 39.006104 
C 248.512518 39.30261 248.914723 39.469209 249.334046 39.469209 
z
" style="fill:#ff0000;"/>
   </g>
   <g id="patch_3">
    <path clip-path="url(#pac604f89e9)" d="M 33.28375 252.870331 
L 33.28375 244.271041 
L 33.43535 244.271041 
L 33.650139 244.271041 
L 33.982876 244.271041 
L 34.053927 244.271041 
L 34.453315 244.271041 
L 34.668803 244.271041 
L 34.865866 244.271041 
L 34.973432 244.271041 
L 35.339036 244.271041 
L 35.427428 244.271041 
L 35.64472 244.271041 
L 35.793319 244.271041 
L 36.210471 244.271041 
L 36.268312 244.271041 
L 36.565028 244.271041 
L 36.857339 244.271041 
L 36.868537 244.271041 
L 37.242113 244.271041 
L 37.301499 244.271041 
L 37.536639 244.271041 
L 37.91399 244.271041 
L 38.117898 244.271041 
L 38.378828 244.271041 
L 38.594071 244.271041 
L 38.70584 244.271041 
L 38.830035 244.271041 
L 39.150077 244.271041 
L 39.262854 244.271041 
L 39.583719 244.271041 
L 39.732687 244.271041 
L 40.017937 244.271041 
L 40.300457 244.271041 
L 40.513437 244.271041 
L 40.711109 244.271041 
L 40.899035 244.271041 
L 41.05539 244.271041 
L 41.2855 244.271041 
L 41.541562 244.271041 
L 41.746005 244.271041 
L 41.989589 244.271041 
L 42.154493 244.271041 
L 42.481291 244.271041 
L 42.555653 244.271041 
L 42.83451 244.271041 
L 43.026775 244.271041 
L 43.296941 244.271041 
L 43.558842 244.271041 
L 43.711201 244.271041 
L 43.97903 244.271041 
L 44.187528 244.271041 
L 44.290691 244.271041 
L 44.568149 244.271041 
L 44.807166 244.271041 
L 44.932723 244.271041 
L 45.288802 244.271041 
L 45.53253 244.271041 
L 45.591135 244.271041 
L 45.795923 244.271041 
L 46.14795 244.271041 
L 46.32284 244.271041 
L 46.561665 244.271041 
L 46.762482 244.271041 
L 46.958444 244.271041 
L 47.116597 244.271041 
L 47.365861 244.271041 
L 47.579425 244.271041 
L 47.847855 244.271041 
L 48.08793 244.271041 
L 48.18783 244.271041 
L 48.580596 244.271041 
L 48.797069 244.271041 
L 48.968003 244.271041 
L 49.12409 244.271041 
L 49.450734 244.271041 
L 49.546494 244.271041 
L 49.697018 244.271041 
L 49.956066 244.271041 
L 50.11746 244.271041 
L 50.421235 244.271041 
L 50.694788 244.271041 
L 50.871465 244.271041 
L 51.165045 244.271041 
L 51.258879 244.271041 
L 51.476157 244.271041 
L 51.725688 244.271041 
L 51.987437 244.271041 
L 52.20207 244.271041 
L 52.347172 244.271041 
L 52.69978 244.271041 
L 52.863507 244.271041 
L 53.089955 244.271041 
L 53.341553 244.271041 
L 53.391525 244.271041 
L 53.61877 244.271041 
L 53.891776 244.271041 
L 54.073741 244.271041 
L 54.317782 244.271041 
L 54.61398 244.271041 
L 54.714584 244.271041 
L 55.104157 244.271041 
L 55.146458 244.271041 
L 55.429213 244.271041 
L 55.711629 244.271041 
L 55.805718 244.271041 
L 56.168574 244.271041 
L 56.239221 244.271041 
L 56.506517 244.271041 
L 56.806756 244.271041 
L 56.954336 244.271041 
L 57.0624 244.271041 
L 57.330392 244.271041 
L 57.574268 244.271041 
L 57.717487 244.271041 
L 58.078158 244.271041 
L 58.254477 244.271041 
L 58.378402 244.271041 
L 58.685357 244.271041 
L 58.896342 244.271041 
L 59.175434 244.271041 
L 59.248167 244.271041 
L 59.519323 244.271041 
L 59.708675 244.271041 
L 60.00087 244.271041 
L 60.25652 244.271041 
L 60.499175 244.271041 
L 60.64018 244.271041 
L 60.791954 244.271041 
L 61.041521 244.271041 
L 61.264784 244.271041 
L 61.61796 244.271041 
L 61.826474 244.271041 
L 61.854889 244.271041 
L 62.264689 244.271041 
L 62.443886 244.271041 
L 62.640333 244.271041 
L 62.884885 244.271041 
L 63.125633 244.271041 
L 63.295407 244.271041 
L 63.407931 244.271041 
L 63.586464 244.271041 
L 63.94988 244.271041 
L 64.195635 244.271041 
L 64.36004 244.271041 
L 64.451608 244.271041 
L 64.690081 244.271041 
L 64.933258 244.271041 
L 65.121253 244.271041 
L 65.491429 244.271041 
L 65.651448 244.271041 
L 65.961321 244.271041 
L 66.10462 244.271041 
L 66.295343 244.271041 
L 66.470858 244.271041 
L 66.680442 244.271041 
L 66.996632 244.271041 
L 67.117151 244.271041 
L 67.288921 244.271041 
L 67.578347 244.271041 
L 67.726632 244.271041 
L 67.954023 244.271041 
L 68.153333 244.271041 
L 68.463228 244.271041 
L 68.619228 244.271041 
L 68.95005 244.271041 
L 69.042288 244.271041 
L 69.344536 244.271041 
L 69.570898 244.271041 
L 69.809607 244.271041 
L 70.021002 244.271041 
L 70.119003 244.271041 
L 70.355916 244.271041 
L 70.703103 244.271041 
L 70.798919 244.271041 
L 71.041004 244.271041 
L 71.327469 244.271041 
L 71.396937 244.271041 
L 71.739859 244.271041 
L 71.931224 244.271041 
L 72.214037 244.271041 
L 72.432389 244.271041 
L 72.585199 244.271041 
L 72.785206 244.271041 
L 72.929433 244.271041 
L 73.197572 244.271041 
L 73.360278 244.271041 
L 73.678055 244.271041 
L 73.894207 244.271041 
L 74.204243 244.271041 
L 74.418665 244.271041 
L 74.451779 244.271041 
L 74.775612 244.271041 
L 75.005121 244.271041 
L 75.121601 244.271041 
L 75.397367 244.271041 
L 75.589994 244.271041 
L 75.874754 244.271041 
L 75.992154 244.271041 
L 76.333618 244.271041 
L 76.493809 244.271041 
L 76.493809 252.870331 
z
" style="fill:#cde0eb;opacity:0.5;"/>
   </g>
   <g id="patch_4">
    <path clip-path="url(#pac604f89e9)" d="M 76.493809 252.870331 
L 76.493809 218.473169 
L 76.735274 218.473169 
L 76.893459 218.473169 
L 77.148608 218.473169 
L 77.421207 218.473169 
L 77.593731 218.473169 
L 77.8892 218.473169 
L 78.097158 218.473169 
L 78.286656 218.473169 
L 78.381083 218.473169 
L 78.69708 218.473169 
L 78.830882 218.473169 
L 79.032836 218.473169 
L 79.232907 218.473169 
L 79.439532 218.473169 
L 79.759954 218.473169 
L 79.930192 218.473169 
L 80.181315 218.473169 
L 80.480241 218.473169 
L 80.588231 218.473169 
L 80.910876 218.473169 
L 81.078453 218.473169 
L 81.179073 218.473169 
L 81.453845 218.473169 
L 81.780844 218.473169 
L 81.817855 218.473169 
L 82.140732 218.473169 
L 82.28935 218.473169 
L 82.579273 218.473169 
L 82.762475 218.473169 
L 83.104528 218.473169 
L 83.18214 218.473169 
L 83.522946 218.473169 
L 83.559053 218.473169 
L 83.939864 218.473169 
L 84.053561 218.473169 
L 84.328955 218.473169 
L 84.474563 218.473169 
L 84.843754 218.473169 
L 84.933047 218.473169 
L 85.085738 218.473169 
L 85.396563 218.473169 
L 85.61238 218.473169 
L 85.850621 218.473169 
L 86.003846 218.473169 
L 86.192722 218.473169 
L 86.478338 218.473169 
L 86.778674 218.473169 
L 86.938915 218.473169 
L 87.080482 218.473169 
L 87.431997 218.473169 
L 87.62185 218.473169 
L 87.78157 218.473169 
L 88.079498 218.473169 
L 88.172585 218.473169 
L 88.492229 218.473169 
L 88.54997 218.473169 
L 88.956236 218.473169 
L 89.18064 218.473169 
L 89.337106 218.473169 
L 89.601588 218.473169 
L 89.809079 218.473169 
L 89.957401 218.473169 
L 90.278375 218.473169 
L 90.334123 218.473169 
L 90.660172 218.473169 
L 90.839507 218.473169 
L 91.128391 218.473169 
L 91.291745 218.473169 
L 91.372275 218.473169 
L 91.605297 218.473169 
L 91.868936 218.473169 
L 92.07794 218.473169 
L 92.303519 218.473169 
L 92.489984 218.473169 
L 92.828107 218.473169 
L 92.937776 218.473169 
L 93.258332 218.473169 
L 93.358376 218.473169 
L 93.740054 218.473169 
L 93.909347 218.473169 
L 94.077242 218.473169 
L 94.244871 218.473169 
L 94.617317 218.473169 
L 94.794982 218.473169 
L 94.984297 218.473169 
L 95.069641 218.473169 
L 95.3601 218.473169 
L 95.609262 218.473169 
L 95.897166 218.473169 
L 96.130371 218.473169 
L 96.216186 218.473169 
L 96.391715 218.473169 
L 96.585853 218.473169 
L 96.976536 218.473169 
L 97.038028 218.473169 
L 97.271325 218.473169 
L 97.54417 218.473169 
L 97.826812 218.473169 
L 97.958608 218.473169 
L 98.233256 218.473169 
L 98.477119 218.473169 
L 98.536557 218.473169 
L 98.784172 218.473169 
L 98.975469 218.473169 
L 99.253996 218.473169 
L 99.413046 218.473169 
L 99.671506 218.473169 
L 99.98337 218.473169 
L 100.188891 218.473169 
L 100.408494 218.473169 
L 100.548386 218.473169 
L 100.712484 218.473169 
L 101.041423 218.473169 
L 101.314317 218.473169 
L 101.4164 218.473169 
L 101.694393 218.473169 
L 101.841893 218.473169 
L 102.141835 218.473169 
L 102.396688 218.473169 
L 102.490846 218.473169 
L 102.737625 218.473169 
L 102.882809 218.473169 
L 103.238766 218.473169 
L 103.459122 218.473169 
L 103.528239 218.473169 
L 103.757603 218.473169 
L 104.022818 218.473169 
L 104.386504 218.473169 
L 104.579449 218.473169 
L 104.81998 218.473169 
L 104.95619 218.473169 
L 105.085229 218.473169 
L 105.478334 218.473169 
L 105.523496 218.473169 
L 105.830267 218.473169 
L 106.040246 218.473169 
L 106.316567 218.473169 
L 106.531516 218.473169 
L 106.694448 218.473169 
L 106.999096 218.473169 
L 107.14285 218.473169 
L 107.292083 218.473169 
L 107.466188 218.473169 
L 107.678362 218.473169 
L 108.012767 218.473169 
L 108.164764 218.473169 
L 108.384644 218.473169 
L 108.617643 218.473169 
L 108.806246 218.473169 
L 109.140545 218.473169 
L 109.30575 218.473169 
L 109.507888 218.473169 
L 109.776871 218.473169 
L 110.040677 218.473169 
L 110.227841 218.473169 
L 110.416469 218.473169 
L 110.579879 218.473169 
L 110.817797 218.473169 
L 111.005328 218.473169 
L 111.302947 218.473169 
L 111.489073 218.473169 
L 111.685535 218.473169 
L 111.838788 218.473169 
L 112.164541 218.473169 
L 112.26604 218.473169 
L 112.528644 218.473169 
L 112.69345 218.473169 
L 113.069895 218.473169 
L 113.185101 218.473169 
L 113.438079 218.473169 
L 113.625237 218.473169 
L 113.733832 218.473169 
L 114.16404 218.473169 
L 114.201354 218.473169 
L 114.463935 218.473169 
L 114.748262 218.473169 
L 114.818709 218.473169 
L 115.040615 218.473169 
L 115.31899 218.473169 
L 115.594412 218.473169 
L 115.864101 218.473169 
L 116.101804 218.473169 
L 116.122823 218.473169 
L 116.52223 218.473169 
L 116.59536 218.473169 
L 116.800151 218.473169 
L 117.111646 218.473169 
L 117.284022 218.473169 
L 117.535794 218.473169 
L 117.7742 218.473169 
L 118.06904 218.473169 
L 118.083828 218.473169 
L 118.415743 218.473169 
L 118.586422 218.473169 
L 118.819537 218.473169 
L 119.116903 218.473169 
L 119.267816 218.473169 
L 119.407502 218.473169 
L 119.703868 218.473169 
L 119.703868 252.870331 
z
" style="fill:#cde0eb;opacity:0.5;"/>
   </g>
   <g id="patch_5">
    <path clip-path="url(#pac604f89e9)" d="M 119.703868 252.870331 
L 119.703868 175.476717 
L 119.822532 175.476717 
L 120.080773 175.476717 
L 120.256886 175.476717 
L 120.667433 175.476717 
L 120.789514 175.476717 
L 120.948974 175.476717 
L 121.173722 175.476717 
L 121.402093 175.476717 
L 121.71448 175.476717 
L 121.790092 175.476717 
L 122.051643 175.476717 
L 122.353237 175.476717 
L 122.568625 175.476717 
L 122.707043 175.476717 
L 122.855339 175.476717 
L 123.166708 175.476717 
L 123.36106 175.476717 
L 123.521636 175.476717 
L 123.815425 175.476717 
L 123.952751 175.476717 
L 124.158496 175.476717 
L 124.504866 175.476717 
L 124.772717 175.476717 
L 124.980021 175.476717 
L 125.174317 175.476717 
L 125.371743 175.476717 
L 125.64765 175.476717 
L 125.865569 175.476717 
L 126.024569 175.476717 
L 126.18905 175.476717 
L 126.406417 175.476717 
L 126.688362 175.476717 
L 126.799412 175.476717 
L 127.000316 175.476717 
L 127.209883 175.476717 
L 127.595499 175.476717 
L 127.75129 175.476717 
L 127.993953 175.476717 
L 128.220139 175.476717 
L 128.294296 175.476717 
L 128.647846 175.476717 
L 128.813301 175.476717 
L 128.966514 175.476717 
L 129.355121 175.476717 
L 129.555103 175.476717 
L 129.642248 175.476717 
L 130.005686 175.476717 
L 130.076245 175.476717 
L 130.25956 175.476717 
L 130.52774 175.476717 
L 130.843824 175.476717 
L 131.062355 175.476717 
L 131.293761 175.476717 
L 131.346329 175.476717 
L 131.662193 175.476717 
L 131.881575 175.476717 
L 132.108213 175.476717 
L 132.303583 175.476717 
L 132.432741 175.476717 
L 132.626236 175.476717 
L 133.016714 175.476717 
L 133.077223 175.476717 
L 133.480639 175.476717 
L 133.514469 175.476717 
L 133.865994 175.476717 
L 133.958182 175.476717 
L 134.329426 175.476717 
L 134.550797 175.476717 
L 134.708239 175.476717 
L 134.880635 175.476717 
L 135.106271 175.476717 
L 135.415115 175.476717 
L 135.587568 175.476717 
L 135.796315 175.476717 
L 136.090177 175.476717 
L 136.242529 175.476717 
L 136.413207 175.476717 
L 136.59514 175.476717 
L 136.861928 175.476717 
L 137.061408 175.476717 
L 137.214856 175.476717 
L 137.525801 175.476717 
L 137.716785 175.476717 
L 137.906578 175.476717 
L 138.05384 175.476717 
L 138.397956 175.476717 
L 138.601425 175.476717 
L 138.908218 175.476717 
L 138.95607 175.476717 
L 139.320431 175.476717 
L 139.557851 175.476717 
L 139.578135 175.476717 
L 139.861095 175.476717 
L 140.049038 175.476717 
L 140.299594 175.476717 
L 140.562582 175.476717 
L 140.81021 175.476717 
L 140.927317 175.476717 
L 141.193864 175.476717 
L 141.470709 175.476717 
L 141.71068 175.476717 
L 141.952836 175.476717 
L 142.128371 175.476717 
L 142.349962 175.476717 
L 142.492137 175.476717 
L 142.779691 175.476717 
L 142.997352 175.476717 
L 143.221849 175.476717 
L 143.43533 175.476717 
L 143.611431 175.476717 
L 143.903182 175.476717 
L 144.053746 175.476717 
L 144.146157 175.476717 
L 144.400648 175.476717 
L 144.727451 175.476717 
L 144.802751 175.476717 
L 145.214917 175.476717 
L 145.22576 175.476717 
L 145.543064 175.476717 
L 145.827684 175.476717 
L 146.051416 175.476717 
L 146.143247 175.476717 
L 146.331924 175.476717 
L 146.737288 175.476717 
L 146.847074 175.476717 
L 147.158594 175.476717 
L 147.299987 175.476717 
L 147.417587 175.476717 
L 147.767558 175.476717 
L 147.941669 175.476717 
L 148.198241 175.476717 
L 148.425884 175.476717 
L 148.520102 175.476717 
L 148.746965 175.476717 
L 149.04389 175.476717 
L 149.183517 175.476717 
L 149.371958 175.476717 
L 149.643471 175.476717 
L 149.876512 175.476717 
L 150.054056 175.476717 
L 150.415388 175.476717 
L 150.574721 175.476717 
L 150.667156 175.476717 
L 151.025173 175.476717 
L 151.097686 175.476717 
L 151.391007 175.476717 
L 151.631643 175.476717 
L 151.892746 175.476717 
L 151.990373 175.476717 
L 152.167132 175.476717 
L 152.539608 175.476717 
L 152.761234 175.476717 
L 153.030983 175.476717 
L 153.203994 175.476717 
L 153.34395 175.476717 
L 153.652951 175.476717 
L 153.713042 175.476717 
L 153.919978 175.476717 
L 154.252306 175.476717 
L 154.474551 175.476717 
L 154.644441 175.476717 
L 154.947141 175.476717 
L 155.040579 175.476717 
L 155.239215 175.476717 
L 155.611078 175.476717 
L 155.852342 175.476717 
L 155.965787 175.476717 
L 156.165333 175.476717 
L 156.346502 175.476717 
L 156.590442 175.476717 
L 156.822929 175.476717 
L 156.983531 175.476717 
L 157.20617 175.476717 
L 157.476022 175.476717 
L 157.798833 175.476717 
L 157.933621 175.476717 
L 158.057878 175.476717 
L 158.355803 175.476717 
L 158.497065 175.476717 
L 158.820319 175.476717 
L 159.044952 175.476717 
L 159.287729 175.476717 
L 159.547826 175.476717 
L 159.717016 175.476717 
L 159.862273 175.476717 
L 160.114254 175.476717 
L 160.242111 175.476717 
L 160.631194 175.476717 
L 160.845467 175.476717 
L 160.85475 175.476717 
L 161.149602 175.476717 
L 161.319344 175.476717 
L 161.617826 175.476717 
L 161.867003 175.476717 
L 162.110435 175.476717 
L 162.226766 175.476717 
L 162.50837 175.476717 
L 162.803091 175.476717 
L 162.913928 175.476717 
L 162.913928 252.870331 
z
" style="fill:#cde0eb;opacity:0.5;"/>
   </g>
   <g id="patch_6">
    <path clip-path="url(#pac604f89e9)" d="M 162.913928 252.870331 
L 162.913928 115.281684 
L 163.149068 115.281684 
L 163.329168 115.281684 
L 163.540973 115.281684 
L 163.750825 115.281684 
L 164.082187 115.281684 
L 164.284355 115.281684 
L 164.443721 115.281684 
L 164.597401 115.281684 
L 164.80696 115.281684 
L 165.113576 115.281684 
L 165.260668 115.281684 
L 165.598736 115.281684 
L 165.760353 115.281684 
L 165.895268 115.281684 
L 166.274401 115.281684 
L 166.430613 115.281684 
L 166.660073 115.281684 
L 166.81663 115.281684 
L 167.02202 115.281684 
L 167.216814 115.281684 
L 167.464066 115.281684 
L 167.703412 115.281684 
L 167.938595 115.281684 
L 168.225442 115.281684 
L 168.320337 115.281684 
L 168.659059 115.281684 
L 168.865347 115.281684 
L 168.954363 115.281684 
L 169.26641 115.281684 
L 169.380889 115.281684 
L 169.637687 115.281684 
L 169.77759 115.281684 
L 170.100265 115.281684 
L 170.196508 115.281684 
L 170.426144 115.281684 
L 170.786201 115.281684 
L 170.941912 115.281684 
L 171.265191 115.281684 
L 171.350779 115.281684 
L 171.675877 115.281684 
L 171.734136 115.281684 
L 172.065717 115.281684 
L 172.18527 115.281684 
L 172.433078 115.281684 
L 172.673451 115.281684 
L 173.003893 115.281684 
L 173.132246 115.281684 
L 173.229093 115.281684 
L 173.578746 115.281684 
L 173.781014 115.281684 
L 174.089276 115.281684 
L 174.218771 115.281684 
L 174.428737 115.281684 
L 174.635219 115.281684 
L 174.82722 115.281684 
L 175.170093 115.281684 
L 175.202384 115.281684 
L 175.535556 115.281684 
L 175.718977 115.281684 
L 175.880098 115.281684 
L 176.267453 115.281684 
L 176.363812 115.281684 
L 176.645541 115.281684 
L 176.830344 115.281684 
L 176.988135 115.281684 
L 177.20552 115.281684 
L 177.56406 115.281684 
L 177.640373 115.281684 
L 177.820864 115.281684 
L 178.049807 115.281684 
L 178.253199 115.281684 
L 178.548068 115.281684 
L 178.721935 115.281684 
L 179.057468 115.281684 
L 179.221837 115.281684 
L 179.314067 115.281684 
L 179.645613 115.281684 
L 179.931991 115.281684 
L 180.060576 115.281684 
L 180.219562 115.281684 
L 180.529248 115.281684 
L 180.713987 115.281684 
L 181.000878 115.281684 
L 181.169079 115.281684 
L 181.364078 115.281684 
L 181.627715 115.281684 
L 181.788127 115.281684 
L 182.09346 115.281684 
L 182.181321 115.281684 
L 182.380394 115.281684 
L 182.566412 115.281684 
L 182.860943 115.281684 
L 183.146616 115.281684 
L 183.330188 115.281684 
L 183.490411 115.281684 
L 183.856291 115.281684 
L 184.007908 115.281684 
L 184.135743 115.281684 
L 184.492506 115.281684 
L 184.616709 115.281684 
L 184.744388 115.281684 
L 185.052004 115.281684 
L 185.208037 115.281684 
L 185.577862 115.281684 
L 185.790882 115.281684 
L 185.932681 115.281684 
L 186.065742 115.281684 
L 186.392525 115.281684 
L 186.66836 115.281684 
L 186.842657 115.281684 
L 186.959469 115.281684 
L 187.144787 115.281684 
L 187.407391 115.281684 
L 187.636967 115.281684 
L 187.975269 115.281684 
L 188.079953 115.281684 
L 188.251623 115.281684 
L 188.57254 115.281684 
L 188.816641 115.281684 
L 189.044464 115.281684 
L 189.176199 115.281684 
L 189.479051 115.281684 
L 189.580524 115.281684 
L 189.866607 115.281684 
L 189.987487 115.281684 
L 190.196127 115.281684 
L 190.473487 115.281684 
L 190.603466 115.281684 
L 190.971899 115.281684 
L 191.037369 115.281684 
L 191.33311 115.281684 
L 191.576982 115.281684 
L 191.684481 115.281684 
L 192.08755 115.281684 
L 192.176695 115.281684 
L 192.392251 115.281684 
L 192.761768 115.281684 
L 192.929906 115.281684 
L 193.008812 115.281684 
L 193.413707 115.281684 
L 193.4302 115.281684 
L 193.776666 115.281684 
L 194.044395 115.281684 
L 194.198325 115.281684 
L 194.361736 115.281684 
L 194.590658 115.281684 
L 194.738502 115.281684 
L 195.115733 115.281684 
L 195.370439 115.281684 
L 195.505957 115.281684 
L 195.735188 115.281684 
L 195.833382 115.281684 
L 196.191695 115.281684 
L 196.31379 115.281684 
L 196.566574 115.281684 
L 196.797848 115.281684 
L 196.987915 115.281684 
L 197.116304 115.281684 
L 197.390571 115.281684 
L 197.598389 115.281684 
L 197.931732 115.281684 
L 198.079939 115.281684 
L 198.322567 115.281684 
L 198.542349 115.281684 
L 198.719531 115.281684 
L 198.8542 115.281684 
L 199.223436 115.281684 
L 199.317951 115.281684 
L 199.520132 115.281684 
L 199.896588 115.281684 
L 200.002344 115.281684 
L 200.239166 115.281684 
L 200.528024 115.281684 
L 200.665897 115.281684 
L 200.994839 115.281684 
L 201.026848 115.281684 
L 201.301145 115.281684 
L 201.517363 115.281684 
L 201.695688 115.281684 
L 201.985204 115.281684 
L 202.210583 115.281684 
L 202.517374 115.281684 
L 202.66664 115.281684 
L 202.758589 115.281684 
L 203.141339 115.281684 
L 203.304954 115.281684 
L 203.546197 115.281684 
L 203.655881 115.281684 
L 203.88861 115.281684 
L 204.107911 115.281684 
L 204.485476 115.281684 
L 204.619145 115.281684 
L 204.830059 115.281684 
L 204.96449 115.281684 
L 205.17647 115.281684 
L 205.526916 115.281684 
L 205.713947 115.281684 
L 205.888058 115.281684 
L 206.123987 115.281684 
L 206.123987 252.870331 
z
" style="fill:#cde0eb;opacity:0.5;"/>
   </g>
   <g id="patch_7">
    <path clip-path="url(#pac604f89e9)" d="M 206.123987 252.870331 
L 206.123987 37.88807 
L 206.434421 37.88807 
L 206.518901 37.88807 
L 206.863519 37.88807 
L 207.059512 37.88807 
L 207.14026 37.88807 
L 207.361336 37.88807 
L 207.577798 37.88807 
L 207.964617 37.88807 
L 208.128503 37.88807 
L 208.33969 37.88807 
L 208.423607 37.88807 
L 208.698304 37.88807 
L 208.989601 37.88807 
L 209.100679 37.88807 
L 209.486833 37.88807 
L 209.599438 37.88807 
L 209.802087 37.88807 
L 210.004264 37.88807 
L 210.167874 37.88807 
L 210.507229 37.88807 
L 210.726823 37.88807 
L 210.849427 37.88807 
L 211.130482 37.88807 
L 211.241284 37.88807 
L 211.617207 37.88807 
L 211.874979 37.88807 
L 212.046586 37.88807 
L 212.282341 37.88807 
L 212.512525 37.88807 
L 212.679489 37.88807 
L 212.947126 37.88807 
L 213.110141 37.88807 
L 213.273131 37.88807 
L 213.432122 37.88807 
L 213.796322 37.88807 
L 214.024215 37.88807 
L 214.10556 37.88807 
L 214.350365 37.88807 
L 214.526345 37.88807 
L 214.781061 37.88807 
L 214.92491 37.88807 
L 215.253798 37.88807 
L 215.454141 37.88807 
L 215.61902 37.88807 
L 215.937832 37.88807 
L 216.174183 37.88807 
L 216.333645 37.88807 
L 216.599777 37.88807 
L 216.849131 37.88807 
L 217.06841 37.88807 
L 217.168191 37.88807 
L 217.369337 37.88807 
L 217.719744 37.88807 
L 217.755481 37.88807 
L 218.171059 37.88807 
L 218.180068 37.88807 
L 218.476862 37.88807 
L 218.637996 37.88807 
L 218.871047 37.88807 
L 219.23512 37.88807 
L 219.388334 37.88807 
L 219.512831 37.88807 
L 219.714237 37.88807 
L 219.966888 37.88807 
L 220.289314 37.88807 
L 220.496425 37.88807 
L 220.691034 37.88807 
L 220.898791 37.88807 
L 221.184585 37.88807 
L 221.367283 37.88807 
L 221.512742 37.88807 
L 221.674713 37.88807 
L 222.035889 37.88807 
L 222.296578 37.88807 
L 222.442861 37.88807 
L 222.666149 37.88807 
L 222.871992 37.88807 
L 223.073044 37.88807 
L 223.367012 37.88807 
L 223.57824 37.88807 
L 223.65747 37.88807 
L 223.942966 37.88807 
L 224.091943 37.88807 
L 224.345477 37.88807 
L 224.631061 37.88807 
L 224.847561 37.88807 
L 225.077454 37.88807 
L 225.215328 37.88807 
L 225.391589 37.88807 
L 225.582544 37.88807 
L 225.921432 37.88807 
L 226.130151 37.88807 
L 226.291989 37.88807 
L 226.570841 37.88807 
L 226.786411 37.88807 
L 226.932055 37.88807 
L 227.254615 37.88807 
L 227.317707 37.88807 
L 227.602118 37.88807 
L 227.939287 37.88807 
L 228.050855 37.88807 
L 228.254796 37.88807 
L 228.505935 37.88807 
L 228.742594 37.88807 
L 228.863919 37.88807 
L 229.140135 37.88807 
L 229.265928 37.88807 
L 229.509037 37.88807 
L 229.776311 37.88807 
L 230.03675 37.88807 
L 230.216349 37.88807 
L 230.339057 37.88807 
L 230.621151 37.88807 
L 230.974264 37.88807 
L 231.154409 37.88807 
L 231.247555 37.88807 
L 231.428996 37.88807 
L 231.730227 37.88807 
L 231.88585 37.88807 
L 232.169784 37.88807 
L 232.485392 37.88807 
L 232.612252 37.88807 
L 232.775988 37.88807 
L 233.03391 37.88807 
L 233.206819 37.88807 
L 233.456198 37.88807 
L 233.604462 37.88807 
L 233.971156 37.88807 
L 234.170369 37.88807 
L 234.376465 37.88807 
L 234.489469 37.88807 
L 234.772133 37.88807 
L 235.039942 37.88807 
L 235.288405 37.88807 
L 235.376664 37.88807 
L 235.718283 37.88807 
L 235.765666 37.88807 
L 236.162141 37.88807 
L 236.215589 37.88807 
L 236.491709 37.88807 
L 236.82179 37.88807 
L 236.902519 37.88807 
L 237.266025 37.88807 
L 237.322862 37.88807 
L 237.572817 37.88807 
L 237.764335 37.88807 
L 237.98025 37.88807 
L 238.158991 37.88807 
L 238.565793 37.88807 
L 238.695861 37.88807 
L 238.979246 37.88807 
L 239.048842 37.88807 
L 239.240563 37.88807 
L 239.534813 37.88807 
L 239.715539 37.88807 
L 240.069995 37.88807 
L 240.224643 37.88807 
L 240.440221 37.88807 
L 240.581427 37.88807 
L 240.774462 37.88807 
L 241.101925 37.88807 
L 241.369632 37.88807 
L 241.489661 37.88807 
L 241.707221 37.88807 
L 241.883483 37.88807 
L 242.226562 37.88807 
L 242.353195 37.88807 
L 242.653001 37.88807 
L 242.720323 37.88807 
L 242.97647 37.88807 
L 243.352475 37.88807 
L 243.543876 37.88807 
L 243.663563 37.88807 
L 243.951347 37.88807 
L 244.164451 37.88807 
L 244.389922 37.88807 
L 244.482493 37.88807 
L 244.681755 37.88807 
L 244.926011 37.88807 
L 245.301974 37.88807 
L 245.532603 37.88807 
L 245.578446 37.88807 
L 245.75192 37.88807 
L 246.160797 37.88807 
L 246.391898 37.88807 
L 246.530867 37.88807 
L 246.677693 37.88807 
L 246.964307 37.88807 
L 247.089585 37.88807 
L 247.463051 37.88807 
L 247.671557 37.88807 
L 247.757411 37.88807 
L 248.048906 37.88807 
L 248.198399 37.88807 
L 248.55648 37.88807 
L 248.609485 37.88807 
L 248.84201 37.88807 
L 249.080811 37.88807 
L 249.334046 37.88807 
L 249.334046 252.870331 
z
" style="fill:#cde0eb;opacity:0.5;"/>
   </g>
   <g id="matplotlib.axis_1">
    <g id="xtick_1">
     <g id="line2d_1">
      <defs>
       <path d="M 0 0 
L 0 3.5 
" id="m90c12f49f1" style="stroke:#000000;stroke-width:0.8;"/>
      </defs>
      <g>
       <use style="stroke:#000000;stroke-width:0.8;" x="76.493809" xlink:href="#m90c12f49f1" y="252.870331"/>
      </g>
     </g>
     <g id="text_1">
      <!-- 1/5 -->
      <defs>
       <path d="M 12.40625 8.296875 
L 28.515625 8.296875 
L 28.515625 63.921875 
L 10.984375 60.40625 
L 10.984375 69.390625 
L 28.421875 72.90625 
L 38.28125 72.90625 
L 38.28125 8.296875 
L 54.390625 8.296875 
L 54.390625 0 
L 12.40625 0 
z
" id="DejaVuSans-49"/>
       <path d="M 25.390625 72.90625 
L 33.6875 72.90625 
L 8.296875 -9.28125 
L 0 -9.28125 
z
" id="DejaVuSans-47"/>
       <path d="M 10.796875 72.90625 
L 49.515625 72.90625 
L 49.515625 64.59375 
L 19.828125 64.59375 
L 19.828125 46.734375 
Q 21.96875 47.46875 24.109375 47.828125 
Q 26.265625 48.1875 28.421875 48.1875 
Q 40.625 48.1875 47.75 41.5 
Q 54.890625 34.8125 54.890625 23.390625 
Q 54.890625 11.625 47.5625 5.09375 
Q 40.234375 -1.421875 26.90625 -1.421875 
Q 22.3125 -1.421875 17.546875 -0.640625 
Q 12.796875 0.140625 7.71875 1.703125 
L 7.71875 11.625 
Q 12.109375 9.234375 16.796875 8.0625 
Q 21.484375 6.890625 26.703125 6.890625 
Q 35.15625 6.890625 40.078125 11.328125 
Q 45.015625 15.765625 45.015625 23.390625 
Q 45.015625 31 40.078125 35.4375 
Q 35.15625 39.890625 26.703125 39.890625 
Q 22.75 39.890625 18.8125 39.015625 
Q 14.890625 38.140625 10.796875 36.28125 
z
" id="DejaVuSans-53"/>
      </defs>
      <g transform="translate(66.837559 268.988456)scale(0.12 -0.12)">
       <use xlink:href="#DejaVuSans-49"/>
       <use x="63.623047" xlink:href="#DejaVuSans-47"/>
       <use x="97.314453" xlink:href="#DejaVuSans-53"/>
      </g>
     </g>
    </g>
    <g id="xtick_2">
     <g id="line2d_2">
      <g>
       <use style="stroke:#000000;stroke-width:0.8;" x="119.703868" xlink:href="#m90c12f49f1" y="252.870331"/>
      </g>
     </g>
     <g id="text_2">
      <!-- 2/5 -->
      <defs>
       <path d="M 19.1875 8.296875 
L 53.609375 8.296875 
L 53.609375 0 
L 7.328125 0 
L 7.328125 8.296875 
Q 12.9375 14.109375 22.625 23.890625 
Q 32.328125 33.6875 34.8125 36.53125 
Q 39.546875 41.84375 41.421875 45.53125 
Q 43.3125 49.21875 43.3125 52.78125 
Q 43.3125 58.59375 39.234375 62.25 
Q 35.15625 65.921875 28.609375 65.921875 
Q 23.96875 65.921875 18.8125 64.3125 
Q 13.671875 62.703125 7.8125 59.421875 
L 7.8125 69.390625 
Q 13.765625 71.78125 18.9375 73 
Q 24.125 74.21875 28.421875 74.21875 
Q 39.75 74.21875 46.484375 68.546875 
Q 53.21875 62.890625 53.21875 53.421875 
Q 53.21875 48.921875 51.53125 44.890625 
Q 49.859375 40.875 45.40625 35.40625 
Q 44.1875 33.984375 37.640625 27.21875 
Q 31.109375 20.453125 19.1875 8.296875 
z
" id="DejaVuSans-50"/>
      </defs>
      <g transform="translate(110.047618 268.988456)scale(0.12 -0.12)">
       <use xlink:href="#DejaVuSans-50"/>
       <use x="63.623047" xlink:href="#DejaVuSans-47"/>
       <use x="97.314453" xlink:href="#DejaVuSans-53"/>
      </g>
     </g>
    </g>
    <g id="xtick_3">
     <g id="line2d_3">
      <g>
       <use style="stroke:#000000;stroke-width:0.8;" x="162.913928" xlink:href="#m90c12f49f1" y="252.870331"/>
      </g>
     </g>
     <g id="text_3">
      <!-- 3/5 -->
      <defs>
       <path d="M 40.578125 39.3125 
Q 47.65625 37.796875 51.625 33 
Q 55.609375 28.21875 55.609375 21.1875 
Q 55.609375 10.40625 48.1875 4.484375 
Q 40.765625 -1.421875 27.09375 -1.421875 
Q 22.515625 -1.421875 17.65625 -0.515625 
Q 12.796875 0.390625 7.625 2.203125 
L 7.625 11.71875 
Q 11.71875 9.328125 16.59375 8.109375 
Q 21.484375 6.890625 26.8125 6.890625 
Q 36.078125 6.890625 40.9375 10.546875 
Q 45.796875 14.203125 45.796875 21.1875 
Q 45.796875 27.640625 41.28125 31.265625 
Q 36.765625 34.90625 28.71875 34.90625 
L 20.21875 34.90625 
L 20.21875 43.015625 
L 29.109375 43.015625 
Q 36.375 43.015625 40.234375 45.921875 
Q 44.09375 48.828125 44.09375 54.296875 
Q 44.09375 59.90625 40.109375 62.90625 
Q 36.140625 65.921875 28.71875 65.921875 
Q 24.65625 65.921875 20.015625 65.03125 
Q 15.375 64.15625 9.8125 62.3125 
L 9.8125 71.09375 
Q 15.4375 72.65625 20.34375 73.4375 
Q 25.25 74.21875 29.59375 74.21875 
Q 40.828125 74.21875 47.359375 69.109375 
Q 53.90625 64.015625 53.90625 55.328125 
Q 53.90625 49.265625 50.4375 45.09375 
Q 46.96875 40.921875 40.578125 39.3125 
z
" id="DejaVuSans-51"/>
      </defs>
      <g transform="translate(153.257678 268.988456)scale(0.12 -0.12)">
       <use xlink:href="#DejaVuSans-51"/>
       <use x="63.623047" xlink:href="#DejaVuSans-47"/>
       <use x="97.314453" xlink:href="#DejaVuSans-53"/>
      </g>
     </g>
    </g>
    <g id="xtick_4">
     <g id="line2d_4">
      <g>
       <use style="stroke:#000000;stroke-width:0.8;" x="206.123987" xlink:href="#m90c12f49f1" y="252.870331"/>
      </g>
     </g>
     <g id="text_4">
      <!-- 4/5 -->
      <defs>
       <path d="M 37.796875 64.3125 
L 12.890625 25.390625 
L 37.796875 25.390625 
z
M 35.203125 72.90625 
L 47.609375 72.90625 
L 47.609375 25.390625 
L 58.015625 25.390625 
L 58.015625 17.1875 
L 47.609375 17.1875 
L 47.609375 0 
L 37.796875 0 
L 37.796875 17.1875 
L 4.890625 17.1875 
L 4.890625 26.703125 
z
" id="DejaVuSans-52"/>
      </defs>
      <g transform="translate(196.467737 268.988456)scale(0.12 -0.12)">
       <use xlink:href="#DejaVuSans-52"/>
       <use x="63.623047" xlink:href="#DejaVuSans-47"/>
       <use x="97.314453" xlink:href="#DejaVuSans-53"/>
      </g>
     </g>
    </g>
    <g id="xtick_5">
     <g id="line2d_5">
      <g>
       <use style="stroke:#000000;stroke-width:0.8;" x="249.334046" xlink:href="#m90c12f49f1" y="252.870331"/>
      </g>
     </g>
     <g id="text_5">
      <!-- 1 -->
      <g transform="translate(245.516546 268.988456)scale(0.12 -0.12)">
       <use xlink:href="#DejaVuSans-49"/>
      </g>
     </g>
    </g>
    <g id="xtick_6">
     <g id="line2d_6">
      <g>
       <use style="stroke:#000000;stroke-width:0.8;" x="249.334046" xlink:href="#m90c12f49f1" y="252.870331"/>
      </g>
     </g>
     <g id="text_6">
      <!-- 1 -->
      <g transform="translate(245.516546 268.988456)scale(0.12 -0.12)">
       <use xlink:href="#DejaVuSans-49"/>
      </g>
     </g>
    </g>
    <g id="text_7">
     <!-- $x$ -->
     <defs>
      <path d="M 7.8125 2.875 
Q 9.578125 1.515625 12.796875 1.515625 
Q 15.921875 1.515625 18.3125 4.515625 
Q 20.703125 7.515625 21.578125 11.078125 
L 26.125 28.8125 
Q 27.203125 33.640625 27.203125 35.40625 
Q 27.203125 37.890625 25.8125 39.75 
Q 24.421875 41.609375 21.921875 41.609375 
Q 18.75 41.609375 15.96875 39.625 
Q 13.1875 37.640625 11.28125 34.59375 
Q 9.375 31.546875 8.59375 28.421875 
Q 8.40625 27.78125 7.8125 27.78125 
L 6.59375 27.78125 
Q 5.8125 27.78125 5.8125 28.71875 
L 5.8125 29 
Q 6.78125 32.71875 9.125 36.25 
Q 11.46875 39.796875 14.859375 41.984375 
Q 18.265625 44.1875 22.125 44.1875 
Q 25.78125 44.1875 28.734375 42.234375 
Q 31.6875 40.28125 32.90625 36.921875 
Q 34.625 39.984375 37.28125 42.078125 
Q 39.9375 44.1875 43.109375 44.1875 
Q 45.265625 44.1875 47.5 43.421875 
Q 49.75 42.671875 51.171875 41.109375 
Q 52.59375 39.546875 52.59375 37.203125 
Q 52.59375 34.671875 50.953125 32.828125 
Q 49.3125 31 46.78125 31 
Q 45.171875 31 44.09375 32.03125 
Q 43.015625 33.0625 43.015625 34.625 
Q 43.015625 36.71875 44.453125 38.296875 
Q 45.90625 39.890625 47.90625 40.1875 
Q 46.09375 41.609375 42.921875 41.609375 
Q 39.703125 41.609375 37.328125 38.625 
Q 34.96875 35.640625 33.984375 31.984375 
L 29.59375 14.3125 
Q 28.515625 10.296875 28.515625 7.71875 
Q 28.515625 5.171875 29.953125 3.34375 
Q 31.390625 1.515625 33.796875 1.515625 
Q 38.484375 1.515625 42.15625 5.640625 
Q 45.84375 9.765625 47.015625 14.703125 
Q 47.21875 15.28125 47.796875 15.28125 
L 49.03125 15.28125 
Q 49.421875 15.28125 49.65625 15.015625 
Q 49.90625 14.75 49.90625 14.40625 
Q 49.90625 14.3125 49.8125 14.109375 
Q 48.390625 8.15625 43.84375 3.515625 
Q 39.3125 -1.125 33.59375 -1.125 
Q 29.9375 -1.125 26.984375 0.84375 
Q 24.03125 2.828125 22.796875 6.203125 
Q 21.234375 3.265625 18.46875 1.0625 
Q 15.71875 -1.125 12.59375 -1.125 
Q 10.453125 -1.125 8.171875 -0.359375 
Q 5.90625 0.390625 4.484375 1.953125 
Q 3.078125 3.515625 3.078125 5.90625 
Q 3.078125 8.25 4.703125 10.171875 
Q 6.34375 12.109375 8.796875 12.109375 
Q 10.453125 12.109375 11.578125 11.109375 
Q 12.703125 10.109375 12.703125 8.5 
Q 12.703125 6.390625 11.296875 4.828125 
Q 9.90625 3.265625 7.8125 2.875 
z
" id="Cmmi10-120"/>
     </defs>
     <g transform="translate(261.655052 252.870331)scale(0.19 -0.19)">
      <use transform="translate(0 0.8125)" xlink:href="#Cmmi10-120"/>
     </g>
    </g>
   </g>
   <g id="matplotlib.axis_2">
    <g id="ytick_1">
     <g id="line2d_7">
      <defs>
       <path d="M 0 0 
L -3.5 0 
" id="m26c223845f" style="stroke:#000000;stroke-width:0.8;"/>
      </defs>
      <g>
       <use style="stroke:#000000;stroke-width:0.8;" x="33.28375" xlink:href="#m26c223845f" y="252.870331"/>
      </g>
     </g>
    </g>
    <g id="ytick_2">
     <g id="line2d_8">
      <g>
       <use style="stroke:#000000;stroke-width:0.8;" x="33.28375" xlink:href="#m26c223845f" y="37.88807"/>
      </g>
     </g>
     <g id="text_8">
      <!-- 1.0 -->
      <defs>
       <path d="M 10.6875 12.40625 
L 21 12.40625 
L 21 0 
L 10.6875 0 
z
" id="DejaVuSans-46"/>
       <path d="M 31.78125 66.40625 
Q 24.171875 66.40625 20.328125 58.90625 
Q 16.5 51.421875 16.5 36.375 
Q 16.5 21.390625 20.328125 13.890625 
Q 24.171875 6.390625 31.78125 6.390625 
Q 39.453125 6.390625 43.28125 13.890625 
Q 47.125 21.390625 47.125 36.375 
Q 47.125 51.421875 43.28125 58.90625 
Q 39.453125 66.40625 31.78125 66.40625 
z
M 31.78125 74.21875 
Q 44.046875 74.21875 50.515625 64.515625 
Q 56.984375 54.828125 56.984375 36.375 
Q 56.984375 17.96875 50.515625 8.265625 
Q 44.046875 -1.421875 31.78125 -1.421875 
Q 19.53125 -1.421875 13.0625 8.265625 
Q 6.59375 17.96875 6.59375 36.375 
Q 6.59375 54.828125 13.0625 64.515625 
Q 19.53125 74.21875 31.78125 74.21875 
z
" id="DejaVuSans-48"/>
      </defs>
      <g transform="translate(7.2 42.447133)scale(0.12 -0.12)">
       <use xlink:href="#DejaVuSans-49"/>
       <use x="63.623047" xlink:href="#DejaVuSans-46"/>
       <use x="95.410156" xlink:href="#DejaVuSans-48"/>
      </g>
     </g>
    </g>
    <g id="text_9">
     <!-- $y$ -->
     <defs>
      <path d="M 8.40625 -14.3125 
Q 10.5 -17.921875 15.71875 -17.921875 
Q 20.453125 -17.921875 23.921875 -14.59375 
Q 27.390625 -11.28125 29.515625 -6.5625 
Q 31.640625 -1.859375 32.8125 3.078125 
Q 28.375 -1.125 23.1875 -1.125 
Q 19.234375 -1.125 16.453125 0.234375 
Q 13.671875 1.609375 12.125 4.3125 
Q 10.59375 7.03125 10.59375 10.890625 
Q 10.59375 14.15625 11.46875 17.59375 
Q 12.359375 21.046875 13.9375 25.265625 
Q 15.53125 29.5 16.703125 32.625 
Q 18.015625 36.28125 18.015625 38.625 
Q 18.015625 41.609375 15.828125 41.609375 
Q 11.859375 41.609375 9.296875 37.53125 
Q 6.734375 33.453125 5.515625 28.421875 
Q 5.328125 27.78125 4.6875 27.78125 
L 3.515625 27.78125 
Q 2.6875 27.78125 2.6875 28.71875 
L 2.6875 29 
Q 4.296875 34.96875 7.609375 39.578125 
Q 10.9375 44.1875 16.015625 44.1875 
Q 19.578125 44.1875 22.046875 41.84375 
Q 24.515625 39.5 24.515625 35.890625 
Q 24.515625 34.03125 23.6875 31.984375 
Q 23.25 30.765625 21.6875 26.65625 
Q 20.125 22.5625 19.28125 19.875 
Q 18.453125 17.1875 17.921875 14.59375 
Q 17.390625 12.015625 17.390625 9.421875 
Q 17.390625 6.109375 18.796875 3.8125 
Q 20.21875 1.515625 23.296875 1.515625 
Q 29.5 1.515625 34.421875 9.078125 
L 42 39.890625 
Q 42.328125 41.21875 43.546875 42.15625 
Q 44.78125 43.109375 46.1875 43.109375 
Q 47.40625 43.109375 48.3125 42.328125 
Q 49.21875 41.546875 49.21875 40.28125 
Q 49.21875 39.703125 49.125 39.5 
L 39.203125 -0.296875 
Q 37.890625 -5.421875 34.375 -10.109375 
Q 30.859375 -14.796875 25.90625 -17.65625 
Q 20.953125 -20.515625 15.578125 -20.515625 
Q 12.984375 -20.515625 10.4375 -19.5 
Q 7.90625 -18.5 6.34375 -16.5 
Q 4.78125 -14.5 4.78125 -11.8125 
Q 4.78125 -9.078125 6.390625 -7.078125 
Q 8.015625 -5.078125 10.6875 -5.078125 
Q 12.3125 -5.078125 13.40625 -6.078125 
Q 14.5 -7.078125 14.5 -8.6875 
Q 14.5 -10.984375 12.78125 -12.6875 
Q 11.078125 -14.40625 8.796875 -14.40625 
Q 8.6875 -14.359375 8.59375 -14.328125 
Q 8.5 -14.3125 8.40625 -14.3125 
z
" id="Cmmi10-121"/>
     </defs>
     <g transform="translate(28.53375 21.598437)scale(0.19 -0.19)">
      <use transform="translate(0 0.8125)" xlink:href="#Cmmi10-121"/>
     </g>
    </g>
   </g>
   <g id="line2d_9">
    <path clip-path="url(#pac604f89e9)" d="M 33.28375 252.870331 
L 38.339185 252.752622 
L 42.588012 252.471621 
L 46.892352 252.017388 
L 51.25336 251.383128 
L 56.820948 250.318791 
L 61.226256 249.274298 
L 66.883803 247.670697 
L 71.794592 246.03973 
L 76.21488 244.381702 
L 81.687543 242.07958 
L 87.33062 239.416871 
L 93.085777 236.399151 
L 98.671779 233.178351 
L 102.56161 230.765773 
L 108.282437 226.96434 
L 113.585278 223.171421 
L 119.131483 218.927305 
L 125.071392 214.067687 
L 131.014434 208.880249 
L 137.479515 202.86768 
L 143.333154 197.091644 
L 149.045742 191.150479 
L 155.407468 184.180424 
L 161.487011 177.171174 
L 167.571702 169.815099 
L 172.991562 162.975591 
L 179.742943 154.077332 
L 185.828874 145.696302 
L 192.715259 135.80152 
L 198.99267 126.401161 
L 204.961142 117.126811 
L 211.213432 107.059529 
L 217.643424 96.330537 
L 223.967562 85.406684 
L 230.39748 73.922414 
L 237.156678 61.439442 
L 244.631389 47.145035 
L 249.334046 37.88807 
L 249.334046 37.88807 
" style="fill:none;stroke:#0000ff;stroke-linecap:square;"/>
   </g>
   <g id="line2d_10">
    <path clip-path="url(#pac604f89e9)" d="M 33.28375 252.870331 
L 33.28375 244.271041 
L 76.493809 244.271041 
L 76.493809 252.870331 
" style="fill:none;stroke:#ff0000;stroke-linecap:square;"/>
   </g>
   <g id="line2d_11">
    <path clip-path="url(#pac604f89e9)" d="M 33.28375 244.271041 
L 76.493809 244.271041 
L 76.493809 244.271041 
" style="fill:none;stroke:#ff0000;stroke-linecap:square;"/>
   </g>
   <g id="line2d_12">
    <path clip-path="url(#pac604f89e9)" d="M 76.493809 252.870331 
L 76.493809 218.473169 
L 119.703868 218.473169 
L 119.703868 252.870331 
" style="fill:none;stroke:#ff0000;stroke-linecap:square;"/>
   </g>
   <g id="line2d_13">
    <path clip-path="url(#pac604f89e9)" d="M 76.493809 218.473169 
L 119.703868 218.473169 
L 119.703868 218.473169 
" style="fill:none;stroke:#ff0000;stroke-linecap:square;"/>
   </g>
   <g id="line2d_14">
    <path clip-path="url(#pac604f89e9)" d="M 119.703868 252.870331 
L 119.703868 175.476717 
L 162.913928 175.476717 
L 162.913928 252.870331 
" style="fill:none;stroke:#ff0000;stroke-linecap:square;"/>
   </g>
   <g id="line2d_15">
    <path clip-path="url(#pac604f89e9)" d="M 119.703868 175.476717 
L 162.913928 175.476717 
L 162.913928 175.476717 
" style="fill:none;stroke:#ff0000;stroke-linecap:square;"/>
   </g>
   <g id="line2d_16">
    <path clip-path="url(#pac604f89e9)" d="M 162.913928 252.870331 
L 162.913928 115.281684 
L 206.123987 115.281684 
L 206.123987 252.870331 
" style="fill:none;stroke:#ff0000;stroke-linecap:square;"/>
   </g>
   <g id="line2d_17">
    <path clip-path="url(#pac604f89e9)" d="M 162.913928 115.281684 
L 206.123987 115.281684 
L 206.123987 115.281684 
" style="fill:none;stroke:#ff0000;stroke-linecap:square;"/>
   </g>
   <g id="line2d_18">
    <path clip-path="url(#pac604f89e9)" d="M 206.123987 252.870331 
L 206.123987 37.88807 
L 249.334046 37.88807 
L 249.334046 252.870331 
" style="fill:none;stroke:#ff0000;stroke-linecap:square;"/>
   </g>
   <g id="line2d_19">
    <path clip-path="url(#pac604f89e9)" d="M 206.123987 37.88807 
L 249.334046 37.88807 
L 249.334046 37.88807 
" style="fill:none;stroke:#ff0000;stroke-linecap:square;"/>
   </g>
   <g id="patch_8">
    <path d="M 33.28375 257.169976 
L 33.28375 33.588437 
" style="fill:none;stroke:#000000;stroke-linecap:square;stroke-linejoin:miter;stroke-width:0.8;"/>
   </g>
   <g id="patch_9">
    <path d="M 28.962744 252.870331 
L 253.655052 252.870331 
" style="fill:none;stroke:#000000;stroke-linecap:square;stroke-linejoin:miter;stroke-width:0.8;"/>
   </g>
  </g>
 </g>
 <defs>
  <clipPath id="pac604f89e9">
   <rect height="223.581538" width="224.692308" x="28.962744" y="33.588437"/>
  </clipPath>
 </defs>
</svg>
