<?xml version="1.0" encoding="utf-8" standalone="no"?>
<!DOCTYPE svg PUBLIC "-//W3C//DTD SVG 1.1//EN"
  "http://www.w3.org/Graphics/SVG/1.1/DTD/svg11.dtd">
<!-- Created with matplotlib (https://matplotlib.org/) -->
<svg height="280.188438pt" version="1.1" viewBox="0 0 279.283397 280.188438" width="279.283397pt" xmlns="http://www.w3.org/2000/svg" xmlns:xlink="http://www.w3.org/1999/xlink">
 <defs>
  <style type="text/css">
*{stroke-linecap:butt;stroke-linejoin:round;}
  </style>
 </defs>
 <g id="figure_1">
  <g id="patch_1">
   <path d="M 0 280.188438 
L 279.283397 280.188438 
L 279.283397 0 
L 0 0 
z
" style="fill:#ffffff;"/>
  </g>
  <g id="axes_1">
   <g id="patch_2">
    <path d="M 37.902286 272.988438 
L 253.063397 272.988438 
L 253.063397 33.588438 
L 37.902286 33.588438 
z
" style="fill:#ffffff;"/>
   </g>
   <g id="PathCollection_1">
    <path clip-path="url(#pe3fa8a6844)" d="M 67.90071 74.804244 
C 68.320033 74.804244 68.722238 74.637645 69.018744 74.341139 
C 69.315251 74.044633 69.481849 73.642428 69.481849 73.223105 
C 69.481849 72.803782 69.315251 72.401577 69.018744 72.105071 
C 68.722238 71.808565 68.320033 71.641966 67.90071 71.641966 
C 67.481388 71.641966 67.079183 71.808565 66.782676 72.105071 
C 66.48617 72.401577 66.319572 72.803782 66.319572 73.223105 
C 66.319572 73.642428 66.48617 74.044633 66.782676 74.341139 
C 67.079183 74.637645 67.481388 74.804244 67.90071 74.804244 
z
" style="fill:#ff0000;"/>
   </g>
   <g id="PathCollection_2">
    <path clip-path="url(#pe3fa8a6844)" d="M 119.622131 41.215615 
C 120.041454 41.215615 120.443659 41.049017 120.740165 40.752511 
C 121.036671 40.456004 121.20327 40.053799 121.20327 39.634477 
C 121.20327 39.215154 121.036671 38.812949 120.740165 38.516443 
C 120.443659 38.219937 120.041454 38.053338 119.622131 38.053338 
C 119.202808 38.053338 118.800603 38.219937 118.504097 38.516443 
C 118.207591 38.812949 118.040992 39.215154 118.040992 39.634477 
C 118.040992 40.053799 118.207591 40.456004 118.504097 40.752511 
C 118.800603 41.049017 119.202808 41.215615 119.622131 41.215615 
z
" style="fill:#ff0000;"/>
   </g>
   <g id="PathCollection_3">
    <path clip-path="url(#pe3fa8a6844)" d="M 171.343552 61.236424 
C 171.762875 61.236424 172.16508 61.069825 172.461586 60.773319 
C 172.758092 60.476813 172.924691 60.074608 172.924691 59.655285 
C 172.924691 59.235962 172.758092 58.833757 172.461586 58.537251 
C 172.16508 58.240745 171.762875 58.074146 171.343552 58.074146 
C 170.924229 58.074146 170.522024 58.240745 170.225518 58.537251 
C 169.929012 58.833757 169.762413 59.235962 169.762413 59.655285 
C 169.762413 60.074608 169.929012 60.476813 170.225518 60.773319 
C 170.522024 61.069825 170.924229 61.236424 171.343552 61.236424 
z
" style="fill:#ff0000;"/>
   </g>
   <g id="PathCollection_4">
    <path clip-path="url(#pe3fa8a6844)" d="M 223.064973 170.606293 
C 223.484296 170.606293 223.886501 170.439694 224.183007 170.143188 
C 224.479513 169.846682 224.646112 169.444477 224.646112 169.025154 
C 224.646112 168.605831 224.479513 168.203626 224.183007 167.90712 
C 223.886501 167.610614 223.484296 167.444015 223.064973 167.444015 
C 222.64565 167.444015 222.243445 167.610614 221.946939 167.90712 
C 221.650433 168.203626 221.483834 168.605831 221.483834 169.025154 
C 221.483834 169.444477 221.650433 169.846682 221.946939 170.143188 
C 222.243445 170.439694 222.64565 170.606293 223.064973 170.606293 
z
" style="fill:#ff0000;"/>
   </g>
   <g id="patch_3">
    <path clip-path="url(#pe3fa8a6844)" d="M 42.04 98.952326 
L 42.04 73.223105 
L 42.40549 73.223105 
L 42.638263 73.223105 
L 42.87141 73.223105 
L 42.990647 73.223105 
L 43.226384 73.223105 
L 43.522564 73.223105 
L 43.802483 73.223105 
L 44.230265 73.223105 
L 44.438889 73.223105 
L 44.543119 73.223105 
L 44.812046 73.223105 
L 45.254486 73.223105 
L 45.46856 73.223105 
L 45.713074 73.223105 
L 45.857639 73.223105 
L 46.148931 73.223105 
L 46.336804 73.223105 
L 46.710498 73.223105 
L 46.990646 73.223105 
L 47.271702 73.223105 
L 47.588909 73.223105 
L 47.632362 73.223105 
L 48.1072 73.223105 
L 48.267387 73.223105 
L 48.602232 73.223105 
L 48.899881 73.223105 
L 49.001913 73.223105 
L 49.192997 73.223105 
L 49.535937 73.223105 
L 49.899558 73.223105 
L 50.084632 73.223105 
L 50.377172 73.223105 
L 50.533667 73.223105 
L 50.942699 73.223105 
L 51.151528 73.223105 
L 51.512616 73.223105 
L 51.673693 73.223105 
L 51.826026 73.223105 
L 52.14531 73.223105 
L 52.385259 73.223105 
L 52.709 73.223105 
L 52.988629 73.223105 
L 53.133698 73.223105 
L 53.349955 73.223105 
L 53.780885 73.223105 
L 54.073866 73.223105 
L 54.160241 73.223105 
L 54.599076 73.223105 
L 54.649644 73.223105 
L 55.086275 73.223105 
L 55.42315 73.223105 
L 55.665695 73.223105 
L 55.741691 73.223105 
L 56.104203 73.223105 
L 56.295455 73.223105 
L 56.556045 73.223105 
L 56.835583 73.223105 
L 57.076346 73.223105 
L 57.391926 73.223105 
L 57.524544 73.223105 
L 57.943695 73.223105 
L 58.049162 73.223105 
L 58.505535 73.223105 
L 58.679364 73.223105 
L 58.893899 73.223105 
L 59.281698 73.223105 
L 59.5315 73.223105 
L 59.609337 73.223105 
L 59.868371 73.223105 
L 60.289356 73.223105 
L 60.602172 73.223105 
L 60.645393 73.223105 
L 61.00976 73.223105 
L 61.244619 73.223105 
L 61.610189 73.223105 
L 61.753156 73.223105 
L 62.02986 73.223105 
L 62.365412 73.223105 
L 62.500204 73.223105 
L 62.87611 73.223105 
L 63.087006 73.223105 
L 63.283588 73.223105 
L 63.61303 73.223105 
L 63.785559 73.223105 
L 64.207472 73.223105 
L 64.265343 73.223105 
L 64.741995 73.223105 
L 64.882057 73.223105 
L 65.252363 73.223105 
L 65.365578 73.223105 
L 65.610582 73.223105 
L 65.878727 73.223105 
L 66.173127 73.223105 
L 66.577457 73.223105 
L 66.628147 73.223105 
L 67.025051 73.223105 
L 67.339735 73.223105 
L 67.535652 73.223105 
L 67.895083 73.223105 
L 68.025114 73.223105 
L 68.292291 73.223105 
L 68.582707 73.223105 
L 68.810455 73.223105 
L 69.044696 73.223105 
L 69.372518 73.223105 
L 69.538263 73.223105 
L 69.855895 73.223105 
L 69.982135 73.223105 
L 70.388618 73.223105 
L 70.706943 73.223105 
L 70.793778 73.223105 
L 71.089694 73.223105 
L 71.353117 73.223105 
L 71.709083 73.223105 
L 71.967851 73.223105 
L 72.076141 73.223105 
L 72.529194 73.223105 
L 72.816665 73.223105 
L 72.930714 73.223105 
L 73.166248 73.223105 
L 73.532912 73.223105 
L 73.760638 73.223105 
L 74.090359 73.223105 
L 74.345949 73.223105 
L 74.613745 73.223105 
L 74.85555 73.223105 
L 75.00705 73.223105 
L 75.212923 73.223105 
L 75.607158 73.223105 
L 75.884062 73.223105 
L 76.009155 73.223105 
L 76.445741 73.223105 
L 76.651054 73.223105 
L 76.992591 73.223105 
L 77.129357 73.223105 
L 77.329263 73.223105 
L 77.712068 73.223105 
L 77.879313 73.223105 
L 78.226356 73.223105 
L 78.554162 73.223105 
L 78.804972 73.223105 
L 78.819746 73.223105 
L 79.298814 73.223105 
L 79.363475 73.223105 
L 79.701369 73.223105 
L 80.038525 73.223105 
L 80.334104 73.223105 
L 80.604829 73.223105 
L 80.700148 73.223105 
L 80.977824 73.223105 
L 81.415635 73.223105 
L 81.427079 73.223105 
L 81.786993 73.223105 
L 82.055395 73.223105 
L 82.296032 73.223105 
L 82.530671 73.223105 
L 82.789676 73.223105 
L 83.061786 73.223105 
L 83.374451 73.223105 
L 83.594962 73.223105 
L 84.008527 73.223105 
L 84.243307 73.223105 
L 84.29818 73.223105 
L 84.57946 73.223105 
L 84.835011 73.223105 
L 85.084085 73.223105 
L 85.339579 73.223105 
L 85.668323 73.223105 
L 86.087307 73.223105 
L 86.137076 73.223105 
L 86.389449 73.223105 
L 86.762423 73.223105 
L 87.097658 73.223105 
L 87.303275 73.223105 
L 87.432801 73.223105 
L 87.868934 73.223105 
L 88.023481 73.223105 
L 88.271777 73.223105 
L 88.616251 73.223105 
L 88.813003 73.223105 
L 89.028325 73.223105 
L 89.392473 73.223105 
L 89.492264 73.223105 
L 89.920234 73.223105 
L 90.074656 73.223105 
L 90.500407 73.223105 
L 90.690354 73.223105 
L 90.921962 73.223105 
L 91.284003 73.223105 
L 91.326084 73.223105 
L 91.564432 73.223105 
L 91.898528 73.223105 
L 92.151278 73.223105 
L 92.333759 73.223105 
L 92.648405 73.223105 
L 93.050667 73.223105 
L 93.16984 73.223105 
L 93.39003 73.223105 
L 93.761421 73.223105 
L 93.761421 98.952326 
z
" style="fill:#cde0eb;opacity:0.5;"/>
   </g>
   <g id="patch_4">
    <path clip-path="url(#pe3fa8a6844)" d="M 93.761421 98.952326 
L 93.761421 39.634477 
L 93.964573 39.634477 
L 94.367094 39.634477 
L 94.585353 39.634477 
L 94.732182 39.634477 
L 95.112207 39.634477 
L 95.366915 39.634477 
L 95.525172 39.634477 
L 95.766089 39.634477 
L 96.167627 39.634477 
L 96.431099 39.634477 
L 96.564796 39.634477 
L 96.954109 39.634477 
L 97.226749 39.634477 
L 97.311192 39.634477 
L 97.619928 39.634477 
L 97.892268 39.634477 
L 98.199645 39.634477 
L 98.436032 39.634477 
L 98.766093 39.634477 
L 98.845854 39.634477 
L 99.144815 39.634477 
L 99.439212 39.634477 
L 99.743317 39.634477 
L 100.103332 39.634477 
L 100.173846 39.634477 
L 100.615354 39.634477 
L 100.802181 39.634477 
L 100.936038 39.634477 
L 101.241372 39.634477 
L 101.591494 39.634477 
L 101.765466 39.634477 
L 102.017919 39.634477 
L 102.425887 39.634477 
L 102.527884 39.634477 
L 102.972336 39.634477 
L 103.130785 39.634477 
L 103.428599 39.634477 
L 103.668081 39.634477 
L 103.775466 39.634477 
L 104.15893 39.634477 
L 104.505807 39.634477 
L 104.744375 39.634477 
L 104.820723 39.634477 
L 105.285004 39.634477 
L 105.506644 39.634477 
L 105.719757 39.634477 
L 106.087525 39.634477 
L 106.230171 39.634477 
L 106.520247 39.634477 
L 106.694863 39.634477 
L 106.91746 39.634477 
L 107.358372 39.634477 
L 107.461214 39.634477 
L 107.748038 39.634477 
L 108.012496 39.634477 
L 108.439131 39.634477 
L 108.681071 39.634477 
L 108.75188 39.634477 
L 108.981302 39.634477 
L 109.418693 39.634477 
L 109.603916 39.634477 
L 109.823685 39.634477 
L 110.127556 39.634477 
L 110.343483 39.634477 
L 110.774626 39.634477 
L 110.939069 39.634477 
L 111.251419 39.634477 
L 111.450431 39.634477 
L 111.784729 39.634477 
L 111.970611 39.634477 
L 112.111734 39.634477 
L 112.562571 39.634477 
L 112.738 39.634477 
L 113.118731 39.634477 
L 113.285 39.634477 
L 113.555213 39.634477 
L 113.654897 39.634477 
L 113.922795 39.634477 
L 114.318933 39.634477 
L 114.627948 39.634477 
L 114.918324 39.634477 
L 115.161525 39.634477 
L 115.287841 39.634477 
L 115.699929 39.634477 
L 115.905858 39.634477 
L 116.080457 39.634477 
L 116.454393 39.634477 
L 116.532075 39.634477 
L 116.892865 39.634477 
L 117.073978 39.634477 
L 117.345108 39.634477 
L 117.719861 39.634477 
L 117.930174 39.634477 
L 118.257724 39.634477 
L 118.411601 39.634477 
L 118.658104 39.634477 
L 119.080805 39.634477 
L 119.266578 39.634477 
L 119.536244 39.634477 
L 119.734464 39.634477 
L 120.096185 39.634477 
L 120.248574 39.634477 
L 120.405187 39.634477 
L 120.908788 39.634477 
L 120.954373 39.634477 
L 121.24305 39.634477 
L 121.548905 39.634477 
L 121.953289 39.634477 
L 122.035381 39.634477 
L 122.411246 39.634477 
L 122.623522 39.634477 
L 122.897481 39.634477 
L 123.207192 39.634477 
L 123.419108 39.634477 
L 123.777417 39.634477 
L 124.016497 39.634477 
L 124.205122 39.634477 
L 124.500856 39.634477 
L 124.659258 39.634477 
L 125.033192 39.634477 
L 125.162449 39.634477 
L 125.393007 39.634477 
L 125.853301 39.634477 
L 126.042007 39.634477 
L 126.126822 39.634477 
L 126.520531 39.634477 
L 126.713737 39.634477 
L 127.137475 39.634477 
L 127.373218 39.634477 
L 127.573965 39.634477 
L 127.709696 39.634477 
L 128.035638 39.634477 
L 128.379957 39.634477 
L 128.682525 39.634477 
L 128.94152 39.634477 
L 129.199674 39.634477 
L 129.340172 39.634477 
L 129.728596 39.634477 
L 129.788599 39.634477 
L 130.136217 39.634477 
L 130.394284 39.634477 
L 130.617339 39.634477 
L 130.983837 39.634477 
L 131.255258 39.634477 
L 131.548164 39.634477 
L 131.747669 39.634477 
L 131.88658 39.634477 
L 132.245205 39.634477 
L 132.606941 39.634477 
L 132.855184 39.634477 
L 132.980421 39.634477 
L 133.18968 39.634477 
L 133.591015 39.634477 
L 133.765571 39.634477 
L 133.928531 39.634477 
L 134.297431 39.634477 
L 134.639181 39.634477 
L 134.893481 39.634477 
L 135.115536 39.634477 
L 135.340434 39.634477 
L 135.692516 39.634477 
L 135.878341 39.634477 
L 136.147196 39.634477 
L 136.50944 39.634477 
L 136.626407 39.634477 
L 136.984263 39.634477 
L 137.091127 39.634477 
L 137.493826 39.634477 
L 137.675403 39.634477 
L 137.815684 39.634477 
L 138.211321 39.634477 
L 138.566063 39.634477 
L 138.77535 39.634477 
L 138.933686 39.634477 
L 139.257089 39.634477 
L 139.43604 39.634477 
L 139.882187 39.634477 
L 140.14236 39.634477 
L 140.234816 39.634477 
L 140.672225 39.634477 
L 140.832558 39.634477 
L 141.18271 39.634477 
L 141.453221 39.634477 
L 141.640167 39.634477 
L 141.739074 39.634477 
L 142.199574 39.634477 
L 142.407285 39.634477 
L 142.719311 39.634477 
L 142.777614 39.634477 
L 143.159395 39.634477 
L 143.447355 39.634477 
L 143.592882 39.634477 
L 143.875779 39.634477 
L 144.259975 39.634477 
L 144.487145 39.634477 
L 144.793949 39.634477 
L 144.96881 39.634477 
L 145.167161 39.634477 
L 145.482842 39.634477 
L 145.482842 98.952326 
z
" style="fill:#cde0eb;opacity:0.5;"/>
   </g>
   <g id="patch_5">
    <path clip-path="url(#pe3fa8a6844)" d="M 145.482842 98.952326 
L 145.482842 59.655285 
L 145.683771 59.655285 
L 146.109786 59.655285 
L 146.175661 59.655285 
L 146.526056 59.655285 
L 146.855905 59.655285 
L 146.978556 59.655285 
L 147.262397 59.655285 
L 147.526517 59.655285 
L 147.930765 59.655285 
L 148.030734 59.655285 
L 148.454957 59.655285 
L 148.478546 59.655285 
L 148.966873 59.655285 
L 149.133549 59.655285 
L 149.254162 59.655285 
L 149.728232 59.655285 
L 149.900903 59.655285 
L 150.055544 59.655285 
L 150.45619 59.655285 
L 150.55716 59.655285 
L 150.969415 59.655285 
L 151.155766 59.655285 
L 151.557673 59.655285 
L 151.639514 59.655285 
L 151.910688 59.655285 
L 152.179806 59.655285 
L 152.387819 59.655285 
L 152.651262 59.655285 
L 152.958491 59.655285 
L 153.16587 59.655285 
L 153.436622 59.655285 
L 153.867229 59.655285 
L 154.111701 59.655285 
L 154.388233 59.655285 
L 154.688405 59.655285 
L 154.710722 59.655285 
L 155.067699 59.655285 
L 155.293601 59.655285 
L 155.616417 59.655285 
L 155.85897 59.655285 
L 156.192267 59.655285 
L 156.516889 59.655285 
L 156.718835 59.655285 
L 157.046833 59.655285 
L 157.305878 59.655285 
L 157.39329 59.655285 
L 157.725472 59.655285 
L 157.915474 59.655285 
L 158.261117 59.655285 
L 158.429963 59.655285 
L 158.862014 59.655285 
L 158.919029 59.655285 
L 159.189265 59.655285 
L 159.395475 59.655285 
L 159.733393 59.655285 
L 160.118271 59.655285 
L 160.339537 59.655285 
L 160.614513 59.655285 
L 160.746199 59.655285 
L 161.155862 59.655285 
L 161.420888 59.655285 
L 161.625599 59.655285 
L 161.974427 59.655285 
L 162.1382 59.655285 
L 162.28366 59.655285 
L 162.510299 59.655285 
L 162.782285 59.655285 
L 163.195807 59.655285 
L 163.289761 59.655285 
L 163.600504 59.655285 
L 163.85882 59.655285 
L 164.262515 59.655285 
L 164.563719 59.655285 
L 164.602063 59.655285 
L 164.923436 59.655285 
L 165.146282 59.655285 
L 165.517745 59.655285 
L 165.730243 59.655285 
L 166.093747 59.655285 
L 166.318489 59.655285 
L 166.562938 59.655285 
L 166.877276 59.655285 
L 167.067482 59.655285 
L 167.304607 59.655285 
L 167.700004 59.655285 
L 167.935842 59.655285 
L 168.137237 59.655285 
L 168.380564 59.655285 
L 168.591496 59.655285 
L 168.783544 59.655285 
L 169.19429 59.655285 
L 169.513457 59.655285 
L 169.738456 59.655285 
L 169.844966 59.655285 
L 170.286029 59.655285 
L 170.366069 59.655285 
L 170.683999 59.655285 
L 170.983722 59.655285 
L 171.17381 59.655285 
L 171.449188 59.655285 
L 171.671274 59.655285 
L 172.065852 59.655285 
L 172.264157 59.655285 
L 172.535173 59.655285 
L 172.755859 59.655285 
L 173.035742 59.655285 
L 173.186092 59.655285 
L 173.566572 59.655285 
L 173.724818 59.655285 
L 173.950216 59.655285 
L 174.310426 59.655285 
L 174.597485 59.655285 
L 174.976155 59.655285 
L 175.140863 59.655285 
L 175.433865 59.655285 
L 175.513666 59.655285 
L 175.780372 59.655285 
L 176.037567 59.655285 
L 176.526064 59.655285 
L 176.581805 59.655285 
L 176.83125 59.655285 
L 177.19288 59.655285 
L 177.34602 59.655285 
L 177.621503 59.655285 
L 178.046835 59.655285 
L 178.344462 59.655285 
L 178.526987 59.655285 
L 178.87944 59.655285 
L 178.981978 59.655285 
L 179.144152 59.655285 
L 179.634048 59.655285 
L 179.68261 59.655285 
L 180.007076 59.655285 
L 180.340995 59.655285 
L 180.544096 59.655285 
L 180.865465 59.655285 
L 181.025525 59.655285 
L 181.267133 59.655285 
L 181.718607 59.655285 
L 181.824089 59.655285 
L 182.122428 59.655285 
L 182.313659 59.655285 
L 182.547704 59.655285 
L 182.94019 59.655285 
L 183.07927 59.655285 
L 183.378523 59.655285 
L 183.790132 59.655285 
L 184.042197 59.655285 
L 184.142931 59.655285 
L 184.348491 59.655285 
L 184.601863 59.655285 
L 185.069225 59.655285 
L 185.2823 59.655285 
L 185.580819 59.655285 
L 185.656257 59.655285 
L 186.147554 59.655285 
L 186.407757 59.655285 
L 186.644972 59.655285 
L 186.783659 59.655285 
L 186.990039 59.655285 
L 187.286773 59.655285 
L 187.545228 59.655285 
L 187.891351 59.655285 
L 188.082073 59.655285 
L 188.252066 59.655285 
L 188.59863 59.655285 
L 188.918807 59.655285 
L 189.053204 59.655285 
L 189.292753 59.655285 
L 189.656331 59.655285 
L 189.943663 59.655285 
L 190.309643 59.655285 
L 190.440064 59.655285 
L 190.638966 59.655285 
L 191.012113 59.655285 
L 191.34217 59.655285 
L 191.515916 59.655285 
L 191.815346 59.655285 
L 192.090875 59.655285 
L 192.249911 59.655285 
L 192.587493 59.655285 
L 192.681068 59.655285 
L 193.090619 59.655285 
L 193.207744 59.655285 
L 193.560512 59.655285 
L 193.805666 59.655285 
L 194.099621 59.655285 
L 194.271736 59.655285 
L 194.715364 59.655285 
L 194.74233 59.655285 
L 195.219556 59.655285 
L 195.295566 59.655285 
L 195.666617 59.655285 
L 196.005406 59.655285 
L 196.146691 59.655285 
L 196.298547 59.655285 
L 196.710984 59.655285 
L 196.958765 59.655285 
L 197.204263 59.655285 
L 197.204263 98.952326 
z
" style="fill:#cde0eb;opacity:0.5;"/>
   </g>
   <g id="patch_6">
    <path clip-path="url(#pe3fa8a6844)" d="M 197.204263 98.952326 
L 197.204263 169.025154 
L 197.450809 169.025154 
L 197.680762 169.025154 
L 198.039062 169.025154 
L 198.302885 169.025154 
L 198.400581 169.025154 
L 198.727361 169.025154 
L 199.074277 169.025154 
L 199.156919 169.025154 
L 199.433262 169.025154 
L 199.794006 169.025154 
L 200.09419 169.025154 
L 200.421735 169.025154 
L 200.573997 169.025154 
L 200.95575 169.025154 
L 201.217876 169.025154 
L 201.375113 169.025154 
L 201.572341 169.025154 
L 201.997776 169.025154 
L 202.18846 169.025154 
L 202.433117 169.025154 
L 202.742843 169.025154 
L 203.00514 169.025154 
L 203.079905 169.025154 
L 203.426199 169.025154 
L 203.826458 169.025154 
L 204.028064 169.025154 
L 204.345293 169.025154 
L 204.607862 169.025154 
L 204.657666 169.025154 
L 205.103971 169.025154 
L 205.224489 169.025154 
L 205.604806 169.025154 
L 205.900291 169.025154 
L 206.066746 169.025154 
L 206.390582 169.025154 
L 206.549062 169.025154 
L 206.897844 169.025154 
L 207.064657 169.025154 
L 207.427274 169.025154 
L 207.607498 169.025154 
L 207.793134 169.025154 
L 208.127264 169.025154 
L 208.318914 169.025154 
L 208.663366 169.025154 
L 208.81631 169.025154 
L 209.12783 169.025154 
L 209.430868 169.025154 
L 209.755822 169.025154 
L 209.948962 169.025154 
L 210.191546 169.025154 
L 210.559523 169.025154 
L 210.712225 169.025154 
L 210.913857 169.025154 
L 211.257564 169.025154 
L 211.520176 169.025154 
L 211.728647 169.025154 
L 212.137764 169.025154 
L 212.378617 169.025154 
L 212.626609 169.025154 
L 212.927763 169.025154 
L 212.985069 169.025154 
L 213.20175 169.025154 
L 213.466211 169.025154 
L 213.856206 169.025154 
L 214.117475 169.025154 
L 214.416185 169.025154 
L 214.489213 169.025154 
L 214.874596 169.025154 
L 215.246367 169.025154 
L 215.426194 169.025154 
L 215.781063 169.025154 
L 215.898685 169.025154 
L 216.290434 169.025154 
L 216.508899 169.025154 
L 216.699182 169.025154 
L 217.0151 169.025154 
L 217.146121 169.025154 
L 217.355232 169.025154 
L 217.696439 169.025154 
L 217.882123 169.025154 
L 218.245406 169.025154 
L 218.461113 169.025154 
L 218.692621 169.025154 
L 219.005796 169.025154 
L 219.23139 169.025154 
L 219.615211 169.025154 
L 219.820758 169.025154 
L 220.182681 169.025154 
L 220.253196 169.025154 
L 220.500563 169.025154 
L 220.767634 169.025154 
L 221.069309 169.025154 
L 221.491987 169.025154 
L 221.7533 169.025154 
L 221.961677 169.025154 
L 222.107149 169.025154 
L 222.48509 169.025154 
L 222.622439 169.025154 
L 223.024005 169.025154 
L 223.296644 169.025154 
L 223.345585 169.025154 
L 223.597492 169.025154 
L 224.088426 169.025154 
L 224.302411 169.025154 
L 224.364822 169.025154 
L 224.633072 169.025154 
L 225.124656 169.025154 
L 225.404059 169.025154 
L 225.474917 169.025154 
L 225.923859 169.025154 
L 225.948804 169.025154 
L 226.377894 169.025154 
L 226.500878 169.025154 
L 226.829653 169.025154 
L 227.062183 169.025154 
L 227.445097 169.025154 
L 227.576119 169.025154 
L 227.824582 169.025154 
L 228.165474 169.025154 
L 228.355055 169.025154 
L 228.658168 169.025154 
L 228.832681 169.025154 
L 229.048622 169.025154 
L 229.366811 169.025154 
L 229.746366 169.025154 
L 230.01609 169.025154 
L 230.294827 169.025154 
L 230.391609 169.025154 
L 230.65988 169.025154 
L 230.965897 169.025154 
L 231.249932 169.025154 
L 231.560998 169.025154 
L 231.729345 169.025154 
L 231.935027 169.025154 
L 232.320409 169.025154 
L 232.51749 169.025154 
L 232.852274 169.025154 
L 233.116908 169.025154 
L 233.280059 169.025154 
L 233.632918 169.025154 
L 233.813275 169.025154 
L 234.12638 169.025154 
L 234.405258 169.025154 
L 234.742775 169.025154 
L 234.918827 169.025154 
L 235.134341 169.025154 
L 235.43258 169.025154 
L 235.721557 169.025154 
L 235.962677 169.025154 
L 236.131749 169.025154 
L 236.3778 169.025154 
L 236.754487 169.025154 
L 236.921751 169.025154 
L 237.12186 169.025154 
L 237.51385 169.025154 
L 237.802191 169.025154 
L 237.96666 169.025154 
L 238.207724 169.025154 
L 238.480819 169.025154 
L 238.906191 169.025154 
L 239.125318 169.025154 
L 239.313057 169.025154 
L 239.588822 169.025154 
L 239.898016 169.025154 
L 240.143868 169.025154 
L 240.276117 169.025154 
L 240.644984 169.025154 
L 240.876664 169.025154 
L 241.071646 169.025154 
L 241.448551 169.025154 
L 241.521243 169.025154 
L 241.904231 169.025154 
L 242.079396 169.025154 
L 242.415986 169.025154 
L 242.641824 169.025154 
L 242.82796 169.025154 
L 243.10104 169.025154 
L 243.503768 169.025154 
L 243.838793 169.025154 
L 244.098629 169.025154 
L 244.28686 169.025154 
L 244.43628 169.025154 
L 244.835657 169.025154 
L 245.15587 169.025154 
L 245.183359 169.025154 
L 245.567379 169.025154 
L 245.839633 169.025154 
L 245.940776 169.025154 
L 246.242768 169.025154 
L 246.708158 169.025154 
L 246.93446 169.025154 
L 247.144704 169.025154 
L 247.248264 169.025154 
L 247.652722 169.025154 
L 247.883161 169.025154 
L 248.227246 169.025154 
L 248.520674 169.025154 
L 248.747004 169.025154 
L 248.925683 169.025154 
L 248.925683 98.952326 
z
" style="fill:#cde0eb;opacity:0.5;"/>
   </g>
   <g id="matplotlib.axis_1">
    <g id="xtick_1">
     <g id="line2d_1">
      <defs>
       <path d="M 0 0 
L 0 3.5 
" id="m8d036a717a" style="stroke:#000000;stroke-width:0.8;"/>
      </defs>
      <g>
       <use style="stroke:#000000;stroke-width:0.8;" x="67.90071" xlink:href="#m8d036a717a" y="98.952326"/>
      </g>
     </g>
     <g id="text_1">
      <!-- $x_1^{\ast}$ -->
      <defs>
       <path d="M 7.8125 2.875 
Q 9.578125 1.515625 12.796875 1.515625 
Q 15.921875 1.515625 18.3125 4.515625 
Q 20.703125 7.515625 21.578125 11.078125 
L 26.125 28.8125 
Q 27.203125 33.640625 27.203125 35.40625 
Q 27.203125 37.890625 25.8125 39.75 
Q 24.421875 41.609375 21.921875 41.609375 
Q 18.75 41.609375 15.96875 39.625 
Q 13.1875 37.640625 11.28125 34.59375 
Q 9.375 31.546875 8.59375 28.421875 
Q 8.40625 27.78125 7.8125 27.78125 
L 6.59375 27.78125 
Q 5.8125 27.78125 5.8125 28.71875 
L 5.8125 29 
Q 6.78125 32.71875 9.125 36.25 
Q 11.46875 39.796875 14.859375 41.984375 
Q 18.265625 44.1875 22.125 44.1875 
Q 25.78125 44.1875 28.734375 42.234375 
Q 31.6875 40.28125 32.90625 36.921875 
Q 34.625 39.984375 37.28125 42.078125 
Q 39.9375 44.1875 43.109375 44.1875 
Q 45.265625 44.1875 47.5 43.421875 
Q 49.75 42.671875 51.171875 41.109375 
Q 52.59375 39.546875 52.59375 37.203125 
Q 52.59375 34.671875 50.953125 32.828125 
Q 49.3125 31 46.78125 31 
Q 45.171875 31 44.09375 32.03125 
Q 43.015625 33.0625 43.015625 34.625 
Q 43.015625 36.71875 44.453125 38.296875 
Q 45.90625 39.890625 47.90625 40.1875 
Q 46.09375 41.609375 42.921875 41.609375 
Q 39.703125 41.609375 37.328125 38.625 
Q 34.96875 35.640625 33.984375 31.984375 
L 29.59375 14.3125 
Q 28.515625 10.296875 28.515625 7.71875 
Q 28.515625 5.171875 29.953125 3.34375 
Q 31.390625 1.515625 33.796875 1.515625 
Q 38.484375 1.515625 42.15625 5.640625 
Q 45.84375 9.765625 47.015625 14.703125 
Q 47.21875 15.28125 47.796875 15.28125 
L 49.03125 15.28125 
Q 49.421875 15.28125 49.65625 15.015625 
Q 49.90625 14.75 49.90625 14.40625 
Q 49.90625 14.3125 49.8125 14.109375 
Q 48.390625 8.15625 43.84375 3.515625 
Q 39.3125 -1.125 33.59375 -1.125 
Q 29.9375 -1.125 26.984375 0.84375 
Q 24.03125 2.828125 22.796875 6.203125 
Q 21.234375 3.265625 18.46875 1.0625 
Q 15.71875 -1.125 12.59375 -1.125 
Q 10.453125 -1.125 8.171875 -0.359375 
Q 5.90625 0.390625 4.484375 1.953125 
Q 3.078125 3.515625 3.078125 5.90625 
Q 3.078125 8.25 4.703125 10.171875 
Q 6.34375 12.109375 8.796875 12.109375 
Q 10.453125 12.109375 11.578125 11.109375 
Q 12.703125 10.109375 12.703125 8.5 
Q 12.703125 6.390625 11.296875 4.828125 
Q 9.90625 3.265625 7.8125 2.875 
z
" id="Cmmi10-120"/>
       <path d="M 9.421875 12.703125 
Q 8.296875 12.703125 7.390625 13.640625 
Q 6.5 14.59375 6.5 15.71875 
Q 6.5 17.4375 7.90625 18.109375 
L 22.3125 25 
L 7.90625 31.78125 
Q 6.5 32.375 6.5 34.1875 
Q 6.5 35.296875 7.390625 36.25 
Q 8.296875 37.203125 9.421875 37.203125 
Q 10.15625 37.203125 10.796875 36.71875 
L 23.578125 27.390625 
L 22.125 43.703125 
Q 22.125 44.921875 22.953125 45.703125 
Q 23.78125 46.484375 25 46.484375 
Q 26.171875 46.484375 26.96875 45.75 
Q 27.78125 45.015625 27.78125 43.890625 
L 27.78125 43.703125 
L 26.3125 27.390625 
L 39.109375 36.71875 
Q 39.75 37.203125 40.484375 37.203125 
Q 41.703125 37.203125 42.546875 36.25 
Q 43.40625 35.296875 43.40625 34.1875 
Q 43.40625 32.375 42 31.78125 
L 27.59375 25 
L 42 18.109375 
Q 43.40625 17.4375 43.40625 15.71875 
Q 43.40625 14.59375 42.546875 13.640625 
Q 41.703125 12.703125 40.484375 12.703125 
Q 39.75 12.703125 39.109375 13.1875 
L 26.3125 22.515625 
L 27.78125 6.296875 
L 27.78125 6 
Q 27.78125 4.890625 26.921875 4.15625 
Q 26.078125 3.421875 25 3.421875 
Q 23.828125 3.421875 22.96875 4.21875 
Q 22.125 5.03125 22.125 6.203125 
L 23.578125 22.515625 
L 10.796875 13.1875 
Q 10.15625 12.703125 9.421875 12.703125 
z
" id="Cmsy10-164"/>
       <path d="M 9.28125 0 
L 9.28125 3.515625 
Q 21.78125 3.515625 21.78125 6.6875 
L 21.78125 59.1875 
Q 16.609375 56.6875 8.6875 56.6875 
L 8.6875 60.203125 
Q 20.953125 60.203125 27.203125 66.609375 
L 28.609375 66.609375 
Q 28.953125 66.609375 29.265625 66.328125 
Q 29.59375 66.0625 29.59375 65.71875 
L 29.59375 6.6875 
Q 29.59375 3.515625 42.09375 3.515625 
L 42.09375 0 
z
" id="Cmr10-49"/>
      </defs>
      <g transform="translate(61.60071 114.472326)scale(0.12 -0.12)">
       <use transform="translate(0 0.196875)" xlink:href="#Cmmi10-120"/>
       <use transform="translate(63.383359 38.460938)scale(0.7)" xlink:href="#Cmsy10-164"/>
       <use transform="translate(57.080078 -25.3125)scale(0.7)" xlink:href="#Cmr10-49"/>
      </g>
     </g>
    </g>
    <g id="xtick_2">
     <g id="line2d_2">
      <g>
       <use style="stroke:#000000;stroke-width:0.8;" x="119.622131" xlink:href="#m8d036a717a" y="98.952326"/>
      </g>
     </g>
     <g id="text_2">
      <!-- $x_2^{\ast}$ -->
      <defs>
       <path d="M 4.984375 0 
L 4.984375 2.6875 
Q 4.984375 2.9375 5.171875 3.21875 
L 20.703125 20.40625 
Q 24.21875 24.21875 26.40625 26.796875 
Q 28.609375 29.390625 30.75 32.765625 
Q 32.90625 36.140625 34.15625 39.625 
Q 35.40625 43.109375 35.40625 47.015625 
Q 35.40625 51.125 33.890625 54.859375 
Q 32.375 58.59375 29.375 60.84375 
Q 26.375 63.09375 22.125 63.09375 
Q 17.78125 63.09375 14.3125 60.46875 
Q 10.84375 57.859375 9.421875 53.71875 
Q 9.8125 53.8125 10.5 53.8125 
Q 12.75 53.8125 14.328125 52.296875 
Q 15.921875 50.78125 15.921875 48.390625 
Q 15.921875 46.09375 14.328125 44.5 
Q 12.75 42.921875 10.5 42.921875 
Q 8.15625 42.921875 6.5625 44.546875 
Q 4.984375 46.1875 4.984375 48.390625 
Q 4.984375 52.15625 6.390625 55.4375 
Q 7.8125 58.734375 10.46875 61.296875 
Q 13.140625 63.875 16.484375 65.234375 
Q 19.828125 66.609375 23.578125 66.609375 
Q 29.296875 66.609375 34.21875 64.1875 
Q 39.15625 61.765625 42.03125 57.34375 
Q 44.921875 52.9375 44.921875 47.015625 
Q 44.921875 42.671875 43.015625 38.765625 
Q 41.109375 34.859375 38.125 31.65625 
Q 35.15625 28.46875 30.515625 24.40625 
Q 25.875 20.359375 24.421875 19 
L 13.09375 8.109375 
L 22.703125 8.109375 
Q 29.78125 8.109375 34.546875 8.21875 
Q 39.3125 8.34375 39.59375 8.59375 
Q 40.765625 9.859375 42 17.828125 
L 44.921875 17.828125 
L 42.09375 0 
z
" id="Cmr10-50"/>
      </defs>
      <g transform="translate(113.322131 114.472326)scale(0.12 -0.12)">
       <use transform="translate(0 0.196875)" xlink:href="#Cmmi10-120"/>
       <use transform="translate(63.383359 38.460938)scale(0.7)" xlink:href="#Cmsy10-164"/>
       <use transform="translate(57.080078 -25.3125)scale(0.7)" xlink:href="#Cmr10-50"/>
      </g>
     </g>
    </g>
    <g id="xtick_3">
     <g id="line2d_3">
      <g>
       <use style="stroke:#000000;stroke-width:0.8;" x="171.343552" xlink:href="#m8d036a717a" y="98.952326"/>
      </g>
     </g>
     <g id="text_3">
      <!-- $x_3^{\ast}$ -->
      <defs>
       <path d="M 9.515625 7.71875 
Q 11.859375 4.296875 15.8125 2.640625 
Q 19.78125 0.984375 24.3125 0.984375 
Q 30.125 0.984375 32.5625 5.9375 
Q 35.015625 10.890625 35.015625 17.1875 
Q 35.015625 20.015625 34.5 22.84375 
Q 33.984375 25.6875 32.765625 28.125 
Q 31.546875 30.5625 29.421875 32.03125 
Q 27.296875 33.5 24.21875 33.5 
L 17.578125 33.5 
Q 16.703125 33.5 16.703125 34.421875 
L 16.703125 35.296875 
Q 16.703125 36.078125 17.578125 36.078125 
L 23.09375 36.53125 
Q 26.609375 36.53125 28.921875 39.15625 
Q 31.25 41.796875 32.328125 45.578125 
Q 33.40625 49.359375 33.40625 52.78125 
Q 33.40625 57.5625 31.15625 60.640625 
Q 28.90625 63.71875 24.3125 63.71875 
Q 20.515625 63.71875 17.046875 62.28125 
Q 13.578125 60.84375 11.53125 57.90625 
Q 11.71875 57.953125 11.859375 57.984375 
Q 12.015625 58.015625 12.203125 58.015625 
Q 14.453125 58.015625 15.96875 56.453125 
Q 17.484375 54.890625 17.484375 52.6875 
Q 17.484375 50.53125 15.96875 48.96875 
Q 14.453125 47.40625 12.203125 47.40625 
Q 10.015625 47.40625 8.453125 48.96875 
Q 6.890625 50.53125 6.890625 52.6875 
Q 6.890625 56.984375 9.46875 60.15625 
Q 12.0625 63.328125 16.140625 64.96875 
Q 20.21875 66.609375 24.3125 66.609375 
Q 27.34375 66.609375 30.703125 65.703125 
Q 34.078125 64.796875 36.8125 63.109375 
Q 39.546875 61.421875 41.28125 58.78125 
Q 43.015625 56.15625 43.015625 52.78125 
Q 43.015625 48.578125 41.140625 45.015625 
Q 39.265625 41.453125 35.984375 38.859375 
Q 32.71875 36.28125 28.8125 35.015625 
Q 33.15625 34.1875 37.0625 31.734375 
Q 40.96875 29.296875 43.328125 25.484375 
Q 45.703125 21.6875 45.703125 17.28125 
Q 45.703125 11.765625 42.671875 7.296875 
Q 39.65625 2.828125 34.71875 0.3125 
Q 29.78125 -2.203125 24.3125 -2.203125 
Q 19.625 -2.203125 14.90625 -0.40625 
Q 10.203125 1.375 7.203125 4.9375 
Q 4.203125 8.5 4.203125 13.484375 
Q 4.203125 15.96875 5.859375 17.625 
Q 7.515625 19.28125 10.015625 19.28125 
Q 11.625 19.28125 12.96875 18.53125 
Q 14.3125 17.78125 15.0625 16.40625 
Q 15.828125 15.046875 15.828125 13.484375 
Q 15.828125 11.03125 14.109375 9.375 
Q 12.40625 7.71875 10.015625 7.71875 
z
" id="Cmr10-51"/>
      </defs>
      <g transform="translate(165.043552 114.472326)scale(0.12 -0.12)">
       <use transform="translate(0 0.196875)" xlink:href="#Cmmi10-120"/>
       <use transform="translate(63.383359 38.460938)scale(0.7)" xlink:href="#Cmsy10-164"/>
       <use transform="translate(57.080078 -25.3125)scale(0.7)" xlink:href="#Cmr10-51"/>
      </g>
     </g>
    </g>
    <g id="xtick_4">
     <g id="line2d_4">
      <g>
       <use style="stroke:#000000;stroke-width:0.8;" x="223.064973" xlink:href="#m8d036a717a" y="98.952326"/>
      </g>
     </g>
     <g id="text_4">
      <!-- $x_4^{\ast}$ -->
      <defs>
       <path d="M 2.78125 16.5 
L 2.78125 20.015625 
L 33.6875 66.109375 
Q 34.03125 66.609375 34.71875 66.609375 
L 36.1875 66.609375 
Q 37.3125 66.609375 37.3125 65.484375 
L 37.3125 20.015625 
L 47.125 20.015625 
L 47.125 16.5 
L 37.3125 16.5 
L 37.3125 6.6875 
Q 37.3125 4.640625 40.234375 4.078125 
Q 43.171875 3.515625 47.015625 3.515625 
L 47.015625 0 
L 19.484375 0 
L 19.484375 3.515625 
Q 23.34375 3.515625 26.265625 4.078125 
Q 29.203125 4.640625 29.203125 6.6875 
L 29.203125 16.5 
z
M 6.109375 20.015625 
L 29.78125 20.015625 
L 29.78125 55.421875 
z
" id="Cmr10-52"/>
      </defs>
      <g transform="translate(216.764973 114.472326)scale(0.12 -0.12)">
       <use transform="translate(0 0.196875)" xlink:href="#Cmmi10-120"/>
       <use transform="translate(63.383359 38.460938)scale(0.7)" xlink:href="#Cmsy10-164"/>
       <use transform="translate(57.080078 -25.3125)scale(0.7)" xlink:href="#Cmr10-52"/>
      </g>
     </g>
    </g>
    <g id="text_5">
     <!-- $x$ -->
     <g transform="translate(261.063397 98.952326)scale(0.19 -0.19)">
      <use transform="translate(0 0.8125)" xlink:href="#Cmmi10-120"/>
     </g>
    </g>
   </g>
   <g id="matplotlib.axis_2">
    <g id="ytick_1">
     <g id="line2d_5">
      <defs>
       <path d="M 0 0 
L -3.5 0 
" id="m26a7277924" style="stroke:#000000;stroke-width:0.8;"/>
      </defs>
      <g>
       <use style="stroke:#000000;stroke-width:0.8;" x="42.04" xlink:href="#m26a7277924" y="73.223105"/>
      </g>
     </g>
     <g id="text_6">
      <!-- $f(x_1^{\ast})$ -->
      <defs>
       <path d="M 9.71875 -16.5 
Q 11.578125 -17.921875 14.203125 -17.921875 
Q 17.78125 -17.921875 20.015625 -10.015625 
Q 20.953125 -6.203125 25.09375 15.09375 
L 29.6875 39.59375 
L 21.09375 39.59375 
Q 20.125 39.59375 20.125 40.921875 
Q 20.515625 43.109375 21.390625 43.109375 
L 30.328125 43.109375 
L 31.5 49.609375 
Q 32.078125 52.640625 32.5625 54.8125 
Q 33.0625 56.984375 33.625 58.828125 
Q 34.1875 60.6875 35.296875 62.984375 
Q 37.015625 66.265625 39.921875 68.390625 
Q 42.828125 70.515625 46.1875 70.515625 
Q 48.390625 70.515625 50.46875 69.703125 
Q 52.546875 68.890625 53.859375 67.28125 
Q 55.171875 65.671875 55.171875 63.484375 
Q 55.171875 60.9375 53.484375 59.046875 
Q 51.8125 57.171875 49.421875 57.171875 
Q 47.796875 57.171875 46.65625 58.171875 
Q 45.515625 59.1875 45.515625 60.796875 
Q 45.515625 62.984375 47 64.625 
Q 48.484375 66.265625 50.6875 66.5 
Q 48.828125 67.921875 46.09375 67.921875 
Q 44.578125 67.921875 43.234375 66.5 
Q 41.890625 65.09375 41.5 63.484375 
Q 40.875 60.9375 38.71875 49.703125 
L 37.5 43.109375 
L 47.796875 43.109375 
Q 48.78125 43.109375 48.78125 41.796875 
Q 48.734375 41.546875 48.578125 40.9375 
Q 48.4375 40.328125 48.171875 39.953125 
Q 47.90625 39.59375 47.515625 39.59375 
L 36.8125 39.59375 
L 32.171875 15.1875 
Q 31.296875 9.859375 30.140625 4.359375 
Q 29 -1.125 26.921875 -6.90625 
Q 24.859375 -12.703125 21.625 -16.609375 
Q 18.40625 -20.515625 14.015625 -20.515625 
Q 10.640625 -20.515625 7.984375 -18.578125 
Q 5.328125 -16.65625 5.328125 -13.484375 
Q 5.328125 -10.9375 6.953125 -9.046875 
Q 8.59375 -7.171875 11.078125 -7.171875 
Q 12.75 -7.171875 13.859375 -8.171875 
Q 14.984375 -9.1875 14.984375 -10.796875 
Q 14.984375 -12.9375 13.390625 -14.71875 
Q 11.8125 -16.5 9.71875 -16.5 
z
" id="Cmmi10-102"/>
       <path d="M 31 -24.8125 
Q 25.4375 -20.40625 21.40625 -14.71875 
Q 17.390625 -9.03125 14.8125 -2.578125 
Q 12.25 3.859375 10.984375 10.890625 
Q 9.71875 17.921875 9.71875 25 
Q 9.71875 32.171875 10.984375 39.203125 
Q 12.25 46.234375 14.859375 52.734375 
Q 17.484375 59.234375 21.53125 64.890625 
Q 25.59375 70.5625 31 74.8125 
Q 31 75 31.5 75 
L 32.421875 75 
Q 32.71875 75 32.953125 74.734375 
Q 33.203125 74.46875 33.203125 74.125 
Q 33.203125 73.6875 33.015625 73.484375 
Q 28.125 68.703125 24.875 63.234375 
Q 21.625 57.765625 19.640625 51.578125 
Q 17.671875 45.40625 16.796875 38.78125 
Q 15.921875 32.171875 15.921875 25 
Q 15.921875 -6.78125 32.90625 -23.296875 
Q 33.203125 -23.578125 33.203125 -24.125 
Q 33.203125 -24.359375 32.9375 -24.671875 
Q 32.671875 -25 32.421875 -25 
L 31.5 -25 
Q 31 -25 31 -24.8125 
z
" id="Cmr10-40"/>
       <path d="M 6.5 -25 
Q 5.609375 -25 5.609375 -24.125 
Q 5.609375 -23.6875 5.8125 -23.484375 
Q 22.90625 -6.78125 22.90625 25 
Q 22.90625 56.78125 6 73.296875 
Q 5.609375 73.53125 5.609375 74.125 
Q 5.609375 74.46875 5.875 74.734375 
Q 6.15625 75 6.5 75 
L 7.421875 75 
Q 7.71875 75 7.90625 74.8125 
Q 15.09375 69.140625 19.875 61.03125 
Q 24.65625 52.9375 26.875 43.75 
Q 29.109375 34.578125 29.109375 25 
Q 29.109375 17.921875 27.90625 11.0625 
Q 26.703125 4.203125 24.09375 -2.453125 
Q 21.484375 -9.125 17.484375 -14.765625 
Q 13.484375 -20.40625 7.90625 -24.8125 
Q 7.71875 -25 7.421875 -25 
z
" id="Cmr10-41"/>
      </defs>
      <g transform="translate(7.2 77.723105)scale(0.12 -0.12)">
       <use xlink:href="#Cmmi10-102"/>
       <use transform="translate(48.876953 0)" xlink:href="#Cmr10-40"/>
       <use transform="translate(87.695312 0)" xlink:href="#Cmmi10-120"/>
       <use transform="translate(151.078672 38.264062)scale(0.7)" xlink:href="#Cmsy10-164"/>
       <use transform="translate(144.775391 -25.509375)scale(0.7)" xlink:href="#Cmr10-49"/>
       <use transform="translate(192.456016 0)" xlink:href="#Cmr10-41"/>
      </g>
     </g>
    </g>
    <g id="ytick_2">
     <g id="line2d_6">
      <g>
       <use style="stroke:#000000;stroke-width:0.8;" x="42.04" xlink:href="#m26a7277924" y="39.634477"/>
      </g>
     </g>
     <g id="text_7">
      <!-- $f(x_2^{\ast})$ -->
      <g transform="translate(7.2 44.134477)scale(0.12 -0.12)">
       <use xlink:href="#Cmmi10-102"/>
       <use transform="translate(48.876953 0)" xlink:href="#Cmr10-40"/>
       <use transform="translate(87.695312 0)" xlink:href="#Cmmi10-120"/>
       <use transform="translate(151.078672 38.264062)scale(0.7)" xlink:href="#Cmsy10-164"/>
       <use transform="translate(144.775391 -25.509375)scale(0.7)" xlink:href="#Cmr10-50"/>
       <use transform="translate(192.456016 0)" xlink:href="#Cmr10-41"/>
      </g>
     </g>
    </g>
    <g id="ytick_3">
     <g id="line2d_7">
      <g>
       <use style="stroke:#000000;stroke-width:0.8;" x="42.04" xlink:href="#m26a7277924" y="59.655285"/>
      </g>
     </g>
     <g id="text_8">
      <!-- $f(x_3^{\ast})$ -->
      <g transform="translate(7.2 64.155285)scale(0.12 -0.12)">
       <use xlink:href="#Cmmi10-102"/>
       <use transform="translate(48.876953 0)" xlink:href="#Cmr10-40"/>
       <use transform="translate(87.695312 0)" xlink:href="#Cmmi10-120"/>
       <use transform="translate(151.078672 38.264062)scale(0.7)" xlink:href="#Cmsy10-164"/>
       <use transform="translate(144.775391 -25.509375)scale(0.7)" xlink:href="#Cmr10-51"/>
       <use transform="translate(192.456016 0)" xlink:href="#Cmr10-41"/>
      </g>
     </g>
    </g>
    <g id="ytick_4">
     <g id="line2d_8">
      <g>
       <use style="stroke:#000000;stroke-width:0.8;" x="42.04" xlink:href="#m26a7277924" y="169.025154"/>
      </g>
     </g>
     <g id="text_9">
      <!-- $f(x_4^{\ast})$ -->
      <g transform="translate(7.2 173.525154)scale(0.12 -0.12)">
       <use xlink:href="#Cmmi10-102"/>
       <use transform="translate(48.876953 0)" xlink:href="#Cmr10-40"/>
       <use transform="translate(87.695312 0)" xlink:href="#Cmmi10-120"/>
       <use transform="translate(151.078672 38.264062)scale(0.7)" xlink:href="#Cmsy10-164"/>
       <use transform="translate(144.775391 -25.509375)scale(0.7)" xlink:href="#Cmr10-52"/>
       <use transform="translate(192.456016 0)" xlink:href="#Cmr10-41"/>
      </g>
     </g>
    </g>
    <g id="text_10">
     <!-- $y$ -->
     <defs>
      <path d="M 8.40625 -14.3125 
Q 10.5 -17.921875 15.71875 -17.921875 
Q 20.453125 -17.921875 23.921875 -14.59375 
Q 27.390625 -11.28125 29.515625 -6.5625 
Q 31.640625 -1.859375 32.8125 3.078125 
Q 28.375 -1.125 23.1875 -1.125 
Q 19.234375 -1.125 16.453125 0.234375 
Q 13.671875 1.609375 12.125 4.3125 
Q 10.59375 7.03125 10.59375 10.890625 
Q 10.59375 14.15625 11.46875 17.59375 
Q 12.359375 21.046875 13.9375 25.265625 
Q 15.53125 29.5 16.703125 32.625 
Q 18.015625 36.28125 18.015625 38.625 
Q 18.015625 41.609375 15.828125 41.609375 
Q 11.859375 41.609375 9.296875 37.53125 
Q 6.734375 33.453125 5.515625 28.421875 
Q 5.328125 27.78125 4.6875 27.78125 
L 3.515625 27.78125 
Q 2.6875 27.78125 2.6875 28.71875 
L 2.6875 29 
Q 4.296875 34.96875 7.609375 39.578125 
Q 10.9375 44.1875 16.015625 44.1875 
Q 19.578125 44.1875 22.046875 41.84375 
Q 24.515625 39.5 24.515625 35.890625 
Q 24.515625 34.03125 23.6875 31.984375 
Q 23.25 30.765625 21.6875 26.65625 
Q 20.125 22.5625 19.28125 19.875 
Q 18.453125 17.1875 17.921875 14.59375 
Q 17.390625 12.015625 17.390625 9.421875 
Q 17.390625 6.109375 18.796875 3.8125 
Q 20.21875 1.515625 23.296875 1.515625 
Q 29.5 1.515625 34.421875 9.078125 
L 42 39.890625 
Q 42.328125 41.21875 43.546875 42.15625 
Q 44.78125 43.109375 46.1875 43.109375 
Q 47.40625 43.109375 48.3125 42.328125 
Q 49.21875 41.546875 49.21875 40.28125 
Q 49.21875 39.703125 49.125 39.5 
L 39.203125 -0.296875 
Q 37.890625 -5.421875 34.375 -10.109375 
Q 30.859375 -14.796875 25.90625 -17.65625 
Q 20.953125 -20.515625 15.578125 -20.515625 
Q 12.984375 -20.515625 10.4375 -19.5 
Q 7.90625 -18.5 6.34375 -16.5 
Q 4.78125 -14.5 4.78125 -11.8125 
Q 4.78125 -9.078125 6.390625 -7.078125 
Q 8.015625 -5.078125 10.6875 -5.078125 
Q 12.3125 -5.078125 13.40625 -6.078125 
Q 14.5 -7.078125 14.5 -8.6875 
Q 14.5 -10.984375 12.78125 -12.6875 
Q 11.078125 -14.40625 8.796875 -14.40625 
Q 8.6875 -14.359375 8.59375 -14.328125 
Q 8.5 -14.3125 8.40625 -14.3125 
z
" id="Cmmi10-121"/>
     </defs>
     <g transform="translate(37.29 21.598438)scale(0.19 -0.19)">
      <use transform="translate(0 0.8125)" xlink:href="#Cmmi10-121"/>
     </g>
    </g>
   </g>
   <g id="line2d_9">
    <path clip-path="url(#pe3fa8a6844)" d="M 42.04 98.952326 
L 57.546325 83.238903 
L 65.990626 75.025374 
L 72.813279 68.704108 
L 78.916458 63.360542 
L 84.200417 59.018682 
L 88.972549 55.357647 
L 93.951324 51.832785 
L 97.819126 49.322241 
L 101.981119 46.861924 
L 106.003818 44.738643 
L 109.840538 42.962395 
L 113.743282 41.420166 
L 117.655697 40.157286 
L 121.052138 39.30284 
L 124.172101 38.725177 
L 127.304112 38.353007 
L 130.514117 38.195822 
L 133.752104 38.275867 
L 136.52772 38.54186 
L 139.403997 39.015955 
L 142.662719 39.80482 
L 145.626087 40.761573 
L 148.802388 42.048154 
L 151.924177 43.583715 
L 155.036426 45.389927 
L 158.078029 47.428246 
L 161.340434 49.922952 
L 164.35914 52.523257 
L 167.629706 55.665696 
L 170.597703 58.817515 
L 173.94113 62.718726 
L 177.22573 66.922114 
L 180.537325 71.541464 
L 184.006614 76.801742 
L 187.272382 82.156535 
L 190.487587 87.819235 
L 194.158002 94.768709 
L 197.592072 101.749771 
L 201.450402 110.159087 
L 205.380506 119.355129 
L 209.255172 129.059348 
L 213.116323 139.374771 
L 217.115261 150.752987 
L 220.676769 161.494928 
L 224.616724 174.060687 
L 228.550572 187.337357 
L 232.783625 202.457045 
L 236.960666 218.242008 
L 241.267056 235.435693 
L 245.749016 254.344177 
L 248.925683 268.384619 
L 248.925683 268.384619 
" style="fill:none;stroke:#0000ff;stroke-linecap:square;"/>
   </g>
   <g id="line2d_10">
    <path clip-path="url(#pe3fa8a6844)" d="M 42.04 98.952326 
L 42.04 73.223105 
L 93.761421 73.223105 
L 93.761421 98.952326 
" style="fill:none;stroke:#ff0000;stroke-linecap:square;"/>
   </g>
   <g id="line2d_11">
    <path clip-path="url(#pe3fa8a6844)" d="M 67.90071 98.952326 
L 67.90071 73.223105 
" style="fill:none;stroke:#808080;stroke-dasharray:3.7,1.6;stroke-dashoffset:0;"/>
   </g>
   <g id="line2d_12">
    <path clip-path="url(#pe3fa8a6844)" d="M 42.04 73.223105 
L 67.90071 73.223105 
" style="fill:none;stroke:#808080;stroke-dasharray:3.7,1.6;stroke-dashoffset:0;"/>
   </g>
   <g id="line2d_13">
    <path clip-path="url(#pe3fa8a6844)" d="M 42.04 73.223105 
L 93.761421 73.223105 
L 93.761421 73.223105 
" style="fill:none;stroke:#ff0000;stroke-linecap:square;"/>
   </g>
   <g id="line2d_14">
    <path clip-path="url(#pe3fa8a6844)" d="M 93.761421 98.952326 
L 93.761421 39.634477 
L 145.482842 39.634477 
L 145.482842 98.952326 
" style="fill:none;stroke:#ff0000;stroke-linecap:square;"/>
   </g>
   <g id="line2d_15">
    <path clip-path="url(#pe3fa8a6844)" d="M 119.622131 98.952326 
L 119.622131 39.634477 
" style="fill:none;stroke:#808080;stroke-dasharray:3.7,1.6;stroke-dashoffset:0;"/>
   </g>
   <g id="line2d_16">
    <path clip-path="url(#pe3fa8a6844)" d="M 42.04 39.634477 
L 119.622131 39.634477 
" style="fill:none;stroke:#808080;stroke-dasharray:3.7,1.6;stroke-dashoffset:0;"/>
   </g>
   <g id="line2d_17">
    <path clip-path="url(#pe3fa8a6844)" d="M 93.761421 39.634477 
L 145.482842 39.634477 
L 145.482842 39.634477 
" style="fill:none;stroke:#ff0000;stroke-linecap:square;"/>
   </g>
   <g id="line2d_18">
    <path clip-path="url(#pe3fa8a6844)" d="M 145.482842 98.952326 
L 145.482842 59.655285 
L 197.204263 59.655285 
L 197.204263 98.952326 
" style="fill:none;stroke:#ff0000;stroke-linecap:square;"/>
   </g>
   <g id="line2d_19">
    <path clip-path="url(#pe3fa8a6844)" d="M 171.343552 98.952326 
L 171.343552 59.655285 
" style="fill:none;stroke:#808080;stroke-dasharray:3.7,1.6;stroke-dashoffset:0;"/>
   </g>
   <g id="line2d_20">
    <path clip-path="url(#pe3fa8a6844)" d="M 42.04 59.655285 
L 171.343552 59.655285 
" style="fill:none;stroke:#808080;stroke-dasharray:3.7,1.6;stroke-dashoffset:0;"/>
   </g>
   <g id="line2d_21">
    <path clip-path="url(#pe3fa8a6844)" d="M 145.482842 59.655285 
L 197.204263 59.655285 
L 197.204263 59.655285 
" style="fill:none;stroke:#ff0000;stroke-linecap:square;"/>
   </g>
   <g id="line2d_22">
    <path clip-path="url(#pe3fa8a6844)" d="M 197.204263 98.952326 
L 197.204263 169.025154 
L 248.925683 169.025154 
L 248.925683 98.952326 
" style="fill:none;stroke:#ff0000;stroke-linecap:square;"/>
   </g>
   <g id="line2d_23">
    <path clip-path="url(#pe3fa8a6844)" d="M 223.064973 98.952326 
L 223.064973 169.025154 
" style="fill:none;stroke:#808080;stroke-dasharray:3.7,1.6;stroke-dashoffset:0;"/>
   </g>
   <g id="line2d_24">
    <path clip-path="url(#pe3fa8a6844)" d="M 42.04 169.025154 
L 223.064973 169.025154 
" style="fill:none;stroke:#808080;stroke-dasharray:3.7,1.6;stroke-dashoffset:0;"/>
   </g>
   <g id="line2d_25">
    <path clip-path="url(#pe3fa8a6844)" d="M 197.204263 169.025154 
L 248.925683 169.025154 
L 248.925683 169.025154 
" style="fill:none;stroke:#ff0000;stroke-linecap:square;"/>
   </g>
   <g id="patch_7">
    <path d="M 42.04 272.988438 
L 42.04 33.588438 
" style="fill:none;stroke:#000000;stroke-linecap:square;stroke-linejoin:miter;stroke-width:0.8;"/>
   </g>
   <g id="patch_8">
    <path d="M 37.902286 98.952326 
L 253.063397 98.952326 
" style="fill:none;stroke:#000000;stroke-linecap:square;stroke-linejoin:miter;stroke-width:0.8;"/>
   </g>
  </g>
 </g>
 <defs>
  <clipPath id="pe3fa8a6844">
   <rect height="239.4" width="215.161111" x="37.902286" y="33.588438"/>
  </clipPath>
 </defs>
</svg>
