<?xml version="1.0" encoding="utf-8" standalone="no"?>
<!DOCTYPE svg PUBLIC "-//W3C//DTD SVG 1.1//EN"
  "http://www.w3.org/Graphics/SVG/1.1/DTD/svg11.dtd">
<!-- Created with matplotlib (https://matplotlib.org/) -->
<svg height="280.188438pt" version="1.1" viewBox="0 0 351.542877 280.188438" width="351.542877pt" xmlns="http://www.w3.org/2000/svg" xmlns:xlink="http://www.w3.org/1999/xlink">
 <defs>
  <style type="text/css">
*{stroke-linecap:butt;stroke-linejoin:round;}
  </style>
 </defs>
 <g id="figure_1">
  <g id="patch_1">
   <path d="M 0 280.188438 
L 351.542877 280.188438 
L 351.542877 0 
L 0 0 
z
" style="fill:#ffffff;"/>
  </g>
  <g id="axes_1">
   <g id="patch_2">
    <path d="M 27.557493 272.988438 
L 325.322877 272.988438 
L 325.322877 33.588438 
L 27.557493 33.588438 
z
" style="fill:#ffffff;"/>
   </g>
   <g id="PathCollection_1">
    <path clip-path="url(#p4a80ac3171)" d="M 57.143156 204.43511 
C 57.562479 204.43511 57.964684 204.268511 58.26119 203.972005 
C 58.557696 203.675499 58.724295 203.273294 58.724295 202.853971 
C 58.724295 202.434648 58.557696 202.032443 58.26119 201.735937 
C 57.964684 201.439431 57.562479 201.272832 57.143156 201.272832 
C 56.723833 201.272832 56.321628 201.439431 56.025122 201.735937 
C 55.728616 202.032443 55.562017 202.434648 55.562017 202.853971 
C 55.562017 203.273294 55.728616 203.675499 56.025122 203.972005 
C 56.321628 204.268511 56.723833 204.43511 57.143156 204.43511 
z
" style="fill:#ff0000;"/>
   </g>
   <g id="PathCollection_2">
    <path clip-path="url(#p4a80ac3171)" d="M 104.861967 245.171093 
C 105.28129 245.171093 105.683495 245.004495 105.980001 244.707989 
C 106.276508 244.411483 106.443106 244.009278 106.443106 243.589955 
C 106.443106 243.170632 106.276508 242.768427 105.980001 242.471921 
C 105.683495 242.175415 105.28129 242.008816 104.861967 242.008816 
C 104.442645 242.008816 104.04044 242.175415 103.743933 242.471921 
C 103.447427 242.768427 103.280829 243.170632 103.280829 243.589955 
C 103.280829 244.009278 103.447427 244.411483 103.743933 244.707989 
C 104.04044 245.004495 104.442645 245.171093 104.861967 245.171093 
z
" style="fill:#ff0000;"/>
   </g>
   <g id="PathCollection_3">
    <path clip-path="url(#p4a80ac3171)" d="M 152.580779 268.238458 
C 153.000102 268.238458 153.402307 268.071859 153.698813 267.775353 
C 153.995319 267.478847 154.161918 267.076642 154.161918 266.657319 
C 154.161918 266.237996 153.995319 265.835791 153.698813 265.539285 
C 153.402307 265.242779 153.000102 265.07618 152.580779 265.07618 
C 152.161456 265.07618 151.759251 265.242779 151.462745 265.539285 
C 151.166239 265.835791 150.99964 266.237996 150.99964 266.657319 
C 150.99964 267.076642 151.166239 267.478847 151.462745 267.775353 
C 151.759251 268.071859 152.161456 268.238458 152.580779 268.238458 
z
" style="fill:#ff0000;"/>
   </g>
   <g id="PathCollection_4">
    <path clip-path="url(#p4a80ac3171)" d="M 200.299591 261.858123 
C 200.718914 261.858123 201.121119 261.691524 201.417625 261.395018 
C 201.714131 261.098512 201.88073 260.696307 201.88073 260.276984 
C 201.88073 259.857661 201.714131 259.455456 201.417625 259.15895 
C 201.121119 258.862444 200.718914 258.695845 200.299591 258.695845 
C 199.880268 258.695845 199.478063 258.862444 199.181557 259.15895 
C 198.885051 259.455456 198.718452 259.857661 198.718452 260.276984 
C 198.718452 260.696307 198.885051 261.098512 199.181557 261.395018 
C 199.478063 261.691524 199.880268 261.858123 200.299591 261.858123 
z
" style="fill:#ff0000;"/>
   </g>
   <g id="PathCollection_5">
    <path clip-path="url(#p4a80ac3171)" d="M 248.018402 214.25101 
C 248.437725 214.25101 248.83993 214.084411 249.136436 213.787905 
C 249.432942 213.491399 249.599541 213.089194 249.599541 212.669871 
C 249.599541 212.250548 249.432942 211.848343 249.136436 211.551837 
C 248.83993 211.255331 248.437725 211.088732 248.018402 211.088732 
C 247.599079 211.088732 247.196874 211.255331 246.900368 211.551837 
C 246.603862 211.848343 246.437264 212.250548 246.437264 212.669871 
C 246.437264 213.089194 246.603862 213.491399 246.900368 213.787905 
C 247.196874 214.084411 247.599079 214.25101 248.018402 214.25101 
z
" style="fill:#ff0000;"/>
   </g>
   <g id="PathCollection_6">
    <path clip-path="url(#p4a80ac3171)" d="M 295.737214 113.638038 
C 296.156537 113.638038 296.558742 113.471439 296.855248 113.174933 
C 297.151754 112.878427 297.318353 112.476222 297.318353 112.056899 
C 297.318353 111.637576 297.151754 111.235371 296.855248 110.938865 
C 296.558742 110.642359 296.156537 110.47576 295.737214 110.47576 
C 295.317891 110.47576 294.915686 110.642359 294.61918 110.938865 
C 294.322674 111.235371 294.156075 111.637576 294.156075 112.056899 
C 294.156075 112.476222 294.322674 112.878427 294.61918 113.174933 
C 294.915686 113.471439 295.317891 113.638038 295.737214 113.638038 
z
" style="fill:#ff0000;"/>
   </g>
   <g id="patch_3">
    <path clip-path="url(#p4a80ac3171)" d="M 33.28375 179.541209 
L 33.28375 202.853971 
L 33.468064 202.853971 
L 33.736684 202.853971 
L 34.054946 202.853971 
L 34.362769 202.853971 
L 34.567208 202.853971 
L 34.662114 202.853971 
L 34.964398 202.853971 
L 35.155643 202.853971 
L 35.449519 202.853971 
L 35.604371 202.853971 
L 35.836607 202.853971 
L 36.132213 202.853971 
L 36.297062 202.853971 
L 36.622483 202.853971 
L 36.87138 202.853971 
L 37.208035 202.853971 
L 37.264062 202.853971 
L 37.66982 202.853971 
L 37.937888 202.853971 
L 37.993829 202.853971 
L 38.304213 202.853971 
L 38.628601 202.853971 
L 38.895792 202.853971 
L 38.953164 202.853971 
L 39.273765 202.853971 
L 39.558235 202.853971 
L 39.811301 202.853971 
L 39.939458 202.853971 
L 40.173163 202.853971 
L 40.458662 202.853971 
L 40.728158 202.853971 
L 40.904976 202.853971 
L 41.102293 202.853971 
L 41.396273 202.853971 
L 41.663834 202.853971 
L 41.962221 202.853971 
L 42.272725 202.853971 
L 42.415617 202.853971 
L 42.678068 202.853971 
L 42.835487 202.853971 
L 43.052058 202.853971 
L 43.302038 202.853971 
L 43.632071 202.853971 
L 43.775484 202.853971 
L 44.17948 202.853971 
L 44.21927 202.853971 
L 44.466474 202.853971 
L 44.725664 202.853971 
L 44.955686 202.853971 
L 45.159301 202.853971 
L 45.517456 202.853971 
L 45.745853 202.853971 
L 45.970793 202.853971 
L 46.245127 202.853971 
L 46.510701 202.853971 
L 46.673855 202.853971 
L 47.037475 202.853971 
L 47.267071 202.853971 
L 47.428155 202.853971 
L 47.60167 202.853971 
L 47.962155 202.853971 
L 48.119336 202.853971 
L 48.317111 202.853971 
L 48.543894 202.853971 
L 48.807051 202.853971 
L 49.210833 202.853971 
L 49.329369 202.853971 
L 49.593502 202.853971 
L 49.935599 202.853971 
L 50.025064 202.853971 
L 50.260853 202.853971 
L 50.537838 202.853971 
L 50.710014 202.853971 
L 50.974054 202.853971 
L 51.347202 202.853971 
L 51.405828 202.853971 
L 51.743416 202.853971 
L 51.89638 202.853971 
L 52.255265 202.853971 
L 52.423848 202.853971 
L 52.613815 202.853971 
L 52.860721 202.853971 
L 53.220594 202.853971 
L 53.368448 202.853971 
L 53.770732 202.853971 
L 53.905215 202.853971 
L 54.069325 202.853971 
L 54.481117 202.853971 
L 54.696204 202.853971 
L 54.853549 202.853971 
L 55.215698 202.853971 
L 55.46214 202.853971 
L 55.583716 202.853971 
L 55.864239 202.853971 
L 56.088596 202.853971 
L 56.248236 202.853971 
L 56.652247 202.853971 
L 56.802208 202.853971 
L 57.043203 202.853971 
L 57.147628 202.853971 
L 57.527374 202.853971 
L 57.826464 202.853971 
L 58.03744 202.853971 
L 58.14964 202.853971 
L 58.52054 202.853971 
L 58.788551 202.853971 
L 58.951526 202.853971 
L 59.17827 202.853971 
L 59.387813 202.853971 
L 59.553192 202.853971 
L 59.873499 202.853971 
L 60.050357 202.853971 
L 60.382678 202.853971 
L 60.581912 202.853971 
L 60.968515 202.853971 
L 61.103848 202.853971 
L 61.230728 202.853971 
L 61.460107 202.853971 
L 61.9229 202.853971 
L 62.120682 202.853971 
L 62.346026 202.853971 
L 62.626418 202.853971 
L 62.659934 202.853971 
L 62.902536 202.853971 
L 63.341895 202.853971 
L 63.450879 202.853971 
L 63.632204 202.853971 
L 63.913824 202.853971 
L 64.134707 202.853971 
L 64.448498 202.853971 
L 64.70103 202.853971 
L 64.894266 202.853971 
L 65.236641 202.853971 
L 65.507962 202.853971 
L 65.577923 202.853971 
L 65.944356 202.853971 
L 66.128884 202.853971 
L 66.363165 202.853971 
L 66.680688 202.853971 
L 66.974459 202.853971 
L 66.975614 202.853971 
L 67.380884 202.853971 
L 67.52396 202.853971 
L 67.876702 202.853971 
L 68.101786 202.853971 
L 68.306846 202.853971 
L 68.604192 202.853971 
L 68.701683 202.853971 
L 69.122536 202.853971 
L 69.214833 202.853971 
L 69.395197 202.853971 
L 69.783732 202.853971 
L 69.86829 202.853971 
L 70.181159 202.853971 
L 70.467328 202.853971 
L 70.675232 202.853971 
L 70.946658 202.853971 
L 71.069592 202.853971 
L 71.31986 202.853971 
L 71.558321 202.853971 
L 71.903259 202.853971 
L 72.192173 202.853971 
L 72.390525 202.853971 
L 72.534526 202.853971 
L 72.788884 202.853971 
L 73.03444 202.853971 
L 73.274224 202.853971 
L 73.562006 202.853971 
L 73.859791 202.853971 
L 74.144507 202.853971 
L 74.401931 202.853971 
L 74.477241 202.853971 
L 74.866608 202.853971 
L 74.950321 202.853971 
L 75.139093 202.853971 
L 75.53396 202.853971 
L 75.687972 202.853971 
L 75.872179 202.853971 
L 76.273952 202.853971 
L 76.378431 202.853971 
L 76.593058 202.853971 
L 77.040568 202.853971 
L 77.073607 202.853971 
L 77.385907 202.853971 
L 77.553312 202.853971 
L 77.95548 202.853971 
L 78.032797 202.853971 
L 78.388888 202.853971 
L 78.540869 202.853971 
L 78.743114 202.853971 
L 79.059033 202.853971 
L 79.274335 202.853971 
L 79.531131 202.853971 
L 79.741528 202.853971 
L 80.147889 202.853971 
L 80.385973 202.853971 
L 80.473539 202.853971 
L 80.874962 202.853971 
L 81.002562 202.853971 
L 81.002562 179.541209 
z
" style="fill:#cde0eb;opacity:0.5;"/>
   </g>
   <g id="patch_4">
    <path clip-path="url(#p4a80ac3171)" d="M 81.002562 179.541209 
L 81.002562 243.589955 
L 81.128314 243.589955 
L 81.578146 243.589955 
L 81.631044 243.589955 
L 81.898542 243.589955 
L 82.082656 243.589955 
L 82.492064 243.589955 
L 82.604716 243.589955 
L 82.863117 243.589955 
L 83.07769 243.589955 
L 83.347984 243.589955 
L 83.548656 243.589955 
L 83.934283 243.589955 
L 84.222094 243.589955 
L 84.393795 243.589955 
L 84.570246 243.589955 
L 84.879492 243.589955 
L 85.131285 243.589955 
L 85.353048 243.589955 
L 85.493219 243.589955 
L 85.706737 243.589955 
L 86.046585 243.589955 
L 86.234757 243.589955 
L 86.599642 243.589955 
L 86.870786 243.589955 
L 86.893491 243.589955 
L 87.278092 243.589955 
L 87.493199 243.589955 
L 87.774281 243.589955 
L 87.927822 243.589955 
L 88.093762 243.589955 
L 88.397802 243.589955 
L 88.659679 243.589955 
L 88.934784 243.589955 
L 89.092114 243.589955 
L 89.483562 243.589955 
L 89.524043 243.589955 
L 89.958767 243.589955 
L 90.152474 243.589955 
L 90.449698 243.589955 
L 90.629211 243.589955 
L 90.760388 243.589955 
L 91.179564 243.589955 
L 91.26023 243.589955 
L 91.529787 243.589955 
L 91.78236 243.589955 
L 92.004179 243.589955 
L 92.352115 243.589955 
L 92.602986 243.589955 
L 92.81107 243.589955 
L 93.03367 243.589955 
L 93.281912 243.589955 
L 93.386051 243.589955 
L 93.806281 243.589955 
L 94.056613 243.589955 
L 94.168376 243.589955 
L 94.511988 243.589955 
L 94.707669 243.589955 
L 94.903851 243.589955 
L 95.145685 243.589955 
L 95.414732 243.589955 
L 95.675787 243.589955 
L 95.932429 243.589955 
L 96.165621 243.589955 
L 96.311442 243.589955 
L 96.58694 243.589955 
L 96.856764 243.589955 
L 97.09147 243.589955 
L 97.286705 243.589955 
L 97.551622 243.589955 
L 97.803785 243.589955 
L 98.116079 243.589955 
L 98.376689 243.589955 
L 98.494545 243.589955 
L 98.768902 243.589955 
L 99.076587 243.589955 
L 99.283736 243.589955 
L 99.39423 243.589955 
L 99.600273 243.589955 
L 99.987427 243.589955 
L 100.247959 243.589955 
L 100.34452 243.589955 
L 100.570392 243.589955 
L 100.967097 243.589955 
L 101.196362 243.589955 
L 101.288971 243.589955 
L 101.693365 243.589955 
L 101.806333 243.589955 
L 102.149581 243.589955 
L 102.434461 243.589955 
L 102.5464 243.589955 
L 102.790213 243.589955 
L 103.143545 243.589955 
L 103.411123 243.589955 
L 103.545249 243.589955 
L 103.893269 243.589955 
L 103.969787 243.589955 
L 104.20951 243.589955 
L 104.611478 243.589955 
L 104.770188 243.589955 
L 105.054517 243.589955 
L 105.172924 243.589955 
L 105.402465 243.589955 
L 105.631089 243.589955 
L 105.960843 243.589955 
L 106.130363 243.589955 
L 106.323682 243.589955 
L 106.582305 243.589955 
L 106.854441 243.589955 
L 107.031751 243.589955 
L 107.365567 243.589955 
L 107.658983 243.589955 
L 107.781997 243.589955 
L 108.045152 243.589955 
L 108.450159 243.589955 
L 108.597737 243.589955 
L 108.904876 243.589955 
L 109.098268 243.589955 
L 109.318529 243.589955 
L 109.643217 243.589955 
L 109.658589 243.589955 
L 110.125019 243.589955 
L 110.218415 243.589955 
L 110.422599 243.589955 
L 110.848541 243.589955 
L 111.063468 243.589955 
L 111.218121 243.589955 
L 111.453869 243.589955 
L 111.627355 243.589955 
L 112.035815 243.589955 
L 112.266577 243.589955 
L 112.495703 243.589955 
L 112.535737 243.589955 
L 112.83645 243.589955 
L 113.088773 243.589955 
L 113.400699 243.589955 
L 113.60064 243.589955 
L 113.80641 243.589955 
L 114.117407 243.589955 
L 114.313534 243.589955 
L 114.471952 243.589955 
L 114.772878 243.589955 
L 115.093705 243.589955 
L 115.363783 243.589955 
L 115.41355 243.589955 
L 115.774081 243.589955 
L 115.985485 243.589955 
L 116.341779 243.589955 
L 116.575363 243.589955 
L 116.70303 243.589955 
L 116.864888 243.589955 
L 117.101333 243.589955 
L 117.371715 243.589955 
L 117.744963 243.589955 
L 117.908194 243.589955 
L 118.148379 243.589955 
L 118.374064 243.589955 
L 118.635387 243.589955 
L 118.87847 243.589955 
L 119.072838 243.589955 
L 119.367324 243.589955 
L 119.554147 243.589955 
L 119.812546 243.589955 
L 120.065192 243.589955 
L 120.344283 243.589955 
L 120.51245 243.589955 
L 120.784755 243.589955 
L 120.963257 243.589955 
L 121.345413 243.589955 
L 121.514179 243.589955 
L 121.886002 243.589955 
L 121.933251 243.589955 
L 122.21909 243.589955 
L 122.580766 243.589955 
L 122.632969 243.589955 
L 122.932064 243.589955 
L 123.104408 243.589955 
L 123.481048 243.589955 
L 123.787744 243.589955 
L 124.013626 243.589955 
L 124.183274 243.589955 
L 124.325294 243.589955 
L 124.596998 243.589955 
L 124.917183 243.589955 
L 125.121958 243.589955 
L 125.290013 243.589955 
L 125.556976 243.589955 
L 125.72427 243.589955 
L 126.174069 243.589955 
L 126.428584 243.589955 
L 126.610178 243.589955 
L 126.84152 243.589955 
L 127.141855 243.589955 
L 127.322548 243.589955 
L 127.628542 243.589955 
L 127.851339 243.589955 
L 128.044433 243.589955 
L 128.278155 243.589955 
L 128.449122 243.589955 
L 128.721373 243.589955 
L 128.721373 179.541209 
z
" style="fill:#cde0eb;opacity:0.5;"/>
   </g>
   <g id="patch_5">
    <path clip-path="url(#p4a80ac3171)" d="M 128.721373 179.541209 
L 128.721373 266.657319 
L 128.911209 266.657319 
L 129.140229 266.657319 
L 129.526185 266.657319 
L 129.737258 266.657319 
L 130.025558 266.657319 
L 130.244968 266.657319 
L 130.305792 266.657319 
L 130.56974 266.657319 
L 130.767141 266.657319 
L 131.022969 266.657319 
L 131.273092 266.657319 
L 131.509018 266.657319 
L 131.827346 266.657319 
L 132.188846 266.657319 
L 132.431212 266.657319 
L 132.633506 266.657319 
L 132.802908 266.657319 
L 132.985693 266.657319 
L 133.162923 266.657319 
L 133.611194 266.657319 
L 133.847594 266.657319 
L 133.883867 266.657319 
L 134.211566 266.657319 
L 134.531415 266.657319 
L 134.785952 266.657319 
L 135.005006 266.657319 
L 135.286705 266.657319 
L 135.481337 266.657319 
L 135.746251 266.657319 
L 136.018163 266.657319 
L 136.090172 266.657319 
L 136.322649 266.657319 
L 136.699209 266.657319 
L 136.916734 266.657319 
L 137.115172 266.657319 
L 137.412722 266.657319 
L 137.560619 266.657319 
L 137.8645 266.657319 
L 138.013078 266.657319 
L 138.413215 266.657319 
L 138.55015 266.657319 
L 138.732216 266.657319 
L 138.981732 266.657319 
L 139.290951 266.657319 
L 139.58222 266.657319 
L 139.723733 266.657319 
L 140.001824 266.657319 
L 140.309005 266.657319 
L 140.524128 266.657319 
L 140.797608 266.657319 
L 140.840389 266.657319 
L 141.202815 266.657319 
L 141.459601 266.657319 
L 141.572096 266.657319 
L 141.796169 266.657319 
L 142.076359 266.657319 
L 142.397332 266.657319 
L 142.561916 266.657319 
L 142.928546 266.657319 
L 143.152302 266.657319 
L 143.343908 266.657319 
L 143.621261 266.657319 
L 143.723997 266.657319 
L 144.04083 266.657319 
L 144.20272 266.657319 
L 144.588129 266.657319 
L 144.824778 266.657319 
L 144.984575 266.657319 
L 145.362017 266.657319 
L 145.546008 266.657319 
L 145.752096 266.657319 
L 146.051098 266.657319 
L 146.240913 266.657319 
L 146.421784 266.657319 
L 146.654102 266.657319 
L 146.867167 266.657319 
L 147.135905 266.657319 
L 147.397223 266.657319 
L 147.647026 266.657319 
L 147.806004 266.657319 
L 148.262011 266.657319 
L 148.459974 266.657319 
L 148.548213 266.657319 
L 148.81863 266.657319 
L 149.074158 266.657319 
L 149.230044 266.657319 
L 149.544769 266.657319 
L 149.769781 266.657319 
L 149.99857 266.657319 
L 150.266222 266.657319 
L 150.607445 266.657319 
L 150.863298 266.657319 
L 151.032113 266.657319 
L 151.143824 266.657319 
L 151.496392 266.657319 
L 151.696212 266.657319 
L 151.989393 266.657319 
L 152.108406 266.657319 
L 152.503229 266.657319 
L 152.617735 266.657319 
L 152.907928 266.657319 
L 153.148589 266.657319 
L 153.515224 266.657319 
L 153.763792 266.657319 
L 153.863188 266.657319 
L 154.080042 266.657319 
L 154.42142 266.657319 
L 154.620128 266.657319 
L 154.769028 266.657319 
L 155.144603 266.657319 
L 155.339757 266.657319 
L 155.595771 266.657319 
L 155.867981 266.657319 
L 155.997395 266.657319 
L 156.359804 266.657319 
L 156.582496 266.657319 
L 156.721549 266.657319 
L 157.053253 266.657319 
L 157.139572 266.657319 
L 157.433272 266.657319 
L 157.813102 266.657319 
L 158.040607 266.657319 
L 158.334026 266.657319 
L 158.562587 266.657319 
L 158.600473 266.657319 
L 158.898562 266.657319 
L 159.073513 266.657319 
L 159.425261 266.657319 
L 159.752938 266.657319 
L 159.994761 266.657319 
L 160.221995 266.657319 
L 160.477455 266.657319 
L 160.655458 266.657319 
L 160.781393 266.657319 
L 161.036133 266.657319 
L 161.291085 266.657319 
L 161.459403 266.657319 
L 161.792995 266.657319 
L 162.106981 266.657319 
L 162.40289 266.657319 
L 162.455025 266.657319 
L 162.802424 266.657319 
L 163.114431 266.657319 
L 163.255301 266.657319 
L 163.478513 266.657319 
L 163.680783 266.657319 
L 163.901268 266.657319 
L 164.130912 266.657319 
L 164.420853 266.657319 
L 164.74118 266.657319 
L 164.866142 266.657319 
L 165.131672 266.657319 
L 165.456367 266.657319 
L 165.749914 266.657319 
L 165.790874 266.657319 
L 166.198737 266.657319 
L 166.404009 266.657319 
L 166.586552 266.657319 
L 166.875059 266.657319 
L 167.203683 266.657319 
L 167.361855 266.657319 
L 167.665315 266.657319 
L 167.756939 266.657319 
L 168.024593 266.657319 
L 168.256237 266.657319 
L 168.63615 266.657319 
L 168.659908 266.657319 
L 168.936998 266.657319 
L 169.331919 266.657319 
L 169.390965 266.657319 
L 169.672821 266.657319 
L 169.915519 266.657319 
L 170.161958 266.657319 
L 170.395695 266.657319 
L 170.743463 266.657319 
L 170.97444 266.657319 
L 171.19283 266.657319 
L 171.289824 266.657319 
L 171.590363 266.657319 
L 171.77473 266.657319 
L 172.154696 266.657319 
L 172.370948 266.657319 
L 172.64438 266.657319 
L 172.798592 266.657319 
L 172.999517 266.657319 
L 173.224155 266.657319 
L 173.47634 266.657319 
L 173.695233 266.657319 
L 174.072918 266.657319 
L 174.254846 266.657319 
L 174.589206 266.657319 
L 174.746905 266.657319 
L 174.967008 266.657319 
L 175.210113 266.657319 
L 175.462881 266.657319 
L 175.763566 266.657319 
L 175.884735 266.657319 
L 176.219565 266.657319 
L 176.440185 266.657319 
L 176.440185 179.541209 
z
" style="fill:#cde0eb;opacity:0.5;"/>
   </g>
   <g id="patch_6">
    <path clip-path="url(#p4a80ac3171)" d="M 176.440185 179.541209 
L 176.440185 260.276984 
L 176.635803 260.276984 
L 176.916017 260.276984 
L 177.20208 260.276984 
L 177.469278 260.276984 
L 177.559354 260.276984 
L 177.926607 260.276984 
L 178.211711 260.276984 
L 178.290055 260.276984 
L 178.55441 260.276984 
L 178.731357 260.276984 
L 179.109151 260.276984 
L 179.372164 260.276984 
L 179.530225 260.276984 
L 179.781588 260.276984 
L 180.148153 260.276984 
L 180.334792 260.276984 
L 180.499237 260.276984 
L 180.868266 260.276984 
L 180.91115 260.276984 
L 181.352843 260.276984 
L 181.514568 260.276984 
L 181.604193 260.276984 
L 181.962534 260.276984 
L 182.269479 260.276984 
L 182.542723 260.276984 
L 182.621059 260.276984 
L 182.978661 260.276984 
L 183.157937 260.276984 
L 183.434373 260.276984 
L 183.619048 260.276984 
L 183.977113 260.276984 
L 184.060151 260.276984 
L 184.471471 260.276984 
L 184.557717 260.276984 
L 184.920898 260.276984 
L 184.976308 260.276984 
L 185.370901 260.276984 
L 185.574672 260.276984 
L 185.857808 260.276984 
L 186.117762 260.276984 
L 186.205437 260.276984 
L 186.591973 260.276984 
L 186.868127 260.276984 
L 186.968751 260.276984 
L 187.240539 260.276984 
L 187.460615 260.276984 
L 187.625532 260.276984 
L 187.886617 260.276984 
L 188.092477 260.276984 
L 188.315343 260.276984 
L 188.76805 260.276984 
L 188.940204 260.276984 
L 189.16863 260.276984 
L 189.412132 260.276984 
L 189.527425 260.276984 
L 189.81302 260.276984 
L 190.005316 260.276984 
L 190.460471 260.276984 
L 190.542792 260.276984 
L 190.774986 260.276984 
L 190.979301 260.276984 
L 191.259641 260.276984 
L 191.595336 260.276984 
L 191.778411 260.276984 
L 192.07549 260.276984 
L 192.356291 260.276984 
L 192.574374 260.276984 
L 192.632643 260.276984 
L 192.941409 260.276984 
L 193.299368 260.276984 
L 193.350397 260.276984 
L 193.700389 260.276984 
L 193.84259 260.276984 
L 194.234171 260.276984 
L 194.352885 260.276984 
L 194.696759 260.276984 
L 194.916201 260.276984 
L 195.176699 260.276984 
L 195.335032 260.276984 
L 195.612428 260.276984 
L 195.784813 260.276984 
L 196.00065 260.276984 
L 196.297789 260.276984 
L 196.477615 260.276984 
L 196.852494 260.276984 
L 197.176311 260.276984 
L 197.392781 260.276984 
L 197.519425 260.276984 
L 197.732451 260.276984 
L 197.968865 260.276984 
L 198.158231 260.276984 
L 198.56544 260.276984 
L 198.681483 260.276984 
L 199.011843 260.276984 
L 199.233385 260.276984 
L 199.49597 260.276984 
L 199.680164 260.276984 
L 199.949726 260.276984 
L 200.286935 260.276984 
L 200.403859 260.276984 
L 200.776083 260.276984 
L 200.967085 260.276984 
L 201.13737 260.276984 
L 201.448455 260.276984 
L 201.620682 260.276984 
L 201.738916 260.276984 
L 202.185646 260.276984 
L 202.417779 260.276984 
L 202.552244 260.276984 
L 202.830596 260.276984 
L 203.001094 260.276984 
L 203.243762 260.276984 
L 203.482515 260.276984 
L 203.881293 260.276984 
L 204.00891 260.276984 
L 204.25408 260.276984 
L 204.435795 260.276984 
L 204.66429 260.276984 
L 205.043068 260.276984 
L 205.104525 260.276984 
L 205.336662 260.276984 
L 205.656115 260.276984 
L 205.836808 260.276984 
L 206.12365 260.276984 
L 206.385479 260.276984 
L 206.671123 260.276984 
L 206.994372 260.276984 
L 207.151146 260.276984 
L 207.349929 260.276984 
L 207.717373 260.276984 
L 207.76118 260.276984 
L 208.176874 260.276984 
L 208.417341 260.276984 
L 208.523662 260.276984 
L 208.823765 260.276984 
L 209.109879 260.276984 
L 209.233614 260.276984 
L 209.612568 260.276984 
L 209.657809 260.276984 
L 210.039722 260.276984 
L 210.152229 260.276984 
L 210.427952 260.276984 
L 210.709986 260.276984 
L 210.879111 260.276984 
L 211.12866 260.276984 
L 211.419033 260.276984 
L 211.668776 260.276984 
L 211.887373 260.276984 
L 212.206588 260.276984 
L 212.294779 260.276984 
L 212.628603 260.276984 
L 212.99471 260.276984 
L 213.246436 260.276984 
L 213.338915 260.276984 
L 213.568598 260.276984 
L 213.824047 260.276984 
L 214.204194 260.276984 
L 214.422821 260.276984 
L 214.656397 260.276984 
L 214.829931 260.276984 
L 215.096807 260.276984 
L 215.29791 260.276984 
L 215.597958 260.276984 
L 215.829823 260.276984 
L 216.107127 260.276984 
L 216.36394 260.276984 
L 216.480609 260.276984 
L 216.614192 260.276984 
L 216.980327 260.276984 
L 217.190271 260.276984 
L 217.523531 260.276984 
L 217.565794 260.276984 
L 217.875458 260.276984 
L 218.189734 260.276984 
L 218.486049 260.276984 
L 218.588331 260.276984 
L 218.77615 260.276984 
L 219.071427 260.276984 
L 219.331171 260.276984 
L 219.573908 260.276984 
L 219.874546 260.276984 
L 220.100546 260.276984 
L 220.294347 260.276984 
L 220.598647 260.276984 
L 220.855305 260.276984 
L 221.141913 260.276984 
L 221.279888 260.276984 
L 221.628629 260.276984 
L 221.859953 260.276984 
L 222.06253 260.276984 
L 222.306095 260.276984 
L 222.393769 260.276984 
L 222.74583 260.276984 
L 222.919081 260.276984 
L 223.134585 260.276984 
L 223.385076 260.276984 
L 223.736857 260.276984 
L 223.972213 260.276984 
L 224.158997 260.276984 
L 224.158997 179.541209 
z
" style="fill:#cde0eb;opacity:0.5;"/>
   </g>
   <g id="patch_7">
    <path clip-path="url(#p4a80ac3171)" d="M 224.158997 179.541209 
L 224.158997 212.669871 
L 224.484197 212.669871 
L 224.75469 212.669871 
L 224.979719 212.669871 
L 225.221066 212.669871 
L 225.432426 212.669871 
L 225.681143 212.669871 
L 225.861999 212.669871 
L 226.180023 212.669871 
L 226.378428 212.669871 
L 226.509733 212.669871 
L 226.696218 212.669871 
L 227.040576 212.669871 
L 227.332598 212.669871 
L 227.507621 212.669871 
L 227.840816 212.669871 
L 228.089289 212.669871 
L 228.338434 212.669871 
L 228.537891 212.669871 
L 228.784894 212.669871 
L 229.021014 212.669871 
L 229.291222 212.669871 
L 229.507636 212.669871 
L 229.61994 212.669871 
L 230.004046 212.669871 
L 230.067351 212.669871 
L 230.417448 212.669871 
L 230.557386 212.669871 
L 230.75959 212.669871 
L 231.030679 212.669871 
L 231.445712 212.669871 
L 231.61278 212.669871 
L 231.837038 212.669871 
L 232.053494 212.669871 
L 232.372556 212.669871 
L 232.623415 212.669871 
L 232.712441 212.669871 
L 232.97566 212.669871 
L 233.332843 212.669871 
L 233.436925 212.669871 
L 233.740367 212.669871 
L 233.880887 212.669871 
L 234.30363 212.669871 
L 234.451953 212.669871 
L 234.817514 212.669871 
L 235.04229 212.669871 
L 235.188304 212.669871 
L 235.437569 212.669871 
L 235.582256 212.669871 
L 235.957233 212.669871 
L 236.200427 212.669871 
L 236.37266 212.669871 
L 236.624772 212.669871 
L 236.948846 212.669871 
L 237.129195 212.669871 
L 237.338272 212.669871 
L 237.484021 212.669871 
L 237.944056 212.669871 
L 238.151176 212.669871 
L 238.388966 212.669871 
L 238.475324 212.669871 
L 238.758677 212.669871 
L 238.990414 212.669871 
L 239.358691 212.669871 
L 239.497281 212.669871 
L 239.815349 212.669871 
L 240.022226 212.669871 
L 240.225956 212.669871 
L 240.52918 212.669871 
L 240.709891 212.669871 
L 240.975583 212.669871 
L 241.161061 212.669871 
L 241.317894 212.669871 
L 241.698366 212.669871 
L 241.91228 212.669871 
L 242.092819 212.669871 
L 242.473619 212.669871 
L 242.673626 212.669871 
L 242.929021 212.669871 
L 243.059323 212.669871 
L 243.404023 212.669871 
L 243.686657 212.669871 
L 243.85047 212.669871 
L 243.962779 212.669871 
L 244.223802 212.669871 
L 244.579671 212.669871 
L 244.869549 212.669871 
L 245.080612 212.669871 
L 245.284519 212.669871 
L 245.39282 212.669871 
L 245.810203 212.669871 
L 245.963853 212.669871 
L 246.142996 212.669871 
L 246.577294 212.669871 
L 246.808777 212.669871 
L 247.024882 212.669871 
L 247.207871 212.669871 
L 247.403462 212.669871 
L 247.758163 212.669871 
L 247.929295 212.669871 
L 248.163543 212.669871 
L 248.47334 212.669871 
L 248.695665 212.669871 
L 248.892336 212.669871 
L 249.160093 212.669871 
L 249.384359 212.669871 
L 249.633237 212.669871 
L 249.758631 212.669871 
L 249.982913 212.669871 
L 250.362976 212.669871 
L 250.51621 212.669871 
L 250.861699 212.669871 
L 250.926519 212.669871 
L 251.206453 212.669871 
L 251.410008 212.669871 
L 251.708614 212.669871 
L 251.93433 212.669871 
L 252.119597 212.669871 
L 252.418778 212.669871 
L 252.600743 212.669871 
L 252.923398 212.669871 
L 253.177259 212.669871 
L 253.393299 212.669871 
L 253.583286 212.669871 
L 253.915981 212.669871 
L 254.080664 212.669871 
L 254.30816 212.669871 
L 254.692276 212.669871 
L 254.863209 212.669871 
L 255.139163 212.669871 
L 255.340612 212.669871 
L 255.567783 212.669871 
L 255.908202 212.669871 
L 256.07857 212.669871 
L 256.190369 212.669871 
L 256.579048 212.669871 
L 256.88294 212.669871 
L 257.081756 212.669871 
L 257.299733 212.669871 
L 257.430729 212.669871 
L 257.772973 212.669871 
L 258.047071 212.669871 
L 258.285053 212.669871 
L 258.522759 212.669871 
L 258.8063 212.669871 
L 258.836265 212.669871 
L 259.141428 212.669871 
L 259.505113 212.669871 
L 259.646183 212.669871 
L 259.913491 212.669871 
L 260.059335 212.669871 
L 260.353828 212.669871 
L 260.567409 212.669871 
L 260.793534 212.669871 
L 261.135816 212.669871 
L 261.42698 212.669871 
L 261.476752 212.669871 
L 261.800783 212.669871 
L 262.005951 212.669871 
L 262.393936 212.669871 
L 262.540966 212.669871 
L 262.811599 212.669871 
L 262.888921 212.669871 
L 263.274351 212.669871 
L 263.560329 212.669871 
L 263.762378 212.669871 
L 263.859517 212.669871 
L 264.116867 212.669871 
L 264.540608 212.669871 
L 264.792094 212.669871 
L 264.941984 212.669871 
L 265.173194 212.669871 
L 265.472952 212.669871 
L 265.683915 212.669871 
L 265.892084 212.669871 
L 266.164465 212.669871 
L 266.337903 212.669871 
L 266.518126 212.669871 
L 266.818139 212.669871 
L 267.145683 212.669871 
L 267.288651 212.669871 
L 267.659446 212.669871 
L 267.721651 212.669871 
L 267.932318 212.669871 
L 268.351022 212.669871 
L 268.45665 212.669871 
L 268.74774 212.669871 
L 268.884841 212.669871 
L 269.24531 212.669871 
L 269.531102 212.669871 
L 269.622878 212.669871 
L 269.984535 212.669871 
L 270.169488 212.669871 
L 270.403177 212.669871 
L 270.793024 212.669871 
L 270.874934 212.669871 
L 271.274053 212.669871 
L 271.438114 212.669871 
L 271.726791 212.669871 
L 271.877808 212.669871 
L 271.877808 179.541209 
z
" style="fill:#cde0eb;opacity:0.5;"/>
   </g>
   <g id="patch_8">
    <path clip-path="url(#p4a80ac3171)" d="M 271.877808 179.541209 
L 271.877808 112.056899 
L 272.18302 112.056899 
L 272.306239 112.056899 
L 272.61333 112.056899 
L 272.789059 112.056899 
L 273.038126 112.056899 
L 273.334765 112.056899 
L 273.584263 112.056899 
L 273.698481 112.056899 
L 274.04304 112.056899 
L 274.176853 112.056899 
L 274.576901 112.056899 
L 274.820095 112.056899 
L 275.02977 112.056899 
L 275.245007 112.056899 
L 275.373264 112.056899 
L 275.781002 112.056899 
L 276.02908 112.056899 
L 276.250205 112.056899 
L 276.33415 112.056899 
L 276.763033 112.056899 
L 276.995787 112.056899 
L 277.234566 112.056899 
L 277.475019 112.056899 
L 277.628163 112.056899 
L 277.901238 112.056899 
L 278.075192 112.056899 
L 278.429944 112.056899 
L 278.555848 112.056899 
L 278.926552 112.056899 
L 279.062532 112.056899 
L 279.310951 112.056899 
L 279.493159 112.056899 
L 279.861251 112.056899 
L 279.966751 112.056899 
L 280.372196 112.056899 
L 280.556842 112.056899 
L 280.661597 112.056899 
L 281.05674 112.056899 
L 281.268353 112.056899 
L 281.425181 112.056899 
L 281.808472 112.056899 
L 281.925444 112.056899 
L 282.170626 112.056899 
L 282.39887 112.056899 
L 282.741181 112.056899 
L 282.918242 112.056899 
L 283.249151 112.056899 
L 283.497787 112.056899 
L 283.595708 112.056899 
L 283.761139 112.056899 
L 284.106585 112.056899 
L 284.289889 112.056899 
L 284.615592 112.056899 
L 284.810535 112.056899 
L 285.174945 112.056899 
L 285.406249 112.056899 
L 285.566432 112.056899 
L 285.745102 112.056899 
L 286.042116 112.056899 
L 286.15976 112.056899 
L 286.45938 112.056899 
L 286.806487 112.056899 
L 286.8696 112.056899 
L 287.27965 112.056899 
L 287.484666 112.056899 
L 287.640999 112.056899 
L 287.967749 112.056899 
L 288.092048 112.056899 
L 288.429299 112.056899 
L 288.687446 112.056899 
L 288.998082 112.056899 
L 289.257449 112.056899 
L 289.422348 112.056899 
L 289.720894 112.056899 
L 289.859516 112.056899 
L 289.983711 112.056899 
L 290.400206 112.056899 
L 290.513129 112.056899 
L 290.883771 112.056899 
L 290.983534 112.056899 
L 291.224626 112.056899 
L 291.655463 112.056899 
L 291.778566 112.056899 
L 292.107747 112.056899 
L 292.175885 112.056899 
L 292.466557 112.056899 
L 292.75283 112.056899 
L 293.092684 112.056899 
L 293.311129 112.056899 
L 293.574665 112.056899 
L 293.582426 112.056899 
L 293.958142 112.056899 
L 294.20533 112.056899 
L 294.485843 112.056899 
L 294.677179 112.056899 
L 294.826929 112.056899 
L 295.199543 112.056899 
L 295.297127 112.056899 
L 295.728884 112.056899 
L 295.817743 112.056899 
L 296.037215 112.056899 
L 296.347442 112.056899 
L 296.513778 112.056899 
L 296.859612 112.056899 
L 297.100297 112.056899 
L 297.298863 112.056899 
L 297.638632 112.056899 
L 297.671172 112.056899 
L 298.103428 112.056899 
L 298.151857 112.056899 
L 298.59377 112.056899 
L 298.757492 112.056899 
L 299.070656 112.056899 
L 299.29787 112.056899 
L 299.504733 112.056899 
L 299.682523 112.056899 
L 300.041321 112.056899 
L 300.106926 112.056899 
L 300.425719 112.056899 
L 300.605639 112.056899 
L 300.888299 112.056899 
L 301.038146 112.056899 
L 301.293087 112.056899 
L 301.659781 112.056899 
L 301.748663 112.056899 
L 301.989873 112.056899 
L 302.262202 112.056899 
L 302.481414 112.056899 
L 302.848945 112.056899 
L 303.130883 112.056899 
L 303.260853 112.056899 
L 303.625516 112.056899 
L 303.709923 112.056899 
L 304.014179 112.056899 
L 304.196864 112.056899 
L 304.540382 112.056899 
L 304.745381 112.056899 
L 304.910667 112.056899 
L 305.126173 112.056899 
L 305.388725 112.056899 
L 305.787777 112.056899 
L 306.039355 112.056899 
L 306.148855 112.056899 
L 306.504229 112.056899 
L 306.675863 112.056899 
L 306.840916 112.056899 
L 307.208923 112.056899 
L 307.376093 112.056899 
L 307.673664 112.056899 
L 307.95613 112.056899 
L 308.057932 112.056899 
L 308.24045 112.056899 
L 308.580883 112.056899 
L 308.801752 112.056899 
L 308.990609 112.056899 
L 309.282988 112.056899 
L 309.542868 112.056899 
L 309.873495 112.056899 
L 310.089674 112.056899 
L 310.188988 112.056899 
L 310.415505 112.056899 
L 310.618532 112.056899 
L 311.005223 112.056899 
L 311.272852 112.056899 
L 311.479417 112.056899 
L 311.703104 112.056899 
L 311.935812 112.056899 
L 312.163629 112.056899 
L 312.376794 112.056899 
L 312.643238 112.056899 
L 312.795738 112.056899 
L 313.158378 112.056899 
L 313.364305 112.056899 
L 313.577563 112.056899 
L 313.768436 112.056899 
L 314.042799 112.056899 
L 314.337927 112.056899 
L 314.591194 112.056899 
L 314.834042 112.056899 
L 314.947237 112.056899 
L 315.228566 112.056899 
L 315.587122 112.056899 
L 315.698765 112.056899 
L 315.98072 112.056899 
L 316.271867 112.056899 
L 316.418604 112.056899 
L 316.742084 112.056899 
L 317.069319 112.056899 
L 317.314915 112.056899 
L 317.391811 112.056899 
L 317.563191 112.056899 
L 317.868217 112.056899 
L 318.132717 112.056899 
L 318.386328 112.056899 
L 318.678288 112.056899 
L 318.820393 112.056899 
L 319.160627 112.056899 
L 319.29324 112.056899 
L 319.59662 112.056899 
L 319.59662 179.541209 
z
" style="fill:#cde0eb;opacity:0.5;"/>
   </g>
   <g id="matplotlib.axis_1">
    <g id="xtick_1">
     <g id="line2d_1">
      <defs>
       <path d="M 0 0 
L 0 3.5 
" id="m23b7f1d4db" style="stroke:#000000;stroke-width:0.8;"/>
      </defs>
      <g>
       <use style="stroke:#000000;stroke-width:0.8;" x="57.143156" xlink:href="#m23b7f1d4db" y="179.541209"/>
      </g>
     </g>
     <g id="text_1">
      <!-- 1/4 -->
      <defs>
       <path d="M 12.40625 8.296875 
L 28.515625 8.296875 
L 28.515625 63.921875 
L 10.984375 60.40625 
L 10.984375 69.390625 
L 28.421875 72.90625 
L 38.28125 72.90625 
L 38.28125 8.296875 
L 54.390625 8.296875 
L 54.390625 0 
L 12.40625 0 
z
" id="DejaVuSans-49"/>
       <path d="M 25.390625 72.90625 
L 33.6875 72.90625 
L 8.296875 -9.28125 
L 0 -9.28125 
z
" id="DejaVuSans-47"/>
       <path d="M 37.796875 64.3125 
L 12.890625 25.390625 
L 37.796875 25.390625 
z
M 35.203125 72.90625 
L 47.609375 72.90625 
L 47.609375 25.390625 
L 58.015625 25.390625 
L 58.015625 17.1875 
L 47.609375 17.1875 
L 47.609375 0 
L 37.796875 0 
L 37.796875 17.1875 
L 4.890625 17.1875 
L 4.890625 26.703125 
z
" id="DejaVuSans-52"/>
      </defs>
      <g transform="translate(47.486906 195.659334)scale(0.12 -0.12)">
       <use xlink:href="#DejaVuSans-49"/>
       <use x="63.623047" xlink:href="#DejaVuSans-47"/>
       <use x="97.314453" xlink:href="#DejaVuSans-52"/>
      </g>
     </g>
    </g>
    <g id="xtick_2">
     <g id="line2d_2">
      <g>
       <use style="stroke:#000000;stroke-width:0.8;" x="104.861967" xlink:href="#m23b7f1d4db" y="179.541209"/>
      </g>
     </g>
     <g id="text_2">
      <!-- 3/4 -->
      <defs>
       <path d="M 40.578125 39.3125 
Q 47.65625 37.796875 51.625 33 
Q 55.609375 28.21875 55.609375 21.1875 
Q 55.609375 10.40625 48.1875 4.484375 
Q 40.765625 -1.421875 27.09375 -1.421875 
Q 22.515625 -1.421875 17.65625 -0.515625 
Q 12.796875 0.390625 7.625 2.203125 
L 7.625 11.71875 
Q 11.71875 9.328125 16.59375 8.109375 
Q 21.484375 6.890625 26.8125 6.890625 
Q 36.078125 6.890625 40.9375 10.546875 
Q 45.796875 14.203125 45.796875 21.1875 
Q 45.796875 27.640625 41.28125 31.265625 
Q 36.765625 34.90625 28.71875 34.90625 
L 20.21875 34.90625 
L 20.21875 43.015625 
L 29.109375 43.015625 
Q 36.375 43.015625 40.234375 45.921875 
Q 44.09375 48.828125 44.09375 54.296875 
Q 44.09375 59.90625 40.109375 62.90625 
Q 36.140625 65.921875 28.71875 65.921875 
Q 24.65625 65.921875 20.015625 65.03125 
Q 15.375 64.15625 9.8125 62.3125 
L 9.8125 71.09375 
Q 15.4375 72.65625 20.34375 73.4375 
Q 25.25 74.21875 29.59375 74.21875 
Q 40.828125 74.21875 47.359375 69.109375 
Q 53.90625 64.015625 53.90625 55.328125 
Q 53.90625 49.265625 50.4375 45.09375 
Q 46.96875 40.921875 40.578125 39.3125 
z
" id="DejaVuSans-51"/>
      </defs>
      <g transform="translate(95.205717 195.659334)scale(0.12 -0.12)">
       <use xlink:href="#DejaVuSans-51"/>
       <use x="63.623047" xlink:href="#DejaVuSans-47"/>
       <use x="97.314453" xlink:href="#DejaVuSans-52"/>
      </g>
     </g>
    </g>
    <g id="xtick_3">
     <g id="line2d_3">
      <g>
       <use style="stroke:#000000;stroke-width:0.8;" x="152.580779" xlink:href="#m23b7f1d4db" y="179.541209"/>
      </g>
     </g>
     <g id="text_3">
      <!-- 5/4 -->
      <defs>
       <path d="M 10.796875 72.90625 
L 49.515625 72.90625 
L 49.515625 64.59375 
L 19.828125 64.59375 
L 19.828125 46.734375 
Q 21.96875 47.46875 24.109375 47.828125 
Q 26.265625 48.1875 28.421875 48.1875 
Q 40.625 48.1875 47.75 41.5 
Q 54.890625 34.8125 54.890625 23.390625 
Q 54.890625 11.625 47.5625 5.09375 
Q 40.234375 -1.421875 26.90625 -1.421875 
Q 22.3125 -1.421875 17.546875 -0.640625 
Q 12.796875 0.140625 7.71875 1.703125 
L 7.71875 11.625 
Q 12.109375 9.234375 16.796875 8.0625 
Q 21.484375 6.890625 26.703125 6.890625 
Q 35.15625 6.890625 40.078125 11.328125 
Q 45.015625 15.765625 45.015625 23.390625 
Q 45.015625 31 40.078125 35.4375 
Q 35.15625 39.890625 26.703125 39.890625 
Q 22.75 39.890625 18.8125 39.015625 
Q 14.890625 38.140625 10.796875 36.28125 
z
" id="DejaVuSans-53"/>
      </defs>
      <g transform="translate(142.924529 195.659334)scale(0.12 -0.12)">
       <use xlink:href="#DejaVuSans-53"/>
       <use x="63.623047" xlink:href="#DejaVuSans-47"/>
       <use x="97.314453" xlink:href="#DejaVuSans-52"/>
      </g>
     </g>
    </g>
    <g id="xtick_4">
     <g id="line2d_4">
      <g>
       <use style="stroke:#000000;stroke-width:0.8;" x="200.299591" xlink:href="#m23b7f1d4db" y="179.541209"/>
      </g>
     </g>
     <g id="text_4">
      <!-- 7/4 -->
      <defs>
       <path d="M 8.203125 72.90625 
L 55.078125 72.90625 
L 55.078125 68.703125 
L 28.609375 0 
L 18.3125 0 
L 43.21875 64.59375 
L 8.203125 64.59375 
z
" id="DejaVuSans-55"/>
      </defs>
      <g transform="translate(190.643341 195.659334)scale(0.12 -0.12)">
       <use xlink:href="#DejaVuSans-55"/>
       <use x="63.623047" xlink:href="#DejaVuSans-47"/>
       <use x="97.314453" xlink:href="#DejaVuSans-52"/>
      </g>
     </g>
    </g>
    <g id="xtick_5">
     <g id="line2d_5">
      <g>
       <use style="stroke:#000000;stroke-width:0.8;" x="248.018402" xlink:href="#m23b7f1d4db" y="179.541209"/>
      </g>
     </g>
     <g id="text_5">
      <!-- 9/4 -->
      <defs>
       <path d="M 10.984375 1.515625 
L 10.984375 10.5 
Q 14.703125 8.734375 18.5 7.8125 
Q 22.3125 6.890625 25.984375 6.890625 
Q 35.75 6.890625 40.890625 13.453125 
Q 46.046875 20.015625 46.78125 33.40625 
Q 43.953125 29.203125 39.59375 26.953125 
Q 35.25 24.703125 29.984375 24.703125 
Q 19.046875 24.703125 12.671875 31.3125 
Q 6.296875 37.9375 6.296875 49.421875 
Q 6.296875 60.640625 12.9375 67.421875 
Q 19.578125 74.21875 30.609375 74.21875 
Q 43.265625 74.21875 49.921875 64.515625 
Q 56.59375 54.828125 56.59375 36.375 
Q 56.59375 19.140625 48.40625 8.859375 
Q 40.234375 -1.421875 26.421875 -1.421875 
Q 22.703125 -1.421875 18.890625 -0.6875 
Q 15.09375 0.046875 10.984375 1.515625 
z
M 30.609375 32.421875 
Q 37.25 32.421875 41.125 36.953125 
Q 45.015625 41.5 45.015625 49.421875 
Q 45.015625 57.28125 41.125 61.84375 
Q 37.25 66.40625 30.609375 66.40625 
Q 23.96875 66.40625 20.09375 61.84375 
Q 16.21875 57.28125 16.21875 49.421875 
Q 16.21875 41.5 20.09375 36.953125 
Q 23.96875 32.421875 30.609375 32.421875 
z
" id="DejaVuSans-57"/>
      </defs>
      <g transform="translate(238.362152 195.659334)scale(0.12 -0.12)">
       <use xlink:href="#DejaVuSans-57"/>
       <use x="63.623047" xlink:href="#DejaVuSans-47"/>
       <use x="97.314453" xlink:href="#DejaVuSans-52"/>
      </g>
     </g>
    </g>
    <g id="xtick_6">
     <g id="line2d_6">
      <g>
       <use style="stroke:#000000;stroke-width:0.8;" x="295.737214" xlink:href="#m23b7f1d4db" y="179.541209"/>
      </g>
     </g>
     <g id="text_6">
      <!-- 11/4 -->
      <g transform="translate(282.263464 195.659334)scale(0.12 -0.12)">
       <use xlink:href="#DejaVuSans-49"/>
       <use x="63.623047" xlink:href="#DejaVuSans-49"/>
       <use x="127.246094" xlink:href="#DejaVuSans-47"/>
       <use x="160.9375" xlink:href="#DejaVuSans-52"/>
      </g>
     </g>
    </g>
    <g id="xtick_7">
     <g id="line2d_7">
      <g>
       <use style="stroke:#000000;stroke-width:0.8;" x="319.59662" xlink:href="#m23b7f1d4db" y="179.541209"/>
      </g>
     </g>
     <g id="text_7">
      <!-- 3 -->
      <g transform="translate(315.77912 195.659334)scale(0.12 -0.12)">
       <use xlink:href="#DejaVuSans-51"/>
      </g>
     </g>
    </g>
    <g id="text_8">
     <!-- $x$ -->
     <defs>
      <path d="M 7.8125 2.875 
Q 9.578125 1.515625 12.796875 1.515625 
Q 15.921875 1.515625 18.3125 4.515625 
Q 20.703125 7.515625 21.578125 11.078125 
L 26.125 28.8125 
Q 27.203125 33.640625 27.203125 35.40625 
Q 27.203125 37.890625 25.8125 39.75 
Q 24.421875 41.609375 21.921875 41.609375 
Q 18.75 41.609375 15.96875 39.625 
Q 13.1875 37.640625 11.28125 34.59375 
Q 9.375 31.546875 8.59375 28.421875 
Q 8.40625 27.78125 7.8125 27.78125 
L 6.59375 27.78125 
Q 5.8125 27.78125 5.8125 28.71875 
L 5.8125 29 
Q 6.78125 32.71875 9.125 36.25 
Q 11.46875 39.796875 14.859375 41.984375 
Q 18.265625 44.1875 22.125 44.1875 
Q 25.78125 44.1875 28.734375 42.234375 
Q 31.6875 40.28125 32.90625 36.921875 
Q 34.625 39.984375 37.28125 42.078125 
Q 39.9375 44.1875 43.109375 44.1875 
Q 45.265625 44.1875 47.5 43.421875 
Q 49.75 42.671875 51.171875 41.109375 
Q 52.59375 39.546875 52.59375 37.203125 
Q 52.59375 34.671875 50.953125 32.828125 
Q 49.3125 31 46.78125 31 
Q 45.171875 31 44.09375 32.03125 
Q 43.015625 33.0625 43.015625 34.625 
Q 43.015625 36.71875 44.453125 38.296875 
Q 45.90625 39.890625 47.90625 40.1875 
Q 46.09375 41.609375 42.921875 41.609375 
Q 39.703125 41.609375 37.328125 38.625 
Q 34.96875 35.640625 33.984375 31.984375 
L 29.59375 14.3125 
Q 28.515625 10.296875 28.515625 7.71875 
Q 28.515625 5.171875 29.953125 3.34375 
Q 31.390625 1.515625 33.796875 1.515625 
Q 38.484375 1.515625 42.15625 5.640625 
Q 45.84375 9.765625 47.015625 14.703125 
Q 47.21875 15.28125 47.796875 15.28125 
L 49.03125 15.28125 
Q 49.421875 15.28125 49.65625 15.015625 
Q 49.90625 14.75 49.90625 14.40625 
Q 49.90625 14.3125 49.8125 14.109375 
Q 48.390625 8.15625 43.84375 3.515625 
Q 39.3125 -1.125 33.59375 -1.125 
Q 29.9375 -1.125 26.984375 0.84375 
Q 24.03125 2.828125 22.796875 6.203125 
Q 21.234375 3.265625 18.46875 1.0625 
Q 15.71875 -1.125 12.59375 -1.125 
Q 10.453125 -1.125 8.171875 -0.359375 
Q 5.90625 0.390625 4.484375 1.953125 
Q 3.078125 3.515625 3.078125 5.90625 
Q 3.078125 8.25 4.703125 10.171875 
Q 6.34375 12.109375 8.796875 12.109375 
Q 10.453125 12.109375 11.578125 11.109375 
Q 12.703125 10.109375 12.703125 8.5 
Q 12.703125 6.390625 11.296875 4.828125 
Q 9.90625 3.265625 7.8125 2.875 
z
" id="Cmmi10-120"/>
     </defs>
     <g transform="translate(333.322877 179.541209)scale(0.19 -0.19)">
      <use transform="translate(0 0.8125)" xlink:href="#Cmmi10-120"/>
     </g>
    </g>
   </g>
   <g id="matplotlib.axis_2">
    <g id="ytick_1">
     <g id="line2d_8">
      <defs>
       <path d="M 0 0 
L -3.5 0 
" id="m5811d3f3d2" style="stroke:#000000;stroke-width:0.8;"/>
      </defs>
      <g>
       <use style="stroke:#000000;stroke-width:0.8;" x="33.28375" xlink:href="#m5811d3f3d2" y="179.541209"/>
      </g>
     </g>
    </g>
    <g id="ytick_2">
     <g id="line2d_9">
      <g>
       <use style="stroke:#000000;stroke-width:0.8;" x="33.28375" xlink:href="#m5811d3f3d2" y="38.192254"/>
      </g>
     </g>
     <g id="text_9">
      <!-- 9.0 -->
      <defs>
       <path d="M 10.6875 12.40625 
L 21 12.40625 
L 21 0 
L 10.6875 0 
z
" id="DejaVuSans-46"/>
       <path d="M 31.78125 66.40625 
Q 24.171875 66.40625 20.328125 58.90625 
Q 16.5 51.421875 16.5 36.375 
Q 16.5 21.390625 20.328125 13.890625 
Q 24.171875 6.390625 31.78125 6.390625 
Q 39.453125 6.390625 43.28125 13.890625 
Q 47.125 21.390625 47.125 36.375 
Q 47.125 51.421875 43.28125 58.90625 
Q 39.453125 66.40625 31.78125 66.40625 
z
M 31.78125 74.21875 
Q 44.046875 74.21875 50.515625 64.515625 
Q 56.984375 54.828125 56.984375 36.375 
Q 56.984375 17.96875 50.515625 8.265625 
Q 44.046875 -1.421875 31.78125 -1.421875 
Q 19.53125 -1.421875 13.0625 8.265625 
Q 6.59375 17.96875 6.59375 36.375 
Q 6.59375 54.828125 13.0625 64.515625 
Q 19.53125 74.21875 31.78125 74.21875 
z
" id="DejaVuSans-48"/>
      </defs>
      <g transform="translate(7.2 42.751317)scale(0.12 -0.12)">
       <use xlink:href="#DejaVuSans-57"/>
       <use x="63.623047" xlink:href="#DejaVuSans-46"/>
       <use x="95.410156" xlink:href="#DejaVuSans-48"/>
      </g>
     </g>
    </g>
    <g id="text_10">
     <!-- $y$ -->
     <defs>
      <path d="M 8.40625 -14.3125 
Q 10.5 -17.921875 15.71875 -17.921875 
Q 20.453125 -17.921875 23.921875 -14.59375 
Q 27.390625 -11.28125 29.515625 -6.5625 
Q 31.640625 -1.859375 32.8125 3.078125 
Q 28.375 -1.125 23.1875 -1.125 
Q 19.234375 -1.125 16.453125 0.234375 
Q 13.671875 1.609375 12.125 4.3125 
Q 10.59375 7.03125 10.59375 10.890625 
Q 10.59375 14.15625 11.46875 17.59375 
Q 12.359375 21.046875 13.9375 25.265625 
Q 15.53125 29.5 16.703125 32.625 
Q 18.015625 36.28125 18.015625 38.625 
Q 18.015625 41.609375 15.828125 41.609375 
Q 11.859375 41.609375 9.296875 37.53125 
Q 6.734375 33.453125 5.515625 28.421875 
Q 5.328125 27.78125 4.6875 27.78125 
L 3.515625 27.78125 
Q 2.6875 27.78125 2.6875 28.71875 
L 2.6875 29 
Q 4.296875 34.96875 7.609375 39.578125 
Q 10.9375 44.1875 16.015625 44.1875 
Q 19.578125 44.1875 22.046875 41.84375 
Q 24.515625 39.5 24.515625 35.890625 
Q 24.515625 34.03125 23.6875 31.984375 
Q 23.25 30.765625 21.6875 26.65625 
Q 20.125 22.5625 19.28125 19.875 
Q 18.453125 17.1875 17.921875 14.59375 
Q 17.390625 12.015625 17.390625 9.421875 
Q 17.390625 6.109375 18.796875 3.8125 
Q 20.21875 1.515625 23.296875 1.515625 
Q 29.5 1.515625 34.421875 9.078125 
L 42 39.890625 
Q 42.328125 41.21875 43.546875 42.15625 
Q 44.78125 43.109375 46.1875 43.109375 
Q 47.40625 43.109375 48.3125 42.328125 
Q 49.21875 41.546875 49.21875 40.28125 
Q 49.21875 39.703125 49.125 39.5 
L 39.203125 -0.296875 
Q 37.890625 -5.421875 34.375 -10.109375 
Q 30.859375 -14.796875 25.90625 -17.65625 
Q 20.953125 -20.515625 15.578125 -20.515625 
Q 12.984375 -20.515625 10.4375 -19.5 
Q 7.90625 -18.5 6.34375 -16.5 
Q 4.78125 -14.5 4.78125 -11.8125 
Q 4.78125 -9.078125 6.390625 -7.078125 
Q 8.015625 -5.078125 10.6875 -5.078125 
Q 12.3125 -5.078125 13.40625 -6.078125 
Q 14.5 -7.078125 14.5 -8.6875 
Q 14.5 -10.984375 12.78125 -12.6875 
Q 11.078125 -14.40625 8.796875 -14.40625 
Q 8.6875 -14.359375 8.59375 -14.328125 
Q 8.5 -14.3125 8.40625 -14.3125 
z
" id="Cmmi10-121"/>
     </defs>
     <g transform="translate(28.53375 21.598437)scale(0.19 -0.19)">
      <use transform="translate(0 0.8125)" xlink:href="#Cmmi10-121"/>
     </g>
    </g>
   </g>
   <g id="line2d_10">
    <path clip-path="url(#p4a80ac3171)" d="M 33.28375 179.541209 
L 52.924633 198.797218 
L 63.055788 208.46057 
L 72.896701 217.530952 
L 80.922099 224.624815 
L 88.889768 231.338756 
L 96.048677 237.046401 
L 102.585824 241.954746 
L 109.045801 246.489883 
L 114.678683 250.165667 
L 120.309866 253.560508 
L 125.485051 256.417109 
L 131.033769 259.182123 
L 135.506065 261.17416 
L 140.152823 263.008994 
L 144.496584 264.498188 
L 149.046843 265.814075 
L 153.187012 266.785878 
L 157.268339 267.525834 
L 161.277129 268.034736 
L 164.97978 268.30685 
L 169.11791 268.379106 
L 172.750251 268.234984 
L 177.000128 267.812761 
L 181.253772 267.108402 
L 184.719964 266.320208 
L 188.832433 265.12887 
L 192.717598 263.741537 
L 196.553861 262.115717 
L 200.499897 260.171552 
L 203.913212 258.262423 
L 207.88057 255.772306 
L 211.345886 253.353785 
L 215.091422 250.478888 
L 219.227416 246.982835 
L 222.726907 243.75581 
L 226.10068 240.406662 
L 229.813034 236.446317 
L 234.159622 231.435833 
L 238.174208 226.442795 
L 242.419054 220.773877 
L 246.294297 215.24207 
L 250.17885 209.348947 
L 254.754729 201.951429 
L 258.714856 195.143951 
L 263.256215 186.865181 
L 267.729443 178.208025 
L 271.846845 169.790263 
L 276.324786 160.137463 
L 281.034608 149.414591 
L 285.660885 138.301995 
L 290.041129 127.240904 
L 294.967862 114.161231 
L 299.752596 100.79959 
L 304.772119 86.0713 
L 309.844985 70.433065 
L 314.737433 54.62033 
L 319.59662 38.192254 
L 319.59662 38.192254 
" style="fill:none;stroke:#0000ff;stroke-linecap:square;"/>
   </g>
   <g id="line2d_11">
    <path clip-path="url(#p4a80ac3171)" d="M 33.28375 179.541209 
L 33.28375 202.853971 
L 81.002562 202.853971 
L 81.002562 179.541209 
" style="fill:none;stroke:#ff0000;stroke-linecap:square;"/>
   </g>
   <g id="line2d_12">
    <path clip-path="url(#p4a80ac3171)" d="M 33.28375 202.853971 
L 81.002562 202.853971 
L 81.002562 202.853971 
" style="fill:none;stroke:#ff0000;stroke-linecap:square;"/>
   </g>
   <g id="line2d_13">
    <path clip-path="url(#p4a80ac3171)" d="M 81.002562 179.541209 
L 81.002562 243.589955 
L 128.721373 243.589955 
L 128.721373 179.541209 
" style="fill:none;stroke:#ff0000;stroke-linecap:square;"/>
   </g>
   <g id="line2d_14">
    <path clip-path="url(#p4a80ac3171)" d="M 81.002562 243.589955 
L 128.721373 243.589955 
L 128.721373 243.589955 
" style="fill:none;stroke:#ff0000;stroke-linecap:square;"/>
   </g>
   <g id="line2d_15">
    <path clip-path="url(#p4a80ac3171)" d="M 128.721373 179.541209 
L 128.721373 266.657319 
L 176.440185 266.657319 
L 176.440185 179.541209 
" style="fill:none;stroke:#ff0000;stroke-linecap:square;"/>
   </g>
   <g id="line2d_16">
    <path clip-path="url(#p4a80ac3171)" d="M 128.721373 266.657319 
L 176.440185 266.657319 
L 176.440185 266.657319 
" style="fill:none;stroke:#ff0000;stroke-linecap:square;"/>
   </g>
   <g id="line2d_17">
    <path clip-path="url(#p4a80ac3171)" d="M 176.440185 179.541209 
L 176.440185 260.276984 
L 224.158997 260.276984 
L 224.158997 179.541209 
" style="fill:none;stroke:#ff0000;stroke-linecap:square;"/>
   </g>
   <g id="line2d_18">
    <path clip-path="url(#p4a80ac3171)" d="M 176.440185 260.276984 
L 224.158997 260.276984 
L 224.158997 260.276984 
" style="fill:none;stroke:#ff0000;stroke-linecap:square;"/>
   </g>
   <g id="line2d_19">
    <path clip-path="url(#p4a80ac3171)" d="M 224.158997 179.541209 
L 224.158997 212.669871 
L 271.877808 212.669871 
L 271.877808 179.541209 
" style="fill:none;stroke:#ff0000;stroke-linecap:square;"/>
   </g>
   <g id="line2d_20">
    <path clip-path="url(#p4a80ac3171)" d="M 224.158997 212.669871 
L 271.877808 212.669871 
L 271.877808 212.669871 
" style="fill:none;stroke:#ff0000;stroke-linecap:square;"/>
   </g>
   <g id="line2d_21">
    <path clip-path="url(#p4a80ac3171)" d="M 271.877808 179.541209 
L 271.877808 112.056899 
L 319.59662 112.056899 
L 319.59662 179.541209 
" style="fill:none;stroke:#ff0000;stroke-linecap:square;"/>
   </g>
   <g id="line2d_22">
    <path clip-path="url(#p4a80ac3171)" d="M 271.877808 112.056899 
L 319.59662 112.056899 
L 319.59662 112.056899 
" style="fill:none;stroke:#ff0000;stroke-linecap:square;"/>
   </g>
   <g id="patch_9">
    <path d="M 33.28375 272.988438 
L 33.28375 33.588437 
" style="fill:none;stroke:#000000;stroke-linecap:square;stroke-linejoin:miter;stroke-width:0.8;"/>
   </g>
   <g id="patch_10">
    <path d="M 27.557493 179.541209 
L 325.322877 179.541209 
" style="fill:none;stroke:#000000;stroke-linecap:square;stroke-linejoin:miter;stroke-width:0.8;"/>
   </g>
   <g id="text_11">
    <!-- $y=x^3-6*x$ -->
    <defs>
     <path d="M 7.515625 13.28125 
Q 6.6875 13.28125 6.140625 13.90625 
Q 5.609375 14.546875 5.609375 15.28125 
Q 5.609375 16.109375 6.140625 16.6875 
Q 6.6875 17.28125 7.515625 17.28125 
L 70.3125 17.28125 
Q 71.046875 17.28125 71.578125 16.6875 
Q 72.125 16.109375 72.125 15.28125 
Q 72.125 14.546875 71.578125 13.90625 
Q 71.046875 13.28125 70.3125 13.28125 
z
M 7.515625 32.71875 
Q 6.6875 32.71875 6.140625 33.296875 
Q 5.609375 33.890625 5.609375 34.71875 
Q 5.609375 35.453125 6.140625 36.078125 
Q 6.6875 36.71875 7.515625 36.71875 
L 70.3125 36.71875 
Q 71.046875 36.71875 71.578125 36.078125 
Q 72.125 35.453125 72.125 34.71875 
Q 72.125 33.890625 71.578125 33.296875 
Q 71.046875 32.71875 70.3125 32.71875 
z
" id="Cmr10-61"/>
     <path d="M 9.515625 7.71875 
Q 11.859375 4.296875 15.8125 2.640625 
Q 19.78125 0.984375 24.3125 0.984375 
Q 30.125 0.984375 32.5625 5.9375 
Q 35.015625 10.890625 35.015625 17.1875 
Q 35.015625 20.015625 34.5 22.84375 
Q 33.984375 25.6875 32.765625 28.125 
Q 31.546875 30.5625 29.421875 32.03125 
Q 27.296875 33.5 24.21875 33.5 
L 17.578125 33.5 
Q 16.703125 33.5 16.703125 34.421875 
L 16.703125 35.296875 
Q 16.703125 36.078125 17.578125 36.078125 
L 23.09375 36.53125 
Q 26.609375 36.53125 28.921875 39.15625 
Q 31.25 41.796875 32.328125 45.578125 
Q 33.40625 49.359375 33.40625 52.78125 
Q 33.40625 57.5625 31.15625 60.640625 
Q 28.90625 63.71875 24.3125 63.71875 
Q 20.515625 63.71875 17.046875 62.28125 
Q 13.578125 60.84375 11.53125 57.90625 
Q 11.71875 57.953125 11.859375 57.984375 
Q 12.015625 58.015625 12.203125 58.015625 
Q 14.453125 58.015625 15.96875 56.453125 
Q 17.484375 54.890625 17.484375 52.6875 
Q 17.484375 50.53125 15.96875 48.96875 
Q 14.453125 47.40625 12.203125 47.40625 
Q 10.015625 47.40625 8.453125 48.96875 
Q 6.890625 50.53125 6.890625 52.6875 
Q 6.890625 56.984375 9.46875 60.15625 
Q 12.0625 63.328125 16.140625 64.96875 
Q 20.21875 66.609375 24.3125 66.609375 
Q 27.34375 66.609375 30.703125 65.703125 
Q 34.078125 64.796875 36.8125 63.109375 
Q 39.546875 61.421875 41.28125 58.78125 
Q 43.015625 56.15625 43.015625 52.78125 
Q 43.015625 48.578125 41.140625 45.015625 
Q 39.265625 41.453125 35.984375 38.859375 
Q 32.71875 36.28125 28.8125 35.015625 
Q 33.15625 34.1875 37.0625 31.734375 
Q 40.96875 29.296875 43.328125 25.484375 
Q 45.703125 21.6875 45.703125 17.28125 
Q 45.703125 11.765625 42.671875 7.296875 
Q 39.65625 2.828125 34.71875 0.3125 
Q 29.78125 -2.203125 24.3125 -2.203125 
Q 19.625 -2.203125 14.90625 -0.40625 
Q 10.203125 1.375 7.203125 4.9375 
Q 4.203125 8.5 4.203125 13.484375 
Q 4.203125 15.96875 5.859375 17.625 
Q 7.515625 19.28125 10.015625 19.28125 
Q 11.625 19.28125 12.96875 18.53125 
Q 14.3125 17.78125 15.0625 16.40625 
Q 15.828125 15.046875 15.828125 13.484375 
Q 15.828125 11.03125 14.109375 9.375 
Q 12.40625 7.71875 10.015625 7.71875 
z
" id="Cmr10-51"/>
     <path d="M 10.203125 23 
Q 9.375 23 8.828125 23.625 
Q 8.296875 24.265625 8.296875 25 
Q 8.296875 25.734375 8.828125 26.359375 
Q 9.375 27 10.203125 27 
L 67.578125 27 
Q 68.359375 27 68.875 26.359375 
Q 69.390625 25.734375 69.390625 25 
Q 69.390625 24.265625 68.875 23.625 
Q 68.359375 23 67.578125 23 
z
" id="Cmsy10-161"/>
     <path d="M 25 -2.203125 
Q 18.796875 -2.203125 14.640625 1.09375 
Q 10.5 4.390625 8.21875 9.640625 
Q 5.953125 14.890625 5.078125 20.65625 
Q 4.203125 26.421875 4.203125 32.328125 
Q 4.203125 40.234375 7.28125 48.1875 
Q 10.359375 56.15625 16.328125 61.375 
Q 22.3125 66.609375 30.515625 66.609375 
Q 33.9375 66.609375 36.890625 65.3125 
Q 39.84375 64.015625 41.53125 61.5 
Q 43.21875 58.984375 43.21875 55.421875 
Q 43.21875 53.375 41.828125 51.984375 
Q 40.4375 50.59375 38.375 50.59375 
Q 36.421875 50.59375 35 52 
Q 33.59375 53.421875 33.59375 55.421875 
Q 33.59375 57.375 35 58.78125 
Q 36.421875 60.203125 38.375 60.203125 
L 38.921875 60.203125 
Q 37.640625 62.015625 35.328125 62.859375 
Q 33.015625 63.71875 30.515625 63.71875 
Q 27.484375 63.71875 24.921875 62.390625 
Q 22.359375 61.078125 20.3125 58.828125 
Q 18.265625 56.59375 16.890625 53.875 
Q 15.53125 51.171875 14.765625 47.703125 
Q 14.015625 44.234375 13.8125 41.203125 
Q 13.625 38.1875 13.625 33.59375 
Q 15.375 37.703125 18.59375 40.3125 
Q 21.828125 42.921875 25.875 42.921875 
Q 30.328125 42.921875 33.984375 41.109375 
Q 37.640625 39.3125 40.28125 36.109375 
Q 42.921875 32.90625 44.3125 28.796875 
Q 45.703125 24.703125 45.703125 20.515625 
Q 45.703125 14.65625 43.09375 9.34375 
Q 40.484375 4.046875 35.734375 0.921875 
Q 31 -2.203125 25 -2.203125 
z
M 25 0.984375 
Q 28.859375 0.984375 31.203125 2.734375 
Q 33.546875 4.5 34.640625 7.390625 
Q 35.75 10.296875 36.015625 13.25 
Q 36.28125 16.21875 36.28125 20.515625 
Q 36.28125 26.171875 35.734375 30.171875 
Q 35.203125 34.1875 32.8125 37.234375 
Q 30.421875 40.28125 25.484375 40.28125 
Q 21.4375 40.28125 18.828125 37.546875 
Q 16.21875 34.8125 15.015625 30.640625 
Q 13.8125 26.46875 13.8125 22.609375 
Q 13.8125 21.296875 13.921875 20.609375 
Q 13.921875 20.453125 13.890625 20.359375 
Q 13.875 20.265625 13.8125 20.125 
Q 13.8125 15.828125 14.6875 11.421875 
Q 15.578125 7.03125 18.0625 4 
Q 20.5625 0.984375 25 0.984375 
z
" id="Cmr10-54"/>
     <path d="M 9.421875 12.703125 
Q 8.296875 12.703125 7.390625 13.640625 
Q 6.5 14.59375 6.5 15.71875 
Q 6.5 17.4375 7.90625 18.109375 
L 22.3125 25 
L 7.90625 31.78125 
Q 6.5 32.375 6.5 34.1875 
Q 6.5 35.296875 7.390625 36.25 
Q 8.296875 37.203125 9.421875 37.203125 
Q 10.15625 37.203125 10.796875 36.71875 
L 23.578125 27.390625 
L 22.125 43.703125 
Q 22.125 44.921875 22.953125 45.703125 
Q 23.78125 46.484375 25 46.484375 
Q 26.171875 46.484375 26.96875 45.75 
Q 27.78125 45.015625 27.78125 43.890625 
L 27.78125 43.703125 
L 26.3125 27.390625 
L 39.109375 36.71875 
Q 39.75 37.203125 40.484375 37.203125 
Q 41.703125 37.203125 42.546875 36.25 
Q 43.40625 35.296875 43.40625 34.1875 
Q 43.40625 32.375 42 31.78125 
L 27.59375 25 
L 42 18.109375 
Q 43.40625 17.4375 43.40625 15.71875 
Q 43.40625 14.59375 42.546875 13.640625 
Q 41.703125 12.703125 40.484375 12.703125 
Q 39.75 12.703125 39.109375 13.1875 
L 26.3125 22.515625 
L 27.78125 6.296875 
L 27.78125 6 
Q 27.78125 4.890625 26.921875 4.15625 
Q 26.078125 3.421875 25 3.421875 
Q 23.828125 3.421875 22.96875 4.21875 
Q 22.125 5.03125 22.125 6.203125 
L 23.578125 22.515625 
L 10.796875 13.1875 
Q 10.15625 12.703125 9.421875 12.703125 
z
" id="Cmsy10-164"/>
    </defs>
    <g style="fill:#0000ff;" transform="translate(136.400185 117.273092)scale(0.14 -0.14)">
     <use transform="translate(0 0.109375)" xlink:href="#Cmmi10-121"/>
     <use transform="translate(66.582031 0.109375)" xlink:href="#Cmr10-61"/>
     <use transform="translate(161.826172 0.109375)" xlink:href="#Cmmi10-120"/>
     <use transform="translate(225.209531 38.373438)scale(0.7)" xlink:href="#Cmr10-51"/>
     <use transform="translate(284.145469 0.109375)" xlink:href="#Cmsy10-161"/>
     <use transform="translate(379.389609 0.109375)" xlink:href="#Cmr10-54"/>
     <use transform="translate(446.948203 0.109375)" xlink:href="#Cmsy10-164"/>
     <use transform="translate(514.506797 0.109375)" xlink:href="#Cmmi10-120"/>
    </g>
   </g>
   <g id="text_12">
    <!-- $y=x^3-6*x$ -->
    <g style="fill:#0000ff;" transform="translate(136.400185 117.273092)scale(0.14 -0.14)">
     <use transform="translate(0 0.109375)" xlink:href="#Cmmi10-121"/>
     <use transform="translate(66.582031 0.109375)" xlink:href="#Cmr10-61"/>
     <use transform="translate(161.826172 0.109375)" xlink:href="#Cmmi10-120"/>
     <use transform="translate(225.209531 38.373438)scale(0.7)" xlink:href="#Cmr10-51"/>
     <use transform="translate(284.145469 0.109375)" xlink:href="#Cmsy10-161"/>
     <use transform="translate(379.389609 0.109375)" xlink:href="#Cmr10-54"/>
     <use transform="translate(446.948203 0.109375)" xlink:href="#Cmsy10-164"/>
     <use transform="translate(514.506797 0.109375)" xlink:href="#Cmmi10-120"/>
    </g>
   </g>
   <g id="text_13">
    <!-- $y=x^3-6*x$ -->
    <g style="fill:#0000ff;" transform="translate(136.400185 117.273092)scale(0.14 -0.14)">
     <use transform="translate(0 0.109375)" xlink:href="#Cmmi10-121"/>
     <use transform="translate(66.582031 0.109375)" xlink:href="#Cmr10-61"/>
     <use transform="translate(161.826172 0.109375)" xlink:href="#Cmmi10-120"/>
     <use transform="translate(225.209531 38.373438)scale(0.7)" xlink:href="#Cmr10-51"/>
     <use transform="translate(284.145469 0.109375)" xlink:href="#Cmsy10-161"/>
     <use transform="translate(379.389609 0.109375)" xlink:href="#Cmr10-54"/>
     <use transform="translate(446.948203 0.109375)" xlink:href="#Cmsy10-164"/>
     <use transform="translate(514.506797 0.109375)" xlink:href="#Cmmi10-120"/>
    </g>
   </g>
   <g id="text_14">
    <!-- $y=x^3-6*x$ -->
    <g style="fill:#0000ff;" transform="translate(136.400185 117.273092)scale(0.14 -0.14)">
     <use transform="translate(0 0.109375)" xlink:href="#Cmmi10-121"/>
     <use transform="translate(66.582031 0.109375)" xlink:href="#Cmr10-61"/>
     <use transform="translate(161.826172 0.109375)" xlink:href="#Cmmi10-120"/>
     <use transform="translate(225.209531 38.373438)scale(0.7)" xlink:href="#Cmr10-51"/>
     <use transform="translate(284.145469 0.109375)" xlink:href="#Cmsy10-161"/>
     <use transform="translate(379.389609 0.109375)" xlink:href="#Cmr10-54"/>
     <use transform="translate(446.948203 0.109375)" xlink:href="#Cmsy10-164"/>
     <use transform="translate(514.506797 0.109375)" xlink:href="#Cmmi10-120"/>
    </g>
   </g>
   <g id="text_15">
    <!-- $y=x^3-6*x$ -->
    <g style="fill:#0000ff;" transform="translate(136.400185 117.273092)scale(0.14 -0.14)">
     <use transform="translate(0 0.109375)" xlink:href="#Cmmi10-121"/>
     <use transform="translate(66.582031 0.109375)" xlink:href="#Cmr10-61"/>
     <use transform="translate(161.826172 0.109375)" xlink:href="#Cmmi10-120"/>
     <use transform="translate(225.209531 38.373438)scale(0.7)" xlink:href="#Cmr10-51"/>
     <use transform="translate(284.145469 0.109375)" xlink:href="#Cmsy10-161"/>
     <use transform="translate(379.389609 0.109375)" xlink:href="#Cmr10-54"/>
     <use transform="translate(446.948203 0.109375)" xlink:href="#Cmsy10-164"/>
     <use transform="translate(514.506797 0.109375)" xlink:href="#Cmmi10-120"/>
    </g>
   </g>
   <g id="text_16">
    <!-- $y=x^3-6*x$ -->
    <g style="fill:#0000ff;" transform="translate(136.400185 117.273092)scale(0.14 -0.14)">
     <use transform="translate(0 0.109375)" xlink:href="#Cmmi10-121"/>
     <use transform="translate(66.582031 0.109375)" xlink:href="#Cmr10-61"/>
     <use transform="translate(161.826172 0.109375)" xlink:href="#Cmmi10-120"/>
     <use transform="translate(225.209531 38.373438)scale(0.7)" xlink:href="#Cmr10-51"/>
     <use transform="translate(284.145469 0.109375)" xlink:href="#Cmsy10-161"/>
     <use transform="translate(379.389609 0.109375)" xlink:href="#Cmr10-54"/>
     <use transform="translate(446.948203 0.109375)" xlink:href="#Cmsy10-164"/>
     <use transform="translate(514.506797 0.109375)" xlink:href="#Cmmi10-120"/>
    </g>
   </g>
  </g>
 </g>
 <defs>
  <clipPath id="p4a80ac3171">
   <rect height="239.4" width="297.765385" x="27.557493" y="33.588438"/>
  </clipPath>
 </defs>
</svg>
