<?xml version="1.0" encoding="utf-8" standalone="no"?>
<!DOCTYPE svg PUBLIC "-//W3C//DTD SVG 1.1//EN"
  "http://www.w3.org/Graphics/SVG/1.1/DTD/svg11.dtd">
<!-- Created with matplotlib (https://matplotlib.org/) -->
<svg height="209.432818pt" version="1.1" viewBox="0 0 279.482636 209.432818" width="279.482636pt" xmlns="http://www.w3.org/2000/svg" xmlns:xlink="http://www.w3.org/1999/xlink">
 <defs>
  <style type="text/css">
*{stroke-linecap:butt;stroke-linejoin:round;}
  </style>
 </defs>
 <g id="figure_1">
  <g id="patch_1">
   <path d="M 0 209.432818 
L 279.482636 209.432818 
L 279.482636 0 
L 0 0 
z
" style="fill:#ffffff;"/>
  </g>
  <g id="axes_1">
   <g id="patch_2">
    <path d="M 8.017203 184.530337 
L 251.522636 184.530337 
L 251.522636 36.491875 
L 8.017203 36.491875 
z
" style="fill:#ffffff;"/>
   </g>
   <g id="patch_3">
    <path clip-path="url(#pd0d312c25d)" d="M 161.758051 181.683443 
L 161.758051 57.415135 
L 161.873735 57.478985 
L 162.198992 57.659086 
L 162.281189 57.704736 
L 162.524242 57.840037 
L 162.64065 57.905007 
L 162.868377 58.03242 
L 162.990866 58.101123 
L 163.243886 58.243418 
L 163.486807 58.38051 
L 163.594112 58.441216 
L 163.767835 58.539688 
L 163.98457 58.662873 
L 164.127276 58.744183 
L 164.364195 58.879523 
L 164.619255 59.025712 
L 164.784087 59.120453 
L 164.867171 59.168287 
L 165.155149 59.334495 
L 165.33846 59.440624 
L 165.561586 59.570148 
L 165.6096 59.59807 
L 165.926325 59.782691 
L 166.131107 59.902461 
L 166.184824 59.93393 
L 166.492524 60.114607 
L 166.708174 60.241654 
L 166.756294 60.27005 
L 167.067464 60.454087 
L 167.139752 60.496943 
L 167.292623 60.587698 
L 167.625904 60.786149 
L 167.737885 60.853009 
L 167.961949 60.987062 
L 168.214754 61.138744 
L 168.358167 61.224996 
L 168.472888 61.294097 
L 168.694841 61.428055 
L 168.782324 61.480951 
L 169.031597 61.631968 
L 169.319348 61.806841 
L 169.427696 61.872836 
L 169.641304 62.003186 
L 169.722958 62.053097 
L 169.997518 62.221263 
L 170.160598 62.321393 
L 170.317817 62.418098 
L 170.556278 62.565097 
L 170.756918 62.689081 
L 170.991535 62.834405 
L 171.093498 62.897678 
L 171.280949 63.014182 
L 171.517486 63.161529 
L 171.692922 63.271054 
L 171.860611 63.375933 
L 172.090933 63.520287 
L 172.171755 63.571024 
L 172.523057 63.792056 
L 172.674767 63.887756 
L 172.762555 63.943201 
L 173.003024 64.095332 
L 173.247973 64.250676 
L 173.443616 64.375026 
L 173.481868 64.399367 
L 173.675251 64.522565 
L 173.837828 64.62632 
L 174.071204 64.775547 
L 174.385809 64.97725 
L 174.427246 65.003862 
L 174.624329 65.13058 
L 174.824673 65.259638 
L 174.995154 65.369653 
L 175.322572 65.581436 
L 175.481891 65.684721 
L 175.66087 65.800933 
L 175.775206 65.875272 
L 176.053375 66.056456 
L 176.149904 66.119437 
L 176.403129 66.284913 
L 176.475849 66.332503 
L 176.663374 66.455367 
L 176.915241 66.620706 
L 177.060858 66.716464 
L 177.259505 66.84729 
L 177.558681 67.044746 
L 177.671017 67.119018 
L 177.782524 67.192813 
L 178.121469 67.41755 
L 178.272297 67.517761 
L 178.478091 67.654694 
L 178.580099 67.722655 
L 178.779984 67.85599 
L 178.94628 67.967084 
L 179.160902 68.110683 
L 179.382055 68.258911 
L 179.600789 68.405773 
L 179.696304 68.469982 
L 179.973317 68.656475 
L 180.170865 68.789715 
L 180.355085 68.914148 
L 180.409573 68.950986 
L 180.701047 69.148302 
L 180.78784 69.207141 
L 181.117446 69.430937 
L 181.280117 69.541589 
L 181.444433 69.653494 
L 181.597187 69.757644 
L 181.715058 69.83809 
L 182.042173 70.061699 
L 182.101382 70.102228 
L 182.378197 70.291938 
L 182.573235 70.425824 
L 182.751045 70.548042 
L 182.942351 70.679703 
L 183.150726 70.823307 
L 183.357125 70.965749 
L 183.573194 71.115075 
L 183.672243 71.183599 
L 183.928227 71.360903 
L 184.113869 71.48967 
L 184.205102 71.553009 
L 184.486787 71.748805 
L 184.647275 71.860515 
L 184.77286 71.948009 
L 184.926732 72.055304 
L 185.125614 72.194137 
L 185.274324 72.298057 
L 185.484081 72.4448 
L 185.813549 72.675665 
L 185.963928 72.781189 
L 186.108819 72.882952 
L 186.228326 72.966951 
L 186.444284 73.118893 
L 186.702161 73.300576 
L 186.937654 73.466721 
L 187.125597 73.599478 
L 187.286056 73.712931 
L 187.444022 73.824719 
L 187.628538 73.955418 
L 187.833943 74.101069 
L 188.045765 74.251437 
L 188.184011 74.349667 
L 188.407475 74.508598 
L 188.585463 74.635319 
L 188.7436 74.748004 
L 188.991207 74.924625 
L 189.073041 74.983048 
L 189.245861 75.106504 
L 189.509162 75.2948 
L 189.657186 75.400765 
L 189.754425 75.470415 
L 189.980115 75.632198 
L 190.221298 75.80528 
L 190.404362 75.936784 
L 190.554304 76.044578 
L 190.724477 76.167007 
L 191.037505 76.392456 
L 191.138862 76.465523 
L 191.302185 76.583331 
L 191.59152 76.792239 
L 191.764385 76.917176 
L 191.826939 76.96241 
L 192.03185 77.110667 
L 192.282832 77.292431 
L 192.499319 77.449364 
L 192.621165 77.537751 
L 192.830249 77.689522 
L 193.098204 77.884211 
L 193.293503 78.026238 
L 193.448869 78.1393 
L 193.539388 78.205204 
L 193.81676 78.407286 
L 193.945507 78.501156 
L 194.244599 78.719396 
L 194.251477 78.724418 
L 194.542493 78.936995 
L 194.726145 79.071258 
L 194.969983 79.249652 
L 195.055059 79.311929 
L 195.228776 79.439148 
L 195.455518 79.605309 
L 195.569187 79.688655 
L 195.916448 79.943463 
L 196.070913 80.056894 
L 196.272675 80.205138 
L 196.320258 80.240113 
L 196.559108 80.415749 
L 196.856258 80.634429 
L 196.915616 80.678134 
L 197.235174 80.913552 
L 197.330672 80.983946 
L 197.594118 81.178234 
L 197.697391 81.254434 
L 197.991284 81.471395 
L 197.993908 81.473333 
L 198.327977 81.720155 
L 198.499603 81.847038 
L 198.66213 81.967243 
L 198.805825 82.073559 
L 199.022564 82.233986 
L 199.022564 181.683443 
z
" style="fill:#cde0eb;opacity:0.5;"/>
   </g>
   <g id="matplotlib.axis_1">
    <g id="xtick_1">
     <g id="line2d_1">
      <defs>
       <path d="M 0 0 
L 0 3.5 
" id="mad9481919e" style="stroke:#000000;stroke-width:0.8;"/>
      </defs>
      <g>
       <use style="stroke:#000000;stroke-width:0.8;" x="49.964513" xlink:href="#mad9481919e" y="181.683443"/>
      </g>
     </g>
     <g id="text_1">
      <!-- $a$ -->
      <defs>
       <path d="M 17.390625 -1.125 
Q 11.078125 -1.125 7.4375 3.640625 
Q 3.8125 8.40625 3.8125 14.890625 
Q 3.8125 21.296875 7.125 28.171875 
Q 10.453125 35.0625 16.09375 39.625 
Q 21.734375 44.1875 28.21875 44.1875 
Q 31.203125 44.1875 33.546875 42.578125 
Q 35.890625 40.96875 37.203125 38.1875 
Q 38.328125 42.1875 41.609375 42.1875 
Q 42.875 42.1875 43.71875 41.421875 
Q 44.578125 40.671875 44.578125 39.40625 
Q 44.578125 39.109375 44.546875 38.953125 
Q 44.53125 38.8125 44.484375 38.625 
L 37.5 10.6875 
Q 36.8125 7.71875 36.8125 5.8125 
Q 36.8125 1.515625 39.703125 1.515625 
Q 42.828125 1.515625 44.453125 5.484375 
Q 46.09375 9.46875 47.21875 14.703125 
Q 47.40625 15.28125 48 15.28125 
L 49.21875 15.28125 
Q 49.609375 15.28125 49.84375 14.9375 
Q 50.09375 14.59375 50.09375 14.3125 
Q 48.34375 7.328125 46.265625 3.09375 
Q 44.1875 -1.125 39.5 -1.125 
Q 36.140625 -1.125 33.546875 0.84375 
Q 30.953125 2.828125 30.328125 6.109375 
Q 23.875 -1.125 17.390625 -1.125 
z
M 17.484375 1.515625 
Q 21.09375 1.515625 24.484375 4.21875 
Q 27.875 6.9375 30.328125 10.59375 
Q 30.421875 10.6875 30.421875 10.890625 
L 35.796875 32.625 
L 35.890625 32.90625 
Q 35.296875 36.46875 33.3125 39.03125 
Q 31.34375 41.609375 27.984375 41.609375 
Q 24.609375 41.609375 21.703125 38.84375 
Q 18.796875 36.078125 16.796875 32.328125 
Q 14.84375 28.328125 13.0625 21.34375 
Q 11.28125 14.359375 11.28125 10.5 
Q 11.28125 7.03125 12.765625 4.265625 
Q 14.265625 1.515625 17.484375 1.515625 
z
" id="Cmmi10-97"/>
      </defs>
      <g transform="translate(46.254513 199.321256)scale(0.14 -0.14)">
       <use transform="translate(0 0.8125)" xlink:href="#Cmmi10-97"/>
      </g>
     </g>
    </g>
    <g id="xtick_2">
     <g id="line2d_2">
      <g>
       <use style="stroke:#000000;stroke-width:0.8;" x="161.758051" xlink:href="#mad9481919e" y="181.683443"/>
      </g>
     </g>
     <g id="text_2">
      <!-- $x$ -->
      <defs>
       <path d="M 7.8125 2.875 
Q 9.578125 1.515625 12.796875 1.515625 
Q 15.921875 1.515625 18.3125 4.515625 
Q 20.703125 7.515625 21.578125 11.078125 
L 26.125 28.8125 
Q 27.203125 33.640625 27.203125 35.40625 
Q 27.203125 37.890625 25.8125 39.75 
Q 24.421875 41.609375 21.921875 41.609375 
Q 18.75 41.609375 15.96875 39.625 
Q 13.1875 37.640625 11.28125 34.59375 
Q 9.375 31.546875 8.59375 28.421875 
Q 8.40625 27.78125 7.8125 27.78125 
L 6.59375 27.78125 
Q 5.8125 27.78125 5.8125 28.71875 
L 5.8125 29 
Q 6.78125 32.71875 9.125 36.25 
Q 11.46875 39.796875 14.859375 41.984375 
Q 18.265625 44.1875 22.125 44.1875 
Q 25.78125 44.1875 28.734375 42.234375 
Q 31.6875 40.28125 32.90625 36.921875 
Q 34.625 39.984375 37.28125 42.078125 
Q 39.9375 44.1875 43.109375 44.1875 
Q 45.265625 44.1875 47.5 43.421875 
Q 49.75 42.671875 51.171875 41.109375 
Q 52.59375 39.546875 52.59375 37.203125 
Q 52.59375 34.671875 50.953125 32.828125 
Q 49.3125 31 46.78125 31 
Q 45.171875 31 44.09375 32.03125 
Q 43.015625 33.0625 43.015625 34.625 
Q 43.015625 36.71875 44.453125 38.296875 
Q 45.90625 39.890625 47.90625 40.1875 
Q 46.09375 41.609375 42.921875 41.609375 
Q 39.703125 41.609375 37.328125 38.625 
Q 34.96875 35.640625 33.984375 31.984375 
L 29.59375 14.3125 
Q 28.515625 10.296875 28.515625 7.71875 
Q 28.515625 5.171875 29.953125 3.34375 
Q 31.390625 1.515625 33.796875 1.515625 
Q 38.484375 1.515625 42.15625 5.640625 
Q 45.84375 9.765625 47.015625 14.703125 
Q 47.21875 15.28125 47.796875 15.28125 
L 49.03125 15.28125 
Q 49.421875 15.28125 49.65625 15.015625 
Q 49.90625 14.75 49.90625 14.40625 
Q 49.90625 14.3125 49.8125 14.109375 
Q 48.390625 8.15625 43.84375 3.515625 
Q 39.3125 -1.125 33.59375 -1.125 
Q 29.9375 -1.125 26.984375 0.84375 
Q 24.03125 2.828125 22.796875 6.203125 
Q 21.234375 3.265625 18.46875 1.0625 
Q 15.71875 -1.125 12.59375 -1.125 
Q 10.453125 -1.125 8.171875 -0.359375 
Q 5.90625 0.390625 4.484375 1.953125 
Q 3.078125 3.515625 3.078125 5.90625 
Q 3.078125 8.25 4.703125 10.171875 
Q 6.34375 12.109375 8.796875 12.109375 
Q 10.453125 12.109375 11.578125 11.109375 
Q 12.703125 10.109375 12.703125 8.5 
Q 12.703125 6.390625 11.296875 4.828125 
Q 9.90625 3.265625 7.8125 2.875 
z
" id="Cmmi10-120"/>
      </defs>
      <g transform="translate(157.698051 199.321256)scale(0.14 -0.14)">
       <use transform="translate(0 0.8125)" xlink:href="#Cmmi10-120"/>
      </g>
     </g>
    </g>
    <g id="xtick_3">
     <g id="line2d_3">
      <g>
       <use style="stroke:#000000;stroke-width:0.8;" x="199.022564" xlink:href="#mad9481919e" y="181.683443"/>
      </g>
     </g>
     <g id="text_3">
      <!-- $x +\Delta x$ -->
      <defs>
       <path d="M 7.515625 23 
Q 6.6875 23 6.140625 23.625 
Q 5.609375 24.265625 5.609375 25 
Q 5.609375 25.734375 6.140625 26.359375 
Q 6.6875 27 7.515625 27 
L 36.921875 27 
L 36.921875 56.5 
Q 36.921875 57.28125 37.5 57.78125 
Q 38.09375 58.296875 38.921875 58.296875 
Q 39.65625 58.296875 40.28125 57.78125 
Q 40.921875 57.28125 40.921875 56.5 
L 40.921875 27 
L 70.3125 27 
Q 71.046875 27 71.578125 26.359375 
Q 72.125 25.734375 72.125 25 
Q 72.125 24.265625 71.578125 23.625 
Q 71.046875 23 70.3125 23 
L 40.921875 23 
L 40.921875 -6.5 
Q 40.921875 -7.28125 40.28125 -7.78125 
Q 39.65625 -8.296875 38.921875 -8.296875 
Q 38.09375 -8.296875 37.5 -7.78125 
Q 36.921875 -7.28125 36.921875 -6.5 
L 36.921875 23 
z
" id="Cmr10-43"/>
       <path d="M 5.421875 0 
Q 4.59375 0 4.59375 0.78125 
Q 4.640625 0.875 4.65625 0.921875 
Q 4.6875 0.984375 4.6875 1.125 
L 39.109375 70.515625 
Q 39.546875 71.578125 40.921875 71.578125 
L 42.28125 71.578125 
Q 43.65625 71.578125 44.09375 70.515625 
L 78.515625 1.125 
Q 78.5625 1.03125 78.578125 0.953125 
Q 78.609375 0.875 78.609375 0.78125 
Q 78.609375 0 77.78125 0 
z
M 12.015625 8.015625 
L 64.703125 8.015625 
L 38.375 61.078125 
z
" id="Cmr10-162"/>
      </defs>
      <g transform="translate(177.252564 199.321256)scale(0.14 -0.14)">
       <use transform="translate(0 0.421875)" xlink:href="#Cmmi10-120"/>
       <use transform="translate(74.638672 0.421875)" xlink:href="#Cmr10-43"/>
       <use transform="translate(169.882812 0.421875)" xlink:href="#Cmr10-162"/>
       <use transform="translate(253.183594 0.421875)" xlink:href="#Cmmi10-120"/>
      </g>
     </g>
    </g>
    <g id="text_4">
     <!-- $x$ -->
     <g transform="translate(259.522636 181.683443)scale(0.22 -0.22)">
      <use transform="translate(0 0.8125)" xlink:href="#Cmmi10-120"/>
     </g>
    </g>
   </g>
   <g id="matplotlib.axis_2">
    <g id="text_5">
     <!-- $y$ -->
     <defs>
      <path d="M 8.40625 -14.3125 
Q 10.5 -17.921875 15.71875 -17.921875 
Q 20.453125 -17.921875 23.921875 -14.59375 
Q 27.390625 -11.28125 29.515625 -6.5625 
Q 31.640625 -1.859375 32.8125 3.078125 
Q 28.375 -1.125 23.1875 -1.125 
Q 19.234375 -1.125 16.453125 0.234375 
Q 13.671875 1.609375 12.125 4.3125 
Q 10.59375 7.03125 10.59375 10.890625 
Q 10.59375 14.15625 11.46875 17.59375 
Q 12.359375 21.046875 13.9375 25.265625 
Q 15.53125 29.5 16.703125 32.625 
Q 18.015625 36.28125 18.015625 38.625 
Q 18.015625 41.609375 15.828125 41.609375 
Q 11.859375 41.609375 9.296875 37.53125 
Q 6.734375 33.453125 5.515625 28.421875 
Q 5.328125 27.78125 4.6875 27.78125 
L 3.515625 27.78125 
Q 2.6875 27.78125 2.6875 28.71875 
L 2.6875 29 
Q 4.296875 34.96875 7.609375 39.578125 
Q 10.9375 44.1875 16.015625 44.1875 
Q 19.578125 44.1875 22.046875 41.84375 
Q 24.515625 39.5 24.515625 35.890625 
Q 24.515625 34.03125 23.6875 31.984375 
Q 23.25 30.765625 21.6875 26.65625 
Q 20.125 22.5625 19.28125 19.875 
Q 18.453125 17.1875 17.921875 14.59375 
Q 17.390625 12.015625 17.390625 9.421875 
Q 17.390625 6.109375 18.796875 3.8125 
Q 20.21875 1.515625 23.296875 1.515625 
Q 29.5 1.515625 34.421875 9.078125 
L 42 39.890625 
Q 42.328125 41.21875 43.546875 42.15625 
Q 44.78125 43.109375 46.1875 43.109375 
Q 47.40625 43.109375 48.3125 42.328125 
Q 49.21875 41.546875 49.21875 40.28125 
Q 49.21875 39.703125 49.125 39.5 
L 39.203125 -0.296875 
Q 37.890625 -5.421875 34.375 -10.109375 
Q 30.859375 -14.796875 25.90625 -17.65625 
Q 20.953125 -20.515625 15.578125 -20.515625 
Q 12.984375 -20.515625 10.4375 -19.5 
Q 7.90625 -18.5 6.34375 -16.5 
Q 4.78125 -14.5 4.78125 -11.8125 
Q 4.78125 -9.078125 6.390625 -7.078125 
Q 8.015625 -5.078125 10.6875 -5.078125 
Q 12.3125 -5.078125 13.40625 -6.078125 
Q 14.5 -7.078125 14.5 -8.6875 
Q 14.5 -10.984375 12.78125 -12.6875 
Q 11.078125 -14.40625 8.796875 -14.40625 
Q 8.6875 -14.359375 8.59375 -14.328125 
Q 8.5 -14.3125 8.40625 -14.3125 
z
" id="Cmmi10-121"/>
     </defs>
     <g transform="translate(7.2 23.871875)scale(0.22 -0.22)">
      <use transform="translate(0 0.8125)" xlink:href="#Cmmi10-121"/>
     </g>
    </g>
   </g>
   <g id="line2d_4">
    <path clip-path="url(#pd0d312c25d)" d="M 12.7 88.788643 
L 28.831012 76.860166 
L 37.2766 70.884847 
L 44.629208 65.948245 
L 51.319825 61.732238 
L 57.222302 58.271791 
L 62.817917 55.24509 
L 68.072479 52.650167 
L 73.247129 50.347276 
L 78.04632 48.449535 
L 83.120561 46.70508 
L 87.443867 45.43989 
L 91.847255 44.367132 
L 96.491425 43.477647 
L 100.290368 42.938166 
L 105.047153 42.504642 
L 109.309371 42.346664 
L 113.771459 42.415533 
L 118.001475 42.701757 
L 121.700515 43.12727 
L 126.349734 43.8915 
L 131.097792 44.931484 
L 135.689499 46.180979 
L 140.412975 47.70915 
L 144.842442 49.358167 
L 150.002617 51.531388 
L 155.161984 53.961249 
L 160.688319 56.8299 
L 165.455114 59.508294 
L 171.762993 63.314856 
L 178.889165 67.928912 
L 186.643656 73.259334 
L 195.823368 79.875137 
L 212.270699 92.116858 
L 225.363892 101.737626 
L 234.467461 108.113605 
L 241.58133 112.814201 
L 246.839839 116.08974 
L 246.839839 116.08974 
" style="fill:none;stroke:#0000ff;stroke-linecap:square;"/>
   </g>
   <g id="line2d_5">
    <path clip-path="url(#pd0d312c25d)" d="M 161.758051 57.415135 
L 167.292623 60.587698 
L 173.481868 64.399367 
L 180.170865 68.789715 
L 187.628538 73.955418 
L 196.856258 80.634429 
L 199.022564 82.233986 
L 199.022564 82.233986 
" style="fill:none;stroke:#0000ff;stroke-linecap:square;"/>
   </g>
   <g id="line2d_6">
    <path clip-path="url(#pd0d312c25d)" d="M 161.758051 181.683443 
L 161.758051 57.415135 
" style="fill:none;stroke:#000000;stroke-linecap:square;"/>
   </g>
   <g id="line2d_7">
    <path clip-path="url(#pd0d312c25d)" d="M 199.022564 181.683443 
L 199.022564 82.233986 
" style="fill:none;stroke:#000000;stroke-linecap:square;"/>
   </g>
   <g id="line2d_8"/>
   <g id="patch_4">
    <path d="M 12.7 184.530337 
L 12.7 36.491875 
" style="fill:none;stroke:#000000;stroke-linecap:square;stroke-linejoin:miter;stroke-width:0.8;"/>
   </g>
   <g id="patch_5">
    <path d="M 8.017203 181.683443 
L 251.522636 181.683443 
" style="fill:none;stroke:#000000;stroke-linecap:square;stroke-linejoin:miter;stroke-width:0.8;"/>
   </g>
   <g id="text_6">
    <!-- $y=f(t)$ -->
    <defs>
     <path d="M 7.515625 13.28125 
Q 6.6875 13.28125 6.140625 13.90625 
Q 5.609375 14.546875 5.609375 15.28125 
Q 5.609375 16.109375 6.140625 16.6875 
Q 6.6875 17.28125 7.515625 17.28125 
L 70.3125 17.28125 
Q 71.046875 17.28125 71.578125 16.6875 
Q 72.125 16.109375 72.125 15.28125 
Q 72.125 14.546875 71.578125 13.90625 
Q 71.046875 13.28125 70.3125 13.28125 
z
M 7.515625 32.71875 
Q 6.6875 32.71875 6.140625 33.296875 
Q 5.609375 33.890625 5.609375 34.71875 
Q 5.609375 35.453125 6.140625 36.078125 
Q 6.6875 36.71875 7.515625 36.71875 
L 70.3125 36.71875 
Q 71.046875 36.71875 71.578125 36.078125 
Q 72.125 35.453125 72.125 34.71875 
Q 72.125 33.890625 71.578125 33.296875 
Q 71.046875 32.71875 70.3125 32.71875 
z
" id="Cmr10-61"/>
     <path d="M 9.71875 -16.5 
Q 11.578125 -17.921875 14.203125 -17.921875 
Q 17.78125 -17.921875 20.015625 -10.015625 
Q 20.953125 -6.203125 25.09375 15.09375 
L 29.6875 39.59375 
L 21.09375 39.59375 
Q 20.125 39.59375 20.125 40.921875 
Q 20.515625 43.109375 21.390625 43.109375 
L 30.328125 43.109375 
L 31.5 49.609375 
Q 32.078125 52.640625 32.5625 54.8125 
Q 33.0625 56.984375 33.625 58.828125 
Q 34.1875 60.6875 35.296875 62.984375 
Q 37.015625 66.265625 39.921875 68.390625 
Q 42.828125 70.515625 46.1875 70.515625 
Q 48.390625 70.515625 50.46875 69.703125 
Q 52.546875 68.890625 53.859375 67.28125 
Q 55.171875 65.671875 55.171875 63.484375 
Q 55.171875 60.9375 53.484375 59.046875 
Q 51.8125 57.171875 49.421875 57.171875 
Q 47.796875 57.171875 46.65625 58.171875 
Q 45.515625 59.1875 45.515625 60.796875 
Q 45.515625 62.984375 47 64.625 
Q 48.484375 66.265625 50.6875 66.5 
Q 48.828125 67.921875 46.09375 67.921875 
Q 44.578125 67.921875 43.234375 66.5 
Q 41.890625 65.09375 41.5 63.484375 
Q 40.875 60.9375 38.71875 49.703125 
L 37.5 43.109375 
L 47.796875 43.109375 
Q 48.78125 43.109375 48.78125 41.796875 
Q 48.734375 41.546875 48.578125 40.9375 
Q 48.4375 40.328125 48.171875 39.953125 
Q 47.90625 39.59375 47.515625 39.59375 
L 36.8125 39.59375 
L 32.171875 15.1875 
Q 31.296875 9.859375 30.140625 4.359375 
Q 29 -1.125 26.921875 -6.90625 
Q 24.859375 -12.703125 21.625 -16.609375 
Q 18.40625 -20.515625 14.015625 -20.515625 
Q 10.640625 -20.515625 7.984375 -18.578125 
Q 5.328125 -16.65625 5.328125 -13.484375 
Q 5.328125 -10.9375 6.953125 -9.046875 
Q 8.59375 -7.171875 11.078125 -7.171875 
Q 12.75 -7.171875 13.859375 -8.171875 
Q 14.984375 -9.1875 14.984375 -10.796875 
Q 14.984375 -12.9375 13.390625 -14.71875 
Q 11.8125 -16.5 9.71875 -16.5 
z
" id="Cmmi10-102"/>
     <path d="M 31 -24.8125 
Q 25.4375 -20.40625 21.40625 -14.71875 
Q 17.390625 -9.03125 14.8125 -2.578125 
Q 12.25 3.859375 10.984375 10.890625 
Q 9.71875 17.921875 9.71875 25 
Q 9.71875 32.171875 10.984375 39.203125 
Q 12.25 46.234375 14.859375 52.734375 
Q 17.484375 59.234375 21.53125 64.890625 
Q 25.59375 70.5625 31 74.8125 
Q 31 75 31.5 75 
L 32.421875 75 
Q 32.71875 75 32.953125 74.734375 
Q 33.203125 74.46875 33.203125 74.125 
Q 33.203125 73.6875 33.015625 73.484375 
Q 28.125 68.703125 24.875 63.234375 
Q 21.625 57.765625 19.640625 51.578125 
Q 17.671875 45.40625 16.796875 38.78125 
Q 15.921875 32.171875 15.921875 25 
Q 15.921875 -6.78125 32.90625 -23.296875 
Q 33.203125 -23.578125 33.203125 -24.125 
Q 33.203125 -24.359375 32.9375 -24.671875 
Q 32.671875 -25 32.421875 -25 
L 31.5 -25 
Q 31 -25 31 -24.8125 
z
" id="Cmr10-40"/>
     <path d="M 6.203125 8.109375 
Q 6.203125 9.578125 6.5 10.890625 
L 13.71875 39.59375 
L 3.21875 39.59375 
Q 2.203125 39.59375 2.203125 40.921875 
Q 2.59375 43.109375 3.515625 43.109375 
L 14.59375 43.109375 
L 18.609375 59.421875 
Q 19 60.75 20.171875 61.671875 
Q 21.34375 62.59375 22.796875 62.59375 
Q 24.078125 62.59375 24.921875 61.828125 
Q 25.78125 61.078125 25.78125 59.8125 
Q 25.78125 59.515625 25.75 59.34375 
Q 25.734375 59.1875 25.6875 58.984375 
L 21.6875 43.109375 
L 31.984375 43.109375 
Q 33.015625 43.109375 33.015625 41.796875 
Q 32.953125 41.546875 32.8125 40.953125 
Q 32.671875 40.375 32.421875 39.984375 
Q 32.171875 39.59375 31.6875 39.59375 
L 20.796875 39.59375 
L 13.625 10.6875 
Q 12.890625 7.859375 12.890625 5.8125 
Q 12.890625 1.515625 15.828125 1.515625 
Q 20.21875 1.515625 23.609375 5.640625 
Q 27 9.765625 28.8125 14.703125 
Q 29.203125 15.28125 29.59375 15.28125 
L 30.8125 15.28125 
Q 31.203125 15.28125 31.4375 15.015625 
Q 31.6875 14.75 31.6875 14.40625 
Q 31.6875 14.203125 31.59375 14.109375 
Q 29.390625 8.0625 25.1875 3.46875 
Q 21 -1.125 15.578125 -1.125 
Q 11.625 -1.125 8.90625 1.453125 
Q 6.203125 4.046875 6.203125 8.109375 
z
" id="Cmmi10-116"/>
     <path d="M 6.5 -25 
Q 5.609375 -25 5.609375 -24.125 
Q 5.609375 -23.6875 5.8125 -23.484375 
Q 22.90625 -6.78125 22.90625 25 
Q 22.90625 56.78125 6 73.296875 
Q 5.609375 73.53125 5.609375 74.125 
Q 5.609375 74.46875 5.875 74.734375 
Q 6.15625 75 6.5 75 
L 7.421875 75 
Q 7.71875 75 7.90625 74.8125 
Q 15.09375 69.140625 19.875 61.03125 
Q 24.65625 52.9375 26.875 43.75 
Q 29.109375 34.578125 29.109375 25 
Q 29.109375 17.921875 27.90625 11.0625 
Q 26.703125 4.203125 24.09375 -2.453125 
Q 21.484375 -9.125 17.484375 -14.765625 
Q 13.484375 -20.40625 7.90625 -24.8125 
Q 7.71875 -25 7.421875 -25 
z
" id="Cmr10-41"/>
    </defs>
    <g style="fill:#0000ff;" transform="translate(27.214513 42.838768)scale(0.14 -0.14)">
     <use xlink:href="#Cmmi10-121"/>
     <use transform="translate(66.582031 0)" xlink:href="#Cmr10-61"/>
     <use transform="translate(161.826172 0)" xlink:href="#Cmmi10-102"/>
     <use transform="translate(210.703125 0)" xlink:href="#Cmr10-40"/>
     <use transform="translate(249.521484 0)" xlink:href="#Cmmi10-116"/>
     <use transform="translate(285.605469 0)" xlink:href="#Cmr10-41"/>
    </g>
   </g>
  </g>
 </g>
 <defs>
  <clipPath id="pd0d312c25d">
   <rect height="148.038462" width="243.505433" x="8.017203" y="36.491875"/>
  </clipPath>
 </defs>
</svg>
