<?xml version="1.0" encoding="utf-8" standalone="no"?>
<!DOCTYPE svg PUBLIC "-//W3C//DTD SVG 1.1//EN"
  "http://www.w3.org/Graphics/SVG/1.1/DTD/svg11.dtd">
<!-- Created with matplotlib (https://matplotlib.org/) -->
<svg height="209.432818pt" version="1.1" viewBox="0 0 279.482636 209.432818" width="279.482636pt" xmlns="http://www.w3.org/2000/svg" xmlns:xlink="http://www.w3.org/1999/xlink">
 <defs>
  <style type="text/css">
*{stroke-linecap:butt;stroke-linejoin:round;}
  </style>
 </defs>
 <g id="figure_1">
  <g id="patch_1">
   <path d="M 0 209.432818 
L 279.482636 209.432818 
L 279.482636 0 
L 0 0 
z
" style="fill:#ffffff;"/>
  </g>
  <g id="axes_1">
   <g id="patch_2">
    <path d="M 8.017203 184.530337 
L 251.522636 184.530337 
L 251.522636 36.491875 
L 8.017203 36.491875 
z
" style="fill:#ffffff;"/>
   </g>
   <g id="patch_3">
    <path clip-path="url(#pab213cac25)" d="M 49.964513 181.683443 
L 49.964513 62.562468 
L 50.560896 62.195577 
L 50.874103 62.003873 
L 51.4071 61.679213 
L 52.374984 61.094774 
L 52.932596 60.761115 
L 53.367878 60.502223 
L 53.8501 60.217036 
L 54.705507 59.715394 
L 55.126184 59.470711 
L 55.55435 59.223054 
L 56.411104 58.731725 
L 56.435735 58.717684 
L 57.072946 58.356085 
L 57.984442 57.844414 
L 58.539992 57.535817 
L 59.153356 57.198012 
L 59.450914 57.035241 
L 59.964868 56.755817 
L 60.66243 56.380082 
L 61.010097 56.194338 
L 61.918863 55.713662 
L 62.270849 55.529382 
L 62.855987 55.225404 
L 63.606245 54.840007 
L 64.107216 54.585421 
L 64.576815 54.348799 
L 65.037765 54.118448 
L 65.954762 53.66589 
L 66.277795 53.508284 
L 67.012925 53.153183 
L 67.405088 52.96579 
L 68.067081 52.652703 
L 68.762591 52.328189 
L 69.304907 52.078322 
L 69.447849 52.012929 
L 69.926873 51.795205 
L 70.814377 51.397646 
L 71.079708 51.28027 
L 71.815813 50.958224 
L 72.543629 50.645029 
L 73.021519 50.442229 
L 73.560241 50.216337 
L 74.342889 49.893339 
L 74.735156 49.733771 
L 75.062641 49.601748 
L 75.637095 49.372796 
L 76.151628 49.170589 
L 76.671225 48.96915 
L 77.670089 48.589749 
L 78.328293 48.345419 
L 78.877106 48.145167 
L 79.204978 48.027046 
L 79.604803 47.88454 
L 80.202535 47.674659 
L 80.586202 47.541948 
L 81.255288 47.314279 
L 81.962958 47.07872 
L 82.817396 46.801525 
L 83.228091 46.671113 
L 83.866123 46.472167 
L 84.073865 46.408354 
L 84.939735 46.147493 
L 85.293172 46.043392 
L 85.800242 45.896459 
L 86.352163 45.739779 
L 86.779345 45.620844 
L 87.493973 45.426447 
L 88.179799 45.245283 
L 88.52051 45.157255 
L 89.472559 44.918248 
L 89.997391 44.790896 
L 90.304349 44.717867 
L 90.920894 44.574439 
L 91.779837 44.381887 
L 92.091756 44.314063 
L 92.55651 44.215089 
L 93.299933 44.06196 
L 93.630136 43.996 
L 94.487495 43.830653 
L 94.80768 43.771098 
L 95.649869 43.620168 
L 96.119152 43.539669 
L 96.431143 43.48758 
L 97.250118 43.35629 
L 97.545575 43.310862 
L 98.429041 43.181172 
L 98.984412 43.104367 
L 99.184509 43.07759 
L 100.005464 42.972697 
L 100.442884 42.920076 
L 100.95842 42.860979 
L 101.812912 42.769999 
L 102.405233 42.712043 
L 102.507536 42.702457 
L 103.44348 42.62057 
L 103.758925 42.595332 
L 104.505021 42.540383 
L 104.984177 42.508613 
L 105.344229 42.486553 
L 105.968383 42.451998 
L 106.75851 42.414966 
L 107.197245 42.397644 
L 107.709105 42.380361 
L 108.489711 42.360073 
L 108.772999 42.354524 
L 109.307932 42.346681 
L 110.035976 42.341541 
L 110.711059 42.342478 
L 111.104675 42.345556 
L 111.852374 42.356542 
L 112.381016 42.36837 
L 112.830192 42.381063 
L 113.4693 42.403307 
L 113.810629 42.417199 
L 114.564045 42.45282 
L 115.067233 42.480408 
L 115.825846 42.527746 
L 116.185087 42.552571 
L 116.623882 42.584993 
L 117.133656 42.625555 
L 117.64343 42.669226 
L 117.697579 42.674048 
L 118.19664 42.720135 
L 118.6957 42.769196 
L 118.817452 42.781616 
L 119.726019 42.87988 
L 120.356906 42.953892 
L 120.472215 42.967931 
L 120.969563 43.030293 
L 121.466912 43.095589 
L 121.833418 43.145582 
L 122.16001 43.19147 
L 122.668259 43.265389 
L 123.176507 43.342357 
L 123.613067 43.410899 
L 123.879232 43.453788 
L 124.584839 43.571515 
L 125.497931 43.732521 
L 125.728147 43.774653 
L 126.454717 43.911679 
L 127.175716 44.053725 
L 127.64079 44.14855 
L 128.3244 44.292476 
L 128.470382 44.32391 
L 129.242639 44.49428 
L 130.006581 44.669554 
L 130.519297 44.790933 
L 130.994756 44.906172 
L 131.504901 45.032678 
L 131.732244 45.090005 
L 132.501872 45.28842 
L 133.333069 45.51021 
L 133.943145 45.677932 
L 134.241638 45.76151 
L 134.614603 45.867337 
L 135.11214 46.01092 
L 135.966826 46.263974 
L 136.436764 46.406547 
L 136.906122 46.551366 
L 137.673594 46.793361 
L 138.400424 47.028453 
L 138.492253 47.058562 
L 139.28111 47.32097 
L 139.867966 47.520525 
L 140.402977 47.705662 
L 140.974296 47.906728 
L 141.592121 48.128054 
L 142.241983 48.365199 
L 142.617871 48.504388 
L 143.140888 48.700512 
L 143.912384 48.994998 
L 144.1725 49.095673 
L 144.758172 49.324896 
L 145.394103 49.577763 
L 145.941121 49.798565 
L 146.359355 49.969425 
L 146.981539 50.226859 
L 147.503793 50.445934 
L 148.38509 50.821761 
L 149.051816 51.111168 
L 149.308172 51.223603 
L 149.841115 51.459391 
L 150.272678 51.652341 
L 151.268876 52.104568 
L 151.613594 52.263257 
L 152.421677 52.639657 
L 152.587537 52.717673 
L 153.301956 53.056647 
L 154.123066 53.45208 
L 154.221857 53.500074 
L 155.250768 54.005215 
L 155.839118 54.298364 
L 156.37201 54.566552 
L 156.61133 54.687815 
L 157.267017 55.022639 
L 158.096293 55.451492 
L 158.606773 55.718442 
L 158.675216 55.754404 
L 159.343821 56.107811 
L 159.969003 56.441692 
L 160.705866 56.839423 
L 161.143355 57.077695 
L 161.758051 57.415135 
L 161.758051 181.683443 
z
" style="fill:#cde0eb;opacity:0.5;"/>
   </g>
   <g id="matplotlib.axis_1">
    <g id="xtick_1">
     <g id="line2d_1">
      <defs>
       <path d="M 0 0 
L 0 3.5 
" id="m6523e971f5" style="stroke:#000000;stroke-width:0.8;"/>
      </defs>
      <g>
       <use style="stroke:#000000;stroke-width:0.8;" x="49.964513" xlink:href="#m6523e971f5" y="181.683443"/>
      </g>
     </g>
     <g id="text_1">
      <!-- $a$ -->
      <defs>
       <path d="M 17.390625 -1.125 
Q 11.078125 -1.125 7.4375 3.640625 
Q 3.8125 8.40625 3.8125 14.890625 
Q 3.8125 21.296875 7.125 28.171875 
Q 10.453125 35.0625 16.09375 39.625 
Q 21.734375 44.1875 28.21875 44.1875 
Q 31.203125 44.1875 33.546875 42.578125 
Q 35.890625 40.96875 37.203125 38.1875 
Q 38.328125 42.1875 41.609375 42.1875 
Q 42.875 42.1875 43.71875 41.421875 
Q 44.578125 40.671875 44.578125 39.40625 
Q 44.578125 39.109375 44.546875 38.953125 
Q 44.53125 38.8125 44.484375 38.625 
L 37.5 10.6875 
Q 36.8125 7.71875 36.8125 5.8125 
Q 36.8125 1.515625 39.703125 1.515625 
Q 42.828125 1.515625 44.453125 5.484375 
Q 46.09375 9.46875 47.21875 14.703125 
Q 47.40625 15.28125 48 15.28125 
L 49.21875 15.28125 
Q 49.609375 15.28125 49.84375 14.9375 
Q 50.09375 14.59375 50.09375 14.3125 
Q 48.34375 7.328125 46.265625 3.09375 
Q 44.1875 -1.125 39.5 -1.125 
Q 36.140625 -1.125 33.546875 0.84375 
Q 30.953125 2.828125 30.328125 6.109375 
Q 23.875 -1.125 17.390625 -1.125 
z
M 17.484375 1.515625 
Q 21.09375 1.515625 24.484375 4.21875 
Q 27.875 6.9375 30.328125 10.59375 
Q 30.421875 10.6875 30.421875 10.890625 
L 35.796875 32.625 
L 35.890625 32.90625 
Q 35.296875 36.46875 33.3125 39.03125 
Q 31.34375 41.609375 27.984375 41.609375 
Q 24.609375 41.609375 21.703125 38.84375 
Q 18.796875 36.078125 16.796875 32.328125 
Q 14.84375 28.328125 13.0625 21.34375 
Q 11.28125 14.359375 11.28125 10.5 
Q 11.28125 7.03125 12.765625 4.265625 
Q 14.265625 1.515625 17.484375 1.515625 
z
" id="Cmmi10-97"/>
      </defs>
      <g transform="translate(46.254513 199.321256)scale(0.14 -0.14)">
       <use transform="translate(0 0.8125)" xlink:href="#Cmmi10-97"/>
      </g>
     </g>
    </g>
    <g id="xtick_2">
     <g id="line2d_2">
      <g>
       <use style="stroke:#000000;stroke-width:0.8;" x="161.758051" xlink:href="#m6523e971f5" y="181.683443"/>
      </g>
     </g>
     <g id="text_2">
      <!-- $x$ -->
      <defs>
       <path d="M 7.8125 2.875 
Q 9.578125 1.515625 12.796875 1.515625 
Q 15.921875 1.515625 18.3125 4.515625 
Q 20.703125 7.515625 21.578125 11.078125 
L 26.125 28.8125 
Q 27.203125 33.640625 27.203125 35.40625 
Q 27.203125 37.890625 25.8125 39.75 
Q 24.421875 41.609375 21.921875 41.609375 
Q 18.75 41.609375 15.96875 39.625 
Q 13.1875 37.640625 11.28125 34.59375 
Q 9.375 31.546875 8.59375 28.421875 
Q 8.40625 27.78125 7.8125 27.78125 
L 6.59375 27.78125 
Q 5.8125 27.78125 5.8125 28.71875 
L 5.8125 29 
Q 6.78125 32.71875 9.125 36.25 
Q 11.46875 39.796875 14.859375 41.984375 
Q 18.265625 44.1875 22.125 44.1875 
Q 25.78125 44.1875 28.734375 42.234375 
Q 31.6875 40.28125 32.90625 36.921875 
Q 34.625 39.984375 37.28125 42.078125 
Q 39.9375 44.1875 43.109375 44.1875 
Q 45.265625 44.1875 47.5 43.421875 
Q 49.75 42.671875 51.171875 41.109375 
Q 52.59375 39.546875 52.59375 37.203125 
Q 52.59375 34.671875 50.953125 32.828125 
Q 49.3125 31 46.78125 31 
Q 45.171875 31 44.09375 32.03125 
Q 43.015625 33.0625 43.015625 34.625 
Q 43.015625 36.71875 44.453125 38.296875 
Q 45.90625 39.890625 47.90625 40.1875 
Q 46.09375 41.609375 42.921875 41.609375 
Q 39.703125 41.609375 37.328125 38.625 
Q 34.96875 35.640625 33.984375 31.984375 
L 29.59375 14.3125 
Q 28.515625 10.296875 28.515625 7.71875 
Q 28.515625 5.171875 29.953125 3.34375 
Q 31.390625 1.515625 33.796875 1.515625 
Q 38.484375 1.515625 42.15625 5.640625 
Q 45.84375 9.765625 47.015625 14.703125 
Q 47.21875 15.28125 47.796875 15.28125 
L 49.03125 15.28125 
Q 49.421875 15.28125 49.65625 15.015625 
Q 49.90625 14.75 49.90625 14.40625 
Q 49.90625 14.3125 49.8125 14.109375 
Q 48.390625 8.15625 43.84375 3.515625 
Q 39.3125 -1.125 33.59375 -1.125 
Q 29.9375 -1.125 26.984375 0.84375 
Q 24.03125 2.828125 22.796875 6.203125 
Q 21.234375 3.265625 18.46875 1.0625 
Q 15.71875 -1.125 12.59375 -1.125 
Q 10.453125 -1.125 8.171875 -0.359375 
Q 5.90625 0.390625 4.484375 1.953125 
Q 3.078125 3.515625 3.078125 5.90625 
Q 3.078125 8.25 4.703125 10.171875 
Q 6.34375 12.109375 8.796875 12.109375 
Q 10.453125 12.109375 11.578125 11.109375 
Q 12.703125 10.109375 12.703125 8.5 
Q 12.703125 6.390625 11.296875 4.828125 
Q 9.90625 3.265625 7.8125 2.875 
z
" id="Cmmi10-120"/>
      </defs>
      <g transform="translate(157.698051 199.321256)scale(0.14 -0.14)">
       <use transform="translate(0 0.8125)" xlink:href="#Cmmi10-120"/>
      </g>
     </g>
    </g>
    <g id="text_3">
     <!-- $x$ -->
     <g transform="translate(259.522636 181.683443)scale(0.22 -0.22)">
      <use transform="translate(0 0.8125)" xlink:href="#Cmmi10-120"/>
     </g>
    </g>
   </g>
   <g id="matplotlib.axis_2">
    <g id="text_4">
     <!-- $y$ -->
     <defs>
      <path d="M 8.40625 -14.3125 
Q 10.5 -17.921875 15.71875 -17.921875 
Q 20.453125 -17.921875 23.921875 -14.59375 
Q 27.390625 -11.28125 29.515625 -6.5625 
Q 31.640625 -1.859375 32.8125 3.078125 
Q 28.375 -1.125 23.1875 -1.125 
Q 19.234375 -1.125 16.453125 0.234375 
Q 13.671875 1.609375 12.125 4.3125 
Q 10.59375 7.03125 10.59375 10.890625 
Q 10.59375 14.15625 11.46875 17.59375 
Q 12.359375 21.046875 13.9375 25.265625 
Q 15.53125 29.5 16.703125 32.625 
Q 18.015625 36.28125 18.015625 38.625 
Q 18.015625 41.609375 15.828125 41.609375 
Q 11.859375 41.609375 9.296875 37.53125 
Q 6.734375 33.453125 5.515625 28.421875 
Q 5.328125 27.78125 4.6875 27.78125 
L 3.515625 27.78125 
Q 2.6875 27.78125 2.6875 28.71875 
L 2.6875 29 
Q 4.296875 34.96875 7.609375 39.578125 
Q 10.9375 44.1875 16.015625 44.1875 
Q 19.578125 44.1875 22.046875 41.84375 
Q 24.515625 39.5 24.515625 35.890625 
Q 24.515625 34.03125 23.6875 31.984375 
Q 23.25 30.765625 21.6875 26.65625 
Q 20.125 22.5625 19.28125 19.875 
Q 18.453125 17.1875 17.921875 14.59375 
Q 17.390625 12.015625 17.390625 9.421875 
Q 17.390625 6.109375 18.796875 3.8125 
Q 20.21875 1.515625 23.296875 1.515625 
Q 29.5 1.515625 34.421875 9.078125 
L 42 39.890625 
Q 42.328125 41.21875 43.546875 42.15625 
Q 44.78125 43.109375 46.1875 43.109375 
Q 47.40625 43.109375 48.3125 42.328125 
Q 49.21875 41.546875 49.21875 40.28125 
Q 49.21875 39.703125 49.125 39.5 
L 39.203125 -0.296875 
Q 37.890625 -5.421875 34.375 -10.109375 
Q 30.859375 -14.796875 25.90625 -17.65625 
Q 20.953125 -20.515625 15.578125 -20.515625 
Q 12.984375 -20.515625 10.4375 -19.5 
Q 7.90625 -18.5 6.34375 -16.5 
Q 4.78125 -14.5 4.78125 -11.8125 
Q 4.78125 -9.078125 6.390625 -7.078125 
Q 8.015625 -5.078125 10.6875 -5.078125 
Q 12.3125 -5.078125 13.40625 -6.078125 
Q 14.5 -7.078125 14.5 -8.6875 
Q 14.5 -10.984375 12.78125 -12.6875 
Q 11.078125 -14.40625 8.796875 -14.40625 
Q 8.6875 -14.359375 8.59375 -14.328125 
Q 8.5 -14.3125 8.40625 -14.3125 
z
" id="Cmmi10-121"/>
     </defs>
     <g transform="translate(7.2 23.871875)scale(0.22 -0.22)">
      <use transform="translate(0 0.8125)" xlink:href="#Cmmi10-121"/>
     </g>
    </g>
   </g>
   <g id="line2d_3">
    <path clip-path="url(#pab213cac25)" d="M 12.7 88.788643 
L 27.900714 77.533872 
L 36.434649 71.467473 
L 44.011924 66.351333 
L 50.824119 62.034422 
L 57.016233 58.388138 
L 62.482844 55.418908 
L 67.990773 52.688584 
L 73.147471 50.389157 
L 78.259598 48.370707 
L 82.696437 46.840285 
L 87.565225 45.407379 
L 92.167223 44.297822 
L 96.880907 43.414501 
L 101.515685 42.800658 
L 106.272826 42.436841 
L 110.336258 42.34128 
L 114.800018 42.465379 
L 119.250543 42.827229 
L 124.030793 43.478582 
L 128.193689 44.264539 
L 133.242102 45.485558 
L 138.304296 46.997031 
L 142.620553 48.505386 
L 147.657916 50.511105 
L 152.429528 52.643344 
L 157.018905 54.895497 
L 162.708677 57.943025 
L 168.249878 61.159855 
L 174.801674 65.24481 
L 182.176253 70.153503 
L 188.705097 74.720559 
L 199.028012 82.23802 
L 228.582831 104.031059 
L 235.77021 108.995226 
L 242.655308 113.497957 
L 246.839839 116.08974 
L 246.839839 116.08974 
" style="fill:none;stroke:#0000ff;stroke-linecap:square;"/>
   </g>
   <g id="line2d_4">
    <path clip-path="url(#pab213cac25)" d="M 49.964513 62.562468 
L 55.55435 59.223054 
L 61.010097 56.194338 
L 66.277795 53.508284 
L 71.079708 51.28027 
L 76.151628 49.170589 
L 80.586202 47.541948 
L 85.293172 46.043392 
L 89.997391 44.790896 
L 94.487495 43.830653 
L 98.984412 43.104367 
L 102.507536 42.702457 
L 107.197245 42.397644 
L 111.104675 42.345556 
L 115.067233 42.480408 
L 119.726019 42.87988 
L 123.879232 43.453788 
L 128.470382 44.32391 
L 133.333069 45.51021 
L 137.673594 46.793361 
L 142.617871 48.504388 
L 147.503793 50.445934 
L 152.587537 52.717673 
L 158.096293 55.451492 
L 161.758051 57.415135 
L 161.758051 57.415135 
" style="fill:none;stroke:#0000ff;stroke-linecap:square;"/>
   </g>
   <g id="line2d_5">
    <path clip-path="url(#pab213cac25)" d="M 49.964513 181.683443 
L 49.964513 62.562468 
" style="fill:none;stroke:#000000;stroke-linecap:square;"/>
   </g>
   <g id="line2d_6">
    <path clip-path="url(#pab213cac25)" d="M 161.758051 181.683443 
L 161.758051 57.415135 
" style="fill:none;stroke:#000000;stroke-linecap:square;"/>
   </g>
   <g id="line2d_7"/>
   <g id="line2d_8"/>
   <g id="patch_4">
    <path d="M 12.7 184.530337 
L 12.7 36.491875 
" style="fill:none;stroke:#000000;stroke-linecap:square;stroke-linejoin:miter;stroke-width:0.8;"/>
   </g>
   <g id="patch_5">
    <path d="M 8.017203 181.683443 
L 251.522636 181.683443 
" style="fill:none;stroke:#000000;stroke-linecap:square;stroke-linejoin:miter;stroke-width:0.8;"/>
   </g>
   <g id="text_5">
    <!-- $y=f(t)$ -->
    <defs>
     <path d="M 7.515625 13.28125 
Q 6.6875 13.28125 6.140625 13.90625 
Q 5.609375 14.546875 5.609375 15.28125 
Q 5.609375 16.109375 6.140625 16.6875 
Q 6.6875 17.28125 7.515625 17.28125 
L 70.3125 17.28125 
Q 71.046875 17.28125 71.578125 16.6875 
Q 72.125 16.109375 72.125 15.28125 
Q 72.125 14.546875 71.578125 13.90625 
Q 71.046875 13.28125 70.3125 13.28125 
z
M 7.515625 32.71875 
Q 6.6875 32.71875 6.140625 33.296875 
Q 5.609375 33.890625 5.609375 34.71875 
Q 5.609375 35.453125 6.140625 36.078125 
Q 6.6875 36.71875 7.515625 36.71875 
L 70.3125 36.71875 
Q 71.046875 36.71875 71.578125 36.078125 
Q 72.125 35.453125 72.125 34.71875 
Q 72.125 33.890625 71.578125 33.296875 
Q 71.046875 32.71875 70.3125 32.71875 
z
" id="Cmr10-61"/>
     <path d="M 9.71875 -16.5 
Q 11.578125 -17.921875 14.203125 -17.921875 
Q 17.78125 -17.921875 20.015625 -10.015625 
Q 20.953125 -6.203125 25.09375 15.09375 
L 29.6875 39.59375 
L 21.09375 39.59375 
Q 20.125 39.59375 20.125 40.921875 
Q 20.515625 43.109375 21.390625 43.109375 
L 30.328125 43.109375 
L 31.5 49.609375 
Q 32.078125 52.640625 32.5625 54.8125 
Q 33.0625 56.984375 33.625 58.828125 
Q 34.1875 60.6875 35.296875 62.984375 
Q 37.015625 66.265625 39.921875 68.390625 
Q 42.828125 70.515625 46.1875 70.515625 
Q 48.390625 70.515625 50.46875 69.703125 
Q 52.546875 68.890625 53.859375 67.28125 
Q 55.171875 65.671875 55.171875 63.484375 
Q 55.171875 60.9375 53.484375 59.046875 
Q 51.8125 57.171875 49.421875 57.171875 
Q 47.796875 57.171875 46.65625 58.171875 
Q 45.515625 59.1875 45.515625 60.796875 
Q 45.515625 62.984375 47 64.625 
Q 48.484375 66.265625 50.6875 66.5 
Q 48.828125 67.921875 46.09375 67.921875 
Q 44.578125 67.921875 43.234375 66.5 
Q 41.890625 65.09375 41.5 63.484375 
Q 40.875 60.9375 38.71875 49.703125 
L 37.5 43.109375 
L 47.796875 43.109375 
Q 48.78125 43.109375 48.78125 41.796875 
Q 48.734375 41.546875 48.578125 40.9375 
Q 48.4375 40.328125 48.171875 39.953125 
Q 47.90625 39.59375 47.515625 39.59375 
L 36.8125 39.59375 
L 32.171875 15.1875 
Q 31.296875 9.859375 30.140625 4.359375 
Q 29 -1.125 26.921875 -6.90625 
Q 24.859375 -12.703125 21.625 -16.609375 
Q 18.40625 -20.515625 14.015625 -20.515625 
Q 10.640625 -20.515625 7.984375 -18.578125 
Q 5.328125 -16.65625 5.328125 -13.484375 
Q 5.328125 -10.9375 6.953125 -9.046875 
Q 8.59375 -7.171875 11.078125 -7.171875 
Q 12.75 -7.171875 13.859375 -8.171875 
Q 14.984375 -9.1875 14.984375 -10.796875 
Q 14.984375 -12.9375 13.390625 -14.71875 
Q 11.8125 -16.5 9.71875 -16.5 
z
" id="Cmmi10-102"/>
     <path d="M 31 -24.8125 
Q 25.4375 -20.40625 21.40625 -14.71875 
Q 17.390625 -9.03125 14.8125 -2.578125 
Q 12.25 3.859375 10.984375 10.890625 
Q 9.71875 17.921875 9.71875 25 
Q 9.71875 32.171875 10.984375 39.203125 
Q 12.25 46.234375 14.859375 52.734375 
Q 17.484375 59.234375 21.53125 64.890625 
Q 25.59375 70.5625 31 74.8125 
Q 31 75 31.5 75 
L 32.421875 75 
Q 32.71875 75 32.953125 74.734375 
Q 33.203125 74.46875 33.203125 74.125 
Q 33.203125 73.6875 33.015625 73.484375 
Q 28.125 68.703125 24.875 63.234375 
Q 21.625 57.765625 19.640625 51.578125 
Q 17.671875 45.40625 16.796875 38.78125 
Q 15.921875 32.171875 15.921875 25 
Q 15.921875 -6.78125 32.90625 -23.296875 
Q 33.203125 -23.578125 33.203125 -24.125 
Q 33.203125 -24.359375 32.9375 -24.671875 
Q 32.671875 -25 32.421875 -25 
L 31.5 -25 
Q 31 -25 31 -24.8125 
z
" id="Cmr10-40"/>
     <path d="M 6.203125 8.109375 
Q 6.203125 9.578125 6.5 10.890625 
L 13.71875 39.59375 
L 3.21875 39.59375 
Q 2.203125 39.59375 2.203125 40.921875 
Q 2.59375 43.109375 3.515625 43.109375 
L 14.59375 43.109375 
L 18.609375 59.421875 
Q 19 60.75 20.171875 61.671875 
Q 21.34375 62.59375 22.796875 62.59375 
Q 24.078125 62.59375 24.921875 61.828125 
Q 25.78125 61.078125 25.78125 59.8125 
Q 25.78125 59.515625 25.75 59.34375 
Q 25.734375 59.1875 25.6875 58.984375 
L 21.6875 43.109375 
L 31.984375 43.109375 
Q 33.015625 43.109375 33.015625 41.796875 
Q 32.953125 41.546875 32.8125 40.953125 
Q 32.671875 40.375 32.421875 39.984375 
Q 32.171875 39.59375 31.6875 39.59375 
L 20.796875 39.59375 
L 13.625 10.6875 
Q 12.890625 7.859375 12.890625 5.8125 
Q 12.890625 1.515625 15.828125 1.515625 
Q 20.21875 1.515625 23.609375 5.640625 
Q 27 9.765625 28.8125 14.703125 
Q 29.203125 15.28125 29.59375 15.28125 
L 30.8125 15.28125 
Q 31.203125 15.28125 31.4375 15.015625 
Q 31.6875 14.75 31.6875 14.40625 
Q 31.6875 14.203125 31.59375 14.109375 
Q 29.390625 8.0625 25.1875 3.46875 
Q 21 -1.125 15.578125 -1.125 
Q 11.625 -1.125 8.90625 1.453125 
Q 6.203125 4.046875 6.203125 8.109375 
z
" id="Cmmi10-116"/>
     <path d="M 6.5 -25 
Q 5.609375 -25 5.609375 -24.125 
Q 5.609375 -23.6875 5.8125 -23.484375 
Q 22.90625 -6.78125 22.90625 25 
Q 22.90625 56.78125 6 73.296875 
Q 5.609375 73.53125 5.609375 74.125 
Q 5.609375 74.46875 5.875 74.734375 
Q 6.15625 75 6.5 75 
L 7.421875 75 
Q 7.71875 75 7.90625 74.8125 
Q 15.09375 69.140625 19.875 61.03125 
Q 24.65625 52.9375 26.875 43.75 
Q 29.109375 34.578125 29.109375 25 
Q 29.109375 17.921875 27.90625 11.0625 
Q 26.703125 4.203125 24.09375 -2.453125 
Q 21.484375 -9.125 17.484375 -14.765625 
Q 13.484375 -20.40625 7.90625 -24.8125 
Q 7.71875 -25 7.421875 -25 
z
" id="Cmr10-41"/>
    </defs>
    <g style="fill:#0000ff;" transform="translate(27.214513 42.838768)scale(0.14 -0.14)">
     <use xlink:href="#Cmmi10-121"/>
     <use transform="translate(66.582031 0)" xlink:href="#Cmr10-61"/>
     <use transform="translate(161.826172 0)" xlink:href="#Cmmi10-102"/>
     <use transform="translate(210.703125 0)" xlink:href="#Cmr10-40"/>
     <use transform="translate(249.521484 0)" xlink:href="#Cmmi10-116"/>
     <use transform="translate(285.605469 0)" xlink:href="#Cmr10-41"/>
    </g>
   </g>
  </g>
 </g>
 <defs>
  <clipPath id="pab213cac25">
   <rect height="148.038462" width="243.505433" x="8.017203" y="36.491875"/>
  </clipPath>
 </defs>
</svg>
