<?xml version="1.0" encoding="UTF-8" standalone="no"?>
<svg
   width="434.592008pt"
   height="337.115953pt"
   viewBox="0 0 434.592008 337.115953"
   version="1.1"
   id="svg90"
   sodipodi:docname="p1.svg"
   inkscape:version="1.4 (e7c3feb100, 2024-10-09)"
   xmlns:inkscape="http://www.inkscape.org/namespaces/inkscape"
   xmlns:sodipodi="http://sodipodi.sourceforge.net/DTD/sodipodi-0.dtd"
   xmlns:xlink="http://www.w3.org/1999/xlink"
   xmlns="http://www.w3.org/2000/svg"
   xmlns:svg="http://www.w3.org/2000/svg"
   xmlns:rdf="http://www.w3.org/1999/02/22-rdf-syntax-ns#"
   xmlns:cc="http://creativecommons.org/ns#"
   xmlns:dc="http://purl.org/dc/elements/1.1/">
  <sodipodi:namedview
     id="namedview90"
     pagecolor="#ffffff"
     bordercolor="#666666"
     borderopacity="1.0"
     inkscape:showpageshadow="2"
     inkscape:pageopacity="0.0"
     inkscape:pagecheckerboard="0"
     inkscape:deskcolor="#d1d1d1"
     inkscape:document-units="pt"
     inkscape:zoom="0.86460402"
     inkscape:cx="201.2482"
     inkscape:cy="305.34209"
     inkscape:window-width="1920"
     inkscape:window-height="1013"
     inkscape:window-x="0"
     inkscape:window-y="0"
     inkscape:window-maximized="1"
     inkscape:current-layer="svg90" />
  <metadata
     id="metadata1">
    <rdf:RDF>
      <cc:Work>
        <dc:type
           rdf:resource="http://purl.org/dc/dcmitype/StillImage" />
        <dc:date>2026-03-26T17:06:17.316137</dc:date>
        <dc:format>image/svg+xml</dc:format>
        <dc:creator>
          <cc:Agent>
            <dc:title>Matplotlib v3.10.8, https://matplotlib.org/</dc:title>
          </cc:Agent>
        </dc:creator>
      </cc:Work>
    </rdf:RDF>
  </metadata>
  <defs
     id="defs1">
    <style
       type="text/css"
       id="style1">*{stroke-linejoin: round; stroke-linecap: butt}</style>
  </defs>
  <path
     style="fill:#aaccff;stroke:none;stroke-width:0.75px;stroke-linecap:butt;stroke-linejoin:miter;stroke-opacity:1"
     d="m 19.341406,13.200621 9.750573,28.437616 13.730568,37.774808 12.953796,33.071095 14.818057,34.66508 16.589312,35.06327 19.085388,35.01959 22.37362,34.23286 19.67985,23.85555 27.62174,23.77813 22.81758,10.90568 17.39992,3.15653 20.75385,-2.28194 22.45422,-9.64177 22.55626,-17.34873 17.54733,-18.77339 18.32303,-24.53208 16.0541,-25.63297 15.9213,-29.23863 17.87562,-37.35813 15.47511,-36.31151 20.72183,-54.112687 15.54655,-44.728372 z"
     id="path92" />
  <g
     id="line2d_1">
    <defs
       id="defs2">
      <path
         id="m4c5decaa66"
         d="M 0,0 V 3.5"
         style="stroke:#000000;stroke-width:0.8" />
    </defs>
    <g
       id="g2">
      <use
         xlink:href="#m4c5decaa66"
         x="19.341406"
         y="313.23782"
         style="stroke:#000000;stroke-width:0.8"
         id="use2" />
    </g>
  </g>
  <g
     id="text_1">
    <!-- −1.5 -->
    <g
       transform="matrix(0.1,0,0,-0.1,7.2,327.83627)"
       id="g6">
      <defs
         id="defs3">
        <path
           id="DejaVuSans-2212"
           d="M 678,2272 H 4684 V 1741 H 678 Z"
           transform="scale(0.015625)" />
        <path
           id="DejaVuSans-31"
           d="M 794,531 H 1825 V 4091 L 703,3866 v 575 l 1116,225 h 631 V 531 H 3481 V 0 H 794 Z"
           transform="scale(0.015625)" />
        <path
           id="DejaVuSans-2e"
           d="m 684,794 h 660 V 0 H 684 Z"
           transform="scale(0.015625)" />
        <path
           id="DejaVuSans-35"
           d="M 691,4666 H 3169 V 4134 H 1269 V 2991 q 137,47 274,70 138,23 276,23 781,0 1237,-428 457,-428 457,-1159 Q 3513,744 3044,326 2575,-91 1722,-91 1428,-91 1123,-41 819,9 494,109 v 635 q 281,-153 581,-228 300,-75 634,-75 541,0 856,284 316,284 316,772 0,487 -316,771 -315,285 -856,285 -253,0 -505,-56 -251,-56 -513,-175 z"
           transform="scale(0.015625)" />
      </defs>
      <use
         xlink:href="#DejaVuSans-2212"
         id="use3" />
      <use
         xlink:href="#DejaVuSans-31"
         transform="translate(83.789062)"
         id="use4" />
      <use
         xlink:href="#DejaVuSans-2e"
         transform="translate(147.41211)"
         id="use5" />
      <use
         xlink:href="#DejaVuSans-35"
         transform="translate(179.19922)"
         id="use6" />
    </g>
  </g>
  <g
     id="line2d_2">
    <g
       id="g7">
      <use
         xlink:href="#m4c5decaa66"
         x="86.016342"
         y="313.23782"
         style="stroke:#000000;stroke-width:0.8"
         id="use7" />
    </g>
  </g>
  <g
     id="text_2">
    <!-- −1.0 -->
    <g
       transform="matrix(0.1,0,0,-0.1,73.874935,327.83627)"
       id="g11">
      <defs
         id="defs7">
        <path
           id="DejaVuSans-30"
           d="m 2034,4250 q -487,0 -733,-480 -245,-479 -245,-1442 0,-959 245,-1439 246,-480 733,-480 491,0 736,480 246,480 246,1439 0,963 -246,1442 -245,480 -736,480 z m 0,500 q 785,0 1199,-621 414,-620 414,-1801 0,-1178 -414,-1799 -414,-620 -1199,-620 -784,0 -1198,620 -414,621 -414,1799 0,1181 414,1801 414,621 1198,621 z"
           transform="scale(0.015625)" />
      </defs>
      <use
         xlink:href="#DejaVuSans-2212"
         id="use8" />
      <use
         xlink:href="#DejaVuSans-31"
         transform="translate(83.789062)"
         id="use9" />
      <use
         xlink:href="#DejaVuSans-2e"
         transform="translate(147.41211)"
         id="use10" />
      <use
         xlink:href="#DejaVuSans-30"
         transform="translate(179.19922)"
         id="use11" />
    </g>
  </g>
  <g
     id="line2d_3">
    <g
       id="g12">
      <use
         xlink:href="#m4c5decaa66"
         x="152.69127"
         y="313.23782"
         style="stroke:#000000;stroke-width:0.8"
         id="use12" />
    </g>
  </g>
  <g
     id="text_3">
    <!-- −0.5 -->
    <g
       transform="matrix(0.1,0,0,-0.1,140.54987,327.83627)"
       id="g16">
      <use
         xlink:href="#DejaVuSans-2212"
         id="use13" />
      <use
         xlink:href="#DejaVuSans-30"
         transform="translate(83.789062)"
         id="use14" />
      <use
         xlink:href="#DejaVuSans-2e"
         transform="translate(147.41211)"
         id="use15" />
      <use
         xlink:href="#DejaVuSans-35"
         transform="translate(179.19922)"
         id="use16" />
    </g>
  </g>
  <g
     id="line2d_4">
    <g
       id="g17">
      <use
         xlink:href="#m4c5decaa66"
         x="219.36621"
         y="313.23782"
         style="stroke:#000000;stroke-width:0.8"
         id="use17" />
    </g>
  </g>
  <g
     id="line2d_5">
    <g
       id="g18">
      <use
         xlink:href="#m4c5decaa66"
         x="286.04114"
         y="313.23782"
         style="stroke:#000000;stroke-width:0.8"
         id="use18" />
    </g>
  </g>
  <g
     id="text_4">
    <!-- 0.5 -->
    <g
       transform="matrix(0.1,0,0,-0.1,278.08958,327.83627)"
       id="g21">
      <use
         xlink:href="#DejaVuSans-30"
         id="use19" />
      <use
         xlink:href="#DejaVuSans-2e"
         transform="translate(63.623047)"
         id="use20" />
      <use
         xlink:href="#DejaVuSans-35"
         transform="translate(95.410156)"
         id="use21" />
    </g>
  </g>
  <g
     id="line2d_6">
    <g
       id="g22">
      <use
         xlink:href="#m4c5decaa66"
         x="352.71609"
         y="313.23782"
         style="stroke:#000000;stroke-width:0.8"
         id="use22" />
    </g>
  </g>
  <g
     id="text_5">
    <!-- 1.0 -->
    <g
       transform="matrix(0.1,0,0,-0.1,344.76452,327.83627)"
       id="g25">
      <use
         xlink:href="#DejaVuSans-31"
         id="use23" />
      <use
         xlink:href="#DejaVuSans-2e"
         transform="translate(63.623047)"
         id="use24" />
      <use
         xlink:href="#DejaVuSans-30"
         transform="translate(95.410156)"
         id="use25" />
    </g>
  </g>
  <g
     id="line2d_7">
    <g
       id="g26">
      <use
         xlink:href="#m4c5decaa66"
         x="419.39102"
         y="313.23782"
         style="stroke:#000000;stroke-width:0.8"
         id="use26" />
    </g>
  </g>
  <g
     id="text_6">
    <!-- 1.5 -->
    <g
       transform="matrix(0.1,0,0,-0.1,411.43945,327.83627)"
       id="g29">
      <use
         xlink:href="#DejaVuSans-31"
         id="use27" />
      <use
         xlink:href="#DejaVuSans-2e"
         transform="translate(63.623047)"
         id="use28" />
      <use
         xlink:href="#DejaVuSans-35"
         transform="translate(95.410156)"
         id="use29" />
    </g>
  </g>
  <g
     id="line2d_8">
    <defs
       id="defs29">
      <path
         id="ma325c8166b"
         d="M 0,0 V 2"
         style="stroke:#000000;stroke-width:0.6" />
    </defs>
    <g
       id="g30">
      <use
         xlink:href="#ma325c8166b"
         x="32.676392"
         y="313.23782"
         style="stroke:#000000;stroke-width:0.6"
         id="use30" />
    </g>
  </g>
  <g
     id="line2d_9">
    <g
       id="g31">
      <use
         xlink:href="#ma325c8166b"
         x="46.011379"
         y="313.23782"
         style="stroke:#000000;stroke-width:0.6"
         id="use31" />
    </g>
  </g>
  <g
     id="line2d_10">
    <g
       id="g32">
      <use
         xlink:href="#ma325c8166b"
         x="59.346367"
         y="313.23782"
         style="stroke:#000000;stroke-width:0.6"
         id="use32" />
    </g>
  </g>
  <g
     id="line2d_11">
    <g
       id="g33">
      <use
         xlink:href="#ma325c8166b"
         x="72.681351"
         y="313.23782"
         style="stroke:#000000;stroke-width:0.6"
         id="use33" />
    </g>
  </g>
  <g
     id="line2d_12">
    <g
       id="g34">
      <use
         xlink:href="#ma325c8166b"
         x="99.351326"
         y="313.23782"
         style="stroke:#000000;stroke-width:0.6"
         id="use34" />
    </g>
  </g>
  <g
     id="line2d_13">
    <g
       id="g35">
      <use
         xlink:href="#ma325c8166b"
         x="112.68632"
         y="313.23782"
         style="stroke:#000000;stroke-width:0.6"
         id="use35" />
    </g>
  </g>
  <g
     id="line2d_14">
    <g
       id="g36">
      <use
         xlink:href="#ma325c8166b"
         x="126.0213"
         y="313.23782"
         style="stroke:#000000;stroke-width:0.6"
         id="use36" />
    </g>
  </g>
  <g
     id="line2d_15">
    <g
       id="g37">
      <use
         xlink:href="#ma325c8166b"
         x="139.35629"
         y="313.23782"
         style="stroke:#000000;stroke-width:0.6"
         id="use37" />
    </g>
  </g>
  <g
     id="line2d_16">
    <g
       id="g38">
      <use
         xlink:href="#ma325c8166b"
         x="166.02626"
         y="313.23782"
         style="stroke:#000000;stroke-width:0.6"
         id="use38" />
    </g>
  </g>
  <g
     id="line2d_17">
    <g
       id="g39">
      <use
         xlink:href="#ma325c8166b"
         x="179.36125"
         y="313.23782"
         style="stroke:#000000;stroke-width:0.6"
         id="use39" />
    </g>
  </g>
  <g
     id="line2d_18">
    <g
       id="g40">
      <use
         xlink:href="#ma325c8166b"
         x="192.69624"
         y="313.23782"
         style="stroke:#000000;stroke-width:0.6"
         id="use40" />
    </g>
  </g>
  <g
     id="line2d_19">
    <g
       id="g41">
      <use
         xlink:href="#ma325c8166b"
         x="206.03122"
         y="313.23782"
         style="stroke:#000000;stroke-width:0.6"
         id="use41" />
    </g>
  </g>
  <g
     id="line2d_20">
    <g
       id="g42">
      <use
         xlink:href="#ma325c8166b"
         x="232.7012"
         y="313.23782"
         style="stroke:#000000;stroke-width:0.6"
         id="use42" />
    </g>
  </g>
  <g
     id="line2d_21">
    <g
       id="g43">
      <use
         xlink:href="#ma325c8166b"
         x="246.03618"
         y="313.23782"
         style="stroke:#000000;stroke-width:0.6"
         id="use43" />
    </g>
  </g>
  <g
     id="line2d_22">
    <g
       id="g44">
      <use
         xlink:href="#ma325c8166b"
         x="259.37119"
         y="313.23782"
         style="stroke:#000000;stroke-width:0.6"
         id="use44" />
    </g>
  </g>
  <g
     id="line2d_23">
    <g
       id="g45">
      <use
         xlink:href="#ma325c8166b"
         x="272.70615"
         y="313.23782"
         style="stroke:#000000;stroke-width:0.6"
         id="use45" />
    </g>
  </g>
  <g
     id="line2d_24">
    <g
       id="g46">
      <use
         xlink:href="#ma325c8166b"
         x="299.37613"
         y="313.23782"
         style="stroke:#000000;stroke-width:0.6"
         id="use46" />
    </g>
  </g>
  <g
     id="line2d_25">
    <g
       id="g47">
      <use
         xlink:href="#ma325c8166b"
         x="312.71112"
         y="313.23782"
         style="stroke:#000000;stroke-width:0.6"
         id="use47" />
    </g>
  </g>
  <g
     id="line2d_26">
    <g
       id="g48">
      <use
         xlink:href="#ma325c8166b"
         x="326.04611"
         y="313.23782"
         style="stroke:#000000;stroke-width:0.6"
         id="use48" />
    </g>
  </g>
  <g
     id="line2d_27">
    <g
       id="g49">
      <use
         xlink:href="#ma325c8166b"
         x="339.3811"
         y="313.23782"
         style="stroke:#000000;stroke-width:0.6"
         id="use49" />
    </g>
  </g>
  <g
     id="line2d_28">
    <g
       id="g50">
      <use
         xlink:href="#ma325c8166b"
         x="366.05106"
         y="313.23782"
         style="stroke:#000000;stroke-width:0.6"
         id="use50" />
    </g>
  </g>
  <g
     id="line2d_29">
    <g
       id="g51">
      <use
         xlink:href="#ma325c8166b"
         x="379.38605"
         y="313.23782"
         style="stroke:#000000;stroke-width:0.6"
         id="use51" />
    </g>
  </g>
  <g
     id="line2d_30">
    <g
       id="g52">
      <use
         xlink:href="#ma325c8166b"
         x="392.72104"
         y="313.23782"
         style="stroke:#000000;stroke-width:0.6"
         id="use52" />
    </g>
  </g>
  <g
     id="line2d_31">
    <g
       id="g53">
      <use
         xlink:href="#ma325c8166b"
         x="406.05603"
         y="313.23782"
         style="stroke:#000000;stroke-width:0.6"
         id="use53" />
    </g>
  </g>
  <g
     id="line2d_32">
    <defs
       id="defs53">
      <path
         id="m70e5dea7c3"
         d="M 0,0 H -3.5"
         style="stroke:#000000;stroke-width:0.8" />
    </defs>
    <g
       id="g54">
      <use
         xlink:href="#m70e5dea7c3"
         x="219.36621"
         y="313.23782"
         style="stroke:#000000;stroke-width:0.8"
         id="use54" />
    </g>
  </g>
  <g
     id="line2d_33">
    <g
       id="g55">
      <use
         xlink:href="#m70e5dea7c3"
         x="219.36621"
         y="246.5629"
         style="stroke:#000000;stroke-width:0.8"
         id="use55" />
    </g>
  </g>
  <g
     id="text_7">
    <!-- 0.5 -->
    <g
       transform="matrix(0.1,0,0,-0.1,196.46309,250.36211)"
       id="g58">
      <use
         xlink:href="#DejaVuSans-30"
         id="use56" />
      <use
         xlink:href="#DejaVuSans-2e"
         transform="translate(63.623047)"
         id="use57" />
      <use
         xlink:href="#DejaVuSans-35"
         transform="translate(95.410156)"
         id="use58" />
    </g>
  </g>
  <g
     id="line2d_34">
    <g
       id="g59">
      <use
         xlink:href="#m70e5dea7c3"
         x="219.36621"
         y="179.88795"
         style="stroke:#000000;stroke-width:0.8"
         id="use59" />
    </g>
  </g>
  <g
     id="text_8">
    <!-- 1.0 -->
    <g
       transform="matrix(0.1,0,0,-0.1,196.46309,183.68718)"
       id="g62">
      <use
         xlink:href="#DejaVuSans-31"
         id="use60" />
      <use
         xlink:href="#DejaVuSans-2e"
         transform="translate(63.623047)"
         id="use61" />
      <use
         xlink:href="#DejaVuSans-30"
         transform="translate(95.410156)"
         id="use62" />
    </g>
  </g>
  <g
     id="line2d_35">
    <g
       id="g63">
      <use
         xlink:href="#m70e5dea7c3"
         x="219.36621"
         y="113.21302"
         style="stroke:#000000;stroke-width:0.8"
         id="use63" />
    </g>
  </g>
  <g
     id="text_9">
    <!-- 1.5 -->
    <g
       transform="matrix(0.1,0,0,-0.1,196.46309,117.01224)"
       id="g66">
      <use
         xlink:href="#DejaVuSans-31"
         id="use64" />
      <use
         xlink:href="#DejaVuSans-2e"
         transform="translate(63.623047)"
         id="use65" />
      <use
         xlink:href="#DejaVuSans-35"
         transform="translate(95.410156)"
         id="use66" />
    </g>
  </g>
  <g
     id="line2d_36">
    <g
       id="g67">
      <use
         xlink:href="#m70e5dea7c3"
         x="219.36621"
         y="46.53809"
         style="stroke:#000000;stroke-width:0.8"
         id="use67" />
    </g>
  </g>
  <g
     id="text_10">
    <!-- 2.0 -->
    <g
       transform="matrix(0.1,0,0,-0.1,196.46309,50.337307)"
       id="g70">
      <defs
         id="defs67">
        <path
           id="DejaVuSans-32"
           d="M 1228,531 H 3431 V 0 H 469 v 531 q 359,372 979,998 621,627 780,809 303,340 423,576 121,236 121,464 0,372 -261,606 -261,235 -680,235 -297,0 -627,-103 -329,-103 -704,-313 v 638 q 381,153 712,231 332,78 607,78 725,0 1156,-363 431,-362 431,-968 0,-288 -108,-546 -107,-257 -392,-607 -78,-91 -497,-524 Q 1991,1309 1228,531 Z"
           transform="scale(0.015625)" />
      </defs>
      <use
         xlink:href="#DejaVuSans-32"
         id="use68" />
      <use
         xlink:href="#DejaVuSans-2e"
         transform="translate(63.623047)"
         id="use69" />
      <use
         xlink:href="#DejaVuSans-30"
         transform="translate(95.410156)"
         id="use70" />
    </g>
  </g>
  <g
     id="line2d_37">
    <defs
       id="defs70">
      <path
         id="mabf2d6b7df"
         d="M 0,0 H -2"
         style="stroke:#000000;stroke-width:0.6" />
    </defs>
    <g
       id="g71">
      <use
         xlink:href="#mabf2d6b7df"
         x="219.36621"
         y="299.90283"
         style="stroke:#000000;stroke-width:0.6"
         id="use71" />
    </g>
  </g>
  <g
     id="line2d_38">
    <g
       id="g72">
      <use
         xlink:href="#mabf2d6b7df"
         x="219.36621"
         y="286.56784"
         style="stroke:#000000;stroke-width:0.6"
         id="use72" />
    </g>
  </g>
  <g
     id="line2d_39">
    <g
       id="g73">
      <use
         xlink:href="#mabf2d6b7df"
         x="219.36621"
         y="273.23288"
         style="stroke:#000000;stroke-width:0.6"
         id="use73" />
    </g>
  </g>
  <g
     id="line2d_40">
    <g
       id="g74">
      <use
         xlink:href="#mabf2d6b7df"
         x="219.36621"
         y="259.89789"
         style="stroke:#000000;stroke-width:0.6"
         id="use74" />
    </g>
  </g>
  <g
     id="line2d_41">
    <g
       id="g75">
      <use
         xlink:href="#mabf2d6b7df"
         x="219.36621"
         y="233.22791"
         style="stroke:#000000;stroke-width:0.6"
         id="use75" />
    </g>
  </g>
  <g
     id="line2d_42">
    <g
       id="g76">
      <use
         xlink:href="#mabf2d6b7df"
         x="219.36621"
         y="219.89291"
         style="stroke:#000000;stroke-width:0.6"
         id="use76" />
    </g>
  </g>
  <g
     id="line2d_43">
    <g
       id="g77">
      <use
         xlink:href="#mabf2d6b7df"
         x="219.36621"
         y="206.55794"
         style="stroke:#000000;stroke-width:0.6"
         id="use77" />
    </g>
  </g>
  <g
     id="line2d_44">
    <g
       id="g78">
      <use
         xlink:href="#mabf2d6b7df"
         x="219.36621"
         y="193.22295"
         style="stroke:#000000;stroke-width:0.6"
         id="use78" />
    </g>
  </g>
  <g
     id="line2d_45">
    <g
       id="g79">
      <use
         xlink:href="#mabf2d6b7df"
         x="219.36621"
         y="166.55298"
         style="stroke:#000000;stroke-width:0.6"
         id="use79" />
    </g>
  </g>
  <g
     id="line2d_46">
    <g
       id="g80">
      <use
         xlink:href="#mabf2d6b7df"
         x="219.36621"
         y="153.21799"
         style="stroke:#000000;stroke-width:0.6"
         id="use80" />
    </g>
  </g>
  <g
     id="line2d_47">
    <g
       id="g81">
      <use
         xlink:href="#mabf2d6b7df"
         x="219.36621"
         y="139.883"
         style="stroke:#000000;stroke-width:0.6"
         id="use81" />
    </g>
  </g>
  <g
     id="line2d_48">
    <g
       id="g82">
      <use
         xlink:href="#mabf2d6b7df"
         x="219.36621"
         y="126.54801"
         style="stroke:#000000;stroke-width:0.6"
         id="use82" />
    </g>
  </g>
  <g
     id="line2d_49">
    <g
       id="g83">
      <use
         xlink:href="#mabf2d6b7df"
         x="219.36621"
         y="99.878036"
         style="stroke:#000000;stroke-width:0.6"
         id="use83" />
    </g>
  </g>
  <g
     id="line2d_50">
    <g
       id="g84">
      <use
         xlink:href="#mabf2d6b7df"
         x="219.36621"
         y="86.543053"
         style="stroke:#000000;stroke-width:0.6"
         id="use84" />
    </g>
  </g>
  <g
     id="line2d_51">
    <g
       id="g85">
      <use
         xlink:href="#mabf2d6b7df"
         x="219.36621"
         y="73.208061"
         style="stroke:#000000;stroke-width:0.6"
         id="use85" />
    </g>
  </g>
  <g
     id="line2d_52">
    <g
       id="g86">
      <use
         xlink:href="#mabf2d6b7df"
         x="219.36621"
         y="59.873074"
         style="stroke:#000000;stroke-width:0.6"
         id="use86" />
    </g>
  </g>
  <g
     id="line2d_53">
    <g
       id="g87">
      <use
         xlink:href="#mabf2d6b7df"
         x="219.36621"
         y="33.203102"
         style="stroke:#000000;stroke-width:0.6"
         id="use87" />
    </g>
  </g>
  <g
     id="line2d_54">
    <g
       id="g88">
      <use
         xlink:href="#mabf2d6b7df"
         x="219.36621"
         y="19.868114"
         style="stroke:#000000;stroke-width:0.6"
         id="use88" />
    </g>
  </g>
  <path
     d="m 19.341406,13.200621 6.078163,17.957443 7.344819,20.960345 6.47511,17.807349 7.166097,18.974581 6.398641,16.291611 5.944213,14.58438 7.993306,18.77648 7.705291,17.19282 6.046999,12.86905 6.689669,13.5978 6.610552,12.77766 4.057458,7.51814 5.041126,8.99684 6.75251,11.45391 5.20956,8.36937 5.6648,8.63879 5.54315,7.98739 5.1597,7.02071 3.93258,5.08286 5.70447,6.96078 4.45077,5.09201 6.02436,6.4191 5.70659,5.57848 4.94243,4.43678 3.85668,3.20764 5.10225,3.90079 5.00161,3.44489 5.31083,3.24715 4.01404,2.17358 4.91177,2.33092 3.1341,1.29822 2.8675,1.05872 5.15867,1.59417 5.10536,1.18473 3.75205,0.62146 2.98108,0.34325 2.9821,0.21001 4.11226,0.0708 3.71562,-0.15413 2.07325,-0.176 4.23342,-0.55959 4.0539,-0.78781 5.13079,-1.35047 2.983,-0.96665 3.33072,-1.23704 4.00667,-1.70854 4.87807,-2.40515 4.69037,-2.64915 3.809,-2.39413 4.89881,-3.39902 5.22378,-4.02102 3.27455,-2.7293 5.35012,-4.80526 4.38341,-4.25698 3.84468,-3.971 4.11987,-4.50131 5.19937,-6.0441 4.29375,-5.29703 4.34631,-5.64346 4.38632,-5.98268 5.29665,-7.60891 5.60408,-8.50866 5.77074,-9.25393 4.67928,-7.87038 4.50134,-7.88099 6.87807,-12.62912 4.54189,-8.72852 6.1781,-12.36962 5.19207,-10.83814 6.50544,-14.15037 6.02734,-13.6769 5.79905,-13.67316 7.29748,-17.92292 5.87576,-15.011558 7.56764,-20.096934 7.25937,-20.085451 5.47619,-15.674691 6.44068,-19.010955 v 0"
     clip-path="url(#pc50318de20)"
     style="fill:none;stroke:#0000ff;stroke-dasharray:3.7, 1.6;stroke-dashoffset:0"
     id="path88" />
  <path
     d="M 219.36621,319.23227 V 7.2"
     style="fill:none;stroke:#000000;stroke-width:0.8;stroke-linecap:square;stroke-linejoin:miter"
     id="path89" />
  <path
     d="M 11.340414,313.23783 H 427.39201"
     style="fill:none;stroke:#000000;stroke-width:0.8;stroke-linecap:square;stroke-linejoin:miter"
     id="path90" />
  <defs
     id="defs90">
    <clipPath
       id="pc50318de20">
      <rect
         x="11.340414"
         y="7.2"
         width="416.051594"
         height="312.032267"
         id="rect90" />
    </clipPath>
  </defs>
</svg>
