<?xml version="1.0" encoding="UTF-8" standalone="no"?>
<svg
   width="208.823688pt"
   height="207.463027pt"
   viewBox="0 0 208.823688 207.463027"
   version="1.1"
   id="svg83"
   sodipodi:docname="p3.svg"
   inkscape:version="1.4 (e7c3feb100, 2024-10-09)"
   xmlns:inkscape="http://www.inkscape.org/namespaces/inkscape"
   xmlns:sodipodi="http://sodipodi.sourceforge.net/DTD/sodipodi-0.dtd"
   xmlns:xlink="http://www.w3.org/1999/xlink"
   xmlns="http://www.w3.org/2000/svg"
   xmlns:svg="http://www.w3.org/2000/svg"
   xmlns:rdf="http://www.w3.org/1999/02/22-rdf-syntax-ns#"
   xmlns:cc="http://creativecommons.org/ns#"
   xmlns:dc="http://purl.org/dc/elements/1.1/">
  <sodipodi:namedview
     id="namedview83"
     pagecolor="#ffffff"
     bordercolor="#666666"
     borderopacity="1.0"
     inkscape:showpageshadow="2"
     inkscape:pageopacity="0.0"
     inkscape:pagecheckerboard="0"
     inkscape:deskcolor="#d1d1d1"
     inkscape:document-units="pt"
     inkscape:zoom="2.1268109"
     inkscape:cx="143.4072"
     inkscape:cy="163.62527"
     inkscape:window-width="1920"
     inkscape:window-height="1013"
     inkscape:window-x="0"
     inkscape:window-y="0"
     inkscape:window-maximized="1"
     inkscape:current-layer="svg83" />
  <metadata
     id="metadata1">
    <rdf:RDF>
      <cc:Work>
        <dc:type
           rdf:resource="http://purl.org/dc/dcmitype/StillImage" />
        <dc:date>2026-03-26T17:13:35.267859</dc:date>
        <dc:format>image/svg+xml</dc:format>
        <dc:creator>
          <cc:Agent>
            <dc:title>Matplotlib v3.10.8, https://matplotlib.org/</dc:title>
          </cc:Agent>
        </dc:creator>
      </cc:Work>
    </rdf:RDF>
  </metadata>
  <defs
     id="defs1">
    <style
       type="text/css"
       id="style1">*{stroke-linejoin: round; stroke-linecap: butt}</style>
    <defs
       id="defs57">
      <path
         id="m823d5be4a8"
         d="M 0,0 H -2"
         style="stroke:#000000;stroke-width:0.6" />
    </defs>
    <defs
       id="defs41">
      <path
         id="m0bf6800c44"
         d="M 0,0 H -3.5"
         style="stroke:#000000;stroke-width:0.8" />
    </defs>
    <defs
       id="defs2">
      <path
         id="m290c77cddb"
         d="M 0,0 V 3.5"
         style="stroke:#000000;stroke-width:0.8" />
    </defs>
    <defs
       id="defs17">
      <path
         id="m642af54510"
         d="M 0,0 V 2"
         style="stroke:#000000;stroke-width:0.6" />
    </defs>
    <defs
       id="defs8">
      <path
         id="DejaVuSans-31"
         d="M 794,531 H 1825 V 4091 L 703,3866 v 575 l 1116,225 h 631 V 531 H 3481 V 0 H 794 Z"
         transform="scale(0.015625)" />
    </defs>
    <defs
       id="defs5">
      <path
         id="DejaVuSans-32"
         d="M 1228,531 H 3431 V 0 H 469 v 531 q 359,372 979,998 621,627 780,809 303,340 423,576 121,236 121,464 0,372 -261,606 -261,235 -680,235 -297,0 -627,-103 -329,-103 -704,-313 v 638 q 381,153 712,231 332,78 607,78 725,0 1156,-363 431,-362 431,-968 0,-288 -108,-546 -107,-257 -392,-607 -78,-91 -497,-524 Q 1991,1309 1228,531 Z"
         transform="scale(0.015625)" />
    </defs>
    <defs
       id="defs3">
      <path
         id="DejaVuSans-2212"
         d="M 678,2272 H 4684 V 1741 H 678 Z"
         transform="scale(0.015625)" />
      <path
         id="DejaVuSans-33"
         d="m 2597,2516 q 453,-97 707,-404 255,-306 255,-756 0,-690 -475,-1069 -475,-378 -1350,-378 -293,0 -604,58 -311,58 -642,174 v 609 q 262,-153 574,-231 313,-78 654,-78 593,0 904,234 311,234 311,681 0,413 -289,645 -289,233 -804,233 h -544 v 519 h 569 q 465,0 712,186 247,186 247,536 0,359 -255,551 -254,193 -729,193 -260,0 -557,-57 -297,-56 -653,-174 v 562 q 360,100 674,150 314,50 592,50 719,0 1137,-327 419,-326 419,-882 0,-388 -222,-655 -222,-267 -631,-370 z"
         transform="scale(0.015625)" />
    </defs>
  </defs>
  <path
     style="fill:#eeffaa;stroke:none;stroke-width:0.75px;stroke-linecap:butt;stroke-linejoin:miter;stroke-opacity:1"
     d="M 6.1304281,2.9584191 106.26354,102.69167 206.39695,2.9584191 Z"
     id="path3"
     sodipodi:nodetypes="cccc" />
  <path
     style="fill:#eeffaa;stroke:none;stroke-width:0.75px;stroke-linecap:butt;stroke-linejoin:miter;stroke-opacity:1"
     d="M 106.26354,102.69167 206.39695,203.22492 H 6.1304281 Z"
     id="path4"
     sodipodi:nodetypes="cccc" />
  <use
     xlink:href="#m290c77cddb"
     x="14.571094"
     y="102.69167"
     style="stroke:#000000;stroke-width:0.8"
     id="use2" />
  <use
     xlink:href="#DejaVuSans-2212"
     id="use3"
     transform="matrix(0.1,0,0,-0.1,7.2,117.29011)" />
  <use
     xlink:href="#DejaVuSans-33"
     transform="matrix(0.1,0,0,-0.1,15.578906,117.29011)"
     id="use4" />
  <use
     xlink:href="#m290c77cddb"
     x="45.135242"
     y="102.69167"
     style="stroke:#000000;stroke-width:0.8"
     id="use5" />
  <use
     xlink:href="#DejaVuSans-2212"
     id="use6"
     transform="matrix(0.1,0,0,-0.1,37.76415,117.29011)" />
  <use
     xlink:href="#DejaVuSans-32"
     transform="matrix(0.1,0,0,-0.1,46.143056,117.29011)"
     id="use7" />
  <use
     xlink:href="#m290c77cddb"
     x="75.699394"
     y="102.69167"
     style="stroke:#000000;stroke-width:0.8"
     id="use8" />
  <use
     xlink:href="#DejaVuSans-2212"
     id="use9"
     transform="matrix(0.1,0,0,-0.1,68.328301,117.29011)" />
  <use
     xlink:href="#DejaVuSans-31"
     transform="matrix(0.1,0,0,-0.1,76.707207,117.29011)"
     id="use10" />
  <use
     xlink:href="#m290c77cddb"
     x="106.26354"
     y="102.69167"
     style="stroke:#000000;stroke-width:0.8"
     id="use11" />
  <use
     xlink:href="#m290c77cddb"
     x="136.8277"
     y="102.69167"
     style="stroke:#000000;stroke-width:0.8"
     id="use12" />
  <use
     xlink:href="#DejaVuSans-31"
     id="use13"
     transform="matrix(0.1,0,0,-0.1,133.64644,117.29011)" />
  <use
     xlink:href="#m290c77cddb"
     x="167.39185"
     y="102.69167"
     style="stroke:#000000;stroke-width:0.8"
     id="use14" />
  <use
     xlink:href="#DejaVuSans-32"
     id="use15"
     transform="matrix(0.1,0,0,-0.1,164.21059,117.29011)" />
  <use
     xlink:href="#m290c77cddb"
     x="197.95599"
     y="102.69167"
     style="stroke:#000000;stroke-width:0.8"
     id="use16" />
  <use
     xlink:href="#DejaVuSans-33"
     id="use17"
     transform="matrix(0.1,0,0,-0.1,194.77475,117.29011)" />
  <use
     xlink:href="#m642af54510"
     x="20.683924"
     y="102.69167"
     style="stroke:#000000;stroke-width:0.6"
     id="use18" />
  <use
     xlink:href="#m642af54510"
     x="26.796755"
     y="102.69167"
     style="stroke:#000000;stroke-width:0.6"
     id="use19" />
  <use
     xlink:href="#m642af54510"
     x="32.909584"
     y="102.69167"
     style="stroke:#000000;stroke-width:0.6"
     id="use20" />
  <use
     xlink:href="#m642af54510"
     x="39.022415"
     y="102.69167"
     style="stroke:#000000;stroke-width:0.6"
     id="use21" />
  <use
     xlink:href="#m642af54510"
     x="51.248074"
     y="102.69167"
     style="stroke:#000000;stroke-width:0.6"
     id="use22" />
  <use
     xlink:href="#m642af54510"
     x="57.360905"
     y="102.69167"
     style="stroke:#000000;stroke-width:0.6"
     id="use23" />
  <use
     xlink:href="#m642af54510"
     x="63.473736"
     y="102.69167"
     style="stroke:#000000;stroke-width:0.6"
     id="use24" />
  <use
     xlink:href="#m642af54510"
     x="69.586563"
     y="102.69167"
     style="stroke:#000000;stroke-width:0.6"
     id="use25" />
  <use
     xlink:href="#m642af54510"
     x="81.812225"
     y="102.69167"
     style="stroke:#000000;stroke-width:0.6"
     id="use26" />
  <use
     xlink:href="#m642af54510"
     x="87.925056"
     y="102.69167"
     style="stroke:#000000;stroke-width:0.6"
     id="use27" />
  <use
     xlink:href="#m642af54510"
     x="94.037888"
     y="102.69167"
     style="stroke:#000000;stroke-width:0.6"
     id="use28" />
  <use
     xlink:href="#m642af54510"
     x="100.15072"
     y="102.69167"
     style="stroke:#000000;stroke-width:0.6"
     id="use29" />
  <use
     xlink:href="#m642af54510"
     x="112.37637"
     y="102.69167"
     style="stroke:#000000;stroke-width:0.6"
     id="use30" />
  <use
     xlink:href="#m642af54510"
     x="118.4892"
     y="102.69167"
     style="stroke:#000000;stroke-width:0.6"
     id="use31" />
  <use
     xlink:href="#m642af54510"
     x="124.60204"
     y="102.69167"
     style="stroke:#000000;stroke-width:0.6"
     id="use32" />
  <use
     xlink:href="#m642af54510"
     x="130.71486"
     y="102.69167"
     style="stroke:#000000;stroke-width:0.6"
     id="use33" />
  <use
     xlink:href="#m642af54510"
     x="142.94052"
     y="102.69167"
     style="stroke:#000000;stroke-width:0.6"
     id="use34" />
  <use
     xlink:href="#m642af54510"
     x="149.05336"
     y="102.69167"
     style="stroke:#000000;stroke-width:0.6"
     id="use35" />
  <use
     xlink:href="#m642af54510"
     x="155.16618"
     y="102.69167"
     style="stroke:#000000;stroke-width:0.6"
     id="use36" />
  <use
     xlink:href="#m642af54510"
     x="161.27902"
     y="102.69167"
     style="stroke:#000000;stroke-width:0.6"
     id="use37" />
  <use
     xlink:href="#m642af54510"
     x="173.50467"
     y="102.69167"
     style="stroke:#000000;stroke-width:0.6"
     id="use38" />
  <use
     xlink:href="#m642af54510"
     x="179.61751"
     y="102.69167"
     style="stroke:#000000;stroke-width:0.6"
     id="use39" />
  <use
     xlink:href="#m642af54510"
     x="185.73033"
     y="102.69167"
     style="stroke:#000000;stroke-width:0.6"
     id="use40" />
  <use
     xlink:href="#m642af54510"
     x="191.84317"
     y="102.69167"
     style="stroke:#000000;stroke-width:0.6"
     id="use41" />
  <use
     xlink:href="#m0bf6800c44"
     x="106.26354"
     y="194.38412"
     style="stroke:#000000;stroke-width:0.8"
     id="use42" />
  <use
     xlink:href="#DejaVuSans-2212"
     id="use43"
     transform="matrix(0.1,0,0,-0.1,84.521357,198.18334)" />
  <use
     xlink:href="#DejaVuSans-33"
     transform="matrix(0.1,0,0,-0.1,92.900263,198.18334)"
     id="use44" />
  <use
     xlink:href="#m0bf6800c44"
     x="106.26354"
     y="163.81998"
     style="stroke:#000000;stroke-width:0.8"
     id="use45" />
  <use
     xlink:href="#DejaVuSans-2212"
     id="use46"
     transform="matrix(0.1,0,0,-0.1,84.521357,167.61919)" />
  <use
     xlink:href="#DejaVuSans-32"
     transform="matrix(0.1,0,0,-0.1,92.900263,167.61919)"
     id="use47" />
  <use
     xlink:href="#m0bf6800c44"
     x="106.26354"
     y="133.25581"
     style="stroke:#000000;stroke-width:0.8"
     id="use48" />
  <use
     xlink:href="#DejaVuSans-2212"
     id="use49"
     transform="matrix(0.1,0,0,-0.1,84.521357,137.05504)" />
  <use
     xlink:href="#DejaVuSans-31"
     transform="matrix(0.1,0,0,-0.1,92.900263,137.05504)"
     id="use50" />
  <use
     xlink:href="#m0bf6800c44"
     x="106.26354"
     y="102.69167"
     style="stroke:#000000;stroke-width:0.8"
     id="use51" />
  <use
     xlink:href="#m0bf6800c44"
     x="106.26354"
     y="72.127518"
     style="stroke:#000000;stroke-width:0.8"
     id="use52" />
  <use
     xlink:href="#DejaVuSans-31"
     id="use53"
     transform="matrix(0.1,0,0,-0.1,92.901045,75.926738)" />
  <use
     xlink:href="#m0bf6800c44"
     x="106.26354"
     y="41.56337"
     style="stroke:#000000;stroke-width:0.8"
     id="use54" />
  <use
     xlink:href="#DejaVuSans-32"
     id="use55"
     transform="matrix(0.1,0,0,-0.1,92.901045,45.362588)" />
  <use
     xlink:href="#m0bf6800c44"
     x="106.26354"
     y="10.999219"
     style="stroke:#000000;stroke-width:0.8"
     id="use56" />
  <use
     xlink:href="#DejaVuSans-33"
     id="use57"
     transform="matrix(0.1,0,0,-0.1,92.901045,14.798438)" />
  <use
     xlink:href="#m823d5be4a8"
     x="106.26354"
     y="188.27129"
     style="stroke:#000000;stroke-width:0.6"
     id="use58" />
  <use
     xlink:href="#m823d5be4a8"
     x="106.26354"
     y="182.15846"
     style="stroke:#000000;stroke-width:0.6"
     id="use59" />
  <use
     xlink:href="#m823d5be4a8"
     x="106.26354"
     y="176.04562"
     style="stroke:#000000;stroke-width:0.6"
     id="use60" />
  <use
     xlink:href="#m823d5be4a8"
     x="106.26354"
     y="169.9328"
     style="stroke:#000000;stroke-width:0.6"
     id="use61" />
  <use
     xlink:href="#m823d5be4a8"
     x="106.26354"
     y="157.70714"
     style="stroke:#000000;stroke-width:0.6"
     id="use62" />
  <use
     xlink:href="#m823d5be4a8"
     x="106.26354"
     y="151.59431"
     style="stroke:#000000;stroke-width:0.6"
     id="use63" />
  <use
     xlink:href="#m823d5be4a8"
     x="106.26354"
     y="145.48148"
     style="stroke:#000000;stroke-width:0.6"
     id="use64" />
  <use
     xlink:href="#m823d5be4a8"
     x="106.26354"
     y="139.36865"
     style="stroke:#000000;stroke-width:0.6"
     id="use65" />
  <use
     xlink:href="#m823d5be4a8"
     x="106.26354"
     y="127.14299"
     style="stroke:#000000;stroke-width:0.6"
     id="use66" />
  <use
     xlink:href="#m823d5be4a8"
     x="106.26354"
     y="121.03016"
     style="stroke:#000000;stroke-width:0.6"
     id="use67" />
  <use
     xlink:href="#m823d5be4a8"
     x="106.26354"
     y="114.91733"
     style="stroke:#000000;stroke-width:0.6"
     id="use68" />
  <use
     xlink:href="#m823d5be4a8"
     x="106.26354"
     y="108.8045"
     style="stroke:#000000;stroke-width:0.6"
     id="use69" />
  <use
     xlink:href="#m823d5be4a8"
     x="106.26354"
     y="96.578842"
     style="stroke:#000000;stroke-width:0.6"
     id="use70" />
  <use
     xlink:href="#m823d5be4a8"
     x="106.26354"
     y="90.466011"
     style="stroke:#000000;stroke-width:0.6"
     id="use71" />
  <use
     xlink:href="#m823d5be4a8"
     x="106.26354"
     y="84.35318"
     style="stroke:#000000;stroke-width:0.6"
     id="use72" />
  <use
     xlink:href="#m823d5be4a8"
     x="106.26354"
     y="78.240349"
     style="stroke:#000000;stroke-width:0.6"
     id="use73" />
  <use
     xlink:href="#m823d5be4a8"
     x="106.26354"
     y="66.014687"
     style="stroke:#000000;stroke-width:0.6"
     id="use74" />
  <use
     xlink:href="#m823d5be4a8"
     x="106.26354"
     y="59.901859"
     style="stroke:#000000;stroke-width:0.6"
     id="use75" />
  <use
     xlink:href="#m823d5be4a8"
     x="106.26354"
     y="53.789028"
     style="stroke:#000000;stroke-width:0.6"
     id="use76" />
  <use
     xlink:href="#m823d5be4a8"
     x="106.26354"
     y="47.676201"
     style="stroke:#000000;stroke-width:0.6"
     id="use77" />
  <use
     xlink:href="#m823d5be4a8"
     x="106.26354"
     y="35.450539"
     style="stroke:#000000;stroke-width:0.6"
     id="use78" />
  <use
     xlink:href="#m823d5be4a8"
     x="106.26354"
     y="29.337709"
     style="stroke:#000000;stroke-width:0.6"
     id="use79" />
  <use
     xlink:href="#m823d5be4a8"
     x="106.26354"
     y="23.224878"
     style="stroke:#000000;stroke-width:0.6"
     id="use80" />
  <use
     xlink:href="#m823d5be4a8"
     x="106.26354"
     y="17.112049"
     style="stroke:#000000;stroke-width:0.6"
     id="use81" />
  <path
     d="M 106.26354,198.05037 V 7.350981"
     style="fill:none;stroke:#000000;stroke-width:0.8;stroke-linecap:square;stroke-linejoin:miter"
     id="path82" />
  <path
     d="M 10.9037,102.69167 H 201.62369"
     style="fill:none;stroke:#000000;stroke-width:0.8;stroke-linecap:square;stroke-linejoin:miter"
     id="path83" />
  <defs
     id="defs83">
    <clipPath
       id="pa8744db0bc">
      <rect
         x="10.9037"
         y="7.350981"
         width="190.719988"
         height="190.699386"
         id="rect83" />
    </clipPath>
  </defs>
  <path
     style="fill:#0000ff;stroke:#abc837;stroke-width:1.1;stroke-linecap:butt;stroke-linejoin:miter;stroke-dasharray:3.30000008,3.30000008;stroke-opacity:1;stroke-dashoffset:0"
     d="M 6.1304281,203.22492 206.39695,2.9584191"
     id="path1" />
  <path
     style="fill:#0000ff;stroke:#abc837;stroke-width:1.1;stroke-linecap:butt;stroke-linejoin:miter;stroke-dasharray:3.30000008,3.30000008;stroke-opacity:1;stroke-dashoffset:0"
     d="M 206.39695,203.22492 6.1304281,2.9584191"
     id="path2" />
</svg>
