<?xml version="1.0" encoding="UTF-8" standalone="no"?>
<svg
   width="161.680466pt"
   height="279.739407pt"
   viewBox="0 0 161.680466 279.739407"
   version="1.1"
   id="svg107"
   sodipodi:docname="p4.svg"
   inkscape:version="1.4 (e7c3feb100, 2024-10-09)"
   xmlns:inkscape="http://www.inkscape.org/namespaces/inkscape"
   xmlns:sodipodi="http://sodipodi.sourceforge.net/DTD/sodipodi-0.dtd"
   xmlns:xlink="http://www.w3.org/1999/xlink"
   xmlns="http://www.w3.org/2000/svg"
   xmlns:svg="http://www.w3.org/2000/svg"
   xmlns:rdf="http://www.w3.org/1999/02/22-rdf-syntax-ns#"
   xmlns:cc="http://creativecommons.org/ns#"
   xmlns:dc="http://purl.org/dc/elements/1.1/">
  <sodipodi:namedview
     id="namedview107"
     pagecolor="#ffffff"
     bordercolor="#666666"
     borderopacity="1.0"
     inkscape:showpageshadow="2"
     inkscape:pageopacity="0.0"
     inkscape:pagecheckerboard="0"
     inkscape:deskcolor="#d1d1d1"
     inkscape:document-units="pt"
     inkscape:zoom="2.2306474"
     inkscape:cx="107.59208"
     inkscape:cy="186.49294"
     inkscape:window-width="1920"
     inkscape:window-height="1013"
     inkscape:window-x="0"
     inkscape:window-y="0"
     inkscape:window-maximized="1"
     inkscape:current-layer="svg107" />
  <metadata
     id="metadata1">
    <rdf:RDF>
      <cc:Work>
        <dc:type
           rdf:resource="http://purl.org/dc/dcmitype/StillImage" />
        <dc:date>2026-03-26T17:46:31.776065</dc:date>
        <dc:format>image/svg+xml</dc:format>
        <dc:creator>
          <cc:Agent>
            <dc:title>Matplotlib v3.10.8, https://matplotlib.org/</dc:title>
          </cc:Agent>
        </dc:creator>
      </cc:Work>
    </rdf:RDF>
  </metadata>
  <defs
     id="defs1">
    <style
       type="text/css"
       id="style1">*{stroke-linejoin: round; stroke-linecap: butt}</style>
    <defs
       id="defs2">
      <path
         id="md926e05451"
         d="M 0,0 V 3.5"
         style="stroke:#000000;stroke-width:0.8" />
    </defs>
    <defs
       id="defs36">
      <path
         id="mba8ce02731"
         d="M 0,0 H -3.5"
         style="stroke:#000000;stroke-width:0.8" />
    </defs>
    <defs
       id="defs73">
      <path
         id="m773f879ec8"
         d="M 0,0 H -2"
         style="stroke:#000000;stroke-width:0.6" />
    </defs>
    <defs
       id="defs20">
      <path
         id="m88023c2c56"
         d="M 0,0 V 2"
         style="stroke:#000000;stroke-width:0.6" />
    </defs>
  </defs>
  <path
     d="m 146.5289,139.473 -0.0835,-6.51399 -0.16003,-4.60534 -0.47914,-8.00006 -0.56931,-6.38748 -1.17548,-9.578 -0.38534,-2.58196 -1.70606,-9.621343 -2.09704,-9.359583 -1.64926,-6.195938 -2.25899,-7.356669 -1.43308,-4.149091 -3.26724,-8.317144 -2.65933,-5.84142 -2.36018,-4.624689 -2.97297,-5.195413 -1.24134,-1.985531 -3.07543,-4.504662 -4.23485,-5.342752 -3.24436,-3.497794 -1.45366,-1.414133 -4.02141,-3.453534 -4.25163,-2.967382 -2.901644,-1.647581 -3.848969,-1.736621 -2.784397,-0.948152 -2.467942,-0.629614 -3.246478,-0.531641 -3.24653,-0.198384 -3.237878,0.132525 -2.217452,0.281542 -3.378083,0.729687 -1.173878,0.339545 -2.373996,0.824318 -3.758607,1.689998 -3.598647,2.076523 -2.391163,1.639211 -2.717872,2.12735 -2.325309,2.054435 -3.616297,3.654149 -4.412485,5.291744 -2.729248,3.788588 -1.803153,2.745392 -1.944984,3.199421 -2.828759,5.146888 -0.848561,1.670881 -1.943419,4.075694 -2.849093,6.697326 -1.967767,5.234922 -2.06692,6.178484 -1.921807,6.551402 -1.924353,7.631408 -2.033892,9.851603 -0.994029,5.896185 -1.121184,8.18594 -0.932115,9.36765 -0.37949,5.50363 -0.373186,9.66248 -0.01281,9.2063 0.122295,4.70497 0.58009,10.36466 0.416929,4.80942 0.967879,8.4584 0.928585,6.33749 1.240126,7.006 0.970751,4.72901 1.365753,5.87597 1.609474,6.06948 2.315328,7.56118 2.001746,5.70651 2.790712,6.98264 2.748938,6.00321 1.484918,2.94303 2.309554,4.21629 3.519243,5.68788 3.082906,4.35005 1.665473,2.13128 4.141857,4.70125 3.341961,3.22516 3.20471,2.65796 3.944663,2.72882 1.547936,0.9154 4.214077,2.06855 3.643099,1.30668 2.872753,0.72532 1.673063,0.30062 3.769995,0.35249 3.786218,-0.0965 4.065228,-0.60742 4.637863,-1.34009 1.759332,-0.69288 3.377977,-1.62359 1.920435,-1.09977 4.36306,-2.99728 3.02252,-2.50511 3.90326,-3.79725 2.48884,-2.77957 2.77545,-3.46009 2.71926,-3.79455 2.95015,-4.62424 3.30329,-5.901 1.68588,-3.35275 2.57808,-5.65319 1.72916,-4.20772 2.7141,-7.43984 1.51372,-4.70115 1.26434,-4.31085 1.96426,-7.5975 1.29425,-5.81905 1.39007,-7.32601 1.22356,-7.93185 1.07965,-9.25332 0.60153,-7.32959 0.43972,-8.92507 0.12598,-8.00185 v 0"
     clip-path="url(#pad07ba50ad)"
     style="fill:#ffaaaa;stroke:#ff0000;stroke-linecap:square"
     id="path105" />
  <g
     id="g2">
    <use
       xlink:href="#md926e05451"
       x="19.341406"
       y="139.47301"
       style="stroke:#000000;stroke-width:0.8"
       id="use2" />
  </g>
  <g
     transform="matrix(0.1,0,0,-0.1,7.2,154.07144)"
     id="g6">
    <defs
       id="defs3">
      <path
         id="DejaVuSans-2212"
         d="M 678,2272 H 4684 V 1741 H 678 Z"
         transform="scale(0.015625)" />
      <path
         id="DejaVuSans-31"
         d="M 794,531 H 1825 V 4091 L 703,3866 v 575 l 1116,225 h 631 V 531 H 3481 V 0 H 794 Z"
         transform="scale(0.015625)" />
      <path
         id="DejaVuSans-2e"
         d="m 684,794 h 660 V 0 H 684 Z"
         transform="scale(0.015625)" />
      <path
         id="DejaVuSans-30"
         d="m 2034,4250 q -487,0 -733,-480 -245,-479 -245,-1442 0,-959 245,-1439 246,-480 733,-480 491,0 736,480 246,480 246,1439 0,963 -246,1442 -245,480 -736,480 z m 0,500 q 785,0 1199,-621 414,-620 414,-1801 0,-1178 -414,-1799 -414,-620 -1199,-620 -784,0 -1198,620 -414,621 -414,1799 0,1181 414,1801 414,621 1198,621 z"
         transform="scale(0.015625)" />
    </defs>
    <use
       xlink:href="#DejaVuSans-2212"
       id="use3" />
    <use
       xlink:href="#DejaVuSans-31"
       transform="translate(83.789062)"
       id="use4" />
    <use
       xlink:href="#DejaVuSans-2e"
       transform="translate(147.41211)"
       id="use5" />
    <use
       xlink:href="#DejaVuSans-30"
       transform="translate(179.19922)"
       id="use6" />
  </g>
  <g
     id="g7">
    <use
       xlink:href="#md926e05451"
       x="51.138283"
       y="139.47301"
       style="stroke:#000000;stroke-width:0.8"
       id="use7" />
  </g>
  <g
     transform="matrix(0.1,0,0,-0.1,38.996874,154.07144)"
     id="g11">
    <defs
       id="defs7">
      <path
         id="DejaVuSans-35"
         d="M 691,4666 H 3169 V 4134 H 1269 V 2991 q 137,47 274,70 138,23 276,23 781,0 1237,-428 457,-428 457,-1159 Q 3513,744 3044,326 2575,-91 1722,-91 1428,-91 1123,-41 819,9 494,109 v 635 q 281,-153 581,-228 300,-75 634,-75 541,0 856,284 316,284 316,772 0,487 -316,771 -315,285 -856,285 -253,0 -505,-56 -251,-56 -513,-175 z"
         transform="scale(0.015625)" />
    </defs>
    <use
       xlink:href="#DejaVuSans-2212"
       id="use8" />
    <use
       xlink:href="#DejaVuSans-30"
       transform="translate(83.789062)"
       id="use9" />
    <use
       xlink:href="#DejaVuSans-2e"
       transform="translate(147.41211)"
       id="use10" />
    <use
       xlink:href="#DejaVuSans-35"
       transform="translate(179.19922)"
       id="use11" />
  </g>
  <g
     id="g12">
    <use
       xlink:href="#md926e05451"
       x="82.935158"
       y="139.47301"
       style="stroke:#000000;stroke-width:0.8"
       id="use12" />
  </g>
  <g
     id="g13">
    <use
       xlink:href="#md926e05451"
       x="114.73203"
       y="139.47301"
       style="stroke:#000000;stroke-width:0.8"
       id="use13" />
  </g>
  <g
     transform="matrix(0.1,0,0,-0.1,106.78047,154.07144)"
     id="g16">
    <use
       xlink:href="#DejaVuSans-30"
       id="use14" />
    <use
       xlink:href="#DejaVuSans-2e"
       transform="translate(63.623047)"
       id="use15" />
    <use
       xlink:href="#DejaVuSans-35"
       transform="translate(95.410156)"
       id="use16" />
  </g>
  <g
     id="g17">
    <use
       xlink:href="#md926e05451"
       x="146.5289"
       y="139.47301"
       style="stroke:#000000;stroke-width:0.8"
       id="use17" />
  </g>
  <g
     transform="matrix(0.1,0,0,-0.1,138.57734,154.07144)"
     id="g20">
    <use
       xlink:href="#DejaVuSans-31"
       id="use18" />
    <use
       xlink:href="#DejaVuSans-2e"
       transform="translate(63.623047)"
       id="use19" />
    <use
       xlink:href="#DejaVuSans-30"
       transform="translate(95.410156)"
       id="use20" />
  </g>
  <g
     id="g21">
    <use
       xlink:href="#m88023c2c56"
       x="25.700781"
       y="139.47301"
       style="stroke:#000000;stroke-width:0.6"
       id="use21" />
  </g>
  <g
     id="g22">
    <use
       xlink:href="#m88023c2c56"
       x="32.060158"
       y="139.47301"
       style="stroke:#000000;stroke-width:0.6"
       id="use22" />
  </g>
  <g
     id="g23">
    <use
       xlink:href="#m88023c2c56"
       x="38.419533"
       y="139.47301"
       style="stroke:#000000;stroke-width:0.6"
       id="use23" />
  </g>
  <g
     id="g24">
    <use
       xlink:href="#m88023c2c56"
       x="44.778908"
       y="139.47301"
       style="stroke:#000000;stroke-width:0.6"
       id="use24" />
  </g>
  <g
     id="g25">
    <use
       xlink:href="#m88023c2c56"
       x="57.497654"
       y="139.47301"
       style="stroke:#000000;stroke-width:0.6"
       id="use25" />
  </g>
  <g
     id="g26">
    <use
       xlink:href="#m88023c2c56"
       x="63.857029"
       y="139.47301"
       style="stroke:#000000;stroke-width:0.6"
       id="use26" />
  </g>
  <g
     id="g27">
    <use
       xlink:href="#m88023c2c56"
       x="70.216408"
       y="139.47301"
       style="stroke:#000000;stroke-width:0.6"
       id="use27" />
  </g>
  <g
     id="g28">
    <use
       xlink:href="#m88023c2c56"
       x="76.575783"
       y="139.47301"
       style="stroke:#000000;stroke-width:0.6"
       id="use28" />
  </g>
  <g
     id="g29">
    <use
       xlink:href="#m88023c2c56"
       x="89.294533"
       y="139.47301"
       style="stroke:#000000;stroke-width:0.6"
       id="use29" />
  </g>
  <g
     id="g30">
    <use
       xlink:href="#m88023c2c56"
       x="95.653908"
       y="139.47301"
       style="stroke:#000000;stroke-width:0.6"
       id="use30" />
  </g>
  <g
     id="g31">
    <use
       xlink:href="#m88023c2c56"
       x="102.01328"
       y="139.47301"
       style="stroke:#000000;stroke-width:0.6"
       id="use31" />
  </g>
  <g
     id="g32">
    <use
       xlink:href="#m88023c2c56"
       x="108.37266"
       y="139.47301"
       style="stroke:#000000;stroke-width:0.6"
       id="use32" />
  </g>
  <g
     id="g33">
    <use
       xlink:href="#m88023c2c56"
       x="121.09141"
       y="139.47301"
       style="stroke:#000000;stroke-width:0.6"
       id="use33" />
  </g>
  <g
     id="g34">
    <use
       xlink:href="#m88023c2c56"
       x="127.45078"
       y="139.47301"
       style="stroke:#000000;stroke-width:0.6"
       id="use34" />
  </g>
  <g
     id="g35">
    <use
       xlink:href="#m88023c2c56"
       x="133.81015"
       y="139.47301"
       style="stroke:#000000;stroke-width:0.6"
       id="use35" />
  </g>
  <g
     id="g36">
    <use
       xlink:href="#m88023c2c56"
       x="140.16953"
       y="139.47301"
       style="stroke:#000000;stroke-width:0.6"
       id="use36" />
  </g>
  <g
     id="g37">
    <use
       xlink:href="#mba8ce02731"
       x="82.935158"
       y="266.66049"
       style="stroke:#000000;stroke-width:0.8"
       id="use37" />
  </g>
  <g
     transform="matrix(0.1,0,0,-0.1,51.652342,270.45972)"
     id="g41">
    <defs
       id="defs37">
      <path
         id="DejaVuSans-32"
         d="M 1228,531 H 3431 V 0 H 469 v 531 q 359,372 979,998 621,627 780,809 303,340 423,576 121,236 121,464 0,372 -261,606 -261,235 -680,235 -297,0 -627,-103 -329,-103 -704,-313 v 638 q 381,153 712,231 332,78 607,78 725,0 1156,-363 431,-362 431,-968 0,-288 -108,-546 -107,-257 -392,-607 -78,-91 -497,-524 Q 1991,1309 1228,531 Z"
         transform="scale(0.015625)" />
    </defs>
    <use
       xlink:href="#DejaVuSans-2212"
       id="use38" />
    <use
       xlink:href="#DejaVuSans-32"
       transform="translate(83.789062)"
       id="use39" />
    <use
       xlink:href="#DejaVuSans-2e"
       transform="translate(147.41211)"
       id="use40" />
    <use
       xlink:href="#DejaVuSans-30"
       transform="translate(179.19922)"
       id="use41" />
  </g>
  <g
     id="g42">
    <use
       xlink:href="#mba8ce02731"
       x="82.935158"
       y="234.86363"
       style="stroke:#000000;stroke-width:0.8"
       id="use42" />
  </g>
  <g
     transform="matrix(0.1,0,0,-0.1,51.652342,238.66285)"
     id="g46">
    <use
       xlink:href="#DejaVuSans-2212"
       id="use43" />
    <use
       xlink:href="#DejaVuSans-31"
       transform="translate(83.789062)"
       id="use44" />
    <use
       xlink:href="#DejaVuSans-2e"
       transform="translate(147.41211)"
       id="use45" />
    <use
       xlink:href="#DejaVuSans-35"
       transform="translate(179.19922)"
       id="use46" />
  </g>
  <g
     id="g47">
    <use
       xlink:href="#mba8ce02731"
       x="82.935158"
       y="203.06676"
       style="stroke:#000000;stroke-width:0.8"
       id="use47" />
  </g>
  <g
     transform="matrix(0.1,0,0,-0.1,51.652342,206.86597)"
     id="g51">
    <use
       xlink:href="#DejaVuSans-2212"
       id="use48" />
    <use
       xlink:href="#DejaVuSans-31"
       transform="translate(83.789062)"
       id="use49" />
    <use
       xlink:href="#DejaVuSans-2e"
       transform="translate(147.41211)"
       id="use50" />
    <use
       xlink:href="#DejaVuSans-30"
       transform="translate(179.19922)"
       id="use51" />
  </g>
  <g
     id="g52">
    <use
       xlink:href="#mba8ce02731"
       x="82.935158"
       y="171.26988"
       style="stroke:#000000;stroke-width:0.8"
       id="use52" />
  </g>
  <g
     transform="matrix(0.1,0,0,-0.1,51.652342,175.0691)"
     id="g56">
    <use
       xlink:href="#DejaVuSans-2212"
       id="use53" />
    <use
       xlink:href="#DejaVuSans-30"
       transform="translate(83.789062)"
       id="use54" />
    <use
       xlink:href="#DejaVuSans-2e"
       transform="translate(147.41211)"
       id="use55" />
    <use
       xlink:href="#DejaVuSans-35"
       transform="translate(179.19922)"
       id="use56" />
  </g>
  <g
     id="g57">
    <use
       xlink:href="#mba8ce02731"
       x="82.935158"
       y="139.47301"
       style="stroke:#000000;stroke-width:0.8"
       id="use57" />
  </g>
  <g
     id="g58">
    <use
       xlink:href="#mba8ce02731"
       x="82.935158"
       y="107.67613"
       style="stroke:#000000;stroke-width:0.8"
       id="use58" />
  </g>
  <g
     transform="matrix(0.1,0,0,-0.1,60.03203,111.47535)"
     id="g61">
    <use
       xlink:href="#DejaVuSans-30"
       id="use59" />
    <use
       xlink:href="#DejaVuSans-2e"
       transform="translate(63.623047)"
       id="use60" />
    <use
       xlink:href="#DejaVuSans-35"
       transform="translate(95.410156)"
       id="use61" />
  </g>
  <g
     id="g62">
    <use
       xlink:href="#mba8ce02731"
       x="82.935158"
       y="75.879257"
       style="stroke:#000000;stroke-width:0.8"
       id="use62" />
  </g>
  <g
     transform="matrix(0.1,0,0,-0.1,60.03203,79.678474)"
     id="g65">
    <use
       xlink:href="#DejaVuSans-31"
       id="use63" />
    <use
       xlink:href="#DejaVuSans-2e"
       transform="translate(63.623047)"
       id="use64" />
    <use
       xlink:href="#DejaVuSans-30"
       transform="translate(95.410156)"
       id="use65" />
  </g>
  <g
     id="g66">
    <use
       xlink:href="#mba8ce02731"
       x="82.935158"
       y="44.082382"
       style="stroke:#000000;stroke-width:0.8"
       id="use66" />
  </g>
  <g
     transform="matrix(0.1,0,0,-0.1,60.03203,47.8816)"
     id="g69">
    <use
       xlink:href="#DejaVuSans-31"
       id="use67" />
    <use
       xlink:href="#DejaVuSans-2e"
       transform="translate(63.623047)"
       id="use68" />
    <use
       xlink:href="#DejaVuSans-35"
       transform="translate(95.410156)"
       id="use69" />
  </g>
  <g
     id="g70">
    <use
       xlink:href="#mba8ce02731"
       x="82.935158"
       y="12.285507"
       style="stroke:#000000;stroke-width:0.8"
       id="use70" />
  </g>
  <g
     transform="matrix(0.1,0,0,-0.1,60.03203,16.084725)"
     id="g73">
    <use
       xlink:href="#DejaVuSans-32"
       id="use71" />
    <use
       xlink:href="#DejaVuSans-2e"
       transform="translate(63.623047)"
       id="use72" />
    <use
       xlink:href="#DejaVuSans-30"
       transform="translate(95.410156)"
       id="use73" />
  </g>
  <g
     id="g74">
    <use
       xlink:href="#m773f879ec8"
       x="82.935158"
       y="260.30112"
       style="stroke:#000000;stroke-width:0.6"
       id="use74" />
  </g>
  <g
     id="g75">
    <use
       xlink:href="#m773f879ec8"
       x="82.935158"
       y="253.94176"
       style="stroke:#000000;stroke-width:0.6"
       id="use75" />
  </g>
  <g
     id="g76">
    <use
       xlink:href="#m773f879ec8"
       x="82.935158"
       y="247.58238"
       style="stroke:#000000;stroke-width:0.6"
       id="use76" />
  </g>
  <g
     id="g77">
    <use
       xlink:href="#m773f879ec8"
       x="82.935158"
       y="241.22301"
       style="stroke:#000000;stroke-width:0.6"
       id="use77" />
  </g>
  <g
     id="g78">
    <use
       xlink:href="#m773f879ec8"
       x="82.935158"
       y="228.50426"
       style="stroke:#000000;stroke-width:0.6"
       id="use78" />
  </g>
  <g
     id="g79">
    <use
       xlink:href="#m773f879ec8"
       x="82.935158"
       y="222.14488"
       style="stroke:#000000;stroke-width:0.6"
       id="use79" />
  </g>
  <g
     id="g80">
    <use
       xlink:href="#m773f879ec8"
       x="82.935158"
       y="215.78551"
       style="stroke:#000000;stroke-width:0.6"
       id="use80" />
  </g>
  <g
     id="g81">
    <use
       xlink:href="#m773f879ec8"
       x="82.935158"
       y="209.42613"
       style="stroke:#000000;stroke-width:0.6"
       id="use81" />
  </g>
  <g
     id="g82">
    <use
       xlink:href="#m773f879ec8"
       x="82.935158"
       y="196.70738"
       style="stroke:#000000;stroke-width:0.6"
       id="use82" />
  </g>
  <g
     id="g83">
    <use
       xlink:href="#m773f879ec8"
       x="82.935158"
       y="190.34801"
       style="stroke:#000000;stroke-width:0.6"
       id="use83" />
  </g>
  <g
     id="g84">
    <use
       xlink:href="#m773f879ec8"
       x="82.935158"
       y="183.98863"
       style="stroke:#000000;stroke-width:0.6"
       id="use84" />
  </g>
  <g
     id="g85">
    <use
       xlink:href="#m773f879ec8"
       x="82.935158"
       y="177.62926"
       style="stroke:#000000;stroke-width:0.6"
       id="use85" />
  </g>
  <g
     id="g86">
    <use
       xlink:href="#m773f879ec8"
       x="82.935158"
       y="164.91051"
       style="stroke:#000000;stroke-width:0.6"
       id="use86" />
  </g>
  <g
     id="g87">
    <use
       xlink:href="#m773f879ec8"
       x="82.935158"
       y="158.55113"
       style="stroke:#000000;stroke-width:0.6"
       id="use87" />
  </g>
  <g
     id="g88">
    <use
       xlink:href="#m773f879ec8"
       x="82.935158"
       y="152.19176"
       style="stroke:#000000;stroke-width:0.6"
       id="use88" />
  </g>
  <g
     id="g89">
    <use
       xlink:href="#m773f879ec8"
       x="82.935158"
       y="145.83238"
       style="stroke:#000000;stroke-width:0.6"
       id="use89" />
  </g>
  <g
     id="g90">
    <use
       xlink:href="#m773f879ec8"
       x="82.935158"
       y="133.11363"
       style="stroke:#000000;stroke-width:0.6"
       id="use90" />
  </g>
  <g
     id="g91">
    <use
       xlink:href="#m773f879ec8"
       x="82.935158"
       y="126.75426"
       style="stroke:#000000;stroke-width:0.6"
       id="use91" />
  </g>
  <g
     id="g92">
    <use
       xlink:href="#m773f879ec8"
       x="82.935158"
       y="120.39488"
       style="stroke:#000000;stroke-width:0.6"
       id="use92" />
  </g>
  <g
     id="g93">
    <use
       xlink:href="#m773f879ec8"
       x="82.935158"
       y="114.03551"
       style="stroke:#000000;stroke-width:0.6"
       id="use93" />
  </g>
  <g
     id="g94">
    <use
       xlink:href="#m773f879ec8"
       x="82.935158"
       y="101.31676"
       style="stroke:#000000;stroke-width:0.6"
       id="use94" />
  </g>
  <g
     id="g95">
    <use
       xlink:href="#m773f879ec8"
       x="82.935158"
       y="94.957382"
       style="stroke:#000000;stroke-width:0.6"
       id="use95" />
  </g>
  <g
     id="g96">
    <use
       xlink:href="#m773f879ec8"
       x="82.935158"
       y="88.598007"
       style="stroke:#000000;stroke-width:0.6"
       id="use96" />
  </g>
  <g
     id="g97">
    <use
       xlink:href="#m773f879ec8"
       x="82.935158"
       y="82.238632"
       style="stroke:#000000;stroke-width:0.6"
       id="use97" />
  </g>
  <g
     id="g98">
    <use
       xlink:href="#m773f879ec8"
       x="82.935158"
       y="69.519882"
       style="stroke:#000000;stroke-width:0.6"
       id="use98" />
  </g>
  <g
     id="g99">
    <use
       xlink:href="#m773f879ec8"
       x="82.935158"
       y="63.160507"
       style="stroke:#000000;stroke-width:0.6"
       id="use99" />
  </g>
  <g
     id="g100">
    <use
       xlink:href="#m773f879ec8"
       x="82.935158"
       y="56.801132"
       style="stroke:#000000;stroke-width:0.6"
       id="use100" />
  </g>
  <g
     id="g101">
    <use
       xlink:href="#m773f879ec8"
       x="82.935158"
       y="50.441757"
       style="stroke:#000000;stroke-width:0.6"
       id="use101" />
  </g>
  <g
     id="g102">
    <use
       xlink:href="#m773f879ec8"
       x="82.935158"
       y="37.723007"
       style="stroke:#000000;stroke-width:0.6"
       id="use102" />
  </g>
  <g
     id="g103">
    <use
       xlink:href="#m773f879ec8"
       x="82.935158"
       y="31.36363"
       style="stroke:#000000;stroke-width:0.6"
       id="use103" />
  </g>
  <g
     id="g104">
    <use
       xlink:href="#m773f879ec8"
       x="82.935158"
       y="25.004255"
       style="stroke:#000000;stroke-width:0.6"
       id="use104" />
  </g>
  <g
     id="g105">
    <use
       xlink:href="#m773f879ec8"
       x="82.935158"
       y="18.644882"
       style="stroke:#000000;stroke-width:0.6"
       id="use105" />
  </g>
  <path
     d="M 82.935155,271.72914 V 7.2"
     style="fill:none;stroke:#000000;stroke-width:0.8;stroke-linecap:square;stroke-linejoin:miter"
     id="path106" />
  <path
     d="M 16.797943,139.473 H 149.07265"
     style="fill:none;stroke:#000000;stroke-width:0.8;stroke-linecap:square;stroke-linejoin:miter"
     id="path107" />
  <defs
     id="defs107">
    <clipPath
       id="pad07ba50ad">
      <rect
         x="16.797943"
         y="7.2"
         width="132.274705"
         height="264.52914"
         id="rect107" />
    </clipPath>
  </defs>
</svg>
