<?xml version="1.0" encoding="UTF-8" standalone="no"?>
<!-- Created with matplotlib (http://matplotlib.org/) -->

<svg
   xmlns:dc="http://purl.org/dc/elements/1.1/"
   xmlns:cc="http://creativecommons.org/ns#"
   xmlns:rdf="http://www.w3.org/1999/02/22-rdf-syntax-ns#"
   xmlns:svg="http://www.w3.org/2000/svg"
   xmlns="http://www.w3.org/2000/svg"
   xmlns:sodipodi="http://sodipodi.sourceforge.net/DTD/sodipodi-0.dtd"
   xmlns:inkscape="http://www.inkscape.org/namespaces/inkscape"
   height="108.11807pt"
   version="1.1"
   viewBox="0 0 411.8 108.11807"
   width="411.79999pt"
   id="svg129"
   sodipodi:docname="cartelas.svg"
   inkscape:version="0.92.4 (5da689c313, 2019-01-14)">
  <metadata
     id="metadata133">
    <rdf:RDF>
      <cc:Work
         rdf:about="">
        <dc:format>image/svg+xml</dc:format>
        <dc:type
           rdf:resource="http://purl.org/dc/dcmitype/StillImage" />
        <dc:title></dc:title>
      </cc:Work>
    </rdf:RDF>
  </metadata>
  <sodipodi:namedview
     pagecolor="#ffffff"
     bordercolor="#666666"
     borderopacity="1"
     objecttolerance="10"
     gridtolerance="10"
     guidetolerance="10"
     inkscape:pageopacity="0"
     inkscape:pageshadow="2"
     inkscape:window-width="1920"
     inkscape:window-height="1010"
     id="namedview131"
     showgrid="false"
     inkscape:zoom="1.151046"
     inkscape:cx="336.74118"
     inkscape:cy="222.23444"
     inkscape:window-x="1920"
     inkscape:window-y="0"
     inkscape:window-maximized="1"
     inkscape:current-layer="svg129" />
  <defs
     id="defs4"
     style="stroke-linecap:butt;stroke-linejoin:round">
    <style
       type="text/css"
       id="style2">
*{stroke-linecap:butt;stroke-linejoin:round;}
  </style>
  </defs>
  <g
     id="matplotlib.axis_1"
     style="stroke-linecap:butt;stroke-linejoin:round"
     transform="translate(0,-42.000117)" />
  <g
     id="matplotlib.axis_2"
     style="stroke-linecap:butt;stroke-linejoin:round"
     transform="translate(0,-42.000117)" />
  <g
     id="matplotlib.axis_3"
     style="stroke-linecap:butt;stroke-linejoin:round"
     transform="translate(0,-42.000117)" />
  <g
     id="matplotlib.axis_4"
     style="stroke-linecap:butt;stroke-linejoin:round"
     transform="translate(0,-42.000117)" />
  <g
     id="matplotlib.axis_5"
     style="stroke-linecap:butt;stroke-linejoin:round"
     transform="translate(0,-42.000117)" />
  <g
     id="matplotlib.axis_6"
     style="stroke-linecap:butt;stroke-linejoin:round"
     transform="translate(0,-42.000117)" />
  <defs
     id="defs127">
    <clipPath
       id="p53d3734d9e"
       style="stroke-linecap:butt;stroke-linejoin:round">
      <rect
         height="127.40966"
         width="122.6"
         x="10.7"
         y="12.008408"
         id="rect118"
         style="stroke-linecap:butt;stroke-linejoin:round" />
    </clipPath>
    <clipPath
       id="p44a70541e7"
       style="stroke-linecap:butt;stroke-linejoin:round">
      <rect
         height="127.40966"
         width="122.6"
         x="151.10001"
         y="12.008408"
         id="rect121"
         style="stroke-linecap:butt;stroke-linejoin:round" />
    </clipPath>
    <clipPath
       id="p4e82d95624"
       style="stroke-linecap:butt;stroke-linejoin:round">
      <rect
         height="127.40966"
         width="122.6"
         x="291.5"
         y="12.008408"
         id="rect124"
         style="stroke-linecap:butt;stroke-linejoin:round" />
    </clipPath>
  </defs>
  <rect
     style="opacity:1;fill:#d3e2bd;fill-opacity:1;stroke:#000000;stroke-width:1.20000005;stroke-linecap:round;stroke-linejoin:round;stroke-miterlimit:4;stroke-dasharray:none;stroke-dashoffset:0;stroke-opacity:1"
     id="rect933"
     width="32.351974"
     height="39.246643"
     x="6.9380927"
     y="9.7805424" />
  <rect
     style="opacity:1;fill:#d3e2bd;fill-opacity:1;stroke:#000000;stroke-width:1.16807747;stroke-linecap:round;stroke-linejoin:round;stroke-miterlimit:4;stroke-dasharray:none;stroke-dashoffset:0;stroke-opacity:1"
     id="rect933-3"
     width="31.635199"
     height="38.028881"
     x="52.648296"
     y="10.398111" />
  <rect
     style="opacity:1;fill:#d3e2bd;fill-opacity:1;stroke:#000000;stroke-width:1.20000005;stroke-linecap:round;stroke-linejoin:round;stroke-miterlimit:4;stroke-dasharray:none;stroke-dashoffset:0;stroke-opacity:1"
     id="rect933-6"
     width="32.351974"
     height="39.246643"
     x="93.917198"
     y="9.7805357" />
  <rect
     style="opacity:1;fill:#d3e2bd;fill-opacity:1;stroke:#000000;stroke-width:1.20000005;stroke-linecap:round;stroke-linejoin:round;stroke-miterlimit:4;stroke-dasharray:none;stroke-dashoffset:0;stroke-opacity:1"
     id="rect933-7"
     width="32.351974"
     height="39.246643"
     x="133.69421"
     y="9.2501793" />
  <rect
     style="opacity:1;fill:#d3e2bd;fill-opacity:1;stroke:#000000;stroke-width:1.20000005;stroke-linecap:round;stroke-linejoin:round;stroke-miterlimit:4;stroke-dasharray:none;stroke-dashoffset:0;stroke-opacity:1"
     id="rect933-5"
     width="32.351974"
     height="39.246643"
     x="174.00169"
     y="9.2501793" />
  <rect
     style="opacity:1;fill:#d3e2bd;fill-opacity:1;stroke:#000000;stroke-width:1.18905103;stroke-linecap:round;stroke-linejoin:round;stroke-miterlimit:4;stroke-dasharray:none;stroke-dashoffset:0;stroke-opacity:1"
     id="rect933-35"
     width="32.132553"
     height="38.796856"
     x="213.2428"
     y="9.7750654" />
  <rect
     style="opacity:1;fill:#d3e2bd;fill-opacity:1;stroke:#000000;stroke-width:1.17397499;stroke-linecap:round;stroke-linejoin:round;stroke-miterlimit:4;stroke-dasharray:none;stroke-dashoffset:0;stroke-opacity:1"
     id="rect933-62"
     width="31.686892"
     height="38.351192"
     x="253.47304"
     y="10.257059" />
  <rect
     style="opacity:1;fill:#d3e2bd;fill-opacity:1;stroke:#000000;stroke-width:1.18115067;stroke-linecap:round;stroke-linejoin:round;stroke-miterlimit:4;stroke-dasharray:none;stroke-dashoffset:0;stroke-opacity:1"
     id="rect933-9"
     width="31.794903"
     height="38.689568"
     x="293.32233"
     y="9.2407551" />
  <rect
     style="opacity:1;fill:#d3e2bd;fill-opacity:1;stroke:#000000;stroke-width:1.17738044;stroke-linecap:round;stroke-linejoin:round;stroke-miterlimit:4;stroke-dasharray:none;stroke-dashoffset:0;stroke-opacity:1"
     id="rect933-1"
     width="31.683487"
     height="38.578159"
     x="333.62878"
     y="8.7085075" />
  <rect
     style="opacity:1;fill:#d3e2bd;fill-opacity:1;stroke:#000000;stroke-width:1.17944872;stroke-linecap:round;stroke-linejoin:round;stroke-miterlimit:4;stroke-dasharray:none;stroke-dashoffset:0;stroke-opacity:1"
     id="rect933-2"
     width="31.796604"
     height="38.576088"
     x="372.87643"
     y="8.7095451" />
  <rect
     style="opacity:1;fill:#d3e2bd;fill-opacity:1;stroke:#000000;stroke-width:1.20000005;stroke-linecap:round;stroke-linejoin:round;stroke-miterlimit:4;stroke-dasharray:none;stroke-dashoffset:0;stroke-opacity:1"
     id="rect933-70"
     width="32.351974"
     height="39.246643"
     x="6.9380927"
     y="61.755978" />
  <rect
     style="opacity:1;fill:#d3e2bd;fill-opacity:1;stroke:#000000;stroke-width:1.17289066;stroke-linecap:round;stroke-linejoin:round;stroke-miterlimit:4;stroke-dasharray:none;stroke-dashoffset:0;stroke-opacity:1"
     id="rect933-93"
     width="31.80895"
     height="38.133488"
     x="52.536472"
     y="62.304611" />
  <rect
     style="opacity:1;fill:#d3e2bd;fill-opacity:1;stroke:#000000;stroke-width:1.1796087;stroke-linecap:round;stroke-linejoin:round;stroke-miterlimit:4;stroke-dasharray:none;stroke-dashoffset:0;stroke-opacity:1"
     id="rect933-93-6"
     width="31.639338"
     height="38.778351"
     x="93.378166"
     y="61.228977" />
  <rect
     style="opacity:1;fill:#d3e2bd;fill-opacity:1;stroke:#000000;stroke-width:1.17289066;stroke-linecap:round;stroke-linejoin:round;stroke-miterlimit:4;stroke-dasharray:none;stroke-dashoffset:0;stroke-opacity:1"
     id="rect933-93-0"
     width="31.80895"
     height="38.133488"
     x="133.69421"
     y="60.695251" />
  <rect
     style="opacity:1;fill:#d3e2bd;fill-opacity:1;stroke:#000000;stroke-width:1.18013012;stroke-linecap:round;stroke-linejoin:round;stroke-miterlimit:4;stroke-dasharray:none;stroke-dashoffset:0;stroke-opacity:1"
     id="rect933-93-62"
     width="32.20895"
     height="38.126247"
     x="173.47484"
     y="60.698875" />
  <rect
     style="opacity:1;fill:#d3e2bd;fill-opacity:1;stroke:#000000;stroke-width:1.18013012;stroke-linecap:round;stroke-linejoin:round;stroke-miterlimit:4;stroke-dasharray:none;stroke-dashoffset:0;stroke-opacity:1"
     id="rect933-93-61"
     width="32.20895"
     height="38.126247"
     x="213.25188"
     y="60.698654" />
  <rect
     style="opacity:1;fill:#d3e2bd;fill-opacity:1;stroke:#000000;stroke-width:1.17289066;stroke-linecap:round;stroke-linejoin:round;stroke-miterlimit:4;stroke-dasharray:none;stroke-dashoffset:0;stroke-opacity:1"
     id="rect933-93-8"
     width="31.80895"
     height="38.133488"
     x="253.53621"
     y="60.145271" />
  <rect
     style="opacity:1;fill:#d3e2bd;fill-opacity:1;stroke:#000000;stroke-width:1.17289066;stroke-linecap:round;stroke-linejoin:round;stroke-miterlimit:4;stroke-dasharray:none;stroke-dashoffset:0;stroke-opacity:1"
     id="rect933-93-7"
     width="31.80895"
     height="38.133488"
     x="295.99649"
     y="60.176926" />
  <rect
     style="opacity:1;fill:#d3e2bd;fill-opacity:1;stroke:#000000;stroke-width:1.17289066;stroke-linecap:round;stroke-linejoin:round;stroke-miterlimit:4;stroke-dasharray:none;stroke-dashoffset:0;stroke-opacity:1"
     id="rect933-93-9"
     width="31.80895"
     height="38.133488"
     x="336.83487"
     y="60.217354" />
  <rect
     style="opacity:1;fill:#d3e2bd;fill-opacity:1;stroke:#000000;stroke-width:1.17765534;stroke-linecap:round;stroke-linejoin:round;stroke-miterlimit:4;stroke-dasharray:none;stroke-dashoffset:0;stroke-opacity:1"
     id="rect933-93-2"
     width="31.689001"
     height="38.589458"
     x="375.01053"
     y="59.106548" />
  <g
     aria-label="2"
     style="font-style:normal;font-weight:normal;font-size:18.6707077px;line-height:1.25;font-family:sans-serif;letter-spacing:0px;word-spacing:0px;fill:#000000;fill-opacity:1;stroke:#000000;stroke-width:0.52500004;stroke-linecap:butt;stroke-linejoin:round;stroke-miterlimit:4;stroke-dasharray:none"
     id="text1069-3"
     transform="translate(-14.334788,-24.40742)">
    <path
       d="m 32.140546,46.855228 q 0.134844,-4.605441 4.366871,-4.605441 1.877443,0 3.049549,1.089125 1.182478,1.078752 1.182478,2.800606 0,2.468682 -2.790234,4.003829 l -1.86707,0.995771 q -1.213596,0.653475 -1.7426,1.275832 -0.518631,0.611984 -0.643102,1.462539 h 6.960025 v 1.618128 H 31.83974 q 0.114099,-2.188622 0.881672,-3.3711 0.777946,-1.182478 2.842097,-2.354584 l 1.721854,-0.975026 q 1.78409,-1.016516 1.78409,-2.613899 0,-1.058006 -0.746829,-1.773717 -0.746828,-0.71571 -1.86707,-0.71571 -0.653475,0 -1.151361,0.217825 -0.487513,0.217824 -0.757201,0.529003 -0.269688,0.311178 -0.446022,0.777946 -0.176334,0.466768 -0.23857,0.829809 -0.05186,0.352669 -0.08298,0.809064 z"
       style="font-style:normal;font-variant:normal;font-weight:normal;font-stretch:normal;font-family:Shado;-inkscape-font-specification:Shado;stroke:#000000;stroke-width:0.52500004;stroke-linecap:butt;stroke-linejoin:round;stroke-miterlimit:4;stroke-dasharray:none"
       id="path1479"
       inkscape:connector-curvature="0" />
  </g>
  <g
     aria-label="8"
     style="font-style:normal;font-weight:normal;font-size:18.6707077px;line-height:1.25;font-family:sans-serif;letter-spacing:0px;word-spacing:0px;fill:#000000;fill-opacity:1;stroke:#000000;stroke-width:0.52500004;stroke-linecap:butt;stroke-linejoin:round;stroke-miterlimit:4;stroke-dasharray:none"
     id="text1069-0-5"
     transform="translate(-14.334788,-24.40742)">
    <path
       d="m 83.152537,48.237065 q 2.292348,1.089124 2.292348,3.308864 0,1.804835 -1.255087,2.945823 -1.244714,1.140988 -3.205138,1.140988 -1.960424,0 -3.194765,-1.140988 -1.234342,-1.140988 -1.234342,-2.966568 0,-2.188622 2.250858,-3.288119 -1.006144,-0.622357 -1.400303,-1.213596 -0.383787,-0.601612 -0.383787,-1.524775 0,-1.545519 1.10987,-2.54129 1.10987,-0.995772 2.852469,-0.995772 1.763345,0 2.873215,0.995772 1.109869,0.985398 1.109869,2.54129 0,0.933536 -0.394159,1.535147 -0.394159,0.591239 -1.421048,1.203224 z M 80.98466,43.434544 q -1.026889,0 -1.659618,0.570494 -0.622357,0.570494 -0.622357,1.514402 0,0.933535 0.622357,1.504029 0.632729,0.570494 1.659618,0.570494 1.047634,0 1.669991,-0.560122 0.63273,-0.570493 0.63273,-1.493656 0,-0.964653 -0.622357,-1.535147 -0.622357,-0.570494 -1.680364,-0.570494 z m 2.001915,6.26506 Q 82.219001,48.97352 80.98466,48.97352 q -1.234341,0 -2.001915,0.726084 -0.757201,0.71571 -0.757201,1.877443 0,1.15136 0.757201,1.887816 0.767574,0.726083 1.98117,0.726083 1.255086,0 2.02266,-0.71571 0.767573,-0.726084 0.767573,-1.898189 0,-1.161733 -0.767573,-1.877443 z"
       style="font-style:normal;font-variant:normal;font-weight:normal;font-stretch:normal;font-family:Shado;-inkscape-font-specification:Shado;stroke:#000000;stroke-width:0.52500004;stroke-linecap:butt;stroke-linejoin:round;stroke-miterlimit:4;stroke-dasharray:none"
       id="path1536"
       inkscape:connector-curvature="0" />
  </g>
  <g
     aria-label="2"
     style="font-style:normal;font-weight:normal;font-size:18.6707077px;line-height:1.25;font-family:sans-serif;letter-spacing:0px;word-spacing:0px;fill:#000000;fill-opacity:1;stroke:#000000;stroke-width:0.52500004;stroke-linecap:butt;stroke-linejoin:round;stroke-miterlimit:4;stroke-dasharray:none"
     id="text1069-2-4"
     transform="translate(-14.334788,-24.40742)">
    <path
       d="m 118.2591,46.239261 q 0.13484,-4.605441 4.36687,-4.605441 1.87744,0 3.04955,1.089125 1.18248,1.078752 1.18248,2.800606 0,2.468682 -2.79024,4.00383 l -1.86707,0.995771 q -1.2136,0.653474 -1.7426,1.275831 -0.51863,0.611985 -0.6431,1.462539 h 6.96002 v 1.618128 h -8.81672 q 0.1141,-2.188622 0.88167,-3.3711 0.77795,-1.182478 2.8421,-2.354584 l 1.72185,-0.975025 q 1.78409,-1.016517 1.78409,-2.6139 0,-1.058006 -0.74682,-1.773717 -0.74683,-0.71571 -1.86708,-0.71571 -0.65347,0 -1.15136,0.217825 -0.48751,0.217825 -0.7572,0.529003 -0.26968,0.311179 -0.44602,0.777946 -0.17633,0.466768 -0.23857,0.829809 -0.0519,0.352669 -0.083,0.809064 z"
       style="font-style:normal;font-variant:normal;font-weight:normal;font-stretch:normal;font-family:Shado;-inkscape-font-specification:Shado;stroke:#000000;stroke-width:0.52500004;stroke-linecap:butt;stroke-linejoin:round;stroke-miterlimit:4;stroke-dasharray:none"
       id="path1533"
       inkscape:connector-curvature="0" />
  </g>
  <g
     aria-label="4"
     style="font-style:normal;font-weight:normal;font-size:18.6707077px;line-height:1.25;font-family:sans-serif;letter-spacing:0px;word-spacing:0px;fill:#000000;fill-opacity:1;stroke:#000000;stroke-width:0.52500004;stroke-linecap:butt;stroke-linejoin:round;stroke-miterlimit:4;stroke-dasharray:none"
     id="text1069-2-9-3"
     transform="translate(-14.334788,-24.40742)">
    <path
       d="m 163.00823,51.542735 h -5.58047 v -1.732227 l 6.01612,-8.339583 h 1.20322 v 8.588526 h 1.9708 v 1.483284 h -1.9708 v 3.17402 h -1.63887 z m 0,-1.483284 v -5.777547 l -4.1283,5.777547 z"
       style="font-style:normal;font-variant:normal;font-weight:normal;font-stretch:normal;font-family:Shado;-inkscape-font-specification:Shado;stroke:#000000;stroke-width:0.52500004;stroke-linecap:butt;stroke-linejoin:round;stroke-miterlimit:4;stroke-dasharray:none"
       id="path1530"
       inkscape:connector-curvature="0" />
  </g>
  <g
     aria-label="6"
     style="font-style:normal;font-weight:normal;font-size:18.6707077px;line-height:1.25;font-family:sans-serif;letter-spacing:0px;word-spacing:0px;fill:#000000;fill-opacity:1;stroke:#000000;stroke-width:0.52500004;stroke-linecap:butt;stroke-linejoin:round;stroke-miterlimit:4;stroke-dasharray:none"
     id="text1069-2-3-7"
     transform="translate(-14.334788,-24.40742)">
    <path
       d="m 198.59456,48.52737 q 0,-1.265459 0.16596,-2.323466 0.16596,-1.058006 0.43565,-1.78409 0.26969,-0.736455 0.65348,-1.296576 0.39416,-0.570494 0.80906,-0.902418 0.4149,-0.342296 0.90242,-0.549749 0.48751,-0.207452 0.90241,-0.28006 0.42528,-0.08298 0.88168,-0.08298 1.5144,0 2.51017,0.923163 1.00614,0.91279 1.23434,2.54129 h -1.63887 q -0.19708,-0.95428 -0.77795,-1.472911 -0.57049,-0.518631 -1.45216,-0.518631 -1.41068,0 -2.16788,1.296577 -0.7572,1.296577 -0.76757,3.713396 1.058,-1.472911 3.03917,-1.472911 1.77372,0 2.91471,1.182478 1.14098,1.172106 1.14098,3.018431 0,1.939679 -1.22396,3.205138 -1.22397,1.255087 -3.11179,1.255087 -4.44985,0 -4.44985,-6.451767 z m 4.53283,-0.746828 q -1.22397,0 -1.99154,0.777946 -0.76757,0.767574 -0.76757,2.001915 0,1.275831 0.76757,2.126386 0.77795,0.850554 1.92931,0.850554 1.13061,0 1.87744,-0.819436 0.74683,-0.819437 0.74683,-2.074523 0,-1.317322 -0.69497,-2.084896 -0.68459,-0.777946 -1.86707,-0.777946 z"
       style="font-style:normal;font-variant:normal;font-weight:normal;font-stretch:normal;font-family:Shado;-inkscape-font-specification:Shado;stroke:#000000;stroke-width:0.52500004;stroke-linecap:butt;stroke-linejoin:round;stroke-miterlimit:4;stroke-dasharray:none"
       id="path1527"
       inkscape:connector-curvature="0" />
  </g>
  <g
     aria-label="9"
     style="font-style:normal;font-weight:normal;font-size:18.6707077px;line-height:1.25;font-family:sans-serif;letter-spacing:0px;word-spacing:0px;fill:#000000;fill-opacity:1;stroke:#000000;stroke-width:0.52500004;stroke-linecap:butt;stroke-linejoin:round;stroke-miterlimit:4;stroke-dasharray:none"
     id="text1069-2-1-6"
     transform="translate(-14.334788,-24.40742)">
    <path
       d="m 246.40242,48.106332 q 0,1.763345 -0.32155,3.101412 -0.31118,1.327695 -0.79869,2.095269 -0.47714,0.757201 -1.14099,1.234341 -0.66385,0.466768 -1.26546,0.611984 -0.59124,0.155589 -1.24471,0.155589 -1.5144,0 -2.52055,-0.91279 -0.99577,-0.923163 -1.22397,-2.541291 h 1.63888 q 0.1867,0.954281 0.76757,1.483284 0.58087,0.529004 1.45217,0.529004 1.41067,0 2.16787,-1.296577 0.76758,-1.30695 0.77795,-3.734142 -0.63273,0.757201 -1.35881,1.10987 -0.72609,0.352669 -1.65962,0.352669 -1.79446,0 -2.93545,-1.172105 -1.14099,-1.172106 -1.14099,-3.018432 0,-1.950051 1.2136,-3.205138 1.22396,-1.265459 3.12215,-1.265459 1.20323,0 2.07453,0.477141 0.88167,0.466767 1.4003,1.34844 0.51863,0.881672 0.7572,2.033032 0.23857,1.15136 0.23857,2.613899 z m -2.57241,-4.169791 q -0.76757,-0.860927 -1.90856,-0.860927 -1.14099,0 -1.89819,0.819436 -0.74683,0.819437 -0.74683,2.074523 0,1.327695 0.69497,2.105641 0.69496,0.777947 1.88781,0.777947 1.20323,0 1.9708,-0.788319 0.77795,-0.788319 0.77795,-2.001915 0,-1.275832 -0.77795,-2.126386 z"
       style="font-style:normal;font-variant:normal;font-weight:normal;font-stretch:normal;font-family:Shado;-inkscape-font-specification:Shado;stroke:#000000;stroke-width:0.52500004;stroke-linecap:butt;stroke-linejoin:round;stroke-miterlimit:4;stroke-dasharray:none"
       id="path1524"
       inkscape:connector-curvature="0" />
  </g>
  <g
     aria-label="9"
     style="font-style:normal;font-weight:normal;font-size:18.6707077px;line-height:1.25;font-family:sans-serif;letter-spacing:0px;word-spacing:0px;fill:#000000;fill-opacity:1;stroke:#000000;stroke-width:0.52500004;stroke-linecap:butt;stroke-linejoin:round;stroke-miterlimit:4;stroke-dasharray:none"
     id="text1069-2-1-9-8"
     transform="translate(-14.334788,-24.40742)">
    <path
       d="m 325.86938,47.405008 q 0,1.763344 -0.32155,3.101412 -0.31117,1.327695 -0.79869,2.095268 -0.47714,0.757201 -1.14099,1.234341 -0.66384,0.466768 -1.26545,0.611985 -0.59124,0.155589 -1.24472,0.155589 -1.5144,0 -2.52054,-0.91279 -0.99577,-0.923163 -1.22397,-2.541291 h 1.63887 q 0.18671,0.954281 0.76757,1.483284 0.58087,0.529003 1.45217,0.529003 1.41068,0 2.16788,-1.296577 0.76757,-1.306949 0.77794,-3.734141 -0.63273,0.757201 -1.35881,1.10987 -0.72608,0.352669 -1.65962,0.352669 -1.79446,0 -2.93545,-1.172106 -1.14099,-1.172105 -1.14099,-3.018431 0,-1.950052 1.2136,-3.205138 1.22397,-1.265459 3.12216,-1.265459 1.20322,0 2.07452,0.47714 0.88167,0.466768 1.4003,1.34844 0.51863,0.881672 0.7572,2.033033 0.23857,1.15136 0.23857,2.613899 z m -2.5724,-4.169792 q -0.76758,-0.860927 -1.90857,-0.860927 -1.14098,0 -1.89818,0.819437 -0.74683,0.819437 -0.74683,2.074523 0,1.327695 0.69496,2.105641 0.69497,0.777946 1.88782,0.777946 1.20322,0 1.9708,-0.788319 0.77794,-0.788318 0.77794,-2.001914 0,-1.275832 -0.77794,-2.126387 z"
       style="font-style:normal;font-variant:normal;font-weight:normal;font-stretch:normal;font-family:Shado;-inkscape-font-specification:Shado;stroke:#000000;stroke-width:0.52500004;stroke-linecap:butt;stroke-linejoin:round;stroke-miterlimit:4;stroke-dasharray:none"
       id="path1518"
       inkscape:connector-curvature="0" />
  </g>
  <g
     aria-label="7"
     style="font-style:normal;font-weight:normal;font-size:18.6707077px;line-height:1.25;font-family:sans-serif;letter-spacing:0px;word-spacing:0px;fill:#000000;fill-opacity:1;stroke:#000000;stroke-width:0.52500004;stroke-linecap:butt;stroke-linejoin:round;stroke-miterlimit:4;stroke-dasharray:none"
     id="text1069-2-1-1-3"
     transform="translate(-14.334788,-24.40742)">
    <path
       d="m 285.99423,42.398553 v 1.400303 q -2.25086,2.97694 -3.54744,5.82941 -1.2862,2.852469 -1.82558,6.016116 h -1.76334 q 0.73646,-3.267373 1.89819,-5.746428 1.1721,-2.489428 3.54743,-5.870901 h -7.1571 v -1.6285 z"
       style="font-style:normal;font-variant:normal;font-weight:normal;font-stretch:normal;font-family:Shado;-inkscape-font-specification:Shado;stroke:#000000;stroke-width:0.52500004;stroke-linecap:butt;stroke-linejoin:round;stroke-miterlimit:4;stroke-dasharray:none"
       id="path1521"
       inkscape:connector-curvature="0" />
  </g>
  <g
     aria-label="3"
     style="font-style:normal;font-weight:normal;font-size:18.6707077px;line-height:1.25;font-family:sans-serif;letter-spacing:0px;word-spacing:0px;fill:#000000;fill-opacity:1;stroke:#000000;stroke-width:0.52500004;stroke-linecap:butt;stroke-linejoin:round;stroke-miterlimit:4;stroke-dasharray:none"
     id="text1069-2-1-4-4"
     transform="translate(-14.334788,-24.40742)">
    <path
       d="m 361.79683,41.559813 q -0.61199,0 -1.06838,0.165962 -0.44602,0.155589 -0.71571,0.414905 -0.26969,0.259315 -0.43565,0.643102 -0.16596,0.383787 -0.2282,0.767573 -0.0622,0.373415 -0.083,0.850555 h -1.63887 q 0.0519,-2.105641 1.09949,-3.194766 1.05801,-1.089124 3.05993,-1.089124 1.88781,0 2.95619,0.975026 1.07875,0.964653 1.07875,2.676134 0,2.001915 -1.85669,2.748743 1.18247,0.404532 1.71148,1.151361 0.529,0.746828 0.529,2.001915 0,1.877443 -1.22397,2.997685 -1.21359,1.120243 -3.257,1.120243 -2.07452,0 -3.15328,-1.058007 -1.06837,-1.058007 -1.21359,-3.215511 h 1.63887 q 0.083,1.452166 0.7572,2.147132 0.6846,0.684592 2.03304,0.684592 1.2862,0 2.01228,-0.705338 0.72609,-0.705337 0.72609,-1.960424 0,-1.192851 -0.69497,-1.794462 -0.68459,-0.611985 -2.0434,-0.611985 l -0.69497,0.01037 h -0.20745 v -1.38993 q 1.76334,-0.03112 2.4998,-0.43565 0.73645,-0.414905 0.73645,-1.628501 0,-1.058007 -0.62235,-1.659618 -0.61199,-0.611985 -1.70111,-0.611985 z"
       style="font-style:normal;font-variant:normal;font-weight:normal;font-stretch:normal;font-family:Shado;-inkscape-font-specification:Shado;stroke:#000000;stroke-width:0.52500004;stroke-linecap:butt;stroke-linejoin:round;stroke-miterlimit:4;stroke-dasharray:none"
       id="path1515"
       inkscape:connector-curvature="0" />
  </g>
  <g
     aria-label="1"
     style="font-style:normal;font-weight:normal;font-size:18.6707077px;line-height:1.25;font-family:sans-serif;letter-spacing:0px;word-spacing:0px;fill:#000000;fill-opacity:1;stroke:#000000;stroke-width:0.52500004;stroke-linecap:butt;stroke-linejoin:round;stroke-miterlimit:4;stroke-dasharray:none"
     id="text1069-2-1-8-2"
     transform="translate(-14.334788,-24.40742)">
    <path
       d="m 35.965044,97.596381 h -2.925078 v -1.161733 q 0.684593,-0.09335 1.099497,-0.165961 0.414905,-0.07261 0.788319,-0.207453 0.383787,-0.145216 0.591239,-0.300806 0.207452,-0.155589 0.404532,-0.446022 0.19708,-0.300806 0.321551,-0.63273 0.134844,-0.342296 0.290433,-0.892044 h 1.06838 v 13.245828 h -1.638873 z"
       style="font-style:normal;font-variant:normal;font-weight:normal;font-stretch:normal;font-family:Shado;-inkscape-font-specification:Shado;stroke:#000000;stroke-width:0.52500004;stroke-linecap:butt;stroke-linejoin:round;stroke-miterlimit:4;stroke-dasharray:none"
       id="path1509"
       inkscape:connector-curvature="0" />
  </g>
  <g
     aria-label="6"
     style="font-style:normal;font-weight:normal;font-size:18.6707077px;line-height:1.25;font-family:sans-serif;letter-spacing:0px;word-spacing:0px;fill:#000000;fill-opacity:1;stroke:#000000;stroke-width:0.52500004;stroke-linecap:butt;stroke-linejoin:round;stroke-miterlimit:4;stroke-dasharray:none"
     id="text1069-2-3-5-6"
     transform="translate(-14.334788,-24.40742)">
    <path
       d="m 76.602494,100.5321 q 0,-1.265455 0.165962,-2.323462 0.165962,-1.058006 0.43565,-1.784089 0.269688,-0.736456 0.653474,-1.296577 0.39416,-0.570494 0.809064,-0.902418 0.414905,-0.342296 0.902418,-0.549749 0.487513,-0.207452 0.902417,-0.28006 0.425278,-0.08298 0.881673,-0.08298 1.514402,0 2.510173,0.923163 1.006143,0.91279 1.234341,2.54129 h -1.638873 q -0.19708,-0.95428 -0.777947,-1.472911 -0.570493,-0.518631 -1.452166,-0.518631 -1.410675,0 -2.167876,1.296577 -0.757201,1.296577 -0.767574,3.713397 1.058007,-1.472912 3.039176,-1.472912 1.773718,0 2.914705,1.182478 1.140988,1.172104 1.140988,3.018434 0,1.93968 -1.223969,3.20513 -1.223968,1.25509 -3.111784,1.25509 -4.449852,0 -4.449852,-6.45177 z m 4.532833,-0.746824 q -1.223969,0 -1.991542,0.777944 -0.767574,0.76758 -0.767574,2.00192 0,1.27583 0.767574,2.12638 0.777946,0.85056 1.929306,0.85056 1.130615,0 1.877443,-0.81944 0.746829,-0.81944 0.746829,-2.07452 0,-1.31732 -0.694965,-2.0849 -0.684593,-0.777944 -1.867071,-0.777944 z"
       style="font-style:normal;font-variant:normal;font-weight:normal;font-stretch:normal;font-family:Shado;-inkscape-font-specification:Shado;stroke:#000000;stroke-width:0.52500004;stroke-linecap:butt;stroke-linejoin:round;stroke-miterlimit:4;stroke-dasharray:none"
       id="path1506"
       inkscape:connector-curvature="0" />
  </g>
  <g
     aria-label="3"
     style="font-style:normal;font-weight:normal;font-size:18.6707077px;line-height:1.25;font-family:sans-serif;letter-spacing:0px;word-spacing:0px;fill:#000000;fill-opacity:1;stroke:#000000;stroke-width:0.52500004;stroke-linecap:butt;stroke-linejoin:round;stroke-miterlimit:4;stroke-dasharray:none"
     id="text1069-2-1-4-3-9"
     transform="translate(-14.334788,-24.40742)">
    <path
       d="m 121.69067,94.175006 q -0.61198,0 -1.06838,0.165962 -0.44602,0.155589 -0.71571,0.414904 -0.26968,0.259316 -0.43565,0.643102 -0.16596,0.383787 -0.22819,0.767574 -0.0622,0.373414 -0.083,0.850554 h -1.63887 q 0.0519,-2.105641 1.0995,-3.194765 1.05801,-1.089125 3.05992,-1.089125 1.88782,0 2.9562,0.975026 1.07875,0.964653 1.07875,2.676135 0,2.001915 -1.8567,2.748743 1.18248,0.404532 1.71148,1.151364 0.529,0.74682 0.529,2.00191 0,1.87744 -1.22396,2.99769 -1.2136,1.12024 -3.25701,1.12024 -2.07452,0 -3.15327,-1.05801 -1.06838,-1.058 -1.2136,-3.21551 h 1.63888 q 0.083,1.45217 0.7572,2.14713 0.68459,0.6846 2.03303,0.6846 1.2862,0 2.01229,-0.70534 0.72608,-0.70534 0.72608,-1.96043 0,-1.19285 -0.69496,-1.79446 -0.6846,-0.611983 -2.04341,-0.611983 l -0.69496,0.01037 h -0.20746 v -1.38993 q 1.76335,-0.03112 2.4998,-0.43565 0.73646,-0.414904 0.73646,-1.6285 0,-1.058007 -0.62236,-1.659619 -0.61198,-0.611984 -1.70111,-0.611984 z"
       style="font-style:normal;font-variant:normal;font-weight:normal;font-stretch:normal;font-family:Shado;-inkscape-font-specification:Shado;stroke:#000000;stroke-width:0.52500004;stroke-linecap:butt;stroke-linejoin:round;stroke-miterlimit:4;stroke-dasharray:none"
       id="path1503"
       inkscape:connector-curvature="0" />
  </g>
  <g
     aria-label="7"
     style="font-style:normal;font-weight:normal;font-size:18.6707077px;line-height:1.25;font-family:sans-serif;letter-spacing:0px;word-spacing:0px;fill:#000000;fill-opacity:1;stroke:#000000;stroke-width:0.52500004;stroke-linecap:butt;stroke-linejoin:round;stroke-miterlimit:4;stroke-dasharray:none"
     id="text1069-2-1-1-1-6"
     transform="translate(-14.334788,-24.40742)">
    <path
       d="m 166.30479,92.565808 v 1.400303 q -2.25086,2.976941 -3.54743,5.82941 -1.28621,2.852469 -1.82558,6.016119 h -1.76335 q 0.73646,-3.26738 1.89819,-5.74643 1.17211,-2.489429 3.54744,-5.870901 h -7.15711 v -1.628501 z"
       style="font-style:normal;font-variant:normal;font-weight:normal;font-stretch:normal;font-family:Shado;-inkscape-font-specification:Shado;stroke:#000000;stroke-width:0.52500004;stroke-linecap:butt;stroke-linejoin:round;stroke-miterlimit:4;stroke-dasharray:none"
       id="path1500"
       inkscape:connector-curvature="0" />
  </g>
  <g
     aria-label="1"
     style="font-style:normal;font-weight:normal;font-size:18.6707077px;line-height:1.25;font-family:sans-serif;letter-spacing:0px;word-spacing:0px;fill:#000000;fill-opacity:1;stroke:#000000;stroke-width:0.52500004;stroke-linecap:butt;stroke-linejoin:round;stroke-miterlimit:4;stroke-dasharray:none"
     id="text1069-2-1-8-6-4"
     transform="translate(-14.334788,-24.40742)">
    <path
       d="m 202.46682,96.871398 h -2.92508 v -1.161733 q 0.68459,-0.09335 1.0995,-0.165962 0.4149,-0.07261 0.78832,-0.207452 0.38378,-0.145216 0.59124,-0.300806 0.20745,-0.155589 0.40453,-0.446022 0.19708,-0.300806 0.32155,-0.63273 0.13484,-0.342296 0.29043,-0.892045 h 1.06838 v 13.245832 h -1.63887 z"
       style="font-style:normal;font-variant:normal;font-weight:normal;font-stretch:normal;font-family:Shado;-inkscape-font-specification:Shado;stroke:#000000;stroke-width:0.52500004;stroke-linecap:butt;stroke-linejoin:round;stroke-miterlimit:4;stroke-dasharray:none"
       id="path1497"
       inkscape:connector-curvature="0" />
  </g>
  <g
     aria-label="6"
     style="font-style:normal;font-weight:normal;font-size:18.6707077px;line-height:1.25;font-family:sans-serif;letter-spacing:0px;word-spacing:0px;fill:#000000;fill-opacity:1;stroke:#000000;stroke-width:0.52500004;stroke-linecap:butt;stroke-linejoin:round;stroke-miterlimit:4;stroke-dasharray:none"
     id="text1069-2-3-2-5"
     transform="translate(-14.334788,-24.40742)">
    <path
       d="m 237.74545,99.610618 q 0,-1.265459 0.16597,-2.323466 0.16596,-1.058006 0.43565,-1.784089 0.26968,-0.736456 0.65347,-1.296577 0.39416,-0.570494 0.80906,-0.902418 0.41491,-0.342296 0.90242,-0.549748 0.48751,-0.207453 0.90242,-0.280061 0.42528,-0.08298 0.88167,-0.08298 1.5144,0 2.51017,0.923163 1.00615,0.91279 1.23435,2.541291 h -1.63888 q -0.19708,-0.954281 -0.77794,-1.472912 -0.5705,-0.518631 -1.45217,-0.518631 -1.41068,0 -2.16788,1.296577 -0.7572,1.296577 -0.76757,3.713397 1.05801,-1.472912 3.03918,-1.472912 1.77371,0 2.9147,1.182478 1.14099,1.172106 1.14099,3.01843 0,1.93968 -1.22397,3.20514 -1.22397,1.25509 -3.11178,1.25509 -4.44986,0 -4.44986,-6.451771 z m 4.53284,-0.746828 q -1.22397,0 -1.99155,0.777946 -0.76757,0.767574 -0.76757,2.001914 0,1.27583 0.76757,2.12639 0.77795,0.85055 1.92931,0.85055 1.13062,0 1.87744,-0.81944 0.74683,-0.81943 0.74683,-2.07452 0,-1.31732 -0.69496,-2.084894 -0.6846,-0.777946 -1.86707,-0.777946 z"
       style="font-style:normal;font-variant:normal;font-weight:normal;font-stretch:normal;font-family:Shado;-inkscape-font-specification:Shado;stroke:#000000;stroke-width:0.52500004;stroke-linecap:butt;stroke-linejoin:round;stroke-miterlimit:4;stroke-dasharray:none"
       id="path1494"
       inkscape:connector-curvature="0" />
  </g>
  <g
     aria-label="6"
     style="font-style:normal;font-weight:normal;font-size:18.6707077px;line-height:1.25;font-family:sans-serif;letter-spacing:0px;word-spacing:0px;fill:#000000;fill-opacity:1;stroke:#000000;stroke-width:0.52500004;stroke-linecap:butt;stroke-linejoin:round;stroke-miterlimit:4;stroke-dasharray:none"
     id="text1069-2-3-1-4"
     transform="translate(-14.334788,-24.40742)">
    <path
       d="m 277.7144,98.573967 q 0,-1.265459 0.16596,-2.323466 0.16597,-1.058007 0.43565,-1.78409 0.26969,-0.736456 0.65348,-1.296577 0.39416,-0.570494 0.80906,-0.902417 0.41491,-0.342297 0.90242,-0.549749 0.48751,-0.207452 0.90242,-0.280061 0.42527,-0.08298 0.88167,-0.08298 1.5144,0 2.51017,0.923163 1.00615,0.91279 1.23434,2.541291 h -1.63887 q -0.19708,-0.954281 -0.77795,-1.472911 -0.57049,-0.518631 -1.45216,-0.518631 -1.41068,0 -2.16788,1.296577 -0.7572,1.296577 -0.76757,3.713396 1.058,-1.472911 3.03917,-1.472911 1.77372,0 2.91471,1.182478 1.14099,1.172105 1.14099,3.018431 0,1.93968 -1.22397,3.20514 -1.22397,1.25508 -3.11179,1.25508 -4.44985,0 -4.44985,-6.451762 z m 4.53283,-0.746829 q -1.22396,0 -1.99154,0.777947 -0.76757,0.767573 -0.76757,2.001915 0,1.27583 0.76757,2.12639 0.77795,0.85055 1.92931,0.85055 1.13061,0 1.87744,-0.81944 0.74683,-0.81943 0.74683,-2.07452 0,-1.317322 -0.69496,-2.084895 -0.6846,-0.777947 -1.86708,-0.777947 z"
       style="font-style:normal;font-variant:normal;font-weight:normal;font-stretch:normal;font-family:Shado;-inkscape-font-specification:Shado;stroke:#000000;stroke-width:0.52500004;stroke-linecap:butt;stroke-linejoin:round;stroke-miterlimit:4;stroke-dasharray:none"
       id="path1491"
       inkscape:connector-curvature="0" />
  </g>
  <g
     aria-label="5"
     style="font-style:normal;font-weight:normal;font-size:18.6707077px;line-height:1.25;font-family:sans-serif;letter-spacing:0px;word-spacing:0px;fill:#000000;fill-opacity:1;stroke:#000000;stroke-width:0.52500004;stroke-linecap:butt;stroke-linejoin:round;stroke-miterlimit:4;stroke-dasharray:none"
     id="text1069-2-3-54-7"
     transform="translate(-14.334788,-24.40742)">
    <path
       d="m 328.4233,91.239438 v 1.6285 h -5.50786 l -0.51863,3.703024 q 1.07875,-0.798691 2.43756,-0.798691 1.90856,0 3.09104,1.223968 1.19285,1.223969 1.19285,3.184391 0,2.09527 -1.26546,3.41259 -1.26546,1.31732 -3.27774,1.31732 -0.60161,0 -1.13062,-0.10372 -0.529,-0.10373 -0.91279,-0.25932 -0.38378,-0.14521 -0.72608,-0.40453 -0.33192,-0.25931 -0.54975,-0.46677 -0.20745,-0.21782 -0.40453,-0.56012 -0.18671,-0.34229 -0.29044,-0.529 -0.0934,-0.19708 -0.19707,-0.53938 -0.0934,-0.35267 -0.1141,-0.44602 -0.0208,-0.10373 -0.0726,-0.36304 h 1.64924 q 0.59124,2.23011 2.70726,2.23011 1.34844,0 2.11601,-0.81944 0.77795,-0.8298 0.77795,-2.25085 0,-1.472914 -0.78832,-2.323469 -0.77795,-0.860927 -2.10564,-0.860927 -0.76758,0 -1.31733,0.280061 -0.53937,0.28006 -1.10987,0.964653 h -1.50402 l 0.98539,-7.21934 z"
       style="font-style:normal;font-variant:normal;font-weight:normal;font-stretch:normal;font-family:Shado;-inkscape-font-specification:Shado;stroke:#000000;stroke-width:0.52500004;stroke-linecap:butt;stroke-linejoin:round;stroke-miterlimit:4;stroke-dasharray:none"
       id="path1488"
       inkscape:connector-curvature="0" />
  </g>
  <g
     aria-label="2"
     style="font-style:normal;font-weight:normal;font-size:18.6707077px;line-height:1.25;font-family:sans-serif;letter-spacing:0px;word-spacing:0px;fill:#000000;fill-opacity:1;stroke:#000000;stroke-width:0.52500004;stroke-linecap:butt;stroke-linejoin:round;stroke-miterlimit:4;stroke-dasharray:none"
     id="text1069-2-3-6-72"
     transform="translate(-14.334788,-24.40742)">
    <path
       d="m 360.89719,96.190445 q 0.13484,-4.605441 4.36687,-4.605441 1.87744,0 3.04955,1.089124 1.18248,1.078752 1.18248,2.800606 0,2.468683 -2.79024,4.00383 l -1.86707,0.995766 q -1.21359,0.65348 -1.7426,1.27584 -0.51863,0.61198 -0.6431,1.46254 h 6.96003 v 1.61812 h -8.81673 q 0.1141,-2.18862 0.88168,-3.3711 0.77794,-1.18247 2.84209,-2.35458 l 1.72186,-0.975026 q 1.78409,-1.016516 1.78409,-2.613899 0,-1.058007 -0.74683,-1.773717 -0.74683,-0.715711 -1.86707,-0.715711 -0.65348,0 -1.15136,0.217825 -0.48752,0.217825 -0.7572,0.529003 -0.26969,0.311179 -0.44603,0.777947 -0.17633,0.466767 -0.23857,0.829809 -0.0519,0.352669 -0.083,0.809064 z"
       style="font-style:normal;font-variant:normal;font-weight:normal;font-stretch:normal;font-family:Shado;-inkscape-font-specification:Shado;stroke:#000000;stroke-width:0.52500004;stroke-linecap:butt;stroke-linejoin:round;stroke-miterlimit:4;stroke-dasharray:none"
       id="path1485"
       inkscape:connector-curvature="0" />
  </g>
  <g
     aria-label="4"
     style="font-style:normal;font-weight:normal;font-size:18.6707077px;line-height:1.25;font-family:sans-serif;letter-spacing:0px;word-spacing:0px;fill:#000000;fill-opacity:1;stroke:#000000;stroke-width:0.52500004;stroke-linecap:butt;stroke-linejoin:round;stroke-miterlimit:4;stroke-dasharray:none"
     id="text1069-2-3-9-2"
     transform="translate(-14.334788,-24.40742)">
    <path
       d="m 404.4192,101.42644 h -5.58047 v -1.732231 l 6.01612,-8.339583 h 1.20322 v 8.588526 h 1.9708 v 1.483288 h -1.9708 v 3.17402 h -1.63887 z m 0,-1.483288 v -5.777547 l -4.1283,5.777547 z"
       style="font-style:normal;font-variant:normal;font-weight:normal;font-stretch:normal;font-family:Shado;-inkscape-font-specification:Shado;stroke:#000000;stroke-width:0.52500004;stroke-linecap:butt;stroke-linejoin:round;stroke-miterlimit:4;stroke-dasharray:none"
       id="path1482"
       inkscape:connector-curvature="0" />
  </g>
  <g
     aria-label="2"
     style="font-style:normal;font-weight:normal;font-size:18.6707077px;line-height:1.25;font-family:sans-serif;letter-spacing:0px;word-spacing:0px;fill:#000000;fill-opacity:1;stroke:#000000;stroke-width:0.52500004;stroke-linecap:butt;stroke-linejoin:round;stroke-miterlimit:4;stroke-dasharray:none"
     id="text1069-2-3-6-7-6"
     transform="translate(-14.334788,-24.40742)">
    <path
       d="m 397.05371,45.287273 q 0.13485,-4.605441 4.36687,-4.605441 1.87745,0 3.04955,1.089125 1.18248,1.078752 1.18248,2.800606 0,2.468682 -2.79023,4.003829 l -1.86707,0.995771 q -1.2136,0.653475 -1.7426,1.275832 -0.51863,0.611984 -0.6431,1.462539 h 6.96002 v 1.618128 h -8.81672 q 0.1141,-2.188622 0.88167,-3.3711 0.77795,-1.182478 2.8421,-2.354584 l 1.72185,-0.975026 q 1.78409,-1.016516 1.78409,-2.613899 0,-1.058006 -0.74683,-1.773717 -0.74683,-0.71571 -1.86707,-0.71571 -0.65347,0 -1.15136,0.217825 -0.48751,0.217824 -0.7572,0.529003 -0.26969,0.311178 -0.44602,0.777946 -0.17634,0.466768 -0.23857,0.829809 -0.0519,0.352669 -0.083,0.809064 z"
       style="font-style:normal;font-variant:normal;font-weight:normal;font-stretch:normal;font-family:Shado;-inkscape-font-specification:Shado;stroke:#000000;stroke-width:0.52500004;stroke-linecap:butt;stroke-linejoin:round;stroke-miterlimit:4;stroke-dasharray:none"
       id="path1512"
       inkscape:connector-curvature="0" />
  </g>
</svg>
