<?xml version="1.0" encoding="UTF-8" standalone="no"?>
<!-- Created with matplotlib (http://matplotlib.org/) -->

<svg
   height="216.338pt"
   version="1.1"
   viewBox="0 0 407.8 216.338"
   width="407.79999pt"
   id="svg194"
   sodipodi:docname="circequiv3.svg"
   inkscape:version="1.2.2 (b0a8486541, 2022-12-01)"
   xmlns:inkscape="http://www.inkscape.org/namespaces/inkscape"
   xmlns:sodipodi="http://sodipodi.sourceforge.net/DTD/sodipodi-0.dtd"
   xmlns:xlink="http://www.w3.org/1999/xlink"
   xmlns="http://www.w3.org/2000/svg"
   xmlns:svg="http://www.w3.org/2000/svg">
  <sodipodi:namedview
     id="namedview196"
     pagecolor="#ffffff"
     bordercolor="#666666"
     borderopacity="1.0"
     inkscape:showpageshadow="2"
     inkscape:pageopacity="0.0"
     inkscape:pagecheckerboard="0"
     inkscape:deskcolor="#d1d1d1"
     inkscape:document-units="pt"
     showgrid="false"
     inkscape:zoom="1.2217514"
     inkscape:cx="254.96184"
     inkscape:cy="132.18728"
     inkscape:window-width="1920"
     inkscape:window-height="1043"
     inkscape:window-x="0"
     inkscape:window-y="0"
     inkscape:window-maximized="1"
     inkscape:current-layer="svg194" />
  <defs
     id="defs4">
    <style
       type="text/css"
       id="style2">
*{stroke-linecap:butt;stroke-linejoin:round;}
  </style>
    <clipPath
       id="p53d3734d9e">
      <rect
         height="127.40966"
         width="122.6"
         x="10.7"
         y="12.008408"
         id="rect118" />
    </clipPath>
    <path
       d="m 12.40625,8.296875 h 16.109375 v 55.625 L 10.984375,60.40625 v 8.984375 l 17.4375,3.515625 H 38.28125 V 8.296875 H 54.390625 V 0 H 12.40625 Z"
       id="DejaVuSans-31-5"
       inkscape:connector-curvature="0"
       style="stroke-linecap:butt;stroke-linejoin:round" />
    <clipPath
       id="p53d3734d9e-3">
      <rect
         height="127.40966"
         width="122.6"
         x="10.7"
         y="12.008408"
         id="rect118-5" />
    </clipPath>
    <path
       d="m 12.40625,8.296875 h 16.109375 v 55.625 L 10.984375,60.40625 v 8.984375 l 17.4375,3.515625 H 38.28125 V 8.296875 H 54.390625 V 0 H 12.40625 Z"
       id="path899-2"
       inkscape:connector-curvature="0"
       style="stroke-linecap:butt;stroke-linejoin:round" />
    <defs
       id="defs39">
      <path
         d="m 12.40625,8.296875 h 16.109375 v 55.625 L 10.984375,60.40625 v 8.984375 l 17.4375,3.515625 H 38.28125 V 8.296875 H 54.390625 V 0 H 12.40625 Z"
         id="DejaVuSans-31" />
    </defs>
    <defs
       id="defs55">
      <path
         d="M 40.578125,39.3125 Q 47.65625,37.796875 51.625,33 q 3.984375,-4.78125 3.984375,-11.8125 0,-10.78125 -7.421875,-16.703125 -7.421875,-5.90625 -21.09375,-5.90625 -4.578125,0 -9.4375,0.90625 -4.859375,0.90625 -10.03125,2.71875 v 9.515625 q 4.09375,-2.390625 8.96875,-3.609375 4.890625,-1.21875 10.21875,-1.21875 9.265625,0 14.125,3.65625 4.859375,3.65625 4.859375,10.640625 0,6.453125 -4.515625,10.078125 -4.515625,3.640625 -12.5625,3.640625 h -8.5 v 8.109375 h 8.890625 q 7.265625,0 11.125,2.90625 3.859375,2.90625 3.859375,8.375 0,5.609375 -3.984375,8.609375 -3.96875,3.015625 -11.390625,3.015625 -4.0625,0 -8.703125,-0.890625 Q 15.375,64.15625 9.8125,62.3125 v 8.78125 q 5.625,1.5625 10.53125,2.34375 4.90625,0.78125 9.25,0.78125 11.234375,0 17.765625,-5.109375 6.546875,-5.09375 6.546875,-13.78125 0,-6.0625 -3.46875,-10.234375 -3.46875,-4.171875 -9.859375,-5.78125 z"
         id="DejaVuSans-33" />
    </defs>
    <defs
       id="defs95">
      <path
         d="m 31.78125,34.625 q -7.03125,0 -11.0625,-3.765625 -4.015625,-3.765625 -4.015625,-10.34375 0,-6.59375 4.015625,-10.359375 4.03125,-3.765625 11.0625,-3.765625 7.03125,0 11.078125,3.78125 4.0625,3.796875 4.0625,10.34375 0,6.578125 -4.03125,10.34375 Q 38.875,34.625 31.78125,34.625 Z m -9.859375,4.1875 Q 15.578125,40.375 12.03125,44.71875 8.5,49.078125 8.5,55.328125 q 0,8.734375 6.21875,13.8125 6.234375,5.078125 17.0625,5.078125 10.890625,0 17.09375,-5.078125 6.203125,-5.078125 6.203125,-13.8125 0,-6.25 -3.546875,-10.609375 Q 48,40.375 41.703125,38.8125 q 7.125,-1.65625 11.09375,-6.5 3.984375,-4.828125 3.984375,-11.796875 0,-10.609375 -6.46875,-16.28125 -6.46875,-5.65625 -18.53125,-5.65625 -12.046875,0 -18.53125,5.65625 -6.46875,5.671875 -6.46875,16.28125 0,6.96875 4,11.796875 4.015625,4.84375 11.140625,6.5 z M 18.3125,54.390625 q 0,-5.65625 3.53125,-8.828125 3.546875,-3.171875 9.9375,-3.171875 6.359375,0 9.9375,3.171875 3.59375,3.171875 3.59375,8.828125 0,5.671875 -3.59375,8.84375 -3.578125,3.171875 -9.9375,3.171875 -6.390625,0 -9.9375,-3.171875 Q 18.3125,60.0625 18.3125,54.390625 Z"
         id="DejaVuSans-38" />
    </defs>
    <defs
       id="defs47">
      <path
         d="M 19.1875,8.296875 H 53.609375 V 0 H 7.328125 v 8.296875 q 5.609375,5.8125 15.296875,15.59375 9.703125,9.796875 12.1875,12.640625 4.734375,5.3125 6.609375,9 1.890625,3.6875 1.890625,7.25 0,5.8125 -4.078125,9.46875 -4.078125,3.671875 -10.625,3.671875 -4.640625,0 -9.796875,-1.609375 -5.140625,-1.609375 -11,-4.890625 v 9.96875 Q 13.765625,71.78125 18.9375,73 q 5.1875,1.21875 9.484375,1.21875 11.328125,0 18.0625,-5.671875 6.734375,-5.65625 6.734375,-15.125 0,-4.5 -1.6875,-8.53125 Q 49.859375,40.875 45.40625,35.40625 44.1875,33.984375 37.640625,27.21875 31.109375,20.453125 19.1875,8.296875 Z"
         id="DejaVuSans-32" />
    </defs>
    <defs
       id="defs71">
      <path
         d="m 10.796875,72.90625 h 38.71875 v -8.3125 h -29.6875 V 46.734375 q 2.140625,0.734375 4.28125,1.09375 2.15625,0.359375 4.3125,0.359375 Q 40.625,48.1875 47.75,41.5 54.890625,34.8125 54.890625,23.390625 54.890625,11.625 47.5625,5.09375 40.234375,-1.421875 26.90625,-1.421875 q -4.59375,0 -9.359375,0.78125 -4.75,0.78125 -9.828125,2.34375 V 11.625 q 4.390625,-2.390625 9.078125,-3.5625 4.6875,-1.171875 9.90625,-1.171875 8.453125,0 13.375,4.4375 4.9375,4.4375 4.9375,12.0625 0,7.609375 -4.9375,12.046875 -4.921875,4.453125 -13.375,4.453125 -3.953125,0 -7.890625,-0.875 -3.921875,-0.875 -8.015625,-2.734375 z"
         id="DejaVuSans-35" />
    </defs>
    <defs
       id="defs87">
      <path
         d="m 8.203125,72.90625 h 46.875 V 68.703125 L 28.609375,0 H 18.3125 L 43.21875,64.59375 H 8.203125 Z"
         id="DejaVuSans-37" />
    </defs>
    <defs
       id="defs79">
      <path
         d="m 33.015625,40.375 q -6.640625,0 -10.53125,-4.546875 -3.875,-4.53125 -3.875,-12.4375 0,-7.859375 3.875,-12.4375 3.890625,-4.5625 10.53125,-4.5625 6.640625,0 10.515625,4.5625 3.875,4.578125 3.875,12.4375 0,7.90625 -3.875,12.4375 Q 39.65625,40.375 33.015625,40.375 Z M 52.59375,71.296875 V 62.3125 q -3.71875,1.75 -7.5,2.671875 -3.78125,0.9375 -7.5,0.9375 -9.765625,0 -14.921875,-6.59375 -5.140625,-6.59375 -5.875,-19.921875 2.875,4.25 7.21875,6.515625 4.359375,2.265625 9.578125,2.265625 10.984375,0 17.359375,-6.671875 6.375,-6.65625 6.375,-18.125 0,-11.234375 -6.640625,-18.03125 -6.640625,-6.78125 -17.671875,-6.78125 -12.65625,0 -19.34375,9.6875 -6.6875,9.703125 -6.6875,28.109375 0,17.28125 8.203125,27.5625 8.203125,10.28125 22.015625,10.28125 3.71875,0 7.5,-0.734375 3.78125,-0.734375 7.890625,-2.1875 z"
         id="DejaVuSans-36" />
    </defs>
    <defs
       id="defs63">
      <path
         d="M 37.796875,64.3125 12.890625,25.390625 h 24.90625 z m -2.59375,8.59375 h 12.40625 V 25.390625 h 10.40625 V 17.1875 H 47.609375 V 0 h -9.8125 V 17.1875 H 4.890625 v 9.515625 z"
         id="DejaVuSans-34" />
    </defs>
    <clipPath
       id="p53d3734d9e-9">
      <rect
         height="127.40966"
         width="122.6"
         x="10.7"
         y="12.008408"
         id="rect118-3" />
    </clipPath>
    <path
       d="m 12.40625,8.296875 h 16.109375 v 55.625 L 10.984375,60.40625 v 8.984375 l 17.4375,3.515625 H 38.28125 V 8.296875 H 54.390625 V 0 H 12.40625 Z"
       id="path899-1"
       inkscape:connector-curvature="0"
       style="stroke-linecap:butt;stroke-linejoin:round" />
    <clipPath
       id="p53d3734d9e-92">
      <rect
         height="127.40966"
         width="122.6"
         x="10.7"
         y="12.008408"
         id="rect118-0" />
    </clipPath>
    <path
       d="m 12.40625,8.296875 h 16.109375 v 55.625 L 10.984375,60.40625 v 8.984375 l 17.4375,3.515625 H 38.28125 V 8.296875 H 54.390625 V 0 H 12.40625 Z"
       id="path899-9"
       inkscape:connector-curvature="0"
       style="stroke-linecap:butt;stroke-linejoin:round" />
    <clipPath
       id="p53d3734d9e-92-8">
      <rect
         height="127.40966"
         width="122.6"
         x="10.7"
         y="12.008408"
         id="rect118-0-9" />
    </clipPath>
    <path
       d="m 12.40625,8.296875 h 16.109375 v 55.625 L 10.984375,60.40625 v 8.984375 l 17.4375,3.515625 H 38.28125 V 8.296875 H 54.390625 V 0 H 12.40625 Z"
       id="path1525-9"
       inkscape:connector-curvature="0"
       style="stroke-linecap:butt;stroke-linejoin:round" />
    <clipPath
       id="p53d3734d9e-92-9">
      <rect
         height="127.40966"
         width="122.6"
         x="10.7"
         y="12.008408"
         id="rect118-0-4" />
    </clipPath>
    <path
       d="m 12.40625,8.296875 h 16.109375 v 55.625 L 10.984375,60.40625 v 8.984375 l 17.4375,3.515625 H 38.28125 V 8.296875 H 54.390625 V 0 H 12.40625 Z"
       id="path1525-6"
       inkscape:connector-curvature="0"
       style="stroke-linecap:butt;stroke-linejoin:round" />
    <clipPath
       id="p53d3734d9e-92-6">
      <rect
         height="127.40966"
         width="122.6"
         x="10.7"
         y="12.008408"
         id="rect118-0-3" />
    </clipPath>
    <path
       d="m 12.40625,8.296875 h 16.109375 v 55.625 L 10.984375,60.40625 v 8.984375 l 17.4375,3.515625 H 38.28125 V 8.296875 H 54.390625 V 0 H 12.40625 Z"
       id="path1525-4"
       inkscape:connector-curvature="0"
       style="stroke-linecap:butt;stroke-linejoin:round" />
    <clipPath
       id="p53d3734d9e-92-5">
      <rect
         height="127.40966"
         width="122.6"
         x="10.7"
         y="12.008408"
         id="rect118-0-6" />
    </clipPath>
    <path
       d="m 12.40625,8.296875 h 16.109375 v 55.625 L 10.984375,60.40625 v 8.984375 l 17.4375,3.515625 H 38.28125 V 8.296875 H 54.390625 V 0 H 12.40625 Z"
       id="path1525-7"
       inkscape:connector-curvature="0"
       style="stroke-linecap:butt;stroke-linejoin:round" />
  </defs>
  <defs
     id="defs192">
    <clipPath
       id="pde6e611a2f">
      <rect
         height="207.93828"
         width="192.8"
         x="10.7"
         y="10.7"
         id="rect186" />
    </clipPath>
    <clipPath
       id="p06ee07b343">
      <rect
         height="207.93828"
         width="192.8"
         x="221.3"
         y="10.7"
         id="rect189" />
    </clipPath>
  </defs>
  <g
     id="g3415"
     transform="translate(0.6065359,-1.4209506)">
    <g
       id="g2598"
       transform="translate(-12,-6)">
      <path
         clip-path="url(#pde6e611a2f)"
         d="m 114.51538,47.793307 c 0,-0.97378 -0.19181,-1.93809 -0.56446,-2.837745 -0.37265,-0.899655 -0.91889,-1.717158 -1.60745,-2.405724 -0.68857,-0.688566 -1.50607,-1.234804 -2.40572,-1.607454 -0.89966,-0.372649 -1.86397,-0.564462 -2.83775,-0.564462 -0.97378,0 -1.93809,0.191813 -2.83775,0.564462 -0.89965,0.37265 -1.71715,0.918888 -2.40572,1.607454 -0.68857,0.688566 -1.2348,1.506069 -1.60745,2.405724 -0.372651,0.899655 -0.564465,1.863965 -0.564465,2.837745 0,0.973779 0.191814,1.93809 0.564465,2.837744 0.37265,0.899655 0.91888,1.717158 1.60745,2.405724 0.68857,0.688566 1.50607,1.234804 2.40572,1.607454 0.89966,0.372649 1.86397,0.564462 2.83775,0.564462 0.97378,0 1.93809,-0.191813 2.83775,-0.564462 0.89965,-0.37265 1.71715,-0.918888 2.40572,-1.607454 0.68856,-0.688566 1.2348,-1.506069 1.60745,-2.405724 0.37265,-0.899654 0.56446,-1.863965 0.56446,-2.837744 m -7.41538,0 m 7.41538,0 z"
         id="path12" />
      <path
         clip-path="url(#pde6e611a2f)"
         d="m 184.8446,69.478291 c 3.03853,-9.351658 0.7514,-20.011668 -6.3577,-29.632288 -7.1091,-9.62062 -18.45973,-17.416367 -31.55205,-21.67032 -13.09232,-4.253953 -26.8574,-4.618795 -38.26364,-1.014173 -11.406242,3.604621 -19.522373,10.884405 -22.560911,20.236063 -3.038537,9.351658 -0.751399,20.011668 6.357699,29.632288 7.109098,9.62062 18.459732,17.416367 31.552052,21.67032 13.09232,4.253953 26.8574,4.618795 38.26364,1.014173 11.40624,-3.604621 19.52237,-10.884405 22.56091,-20.236063 z"
         style="opacity:1;fill:#ffccaa;stroke:#0000ff;stroke-width:1.98406;stroke-linejoin:miter;stroke-dasharray:none"
         id="path105"
         transform="matrix(0.9912625,0.13595641,-0.12128909,0.88432258,5.5050677,-7.0225127)" />
      <path
         clip-path="url(#pde6e611a2f)"
         d="m 166.95007,69.512465 c 0,-0.973779 -0.19181,-1.93809 -0.56446,-2.837745 -0.37265,-0.899654 -0.91889,-1.717157 -1.60745,-2.405724 -0.68857,-0.688566 -1.50607,-1.234804 -2.40573,-1.607453 -0.89965,-0.372649 -1.86396,-0.564462 -2.83774,-0.564462 -0.97378,0 -1.93809,0.191813 -2.83775,0.564462 -0.89965,0.372649 -1.71716,0.918887 -2.40572,1.607453 -0.68857,0.688567 -1.23481,1.50607 -1.60746,2.405724 -0.37264,0.899655 -0.56446,1.863966 -0.56446,2.837745 0,0.97378 0.19182,1.93809 0.56446,2.837745 0.37265,0.899655 0.91889,1.717158 1.60746,2.405724 0.68856,0.688566 1.50607,1.234804 2.40572,1.607453 0.89966,0.37265 1.86397,0.564463 2.83775,0.564463 0.97378,0 1.93809,-0.191813 2.83774,-0.564463 0.89966,-0.372649 1.71716,-0.918887 2.40573,-1.607453 0.68856,-0.688566 1.2348,-1.506069 1.60745,-2.405724 0.37265,-0.899655 0.56446,-1.863965 0.56446,-2.837745 m -7.41538,0 m 7.41538,0 z"
         id="path15" />
      <path
         clip-path="url(#pde6e611a2f)"
         d="m 107.1,196.101 c 19.66583,0 38.52885,-7.81332 52.43469,-21.71916 13.90584,-13.90584 21.71916,-32.76886 21.71916,-52.43469 0,-19.66583 -7.81332,-38.528843 -21.71916,-52.434685 C 145.62885,55.606624 126.76583,47.793307 107.1,47.793307 c -19.66583,0 -38.528846,7.813317 -52.434687,21.719158 -13.905842,13.905842 -21.719159,32.768855 -21.719159,52.434685 0,19.66583 7.813317,38.52885 21.719159,52.43469 C 68.571154,188.28768 87.43417,196.101 107.1,196.101 Z"
         style="fill:none;stroke:#0000ff;stroke-width:1.875;stroke-linejoin:miter;stroke-dasharray:none"
         id="path102" />
      <g
         id="g2399">
        <g
           id="patch_3-3"
           style="fill:#ffccaa;stroke:#0000ff;stroke-width:1.03837;stroke-linecap:butt;stroke-linejoin:round;stroke-dasharray:none"
           transform="matrix(1.8057115,0,0,1.8057115,-22.911228,-2.8943456)">
          <path
             clip-path="url(#p53d3734d9e)"
             d="m 77.444857,28.070737 c 0,-0.715012 -0.140842,-1.423072 -0.414465,-2.083657 -0.273623,-0.660585 -0.674707,-1.260849 -1.180297,-1.766439 -0.505589,-0.50559 -1.105853,-0.906673 -1.766438,-1.180296 C 73.423072,22.766721 72.715012,22.625879 72,22.625879 c -0.715012,0 -1.423072,0.140842 -2.083657,0.414466 -0.660585,0.273623 -1.260849,0.674706 -1.766438,1.180296 -0.50559,0.50559 -0.906674,1.105854 -1.180297,1.766439 -0.273623,0.660585 -0.414465,1.368645 -0.414465,2.083657 0,0.715012 0.140842,1.423071 0.414465,2.083656 0.273623,0.660585 0.674707,1.260849 1.180297,1.766439 0.505589,0.50559 1.105853,0.906673 1.766438,1.180297 0.660585,0.273623 1.368645,0.414465 2.083657,0.414465 0.715012,0 1.423072,-0.140842 2.083657,-0.414465 0.660585,-0.273624 1.260849,-0.674707 1.766438,-1.180297 0.50559,-0.50559 0.906674,-1.105854 1.180297,-1.766439 0.273623,-0.660585 0.414465,-1.368644 0.414465,-2.083656 m -5.444857,0 m 5.444857,0 z"
             id="path12-6"
             inkscape:connector-curvature="0"
             style="fill:#ffccaa;stroke:#0000ff;stroke-width:1.03837;stroke-linecap:butt;stroke-linejoin:round;stroke-dasharray:none" />
        </g>
        <g
           id="patch_3-3-6"
           style="fill:#ffccaa;stroke:#0000ff;stroke-width:1.03837;stroke-linecap:butt;stroke-linejoin:round;stroke-dasharray:none"
           transform="matrix(1.8057115,0,0,1.8057115,29.523459,18.824812)">
          <path
             clip-path="url(#p53d3734d9e-3)"
             d="m 77.444857,28.070737 c 0,-0.715012 -0.140842,-1.423072 -0.414465,-2.083657 -0.273623,-0.660585 -0.674707,-1.260849 -1.180297,-1.766439 -0.505589,-0.50559 -1.105853,-0.906673 -1.766438,-1.180296 C 73.423072,22.766721 72.715012,22.625879 72,22.625879 c -0.715012,0 -1.423072,0.140842 -2.083657,0.414466 -0.660585,0.273623 -1.260849,0.674706 -1.766438,1.180296 -0.50559,0.50559 -0.906674,1.105854 -1.180297,1.766439 -0.273623,0.660585 -0.414465,1.368645 -0.414465,2.083657 0,0.715012 0.140842,1.423071 0.414465,2.083656 0.273623,0.660585 0.674707,1.260849 1.180297,1.766439 0.505589,0.50559 1.105853,0.906673 1.766438,1.180297 0.660585,0.273623 1.368645,0.414465 2.083657,0.414465 0.715012,0 1.423072,-0.140842 2.083657,-0.414465 0.660585,-0.273624 1.260849,-0.674707 1.766438,-1.180297 0.50559,-0.50559 0.906674,-1.105854 1.180297,-1.766439 0.273623,-0.660585 0.414465,-1.368644 0.414465,-2.083656 m -5.444857,0 m 5.444857,0 z"
             id="path12-6-2"
             inkscape:connector-curvature="0"
             style="fill:#ffccaa;stroke:#0000ff;stroke-width:1.03837;stroke-linecap:butt;stroke-linejoin:round;stroke-dasharray:none" />
        </g>
      </g>
      <g
         id="patch_3-3-60"
         style="fill:#ffccaa;stroke:#0000ff;stroke-width:1.03837;stroke-linecap:butt;stroke-linejoin:round;stroke-dasharray:none"
         transform="matrix(1.8057115,0,0,1.8057115,51.242622,71.259497)">
        <path
           clip-path="url(#p53d3734d9e-9)"
           d="m 77.444857,28.070737 c 0,-0.715012 -0.140842,-1.423072 -0.414465,-2.083657 -0.273623,-0.660585 -0.674707,-1.260849 -1.180297,-1.766439 -0.505589,-0.50559 -1.105853,-0.906673 -1.766438,-1.180296 C 73.423072,22.766721 72.715012,22.625879 72,22.625879 c -0.715012,0 -1.423072,0.140842 -2.083657,0.414466 -0.660585,0.273623 -1.260849,0.674706 -1.766438,1.180296 -0.50559,0.50559 -0.906674,1.105854 -1.180297,1.766439 -0.273623,0.660585 -0.414465,1.368645 -0.414465,2.083657 0,0.715012 0.140842,1.423071 0.414465,2.083656 0.273623,0.660585 0.674707,1.260849 1.180297,1.766439 0.505589,0.50559 1.105853,0.906673 1.766438,1.180297 0.660585,0.273623 1.368645,0.414465 2.083657,0.414465 0.715012,0 1.423072,-0.140842 2.083657,-0.414465 0.660585,-0.273624 1.260849,-0.674707 1.766438,-1.180297 0.50559,-0.50559 0.906674,-1.105854 1.180297,-1.766439 0.273623,-0.660585 0.414465,-1.368644 0.414465,-2.083656 m -5.444857,0 m 5.444857,0 z"
           id="path12-6-6"
           inkscape:connector-curvature="0"
           style="fill:#ffccaa;stroke:#0000ff;stroke-width:1.03837;stroke-linecap:butt;stroke-linejoin:round;stroke-dasharray:none" />
      </g>
      <g
         id="patch_3-3-2"
         style="fill:#ffccaa;stroke:#0000ff;stroke-width:1.03837;stroke-linecap:butt;stroke-linejoin:round;stroke-dasharray:none"
         transform="matrix(1.8057115,0,0,1.8057115,29.523462,123.69419)">
        <path
           clip-path="url(#p53d3734d9e-92)"
           d="m 77.444857,28.070737 c 0,-0.715012 -0.140842,-1.423072 -0.414465,-2.083657 -0.273623,-0.660585 -0.674707,-1.260849 -1.180297,-1.766439 -0.505589,-0.50559 -1.105853,-0.906673 -1.766438,-1.180296 C 73.423072,22.766721 72.715012,22.625879 72,22.625879 c -0.715012,0 -1.423072,0.140842 -2.083657,0.414466 -0.660585,0.273623 -1.260849,0.674706 -1.766438,1.180296 -0.50559,0.50559 -0.906674,1.105854 -1.180297,1.766439 -0.273623,0.660585 -0.414465,1.368645 -0.414465,2.083657 0,0.715012 0.140842,1.423071 0.414465,2.083656 0.273623,0.660585 0.674707,1.260849 1.180297,1.766439 0.505589,0.50559 1.105853,0.906673 1.766438,1.180297 0.660585,0.273623 1.368645,0.414465 2.083657,0.414465 0.715012,0 1.423072,-0.140842 2.083657,-0.414465 0.660585,-0.273624 1.260849,-0.674707 1.766438,-1.180297 0.50559,-0.50559 0.906674,-1.105854 1.180297,-1.766439 0.273623,-0.660585 0.414465,-1.368644 0.414465,-2.083656 m -5.444857,0 m 5.444857,0 z"
           id="path12-6-3"
           inkscape:connector-curvature="0"
           style="fill:#ffccaa;stroke:#0000ff;stroke-width:1.03837;stroke-linecap:butt;stroke-linejoin:round;stroke-dasharray:none" />
      </g>
      <g
         id="patch_3-3-2-3"
         style="fill:#ffccaa;stroke:#0000ff;stroke-width:1.03837;stroke-linecap:butt;stroke-linejoin:round;stroke-dasharray:none"
         transform="matrix(1.8057115,0,0,1.8057115,-22.911228,145.41335)">
        <path
           clip-path="url(#p53d3734d9e-92-8)"
           d="m 77.444857,28.070737 c 0,-0.715012 -0.140842,-1.423072 -0.414465,-2.083657 -0.273623,-0.660585 -0.674707,-1.260849 -1.180297,-1.766439 -0.505589,-0.50559 -1.105853,-0.906673 -1.766438,-1.180296 C 73.423072,22.766721 72.715012,22.625879 72,22.625879 c -0.715012,0 -1.423072,0.140842 -2.083657,0.414466 -0.660585,0.273623 -1.260849,0.674706 -1.766438,1.180296 -0.50559,0.50559 -0.906674,1.105854 -1.180297,1.766439 -0.273623,0.660585 -0.414465,1.368645 -0.414465,2.083657 0,0.715012 0.140842,1.423071 0.414465,2.083656 0.273623,0.660585 0.674707,1.260849 1.180297,1.766439 0.505589,0.50559 1.105853,0.906673 1.766438,1.180297 0.660585,0.273623 1.368645,0.414465 2.083657,0.414465 0.715012,0 1.423072,-0.140842 2.083657,-0.414465 0.660585,-0.273624 1.260849,-0.674707 1.766438,-1.180297 0.50559,-0.50559 0.906674,-1.105854 1.180297,-1.766439 0.273623,-0.660585 0.414465,-1.368644 0.414465,-2.083656 m -5.444857,0 m 5.444857,0 z"
           id="path12-6-3-6"
           inkscape:connector-curvature="0"
           style="fill:#ffccaa;stroke:#0000ff;stroke-width:1.03837;stroke-linecap:butt;stroke-linejoin:round;stroke-dasharray:none" />
      </g>
      <g
         id="patch_3-3-2-4"
         style="fill:#ffccaa;stroke:#0000ff;stroke-width:1.03837;stroke-linecap:butt;stroke-linejoin:round;stroke-dasharray:none"
         transform="matrix(1.8057115,0,0,1.8057115,-75.345915,123.69419)">
        <path
           clip-path="url(#p53d3734d9e-92-9)"
           d="m 77.444857,28.070737 c 0,-0.715012 -0.140842,-1.423072 -0.414465,-2.083657 -0.273623,-0.660585 -0.674707,-1.260849 -1.180297,-1.766439 -0.505589,-0.50559 -1.105853,-0.906673 -1.766438,-1.180296 C 73.423072,22.766721 72.715012,22.625879 72,22.625879 c -0.715012,0 -1.423072,0.140842 -2.083657,0.414466 -0.660585,0.273623 -1.260849,0.674706 -1.766438,1.180296 -0.50559,0.50559 -0.906674,1.105854 -1.180297,1.766439 -0.273623,0.660585 -0.414465,1.368645 -0.414465,2.083657 0,0.715012 0.140842,1.423071 0.414465,2.083656 0.273623,0.660585 0.674707,1.260849 1.180297,1.766439 0.505589,0.50559 1.105853,0.906673 1.766438,1.180297 0.660585,0.273623 1.368645,0.414465 2.083657,0.414465 0.715012,0 1.423072,-0.140842 2.083657,-0.414465 0.660585,-0.273624 1.260849,-0.674707 1.766438,-1.180297 0.50559,-0.50559 0.906674,-1.105854 1.180297,-1.766439 0.273623,-0.660585 0.414465,-1.368644 0.414465,-2.083656 m -5.444857,0 m 5.444857,0 z"
           id="path12-6-3-5"
           inkscape:connector-curvature="0"
           style="fill:#ffccaa;stroke:#0000ff;stroke-width:1.03837;stroke-linecap:butt;stroke-linejoin:round;stroke-dasharray:none" />
      </g>
      <g
         id="patch_3-3-2-0"
         style="fill:#ffccaa;stroke:#0000ff;stroke-width:1.03837;stroke-linecap:butt;stroke-linejoin:round;stroke-dasharray:none"
         transform="matrix(1.8057115,0,0,1.8057115,-97.06507,71.259497)">
        <path
           clip-path="url(#p53d3734d9e-92-6)"
           d="m 77.444857,28.070737 c 0,-0.715012 -0.140842,-1.423072 -0.414465,-2.083657 -0.273623,-0.660585 -0.674707,-1.260849 -1.180297,-1.766439 -0.505589,-0.50559 -1.105853,-0.906673 -1.766438,-1.180296 C 73.423072,22.766721 72.715012,22.625879 72,22.625879 c -0.715012,0 -1.423072,0.140842 -2.083657,0.414466 -0.660585,0.273623 -1.260849,0.674706 -1.766438,1.180296 -0.50559,0.50559 -0.906674,1.105854 -1.180297,1.766439 -0.273623,0.660585 -0.414465,1.368645 -0.414465,2.083657 0,0.715012 0.140842,1.423071 0.414465,2.083656 0.273623,0.660585 0.674707,1.260849 1.180297,1.766439 0.505589,0.50559 1.105853,0.906673 1.766438,1.180297 0.660585,0.273623 1.368645,0.414465 2.083657,0.414465 0.715012,0 1.423072,-0.140842 2.083657,-0.414465 0.660585,-0.273624 1.260849,-0.674707 1.766438,-1.180297 0.50559,-0.50559 0.906674,-1.105854 1.180297,-1.766439 0.273623,-0.660585 0.414465,-1.368644 0.414465,-2.083656 m -5.444857,0 m 5.444857,0 z"
           id="path12-6-3-61"
           inkscape:connector-curvature="0"
           style="fill:#ffccaa;stroke:#0000ff;stroke-width:1.03837;stroke-linecap:butt;stroke-linejoin:round;stroke-dasharray:none" />
      </g>
      <g
         id="patch_3-3-2-37"
         style="fill:#ffccaa;stroke:#0000ff;stroke-width:1.03837;stroke-linecap:butt;stroke-linejoin:round;stroke-dasharray:none"
         transform="matrix(1.8057115,0,0,1.8057115,-75.345915,18.824812)">
        <path
           clip-path="url(#p53d3734d9e-92-5)"
           d="m 77.444857,28.070737 c 0,-0.715012 -0.140842,-1.423072 -0.414465,-2.083657 -0.273623,-0.660585 -0.674707,-1.260849 -1.180297,-1.766439 -0.505589,-0.50559 -1.105853,-0.906673 -1.766438,-1.180296 C 73.423072,22.766721 72.715012,22.625879 72,22.625879 c -0.715012,0 -1.423072,0.140842 -2.083657,0.414466 -0.660585,0.273623 -1.260849,0.674706 -1.766438,1.180296 -0.50559,0.50559 -0.906674,1.105854 -1.180297,1.766439 -0.273623,0.660585 -0.414465,1.368645 -0.414465,2.083657 0,0.715012 0.140842,1.423071 0.414465,2.083656 0.273623,0.660585 0.674707,1.260849 1.180297,1.766439 0.505589,0.50559 1.105853,0.906673 1.766438,1.180297 0.660585,0.273623 1.368645,0.414465 2.083657,0.414465 0.715012,0 1.423072,-0.140842 2.083657,-0.414465 0.660585,-0.273624 1.260849,-0.674707 1.766438,-1.180297 0.50559,-0.50559 0.906674,-1.105854 1.180297,-1.766439 0.273623,-0.660585 0.414465,-1.368644 0.414465,-2.083656 m -5.444857,0 m 5.444857,0 z"
           id="path12-6-3-4"
           inkscape:connector-curvature="0"
           style="fill:#ffccaa;stroke:#0000ff;stroke-width:1.03837;stroke-linecap:butt;stroke-linejoin:round;stroke-dasharray:none" />
      </g>
      <use
         xlink:href="#DejaVuSans-31"
         id="use41"
         transform="matrix(0.15,0,0,-0.15,102.19687,53.261275)"
         style="fill:#0000ff" />
      <use
         xlink:href="#DejaVuSans-32"
         id="use49"
         transform="matrix(0.15,0,0,-0.15,154.96437,75.07887)"
         style="fill:#0000ff" />
      <use
         xlink:href="#DejaVuSans-33"
         id="use57"
         transform="matrix(0.15,0,0,-0.15,176.51127,127.40691)"
         style="fill:#0000ff" />
      <use
         xlink:href="#DejaVuSans-34"
         id="use65"
         transform="matrix(0.15,0,0,-0.15,154.81672,179.84981)"
         style="fill:#0000ff" />
      <use
         xlink:href="#DejaVuSans-35"
         id="use73"
         transform="matrix(0.15,0,0,-0.15,102.4043,201.46233)"
         style="fill:#0000ff" />
      <use
         xlink:href="#DejaVuSans-36"
         id="use81"
         transform="matrix(0.15,0,0,-0.15,49.841875,179.84161)"
         style="fill:#0000ff" />
      <use
         xlink:href="#DejaVuSans-37"
         id="use89"
         transform="matrix(0.15,0,0,-0.15,28.200064,127.41512)"
         style="fill:#0000ff" />
      <use
         xlink:href="#DejaVuSans-38"
         id="use97"
         transform="matrix(0.15,0,0,-0.15,49.898125,74.972229)"
         style="fill:#0000ff" />
    </g>
    <g
       id="g3354">
      <path
         clip-path="url(#pde6e611a2f)"
         d="m 114.51538,47.793307 c 0,-0.97378 -0.19181,-1.93809 -0.56446,-2.837745 -0.37265,-0.899655 -0.91889,-1.717158 -1.60745,-2.405724 -0.68857,-0.688566 -1.50607,-1.234804 -2.40572,-1.607454 -0.89966,-0.372649 -1.86397,-0.564462 -2.83775,-0.564462 -0.97378,0 -1.93809,0.191813 -2.83775,0.564462 -0.89965,0.37265 -1.71715,0.918888 -2.40572,1.607454 -0.68857,0.688566 -1.2348,1.506069 -1.60745,2.405724 -0.372651,0.899655 -0.564465,1.863965 -0.564465,2.837745 0,0.973779 0.191814,1.93809 0.564465,2.837744 0.37265,0.899655 0.91888,1.717158 1.60745,2.405724 0.68857,0.688566 1.50607,1.234804 2.40572,1.607454 0.89966,0.372649 1.86397,0.564462 2.83775,0.564462 0.97378,0 1.93809,-0.191813 2.83775,-0.564462 0.89965,-0.37265 1.71715,-0.918888 2.40572,-1.607454 0.68856,-0.688566 1.2348,-1.506069 1.60745,-2.405724 0.37265,-0.899654 0.56446,-1.863965 0.56446,-2.837744 m -7.41538,0 m 7.41538,0 z"
         id="path2401"
         transform="translate(204.38691,-3.2005642)" />
      <path
         clip-path="url(#pde6e611a2f)"
         d="m 184.8446,69.478291 c 3.03853,-9.351658 0.7514,-20.011668 -6.3577,-29.632288 -7.1091,-9.62062 -18.45973,-17.416367 -31.55205,-21.67032 -13.09232,-4.253953 -26.8574,-4.618795 -38.26364,-1.014173 -11.406242,3.604621 -19.522373,10.884405 -22.560911,20.236063 -3.038537,9.351658 -0.751399,20.011668 6.357699,29.632288 7.109098,9.62062 18.459732,17.416367 31.552052,21.67032 13.09232,4.253953 26.8574,4.618795 38.26364,1.014173 11.40624,-3.604621 19.52237,-10.884405 22.56091,-20.236063 z"
         style="opacity:1;fill:#ffccaa;stroke:#0000ff;stroke-width:1.98406;stroke-linejoin:miter;stroke-dasharray:none"
         id="path2403"
         transform="matrix(0.9912625,0.13595641,-0.12128909,0.88432258,209.89198,-10.223077)" />
      <path
         clip-path="url(#pde6e611a2f)"
         d="m 166.95007,69.512465 c 0,-0.973779 -0.19181,-1.93809 -0.56446,-2.837745 -0.37265,-0.899654 -0.91889,-1.717157 -1.60745,-2.405724 -0.68857,-0.688566 -1.50607,-1.234804 -2.40573,-1.607453 -0.89965,-0.372649 -1.86396,-0.564462 -2.83774,-0.564462 -0.97378,0 -1.93809,0.191813 -2.83775,0.564462 -0.89965,0.372649 -1.71716,0.918887 -2.40572,1.607453 -0.68857,0.688567 -1.23481,1.50607 -1.60746,2.405724 -0.37264,0.899655 -0.56446,1.863966 -0.56446,2.837745 0,0.97378 0.19182,1.93809 0.56446,2.837745 0.37265,0.899655 0.91889,1.717158 1.60746,2.405724 0.68856,0.688566 1.50607,1.234804 2.40572,1.607453 0.89966,0.37265 1.86397,0.564463 2.83775,0.564463 0.97378,0 1.93809,-0.191813 2.83774,-0.564463 0.89966,-0.372649 1.71716,-0.918887 2.40573,-1.607453 0.68856,-0.688566 1.2348,-1.506069 1.60745,-2.405724 0.37265,-0.899655 0.56446,-1.863965 0.56446,-2.837745 m -7.41538,0 m 7.41538,0 z"
         id="path2405"
         transform="translate(204.38691,-3.2005642)" />
      <path
         clip-path="url(#pde6e611a2f)"
         d="m 107.1,196.101 c 19.66583,0 38.52885,-7.81332 52.43469,-21.71916 13.90584,-13.90584 21.71916,-32.76886 21.71916,-52.43469 0,-19.66583 -7.81332,-38.528843 -21.71916,-52.434685 C 145.62885,55.606624 126.76583,47.793307 107.1,47.793307 c -19.66583,0 -38.528846,7.813317 -52.434687,21.719158 -13.905842,13.905842 -21.719159,32.768855 -21.719159,52.434685 0,19.66583 7.813317,38.52885 21.719159,52.43469 C 68.571154,188.28768 87.43417,196.101 107.1,196.101 Z"
         style="fill:none;stroke:#0000ff;stroke-width:1.875;stroke-linejoin:miter;stroke-dasharray:none"
         id="path2407"
         transform="translate(204.38691,-3.2005642)" />
      <g
         id="g2411"
         style="fill:#ffccaa;stroke:#0000ff;stroke-width:1.03837;stroke-linecap:butt;stroke-linejoin:round;stroke-dasharray:none"
         transform="matrix(1.8057115,0,0,1.8057115,181.47568,-6.0949098)">
        <path
           clip-path="url(#p53d3734d9e)"
           d="m 77.444857,28.070737 c 0,-0.715012 -0.140842,-1.423072 -0.414465,-2.083657 -0.273623,-0.660585 -0.674707,-1.260849 -1.180297,-1.766439 -0.505589,-0.50559 -1.105853,-0.906673 -1.766438,-1.180296 C 73.423072,22.766721 72.715012,22.625879 72,22.625879 c -0.715012,0 -1.423072,0.140842 -2.083657,0.414466 -0.660585,0.273623 -1.260849,0.674706 -1.766438,1.180296 -0.50559,0.50559 -0.906674,1.105854 -1.180297,1.766439 -0.273623,0.660585 -0.414465,1.368645 -0.414465,2.083657 0,0.715012 0.140842,1.423071 0.414465,2.083656 0.273623,0.660585 0.674707,1.260849 1.180297,1.766439 0.505589,0.50559 1.105853,0.906673 1.766438,1.180297 0.660585,0.273623 1.368645,0.414465 2.083657,0.414465 0.715012,0 1.423072,-0.140842 2.083657,-0.414465 0.660585,-0.273624 1.260849,-0.674707 1.766438,-1.180297 0.50559,-0.50559 0.906674,-1.105854 1.180297,-1.766439 0.273623,-0.660585 0.414465,-1.368644 0.414465,-2.083656 m -5.444857,0 m 5.444857,0 z"
           id="path2409"
           inkscape:connector-curvature="0"
           style="fill:#ffccaa;stroke:#0000ff;stroke-width:1.03837;stroke-linecap:butt;stroke-linejoin:round;stroke-dasharray:none" />
      </g>
      <g
         id="g2415"
         style="fill:#ffccaa;stroke:#0000ff;stroke-width:1.03837;stroke-linecap:butt;stroke-linejoin:round;stroke-dasharray:none"
         transform="matrix(1.8057115,0,0,1.8057115,233.91037,15.624248)">
        <path
           clip-path="url(#p53d3734d9e-3)"
           d="m 77.444857,28.070737 c 0,-0.715012 -0.140842,-1.423072 -0.414465,-2.083657 -0.273623,-0.660585 -0.674707,-1.260849 -1.180297,-1.766439 -0.505589,-0.50559 -1.105853,-0.906673 -1.766438,-1.180296 C 73.423072,22.766721 72.715012,22.625879 72,22.625879 c -0.715012,0 -1.423072,0.140842 -2.083657,0.414466 -0.660585,0.273623 -1.260849,0.674706 -1.766438,1.180296 -0.50559,0.50559 -0.906674,1.105854 -1.180297,1.766439 -0.273623,0.660585 -0.414465,1.368645 -0.414465,2.083657 0,0.715012 0.140842,1.423071 0.414465,2.083656 0.273623,0.660585 0.674707,1.260849 1.180297,1.766439 0.505589,0.50559 1.105853,0.906673 1.766438,1.180297 0.660585,0.273623 1.368645,0.414465 2.083657,0.414465 0.715012,0 1.423072,-0.140842 2.083657,-0.414465 0.660585,-0.273624 1.260849,-0.674707 1.766438,-1.180297 0.50559,-0.50559 0.906674,-1.105854 1.180297,-1.766439 0.273623,-0.660585 0.414465,-1.368644 0.414465,-2.083656 m -5.444857,0 m 5.444857,0 z"
           id="path2413"
           inkscape:connector-curvature="0"
           style="fill:#ffccaa;stroke:#0000ff;stroke-width:1.03837;stroke-linecap:butt;stroke-linejoin:round;stroke-dasharray:none" />
      </g>
      <g
         id="g2421"
         style="fill:#ffccaa;stroke:#0000ff;stroke-width:1.03837;stroke-linecap:butt;stroke-linejoin:round;stroke-dasharray:none"
         transform="matrix(1.8057115,0,0,1.8057115,255.62953,68.058933)">
        <path
           clip-path="url(#p53d3734d9e-9)"
           d="m 77.444857,28.070737 c 0,-0.715012 -0.140842,-1.423072 -0.414465,-2.083657 -0.273623,-0.660585 -0.674707,-1.260849 -1.180297,-1.766439 -0.505589,-0.50559 -1.105853,-0.906673 -1.766438,-1.180296 C 73.423072,22.766721 72.715012,22.625879 72,22.625879 c -0.715012,0 -1.423072,0.140842 -2.083657,0.414466 -0.660585,0.273623 -1.260849,0.674706 -1.766438,1.180296 -0.50559,0.50559 -0.906674,1.105854 -1.180297,1.766439 -0.273623,0.660585 -0.414465,1.368645 -0.414465,2.083657 0,0.715012 0.140842,1.423071 0.414465,2.083656 0.273623,0.660585 0.674707,1.260849 1.180297,1.766439 0.505589,0.50559 1.105853,0.906673 1.766438,1.180297 0.660585,0.273623 1.368645,0.414465 2.083657,0.414465 0.715012,0 1.423072,-0.140842 2.083657,-0.414465 0.660585,-0.273624 1.260849,-0.674707 1.766438,-1.180297 0.50559,-0.50559 0.906674,-1.105854 1.180297,-1.766439 0.273623,-0.660585 0.414465,-1.368644 0.414465,-2.083656 m -5.444857,0 m 5.444857,0 z"
           id="path2419"
           inkscape:connector-curvature="0"
           style="fill:#ffccaa;stroke:#0000ff;stroke-width:1.03837;stroke-linecap:butt;stroke-linejoin:round;stroke-dasharray:none" />
      </g>
      <g
         id="g2425"
         style="fill:#ffccaa;stroke:#0000ff;stroke-width:1.03837;stroke-linecap:butt;stroke-linejoin:round;stroke-dasharray:none"
         transform="matrix(1.8057115,0,0,1.8057115,233.91037,120.49363)">
        <path
           clip-path="url(#p53d3734d9e-92)"
           d="m 77.444857,28.070737 c 0,-0.715012 -0.140842,-1.423072 -0.414465,-2.083657 -0.273623,-0.660585 -0.674707,-1.260849 -1.180297,-1.766439 -0.505589,-0.50559 -1.105853,-0.906673 -1.766438,-1.180296 C 73.423072,22.766721 72.715012,22.625879 72,22.625879 c -0.715012,0 -1.423072,0.140842 -2.083657,0.414466 -0.660585,0.273623 -1.260849,0.674706 -1.766438,1.180296 -0.50559,0.50559 -0.906674,1.105854 -1.180297,1.766439 -0.273623,0.660585 -0.414465,1.368645 -0.414465,2.083657 0,0.715012 0.140842,1.423071 0.414465,2.083656 0.273623,0.660585 0.674707,1.260849 1.180297,1.766439 0.505589,0.50559 1.105853,0.906673 1.766438,1.180297 0.660585,0.273623 1.368645,0.414465 2.083657,0.414465 0.715012,0 1.423072,-0.140842 2.083657,-0.414465 0.660585,-0.273624 1.260849,-0.674707 1.766438,-1.180297 0.50559,-0.50559 0.906674,-1.105854 1.180297,-1.766439 0.273623,-0.660585 0.414465,-1.368644 0.414465,-2.083656 m -5.444857,0 m 5.444857,0 z"
           id="path2423"
           inkscape:connector-curvature="0"
           style="fill:#ffccaa;stroke:#0000ff;stroke-width:1.03837;stroke-linecap:butt;stroke-linejoin:round;stroke-dasharray:none" />
      </g>
      <g
         id="g2429"
         style="fill:#ffccaa;stroke:#0000ff;stroke-width:1.03837;stroke-linecap:butt;stroke-linejoin:round;stroke-dasharray:none"
         transform="matrix(1.8057115,0,0,1.8057115,181.47568,142.21279)">
        <path
           clip-path="url(#p53d3734d9e-92-8)"
           d="m 77.444857,28.070737 c 0,-0.715012 -0.140842,-1.423072 -0.414465,-2.083657 -0.273623,-0.660585 -0.674707,-1.260849 -1.180297,-1.766439 -0.505589,-0.50559 -1.105853,-0.906673 -1.766438,-1.180296 C 73.423072,22.766721 72.715012,22.625879 72,22.625879 c -0.715012,0 -1.423072,0.140842 -2.083657,0.414466 -0.660585,0.273623 -1.260849,0.674706 -1.766438,1.180296 -0.50559,0.50559 -0.906674,1.105854 -1.180297,1.766439 -0.273623,0.660585 -0.414465,1.368645 -0.414465,2.083657 0,0.715012 0.140842,1.423071 0.414465,2.083656 0.273623,0.660585 0.674707,1.260849 1.180297,1.766439 0.505589,0.50559 1.105853,0.906673 1.766438,1.180297 0.660585,0.273623 1.368645,0.414465 2.083657,0.414465 0.715012,0 1.423072,-0.140842 2.083657,-0.414465 0.660585,-0.273624 1.260849,-0.674707 1.766438,-1.180297 0.50559,-0.50559 0.906674,-1.105854 1.180297,-1.766439 0.273623,-0.660585 0.414465,-1.368644 0.414465,-2.083656 m -5.444857,0 m 5.444857,0 z"
           id="path2427"
           inkscape:connector-curvature="0"
           style="fill:#ffccaa;stroke:#0000ff;stroke-width:1.03837;stroke-linecap:butt;stroke-linejoin:round;stroke-dasharray:none" />
      </g>
      <g
         id="g2433"
         style="fill:#ffccaa;stroke:#0000ff;stroke-width:1.03837;stroke-linecap:butt;stroke-linejoin:round;stroke-dasharray:none"
         transform="matrix(1.8057115,0,0,1.8057115,129.04099,120.49363)">
        <path
           clip-path="url(#p53d3734d9e-92-9)"
           d="m 77.444857,28.070737 c 0,-0.715012 -0.140842,-1.423072 -0.414465,-2.083657 -0.273623,-0.660585 -0.674707,-1.260849 -1.180297,-1.766439 -0.505589,-0.50559 -1.105853,-0.906673 -1.766438,-1.180296 C 73.423072,22.766721 72.715012,22.625879 72,22.625879 c -0.715012,0 -1.423072,0.140842 -2.083657,0.414466 -0.660585,0.273623 -1.260849,0.674706 -1.766438,1.180296 -0.50559,0.50559 -0.906674,1.105854 -1.180297,1.766439 -0.273623,0.660585 -0.414465,1.368645 -0.414465,2.083657 0,0.715012 0.140842,1.423071 0.414465,2.083656 0.273623,0.660585 0.674707,1.260849 1.180297,1.766439 0.505589,0.50559 1.105853,0.906673 1.766438,1.180297 0.660585,0.273623 1.368645,0.414465 2.083657,0.414465 0.715012,0 1.423072,-0.140842 2.083657,-0.414465 0.660585,-0.273624 1.260849,-0.674707 1.766438,-1.180297 0.50559,-0.50559 0.906674,-1.105854 1.180297,-1.766439 0.273623,-0.660585 0.414465,-1.368644 0.414465,-2.083656 m -5.444857,0 m 5.444857,0 z"
           id="path2431"
           inkscape:connector-curvature="0"
           style="fill:#ffccaa;stroke:#0000ff;stroke-width:1.03837;stroke-linecap:butt;stroke-linejoin:round;stroke-dasharray:none" />
      </g>
      <g
         id="g2437"
         style="fill:#ffccaa;stroke:#0000ff;stroke-width:1.03837;stroke-linecap:butt;stroke-linejoin:round;stroke-dasharray:none"
         transform="matrix(1.8057115,0,0,1.8057115,107.32184,68.058933)">
        <path
           clip-path="url(#p53d3734d9e-92-6)"
           d="m 77.444857,28.070737 c 0,-0.715012 -0.140842,-1.423072 -0.414465,-2.083657 -0.273623,-0.660585 -0.674707,-1.260849 -1.180297,-1.766439 -0.505589,-0.50559 -1.105853,-0.906673 -1.766438,-1.180296 C 73.423072,22.766721 72.715012,22.625879 72,22.625879 c -0.715012,0 -1.423072,0.140842 -2.083657,0.414466 -0.660585,0.273623 -1.260849,0.674706 -1.766438,1.180296 -0.50559,0.50559 -0.906674,1.105854 -1.180297,1.766439 -0.273623,0.660585 -0.414465,1.368645 -0.414465,2.083657 0,0.715012 0.140842,1.423071 0.414465,2.083656 0.273623,0.660585 0.674707,1.260849 1.180297,1.766439 0.505589,0.50559 1.105853,0.906673 1.766438,1.180297 0.660585,0.273623 1.368645,0.414465 2.083657,0.414465 0.715012,0 1.423072,-0.140842 2.083657,-0.414465 0.660585,-0.273624 1.260849,-0.674707 1.766438,-1.180297 0.50559,-0.50559 0.906674,-1.105854 1.180297,-1.766439 0.273623,-0.660585 0.414465,-1.368644 0.414465,-2.083656 m -5.444857,0 m 5.444857,0 z"
           id="path2435"
           inkscape:connector-curvature="0"
           style="fill:#ffccaa;stroke:#0000ff;stroke-width:1.03837;stroke-linecap:butt;stroke-linejoin:round;stroke-dasharray:none" />
      </g>
      <g
         id="g2441"
         style="fill:#ffccaa;stroke:#0000ff;stroke-width:1.03837;stroke-linecap:butt;stroke-linejoin:round;stroke-dasharray:none"
         transform="matrix(1.8057115,0,0,1.8057115,129.04099,15.624248)">
        <path
           clip-path="url(#p53d3734d9e-92-5)"
           d="m 77.444857,28.070737 c 0,-0.715012 -0.140842,-1.423072 -0.414465,-2.083657 -0.273623,-0.660585 -0.674707,-1.260849 -1.180297,-1.766439 -0.505589,-0.50559 -1.105853,-0.906673 -1.766438,-1.180296 C 73.423072,22.766721 72.715012,22.625879 72,22.625879 c -0.715012,0 -1.423072,0.140842 -2.083657,0.414466 -0.660585,0.273623 -1.260849,0.674706 -1.766438,1.180296 -0.50559,0.50559 -0.906674,1.105854 -1.180297,1.766439 -0.273623,0.660585 -0.414465,1.368645 -0.414465,2.083657 0,0.715012 0.140842,1.423071 0.414465,2.083656 0.273623,0.660585 0.674707,1.260849 1.180297,1.766439 0.505589,0.50559 1.105853,0.906673 1.766438,1.180297 0.660585,0.273623 1.368645,0.414465 2.083657,0.414465 0.715012,0 1.423072,-0.140842 2.083657,-0.414465 0.660585,-0.273624 1.260849,-0.674707 1.766438,-1.180297 0.50559,-0.50559 0.906674,-1.105854 1.180297,-1.766439 0.273623,-0.660585 0.414465,-1.368644 0.414465,-2.083656 m -5.444857,0 m 5.444857,0 z"
           id="path2439"
           inkscape:connector-curvature="0"
           style="fill:#ffccaa;stroke:#0000ff;stroke-width:1.03837;stroke-linecap:butt;stroke-linejoin:round;stroke-dasharray:none" />
      </g>
      <use
         xlink:href="#DejaVuSans-31"
         id="use2443"
         transform="matrix(0.15,0,0,-0.15,359.01847,71.779868)"
         style="fill:#0000ff" />
      <use
         xlink:href="#DejaVuSans-32"
         id="use2445"
         transform="matrix(0.15,0,0,-0.15,306.9166,50.159148)"
         style="fill:#0000ff" />
      <use
         xlink:href="#DejaVuSans-33"
         id="use2447"
         transform="matrix(0.15,0,0,-0.15,380.89818,124.20635)"
         style="fill:#0000ff" />
      <use
         xlink:href="#DejaVuSans-34"
         id="use2449"
         transform="matrix(0.15,0,0,-0.15,359.20363,176.64925)"
         style="fill:#0000ff" />
      <use
         xlink:href="#DejaVuSans-35"
         id="use2451"
         transform="matrix(0.15,0,0,-0.15,306.79121,198.26177)"
         style="fill:#0000ff" />
      <use
         xlink:href="#DejaVuSans-36"
         id="use2453"
         transform="matrix(0.15,0,0,-0.15,254.22878,176.64105)"
         style="fill:#0000ff" />
      <use
         xlink:href="#DejaVuSans-37"
         id="use2455"
         transform="matrix(0.15,0,0,-0.15,232.58697,124.21456)"
         style="fill:#0000ff" />
      <use
         xlink:href="#DejaVuSans-38"
         id="use2457"
         transform="matrix(0.15,0,0,-0.15,254.28503,71.771665)"
         style="fill:#0000ff" />
    </g>
  </g>
</svg>
