<?xml version="1.0" encoding="UTF-8" standalone="no"?>
<!-- Created with matplotlib (http://matplotlib.org/) -->

<svg
   height="231.118pt"
   version="1.1"
   viewBox="0 0 241.76402 231.11799"
   width="241.76401pt"
   id="svg129"
   sodipodi:docname="circequiv.svg"
   inkscape:version="1.2.2 (b0a8486541, 2022-12-01)"
   xmlns:inkscape="http://www.inkscape.org/namespaces/inkscape"
   xmlns:sodipodi="http://sodipodi.sourceforge.net/DTD/sodipodi-0.dtd"
   xmlns:xlink="http://www.w3.org/1999/xlink"
   xmlns="http://www.w3.org/2000/svg"
   xmlns:svg="http://www.w3.org/2000/svg"
   xmlns:rdf="http://www.w3.org/1999/02/22-rdf-syntax-ns#"
   xmlns:cc="http://creativecommons.org/ns#"
   xmlns:dc="http://purl.org/dc/elements/1.1/">
  <metadata
     id="metadata133">
    <rdf:RDF>
      <cc:Work
         rdf:about="">
        <dc:format>image/svg+xml</dc:format>
        <dc:type
           rdf:resource="http://purl.org/dc/dcmitype/StillImage" />
      </cc:Work>
    </rdf:RDF>
  </metadata>
  <sodipodi:namedview
     pagecolor="#ffffff"
     bordercolor="#666666"
     borderopacity="1"
     objecttolerance="10"
     gridtolerance="10"
     guidetolerance="10"
     inkscape:pageopacity="0"
     inkscape:pageshadow="2"
     inkscape:window-width="1920"
     inkscape:window-height="1043"
     id="namedview131"
     showgrid="false"
     inkscape:zoom="1.6278249"
     inkscape:cx="250.94837"
     inkscape:cy="172.93015"
     inkscape:window-x="0"
     inkscape:window-y="0"
     inkscape:window-maximized="1"
     inkscape:current-layer="svg129"
     inkscape:showpageshadow="2"
     inkscape:pagecheckerboard="0"
     inkscape:deskcolor="#d1d1d1"
     inkscape:document-units="pt" />
  <defs
     id="defs4">
    <style
       type="text/css"
       id="style2">
*{stroke-linecap:butt;stroke-linejoin:round;}
  </style>
    <clipPath
       id="p53d3734d9e-3">
      <rect
         height="127.40966"
         width="122.6"
         x="10.7"
         y="12.008408"
         id="rect118-6" />
    </clipPath>
    <clipPath
       id="p53d3734d9e-35">
      <rect
         height="127.40966"
         width="122.6"
         x="10.7"
         y="12.008408"
         id="rect118-62" />
    </clipPath>
    <clipPath
       id="p53d3734d9e-36">
      <rect
         height="127.40966"
         width="122.6"
         x="10.7"
         y="12.008408"
         id="rect118-7" />
    </clipPath>
    <clipPath
       id="clipPath4860">
      <rect
         height="127.40966"
         width="122.6"
         x="10.7"
         y="12.008408"
         id="rect4858" />
    </clipPath>
    <clipPath
       id="p53d3734d9e-3-5">
      <rect
         height="127.40966"
         width="122.6"
         x="10.7"
         y="12.008408"
         id="rect118-6-3" />
    </clipPath>
    <clipPath
       id="p53d3734d9e-35-5">
      <rect
         height="127.40966"
         width="122.6"
         x="10.7"
         y="12.008408"
         id="rect118-62-6" />
    </clipPath>
    <path
       d="m 12.40625,8.296875 h 16.109375 v 55.625 L 10.984375,60.40625 v 8.984375 l 17.4375,3.515625 H 38.28125 V 8.296875 H 54.390625 V 0 H 12.40625 Z"
       id="DejaVuSans-31-0"
       inkscape:connector-curvature="0"
       style="stroke-linecap:butt;stroke-linejoin:round" />
    <path
       d="M 40.578125,39.3125 Q 47.65625,37.796875 51.625,33 q 3.984375,-4.78125 3.984375,-11.8125 0,-10.78125 -7.421875,-16.703125 -7.421875,-5.90625 -21.09375,-5.90625 -4.578125,0 -9.4375,0.90625 -4.859375,0.90625 -10.03125,2.71875 v 9.515625 q 4.09375,-2.390625 8.96875,-3.609375 4.890625,-1.21875 10.21875,-1.21875 9.265625,0 14.125,3.65625 4.859375,3.65625 4.859375,10.640625 0,6.453125 -4.515625,10.078125 -4.515625,3.640625 -12.5625,3.640625 h -8.5 v 8.109375 h 8.890625 q 7.265625,0 11.125,2.90625 3.859375,2.90625 3.859375,8.375 0,5.609375 -3.984375,8.609375 -3.96875,3.015625 -11.390625,3.015625 -4.0625,0 -8.703125,-0.890625 Q 15.375,64.15625 9.8125,62.3125 v 8.78125 q 5.625,1.5625 10.53125,2.34375 4.90625,0.78125 9.25,0.78125 11.234375,0 17.765625,-5.109375 6.546875,-5.09375 6.546875,-13.78125 0,-6.0625 -3.46875,-10.234375 -3.46875,-4.171875 -9.859375,-5.78125 z"
       id="DejaVuSans-33-0"
       inkscape:connector-curvature="0"
       style="stroke-linecap:butt;stroke-linejoin:round" />
    <path
       d="M 19.1875,8.296875 H 53.609375 V 0 H 7.328125 v 8.296875 q 5.609375,5.8125 15.296875,15.59375 9.703125,9.796875 12.1875,12.640625 4.734375,5.3125 6.609375,9 1.890625,3.6875 1.890625,7.25 0,5.8125 -4.078125,9.46875 -4.078125,3.671875 -10.625,3.671875 -4.640625,0 -9.796875,-1.609375 -5.140625,-1.609375 -11,-4.890625 v 9.96875 Q 13.765625,71.78125 18.9375,73 q 5.1875,1.21875 9.484375,1.21875 11.328125,0 18.0625,-5.671875 6.734375,-5.65625 6.734375,-15.125 0,-4.5 -1.6875,-8.53125 Q 49.859375,40.875 45.40625,35.40625 44.1875,33.984375 37.640625,27.21875 31.109375,20.453125 19.1875,8.296875 Z"
       id="DejaVuSans-32-9"
       inkscape:connector-curvature="0"
       style="stroke-linecap:butt;stroke-linejoin:round" />
  </defs>
  <g
     id="matplotlib.axis_1"
     style="stroke-linecap:butt;stroke-linejoin:round" />
  <g
     id="matplotlib.axis_2"
     style="stroke-linecap:butt;stroke-linejoin:round" />
  <g
     id="matplotlib.axis_3"
     style="stroke-linecap:butt;stroke-linejoin:round" />
  <g
     id="matplotlib.axis_4"
     style="stroke-linecap:butt;stroke-linejoin:round" />
  <g
     id="matplotlib.axis_5"
     style="stroke-linecap:butt;stroke-linejoin:round" />
  <g
     id="matplotlib.axis_6"
     style="stroke-linecap:butt;stroke-linejoin:round" />
  <defs
     id="defs127">
    <clipPath
       id="p53d3734d9e">
      <rect
         height="127.40966"
         width="122.6"
         x="10.7"
         y="12.008408"
         id="rect118" />
    </clipPath>
    <clipPath
       id="p44a70541e7">
      <rect
         height="127.40966"
         width="122.6"
         x="151.10001"
         y="12.008408"
         id="rect121" />
    </clipPath>
    <clipPath
       id="p4e82d95624">
      <rect
         height="127.40966"
         width="122.6"
         x="291.5"
         y="12.008408"
         id="rect124" />
    </clipPath>
  </defs>
  <g
     id="g1953"
     style="stroke-linecap:butt;stroke-linejoin:round"
     transform="matrix(0.8028329,0,0,0.8028329,63.07803,110.1596)">
    <path
       d="M 10.7,139.41807 H 133.3 V 12.008408 H 10.7 Z"
       style="fill:#ffffff;stroke-linecap:butt;stroke-linejoin:round"
       id="path1951"
       inkscape:connector-curvature="0" />
  </g>
  <g
     id="g1957"
     style="stroke-width:3.26967168;stroke-linecap:butt;stroke-linejoin:round;stroke-dasharray:none;stroke:#0066ff"
     transform="matrix(0.8028329,0,0,0.8028329,63.07803,110.1596)">
    <path
       clip-path="url(#p53d3734d9e)"
       d="m 72,136.96788 c 14.43993,0 28.29038,-5.73704 38.50095,-15.94762 10.21058,-10.21057 15.94762,-24.061022 15.94762,-38.500952 0,-14.43993 -5.73704,-28.290382 -15.94762,-38.500954 C 100.29038,33.807782 86.43993,28.070737 72,28.070737 c -14.43993,0 -28.290382,5.737045 -38.500954,15.947617 -10.210573,10.210572 -15.947618,24.061024 -15.947618,38.500954 0,14.43993 5.737045,28.290382 15.947618,38.500952 C 43.709618,131.23084 57.56007,136.96788 72,136.96788 Z"
       style="fill:none;stroke:#0066ff;stroke-width:3.26967168;stroke-linecap:butt;stroke-linejoin:miter;stroke-dasharray:none"
       id="path1955"
       inkscape:connector-curvature="0" />
  </g>
  <g
     id="g1961"
     style="fill:#ffccaa;stroke:#0066ff;stroke-width:1.4537206;stroke-linecap:butt;stroke-linejoin:round;stroke-dasharray:none"
     transform="matrix(1.8057115,0,0,1.8057115,-9.12923,82.00806)">
    <path
       clip-path="url(#p53d3734d9e)"
       d="m 77.444857,28.070737 c 0,-0.715012 -0.140842,-1.423072 -0.414465,-2.083657 -0.273623,-0.660585 -0.674707,-1.260849 -1.180297,-1.766439 -0.505589,-0.50559 -1.105853,-0.906673 -1.766438,-1.180296 C 73.423072,22.766721 72.715012,22.625879 72,22.625879 c -0.715012,0 -1.423072,0.140842 -2.083657,0.414466 -0.660585,0.273623 -1.260849,0.674706 -1.766438,1.180296 -0.50559,0.50559 -0.906674,1.105854 -1.180297,1.766439 -0.273623,0.660585 -0.414465,1.368645 -0.414465,2.083657 0,0.715012 0.140842,1.423071 0.414465,2.083656 0.273623,0.660585 0.674707,1.260849 1.180297,1.766439 0.505589,0.50559 1.105853,0.906673 1.766438,1.180297 0.660585,0.273623 1.368645,0.414465 2.083657,0.414465 0.715012,0 1.423072,-0.140842 2.083657,-0.414465 0.660585,-0.273624 1.260849,-0.674707 1.766438,-1.180297 0.50559,-0.50559 0.906674,-1.105854 1.180297,-1.766439 0.273623,-0.660585 0.414465,-1.368644 0.414465,-2.083656 m -5.444857,0 m 5.444857,0 z"
       id="path1959"
       inkscape:connector-curvature="0"
       style="fill:#ffccaa;stroke:#0066ff;stroke-width:1.4537206;stroke-linecap:butt;stroke-linejoin:round;stroke-dasharray:none" />
  </g>
  <g
     id="g1965"
     style="fill:#ffccaa;stroke:#0066ff;stroke-width:1.4537206;stroke-linecap:butt;stroke-linejoin:round;stroke-dasharray:none"
     transform="matrix(1.8057115,0,0,1.8057115,28.72743,147.57771)">
    <path
       clip-path="url(#p53d3734d9e-3)"
       d="m 77.444857,28.070737 c 0,-0.715012 -0.140842,-1.423072 -0.414465,-2.083657 -0.273623,-0.660585 -0.674707,-1.260849 -1.180297,-1.766439 -0.505589,-0.50559 -1.105853,-0.906673 -1.766438,-1.180296 C 73.423072,22.766721 72.715012,22.625879 72,22.625879 c -0.715012,0 -1.423072,0.140842 -2.083657,0.414466 -0.660585,0.273623 -1.260849,0.674706 -1.766438,1.180296 -0.50559,0.50559 -0.906674,1.105854 -1.180297,1.766439 -0.273623,0.660585 -0.414465,1.368645 -0.414465,2.083657 0,0.715012 0.140842,1.423071 0.414465,2.083656 0.273623,0.660585 0.674707,1.260849 1.180297,1.766439 0.505589,0.50559 1.105853,0.906673 1.766438,1.180297 0.660585,0.273623 1.368645,0.414465 2.083657,0.414465 0.715012,0 1.423072,-0.140842 2.083657,-0.414465 0.660585,-0.273624 1.260849,-0.674707 1.766438,-1.180297 0.50559,-0.50559 0.906674,-1.105854 1.180297,-1.766439 0.273623,-0.660585 0.414465,-1.368644 0.414465,-2.083656 m -5.444857,0 m 5.444857,0 z"
       id="path1963"
       inkscape:connector-curvature="0"
       style="fill:#ffccaa;stroke:#0066ff;stroke-width:1.4537206;stroke-linecap:butt;stroke-linejoin:round;stroke-dasharray:none" />
  </g>
  <g
     id="g1969"
     style="fill:#ffccaa;stroke:#0066ff;stroke-width:1.4537206;stroke-linecap:butt;stroke-linejoin:round;stroke-dasharray:none"
     transform="matrix(1.8057115,0,0,1.8057115,-46.98589,147.57771)">
    <path
       clip-path="url(#p53d3734d9e-35)"
       d="m 77.444857,28.070737 c 0,-0.715012 -0.140842,-1.423072 -0.414465,-2.083657 -0.273623,-0.660585 -0.674707,-1.260849 -1.180297,-1.766439 -0.505589,-0.50559 -1.105853,-0.906673 -1.766438,-1.180296 C 73.423072,22.766721 72.715012,22.625879 72,22.625879 c -0.715012,0 -1.423072,0.140842 -2.083657,0.414466 -0.660585,0.273623 -1.260849,0.674706 -1.766438,1.180296 -0.50559,0.50559 -0.906674,1.105854 -1.180297,1.766439 -0.273623,0.660585 -0.414465,1.368645 -0.414465,2.083657 0,0.715012 0.140842,1.423071 0.414465,2.083656 0.273623,0.660585 0.674707,1.260849 1.180297,1.766439 0.505589,0.50559 1.105853,0.906673 1.766438,1.180297 0.660585,0.273623 1.368645,0.414465 2.083657,0.414465 0.715012,0 1.423072,-0.140842 2.083657,-0.414465 0.660585,-0.273624 1.260849,-0.674707 1.766438,-1.180297 0.50559,-0.50559 0.906674,-1.105854 1.180297,-1.766439 0.273623,-0.660585 0.414465,-1.368644 0.414465,-2.083656 m -5.444857,0 m 5.444857,0 z"
       id="path1967"
       inkscape:connector-curvature="0"
       style="fill:#ffccaa;stroke:#0066ff;stroke-width:1.4537206;stroke-linecap:butt;stroke-linejoin:round;stroke-dasharray:none" />
  </g>
  <g
     id="g1979"
     style="stroke-linecap:butt;stroke-linejoin:round;fill:#000080"
     transform="matrix(1.0035411,0,0,1.0035411,145.66413,82.62836)">
    <!-- 3 -->
    <defs
       id="defs1973">
      <path
         d="M 40.578125,39.3125 Q 47.65625,37.796875 51.625,33 q 3.984375,-4.78125 3.984375,-11.8125 0,-10.78125 -7.421875,-16.703125 -7.421875,-5.90625 -21.09375,-5.90625 -4.578125,0 -9.4375,0.90625 -4.859375,0.90625 -10.03125,2.71875 v 9.515625 q 4.09375,-2.390625 8.96875,-3.609375 4.890625,-1.21875 10.21875,-1.21875 9.265625,0 14.125,3.65625 4.859375,3.65625 4.859375,10.640625 0,6.453125 -4.515625,10.078125 -4.515625,3.640625 -12.5625,3.640625 h -8.5 v 8.109375 h 8.890625 q 7.265625,0 11.125,2.90625 3.859375,2.90625 3.859375,8.375 0,5.609375 -3.984375,8.609375 -3.96875,3.015625 -11.390625,3.015625 -4.0625,0 -8.703125,-0.890625 Q 15.375,64.15625 9.8125,62.3125 v 8.78125 q 5.625,1.5625 10.53125,2.34375 4.90625,0.78125 9.25,0.78125 11.234375,0 17.765625,-5.109375 6.546875,-5.09375 6.546875,-13.78125 0,-6.0625 -3.46875,-10.234375 -3.46875,-4.171875 -9.859375,-5.78125 z"
         id="path1971"
         inkscape:connector-curvature="0"
         style="stroke-linecap:butt;stroke-linejoin:round" />
    </defs>
    <g
       style="fill:#000080;stroke-linecap:butt;stroke-linejoin:round"
       transform="matrix(0.15,0,0,-0.15,8.285817,120.68873)"
       id="g1977">
      <use
         xlink:href="#DejaVuSans-33"
         id="use1975"
         style="stroke-linecap:butt;stroke-linejoin:round;fill:#000080"
         x="0"
         y="0"
         width="100%"
         height="100%" />
    </g>
  </g>
  <g
     id="g1989"
     style="stroke-linecap:butt;stroke-linejoin:round;fill:#000080"
     transform="matrix(1.0035411,0,0,1.0035411,-10.32171,17.16573)">
    <!-- 2 -->
    <defs
       id="defs1983">
      <path
         d="M 19.1875,8.296875 H 53.609375 V 0 H 7.328125 v 8.296875 q 5.609375,5.8125 15.296875,15.59375 9.703125,9.796875 12.1875,12.640625 4.734375,5.3125 6.609375,9 1.890625,3.6875 1.890625,7.25 0,5.8125 -4.078125,9.46875 -4.078125,3.671875 -10.625,3.671875 -4.640625,0 -9.796875,-1.609375 -5.140625,-1.609375 -11,-4.890625 v 9.96875 Q 13.765625,71.78125 18.9375,73 q 5.1875,1.21875 9.484375,1.21875 11.328125,0 18.0625,-5.671875 6.734375,-5.65625 6.734375,-15.125 0,-4.5 -1.6875,-8.53125 Q 49.859375,40.875 45.40625,35.40625 44.1875,33.984375 37.640625,27.21875 31.109375,20.453125 19.1875,8.296875 Z"
         id="path1981"
         inkscape:connector-curvature="0"
         style="stroke-linecap:butt;stroke-linejoin:round" />
    </defs>
    <g
       style="fill:#000080;stroke-linecap:butt;stroke-linejoin:round"
       transform="matrix(0.15,0,0,-0.15,126.17043,120.68873)"
       id="g1987">
      <use
         xlink:href="#DejaVuSans-32"
         id="use1985"
         style="stroke-linecap:butt;stroke-linejoin:round;fill:#000080"
         x="0"
         y="0"
         width="100%"
         height="100%" />
    </g>
  </g>
  <g
     id="g1999"
     style="stroke-linecap:butt;stroke-linejoin:round;fill:#000080"
     transform="matrix(1.0035411,0,0,1.0035411,10.63866,185.08918)">
    <!-- 1 -->
    <defs
       id="defs1993">
      <path
         d="m 12.40625,8.296875 h 16.109375 v 55.625 L 10.984375,60.40625 v 8.984375 l 17.4375,3.515625 H 38.28125 V 8.296875 H 54.390625 V 0 H 12.40625 Z"
         id="path1991"
         inkscape:connector-curvature="0"
         style="stroke-linecap:butt;stroke-linejoin:round" />
    </defs>
    <g
       style="fill:#000080;stroke-linecap:butt;stroke-linejoin:round"
       transform="matrix(0.15,0,0,-0.15,67.228125,18.597656)"
       id="g1997">
      <use
         xlink:href="#DejaVuSans-31"
         id="use1995"
         style="stroke-linecap:butt;stroke-linejoin:round;fill:#000080"
         x="0"
         y="0"
         width="100%"
         height="100%" />
    </g>
  </g>
  <g
     id="patch_2"
     style="stroke-linecap:butt;stroke-linejoin:round"
     transform="matrix(0.8028329,0,0,0.8028329,0.333767,-0.611762)">
    <path
       d="M 10.7,139.41807 H 133.3 V 12.008408 H 10.7 Z"
       style="fill:#ffffff;stroke-linecap:butt;stroke-linejoin:round"
       id="path9"
       inkscape:connector-curvature="0" />
  </g>
  <g
     id="patch_6"
     style="stroke-width:3.26967168;stroke-linecap:butt;stroke-linejoin:round;stroke-dasharray:none;stroke:#0066ff"
     transform="matrix(0.8028329,0,0,0.8028329,0.333767,-0.611762)">
    <path
       clip-path="url(#p53d3734d9e)"
       d="m 72,136.96788 c 14.43993,0 28.29038,-5.73704 38.50095,-15.94762 10.21058,-10.21057 15.94762,-24.061022 15.94762,-38.500952 0,-14.43993 -5.73704,-28.290382 -15.94762,-38.500954 C 100.29038,33.807782 86.43993,28.070737 72,28.070737 c -14.43993,0 -28.290382,5.737045 -38.500954,15.947617 -10.210573,10.210572 -15.947618,24.061024 -15.947618,38.500954 0,14.43993 5.737045,28.290382 15.947618,38.500952 C 43.709618,131.23084 57.56007,136.96788 72,136.96788 Z"
       style="fill:none;stroke:#0066ff;stroke-width:3.26967168;stroke-linecap:butt;stroke-linejoin:miter;stroke-dasharray:none"
       id="path47"
       inkscape:connector-curvature="0" />
  </g>
  <g
     id="patch_3"
     style="fill:#ffccaa;stroke:#0066ff;stroke-width:1.4537206;stroke-linecap:butt;stroke-linejoin:round;stroke-dasharray:none"
     transform="matrix(1.8057115,0,0,1.8057115,-71.873497,-28.763304)">
    <path
       clip-path="url(#p53d3734d9e)"
       d="m 77.444857,28.070737 c 0,-0.715012 -0.140842,-1.423072 -0.414465,-2.083657 -0.273623,-0.660585 -0.674707,-1.260849 -1.180297,-1.766439 -0.505589,-0.50559 -1.105853,-0.906673 -1.766438,-1.180296 C 73.423072,22.766721 72.715012,22.625879 72,22.625879 c -0.715012,0 -1.423072,0.140842 -2.083657,0.414466 -0.660585,0.273623 -1.260849,0.674706 -1.766438,1.180296 -0.50559,0.50559 -0.906674,1.105854 -1.180297,1.766439 -0.273623,0.660585 -0.414465,1.368645 -0.414465,2.083657 0,0.715012 0.140842,1.423071 0.414465,2.083656 0.273623,0.660585 0.674707,1.260849 1.180297,1.766439 0.505589,0.50559 1.105853,0.906673 1.766438,1.180297 0.660585,0.273623 1.368645,0.414465 2.083657,0.414465 0.715012,0 1.423072,-0.140842 2.083657,-0.414465 0.660585,-0.273624 1.260849,-0.674707 1.766438,-1.180297 0.50559,-0.50559 0.906674,-1.105854 1.180297,-1.766439 0.273623,-0.660585 0.414465,-1.368644 0.414465,-2.083656 m -5.444857,0 m 5.444857,0 z"
       id="path12"
       inkscape:connector-curvature="0"
       style="fill:#ffccaa;stroke:#0066ff;stroke-width:1.4537206;stroke-linecap:butt;stroke-linejoin:round;stroke-dasharray:none" />
  </g>
  <g
     id="text_1"
     style="stroke-linecap:butt;stroke-linejoin:round;fill:#000080"
     transform="matrix(1.0035411,0,0,1.0035411,-14.248946,8.748166)">
    <!-- 1 -->
    <defs
       id="defs24">
      <path
         d="m 12.40625,8.296875 h 16.109375 v 55.625 L 10.984375,60.40625 v 8.984375 l 17.4375,3.515625 H 38.28125 V 8.296875 H 54.390625 V 0 H 12.40625 Z"
         id="DejaVuSans-31"
         inkscape:connector-curvature="0"
         style="stroke-linecap:butt;stroke-linejoin:round" />
    </defs>
    <g
       style="fill:#000080;stroke-linecap:butt;stroke-linejoin:round"
       transform="matrix(0.15,0,0,-0.15,67.228125,18.597656)"
       id="g28">
      <use
         xlink:href="#DejaVuSans-31"
         id="use26"
         style="stroke-linecap:butt;stroke-linejoin:round;fill:#000080"
         x="0"
         y="0"
         width="100%"
         height="100%" />
    </g>
  </g>
  <g
     id="patch_3-7"
     style="fill:#ffccaa;stroke:#0066ff;stroke-width:1.4537206;stroke-linecap:butt;stroke-linejoin:round;stroke-dasharray:none"
     transform="matrix(1.8057115,0,0,1.8057115,-34.01683,36.806351)">
    <path
       clip-path="url(#p53d3734d9e-3)"
       d="m 77.444857,28.070737 c 0,-0.715012 -0.140842,-1.423072 -0.414465,-2.083657 -0.273623,-0.660585 -0.674707,-1.260849 -1.180297,-1.766439 -0.505589,-0.50559 -1.105853,-0.906673 -1.766438,-1.180296 C 73.423072,22.766721 72.715012,22.625879 72,22.625879 c -0.715012,0 -1.423072,0.140842 -2.083657,0.414466 -0.660585,0.273623 -1.260849,0.674706 -1.766438,1.180296 -0.50559,0.50559 -0.906674,1.105854 -1.180297,1.766439 -0.273623,0.660585 -0.414465,1.368645 -0.414465,2.083657 0,0.715012 0.140842,1.423071 0.414465,2.083656 0.273623,0.660585 0.674707,1.260849 1.180297,1.766439 0.505589,0.50559 1.105853,0.906673 1.766438,1.180297 0.660585,0.273623 1.368645,0.414465 2.083657,0.414465 0.715012,0 1.423072,-0.140842 2.083657,-0.414465 0.660585,-0.273624 1.260849,-0.674707 1.766438,-1.180297 0.50559,-0.50559 0.906674,-1.105854 1.180297,-1.766439 0.273623,-0.660585 0.414465,-1.368644 0.414465,-2.083656 m -5.444857,0 m 5.444857,0 z"
       id="path12-5"
       inkscape:connector-curvature="0"
       style="fill:#ffccaa;stroke:#0066ff;stroke-width:1.4537206;stroke-linecap:butt;stroke-linejoin:round;stroke-dasharray:none" />
  </g>
  <g
     id="text_2"
     style="stroke-linecap:butt;stroke-linejoin:round;fill:#000080"
     transform="matrix(1.0035411,0,0,1.0035411,-35.209314,-28.035984)">
    <!-- 2 -->
    <defs
       id="defs32">
      <path
         d="M 19.1875,8.296875 H 53.609375 V 0 H 7.328125 v 8.296875 q 5.609375,5.8125 15.296875,15.59375 9.703125,9.796875 12.1875,12.640625 4.734375,5.3125 6.609375,9 1.890625,3.6875 1.890625,7.25 0,5.8125 -4.078125,9.46875 -4.078125,3.671875 -10.625,3.671875 -4.640625,0 -9.796875,-1.609375 -5.140625,-1.609375 -11,-4.890625 v 9.96875 Q 13.765625,71.78125 18.9375,73 q 5.1875,1.21875 9.484375,1.21875 11.328125,0 18.0625,-5.671875 6.734375,-5.65625 6.734375,-15.125 0,-4.5 -1.6875,-8.53125 Q 49.859375,40.875 45.40625,35.40625 44.1875,33.984375 37.640625,27.21875 31.109375,20.453125 19.1875,8.296875 Z"
         id="DejaVuSans-32"
         inkscape:connector-curvature="0"
         style="stroke-linecap:butt;stroke-linejoin:round" />
    </defs>
    <g
       style="fill:#000080;stroke-linecap:butt;stroke-linejoin:round"
       transform="matrix(0.15,0,0,-0.15,126.17043,120.68873)"
       id="g36">
      <use
         xlink:href="#DejaVuSans-32"
         id="use34"
         style="stroke-linecap:butt;stroke-linejoin:round;fill:#000080"
         x="0"
         y="0"
         width="100%"
         height="100%" />
    </g>
  </g>
  <g
     id="patch_3-9"
     style="fill:#ffccaa;stroke:#0066ff;stroke-width:1.4537206;stroke-linecap:butt;stroke-linejoin:round;stroke-dasharray:none"
     transform="matrix(1.8057115,0,0,1.8057115,-109.73015,36.806351)">
    <path
       clip-path="url(#p53d3734d9e-35)"
       d="m 77.444857,28.070737 c 0,-0.715012 -0.140842,-1.423072 -0.414465,-2.083657 -0.273623,-0.660585 -0.674707,-1.260849 -1.180297,-1.766439 -0.505589,-0.50559 -1.105853,-0.906673 -1.766438,-1.180296 C 73.423072,22.766721 72.715012,22.625879 72,22.625879 c -0.715012,0 -1.423072,0.140842 -2.083657,0.414466 -0.660585,0.273623 -1.260849,0.674706 -1.766438,1.180296 -0.50559,0.50559 -0.906674,1.105854 -1.180297,1.766439 -0.273623,0.660585 -0.414465,1.368645 -0.414465,2.083657 0,0.715012 0.140842,1.423071 0.414465,2.083656 0.273623,0.660585 0.674707,1.260849 1.180297,1.766439 0.505589,0.50559 1.105853,0.906673 1.766438,1.180297 0.660585,0.273623 1.368645,0.414465 2.083657,0.414465 0.715012,0 1.423072,-0.140842 2.083657,-0.414465 0.660585,-0.273624 1.260849,-0.674707 1.766438,-1.180297 0.50559,-0.50559 0.906674,-1.105854 1.180297,-1.766439 0.273623,-0.660585 0.414465,-1.368644 0.414465,-2.083656 m -5.444857,0 m 5.444857,0 z"
       id="path12-1"
       inkscape:connector-curvature="0"
       style="fill:#ffccaa;stroke:#0066ff;stroke-width:1.4537206;stroke-linecap:butt;stroke-linejoin:round;stroke-dasharray:none" />
  </g>
  <g
     id="text_3"
     style="stroke-linecap:butt;stroke-linejoin:round;fill:#000080"
     transform="matrix(1.0035411,0,0,1.0035411,7.206548,-28.143003)">
    <!-- 3 -->
    <defs
       id="defs40">
      <path
         d="M 40.578125,39.3125 Q 47.65625,37.796875 51.625,33 q 3.984375,-4.78125 3.984375,-11.8125 0,-10.78125 -7.421875,-16.703125 -7.421875,-5.90625 -21.09375,-5.90625 -4.578125,0 -9.4375,0.90625 -4.859375,0.90625 -10.03125,2.71875 v 9.515625 q 4.09375,-2.390625 8.96875,-3.609375 4.890625,-1.21875 10.21875,-1.21875 9.265625,0 14.125,3.65625 4.859375,3.65625 4.859375,10.640625 0,6.453125 -4.515625,10.078125 -4.515625,3.640625 -12.5625,3.640625 h -8.5 v 8.109375 h 8.890625 q 7.265625,0 11.125,2.90625 3.859375,2.90625 3.859375,8.375 0,5.609375 -3.984375,8.609375 -3.96875,3.015625 -11.390625,3.015625 -4.0625,0 -8.703125,-0.890625 Q 15.375,64.15625 9.8125,62.3125 v 8.78125 q 5.625,1.5625 10.53125,2.34375 4.90625,0.78125 9.25,0.78125 11.234375,0 17.765625,-5.109375 6.546875,-5.09375 6.546875,-13.78125 0,-6.0625 -3.46875,-10.234375 -3.46875,-4.171875 -9.859375,-5.78125 z"
         id="DejaVuSans-33"
         inkscape:connector-curvature="0"
         style="stroke-linecap:butt;stroke-linejoin:round" />
    </defs>
    <g
       style="fill:#000080;stroke-linecap:butt;stroke-linejoin:round"
       transform="matrix(0.15,0,0,-0.15,8.285817,120.68873)"
       id="g44">
      <use
         xlink:href="#DejaVuSans-33"
         id="use42"
         style="stroke-linecap:butt;stroke-linejoin:round;fill:#000080"
         x="0"
         y="0"
         width="100%"
         height="100%" />
    </g>
  </g>
  <g
     id="g1851"
     style="stroke-linecap:butt;stroke-linejoin:round"
     transform="matrix(0.8028329,0,0,0.8028329,125.8223,-0.611762)">
    <path
       d="M 10.7,139.41807 H 133.3 V 12.008408 H 10.7 Z"
       style="fill:#ffffff;stroke-linecap:butt;stroke-linejoin:round"
       id="path1849"
       inkscape:connector-curvature="0" />
  </g>
  <g
     id="g1855"
     style="stroke-width:3.26967168;stroke-linecap:butt;stroke-linejoin:round;stroke-dasharray:none;stroke:#0066ff"
     transform="matrix(0.8028329,0,0,0.8028329,125.8223,-0.611762)">
    <path
       clip-path="url(#p53d3734d9e)"
       d="m 72,136.96788 c 14.43993,0 28.29038,-5.73704 38.50095,-15.94762 10.21058,-10.21057 15.94762,-24.061022 15.94762,-38.500952 0,-14.43993 -5.73704,-28.290382 -15.94762,-38.500954 C 100.29038,33.807782 86.43993,28.070737 72,28.070737 c -14.43993,0 -28.290382,5.737045 -38.500954,15.947617 -10.210573,10.210572 -15.947618,24.061024 -15.947618,38.500954 0,14.43993 5.737045,28.290382 15.947618,38.500952 C 43.709618,131.23084 57.56007,136.96788 72,136.96788 Z"
       style="fill:none;stroke:#0066ff;stroke-width:3.26967168;stroke-linecap:butt;stroke-linejoin:miter;stroke-dasharray:none"
       id="path1853"
       inkscape:connector-curvature="0" />
  </g>
  <g
     id="g1859"
     style="fill:#ffccaa;stroke:#0066ff;stroke-width:1.4537206;stroke-linecap:butt;stroke-linejoin:round;stroke-dasharray:none"
     transform="matrix(1.8057115,0,0,1.8057115,53.615041,-28.763302)">
    <path
       clip-path="url(#p53d3734d9e)"
       d="m 77.444857,28.070737 c 0,-0.715012 -0.140842,-1.423072 -0.414465,-2.083657 -0.273623,-0.660585 -0.674707,-1.260849 -1.180297,-1.766439 -0.505589,-0.50559 -1.105853,-0.906673 -1.766438,-1.180296 C 73.423072,22.766721 72.715012,22.625879 72,22.625879 c -0.715012,0 -1.423072,0.140842 -2.083657,0.414466 -0.660585,0.273623 -1.260849,0.674706 -1.766438,1.180296 -0.50559,0.50559 -0.906674,1.105854 -1.180297,1.766439 -0.273623,0.660585 -0.414465,1.368645 -0.414465,2.083657 0,0.715012 0.140842,1.423071 0.414465,2.083656 0.273623,0.660585 0.674707,1.260849 1.180297,1.766439 0.505589,0.50559 1.105853,0.906673 1.766438,1.180297 0.660585,0.273623 1.368645,0.414465 2.083657,0.414465 0.715012,0 1.423072,-0.140842 2.083657,-0.414465 0.660585,-0.273624 1.260849,-0.674707 1.766438,-1.180297 0.50559,-0.50559 0.906674,-1.105854 1.180297,-1.766439 0.273623,-0.660585 0.414465,-1.368644 0.414465,-2.083656 m -5.444857,0 m 5.444857,0 z"
       id="path1857"
       inkscape:connector-curvature="0"
       style="fill:#ffccaa;stroke:#0066ff;stroke-width:1.4537206;stroke-linecap:butt;stroke-linejoin:round;stroke-dasharray:none" />
  </g>
  <g
     id="g1873"
     style="fill:#ffccaa;stroke:#0066ff;stroke-width:1.4537206;stroke-linecap:butt;stroke-linejoin:round;stroke-dasharray:none"
     transform="matrix(1.8057115,0,0,1.8057115,91.471703,36.806348)">
    <path
       clip-path="url(#p53d3734d9e-3)"
       d="m 77.444857,28.070737 c 0,-0.715012 -0.140842,-1.423072 -0.414465,-2.083657 -0.273623,-0.660585 -0.674707,-1.260849 -1.180297,-1.766439 -0.505589,-0.50559 -1.105853,-0.906673 -1.766438,-1.180296 C 73.423072,22.766721 72.715012,22.625879 72,22.625879 c -0.715012,0 -1.423072,0.140842 -2.083657,0.414466 -0.660585,0.273623 -1.260849,0.674706 -1.766438,1.180296 -0.50559,0.50559 -0.906674,1.105854 -1.180297,1.766439 -0.273623,0.660585 -0.414465,1.368645 -0.414465,2.083657 0,0.715012 0.140842,1.423071 0.414465,2.083656 0.273623,0.660585 0.674707,1.260849 1.180297,1.766439 0.505589,0.50559 1.105853,0.906673 1.766438,1.180297 0.660585,0.273623 1.368645,0.414465 2.083657,0.414465 0.715012,0 1.423072,-0.140842 2.083657,-0.414465 0.660585,-0.273624 1.260849,-0.674707 1.766438,-1.180297 0.50559,-0.50559 0.906674,-1.105854 1.180297,-1.766439 0.273623,-0.660585 0.414465,-1.368644 0.414465,-2.083656 m -5.444857,0 m 5.444857,0 z"
       id="path1871"
       inkscape:connector-curvature="0"
       style="fill:#ffccaa;stroke:#0066ff;stroke-width:1.4537206;stroke-linecap:butt;stroke-linejoin:round;stroke-dasharray:none" />
  </g>
  <g
     id="g1887"
     style="fill:#ffccaa;stroke:#0066ff;stroke-width:1.4537206;stroke-linecap:butt;stroke-linejoin:round;stroke-dasharray:none"
     transform="matrix(1.8057115,0,0,1.8057115,15.758388,36.806348)">
    <path
       clip-path="url(#p53d3734d9e-35)"
       d="m 77.444857,28.070737 c 0,-0.715012 -0.140842,-1.423072 -0.414465,-2.083657 -0.273623,-0.660585 -0.674707,-1.260849 -1.180297,-1.766439 -0.505589,-0.50559 -1.105853,-0.906673 -1.766438,-1.180296 C 73.423072,22.766721 72.715012,22.625879 72,22.625879 c -0.715012,0 -1.423072,0.140842 -2.083657,0.414466 -0.660585,0.273623 -1.260849,0.674706 -1.766438,1.180296 -0.50559,0.50559 -0.906674,1.105854 -1.180297,1.766439 -0.273623,0.660585 -0.414465,1.368645 -0.414465,2.083657 0,0.715012 0.140842,1.423071 0.414465,2.083656 0.273623,0.660585 0.674707,1.260849 1.180297,1.766439 0.505589,0.50559 1.105853,0.906673 1.766438,1.180297 0.660585,0.273623 1.368645,0.414465 2.083657,0.414465 0.715012,0 1.423072,-0.140842 2.083657,-0.414465 0.660585,-0.273624 1.260849,-0.674707 1.766438,-1.180297 0.50559,-0.50559 0.906674,-1.105854 1.180297,-1.766439 0.273623,-0.660585 0.414465,-1.368644 0.414465,-2.083656 m -5.444857,0 m 5.444857,0 z"
       id="path1885"
       inkscape:connector-curvature="0"
       style="fill:#ffccaa;stroke:#0066ff;stroke-width:1.4537206;stroke-linecap:butt;stroke-linejoin:round;stroke-dasharray:none" />
  </g>
  <g
     id="g1897"
     style="stroke-linecap:butt;stroke-linejoin:round;fill:#000080"
     transform="matrix(1.0035411,0,0,1.0035411,170.55173,-93.712652)">
    <!-- 3 -->
    <defs
       id="defs1891">
      <path
         d="M 40.578125,39.3125 Q 47.65625,37.796875 51.625,33 q 3.984375,-4.78125 3.984375,-11.8125 0,-10.78125 -7.421875,-16.703125 -7.421875,-5.90625 -21.09375,-5.90625 -4.578125,0 -9.4375,0.90625 -4.859375,0.90625 -10.03125,2.71875 v 9.515625 q 4.09375,-2.390625 8.96875,-3.609375 4.890625,-1.21875 10.21875,-1.21875 9.265625,0 14.125,3.65625 4.859375,3.65625 4.859375,10.640625 0,6.453125 -4.515625,10.078125 -4.515625,3.640625 -12.5625,3.640625 h -8.5 v 8.109375 h 8.890625 q 7.265625,0 11.125,2.90625 3.859375,2.90625 3.859375,8.375 0,5.609375 -3.984375,8.609375 -3.96875,3.015625 -11.390625,3.015625 -4.0625,0 -8.703125,-0.890625 Q 15.375,64.15625 9.8125,62.3125 v 8.78125 q 5.625,1.5625 10.53125,2.34375 4.90625,0.78125 9.25,0.78125 11.234375,0 17.765625,-5.109375 6.546875,-5.09375 6.546875,-13.78125 0,-6.0625 -3.46875,-10.234375 -3.46875,-4.171875 -9.859375,-5.78125 z"
         id="path1889"
         inkscape:connector-curvature="0"
         style="stroke-linecap:butt;stroke-linejoin:round" />
    </defs>
    <g
       style="fill:#000080;stroke-linecap:butt;stroke-linejoin:round"
       transform="matrix(0.15,0,0,-0.15,8.285817,120.68873)"
       id="g1895">
      <use
         xlink:href="#DejaVuSans-33"
         id="use1893"
         style="stroke-linecap:butt;stroke-linejoin:round;fill:#000080"
         x="0"
         y="0"
         width="100%"
         height="100%" />
    </g>
  </g>
  <g
     id="g1883"
     style="stroke-linecap:butt;stroke-linejoin:round;fill:#000080"
     transform="matrix(1.0035411,0,0,1.0035411,14.565908,-28.035982)">
    <!-- 2 -->
    <defs
       id="defs1877">
      <path
         d="M 19.1875,8.296875 H 53.609375 V 0 H 7.328125 v 8.296875 q 5.609375,5.8125 15.296875,15.59375 9.703125,9.796875 12.1875,12.640625 4.734375,5.3125 6.609375,9 1.890625,3.6875 1.890625,7.25 0,5.8125 -4.078125,9.46875 -4.078125,3.671875 -10.625,3.671875 -4.640625,0 -9.796875,-1.609375 -5.140625,-1.609375 -11,-4.890625 v 9.96875 Q 13.765625,71.78125 18.9375,73 q 5.1875,1.21875 9.484375,1.21875 11.328125,0 18.0625,-5.671875 6.734375,-5.65625 6.734375,-15.125 0,-4.5 -1.6875,-8.53125 Q 49.859375,40.875 45.40625,35.40625 44.1875,33.984375 37.640625,27.21875 31.109375,20.453125 19.1875,8.296875 Z"
         id="path1875"
         inkscape:connector-curvature="0"
         style="stroke-linecap:butt;stroke-linejoin:round" />
    </defs>
    <g
       style="fill:#000080;stroke-linecap:butt;stroke-linejoin:round"
       transform="matrix(0.15,0,0,-0.15,126.17043,120.68873)"
       id="g1881">
      <use
         xlink:href="#DejaVuSans-32"
         id="use1879"
         style="stroke-linecap:butt;stroke-linejoin:round;fill:#000080"
         x="0"
         y="0"
         width="100%"
         height="100%" />
    </g>
  </g>
  <g
     id="g1869"
     style="stroke-linecap:butt;stroke-linejoin:round;fill:#000080"
     transform="matrix(1.0035411,0,0,1.0035411,149.09626,74.317819)">
    <!-- 1 -->
    <defs
       id="defs1863">
      <path
         d="m 12.40625,8.296875 h 16.109375 v 55.625 L 10.984375,60.40625 v 8.984375 l 17.4375,3.515625 H 38.28125 V 8.296875 H 54.390625 V 0 H 12.40625 Z"
         id="path1861"
         inkscape:connector-curvature="0"
         style="stroke-linecap:butt;stroke-linejoin:round" />
    </defs>
    <g
       style="fill:#000080;stroke-linecap:butt;stroke-linejoin:round"
       transform="matrix(0.15,0,0,-0.15,67.228125,18.597656)"
       id="g1867">
      <use
         xlink:href="#DejaVuSans-31"
         id="use1865"
         style="stroke-linecap:butt;stroke-linejoin:round;fill:#000080"
         x="0"
         y="0"
         width="100%"
         height="100%" />
    </g>
  </g>
</svg>
