<?xml version="1.0" encoding="UTF-8" standalone="no"?>
<!-- Created with Inkscape (http://www.inkscape.org/) -->

<svg
   width="184mm"
   height="31mm"
   viewBox="0 0 695.43303 117.16559"
   version="1.1"
   id="svg5"
   xml:space="preserve"
   inkscape:version="1.2.2 (b0a8486541, 2022-12-01)"
   sodipodi:docname="digitos.svg"
   xmlns:inkscape="http://www.inkscape.org/namespaces/inkscape"
   xmlns:sodipodi="http://sodipodi.sourceforge.net/DTD/sodipodi-0.dtd"
   xmlns="http://www.w3.org/2000/svg"
   xmlns:svg="http://www.w3.org/2000/svg"><sodipodi:namedview
     id="namedview7"
     pagecolor="#ffffff"
     bordercolor="#666666"
     borderopacity="1.0"
     inkscape:showpageshadow="2"
     inkscape:pageopacity="0.0"
     inkscape:pagecheckerboard="0"
     inkscape:deskcolor="#d1d1d1"
     inkscape:document-units="mm"
     showgrid="false"
     inkscape:zoom="0.36302258"
     inkscape:cx="926.9396"
     inkscape:cy="615.66419"
     inkscape:window-width="1920"
     inkscape:window-height="1043"
     inkscape:window-x="0"
     inkscape:window-y="0"
     inkscape:window-maximized="1"
     inkscape:current-layer="layer1" /><defs
     id="defs2" /><g
     inkscape:label="Camada 1"
     inkscape:groupmode="layer"
     id="layer1"><path
       style="fill:#000000"
       d="m 15.133709,103.81068 -5.7777369,-5.225735 0.02774,-18.193299 0.02774,-18.19329 2.1934399,-1.536355 2.19344,-1.53634 -2.19344,-2.33481 -2.1934399,-2.33481 v -17.84079 -17.84078 l 5.2422989,-5.34477 5.242299,-5.3447596 h 18.097021 18.09702 l 3.08553,3.2499996 3.08554,3.25 2.635718,1.84238 2.63573,1.84238 -0.68354,18.15762 -0.68353,18.15762 -1.91806,2.10811 -1.918068,2.10812 2.678778,1.7552 2.67879,1.755215 -0.67732,18.63668 -0.67731,18.636679 -5.210448,4.718165 -5.21045,4.71817 -17.5,0.008 -17.499999,0.008 -5.777737,-5.22573 z m 41.052256,-23.687384 0.27453,-17.46165 1.99099,-2.119325 1.991,-2.11932 -2.01552,-1.82402 -2.01552,-1.82401 v -17.84502 -17.84501 h -18 -17.999999 v 17.68555 17.68555 l -2.015518,2.14542 -2.015517,2.14542 2.015517,1.82402 2.015518,1.824015 v 17.86809 17.868089 l 17.749999,-0.27308 17.75,-0.27307 z m 99.462255,23.701394 -5.23677,-5.302635 V 80.477816 62.433576 l 2.31445,-2.174325 2.31445,-2.17431 h 1.03056 1.03056 l 1.80998,-2 1.80998,-2 h 17.84501 17.84501 v -17.5 -17.5 h -17.81291 -17.81291 l -2.69118,-2.80899 -2.69118,-2.80899 2.80881,-2.69101 2.80881,-2.6910096 h 18.17223 18.17222 l 1.62653,2.4823896 1.62652,2.48239 3.39653,2.09917 3.39653,2.09917 -0.005,18.66844 -0.005,18.66844 -4.92294,4.75 -4.92293,4.750005 h -18.07167 -18.07167 v 17 16.999999 l 18.25,0.0314 18.25,0.0314 1.87135,2.567565 1.87135,2.56755 -1.97811,2.65101 -1.9781,2.65102 -18.40647,0.27119 -18.40648,0.2712 -5.23677,-5.30264 z m 67.26968,2.26698 -2.86773,-2.99326 2.35495,-2.50673 2.35496,-2.506735 h 17.74609 17.74609 l 0.64318,-6.25 0.64318,-6.249999 -0.31358,-10.5 -0.31359,-10.5 -18.09632,-0.27196 -18.09632,-0.27197 -2.32799,-2.47803 -2.328,-2.478045 2.34863,-2.5 2.34863,-2.5 h 17.67895 17.67895 l 0.64673,-7.65088 0.64674,-7.65087 v -9.84913 -9.84912 h -18.31291 -18.31291 l -2.69118,-2.80899 -2.69118,-2.80899 2.80881,-2.69101 2.80881,-2.6910096 h 18.1227 18.1227 l 2.11184,2.6847696 2.11184,2.68476 2.96074,1.80054 2.96074,1.80053 v 18.70025 18.70025 l -2.10484,2.2405 -2.10484,2.2405 2.10484,1.3145 2.10484,1.314495 v 19.13798 19.137979 l -5.40949,4.621475 -5.40949,4.62147 h -17.40342 -17.40342 z m 141.49355,1.71147 -1.5,-1.2182 -1.39677,-1.77932 -1.39678,-1.77931 2.32109,-2.47068 2.32109,-2.470685 h 17.68653 17.68654 l 0.71558,-15.971819 0.71558,-15.97183 -0.63545,-1.02817 -0.63544,-1.02818 h -17.58317 -17.58317 l -5.35782,-4.577325 -5.35781,-4.57733 v -18.20683 -18.20684 l 5.30505,-5.23915 5.30505,-5.2391596 18.33825,0.27332 18.33825,0.27331 1.97805,2.6510196 1.97805,2.65101 -1.87135,2.56756 -1.87135,2.56756 -18.25,0.0314 -18.25,0.0314 v 17.5 17.5 h 18.01936 18.01935 l 4.9237,3.75 4.92369,3.750005 0.0443,19 0.0443,18.999999 -5.41643,4.749995 -5.41642,4.75 -17.32096,-0.0318 -17.32089,-0.0318 z m 65.5056,-3.88924 -5.5056,-5.171025 V 80.728356 62.713846 l 2.01552,-2.145425 2.01552,-2.14542 -2.01552,-1.82402 -2.01552,-1.82401 v -18.12918 -18.12917 l 5.30505,-5.23915 5.30505,-5.2391596 18.33825,0.27332 18.33825,0.27331 2.04268,2.7375796 2.04268,2.73759 -2.36029,2.51241 -2.3603,2.51242 h -17.82568 -17.82569 v 17.5 17.5 h 18.01936 18.01935 l 4.9237,3.75 4.92369,3.750005 0.057,18.81414 0.0569,18.814129 -5.25,4.897735 -5.25,4.89775 -17.7444,0.0381 -17.7444,0.0381 -5.5056,-5.17104 z m 40.74092,-22.078954 0.5302,-16.25 -0.44737,-0.75 -0.44738,-0.75 h -17.44099 -17.44098 v 17 16.999999 h 17.35816 17.35816 z m 93.47574,21.975734 -5.77773,-5.225735 0.0277,-18.193299 0.0277,-18.19329 2.19344,-1.536355 2.19344,-1.53634 -2.19344,-2.33481 -2.19344,-2.33481 v -17.96971 -17.96971 l 5.28145,-5.21584 5.28144,-5.2158396 h 18.05788 18.05787 l 3.08553,3.2499996 3.08553,3.25 2.44923,1.7017 2.44922,1.7017 -0.49339,18.2983 -0.49339,18.2983 -1.92171,2.10811 -1.9217,2.10812 2.5262,1.65523 2.5262,1.655235 -0.58155,18.73665 -0.58155,18.736659 -5.15363,4.718165 -5.15363,4.71817 -17.5,0.008 -17.5,0.008 -5.77774,-5.22573 z m 40.77774,-22.725734 v -16.5 l -17.75,-0.27307 -17.75,-0.27308 v 17.04615 17.046149 l 17.75,-0.27308 17.75,-0.27307 z m 0.27361,-44.750005 0.27362,-17.25 h -18.02362 -18.02361 v 17.52307 17.52308 l 17.75,-0.27308 17.75,-0.27307 z m 31.73284,69.756729 -2.86773,-2.99326 2.33432,-2.48476 2.33432,-2.484775 18.09632,-0.27197 18.09632,-0.27196 v -16.499999 -16.5 l -17.92001,-0.27377 -17.92,-0.27376 -5.33,-4.553565 -5.32999,-4.55356 v -18.20683 -18.20684 l 5.28145,-5.21584 5.28144,-5.2158396 h 18.12966 18.12966 l 2.39046,2.7499996 2.39045,2.75 2.82621,2.01666 2.82621,2.01667 -0.18763,18.4826 -0.18763,18.48261 -1.98116,2.10884 -1.98116,2.10885 2.37384,1.55539 2.37383,1.555405 -0.40996,18.83649 -0.40995,18.836489 -5.17286,4.718165 -5.17286,4.71817 -17.56291,0.0318 -17.56291,0.0318 -2.86773,-2.99327 z m 38.26716,-69.756729 0.27362,-17.25 h -18.02362 -18.02361 v 17.52307 17.52308 l 17.75,-0.27308 17.75,-0.27307 z m -137.02361,65.611329 -2.75,-2.028135 V 81.156526 62.394916 l 2.01552,-1.824015 2.01552,-1.82402 -2.01552,-2.14542 -2.01552,-2.14542 v -17.68555 -17.68555 h -18.32569 -18.32568 l -2.17432,-2.31445 -2.17431,-2.31445 v -1.01124 -1.01123 l 2.31445,-2.17432 2.31445,-2.1743096 h 18.02487 18.02487 l 3.08553,3.2499996 3.08553,3.25 2.63573,1.84238 2.63573,1.84238 -0.68354,18.15762 -0.68353,18.15762 -1.91806,2.10811 -1.91807,2.10812 2.65881,1.74211 2.65881,1.742125 -0.70419,18.64977 -0.70419,18.649769 -2.1636,2.194725 -2.1636,2.19474 z m -409.06291,-1.66604 -2.68709,-2.804725 V 80.094676 62.713846 l 2.17431,-2.314455 2.17432,-2.31445 -2.17432,-2.31445 -2.17431,-2.31445 0.0153,-17.43555 0.0153,-17.43555 0.73468,-1 0.73469,-1 2.16544,-1.82846 2.16544,-1.82846 2.58456,1.69347 2.58456,1.69347 v 18.73 18.73 l -2.01552,1.82402 -2.01552,1.82402 2.01552,2.14542 2.01552,2.145425 v 18.51124 18.511229 l -2.31445,2.174325 -2.31445,2.1743 h -0.49846 -0.49846 z m 203.97197,-0.0293 -2.71512,-2.833975 0.6831,-16.666029 0.68309,-16.66602 h -18.22182 -18.22181 l -5.43325,-4.690735 -5.43325,-4.69072 v -18.00456 -18.00455 l 2.62631,-2.74128 2.6263,-2.74127 2.8737,2.12461 2.87369,2.12462 v 17.81194 17.81194 h 17.3997 17.3997 l 0.72569,-17.94349 0.7257,-17.94349 2.37461,-2.23082 2.3746,-2.23083 2.5,2.34863 2.5,2.34863 v 18.6707 18.6707 l -2.00054,1.81046 -2.00053,1.81046 2.00053,1.40123 2.00054,1.401235 v 18.76898 18.768979 l -2.31445,2.174325 -2.31445,2.1743 h -0.49846 -0.49846 l -2.71512,-2.83396 z"
       id="path316" /></g></svg>
