<?xml version="1.0" encoding="UTF-8" standalone="no"?>
<svg
   xmlns:dc="http://purl.org/dc/elements/1.1/"
   xmlns:cc="http://creativecommons.org/ns#"
   xmlns:rdf="http://www.w3.org/1999/02/22-rdf-syntax-ns#"
   xmlns:svg="http://www.w3.org/2000/svg"
   xmlns="http://www.w3.org/2000/svg"
   xmlns:sodipodi="http://sodipodi.sourceforge.net/DTD/sodipodi-0.dtd"
   xmlns:inkscape="http://www.inkscape.org/namespaces/inkscape"
   version="1.1"
   id="svg2"
   xml:space="preserve"
   width="247.23529"
   height="245.24571"
   viewBox="0 0 247.23529 245.24571"
   sodipodi:docname="reticulado.svg"
   inkscape:version="1.0.2 (e86c870879, 2021-01-15)"><metadata
     id="metadata8"><rdf:RDF><cc:Work
         rdf:about=""><dc:format>image/svg+xml</dc:format><dc:type
           rdf:resource="http://purl.org/dc/dcmitype/StillImage" /><dc:title></dc:title></cc:Work></rdf:RDF></metadata><defs
     id="defs6"><clipPath
       clipPathUnits="userSpaceOnUse"
       id="clipPath30"><path
         d="M -1021,-463 H 1794 V 1233 H -1021 Z"
         id="path28" /></clipPath><clipPath
       clipPathUnits="userSpaceOnUse"
       id="clipPath50"><path
         d="M -1021,-463 H 1794 V 1233 H -1021 Z"
         id="path48" /></clipPath><clipPath
       clipPathUnits="userSpaceOnUse"
       id="clipPath116"><path
         d="M -1021,-463 H 1794 V 1233 H -1021 Z"
         id="path114" /></clipPath><clipPath
       clipPathUnits="userSpaceOnUse"
       id="clipPath136"><path
         d="M -1021,-463 H 1794 V 1233 H -1021 Z"
         id="path134" /></clipPath><clipPath
       clipPathUnits="userSpaceOnUse"
       id="clipPath192"><path
         d="M 9.3389627,7.8467752 H 178.22647 V 176.73428 H 9.3389627 Z"
         id="path190" /></clipPath><clipPath
       clipPathUnits="userSpaceOnUse"
       id="clipPath202"><path
         d="M 9.3389627,7.8467752 H 178.22647 V 176.73428 H 9.3389627 Z"
         id="path200" /></clipPath><clipPath
       clipPathUnits="userSpaceOnUse"
       id="clipPath212"><path
         d="M 9.3389627,7.8467752 H 178.22647 V 176.73428 H 9.3389627 Z"
         id="path210" /></clipPath><clipPath
       clipPathUnits="userSpaceOnUse"
       id="clipPath222"><path
         d="M 9.3389627,7.8467752 H 178.22647 V 176.73428 H 9.3389627 Z"
         id="path220" /></clipPath><clipPath
       clipPathUnits="userSpaceOnUse"
       id="clipPath232"><path
         d="M 9.3389627,7.8467752 H 178.22647 V 176.73428 H 9.3389627 Z"
         id="path230" /></clipPath><clipPath
       clipPathUnits="userSpaceOnUse"
       id="clipPath242"><path
         d="M 9.3389627,7.8467752 H 178.22647 V 176.73428 H 9.3389627 Z"
         id="path240" /></clipPath><clipPath
       clipPathUnits="userSpaceOnUse"
       id="clipPath252"><path
         d="M 9.3389627,7.8467752 H 178.22647 V 176.73428 H 9.3389627 Z"
         id="path250" /></clipPath><clipPath
       clipPathUnits="userSpaceOnUse"
       id="clipPath262"><path
         d="M 9.3389627,7.8467752 H 178.22647 V 176.73428 H 9.3389627 Z"
         id="path260" /></clipPath><clipPath
       clipPathUnits="userSpaceOnUse"
       id="clipPath272"><path
         d="M 9.3389627,7.8467752 H 178.22647 V 176.73428 H 9.3389627 Z"
         id="path270" /></clipPath><clipPath
       clipPathUnits="userSpaceOnUse"
       id="clipPath282"><path
         d="M 9.3389627,7.8467752 H 178.22647 V 176.73428 H 9.3389627 Z"
         id="path280" /></clipPath><clipPath
       clipPathUnits="userSpaceOnUse"
       id="clipPath298"><path
         d="M 9.3389627,7.8467752 H 178.22647 V 176.73428 H 9.3389627 Z"
         id="path296" /></clipPath><clipPath
       clipPathUnits="userSpaceOnUse"
       id="clipPath308"><path
         d="M 9.3389627,7.8467752 H 178.22647 V 176.73428 H 9.3389627 Z"
         id="path306" /></clipPath><clipPath
       clipPathUnits="userSpaceOnUse"
       id="clipPath318"><path
         d="M 9.3389627,7.8467752 H 178.22647 V 176.73428 H 9.3389627 Z"
         id="path316" /></clipPath><clipPath
       clipPathUnits="userSpaceOnUse"
       id="clipPath328"><path
         d="M 9.3389627,7.8467752 H 178.22647 V 176.73428 H 9.3389627 Z"
         id="path326" /></clipPath><clipPath
       clipPathUnits="userSpaceOnUse"
       id="clipPath338"><path
         d="M 9.3389627,7.8467752 H 178.22647 V 176.73428 H 9.3389627 Z"
         id="path336" /></clipPath><clipPath
       clipPathUnits="userSpaceOnUse"
       id="clipPath348"><path
         d="M 9.3389627,7.8467752 H 178.22647 V 176.73428 H 9.3389627 Z"
         id="path346" /></clipPath><clipPath
       clipPathUnits="userSpaceOnUse"
       id="clipPath358"><path
         d="M 9.3389627,7.8467752 H 178.22647 V 176.73428 H 9.3389627 Z"
         id="path356" /></clipPath><clipPath
       clipPathUnits="userSpaceOnUse"
       id="clipPath368"><path
         d="M 9.3389627,7.8467752 H 178.22647 V 176.73428 H 9.3389627 Z"
         id="path366" /></clipPath><clipPath
       clipPathUnits="userSpaceOnUse"
       id="clipPath378"><path
         d="M 9.3389627,7.8467752 H 178.22647 V 176.73428 H 9.3389627 Z"
         id="path376" /></clipPath><clipPath
       clipPathUnits="userSpaceOnUse"
       id="clipPath388"><path
         d="M 9.3389627,7.8467752 H 178.22647 V 176.73428 H 9.3389627 Z"
         id="path386" /></clipPath><clipPath
       clipPathUnits="userSpaceOnUse"
       id="clipPath398"><path
         d="M 9.3389627,7.8467752 H 178.22647 V 176.73428 H 9.3389627 Z"
         id="path396" /></clipPath><clipPath
       clipPathUnits="userSpaceOnUse"
       id="clipPath408"><path
         d="M 9.3389627,7.8467752 H 178.22647 V 176.73428 H 9.3389627 Z"
         id="path406" /></clipPath><clipPath
       clipPathUnits="userSpaceOnUse"
       id="clipPath418"><path
         d="M 9.3389627,7.8467752 H 178.22647 V 176.73428 H 9.3389627 Z"
         id="path416" /></clipPath><clipPath
       clipPathUnits="userSpaceOnUse"
       id="clipPath428"><path
         d="M 9.3389627,7.8467752 H 178.22647 V 176.73428 H 9.3389627 Z"
         id="path426" /></clipPath><clipPath
       clipPathUnits="userSpaceOnUse"
       id="clipPath438"><path
         d="M 9.3389627,7.8467752 H 178.22647 V 176.73428 H 9.3389627 Z"
         id="path436" /></clipPath><clipPath
       clipPathUnits="userSpaceOnUse"
       id="clipPath448"><path
         d="M 9.3389627,7.8467752 H 178.22647 V 176.73428 H 9.3389627 Z"
         id="path446" /></clipPath><clipPath
       clipPathUnits="userSpaceOnUse"
       id="clipPath458"><path
         d="M 9.3389627,7.8467752 H 178.22647 V 176.73428 H 9.3389627 Z"
         id="path456" /></clipPath><clipPath
       clipPathUnits="userSpaceOnUse"
       id="clipPath468"><path
         d="M 9.3389627,7.8467752 H 178.22647 V 176.73428 H 9.3389627 Z"
         id="path466" /></clipPath><clipPath
       clipPathUnits="userSpaceOnUse"
       id="clipPath478"><path
         d="M 9.3389627,7.8467752 H 178.22647 V 176.73428 H 9.3389627 Z"
         id="path476" /></clipPath><clipPath
       clipPathUnits="userSpaceOnUse"
       id="clipPath488"><path
         d="M 9.3389627,7.8467752 H 178.22647 V 176.73428 H 9.3389627 Z"
         id="path486" /></clipPath><clipPath
       clipPathUnits="userSpaceOnUse"
       id="clipPath498"><path
         d="M 9.3389627,7.8467752 H 178.22647 V 176.73428 H 9.3389627 Z"
         id="path496" /></clipPath><clipPath
       clipPathUnits="userSpaceOnUse"
       id="clipPath508"><path
         d="M 9.3389627,7.8467752 H 178.22647 V 176.73428 H 9.3389627 Z"
         id="path506" /></clipPath><clipPath
       clipPathUnits="userSpaceOnUse"
       id="clipPath518"><path
         d="M 9.3389627,7.8467752 H 178.22647 V 176.73428 H 9.3389627 Z"
         id="path516" /></clipPath><clipPath
       clipPathUnits="userSpaceOnUse"
       id="clipPath528"><path
         d="M 9.3389627,7.8467752 H 178.22647 V 176.73428 H 9.3389627 Z"
         id="path526" /></clipPath><clipPath
       clipPathUnits="userSpaceOnUse"
       id="clipPath538"><path
         d="M 9.3389627,7.8467752 H 178.22647 V 176.73428 H 9.3389627 Z"
         id="path536" /></clipPath></defs><sodipodi:namedview
     pagecolor="#ffffff"
     bordercolor="#666666"
     borderopacity="1"
     objecttolerance="10"
     gridtolerance="10"
     guidetolerance="10"
     inkscape:pageopacity="0"
     inkscape:pageshadow="2"
     inkscape:window-width="976"
     inkscape:window-height="480"
     id="namedview4"
     showgrid="false"
     inkscape:zoom="3.2253367"
     inkscape:cx="123.61765"
     inkscape:cy="122.62286"
     inkscape:window-x="26"
     inkscape:window-y="23"
     inkscape:window-maximized="0"
     inkscape:current-layer="g10" /><g
     id="g10"
     inkscape:groupmode="layer"
     inkscape:label="reticulado"
     transform="matrix(1.3333333,0,0,-1.3333333,0,245.24571)"><path
       d="M 9.338963,7.846775 H 178.22647 V 176.73428 H 9.338963 Z"
       style="fill:#ffffff;fill-opacity:1;fill-rule:nonzero;stroke:none"
       id="path12" /><path
       d="m 14.567188,92.290528 v -3.5"
       style="fill:#000000;fill-opacity:1;fill-rule:nonzero;stroke:#000000;stroke-width:0.8;stroke-linecap:butt;stroke-linejoin:round;stroke-miterlimit:10;stroke-dasharray:none;stroke-opacity:1"
       id="path14" /><g
       id="g16"
       transform="translate(7.2,77.696778)"><text
         transform="matrix(1,0,0,-1,8.3789063,0)"
         style="font-variant:normal;font-weight:normal;font-size:10px;font-family:'DejaVu Sans';-inkscape-font-specification:DejaVuSans;writing-mode:lr-tb;fill:#000000;fill-opacity:1;fill-rule:nonzero;stroke:none"
         id="text20"><tspan
           x="0"
           y="0"
           id="tspan18">2</tspan></text><g
         id="g22"
         transform="scale(0.01)"><g
           id="g24"><g
             id="g26"
             clip-path="url(#clipPath30)"><path
               d="M 106,355 H 732 V 272 H 106 v 83"
               style="fill:#000000;fill-opacity:1;fill-rule:nonzero;stroke:none"
               id="path32" /></g></g></g></g><path
       d="m 54.174951,92.290528 v -3.5"
       style="fill:#000000;fill-opacity:1;fill-rule:nonzero;stroke:#000000;stroke-width:0.8;stroke-linecap:butt;stroke-linejoin:round;stroke-miterlimit:10;stroke-dasharray:none;stroke-opacity:1"
       id="path34" /><g
       id="g36"
       transform="translate(46.807764,77.696778)"><text
         transform="matrix(1,0,0,-1,8.3789063,0)"
         style="font-variant:normal;font-weight:normal;font-size:10px;font-family:'DejaVu Sans';-inkscape-font-specification:DejaVuSans;writing-mode:lr-tb;fill:#000000;fill-opacity:1;fill-rule:nonzero;stroke:none"
         id="text40"><tspan
           x="0"
           y="0"
           id="tspan38">1</tspan></text><g
         id="g42"
         transform="scale(0.01)"><g
           id="g44"><g
             id="g46"
             clip-path="url(#clipPath50)"><path
               d="M 106,355 H 732 V 272 H 106 v 83"
               style="fill:#000000;fill-opacity:1;fill-rule:nonzero;stroke:none"
               id="path52" /></g></g></g></g><path
       d="m 93.782715,92.290528 v -3.5"
       style="fill:#000000;fill-opacity:1;fill-rule:nonzero;stroke:#000000;stroke-width:0.8;stroke-linecap:butt;stroke-linejoin:round;stroke-miterlimit:10;stroke-dasharray:none;stroke-opacity:1"
       id="path54" /><path
       d="m 133.39048,92.290528 v -3.5"
       style="fill:#000000;fill-opacity:1;fill-rule:nonzero;stroke:#000000;stroke-width:0.8;stroke-linecap:butt;stroke-linejoin:round;stroke-miterlimit:10;stroke-dasharray:none;stroke-opacity:1"
       id="path56" /><text
       transform="matrix(1,0,0,-1,130.21079,77.696778)"
       style="font-variant:normal;font-weight:normal;font-size:10px;font-family:'DejaVu Sans';-inkscape-font-specification:DejaVuSans;writing-mode:lr-tb;fill:#000000;fill-opacity:1;fill-rule:nonzero;stroke:none"
       id="text60"><tspan
         x="0"
         y="0"
         id="tspan58">1</tspan></text><path
       d="m 172.99824,92.290528 v -3.5"
       style="fill:#000000;fill-opacity:1;fill-rule:nonzero;stroke:#000000;stroke-width:0.8;stroke-linecap:butt;stroke-linejoin:round;stroke-miterlimit:10;stroke-dasharray:none;stroke-opacity:1"
       id="path62" /><text
       transform="matrix(1,0,0,-1,169.81856,77.696778)"
       style="font-variant:normal;font-weight:normal;font-size:10px;font-family:'DejaVu Sans';-inkscape-font-specification:DejaVuSans;writing-mode:lr-tb;fill:#000000;fill-opacity:1;fill-rule:nonzero;stroke:none"
       id="text66"><tspan
         x="0"
         y="0"
         id="tspan64">2</tspan></text><path
       d="m 22.48874,92.290528 v -2"
       style="fill:#000000;fill-opacity:1;fill-rule:nonzero;stroke:#000000;stroke-width:0.6;stroke-linecap:butt;stroke-linejoin:round;stroke-miterlimit:10;stroke-dasharray:none;stroke-opacity:1"
       id="path68" /><path
       d="m 30.410293,92.290528 v -2"
       style="fill:#000000;fill-opacity:1;fill-rule:nonzero;stroke:#000000;stroke-width:0.6;stroke-linecap:butt;stroke-linejoin:round;stroke-miterlimit:10;stroke-dasharray:none;stroke-opacity:1"
       id="path70" /><path
       d="m 38.331846,92.290528 v -2"
       style="fill:#000000;fill-opacity:1;fill-rule:nonzero;stroke:#000000;stroke-width:0.6;stroke-linecap:butt;stroke-linejoin:round;stroke-miterlimit:10;stroke-dasharray:none;stroke-opacity:1"
       id="path72" /><path
       d="m 46.253399,92.290528 v -2"
       style="fill:#000000;fill-opacity:1;fill-rule:nonzero;stroke:#000000;stroke-width:0.6;stroke-linecap:butt;stroke-linejoin:round;stroke-miterlimit:10;stroke-dasharray:none;stroke-opacity:1"
       id="path74" /><path
       d="m 62.096504,92.290528 v -2"
       style="fill:#000000;fill-opacity:1;fill-rule:nonzero;stroke:#000000;stroke-width:0.6;stroke-linecap:butt;stroke-linejoin:round;stroke-miterlimit:10;stroke-dasharray:none;stroke-opacity:1"
       id="path76" /><path
       d="m 70.018057,92.290528 v -2"
       style="fill:#000000;fill-opacity:1;fill-rule:nonzero;stroke:#000000;stroke-width:0.6;stroke-linecap:butt;stroke-linejoin:round;stroke-miterlimit:10;stroke-dasharray:none;stroke-opacity:1"
       id="path78" /><path
       d="m 77.93961,92.290528 v -2"
       style="fill:#000000;fill-opacity:1;fill-rule:nonzero;stroke:#000000;stroke-width:0.6;stroke-linecap:butt;stroke-linejoin:round;stroke-miterlimit:10;stroke-dasharray:none;stroke-opacity:1"
       id="path80" /><path
       d="m 85.861162,92.290528 v -2"
       style="fill:#000000;fill-opacity:1;fill-rule:nonzero;stroke:#000000;stroke-width:0.6;stroke-linecap:butt;stroke-linejoin:round;stroke-miterlimit:10;stroke-dasharray:none;stroke-opacity:1"
       id="path82" /><path
       d="m 101.70427,92.290528 v -2"
       style="fill:#000000;fill-opacity:1;fill-rule:nonzero;stroke:#000000;stroke-width:0.6;stroke-linecap:butt;stroke-linejoin:round;stroke-miterlimit:10;stroke-dasharray:none;stroke-opacity:1"
       id="path84" /><path
       d="m 109.62582,92.290528 v -2"
       style="fill:#000000;fill-opacity:1;fill-rule:nonzero;stroke:#000000;stroke-width:0.6;stroke-linecap:butt;stroke-linejoin:round;stroke-miterlimit:10;stroke-dasharray:none;stroke-opacity:1"
       id="path86" /><path
       d="m 117.54737,92.290528 v -2"
       style="fill:#000000;fill-opacity:1;fill-rule:nonzero;stroke:#000000;stroke-width:0.6;stroke-linecap:butt;stroke-linejoin:round;stroke-miterlimit:10;stroke-dasharray:none;stroke-opacity:1"
       id="path88" /><path
       d="m 125.46893,92.290528 v -2"
       style="fill:#000000;fill-opacity:1;fill-rule:nonzero;stroke:#000000;stroke-width:0.6;stroke-linecap:butt;stroke-linejoin:round;stroke-miterlimit:10;stroke-dasharray:none;stroke-opacity:1"
       id="path90" /><path
       d="m 141.31203,92.290528 v -2"
       style="fill:#000000;fill-opacity:1;fill-rule:nonzero;stroke:#000000;stroke-width:0.6;stroke-linecap:butt;stroke-linejoin:round;stroke-miterlimit:10;stroke-dasharray:none;stroke-opacity:1"
       id="path92" /><path
       d="m 149.23358,92.290528 v -2"
       style="fill:#000000;fill-opacity:1;fill-rule:nonzero;stroke:#000000;stroke-width:0.6;stroke-linecap:butt;stroke-linejoin:round;stroke-miterlimit:10;stroke-dasharray:none;stroke-opacity:1"
       id="path94" /><path
       d="m 157.15514,92.290528 v -2"
       style="fill:#000000;fill-opacity:1;fill-rule:nonzero;stroke:#000000;stroke-width:0.6;stroke-linecap:butt;stroke-linejoin:round;stroke-miterlimit:10;stroke-dasharray:none;stroke-opacity:1"
       id="path96" /><path
       d="m 165.07669,92.290528 v -2"
       style="fill:#000000;fill-opacity:1;fill-rule:nonzero;stroke:#000000;stroke-width:0.6;stroke-linecap:butt;stroke-linejoin:round;stroke-miterlimit:10;stroke-dasharray:none;stroke-opacity:1"
       id="path98" /><path
       d="m 93.782715,13.075 h -3.5"
       style="fill:#000000;fill-opacity:1;fill-rule:nonzero;stroke:#000000;stroke-width:0.8;stroke-linecap:butt;stroke-linejoin:round;stroke-miterlimit:10;stroke-dasharray:none;stroke-opacity:1"
       id="path100" /><g
       id="g102"
       transform="translate(72.04834,9.278125)"><text
         transform="matrix(1,0,0,-1,8.3789063,0)"
         style="font-variant:normal;font-weight:normal;font-size:10px;font-family:'DejaVu Sans';-inkscape-font-specification:DejaVuSans;writing-mode:lr-tb;fill:#000000;fill-opacity:1;fill-rule:nonzero;stroke:none"
         id="text106"><tspan
           x="0"
           y="0"
           id="tspan104">2</tspan></text><g
         id="g108"
         transform="scale(0.01)"><g
           id="g110"><g
             id="g112"
             clip-path="url(#clipPath116)"><path
               d="M 106,355 H 732 V 272 H 106 v 83"
               style="fill:#000000;fill-opacity:1;fill-rule:nonzero;stroke:none"
               id="path118" /></g></g></g></g><path
       d="m 93.782715,52.682764 h -3.5"
       style="fill:#000000;fill-opacity:1;fill-rule:nonzero;stroke:#000000;stroke-width:0.8;stroke-linecap:butt;stroke-linejoin:round;stroke-miterlimit:10;stroke-dasharray:none;stroke-opacity:1"
       id="path120" /><g
       id="g122"
       transform="translate(72.04834,48.885889)"><text
         transform="matrix(1,0,0,-1,8.3789063,0)"
         style="font-variant:normal;font-weight:normal;font-size:10px;font-family:'DejaVu Sans';-inkscape-font-specification:DejaVuSans;writing-mode:lr-tb;fill:#000000;fill-opacity:1;fill-rule:nonzero;stroke:none"
         id="text126"><tspan
           x="0"
           y="0"
           id="tspan124">1</tspan></text><g
         id="g128"
         transform="scale(0.01)"><g
           id="g130"><g
             id="g132"
             clip-path="url(#clipPath136)"><path
               d="M 106,355 H 732 V 272 H 106 v 83"
               style="fill:#000000;fill-opacity:1;fill-rule:nonzero;stroke:none"
               id="path138" /></g></g></g></g><path
       d="m 93.782715,92.290528 h -3.5"
       style="fill:#000000;fill-opacity:1;fill-rule:nonzero;stroke:#000000;stroke-width:0.8;stroke-linecap:butt;stroke-linejoin:round;stroke-miterlimit:10;stroke-dasharray:none;stroke-opacity:1"
       id="path140" /><path
       d="m 93.782715,131.89829 h -3.5"
       style="fill:#000000;fill-opacity:1;fill-rule:nonzero;stroke:#000000;stroke-width:0.8;stroke-linecap:butt;stroke-linejoin:round;stroke-miterlimit:10;stroke-dasharray:none;stroke-opacity:1"
       id="path142" /><text
       transform="matrix(1,0,0,-1,80.42334,128.10142)"
       style="font-variant:normal;font-weight:normal;font-size:10px;font-family:'DejaVu Sans';-inkscape-font-specification:DejaVuSans;writing-mode:lr-tb;fill:#000000;fill-opacity:1;fill-rule:nonzero;stroke:none"
       id="text146"><tspan
         x="0"
         y="0"
         id="tspan144">1</tspan></text><path
       d="m 93.782715,171.50605 h -3.5"
       style="fill:#000000;fill-opacity:1;fill-rule:nonzero;stroke:#000000;stroke-width:0.8;stroke-linecap:butt;stroke-linejoin:round;stroke-miterlimit:10;stroke-dasharray:none;stroke-opacity:1"
       id="path148" /><text
       transform="matrix(1,0,0,-1,80.42334,167.70918)"
       style="font-variant:normal;font-weight:normal;font-size:10px;font-family:'DejaVu Sans';-inkscape-font-specification:DejaVuSans;writing-mode:lr-tb;fill:#000000;fill-opacity:1;fill-rule:nonzero;stroke:none"
       id="text152"><tspan
         x="0"
         y="0"
         id="tspan150">2</tspan></text><path
       d="m 93.782715,20.996553 h -2"
       style="fill:#000000;fill-opacity:1;fill-rule:nonzero;stroke:#000000;stroke-width:0.6;stroke-linecap:butt;stroke-linejoin:round;stroke-miterlimit:10;stroke-dasharray:none;stroke-opacity:1"
       id="path154" /><path
       d="m 93.782715,28.918106 h -2"
       style="fill:#000000;fill-opacity:1;fill-rule:nonzero;stroke:#000000;stroke-width:0.6;stroke-linecap:butt;stroke-linejoin:round;stroke-miterlimit:10;stroke-dasharray:none;stroke-opacity:1"
       id="path156" /><path
       d="m 93.782715,36.839658 h -2"
       style="fill:#000000;fill-opacity:1;fill-rule:nonzero;stroke:#000000;stroke-width:0.6;stroke-linecap:butt;stroke-linejoin:round;stroke-miterlimit:10;stroke-dasharray:none;stroke-opacity:1"
       id="path158" /><path
       d="m 93.782715,44.761211 h -2"
       style="fill:#000000;fill-opacity:1;fill-rule:nonzero;stroke:#000000;stroke-width:0.6;stroke-linecap:butt;stroke-linejoin:round;stroke-miterlimit:10;stroke-dasharray:none;stroke-opacity:1"
       id="path160" /><path
       d="m 93.782715,60.604317 h -2"
       style="fill:#000000;fill-opacity:1;fill-rule:nonzero;stroke:#000000;stroke-width:0.6;stroke-linecap:butt;stroke-linejoin:round;stroke-miterlimit:10;stroke-dasharray:none;stroke-opacity:1"
       id="path162" /><path
       d="m 93.782715,68.525869 h -2"
       style="fill:#000000;fill-opacity:1;fill-rule:nonzero;stroke:#000000;stroke-width:0.6;stroke-linecap:butt;stroke-linejoin:round;stroke-miterlimit:10;stroke-dasharray:none;stroke-opacity:1"
       id="path164" /><path
       d="m 93.782715,76.447422 h -2"
       style="fill:#000000;fill-opacity:1;fill-rule:nonzero;stroke:#000000;stroke-width:0.6;stroke-linecap:butt;stroke-linejoin:round;stroke-miterlimit:10;stroke-dasharray:none;stroke-opacity:1"
       id="path166" /><path
       d="m 93.782715,84.368975 h -2"
       style="fill:#000000;fill-opacity:1;fill-rule:nonzero;stroke:#000000;stroke-width:0.6;stroke-linecap:butt;stroke-linejoin:round;stroke-miterlimit:10;stroke-dasharray:none;stroke-opacity:1"
       id="path168" /><path
       d="m 93.782715,100.21208 h -2"
       style="fill:#000000;fill-opacity:1;fill-rule:nonzero;stroke:#000000;stroke-width:0.6;stroke-linecap:butt;stroke-linejoin:round;stroke-miterlimit:10;stroke-dasharray:none;stroke-opacity:1"
       id="path170" /><path
       d="m 93.782715,108.13363 h -2"
       style="fill:#000000;fill-opacity:1;fill-rule:nonzero;stroke:#000000;stroke-width:0.6;stroke-linecap:butt;stroke-linejoin:round;stroke-miterlimit:10;stroke-dasharray:none;stroke-opacity:1"
       id="path172" /><path
       d="m 93.782715,116.05519 h -2"
       style="fill:#000000;fill-opacity:1;fill-rule:nonzero;stroke:#000000;stroke-width:0.6;stroke-linecap:butt;stroke-linejoin:round;stroke-miterlimit:10;stroke-dasharray:none;stroke-opacity:1"
       id="path174" /><path
       d="m 93.782715,123.97674 h -2"
       style="fill:#000000;fill-opacity:1;fill-rule:nonzero;stroke:#000000;stroke-width:0.6;stroke-linecap:butt;stroke-linejoin:round;stroke-miterlimit:10;stroke-dasharray:none;stroke-opacity:1"
       id="path176" /><path
       d="m 93.782715,139.81984 h -2"
       style="fill:#000000;fill-opacity:1;fill-rule:nonzero;stroke:#000000;stroke-width:0.6;stroke-linecap:butt;stroke-linejoin:round;stroke-miterlimit:10;stroke-dasharray:none;stroke-opacity:1"
       id="path178" /><path
       d="m 93.782715,147.7414 h -2"
       style="fill:#000000;fill-opacity:1;fill-rule:nonzero;stroke:#000000;stroke-width:0.6;stroke-linecap:butt;stroke-linejoin:round;stroke-miterlimit:10;stroke-dasharray:none;stroke-opacity:1"
       id="path180" /><path
       d="m 93.782715,155.66295 h -2"
       style="fill:#000000;fill-opacity:1;fill-rule:nonzero;stroke:#000000;stroke-width:0.6;stroke-linecap:butt;stroke-linejoin:round;stroke-miterlimit:10;stroke-dasharray:none;stroke-opacity:1"
       id="path182" /><path
       d="m 93.782715,163.5845 h -2"
       style="fill:#000000;fill-opacity:1;fill-rule:nonzero;stroke:#000000;stroke-width:0.6;stroke-linecap:butt;stroke-linejoin:round;stroke-miterlimit:10;stroke-dasharray:none;stroke-opacity:1"
       id="path184" /><g
       id="g186"><g
         id="g188"
         clip-path="url(#clipPath192)"><path
           d="M 9.338963,13.075 H 178.22647"
           style="fill:none;stroke:#000000;stroke-width:0.5;stroke-linecap:butt;stroke-linejoin:round;stroke-miterlimit:10;stroke-dasharray:0.5, 0.825;stroke-dashoffset:0;stroke-opacity:1"
           id="path194" /></g></g><g
       id="g196"><g
         id="g198"
         clip-path="url(#clipPath202)"><path
           d="M 9.338963,52.682764 H 178.22647"
           style="fill:none;stroke:#000000;stroke-width:0.5;stroke-linecap:butt;stroke-linejoin:round;stroke-miterlimit:10;stroke-dasharray:0.5, 0.825;stroke-dashoffset:0;stroke-opacity:1"
           id="path204" /></g></g><g
       id="g206"><g
         id="g208"
         clip-path="url(#clipPath212)"><path
           d="M 9.338963,92.290528 H 178.22647"
           style="fill:none;stroke:#000000;stroke-width:0.5;stroke-linecap:butt;stroke-linejoin:round;stroke-miterlimit:10;stroke-dasharray:0.5, 0.825;stroke-dashoffset:0;stroke-opacity:1"
           id="path214" /></g></g><g
       id="g216"><g
         id="g218"
         clip-path="url(#clipPath222)"><path
           d="M 9.338963,131.89829 H 178.22647"
           style="fill:none;stroke:#000000;stroke-width:0.5;stroke-linecap:butt;stroke-linejoin:round;stroke-miterlimit:10;stroke-dasharray:0.5, 0.825;stroke-dashoffset:0;stroke-opacity:1"
           id="path224" /></g></g><g
       id="g226"><g
         id="g228"
         clip-path="url(#clipPath232)"><path
           d="M 9.338963,171.50605 H 178.22647"
           style="fill:none;stroke:#000000;stroke-width:0.5;stroke-linecap:butt;stroke-linejoin:round;stroke-miterlimit:10;stroke-dasharray:0.5, 0.825;stroke-dashoffset:0;stroke-opacity:1"
           id="path234" /></g></g><g
       id="g236"><g
         id="g238"
         clip-path="url(#clipPath242)"><path
           d="M 14.567188,7.846775 V 176.73428"
           style="fill:none;stroke:#000000;stroke-width:0.5;stroke-linecap:butt;stroke-linejoin:round;stroke-miterlimit:10;stroke-dasharray:0.5, 0.825;stroke-dashoffset:0;stroke-opacity:1"
           id="path244" /></g></g><g
       id="g246"><g
         id="g248"
         clip-path="url(#clipPath252)"><path
           d="M 54.174951,7.846775 V 176.73428"
           style="fill:none;stroke:#000000;stroke-width:0.5;stroke-linecap:butt;stroke-linejoin:round;stroke-miterlimit:10;stroke-dasharray:0.5, 0.825;stroke-dashoffset:0;stroke-opacity:1"
           id="path254" /></g></g><g
       id="g256"><g
         id="g258"
         clip-path="url(#clipPath262)"><path
           d="M 93.782715,7.846775 V 176.73428"
           style="fill:none;stroke:#000000;stroke-width:0.5;stroke-linecap:butt;stroke-linejoin:round;stroke-miterlimit:10;stroke-dasharray:0.5, 0.825;stroke-dashoffset:0;stroke-opacity:1"
           id="path264" /></g></g><g
       id="g266"><g
         id="g268"
         clip-path="url(#clipPath272)"><path
           d="M 133.39048,7.846775 V 176.73428"
           style="fill:none;stroke:#000000;stroke-width:0.5;stroke-linecap:butt;stroke-linejoin:round;stroke-miterlimit:10;stroke-dasharray:0.5, 0.825;stroke-dashoffset:0;stroke-opacity:1"
           id="path274" /></g></g><g
       id="g276"><g
         id="g278"
         clip-path="url(#clipPath282)"><path
           d="M 172.99824,7.846775 V 176.73428"
           style="fill:none;stroke:#000000;stroke-width:0.5;stroke-linecap:butt;stroke-linejoin:round;stroke-miterlimit:10;stroke-dasharray:0.5, 0.825;stroke-dashoffset:0;stroke-opacity:1"
           id="path284" /></g></g><g
       id="g286"><path
         d="M 93.782715,7.846775 V 176.73428"
         style="fill:none;stroke:#000000;stroke-width:0.8;stroke-linecap:square;stroke-linejoin:miter;stroke-miterlimit:10;stroke-dasharray:none;stroke-opacity:1"
         id="path288" /><path
         d="M 9.338963,92.290528 H 178.22647"
         style="fill:none;stroke:#000000;stroke-width:0.8;stroke-linecap:square;stroke-linejoin:miter;stroke-miterlimit:10;stroke-dasharray:none;stroke-opacity:1"
         id="path290" /></g><g
       id="g292"><g
         id="g294"
         clip-path="url(#clipPath298)"><path
           d="m 14.567188,11.094612 c 0.525205,0 1.028969,0.208666 1.400345,0.580042 0.371376,0.371376 0.580043,0.875141 0.580043,1.400346 0,0.525205 -0.208667,1.02897 -0.580043,1.400346 -0.371376,0.371376 -0.87514,0.580042 -1.400345,0.580042 -0.525206,0 -1.02897,-0.208666 -1.400346,-0.580042 -0.371376,-0.371376 -0.580043,-0.875141 -0.580043,-1.400346 0,-0.525205 0.208667,-1.02897 0.580043,-1.400346 0.371376,-0.371376 0.87514,-0.580042 1.400346,-0.580042 z"
           style="fill:#0000ff;fill-opacity:1;fill-rule:nonzero;stroke:#0000ff;stroke-width:1;stroke-linecap:butt;stroke-linejoin:miter;stroke-miterlimit:10;stroke-dasharray:none;stroke-opacity:1"
           id="path300" /></g></g><g
       id="g302"><g
         id="g304"
         clip-path="url(#clipPath308)"><path
           d="m 14.567188,50.702376 c 0.525205,0 1.028969,0.208666 1.400345,0.580042 0.371376,0.371376 0.580043,0.875141 0.580043,1.400346 0,0.525205 -0.208667,1.02897 -0.580043,1.400346 -0.371376,0.371376 -0.87514,0.580042 -1.400345,0.580042 -0.525206,0 -1.02897,-0.208666 -1.400346,-0.580042 -0.371376,-0.371376 -0.580043,-0.875141 -0.580043,-1.400346 0,-0.525205 0.208667,-1.02897 0.580043,-1.400346 0.371376,-0.371376 0.87514,-0.580042 1.400346,-0.580042 z"
           style="fill:#0000ff;fill-opacity:1;fill-rule:nonzero;stroke:#0000ff;stroke-width:1;stroke-linecap:butt;stroke-linejoin:miter;stroke-miterlimit:10;stroke-dasharray:none;stroke-opacity:1"
           id="path310" /></g></g><g
       id="g312"><g
         id="g314"
         clip-path="url(#clipPath318)"><path
           d="m 14.567188,90.310139 c 0.525205,0 1.028969,0.208667 1.400345,0.580043 0.371376,0.371376 0.580043,0.87514 0.580043,1.400346 0,0.525205 -0.208667,1.028969 -0.580043,1.400345 -0.371376,0.371377 -0.87514,0.580043 -1.400345,0.580043 -0.525206,0 -1.02897,-0.208666 -1.400346,-0.580043 -0.371376,-0.371376 -0.580043,-0.87514 -0.580043,-1.400345 0,-0.525206 0.208667,-1.02897 0.580043,-1.400346 0.371376,-0.371376 0.87514,-0.580043 1.400346,-0.580043 z"
           style="fill:#0000ff;fill-opacity:1;fill-rule:nonzero;stroke:#0000ff;stroke-width:1;stroke-linecap:butt;stroke-linejoin:miter;stroke-miterlimit:10;stroke-dasharray:none;stroke-opacity:1"
           id="path320" /></g></g><g
       id="g322"><g
         id="g324"
         clip-path="url(#clipPath328)"><path
           d="m 14.567188,129.9179 c 0.525205,0 1.028969,0.20867 1.400345,0.58005 0.371376,0.37137 0.580043,0.87514 0.580043,1.40034 0,0.52521 -0.208667,1.02897 -0.580043,1.40035 -0.371376,0.37137 -0.87514,0.58004 -1.400345,0.58004 -0.525206,0 -1.02897,-0.20867 -1.400346,-0.58004 -0.371376,-0.37138 -0.580043,-0.87514 -0.580043,-1.40035 0,-0.5252 0.208667,-1.02897 0.580043,-1.40034 0.371376,-0.37138 0.87514,-0.58005 1.400346,-0.58005 z"
           style="fill:#0000ff;fill-opacity:1;fill-rule:nonzero;stroke:#0000ff;stroke-width:1;stroke-linecap:butt;stroke-linejoin:miter;stroke-miterlimit:10;stroke-dasharray:none;stroke-opacity:1"
           id="path330" /></g></g><g
       id="g332"><g
         id="g334"
         clip-path="url(#clipPath338)"><path
           d="m 14.567188,169.52567 c 0.525205,0 1.028969,0.20866 1.400345,0.58004 0.371376,0.37137 0.580043,0.87514 0.580043,1.40034 0,0.52521 -0.208667,1.02897 -0.580043,1.40035 -0.371376,0.37138 -0.87514,0.58004 -1.400345,0.58004 -0.525206,0 -1.02897,-0.20866 -1.400346,-0.58004 -0.371376,-0.37138 -0.580043,-0.87514 -0.580043,-1.40035 0,-0.5252 0.208667,-1.02897 0.580043,-1.40034 0.371376,-0.37138 0.87514,-0.58004 1.400346,-0.58004 z"
           style="fill:#0000ff;fill-opacity:1;fill-rule:nonzero;stroke:#0000ff;stroke-width:1;stroke-linecap:butt;stroke-linejoin:miter;stroke-miterlimit:10;stroke-dasharray:none;stroke-opacity:1"
           id="path340" /></g></g><g
       id="g342"><g
         id="g344"
         clip-path="url(#clipPath348)"><path
           d="m 54.174951,11.094612 c 0.525205,0 1.02897,0.208666 1.400346,0.580042 0.371376,0.371376 0.580042,0.875141 0.580042,1.400346 0,0.525205 -0.208666,1.02897 -0.580042,1.400346 -0.371376,0.371376 -0.875141,0.580042 -1.400346,0.580042 -0.525205,0 -1.02897,-0.208666 -1.400346,-0.580042 -0.371376,-0.371376 -0.580042,-0.875141 -0.580042,-1.400346 0,-0.525205 0.208666,-1.02897 0.580042,-1.400346 0.371376,-0.371376 0.875141,-0.580042 1.400346,-0.580042 z"
           style="fill:#0000ff;fill-opacity:1;fill-rule:nonzero;stroke:#0000ff;stroke-width:1;stroke-linecap:butt;stroke-linejoin:miter;stroke-miterlimit:10;stroke-dasharray:none;stroke-opacity:1"
           id="path350" /></g></g><g
       id="g352"><g
         id="g354"
         clip-path="url(#clipPath358)"><path
           d="m 54.174951,50.702376 c 0.525205,0 1.02897,0.208666 1.400346,0.580042 0.371376,0.371376 0.580042,0.875141 0.580042,1.400346 0,0.525205 -0.208666,1.02897 -0.580042,1.400346 -0.371376,0.371376 -0.875141,0.580042 -1.400346,0.580042 -0.525205,0 -1.02897,-0.208666 -1.400346,-0.580042 -0.371376,-0.371376 -0.580042,-0.875141 -0.580042,-1.400346 0,-0.525205 0.208666,-1.02897 0.580042,-1.400346 0.371376,-0.371376 0.875141,-0.580042 1.400346,-0.580042 z"
           style="fill:#0000ff;fill-opacity:1;fill-rule:nonzero;stroke:#0000ff;stroke-width:1;stroke-linecap:butt;stroke-linejoin:miter;stroke-miterlimit:10;stroke-dasharray:none;stroke-opacity:1"
           id="path360" /></g></g><g
       id="g362"><g
         id="g364"
         clip-path="url(#clipPath368)"><path
           d="m 54.174951,90.310139 c 0.525205,0 1.02897,0.208667 1.400346,0.580043 0.371376,0.371376 0.580042,0.87514 0.580042,1.400346 0,0.525205 -0.208666,1.028969 -0.580042,1.400345 -0.371376,0.371377 -0.875141,0.580043 -1.400346,0.580043 -0.525205,0 -1.02897,-0.208666 -1.400346,-0.580043 -0.371376,-0.371376 -0.580042,-0.87514 -0.580042,-1.400345 0,-0.525206 0.208666,-1.02897 0.580042,-1.400346 0.371376,-0.371376 0.875141,-0.580043 1.400346,-0.580043 z"
           style="fill:#0000ff;fill-opacity:1;fill-rule:nonzero;stroke:#0000ff;stroke-width:1;stroke-linecap:butt;stroke-linejoin:miter;stroke-miterlimit:10;stroke-dasharray:none;stroke-opacity:1"
           id="path370" /></g></g><g
       id="g372"><g
         id="g374"
         clip-path="url(#clipPath378)"><path
           d="m 54.174951,129.9179 c 0.525205,0 1.02897,0.20867 1.400346,0.58005 0.371376,0.37137 0.580042,0.87514 0.580042,1.40034 0,0.52521 -0.208666,1.02897 -0.580042,1.40035 -0.371376,0.37137 -0.875141,0.58004 -1.400346,0.58004 -0.525205,0 -1.02897,-0.20867 -1.400346,-0.58004 -0.371376,-0.37138 -0.580042,-0.87514 -0.580042,-1.40035 0,-0.5252 0.208666,-1.02897 0.580042,-1.40034 0.371376,-0.37138 0.875141,-0.58005 1.400346,-0.58005 z"
           style="fill:#0000ff;fill-opacity:1;fill-rule:nonzero;stroke:#0000ff;stroke-width:1;stroke-linecap:butt;stroke-linejoin:miter;stroke-miterlimit:10;stroke-dasharray:none;stroke-opacity:1"
           id="path380" /></g></g><g
       id="g382"><g
         id="g384"
         clip-path="url(#clipPath388)"><path
           d="m 54.174951,169.52567 c 0.525205,0 1.02897,0.20866 1.400346,0.58004 0.371376,0.37137 0.580042,0.87514 0.580042,1.40034 0,0.52521 -0.208666,1.02897 -0.580042,1.40035 -0.371376,0.37138 -0.875141,0.58004 -1.400346,0.58004 -0.525205,0 -1.02897,-0.20866 -1.400346,-0.58004 -0.371376,-0.37138 -0.580042,-0.87514 -0.580042,-1.40035 0,-0.5252 0.208666,-1.02897 0.580042,-1.40034 0.371376,-0.37138 0.875141,-0.58004 1.400346,-0.58004 z"
           style="fill:#0000ff;fill-opacity:1;fill-rule:nonzero;stroke:#0000ff;stroke-width:1;stroke-linecap:butt;stroke-linejoin:miter;stroke-miterlimit:10;stroke-dasharray:none;stroke-opacity:1"
           id="path390" /></g></g><g
       id="g392"><g
         id="g394"
         clip-path="url(#clipPath398)"><path
           d="m 93.782715,11.094612 c 0.525205,0 1.02897,0.208666 1.400346,0.580042 0.371376,0.371376 0.580042,0.875141 0.580042,1.400346 0,0.525205 -0.208666,1.02897 -0.580042,1.400346 -0.371376,0.371376 -0.875141,0.580042 -1.400346,0.580042 -0.525205,0 -1.02897,-0.208666 -1.400346,-0.580042 -0.371376,-0.371376 -0.580042,-0.875141 -0.580042,-1.400346 0,-0.525205 0.208666,-1.02897 0.580042,-1.400346 0.371376,-0.371376 0.875141,-0.580042 1.400346,-0.580042 z"
           style="fill:#0000ff;fill-opacity:1;fill-rule:nonzero;stroke:#0000ff;stroke-width:1;stroke-linecap:butt;stroke-linejoin:miter;stroke-miterlimit:10;stroke-dasharray:none;stroke-opacity:1"
           id="path400" /></g></g><g
       id="g402"><g
         id="g404"
         clip-path="url(#clipPath408)"><path
           d="m 93.782715,50.702376 c 0.525205,0 1.02897,0.208666 1.400346,0.580042 0.371376,0.371376 0.580042,0.875141 0.580042,1.400346 0,0.525205 -0.208666,1.02897 -0.580042,1.400346 -0.371376,0.371376 -0.875141,0.580042 -1.400346,0.580042 -0.525205,0 -1.02897,-0.208666 -1.400346,-0.580042 -0.371376,-0.371376 -0.580042,-0.875141 -0.580042,-1.400346 0,-0.525205 0.208666,-1.02897 0.580042,-1.400346 0.371376,-0.371376 0.875141,-0.580042 1.400346,-0.580042 z"
           style="fill:#0000ff;fill-opacity:1;fill-rule:nonzero;stroke:#0000ff;stroke-width:1;stroke-linecap:butt;stroke-linejoin:miter;stroke-miterlimit:10;stroke-dasharray:none;stroke-opacity:1"
           id="path410" /></g></g><g
       id="g412"><g
         id="g414"
         clip-path="url(#clipPath418)"><path
           d="m 93.782715,90.310139 c 0.525205,0 1.02897,0.208667 1.400346,0.580043 0.371376,0.371376 0.580042,0.87514 0.580042,1.400346 0,0.525205 -0.208666,1.028969 -0.580042,1.400345 -0.371376,0.371377 -0.875141,0.580043 -1.400346,0.580043 -0.525205,0 -1.02897,-0.208666 -1.400346,-0.580043 -0.371376,-0.371376 -0.580042,-0.87514 -0.580042,-1.400345 0,-0.525206 0.208666,-1.02897 0.580042,-1.400346 0.371376,-0.371376 0.875141,-0.580043 1.400346,-0.580043 z"
           style="fill:#0000ff;fill-opacity:1;fill-rule:nonzero;stroke:#0000ff;stroke-width:1;stroke-linecap:butt;stroke-linejoin:miter;stroke-miterlimit:10;stroke-dasharray:none;stroke-opacity:1"
           id="path420" /></g></g><g
       id="g422"><g
         id="g424"
         clip-path="url(#clipPath428)"><path
           d="m 93.782715,129.9179 c 0.525205,0 1.02897,0.20867 1.400346,0.58005 0.371376,0.37137 0.580042,0.87514 0.580042,1.40034 0,0.52521 -0.208666,1.02897 -0.580042,1.40035 -0.371376,0.37137 -0.875141,0.58004 -1.400346,0.58004 -0.525205,0 -1.02897,-0.20867 -1.400346,-0.58004 -0.371376,-0.37138 -0.580042,-0.87514 -0.580042,-1.40035 0,-0.5252 0.208666,-1.02897 0.580042,-1.40034 0.371376,-0.37138 0.875141,-0.58005 1.400346,-0.58005 z"
           style="fill:#0000ff;fill-opacity:1;fill-rule:nonzero;stroke:#0000ff;stroke-width:1;stroke-linecap:butt;stroke-linejoin:miter;stroke-miterlimit:10;stroke-dasharray:none;stroke-opacity:1"
           id="path430" /></g></g><g
       id="g432"><g
         id="g434"
         clip-path="url(#clipPath438)"><path
           d="m 93.782715,169.52567 c 0.525205,0 1.02897,0.20866 1.400346,0.58004 0.371376,0.37137 0.580042,0.87514 0.580042,1.40034 0,0.52521 -0.208666,1.02897 -0.580042,1.40035 -0.371376,0.37138 -0.875141,0.58004 -1.400346,0.58004 -0.525205,0 -1.02897,-0.20866 -1.400346,-0.58004 -0.371376,-0.37138 -0.580042,-0.87514 -0.580042,-1.40035 0,-0.5252 0.208666,-1.02897 0.580042,-1.40034 0.371376,-0.37138 0.875141,-0.58004 1.400346,-0.58004 z"
           style="fill:#0000ff;fill-opacity:1;fill-rule:nonzero;stroke:#0000ff;stroke-width:1;stroke-linecap:butt;stroke-linejoin:miter;stroke-miterlimit:10;stroke-dasharray:none;stroke-opacity:1"
           id="path440" /></g></g><g
       id="g442"><g
         id="g444"
         clip-path="url(#clipPath448)"><path
           d="m 133.39048,11.094612 c 0.5252,0 1.02897,0.208666 1.40034,0.580042 0.37138,0.371376 0.58005,0.875141 0.58005,1.400346 0,0.525205 -0.20867,1.02897 -0.58005,1.400346 -0.37137,0.371376 -0.87514,0.580042 -1.40034,0.580042 -0.52521,0 -1.02897,-0.208666 -1.40035,-0.580042 -0.37137,-0.371376 -0.58004,-0.875141 -0.58004,-1.400346 0,-0.525205 0.20867,-1.02897 0.58004,-1.400346 0.37138,-0.371376 0.87514,-0.580042 1.40035,-0.580042 z"
           style="fill:#0000ff;fill-opacity:1;fill-rule:nonzero;stroke:#0000ff;stroke-width:1;stroke-linecap:butt;stroke-linejoin:miter;stroke-miterlimit:10;stroke-dasharray:none;stroke-opacity:1"
           id="path450" /></g></g><g
       id="g452"><g
         id="g454"
         clip-path="url(#clipPath458)"><path
           d="m 133.39048,50.702376 c 0.5252,0 1.02897,0.208666 1.40034,0.580042 0.37138,0.371376 0.58005,0.875141 0.58005,1.400346 0,0.525205 -0.20867,1.02897 -0.58005,1.400346 -0.37137,0.371376 -0.87514,0.580042 -1.40034,0.580042 -0.52521,0 -1.02897,-0.208666 -1.40035,-0.580042 -0.37137,-0.371376 -0.58004,-0.875141 -0.58004,-1.400346 0,-0.525205 0.20867,-1.02897 0.58004,-1.400346 0.37138,-0.371376 0.87514,-0.580042 1.40035,-0.580042 z"
           style="fill:#0000ff;fill-opacity:1;fill-rule:nonzero;stroke:#0000ff;stroke-width:1;stroke-linecap:butt;stroke-linejoin:miter;stroke-miterlimit:10;stroke-dasharray:none;stroke-opacity:1"
           id="path460" /></g></g><g
       id="g462"><g
         id="g464"
         clip-path="url(#clipPath468)"><path
           d="m 133.39048,90.310139 c 0.5252,0 1.02897,0.208667 1.40034,0.580043 0.37138,0.371376 0.58005,0.87514 0.58005,1.400346 0,0.525205 -0.20867,1.028969 -0.58005,1.400345 -0.37137,0.371377 -0.87514,0.580043 -1.40034,0.580043 -0.52521,0 -1.02897,-0.208666 -1.40035,-0.580043 -0.37137,-0.371376 -0.58004,-0.87514 -0.58004,-1.400345 0,-0.525206 0.20867,-1.02897 0.58004,-1.400346 0.37138,-0.371376 0.87514,-0.580043 1.40035,-0.580043 z"
           style="fill:#0000ff;fill-opacity:1;fill-rule:nonzero;stroke:#0000ff;stroke-width:1;stroke-linecap:butt;stroke-linejoin:miter;stroke-miterlimit:10;stroke-dasharray:none;stroke-opacity:1"
           id="path470" /></g></g><g
       id="g472"><g
         id="g474"
         clip-path="url(#clipPath478)"><path
           d="m 133.39048,129.9179 c 0.5252,0 1.02897,0.20867 1.40034,0.58005 0.37138,0.37137 0.58005,0.87514 0.58005,1.40034 0,0.52521 -0.20867,1.02897 -0.58005,1.40035 -0.37137,0.37137 -0.87514,0.58004 -1.40034,0.58004 -0.52521,0 -1.02897,-0.20867 -1.40035,-0.58004 -0.37137,-0.37138 -0.58004,-0.87514 -0.58004,-1.40035 0,-0.5252 0.20867,-1.02897 0.58004,-1.40034 0.37138,-0.37138 0.87514,-0.58005 1.40035,-0.58005 z"
           style="fill:#0000ff;fill-opacity:1;fill-rule:nonzero;stroke:#0000ff;stroke-width:1;stroke-linecap:butt;stroke-linejoin:miter;stroke-miterlimit:10;stroke-dasharray:none;stroke-opacity:1"
           id="path480" /></g></g><g
       id="g482"><g
         id="g484"
         clip-path="url(#clipPath488)"><path
           d="m 133.39048,169.52567 c 0.5252,0 1.02897,0.20866 1.40034,0.58004 0.37138,0.37137 0.58005,0.87514 0.58005,1.40034 0,0.52521 -0.20867,1.02897 -0.58005,1.40035 -0.37137,0.37138 -0.87514,0.58004 -1.40034,0.58004 -0.52521,0 -1.02897,-0.20866 -1.40035,-0.58004 -0.37137,-0.37138 -0.58004,-0.87514 -0.58004,-1.40035 0,-0.5252 0.20867,-1.02897 0.58004,-1.40034 0.37138,-0.37138 0.87514,-0.58004 1.40035,-0.58004 z"
           style="fill:#0000ff;fill-opacity:1;fill-rule:nonzero;stroke:#0000ff;stroke-width:1;stroke-linecap:butt;stroke-linejoin:miter;stroke-miterlimit:10;stroke-dasharray:none;stroke-opacity:1"
           id="path490" /></g></g><g
       id="g492"><g
         id="g494"
         clip-path="url(#clipPath498)"><path
           d="m 172.99824,11.094612 c 0.52521,0 1.02897,0.208666 1.40035,0.580042 0.37137,0.371376 0.58004,0.875141 0.58004,1.400346 0,0.525205 -0.20867,1.02897 -0.58004,1.400346 -0.37138,0.371376 -0.87514,0.580042 -1.40035,0.580042 -0.5252,0 -1.02897,-0.208666 -1.40034,-0.580042 -0.37138,-0.371376 -0.58005,-0.875141 -0.58005,-1.400346 0,-0.525205 0.20867,-1.02897 0.58005,-1.400346 0.37137,-0.371376 0.87514,-0.580042 1.40034,-0.580042 z"
           style="fill:#0000ff;fill-opacity:1;fill-rule:nonzero;stroke:#0000ff;stroke-width:1;stroke-linecap:butt;stroke-linejoin:miter;stroke-miterlimit:10;stroke-dasharray:none;stroke-opacity:1"
           id="path500" /></g></g><g
       id="g502"><g
         id="g504"
         clip-path="url(#clipPath508)"><path
           d="m 172.99824,50.702376 c 0.52521,0 1.02897,0.208666 1.40035,0.580042 0.37137,0.371376 0.58004,0.875141 0.58004,1.400346 0,0.525205 -0.20867,1.02897 -0.58004,1.400346 -0.37138,0.371376 -0.87514,0.580042 -1.40035,0.580042 -0.5252,0 -1.02897,-0.208666 -1.40034,-0.580042 -0.37138,-0.371376 -0.58005,-0.875141 -0.58005,-1.400346 0,-0.525205 0.20867,-1.02897 0.58005,-1.400346 0.37137,-0.371376 0.87514,-0.580042 1.40034,-0.580042 z"
           style="fill:#0000ff;fill-opacity:1;fill-rule:nonzero;stroke:#0000ff;stroke-width:1;stroke-linecap:butt;stroke-linejoin:miter;stroke-miterlimit:10;stroke-dasharray:none;stroke-opacity:1"
           id="path510" /></g></g><g
       id="g512"><g
         id="g514"
         clip-path="url(#clipPath518)"><path
           d="m 172.99824,90.310139 c 0.52521,0 1.02897,0.208667 1.40035,0.580043 0.37137,0.371376 0.58004,0.87514 0.58004,1.400346 0,0.525205 -0.20867,1.028969 -0.58004,1.400345 -0.37138,0.371377 -0.87514,0.580043 -1.40035,0.580043 -0.5252,0 -1.02897,-0.208666 -1.40034,-0.580043 -0.37138,-0.371376 -0.58005,-0.87514 -0.58005,-1.400345 0,-0.525206 0.20867,-1.02897 0.58005,-1.400346 0.37137,-0.371376 0.87514,-0.580043 1.40034,-0.580043 z"
           style="fill:#0000ff;fill-opacity:1;fill-rule:nonzero;stroke:#0000ff;stroke-width:1;stroke-linecap:butt;stroke-linejoin:miter;stroke-miterlimit:10;stroke-dasharray:none;stroke-opacity:1"
           id="path520" /></g></g><g
       id="g522"><g
         id="g524"
         clip-path="url(#clipPath528)"><path
           d="m 172.99824,129.9179 c 0.52521,0 1.02897,0.20867 1.40035,0.58005 0.37137,0.37137 0.58004,0.87514 0.58004,1.40034 0,0.52521 -0.20867,1.02897 -0.58004,1.40035 -0.37138,0.37137 -0.87514,0.58004 -1.40035,0.58004 -0.5252,0 -1.02897,-0.20867 -1.40034,-0.58004 -0.37138,-0.37138 -0.58005,-0.87514 -0.58005,-1.40035 0,-0.5252 0.20867,-1.02897 0.58005,-1.40034 0.37137,-0.37138 0.87514,-0.58005 1.40034,-0.58005 z"
           style="fill:#0000ff;fill-opacity:1;fill-rule:nonzero;stroke:#0000ff;stroke-width:1;stroke-linecap:butt;stroke-linejoin:miter;stroke-miterlimit:10;stroke-dasharray:none;stroke-opacity:1"
           id="path530" /></g></g><g
       id="g532"><g
         id="g534"
         clip-path="url(#clipPath538)"><path
           d="m 172.99824,169.52567 c 0.52521,0 1.02897,0.20866 1.40035,0.58004 0.37137,0.37137 0.58004,0.87514 0.58004,1.40034 0,0.52521 -0.20867,1.02897 -0.58004,1.40035 -0.37138,0.37138 -0.87514,0.58004 -1.40035,0.58004 -0.5252,0 -1.02897,-0.20866 -1.40034,-0.58004 -0.37138,-0.37138 -0.58005,-0.87514 -0.58005,-1.40035 0,-0.5252 0.20867,-1.02897 0.58005,-1.40034 0.37137,-0.37138 0.87514,-0.58004 1.40034,-0.58004 z"
           style="fill:#0000ff;fill-opacity:1;fill-rule:nonzero;stroke:#0000ff;stroke-width:1;stroke-linecap:butt;stroke-linejoin:miter;stroke-miterlimit:10;stroke-dasharray:none;stroke-opacity:1"
           id="path540" /></g></g></g></svg>
